<svg xmlns="http://www.w3.org/2000/svg" xmlns:xlink="http://www.w3.org/1999/xlink" version="1.1" id="Layer_1" x="0px" y="0px" viewBox="0 0 154.8 46.7" style="enable-background:new 0 0 154.8 46.7;" xml:space="preserve">
 <style type="text/css">
  .st0{fill:#171717;}
 </style>
 <g id="ef34e798-518f-4388-ac79-8e481fcb331f">
  <path class="st0" d="M22.8,29.7c0.2,2.7-1,5.2-3.1,6.9c-2.2,1.6-4.9,2.3-7.6,2.2c-4.4,0-8.6-1.5-12-4.2l3.4-5.2 c3.1,2.2,6,3.3,8.8,3.3c2.2,0,3.3-0.7,3.3-2.1v-0.1c0-0.8-0.6-1.4-1.7-1.9c-0.4-0.2-1.8-0.6-4.1-1.3c-5.6-1.6-8.4-4.4-8.4-8.4v-0.1 c-0.1-2.6,1-5,3-6.6c2.1-1.6,4.6-2.4,7.2-2.3c3.7,0,7.4,1.1,10.5,3.2l-3,5.5c-3-1.7-5.5-2.6-7.6-2.6c-2,0-2.9,0.6-2.9,1.9V18 c0,0.7,0.6,1.3,1.7,1.9c0.5,0.2,1.8,0.7,4,1.5c2,0.6,4,1.5,5.7,2.7C21.8,25.4,22.8,27.5,22.8,29.7L22.8,29.7z M42.1,38.9 c-1.1,2.9-2.3,4.9-3.6,6.1c-1.6,1.3-3.6,1.9-5.6,1.8c-2.5,0-4.9-0.7-7.1-1.9l2.7-5.8c1,0.7,2.2,1,3.4,1.1c1.2,0,2.3-0.7,2.8-1.8 l-11-28.2h8.4l6.4,19.1l6.1-19.1h8.3L42.1,38.9z M75.3,29.7c0.2,2.7-1,5.2-3.1,6.9c-2.2,1.6-4.9,2.3-7.6,2.2c-4.4,0-8.6-1.5-12-4.2 l3.4-5.2c3.1,2.2,6,3.3,8.8,3.3c2.2,0,3.3-0.7,3.3-2.1v-0.1c0-0.8-0.6-1.4-1.7-1.9c-0.4-0.2-1.8-0.6-4.1-1.3 c-5.6-1.6-8.4-4.4-8.4-8.4v-0.1c-0.1-2.6,1-5,3-6.6c2.1-1.6,4.6-2.4,7.2-2.3c3.7,0,7.4,1.1,10.5,3.2l-3,5.5c-3-1.7-5.5-2.6-7.6-2.6 c-2,0-2.9,0.6-2.9,1.9V18c0,0.7,0.6,1.3,1.7,1.9c0.5,0.2,1.8,0.7,4,1.5c2,0.6,4,1.5,5.7,2.7C74.3,25.4,75.3,27.5,75.3,29.7 L75.3,29.7z M99.6,38.2v-2.5c-2.4,2.1-5.6,3.1-8.7,3c-3.3,0.1-6.6-1.3-8.8-3.7c-2.6-2.7-3.9-6.3-3.9-10.8v-0.1 c0-4.5,1.3-8.1,3.9-10.8c2.3-2.4,5.5-3.8,8.9-3.7c3.1-0.1,6.2,0.8,8.7,2.6V0h8v38.2H99.6z M99.7,24.1c0.1-2.1-0.6-4.1-2-5.6 c-1.2-1.4-3-2.2-4.8-2.1c-1.8,0-3.6,0.7-4.8,2.1c-1.4,1.5-2.1,3.6-2,5.7v0.1c-0.1,2.1,0.7,4.1,2,5.6c2.4,2.7,6.5,2.9,9.1,0.5 c0.2-0.2,0.3-0.3,0.5-0.5c1.4-1.5,2.1-3.5,2-5.6C99.7,24.3,99.7,24.1,99.7,24.1z M112.3,7.1V0h8.4v7.1H112.3z M112.5,38.2v-28h8v28 H112.5z M154.8,31.9c0,5.2-1.3,9-3.9,11.4c-2.5,2.3-6.4,3.5-11.7,3.5c-4.3,0.1-8.6-0.9-12.4-2.9l2.7-6.5c2.9,1.7,6.1,2.6,9.5,2.6 c5.3,0,8-2.2,8-6.6v-0.3c-2.6,2-5.9,3.1-9.2,3c-3.2,0.1-6.4-1.1-8.7-3.4c-2.6-2.6-3.9-6.1-3.8-9.7v-0.1c-0.2-3.6,1.2-7.1,3.8-9.7 c2.3-2.3,5.4-3.5,8.6-3.4c3.2-0.1,6.4,0.8,9.1,2.6v-2.1h8L154.8,31.9L154.8,31.9z M146.9,22.7c0-1.8-0.7-3.5-2-4.7 c-2.8-2.4-6.9-2.4-9.7,0c-1.3,1.2-2,2.9-1.9,4.7v0.1c-0.1,1.8,0.6,3.5,1.9,4.7c1.3,1.2,3.1,1.8,4.9,1.8c1.8,0.1,3.6-0.6,4.9-1.8 C146.3,26.3,147,24.6,146.9,22.7L146.9,22.7L146.9,22.7z">
  </path>
 </g>
</svg>