<svg xmlns="http://www.w3.org/2000/svg" viewBox="0.0019531201105564833 0.6640621423721313 25.84714698791504 24.00025177001953"><g clip-path="url(#clip0_3218_10284)">
<path d="M17.4841 18.2478L20.2392 23.0203H15.909L13.8296 19.4183C13.7058 19.2047 13.6405 18.9621 13.6405 18.7151C13.6405 18.4681 13.7058 18.2255 13.8296 18.0118L16.2651 13.7922C16.388 13.5789 16.5649 13.4017 16.7779 13.2781C16.9908 13.1546 17.2325 13.0891 17.4787 13.0883H21.6592L23.8236 16.8386H18.2946C18.1306 16.8407 17.97 16.8855 17.8286 16.9686C17.6872 17.0517 17.5698 17.1702 17.4882 17.3125C17.4065 17.4547 17.3633 17.6158 17.3628 17.7798C17.3624 17.9438 17.4046 18.1051 17.4855 18.2478H17.4841ZM12.0765 19.4183L9.99703 23.0203H5.66417L8.42058 18.2478C8.50143 18.1051 8.54371 17.9438 8.54324 17.7798C8.54276 17.6158 8.49957 17.4547 8.4179 17.3125C8.33623 17.1702 8.21891 17.0517 8.0775 16.9686C7.93609 16.8855 7.77546 16.8407 7.61145 16.8386H2.08243L4.2482 13.0883H8.42868C8.67487 13.0893 8.91649 13.1548 9.12945 13.2783C9.34242 13.4018 9.51927 13.579 9.64237 13.7922L12.0778 18.0118C12.2017 18.2255 12.2669 18.4681 12.2669 18.7151C12.2669 18.9621 12.2017 19.2047 12.0778 19.4183H12.0765ZM9.38076 4.08003L12.1439 8.86736C12.2272 9.00915 12.3462 9.12673 12.4889 9.20841C12.6317 9.29009 12.7933 9.33306 12.9578 9.33306C13.1222 9.33306 13.2838 9.29009 13.4266 9.20841C13.5693 9.12673 13.6883 9.00915 13.7716 8.86736L16.5267 4.09486L18.6924 7.84517L16.6116 11.4471C16.4886 11.6603 16.3117 11.8373 16.0987 11.9606C15.8857 12.0839 15.6441 12.1491 15.398 12.1497H10.5257C10.2795 12.1493 10.0378 12.0841 9.82479 11.9608C9.61177 11.8375 9.43493 11.6603 9.31198 11.4471L7.21499 7.83034L9.38076 4.08003ZM25.0238 15.5224L18.2029 3.71053C17.6732 2.7798 16.9052 2.00698 15.9777 1.47156C15.0503 0.936143 13.9969 0.657459 12.9261 0.664181C11.855 0.65764 10.8016 0.936387 9.87397 1.47178C8.94634 2.00716 8.17798 2.77988 7.64787 3.71053L0.828297 15.5224C0.287167 16.4469 0.00195313 17.4989 0.00195312 18.5701C0.00195312 19.6414 0.287167 20.6933 0.828297 21.6178C1.35863 22.5486 2.12721 23.3214 3.05507 23.8568C3.98293 24.3921 5.03662 24.6708 6.10784 24.6642H19.7456C20.8167 24.6707 21.8701 24.392 22.7977 23.8566C23.7254 23.3212 24.4937 22.5485 25.0238 21.6178C25.5643 20.6931 25.8491 19.6412 25.8491 18.5701C25.8491 17.499 25.5643 16.4472 25.0238 15.5224Z" fill="#1A1A1A"></path>
</g></svg>