<svg width="104" height="44" viewBox="0 0 104 44" fill="none" xmlns="http://www.w3.org/2000/svg">
<path d="M95.834 30.4909C95.7718 30.4947 95.7095 30.4853 95.6513 30.4632C95.593 30.4411 95.5401 30.4069 95.4961 30.3629C95.452 30.3188 95.4178 30.2659 95.3957 30.2076C95.3737 30.1494 95.3642 30.0871 95.368 30.0249V16.3649H90.728C90.6662 16.3672 90.6046 16.3566 90.5471 16.334C90.4895 16.3114 90.4372 16.2771 90.3935 16.2334C90.3498 16.1897 90.3155 16.1374 90.2929 16.0799C90.2703 16.0223 90.2598 15.9607 90.262 15.8989V14.0169C90.2596 13.955 90.27 13.8933 90.2926 13.8357C90.3152 13.778 90.3494 13.7256 90.3931 13.6818C90.4369 13.6379 90.4892 13.6036 90.5468 13.5809C90.6044 13.5582 90.6661 13.5477 90.728 13.5499H103.078C103.14 13.5463 103.202 13.5558 103.261 13.578C103.319 13.6002 103.372 13.6346 103.416 13.6787C103.46 13.7229 103.494 13.7758 103.516 13.8341C103.538 13.8924 103.547 13.9547 103.543 14.0169V15.9009C103.545 15.9626 103.535 16.0241 103.512 16.0816C103.49 16.1391 103.455 16.1913 103.412 16.235C103.368 16.2788 103.316 16.313 103.259 16.3357C103.201 16.3584 103.14 16.369 103.078 16.3669H98.438V30.0249C98.4403 30.0867 98.4297 30.1483 98.4071 30.2059C98.3845 30.2634 98.3502 30.3157 98.3065 30.3594C98.2628 30.4031 98.2105 30.4374 98.153 30.46C98.0954 30.4826 98.0338 30.4932 97.972 30.4909H95.832M60.282 23.6709L57.846 16.6829L55.389 23.6709H60.282ZM65.684 29.9379C65.79 30.2139 65.621 30.4899 65.324 30.4899H63.132C62.9934 30.4999 62.8557 30.4607 62.7432 30.3791C62.6307 30.2975 62.5506 30.1788 62.517 30.0439L61.267 26.4439H54.425L53.175 30.0439C53.1415 30.1786 53.0615 30.2972 52.9492 30.3787C52.8369 30.4603 52.6995 30.4997 52.561 30.4899H50.486C50.21 30.4899 50.019 30.2139 50.126 29.9379L55.866 13.9729C55.972 13.6759 56.163 13.5489 56.48 13.5489H59.32C59.638 13.5489 59.85 13.6749 59.956 13.9729L65.696 29.9379M82.152 28.2029C83.507 28.2029 84.419 27.5479 85.16 26.4249L81.73 22.7399C80.416 23.4819 79.568 24.2219 79.568 25.7049C79.568 27.1649 80.754 28.2049 82.153 28.2049M83.106 15.8049C82.006 15.8049 81.369 16.5049 81.369 17.4349C81.369 18.1549 81.749 18.7899 82.619 19.7219C84.123 18.8519 84.759 18.3239 84.759 17.3919C84.759 16.5219 84.209 15.7919 83.107 15.7919M92.482 29.8969C92.757 30.1939 92.588 30.4899 92.248 30.4899H89.548C89.3972 30.5032 89.2456 30.4768 89.1081 30.4135C88.9706 30.3502 88.852 30.2521 88.764 30.1289L87.164 28.3509C86.084 29.7909 84.579 30.8709 82.079 30.8709C78.986 30.8709 76.549 29.0079 76.549 25.8109C76.549 23.3539 77.863 22.0409 79.855 20.9409C78.88 19.8189 78.435 18.6329 78.435 17.5959C78.435 14.9689 80.278 13.1699 83.052 13.1699C85.892 13.1699 87.628 14.8439 87.628 17.3199C87.628 19.4379 86.103 20.6219 84.493 21.5119L86.866 24.0749L88.2 21.7449C88.37 21.4699 88.56 21.3649 88.9 21.3649H90.954C91.294 21.3649 91.484 21.5989 91.274 21.9579L88.912 26.0229L92.492 29.8989M71.352 30.4919C71.4139 30.4943 71.4756 30.4839 71.5333 30.4613C71.5909 30.4388 71.6433 30.4045 71.6872 30.3608C71.731 30.3171 71.7653 30.2647 71.788 30.2071C71.8107 30.1495 71.8213 30.0878 71.819 30.0259V16.3659H76.459C76.5208 16.3682 76.5824 16.3576 76.64 16.335C76.6975 16.3124 76.7498 16.2781 76.7935 16.2344C76.8372 16.1907 76.8715 16.1384 76.8941 16.0809C76.9167 16.0233 76.9273 15.9617 76.925 15.8999V14.0169C76.9274 13.955 76.917 13.8933 76.8944 13.8357C76.8718 13.778 76.8376 13.7256 76.7939 13.6818C76.7501 13.6379 76.6978 13.6036 76.6402 13.5809C76.5826 13.5582 76.5209 13.5477 76.459 13.5499H64.102C64.0401 13.5477 63.9784 13.5582 63.9208 13.5809C63.8632 13.6036 63.8109 13.6379 63.7671 13.6818C63.7234 13.7256 63.6892 13.778 63.6666 13.8357C63.644 13.8933 63.6336 13.955 63.636 14.0169V15.9009C63.6338 15.9627 63.6443 16.0243 63.6669 16.0819C63.6895 16.1394 63.7238 16.1917 63.7675 16.2354C63.8112 16.2791 63.8635 16.3134 63.9211 16.336C63.9786 16.3586 64.0402 16.3692 64.102 16.3669H68.742V30.0249C68.7398 30.0867 68.7503 30.1483 68.7729 30.2059C68.7955 30.2634 68.8298 30.3157 68.8735 30.3594C68.9172 30.4031 68.9695 30.4374 69.0271 30.46C69.0846 30.4826 69.1462 30.4932 69.208 30.4909L71.352 30.4919Z" fill="black"/>
<path d="M8.652 38.7301C12.3681 41.617 16.9402 43.1835 21.646 43.1821C27 43.1821 31.881 41.1941 35.606 37.9321C35.651 37.8921 35.629 37.8661 35.584 37.8921C33.912 39.0081 29.148 41.4451 21.646 41.4451C15.126 41.4451 11.006 39.9901 8.679 38.6921C8.634 38.6701 8.619 38.7021 8.651 38.7321M23.084 39.8151C28.299 39.8151 34.029 38.3931 37.456 35.5801C38.394 34.8131 39.286 33.7931 40.086 32.4221C40.5754 31.5714 41.0025 30.6864 41.364 29.7741C41.38 29.7291 41.354 29.7071 41.319 29.7581C38.132 34.4571 28.902 37.3731 19.382 37.3731C12.646 37.3731 5.399 35.2191 2.562 31.1061C2.534 31.0681 2.506 31.0841 2.522 31.1281C5.156 36.7471 13.175 39.8151 23.082 39.8151M17.384 30.4951C6.538 30.4951 1.424 25.4451 0.497003 21.9971C0.487003 21.9471 0.453003 21.9571 0.453003 22.0031C0.453003 23.1631 0.569003 24.6611 0.769003 25.6551C0.864003 26.1391 1.269 26.8981 1.835 27.5051C4.465 30.2371 11.011 34.0751 22.351 34.0751C37.801 34.0751 41.333 28.9291 42.054 27.2351C42.57 26.0351 42.837 23.8371 42.837 22.0001C42.8373 21.6172 42.8279 21.2345 42.809 20.8521C42.809 20.7951 42.776 20.7921 42.765 20.8461C41.993 24.9861 28.793 30.4931 17.387 30.4931M2.487 12.9131C1.82642 14.318 1.31851 15.7898 0.972003 17.3031C0.872003 17.7631 0.920002 17.9861 1.072 18.3301C2.372 21.0881 8.947 25.5001 24.284 25.5001C33.641 25.5001 40.91 23.2001 42.087 19.0061C42.304 18.2341 42.315 17.4181 42.037 16.3201C41.737 15.0921 41.143 13.6601 40.649 12.6551C40.633 12.6221 40.604 12.6271 40.609 12.6651C40.792 18.1671 25.449 21.7131 17.707 21.7131C9.321 21.7131 2.327 18.3731 2.327 14.1531C2.327 13.7481 2.411 13.3531 2.527 12.9201C2.537 12.8801 2.505 12.8751 2.487 12.9101M35.642 6.15708C35.7352 6.30305 35.7816 6.47401 35.775 6.64708C35.775 9.00108 28.572 13.1641 17.105 13.1641C8.68 13.1641 7.103 10.0391 7.103 8.05108C7.103 7.35108 7.375 6.61408 7.976 5.87508C8.009 5.83108 7.981 5.81508 7.943 5.84708C6.84634 6.77576 5.84717 7.81379 4.961 8.94508C4.539 9.47808 4.278 9.95008 4.278 10.2331C4.278 14.3531 14.606 17.3391 24.264 17.3391C34.564 17.3391 39.146 13.9791 39.146 11.0391C39.146 9.98408 38.746 9.36908 37.686 8.17408C37.004 7.39708 36.359 6.77408 35.686 6.14208C35.653 6.11508 35.63 6.13708 35.653 6.17008M32.498 3.81708C29.322 1.91308 25.634 0.830078 21.658 0.830078C17.654 0.830078 13.856 1.95008 10.658 3.90508C9.702 4.49308 9.164 4.96508 9.164 5.57108C9.164 7.35808 13.34 9.27908 20.747 9.27908C28.077 9.27908 33.764 7.17508 33.764 5.14908C33.764 4.66608 33.341 4.32708 32.486 3.81708" fill="#00A8E0"/>
</svg>
