<?xml version="1.0" encoding="utf-8"?>
<!-- Generator: Adobe Illustrator 24.2.3, SVG Export Plug-In . SVG Version: 6.00 Build 0)  -->
<svg version="1.1" id="Layer_1" xmlns="http://www.w3.org/2000/svg" xmlns:xlink="http://www.w3.org/1999/xlink" x="0px" y="0px"
	 viewBox="0 0 132.5 20" enable-background="new 0 0 132.5 20" xml:space="preserve" width="132px" height="20px">
<path fill-rule="evenodd" clip-rule="evenodd" fill="#293E40" d="M32,6.4c-1.4,0-2.6,0.5-3.6,1.3V6.6H25v12.9h3.5v-8.2
	c0.5-0.7,1.7-1.6,3.2-1.6c0.5,0,1,0.1,1.4,0.2V6.6C32.7,6.5,32.3,6.4,32,6.4"/>
<path fill-rule="evenodd" clip-rule="evenodd" fill="#293E40" d="M1.9,15.5c0.9,0.8,2.3,1.3,3.5,1.3c0.9,0,1.7-0.5,1.7-1.1
	c0-2-6.3-1.3-6.3-5.4c0-2.5,2.4-4,4.9-4c1.7,0,3.5,0.6,4.4,1.3l-1.6,2.5C7.8,9.7,7,9.2,6,9.2s-1.7,0.4-1.7,1.1c0,1.7,6.3,1,6.3,5.5
	c0,2.5-2.4,4-5.1,4c-1.8,0-3.7-0.6-5.2-1.7L1.9,15.5z"/>
<path fill-rule="evenodd" clip-rule="evenodd" fill="#293E40" d="M23.5,12.9c0-3.6-2.5-6.6-6.1-6.6c-3.8,0-6.3,3.2-6.3,6.7
	c0,4.1,2.9,6.7,6.7,6.7c2,0,4-0.8,5.3-2.3l-2-2c-0.6,0.7-1.8,1.5-3.2,1.5c-1.8,0-3.3-1.3-3.5-3.1h8.9C23.5,13.6,23.5,13.3,23.5,12.9
	z M14.7,11.4c0.2-1.2,1.4-2.3,2.8-2.3s2.4,1.1,2.6,2.3H14.7z"/>
<polygon fill-rule="evenodd" clip-rule="evenodd" fill="#293E40" points="41.2,14.5 44.7,6.6 48.3,6.6 42.4,19.5 40,19.5 34.1,6.6 
	37.6,6.6 "/>
<path fill-rule="evenodd" clip-rule="evenodd" fill="#293E40" d="M51.2,0.5c1.3,0,2.3,1,2.3,2.2c0,1.3-1,2.2-2.3,2.2S49,3.9,49,2.7
	C49,1.4,49.9,0.5,51.2,0.5"/>
<rect x="49.5" y="6.6" fill-rule="evenodd" clip-rule="evenodd" fill="#293E40" width="3.5" height="12.9"/>
<path fill-rule="evenodd" clip-rule="evenodd" fill="#293E40" d="M67.2,16.8c-1.5,2-3.4,2.9-5.8,2.9c-4,0-6.9-3-6.9-6.7
	c0-3.8,3-6.7,6.9-6.7c2.3,0,4.2,1.1,5.4,2.6L64.5,11c-0.7-0.9-1.7-1.5-2.9-1.5c-2,0-3.5,1.6-3.5,3.5c0,2,1.4,3.5,3.5,3.5
	c1.4,0,2.5-0.8,3.1-1.7L67.2,16.8z"/>
<path fill-rule="evenodd" clip-rule="evenodd" fill="#293E40" d="M79.7,17.4c-1.3,1.5-3.3,2.3-5.3,2.3c-3.8,0-6.7-2.6-6.7-6.7
	c0-3.6,2.4-6.7,6.3-6.7c3.5,0,6.1,3,6.1,6.6c0,0.4,0,0.7-0.1,1h-9c0.2,1.8,1.7,3.1,3.5,3.1c1.4,0,2.6-0.8,3.2-1.5L79.7,17.4z
	 M76.5,11.4c-0.1-1.1-1.1-2.3-2.6-2.3c-1.4,0-2.6,1.1-2.8,2.3H76.5z"/>
<path fill-rule="evenodd" clip-rule="evenodd" fill="#293E40" d="M81.4,19.5V6.6h3.3v1.1c1-0.8,2.2-1.3,3.6-1.3
	c1.8,0,3.4,0.8,4.5,2.1c0.8,1,1.4,2.3,1.4,4.5v6.6h-3.5v-6.9c0-1.3-0.3-2-0.8-2.4c-0.5-0.5-1.1-0.8-2-0.8c-1.4,0-2.6,0.9-3.2,1.6
	v8.4C84.8,19.5,81.4,19.5,81.4,19.5z"/>
<path fill-rule="evenodd" clip-rule="evenodd" fill="#81B5A1" d="M103.1,6.3c-4.2,0-7.5,3.3-7.5,7.5c0,2.2,0.9,4.2,2.3,5.6
	c0.5,0.5,1.4,0.5,2,0.1c0.8-0.7,2-1.1,3.2-1.1c1.3,0,2.3,0.4,3.2,1.1c0.6,0.5,1.4,0.4,2-0.2c1.4-1.4,2.3-3.3,2.3-5.5
	C110.5,9.7,107.2,6.3,103.1,6.3 M103,17.7c-2.3,0-3.8-1.7-3.8-3.8s1.5-3.8,3.8-3.8s3.8,1.7,3.8,3.8S105.3,17.7,103,17.7"/>
<polygon fill-rule="evenodd" clip-rule="evenodd" fill="#293E40" points="117.4,19.5 114.8,19.5 109.7,6.6 113.1,6.6 115.9,14 
	118.7,6.6 121.6,6.6 124.3,14 127.1,6.6 130.6,6.6 125.5,19.5 122.9,19.5 120.1,12.2 "/>
<path fill="#293E40" d="M130.6,18h-0.3v0.5h-0.2V17h0.6c0.3,0,0.5,0.2,0.5,0.5c0,0.2-0.2,0.4-0.3,0.5l0.4,0.6H131L130.6,18z
	 M130.3,17.8h0.4c0.2,0,0.2-0.1,0.2-0.2c0-0.2-0.1-0.2-0.2-0.2h-0.4V17.8z"/>
<path fill="#293E40" d="M130.6,16.5c0.8,0,1.4,0.6,1.4,1.4s-0.6,1.4-1.4,1.4s-1.4-0.6-1.4-1.4C129.2,17.1,129.9,16.5,130.6,16.5
	 M130.6,16.2c-0.9,0-1.6,0.8-1.6,1.6c0,0.9,0.8,1.6,1.6,1.6c0.9,0,1.6-0.8,1.6-1.6S131.4,16.2,130.6,16.2L130.6,16.2z"/>
</svg>
