<svg width="99" height="30" viewBox="0 0 99 30" fill="none" xmlns="http://www.w3.org/2000/svg">
<g clip-path="url(#clip0_4901_86456)">
<path d="M18.4685 0.065918V3.99691H9.09229V9.44212H0V0.065918H18.4685Z" fill="#E82350"/>
<path d="M27.5649 3.99707V13.371H18.468V22.4656H13.9207V11.4666H9.0918V9.44228H18.468V3.99707H27.5649Z" fill="#F17722"/>
<path d="M18.468 3.99707H9.0918V9.43998H18.468V3.99707Z" fill="#E92629"/>
<path d="M13.9211 22.4652V29.9348H4.54492V11.4663H9.09222V22.4652H13.9211Z" fill="#FAC41B"/>
<path d="M13.9207 11.4663H9.0918V22.4652H13.9207V11.4663Z" fill="#E76C24"/>
<path d="M35.6566 10.8906H43.4078V12.451H40.437V19.1081H38.6366V12.451H35.6543V10.8906H35.6566Z" fill="white"/>
<path d="M45.9558 19.1081V10.8906H50.51C51.6803 10.8906 52.4466 11.2299 52.9752 11.7839C53.4023 12.2363 53.6539 12.8273 53.6539 13.4828C53.6539 14.54 53.0006 15.3571 51.9919 15.798L53.917 19.1081H51.8534L50.1915 16.0889H47.7493V19.1081H45.9512H45.9558ZM47.7539 12.4141V14.5654H50.6993C51.3271 14.5654 51.8442 14.113 51.8442 13.4828C51.8442 13.2058 51.7426 12.9542 51.5557 12.7649C51.2671 12.451 50.9001 12.4118 50.5746 12.4118H47.7562L47.7539 12.4141Z" fill="white"/>
<path d="M60.7282 10.6392C63.332 10.6392 65.4209 12.5897 65.4209 14.981C65.4209 17.3724 63.332 19.3598 60.7282 19.3598C58.1245 19.3598 56.084 17.4232 56.084 14.981C56.084 12.5389 58.1222 10.6392 60.7282 10.6392ZM60.7282 17.811C62.3002 17.811 63.5351 16.5276 63.5351 14.9787C63.5351 13.4299 62.3025 12.1972 60.7282 12.1972C59.154 12.1972 57.9721 13.4553 57.9721 14.9787C57.9721 16.5022 59.1794 17.811 60.7282 17.811Z" fill="white"/>
<path d="M75.3658 19.1081V14.3392H75.3035L72.9998 18.1778H72.4966L70.193 14.3392H70.1306V19.1081H68.381V10.8906H70.1053L72.799 15.3964H72.8244L75.5043 10.8906H77.1778V19.1081H75.3658Z" fill="white"/>
<path d="M87.3339 19.1081H80.0605V18.0509L84.7163 12.451H80.3006V10.8906H87.3339V11.9594L82.6781 17.5592H87.3339V19.1081Z" fill="white"/>
<path d="M94.1695 10.6392C96.7732 10.6392 98.8622 12.5897 98.8622 14.981C98.8622 17.3724 96.7732 19.3598 94.1695 19.3598C91.5658 19.3598 89.5253 17.4232 89.5253 14.981C89.5253 12.5389 91.5635 10.6392 94.1695 10.6392ZM94.1695 17.811C95.7414 17.811 96.9764 16.5276 96.9764 14.9787C96.9764 13.4299 95.7438 12.1972 94.1695 12.1972C92.5953 12.1972 91.4134 13.4553 91.4134 14.9787C91.4134 16.5022 92.6207 17.811 94.1695 17.811Z" fill="white"/>
</g>
<defs>
<clipPath id="clip0_4901_86456">
<rect width="98.8633" height="29.869" fill="white" transform="translate(0 0.0654297)"/>
</clipPath>
</defs>
</svg>
