<svg width="295" height="24" fill="none" xmlns="http://www.w3.org/2000/svg"><path d="M162.389 17h3.402c3.08 0 5.208-2.142 5.208-4.9v-.028c0-2.758-2.128-4.872-5.208-4.872h-3.402V17zm3.402-8.778c2.478 0 4.06 1.708 4.06 3.878v.028c0 2.17-1.582 3.85-4.06 3.85h-2.296V8.222h2.296zM173.9 17h7.154v-1.008h-6.048v-3.43h5.348v-1.008h-5.348V8.208h5.978V7.2H173.9V17zm13.313.07h.98l4.214-9.87h-1.19l-3.5 8.442-3.486-8.442h-1.232l4.214 9.87zm7.686-.07h7.154v-1.008h-6.048v-3.43h5.348v-1.008h-5.348V8.208h5.978V7.2h-7.084V17zm9.939 0h6.622v-1.022h-5.516V7.2h-1.106V17zm13.067.168c2.982 0 5.012-2.366 5.012-5.068v-.028c0-2.702-2.002-5.04-4.984-5.04s-5.012 2.366-5.012 5.068v.028c0 2.702 2.002 5.04 4.984 5.04zm.028-1.022c-2.24 0-3.864-1.82-3.864-4.046v-.028c0-2.226 1.596-4.018 3.836-4.018 2.24 0 3.864 1.82 3.864 4.046v.028c0 2.226-1.596 4.018-3.836 4.018zm7.876.854h1.106v-3.458h2.38c2.086 0 3.85-1.092 3.85-3.206v-.028c0-1.932-1.456-3.108-3.668-3.108h-3.668V17zm1.106-4.466V8.222h2.478c1.582 0 2.632.728 2.632 2.128v.028c0 1.288-1.064 2.156-2.688 2.156h-2.422zM235.721 17h7.154v-1.008h-6.048v-3.43h5.348v-1.008h-5.348V8.208h5.978V7.2h-7.084V17zm9.939 0h1.106v-3.808h2.8L252.408 17h1.358l-3.01-4.004c1.54-.28 2.66-1.232 2.66-2.856v-.028c0-.77-.28-1.456-.756-1.932-.616-.616-1.582-.98-2.786-.98h-4.214V17zm1.106-4.802V8.222h3.024c1.582 0 2.506.728 2.506 1.932v.028c0 1.26-1.05 2.016-2.52 2.016h-3.01zM261.094 17h1.106v-4.41h5.656V17h1.106V7.2h-1.106v4.354H262.2V7.2h-1.106V17zm15.117.154c2.45 0 4.088-1.484 4.088-4.34V7.2h-1.106v5.698c0 2.142-1.148 3.234-2.954 3.234-1.876 0-2.996-1.19-2.996-3.304V7.2h-1.106v5.698c0 2.772 1.652 4.256 4.074 4.256zm7.263-.154h4.354c2.142 0 3.556-.994 3.556-2.674v-.028c0-1.344-.938-2.016-2.1-2.366.77-.336 1.554-.994 1.554-2.268v-.028c0-.63-.224-1.148-.63-1.568-.56-.546-1.442-.868-2.562-.868h-4.172V17zm6.244-7.182c0 1.148-.924 1.75-2.254 1.75h-2.898V8.194h2.982c1.4 0 2.17.63 2.17 1.596v.028zm.546 4.41v.028c0 1.092-.924 1.75-2.408 1.75h-3.29v-3.458h3.094c1.708 0 2.604.616 2.604 1.68z" fill="#E8E8E8"/><path d="M144 4h1l.002 16h-1L144 4z" fill="#E1E1E1"/><path fill-rule="evenodd" clip-rule="evenodd" d="M18.119 4.67a.37.37 0 01-.444.347c-.846-.166-3.052-.375-7.103.624C5.216 6.96 0 11.468 0 11.468c1.401-3.815 4.939-7.56 7.755-9.17C10.53.716 14.137-.45 16.385.383c1.72.638 1.79 3.233 1.734 4.287zm106.504 2.753h.36v-1.7h.644v-.33h-1.647v.33h.643v1.7zm1.382 0h.351v-1.45l.635.951h.011l.641-.957v1.456H128v-2.03h-.38l-.618.96-.617-.96h-.38v2.03zM48.27 5.456h-1.48v13.152h1.48V5.456zm18.553 0h11.4v1.48h-11.4v-1.48zm26.411 0h-11.74v1.48h11.74v-1.48zm17.06 0h11.739v1.48h-11.739v-1.48zm-49.361 6.882c1.791-.095 3.27-1.547 3.325-3.312a3.468 3.468 0 00-.964-2.524 3.417 3.417 0 00-2.484-1.059h-8.292v1.48h8.292a1.97 1.97 0 011.968 1.967c0 1.113-.787 1.968-1.832 1.968h-8.428v7.75h1.48V12.35h4.247c.72 0 1.371.394 1.724 1.018l2.904 5.239h1.52l-3.46-6.27zM34.536 5.444c-.95 0-1.833.38-2.484 1.058a3.47 3.47 0 00-.977 2.511h1.493v-.122a1.97 1.97 0 011.968-1.968h8.292v-1.48h-8.292zm0 5.414a3.458 3.458 0 00-3.447 3.57v4.166h1.48l.013-4.166v-.123a1.97 1.97 0 011.968-1.967h8.292v-1.48h-8.306zm32.287 4.167v-4.167H78.21v1.493h-9.907v2.796a1.97 1.97 0 001.968 1.968h7.94v1.48h-7.94c-.95 0-1.832-.38-2.484-1.06a3.436 3.436 0 01-.964-2.51zm14.672-4.167v4.167c-.027.95.312 1.832.963 2.51a3.417 3.417 0 002.484 1.06h8.292v-1.48h-8.292a1.97 1.97 0 01-1.968-1.968v-2.796h10.26v-1.493h-11.74zm28.799 4.167v-4.167h11.74v1.493h-10.261v2.796a1.97 1.97 0 001.968 1.968h8.293v1.48h-8.293c-.95 0-1.832-.38-2.483-1.06a3.435 3.435 0 01-.964-2.51zm-3.107-9.569l-5.443 5.904-5.456-5.904h-1.913l6.623 7.18v5.972h1.493v-5.972l6.623-7.18h-1.927zM4.523 11.606c-.07-.207-.32-.318-.513-.207-.944.485-3.15 1.831-2.845 3.648.403 2.359 3.22 4.912 5.966 6.521 2.789 1.637 7.797 2.816 11.807 2.123 0 0-6.521-2.262-10.336-6.243-2.886-3.011-3.802-5.023-4.08-5.841zm12.403 8.741a.374.374 0 01-.07-.555c.57-.638 1.846-2.455 3.025-6.45 1.54-5.3.236-12.071.236-12.071 2.595 3.122 4.065 8.047 4.051 11.28-.027 3.19-.818 6.908-2.663 8.434-1.415 1.18-3.69-.069-4.579-.638z" fill="#E8E8E8"/></svg>