<?xml version="1.0" standalone="no"?>
<!DOCTYPE svg PUBLIC "-//W3C//DTD SVG 20010904//EN"
 "http://www.w3.org/TR/2001/REC-SVG-20010904/DTD/svg10.dtd">
<svg version="1.0" xmlns="http://www.w3.org/2000/svg"
 width="260.000000pt" height="90.000000pt" style="color:green" viewBox="0 0 260.000000 90.000000"
 preserveAspectRatio="xMidYMid meet">
<metadata>
Created by potrace 1.16, written by Peter Selinger 2001-2019
</metadata>
<g transform="translate(0.000000,90.000000) scale(0.100000,-0.100000)"
fill="#EA4335" stroke="none">
<path d="M1130 890 c-72 -11 -121 -33 -165 -71 -51 -45 -68 -84 -69 -154 -1
-124 62 -182 269 -246 158 -50 212 -79 231 -125 26 -62 -12 -131 -85 -156 -81
-27 -260 -2 -338 47 -24 16 -24 16 -67 -52 l-26 -43 50 -25 c145 -73 358 -82
487 -19 114 55 166 167 132 287 -23 84 -100 137 -274 188 -179 52 -225 82
-225 147 0 68 71 113 179 111 49 0 156 -23 201 -42 11 -5 23 8 43 44 16 29 25
55 20 60 -15 15 -156 47 -233 52 -41 3 -100 2 -130 -3z"/>
<path d="M30 456 l0 -426 65 0 65 0 0 365 0 365 138 0 c113 0 144 -4 179 -20
57 -25 85 -71 80 -128 -8 -77 -61 -115 -179 -127 -38 -4 -68 -9 -68 -11 0 -7
253 -429 265 -442 8 -9 35 -12 87 -10 l76 3 -108 180 -107 180 42 22 c48 25
101 82 121 129 39 93 0 229 -79 282 -84 56 -86 56 -339 60 l-238 4 0 -426z"/>
<path d="M2017 843 c-23 -44 -367 -812 -367 -818 0 -3 37 -5 82 -3 l83 3 145
332 c80 183 148 329 151 325 4 -4 73 -154 155 -334 l149 -328 82 0 c73 0 82 2
76 17 -4 9 -91 199 -193 422 l-187 406 -81 3 c-80 3 -81 2 -95 -25z"/>
</g>
</svg>
