<?xml version="1.0" encoding="UTF-8"?>
<svg id="Layer_1" data-name="Layer 1" xmlns="http://www.w3.org/2000/svg" viewBox="0 0 296.48 104">
  <defs>
    <style>
      .cls-1 {
        fill: #f99b1c;
      }

      .cls-2 {
        fill: #f17c21;
      }
    </style>
  </defs>
  <g>
    <path class="cls-2" d="M120.08,41.49c-1.23-2.18-3-3.86-5.3-5.03-2.31-1.17-5.03-1.75-8.18-1.75h-8.99v28.85h8.99c3.15,0,5.88-.58,8.18-1.72,2.31-1.14,4.07-2.8,5.3-4.96,1.23-2.17,1.85-4.72,1.85-7.68s-.62-5.52-1.85-7.69h0ZM115.14,57.49c-1.96,1.97-4.8,2.96-8.53,2.96h-5.21v-22.68h5.21c3.7,0,6.53,1.01,8.52,3.02,1.97,2.02,2.96,4.82,2.96,8.4s-.98,6.32-2.94,8.3h0Z"/>
    <path class="cls-2" d="M146.36,40.87v4.13c-.72-1.29-1.81-2.37-3.27-3.23-1.47-.86-3.19-1.28-5.18-1.28s-3.84.48-5.49,1.45c-1.64.97-2.93,2.33-3.87,4.08-.94,1.75-1.41,3.78-1.41,6.1s.47,4.34,1.41,6.13c.94,1.79,2.22,3.18,3.85,4.18,1.63.99,3.45,1.49,5.47,1.49s3.67-.43,5.15-1.31c1.48-.87,2.58-1.96,3.33-3.29v4.23h3.81v-22.68h-3.81ZM145.32,56.66c-.69,1.28-1.63,2.26-2.8,2.94-1.17.68-2.46,1.01-3.87,1.01s-2.69-.33-3.85-1.01c-1.16-.68-2.08-1.66-2.78-2.94-.69-1.28-1.04-2.8-1.04-4.54s.35-3.19,1.04-4.47c.69-1.27,1.61-2.24,2.78-2.89,1.16-.66,2.44-1,3.85-1s2.7.34,3.87,1.02c1.17.68,2.11,1.65,2.8,2.92.68,1.27,1.04,2.76,1.04,4.47s-.35,3.2-1.04,4.49h0Z"/>
    <path class="cls-2" d="M168.72,43.97v-3.1h-5.92v-5.71h-3.77v5.71h-2.94v3.1h2.94v13.37c0,2.21.52,3.8,1.57,4.76,1.05.97,2.62,1.45,4.72,1.45h3.4v-3.19h-2.78c-1.16,0-1.97-.22-2.44-.68-.47-.45-.7-1.24-.7-2.34v-13.37h5.92Z"/>
    <path class="cls-2" d="M192.73,40.87v4.13c-.72-1.29-1.81-2.37-3.27-3.23-1.46-.86-3.19-1.28-5.18-1.28s-3.84.48-5.48,1.45c-1.64.97-2.94,2.33-3.87,4.08-.94,1.75-1.41,3.78-1.41,6.1s.47,4.34,1.41,6.13c.94,1.79,2.22,3.18,3.85,4.18,1.63.99,3.45,1.49,5.47,1.49s3.68-.43,5.15-1.31c1.48-.87,2.59-1.96,3.33-3.29v4.23h3.81v-22.68h-3.81ZM191.69,56.66c-.69,1.28-1.62,2.26-2.79,2.94-1.17.68-2.47,1.01-3.87,1.01s-2.69-.33-3.85-1.01c-1.16-.68-2.08-1.66-2.78-2.94-.69-1.28-1.04-2.8-1.04-4.54s.35-3.19,1.04-4.47c.69-1.27,1.61-2.24,2.78-2.89,1.16-.66,2.44-1,3.85-1s2.7.34,3.87,1.02c1.17.68,2.1,1.65,2.79,2.92.69,1.27,1.04,2.76,1.04,4.47s-.35,3.2-1.04,4.49h0Z"/>
    <path class="cls-1" d="M223.83,51.21c-1.08-1.35-2.39-2.17-3.94-2.44,1.49-.52,2.68-1.34,3.56-2.44.88-1.1,1.33-2.49,1.33-4.13,0-1.38-.36-2.63-1.08-3.74-.72-1.12-1.78-2.01-3.19-2.67-1.41-.66-3.09-.99-5.05-.99h-10.97v28.77h11.51c1.91,0,3.58-.34,5.01-1.02,1.44-.68,2.54-1.6,3.29-2.78.76-1.17,1.15-2.49,1.15-3.95,0-1.71-.54-3.24-1.61-4.6h0ZM209.21,38.63h5.83c1.55,0,2.76.36,3.63,1.09.87.73,1.3,1.74,1.3,3.04s-.43,2.34-1.3,3.04c-.87.7-2.08,1.05-3.63,1.05h-5.83v-8.23ZM219.35,58.54c-.91.77-2.17,1.16-3.77,1.16h-6.37v-8.98h6.21c1.6,0,2.88.41,3.85,1.24.97.83,1.45,1.95,1.45,3.35s-.46,2.46-1.37,3.23h0Z"/>
    <path class="cls-1" d="M280.34,51.58c0-2.21-.47-4.16-1.41-5.86-.94-1.7-2.25-3.02-3.93-3.95-1.68-.94-3.6-1.41-5.76-1.41s-4.21.48-5.94,1.44c-.11.06-.21.12-.32.19-.73.44-1.4.97-1.99,1.57l-7.86,7.83-2.5,2.49-2.87,2.86-.79.79-1.48,1.47c-.93.62-2.08.93-3.45.93h-.05c-1.74-.01-3.22-.57-4.42-1.66-1.21-1.1-1.89-2.57-2.03-4.39h11.53l5.66-5.63c-.23-.9-.57-1.74-1.01-2.54-.94-1.7-2.25-3.02-3.94-3.95-1.68-.94-3.6-1.41-5.76-1.41s-4.21.48-5.94,1.44c-1.73.97-3.06,2.34-4.02,4.12-.95,1.78-1.42,3.84-1.42,6.18s.49,4.41,1.47,6.19c.98,1.78,2.33,3.16,4.06,4.14,1.73.98,3.68,1.47,5.86,1.47,1.96,0,3.69-.36,5.18-1.08.55-.26,1.07-.58,1.56-.94.28-.2.53-.42.78-.64h0l.03-.03c.33-.29.64-.6.92-.92l7.39-7.4,6.31-6.38.34-.34c.11-.11.21-.21.32-.3.42-.37.87-.68,1.35-.91.85-.42,1.79-.63,2.83-.63,1.8,0,3.3.52,4.51,1.57,1.21,1.05,1.84,2.44,1.86,4.18h-11.16l-5.88,5.88c.23.83.55,1.6.95,2.33.98,1.78,2.33,3.16,4.06,4.14,1.73.98,3.68,1.47,5.86,1.47,2.68,0,4.92-.67,6.73-2.01,1.81-1.34,3.06-3.05,3.75-5.15h-5.09c-1.05,2.13-2.84,3.19-5.39,3.19-1.77,0-3.26-.55-4.47-1.66-1.22-1.1-1.89-2.57-2.03-4.39h17.43c.11-.69.17-1.46.17-2.32h0ZM237.65,45.89c1.16-1.04,2.55-1.55,4.18-1.55,1.8,0,3.3.52,4.51,1.57,1.22,1.05,1.84,2.44,1.86,4.18h-12.63c.22-1.77.91-3.16,2.07-4.2h0Z"/>
    <path class="cls-2" d="M26.76,72.21c3.99,5.46,10.17,10.96,19.71,14.32l2.39.84.13-.05h.01l.03-.02,2.16-.91c3.1-1.32,6.02-2.87,8.65-4.61,3.43-2.27,6.43-4.9,8.95-7.83.33-.38.64-.77.95-1.14-3.92.11-7.86-.37-11.67-1.44,3.4-2.07,6.41-4.48,8.98-7.19,2.46-2.58,4.51-5.44,6.15-8.54.88,2.85,1.43,5.78,1.64,8.73,1.58-3.61,2.36-6.94,2.74-9.59.15-1.04.24-1.96.28-2.76v-.07c.04-.68.04-.85.04-1.88v-.04c0-.89-.01-2.56,0-5.96v-2.77s.07-22.03.07-22.03l-5.49-.91c-.21-.03-1.53-.25-3.69-.52,1.95.89,3.78,2.01,5.46,3.34-3,7.44-9.35,13.41-17.7,15.6-2.52.66-5.05.94-7.52.86-5.73-.17-11.19-2.23-15.57-5.71,5.31,6,7.82,14.35,6.06,22.79-.62,2.95-1.7,5.68-3.16,8.13-.03,0-.05.02-.07.02l.02.06c-2.35,3.9-5.66,7.08-9.54,9.29ZM44.79,64.65c1.48-.73,2.88-1.51,4.23-2.34,3.28-2.03,6.18-4.37,8.68-7,3.61-3.8,6.37-8.19,8.19-13.09,1.87,2.23,3.45,4.62,4.74,7.13-3.17,8.46-9.59,15.25-18.63,19.74-1.01-.48-2-.99-2.97-1.57-1.46-.85-2.87-1.8-4.23-2.87ZM42.4,60.36c.59-1.54,1.06-3.13,1.4-4.76,1-4.78.8-9.7-.45-14.32,1.87.4,3.77.64,5.69.7,2.88.08,5.8-.25,8.64-.99,1.34-.35,2.65-.8,3.92-1.32-2.31,6.67-6.59,12.34-12.56,16.7-2.02,1.48-4.23,2.81-6.63,3.99Z"/>
    <path class="cls-2" d="M18.86,49.77c0,.06,0,.17,0,.32,1.84-8.3,7.42-14.83,14.59-18.17,2.73-6.79,8.27-12.36,15.57-14.94.59-.21,1.2-.41,1.82-.58-.62-.02-1.22-.03-1.82-.04h-.3c-.79-.02-1.58-.03-2.38-.03-.99,0-1.97.01-2.93.03-5.39.11-10.32.53-14.74,1.27.32.22.63.47.92.74,3.08,2.92,3.21,7.77.29,10.84-2.92,3.08-7.78,3.2-10.85.29-.01-.02-.03-.03-.04-.04l-.09,14.58-.03,5.72Z"/>
    <path class="cls-2" d="M13.65,27.8l-.12,21.96c0,.77.09,3.52.9,7.39.69,3.28,1.72,6.49,3.07,9.57,3.62,8.2,11.25,19.16,27.16,24.76l4.37,1.53,2.01-.87,2.18-.92c3.4-1.44,6.6-3.15,9.5-5.07,3.82-2.53,7.2-5.49,10.04-8.78,6.83-7.95,9.22-16.28,10.02-21.88.16-1.09.27-2.17.33-3.19v-.11c.05-.8.05-1.08.05-2.17,0-.93,0-2.58,0-5.96l.08-29.3-10.07-1.67c-2.36-.37-5.25-.74-8.17-1.05-2.7-.28-5.42-.51-8.08-.68-1.54-.09-3.07-.17-4.52-.22-1.08-.04-2.22-.07-3.39-.1h-.25c-1.87-.03-3.72-.03-5.51,0-6.58.14-12.55.73-17.79,1.76-.44-.62-1.17-1.02-1.99-1.02-1.21,0-2.22.87-2.42,2.01-.03.14-.04.29-.04.44,0,.55.18,1.04.48,1.45.44.61,1.17,1.01,1.99,1.01,1.19,0,2.18-.86,2.41-1.99,5.12-1.01,10.97-1.58,17.41-1.72,1.77-.04,3.6-.04,5.44-.01h.28c1.14.02,2.25.05,3.31.1,1.44.05,2.94.12,4.47.22,2.63.17,5.33.4,8,.67,2.88.3,5.75.67,8.06,1.03l8.43,1.4-.08,27.65c-.01,3.39,0,5.04,0,5.98,0,1.05,0,1.31-.04,2.05v.11c-.06.97-.17,1.99-.31,3.03-.77,5.33-3.05,13.29-9.57,20.88-2.72,3.17-5.96,6-9.64,8.44-2.8,1.86-5.9,3.5-9.19,4.9l-3.44,1.47-.08.03-3.66-1.28c-15.24-5.37-22.56-15.86-26.02-23.71-1.3-2.95-2.29-6.04-2.95-9.19-.78-3.69-.86-6.29-.86-6.99l.12-21.95c.88-.36,1.5-1.24,1.5-2.26s-.61-1.87-1.48-2.25c-.3-.13-.64-.2-.98-.2s-.66.07-.96.2c-.88.37-1.49,1.24-1.49,2.25s.6,1.87,1.47,2.25h0Z"/>
    <path class="cls-1" d="M281.81,37.69c1.37,0,2.48,1.11,2.48,2.48s-1.11,2.48-2.48,2.48-2.48-1.11-2.48-2.48,1.11-2.48,2.48-2.48ZM281.81,42.16c1.1,0,1.99-.89,1.99-1.99s-.89-1.99-1.99-1.99-1.99.89-1.99,1.99.89,1.99,1.99,1.99ZM281.47,40.38v1.15h-.62v-2.72h.96c.34,0,.53.08.68.21.17.15.27.36.27.61,0,.28-.13.5-.35.62-.05.04-.11.06-.17.08l.82,1.19h-.67l-.76-1.15h-.16ZM281.84,39.88c.14,0,.21-.03.26-.09.03-.04.05-.09.05-.15,0-.06-.02-.12-.05-.16-.05-.06-.12-.1-.26-.1h-.37v.5h.37Z"/>
  </g>
  <g>
    <path d="M121.12,75.52h1.16l2.78,6.79h-1.07l-.68-1.72h-3.23l-.67,1.72h-1.06l2.77-6.79ZM122.97,79.72l-1.25-3.15h-.06l-1.23,3.15h2.54Z"/>
    <path d="M133.38,81.97c-.54-.3-.95-.72-1.25-1.25-.3-.53-.45-1.13-.45-1.8s.15-1.26.45-1.79c.3-.53.73-.95,1.27-1.25.54-.3,1.15-.46,1.83-.46.42,0,.82.06,1.21.19s.73.3,1.02.52l-.55.78c-.49-.37-1.05-.56-1.7-.56-.47,0-.9.11-1.29.33-.38.22-.68.52-.9.91-.22.39-.32.83-.32,1.33s.11.96.32,1.35c.21.39.51.69.89.91.38.22.81.32,1.3.32.64,0,1.24-.21,1.81-.64l.49.78c-.32.25-.68.45-1.07.58-.4.14-.8.21-1.22.21-.69,0-1.3-.15-1.83-.46Z"/>
    <path d="M141.71,81.96c-.53-.31-.96-.73-1.27-1.27-.31-.54-.46-1.13-.46-1.79s.16-1.25.46-1.78c.31-.53.73-.95,1.27-1.26.53-.31,1.13-.46,1.78-.46s1.24.15,1.77.46c.53.31.95.73,1.26,1.26s.47,1.13.47,1.78-.16,1.25-.47,1.79c-.31.54-.73.96-1.26,1.27-.53.31-1.12.46-1.77.46s-1.25-.15-1.78-.46ZM141.33,80.26c.22.39.52.7.9.92.38.22.8.33,1.27.33s.88-.11,1.26-.33.68-.52.9-.92.33-.84.33-1.35-.11-.96-.33-1.34-.52-.69-.9-.91c-.38-.22-.8-.33-1.26-.33s-.89.11-1.27.33c-.38.22-.68.52-.9.91-.22.39-.33.84-.33,1.34s.11.96.33,1.35Z"/>
    <path d="M150.96,75.52h1.4l1.76,5.49h.05l1.71-5.49h1.4l1.08,6.79h-1.01l-.84-5.54h-.06l-1.73,5.54h-1.15l-1.78-5.53h-.05l-.84,5.53h-1.01l1.07-6.79Z"/>
    <path d="M162.99,81.97c-.54-.3-.95-.72-1.25-1.25-.3-.53-.45-1.13-.45-1.8s.15-1.26.45-1.79c.3-.53.73-.95,1.27-1.25.54-.3,1.15-.46,1.83-.46.42,0,.82.06,1.21.19s.73.3,1.02.52l-.55.78c-.49-.37-1.05-.56-1.7-.56-.47,0-.9.11-1.29.33-.38.22-.68.52-.9.91-.22.39-.32.83-.32,1.33s.11.96.32,1.35c.21.39.51.69.89.91.38.22.81.32,1.3.32.64,0,1.24-.21,1.81-.64l.49.78c-.32.25-.68.45-1.07.58-.4.14-.8.21-1.22.21-.69,0-1.3-.15-1.83-.46Z"/>
    <path d="M172.2,75.52h1.16l2.78,6.79h-1.07l-.68-1.72h-3.23l-.67,1.72h-1.06l2.77-6.79ZM174.05,79.72l-1.25-3.15h-.06l-1.23,3.15h2.54Z"/>
    <path d="M179.61,82.2c-.44-.15-.81-.35-1.11-.6l.57-.76c.59.48,1.27.72,2.04.72.53,0,.94-.11,1.22-.32.28-.21.42-.48.42-.8,0-.27-.1-.48-.29-.63s-.49-.28-.89-.37l-.77-.18c-.61-.13-1.1-.35-1.46-.64-.36-.29-.54-.71-.54-1.25,0-.37.1-.7.29-.99.19-.3.47-.53.85-.7.37-.17.82-.25,1.35-.25.45,0,.88.06,1.28.18s.75.28,1.04.49l-.56.77c-.25-.18-.52-.32-.81-.42-.29-.1-.62-.15-1-.15-.49,0-.85.09-1.08.28-.24.19-.35.43-.35.72,0,.27.1.48.31.63.2.16.5.28.88.38l.79.19c.63.15,1.12.38,1.46.67.34.29.51.69.51,1.19,0,.39-.11.75-.32,1.06-.21.32-.53.57-.94.75-.41.18-.9.27-1.47.27-.51,0-.98-.07-1.42-.22Z"/>
    <path d="M188.56,76.43h-2.38v-.91h5.75v.91h-2.38v5.88h-.99v-5.88Z"/>
    <path d="M200.36,81.97c-.54-.3-.95-.72-1.25-1.25-.3-.53-.45-1.13-.45-1.8s.15-1.26.45-1.79c.3-.53.73-.95,1.27-1.25.54-.3,1.15-.46,1.83-.46.42,0,.82.06,1.21.19s.73.3,1.02.52l-.55.78c-.49-.37-1.05-.56-1.7-.56-.47,0-.9.11-1.29.33-.38.22-.68.52-.9.91-.22.39-.32.83-.32,1.33s.11.96.32,1.35c.21.39.51.69.89.91.38.22.81.32,1.3.32.64,0,1.24-.21,1.81-.64l.49.78c-.32.25-.68.45-1.07.58-.4.14-.8.21-1.22.21-.69,0-1.3-.15-1.83-.46Z"/>
    <path d="M208.69,81.96c-.53-.31-.96-.73-1.27-1.27-.31-.54-.46-1.13-.46-1.79s.16-1.25.46-1.78c.31-.53.73-.95,1.27-1.26.53-.31,1.13-.46,1.78-.46s1.24.15,1.77.46c.53.31.95.73,1.26,1.26s.47,1.13.47,1.78-.16,1.25-.47,1.79c-.31.54-.73.96-1.26,1.27-.53.31-1.12.46-1.77.46s-1.25-.15-1.78-.46ZM208.31,80.26c.22.39.52.7.9.92.38.22.8.33,1.27.33s.88-.11,1.26-.33.68-.52.9-.92.33-.84.33-1.35-.11-.96-.33-1.34-.52-.69-.9-.91c-.38-.22-.8-.33-1.26-.33s-.89.11-1.27.33c-.38.22-.68.52-.9.91-.22.39-.33.84-.33,1.34s.11.96.33,1.35Z"/>
    <path d="M217.94,75.52h1.4l1.76,5.49h.05l1.71-5.49h1.4l1.08,6.79h-1.01l-.84-5.54h-.06l-1.73,5.54h-1.15l-1.78-5.53h-.05l-.84,5.53h-1.01l1.07-6.79Z"/>
    <path d="M228.64,75.52h2.54c.55,0,1.03.1,1.43.31.4.21.7.49.91.85.2.36.3.75.3,1.19s-.1.85-.3,1.2c-.2.35-.5.63-.9.83-.4.2-.88.31-1.44.31h-1.55v2.1h-.99v-6.79ZM231.12,79.3c.55,0,.96-.13,1.25-.38.29-.25.43-.6.43-1.05s-.14-.8-.43-1.05-.7-.38-1.25-.38h-1.49v2.87h1.49Z"/>
    <path d="M238.41,75.52h1.16l2.78,6.79h-1.07l-.68-1.72h-3.23l-.67,1.72h-1.06l2.77-6.79ZM240.26,79.72l-1.25-3.15h-.06l-1.23,3.15h2.54Z"/>
    <path d="M245.28,75.52h1.26l3.39,5.25h.06v-5.25h.99v6.79h-1.21l-3.44-5.34h-.06v5.34h-.99v-6.79Z"/>
    <path d="M259.23,75.52h1.11l-2.72,4.19v2.6h-.99v-2.6l-2.72-4.19h1.14l2.07,3.26h.04l2.07-3.26Z"/>
  </g>
</svg>