<svg width="512" height="512" viewBox="0 0 512 512" fill="none" xmlns="http://www.w3.org/2000/svg">
<g clip-path="url(#clip0_4357_25526)">
<rect width="512" height="512" rx="48" fill="#00C06C"/>
<path d="M384.3 364C384.291 366.641 383.746 369.253 382.7 371.678C381.653 374.103 380.126 376.291 378.21 378.11C374.241 381.866 368.984 383.959 363.52 383.959C358.056 383.959 352.799 381.866 348.83 378.11C346.909 376.294 345.376 374.107 344.324 371.682C343.272 369.257 342.723 366.643 342.71 364V349.18C324.71 369.51 292.04 383.97 256.81 383.97C174.14 383.97 110 323.97 110 246.07C110 168.17 174.92 109.72 258.41 109.72C290.355 109.863 321.541 119.479 348.02 137.35C350.425 139.002 352.467 141.129 354.02 143.6C355.549 146.03 356.547 148.757 356.95 151.6C357.35 154.438 357.139 157.33 356.33 160.08C355.513 162.85 354.13 165.421 352.27 167.63C348.628 171.916 343.496 174.66 337.91 175.31C332.293 175.997 326.623 174.551 322.02 171.26C303.5 158.11 281.19 150.4 259.23 150.4C202.76 150.4 158.4 192.23 158.4 245.68C158.4 299.13 202.8 342.88 259.23 341.35C289.41 340.53 315.03 322.88 328.65 300.76H292.6C287.134 300.777 281.872 298.685 277.91 294.92C275.987 293.107 274.455 290.92 273.407 288.494C272.36 286.067 271.82 283.453 271.82 280.81C271.82 278.167 272.36 275.552 273.407 273.126C274.455 270.699 275.987 268.512 277.91 266.7C281.871 262.933 287.134 260.841 292.6 260.86H362.46C368.195 260.848 373.715 263.047 377.87 267C379.876 268.909 381.475 271.205 382.571 273.748C383.668 276.292 384.239 279.03 384.25 281.8L384.3 364Z" fill="white"/>
</g>
<defs>
<clipPath id="clip0_4357_25526">
<rect width="512" height="512" fill="white"/>
</clipPath>
</defs>
</svg>
