<?xml version="1.0" encoding="UTF-8"?><svg id="Layer_1" xmlns="http://www.w3.org/2000/svg" viewBox="0 0 299.16 51.34"><defs><style>.cls-1{fill:#006bff;}.cls-1,.cls-2,.cls-3{stroke-width:0px;}.cls-2{fill:#009d00;}.cls-3{fill:#000;}</style></defs><path class="cls-2" d="M21.74,44.53L45.63,11.59l4.2,5.79-19.69,27.15h-8.4ZM8.4,51.34L41.42,5.79l-4.2-5.79L0,51.34h8.4Z"/><path class="cls-1" d="M63.75,44.53l2.88-3.98-4.2-5.79-7.08,9.77h8.4ZM42.01,51.34l16.22-22.37-4.2-5.79-20.42,28.17h8.4Z"/><path class="cls-3" d="M281.75,15.42c-3.52,0-5.82.87-8.42,2.3-1.18-1.43-3.06-2.3-5.97-2.3s-5.15,1.07-7.3,2.45v-2.09h-6.48v28.79h6.74v-21.69c2.09-1.12,3.62-1.69,4.7-1.69,2.86,0,3.52,1.02,3.52,4.95v18.42h6.74v-18.42c0-1.27-.05-2.55-.21-3.67,1.84-.97,3.78-1.27,4.75-1.27,2.86,0,3.67,1.02,3.67,4.95v18.42h6.74v-18.42c0-5.97-1.53-10.72-8.47-10.72"/><path class="cls-3" d="M184.35,31.68c0,4.18-1.07,7.3-5.46,7.3h-4.9v-17.69c1.43-.21,3.67-.36,4.9-.36,4.39,0,5.46,3.11,5.46,7.3v3.45h0ZM178.88,15.42c-1.22,0-3.01.1-4.9.36V5.72h-6.74v38.77h11.64c8.22,0,12.2-4.85,12.2-12.81v-3.45c0-7.96-3.98-12.81-12.2-12.81"/><path class="cls-3" d="M96.42,27.72h-10.82v-.21c0-4.03,2.3-6.28,5.46-6.28s5.36,2.3,5.36,6.28v.21h0ZM91.06,15.42c-7.81,0-12.25,5-12.25,12.96v3.78c0,10.06,7.25,12.81,12.35,12.81,3.77,0,5.78-.17,8.22-.57h.03c.53-.09,1.07-.19,1.66-.29.02,0,.03,0,.05-.01l1.01-.18v-.9c0-.08,0-.15,0-.24v-3.37s0-.04,0-.06v-.79l-1.05.09h-.02c-.1.01-.19.02-.29.03l-1.6.14c-2.06.17-4.72.34-7.49.34-4.9,0-6.13-3.52-6.13-6.48v-.15h17.66v-4.14c0-7.61-4.29-12.96-12.15-12.96"/><path class="cls-3" d="M213.44,27.72h-10.82v-.21c0-4.03,2.3-6.28,5.46-6.28s5.36,2.3,5.36,6.28v.21h0ZM208.08,15.42c-7.81,0-12.25,5-12.25,12.96v3.78c0,10.06,7.25,12.81,12.35,12.81,3.77,0,5.78-.17,8.22-.57h.03c.53-.09,1.07-.19,1.66-.29.02,0,.03,0,.05-.01l1.01-.18v-.9c0-.08,0-.15,0-.24v-3.37s0-.04,0-.06v-.79l-1.05.09h-.02c-.1.01-.19.02-.29.03l-1.6.14c-2.06.17-4.72.34-7.49.34-4.9,0-6.13-3.52-6.13-6.48v-.15h17.66v-4.14c0-7.61-4.29-12.96-12.15-12.96"/><path class="cls-3" d="M153.36,38.18c-1.48.82-3.37,1.43-5.21,1.43-2.55,0-3.67-.66-3.67-3.17v-.21c0-2.86,1.02-4.34,5.67-4.34h3.22v6.28h0ZM148.87,15.42c-3.1,0-5.77.32-7.76.67h0l-.31.06c-.16.03-.31.06-.45.09,0,0-.01,0-.01,0l-.94.18v.74s-.01.09-.01.14v3.27s0,.09.01.13v.85l1.73-.16h0c1.8-.19,4.82-.36,7.76-.36s4.49.82,4.49,4.14v2.25h-3.22c-8.88,0-12.45,3.01-12.45,8.83v.21c0,6.89,4.59,8.52,8.83,8.52,2.45,0,4.85-.82,7.2-2.25v1.84h6.38v-19.39c0-6.53-3.98-9.75-11.23-9.75"/><path class="cls-3" d="M240.38,38.18c-1.48.82-3.37,1.43-5.21,1.43-2.55,0-3.67-.66-3.67-3.17v-.21c0-2.86,1.02-4.34,5.67-4.34h3.22v6.28h0ZM235.89,15.42c-3.1,0-5.77.32-7.76.67h0l-.31.06c-.16.03-.31.06-.45.09,0,0-.01,0-.01,0l-.94.18v.74s-.01.09-.01.14v3.27s0,.09.01.13v.85l1.73-.16h0c1.8-.19,4.82-.36,7.76-.36s4.49.82,4.49,4.14v2.25h-3.22c-8.88,0-12.46,3.01-12.46,8.83v.21c0,6.89,4.59,8.52,8.83,8.52,2.45,0,4.85-.82,7.2-2.25v1.84h6.38v-19.39c0-6.53-3.98-9.75-11.23-9.75"/><polygon class="cls-3" points="127.28 15.78 120.3 25.37 113.33 15.78 106.34 15.78 116.81 30.17 106.34 44.57 113.33 44.57 120.3 34.97 127.28 44.57 134.26 44.57 123.8 30.17 134.26 15.78 127.28 15.78 127.28 15.78"/><path class="cls-3" d="M295.12,17.14h-1.02v2.56h-.86v-2.56h-1.02v-.73h2.9v.73ZM299.16,16.41v3.28h-.81v-2.31h-.02l-.61,2.31h-.79l-.61-2.33h-.02v2.33h-.81v-3.28h1.17l.69,2.39.63-2.39h1.17Z"/></svg>