<svg width="176" height="60" viewBox="0 0 176 60" fill="none" xmlns="http://www.w3.org/2000/svg">
<g clip-path="url(#clip0_2314_12063)">
<g clip-path="url(#clip1_2314_12063)">
<mask id="mask0_2314_12063" style="mask-type:luminance" maskUnits="userSpaceOnUse" x="21" y="17" width="134" height="26">
<path d="M154.897 17.2402H21.1038V42.7614H154.897V17.2402Z" fill="white"/>
</mask>
<g mask="url(#mask0_2314_12063)">
<path fill-rule="evenodd" clip-rule="evenodd" d="M46.7256 29.9709C46.7256 22.94 40.9899 17.2402 33.9147 17.2402C26.8395 17.2402 21.1038 22.94 21.1038 29.9709C21.1038 37.0022 26.8395 42.7016 33.9147 42.7016C40.9899 42.7016 46.7256 37.0022 46.7256 29.9709ZM31.5829 22.8983C31.4822 23.0947 31.4822 23.3519 31.4822 23.8662V26.7809C31.4822 26.9094 31.4822 26.9736 31.4985 27.033C31.513 27.0856 31.5368 27.1353 31.5688 27.1796C31.6049 27.2296 31.655 27.2701 31.7554 27.3511L32.4973 27.9501C32.6183 28.0477 32.6787 28.0965 32.7007 28.1553C32.7199 28.2068 32.7199 28.2635 32.7007 28.3151C32.6787 28.3738 32.6183 28.4226 32.4973 28.5203L31.7554 29.1192C31.655 29.2002 31.6049 29.2407 31.5688 29.2908C31.5368 29.3351 31.513 29.3847 31.4985 29.4373C31.4822 29.4967 31.4822 29.561 31.4822 29.6894V36.0756C31.4822 36.5899 31.4822 36.847 31.5829 37.0434C31.6715 37.2163 31.8129 37.3567 31.9868 37.4448C32.1844 37.5449 32.4432 37.5449 32.9607 37.5449H34.8686C35.3862 37.5449 35.6449 37.5449 35.8426 37.4448C36.0164 37.3567 36.1578 37.2163 36.2464 37.0434C36.3472 36.847 36.3472 36.5899 36.3472 36.0756V33.1608C36.3472 33.0323 36.3472 32.968 36.3308 32.9088C36.3163 32.8561 36.2926 32.8064 36.2606 32.7621C36.2244 32.7121 36.1743 32.6716 36.074 32.5907L35.3321 31.9916C35.2111 31.8941 35.1506 31.8452 35.1287 31.7865C35.1094 31.7349 35.1094 31.6782 35.1287 31.6267C35.1506 31.5679 35.2111 31.5191 35.3321 31.4215L36.074 30.8225C36.1743 30.7415 36.2244 30.701 36.2606 30.651C36.2926 30.6067 36.3163 30.557 36.3308 30.5044C36.3472 30.445 36.3472 30.3808 36.3472 30.2523V23.8662C36.3472 23.3519 36.3472 23.0947 36.2464 22.8983C36.1578 22.7255 36.0164 22.5851 35.8426 22.497C35.6449 22.3969 35.3862 22.3969 34.8686 22.3969H32.9607C32.4432 22.3969 32.1844 22.3969 31.9868 22.497C31.8129 22.5851 31.6715 22.7255 31.5829 22.8983Z" fill="#8C8E9A"/>
<path d="M57.0096 37.5862C57.1366 37.5862 57.2394 37.484 57.2394 37.3579V22.4037C57.2394 22.2775 57.1366 22.1753 57.0096 22.1753H54.7919C54.7097 22.1753 54.6345 22.2195 54.5894 22.2877C54.0809 23.0561 53.1355 23.4431 51.8396 23.4834C51.7127 23.4873 51.6096 23.5891 51.6096 23.7152V25.9519C51.6096 26.078 51.7124 26.1803 51.8394 26.1803H53.6317C53.7586 26.1803 53.8615 26.2825 53.8615 26.4087V37.3579C53.8615 37.484 53.9643 37.5862 54.0914 37.5862H57.0096Z" fill="#8C8E9A"/>
<path d="M65.8638 25.2675C67.0601 25.2675 68.0219 25.8998 68.0219 27.4925C68.0219 29.0383 67.0601 29.7175 65.8638 29.7175H63.2599V25.2675H65.8638ZM65.8638 32.5982C69.3824 32.5982 71.4232 30.4669 71.4232 27.3988C71.4232 24.4946 69.3824 22.3633 65.8638 22.3633H60.1353C60.0083 22.3633 59.9055 22.4655 59.9055 22.5917V37.3585C59.9055 37.4846 60.0083 37.5868 60.1353 37.5868H63.0301C63.1571 37.5868 63.2599 37.4846 63.2599 37.3585V32.8266C63.2599 32.7004 63.3629 32.5982 63.4898 32.5982H65.8638Z" fill="#8C8E9A"/>
<path d="M76.6263 35.4317C75.641 35.4317 75.0312 34.9866 75.0312 34.1904C75.0312 33.4876 75.4534 33.0193 76.4621 33.0193H79.2067V33.2534C79.2067 34.6119 78.0338 35.4317 76.6263 35.4317ZM79.4647 37.3579C79.4647 37.4841 79.5676 37.5863 79.6945 37.5863H82.214C82.341 37.5863 82.4438 37.4841 82.4438 37.3579V30.7474C82.4438 27.5622 80.6375 25.7119 77.3769 25.7119C74.956 25.7119 73.1025 26.9974 72.3425 29.0641C72.2969 29.1882 72.3728 29.322 72.5018 29.3535L75.0404 29.9721C75.155 30.0001 75.2715 29.9368 75.3162 29.8282C75.7017 28.8906 76.3436 28.3351 77.3769 28.3351C78.456 28.3351 79.2067 29.0377 79.2067 30.3024V30.4664C79.2067 30.8177 79.0894 30.9582 78.6671 30.9582H75.7349C73.2953 30.9582 71.8174 32.2463 71.8174 34.2839C71.8174 36.4622 73.5064 37.8675 75.8523 37.8675C77.0325 37.8675 78.1666 37.4817 78.9658 36.6228C79.1229 36.454 79.4647 36.5569 79.4647 36.7869V37.3579Z" fill="#8C8E9A"/>
<path d="M88.6847 35.5252C87.5448 35.5252 86.7121 35.0548 86.3017 34.1904C86.2518 34.0855 86.1362 34.0245 86.0229 34.0529L83.6503 34.6502C83.5283 34.6808 83.4531 34.8037 83.4894 34.9236C84.09 36.9072 86.0993 37.8675 88.5673 37.8675C91.7343 37.8675 93.5404 36.2514 93.5404 34.0498C93.5404 29.7872 86.7612 31.2393 86.7612 29.1314C86.7612 28.4288 87.3475 27.9837 88.4031 27.9837C89.4537 27.9837 90.1572 28.5547 90.4944 29.4301C90.5362 29.5387 90.6483 29.6068 90.7632 29.5852L93.1849 29.1294C93.3144 29.105 93.3972 28.9773 93.3598 28.8517C92.8043 26.9868 91.2432 25.7119 88.4266 25.7119C85.3302 25.7119 83.6881 27.3514 83.6881 29.4124C83.6881 33.8156 90.4909 32.504 90.4909 34.3309C90.4909 35.0569 89.8811 35.5252 88.6847 35.5252Z" fill="#8C8E9A"/>
<path d="M99.2232 35.5252C98.0832 35.5252 97.2506 35.0548 96.8401 34.1904C96.7903 34.0855 96.6746 34.0245 96.5615 34.0529L94.1888 34.6502C94.0668 34.6808 93.9917 34.8037 94.028 34.9236C94.6286 36.9072 96.6377 37.8675 99.1059 37.8675C102.273 37.8675 104.079 36.2514 104.079 34.0498C104.079 29.7872 97.2996 31.2393 97.2996 29.1314C97.2996 28.4288 97.8861 27.9837 98.9417 27.9837C99.9923 27.9837 100.696 28.5547 101.033 29.4301C101.075 29.5387 101.187 29.6068 101.302 29.5852L103.723 29.1294C103.853 29.105 103.936 28.9773 103.898 28.8517C103.343 26.9868 101.782 25.7119 98.9652 25.7119C95.8688 25.7119 94.2267 27.3514 94.2267 29.4124C94.2267 33.8156 101.029 32.504 101.029 34.3309C101.029 35.0569 100.419 35.5252 99.2232 35.5252Z" fill="#8C8E9A"/>
<path d="M107.044 37.4131C107.07 37.5154 107.162 37.5875 107.268 37.5875H110.916C111.023 37.5875 111.116 37.5146 111.14 37.4115L112.999 29.5541L114.857 37.4115C114.881 37.5146 114.974 37.5875 115.081 37.5875H118.847C118.953 37.5875 119.045 37.5157 119.07 37.4135L121.819 26.2769C121.855 26.133 121.745 25.9941 121.596 25.9941H119.003C118.894 25.9941 118.8 26.0702 118.778 26.1763L116.939 35.0111L114.661 26.1659C114.635 26.0648 114.544 25.9941 114.439 25.9941H111.538C111.432 25.9941 111.339 26.0668 111.314 26.1697L109.198 35.0111L107.383 26.1768C107.361 26.0705 107.267 25.9941 107.158 25.9941H104.541C104.392 25.9941 104.283 26.1327 104.318 26.2765L107.044 37.4131Z" fill="#8C8E9A"/>
<path d="M128.017 37.8675C131.535 37.8675 133.952 35.1506 133.952 31.8014C133.952 28.4287 131.535 25.7119 128.017 25.7119C124.522 25.7119 122.082 28.4287 122.082 31.8014C122.082 35.1506 124.522 37.8675 128.017 37.8675ZM128.017 35.0804C126.562 35.0804 125.436 33.8624 125.436 31.8014C125.436 29.7403 126.562 28.499 128.017 28.499C129.471 28.499 130.621 29.7403 130.621 31.8014C130.621 33.8624 129.471 35.0804 128.017 35.0804Z" fill="#8C8E9A"/>
<path d="M138.579 31.4501C138.579 29.4593 139.587 28.9908 141.136 28.9908C141.432 28.9908 141.758 29.0201 142.068 29.0787C142.199 29.1035 142.328 29.0204 142.351 28.8899L142.843 26.1318C142.86 26.0349 142.813 25.9367 142.722 25.8981C142.44 25.7787 142.091 25.7119 141.675 25.7119C140.103 25.7119 138.884 26.6253 138.297 28.4756V26.2213C138.297 26.0952 138.194 25.993 138.067 25.993H135.524C135.397 25.993 135.295 26.0952 135.295 26.2213V37.3579C135.295 37.4841 135.397 37.5863 135.524 37.5863H138.349C138.476 37.5863 138.579 37.4841 138.579 37.3579V31.4501Z" fill="#8C8E9A"/>
<path d="M148.912 35.1518C147.223 35.1518 146.332 33.7698 146.332 31.8025C146.332 29.8352 147.223 28.4299 148.912 28.4299C150.601 28.4299 151.493 29.8352 151.493 31.8025C151.493 33.7698 150.601 35.1518 148.912 35.1518ZM151.68 37.3591C151.68 37.4852 151.783 37.5875 151.91 37.5875H154.547C154.674 37.5875 154.777 37.4852 154.777 37.3591V22.6263C154.777 22.5002 154.674 22.3979 154.547 22.3979H151.816C151.689 22.3979 151.586 22.5002 151.586 22.6263V27.6102C150.859 26.2518 149.639 25.7131 148.091 25.7131C145.065 25.7131 143.001 28.3362 143.001 31.8025C143.001 35.2688 145.065 37.8686 148.091 37.8686C149.733 37.8686 151 37.2127 151.68 35.5264V37.3591Z" fill="#8C8E9A"/>
</g>
</g>
</g>
<defs>
<clipPath id="clip0_2314_12063">
<rect width="176" height="60" fill="white"/>
</clipPath>
<clipPath id="clip1_2314_12063">
<rect width="133.793" height="25.5212" fill="white" transform="translate(21.1038 17.2402)"/>
</clipPath>
</defs>
</svg>
