<svg fill="none" height="40" viewBox="0 0 189 40" width="189" xmlns="http://www.w3.org/2000/svg" xmlns:xlink="http://www.w3.org/1999/xlink"><clipPath id="a"><path d="m0 0h188.868v40h-188.868z"/></clipPath><clipPath id="b"><path d="m0 0h188.868v40h-188.868z"/></clipPath><g clip-path="url(#a)"><g clip-path="url(#b)"><path d="m4.47691 4.44816c5.42755-5.395234 14.23989-5.395234 19.66749 0 5.4276 5.39353 5.4276 14.14124 0 19.53464-5.4276 5.3953-14.23994 5.3953-19.66749 0-5.427547-5.3917-5.427547-14.14111 0-19.53464z" fill="#ffccc5"/><path d="m14.3075 28.3662c-3.6484 0-7.29685-1.3794-10.07442-4.14-2.6891-2.6737-4.17058-6.2269-4.17058-10.0097s1.48148-7.336 4.17058-10.00979c5.55683-5.5211 14.59362-5.5211 20.14882 0 2.6891 2.6721 4.1706 6.22699 4.1706 10.00979 0 3.781-1.4815 7.336-4.1706 10.0097-2.7775 2.7606-6.426 4.14-10.0744 4.14zm-9.59306-23.67643c-2.55985 2.54453-3.969882 5.92763-3.969882 9.52673s1.410032 6.9822 3.969882 9.5267c2.64489 2.6278 6.11986 3.9427 9.59306 3.9427 3.4749 0 6.9482-1.3149 9.5948-3.9427 2.5598-2.5445 3.9698-5.9276 3.9698-9.5267s-1.41-6.9822-3.9698-9.52673c-5.2899-5.257467-13.8981-5.257467-19.18786 0z" fill="#eeb3ab"/><path d="m12.598 16.016c5.4276-5.3952 14.2399-5.3952 19.6674 0 5.4276 5.3934 5.4276 14.1412 0 19.5348-5.4275 5.3952-14.2398 5.3952-19.6674 0-5.42755-5.3936-5.42755-14.1431 0-19.5348z" fill="#ffefb8"/><path d="m22.4325 39.9323c-3.6484 0-7.2968-1.3795-10.0744-4.14-2.68913-2.6738-4.1706-6.227-4.1706-10.0098 0-3.781 1.48147-7.3359 4.1706-10.0097 5.5551-5.5211 14.5937-5.5211 20.1471 0 2.689 2.6721 4.1705 6.227 4.1705 10.0097 0 3.7811-1.4815 7.336-4.1705 10.0098-2.7776 2.7605-6.4261 4.14-10.0744 4.14zm0-27.6191c-3.4749 0-6.9482 1.3148-9.5931 3.9427-2.5598 2.5445-3.96984 5.9275-3.96984 9.5266 0 3.5992 1.41004 6.9822 3.96984 9.5268 2.6449 2.6279 6.1199 3.9426 9.5931 3.9426 3.4749 0 6.9481-1.3147 9.593-3.9426 2.5599-2.5446 3.9698-5.9276 3.9698-9.5268 0-3.5991-1.4099-6.9821-3.9698-9.5266-2.6449-2.6296-6.1198-3.9427-9.593-3.9427z" fill="#e0d19b"/><path d="m20.4457 4.44816c5.4276-5.395234 14.2398-5.395234 19.6674 0 5.4275 5.39353 5.4275 14.14124 0 19.53464-5.4276 5.3953-14.2398 5.3953-19.6674 0-5.4276-5.3934-5.4276-14.14281 0-19.53464z" fill="#c2e9ff"/><path d="m30.2802 28.3662c-3.6485 0-7.297-1.3794-10.0745-4.14-2.6891-2.6737-4.1705-6.2269-4.1705-10.0097s1.4814-7.336 4.1705-10.00979c5.5552-5.5211 14.592-5.5211 20.1471 0 2.6891 2.6721 4.1706 6.22699 4.1706 10.00979s-1.4815 7.336-4.1706 10.0097c-2.7775 2.7606-6.426 4.14-10.0743 4.14zm0-27.619107c-3.4749 0-6.9481 1.314787-9.593 3.942677-2.5599 2.54453-3.97 5.92763-3.97 9.52673s1.4101 6.9822 3.97 9.5267c5.2896 5.2574 13.8979 5.2574 19.1877 0 2.5598-2.5445 3.9698-5.9276 3.9698-9.5267s-1.41-6.9822-3.9698-9.52673c-2.6449-2.62959-6.1198-3.942677-9.593-3.942677z" fill="#a7d1ea"/><g clip-rule="evenodd" fill-rule="evenodd"><path d="m16.074 13.1112c.3352-4.50986 2.7025-8.28879 6.2175-10.62109 3.5538 2.31008 5.9325 6.11089 6.1932 10.47839.2606 4.3674-2.4615 9.2593-6.1515 12.5936-4.1937-2.8055-6.5944-7.941-6.2592-12.4509z" fill="#a183f9"/><path d="m28.4849 12.9695c-.3472 4.8994-2.3709 8.9026-6.1851 12.9773-4.1923 2.8232-9.5663 3.1774-14.05705 1.0802-.35719-4.0309 1.01776-8.1705 4.11675-11.2525 1.1184-1.1119 2.3764-1.9998 3.7179-2.6642 4.5017-1.0412 7.4145-1.3543 12.4075-.1408z" fill="#f084b8"/><path d="m36.6353 26.8864c.3113-3.9853-1.0129-8.0323-4.0899-11.0803-1.1994-1.1925-2.6088-2.1605-4.0592-2.8378-4.8225-1.355-6.9951-1.8996-12.3584.1752-.3112 3.9852 1.1146 7.9646 4.1795 11.0125.6546.6508 1.1457 1.1176 1.993 1.7912 4.2784 2.882 9.7833 3.186 14.335.9392z" fill="#6cdc92"/></g><path d="m22.2979 25.947c4.3481-3.0525 6.1872-7.054 6.1872-12.9784-4.4621-1.7224-8.0202-1.8993-12.4108.1424-.3219 6.0052 2.2135 9.9169 6.2236 12.836z" fill="#35198e"/><path d="m68.6283 30.3864h3.4066l-6.4204-16.5789h-4.2332l-6.4204 16.5789h3.4066l1.3608-3.6702h7.5004l1.3605 3.6702zm-7.7809-6.3913 2.733-7.0616 2.7332 7.0616zm15.9667-3.8098v-1.7721h-3.1396v11.9597h3.1396v-5.1634c0-1.6329.267-2.7214.9542-3.3914.687-.6702 1.6394-.8096 3-.6837v-2.9866c-1.7806-.1394-3.1396.5443-3.9542 2.0375zm20.4687-2.0375c-1.7807 0-3.1396.5443-4.0938 1.7722-.813-1.2279-2.046-1.7722-3.6871-1.7722-1.5002 0-2.7332.5443-3.5479 1.7722v-1.3538h-3.1397v11.9599h3.1397v-5.9732c0-1.0885.2669-1.898.6871-2.4423.42-.5442 1.0936-.9491 1.9066-.9491 1.5 0 2.313.9491 2.313 2.9866v6.5174h3.1397v-6.1126c0-1.0885.267-1.898.687-2.4423.4201-.5442 1.0935-.8096 1.9066-.8096 1.5 0 2.313.949 2.313 2.9866v6.5173h3.14v-7.4664c0-1.6326-.407-2.847-1.233-3.8096-.9546-.9491-2.0482-1.4933-3.5482-1.3539l.0119-.0255zm13.5142 12.63c1.907 0 3.407-.5444 4.64-1.7723s1.78-2.7211 1.78-4.4798c0-1.7585-.545-3.2655-1.78-4.4798-1.233-1.228-2.733-1.7722-4.64-1.7722-1.906 0-3.407.5442-4.64 1.7722-1.233 1.2279-1.78 2.7213-1.78 4.4798 0 1.7587.546 3.2655 1.78 4.4798 1.233 1.0885 2.734 1.7723 4.64 1.7723zm0-2.8472c-.954 0-1.781-.2653-2.454-.9491-.674-.6836-.954-1.4932-.954-2.4422 0-.9491.267-1.8981.954-2.4423.687-.6838 1.5-.9491 2.454-.9491s1.781.2653 2.454.9491c.674.6838.954 1.4932.954 2.4423 0 .949-.267 1.8981-.954 2.4422-.687.6838-1.5.9491-2.454.9491zm11.875-7.7453v-1.7721h-3.14v11.9597h3.14v-5.1634c0-1.6329.267-2.7214.954-3.3914.687-.6702 1.639-.8096 3-.6837v-2.9866c-1.781-.1394-3.14.5443-3.954 2.0375zm14.189 10.5925c2.046 0 3.827-.5444 5.187-1.6329 1.361-1.0885 2.313-2.3028 2.734-3.8096l-3.14-.8096c-.267.8096-.813 1.6328-1.781 2.177-.813.5443-1.906.949-3.139.949-1.64 0-2.861-.5443-3.827-1.6328-.954-1.0885-1.5-2.4423-1.5-3.9355s.546-2.8471 1.5-3.9356 2.313-1.6327 3.954-1.6327c1.233 0 2.187.2653 3.14.949.813.5443 1.5 1.3538 1.781 2.1771l3.139-.8097c-.406-1.4932-1.36-2.7212-2.733-3.8097-1.361-1.0885-3.14-1.6327-5.327-1.6327-2.454 0-4.5.8096-6.281 2.4423-1.639 1.6327-2.454 3.6703-2.454 6.1126s.813 4.4798 2.454 6.2519c1.64 1.7722 3.688 2.5819 6.281 2.5819h.014zm15.967 0c1.907 0 3.407-.5444 4.64-1.7723s1.78-2.7211 1.78-4.4798c0-1.7585-.546-3.2655-1.78-4.4798-1.233-1.228-2.733-1.7722-4.64-1.7722-1.906 0-3.407.5442-4.64 1.7722-1.233 1.2279-1.78 2.7213-1.78 4.4798 0 1.7587.546 3.2655 1.78 4.4798 1.094 1.0885 2.734 1.7723 4.64 1.7723zm-.14-2.8472c-.954 0-1.78-.2653-2.454-.9491-.673-.6836-.954-1.4932-.954-2.4422 0-.9491.267-1.8981.954-2.4423.687-.6838 1.5-.9491 2.454-.9491.955 0 1.781.2653 2.455.9491.673.6838.954 1.4932.954 2.4423 0 .949-.267 1.8981-.954 2.4422-.546.6838-1.361.9491-2.455.9491zm18.017-14.8068v6.7962c-.954-1.2279-2.187-1.7722-3.827-1.7722s-3.14.5443-4.233 1.7722c-1.094 1.2279-1.781 2.7212-1.781 4.4798 0 1.7587.546 3.2655 1.781 4.4798 1.233 1.2144 2.593 1.7723 4.233 1.7723s2.861-.5443 3.827-1.7723v1.4933h3.138v-17.2491zm-3.409 14.8068c-.954 0-1.779-.2653-2.454-.9491-.673-.6836-.954-1.4932-.954-2.5817s.267-1.8981.954-2.5817c.687-.6837 1.5-.949 2.454-.949.955 0 1.781.2653 2.455.949.673.6836.954 1.4932.954 2.4423 0 1.0885-.267 1.8981-.954 2.5817-.688.8096-1.5 1.0885-2.455 1.0885zm15.421 2.8472c1.5 0 2.733-.4049 3.688-1.0885.952-.6838 1.78-1.4934 2.047-2.4423l-2.861-.8096c-.546 1.0885-1.5 1.6326-2.86 1.6326-1.094 0-1.907-.2653-2.453-.6836-.546-.5443-.952-1.2279-1.093-2.0375h9.42c0-.2653.14-.6838.14-1.0885 0-1.7723-.546-3.2655-1.64-4.354-1.093-1.2279-2.594-1.7722-4.5-1.7722-1.907 0-3.408.5443-4.5 1.7722-1.235 1.228-1.781 2.7212-1.781 4.4798 0 1.8982.546 3.3914 1.781 4.6193 1.093 1.2279 2.731 1.7723 4.639 1.7723h-.025zm-3.406-7.3389c.139-.6838.406-1.3538.952-1.8981.548-.5442 1.362-.8095 2.187-.8095.953 0 1.641.2653 2.187.8095.546.5443.953 1.0885.953 1.8981h-6.281z" fill="#283b5f"/></g></g></svg>