<?xml version="1.0" encoding="utf-8"?>
<!-- Generator: Adobe Illustrator 16.0.0, SVG Export Plug-In . SVG Version: 6.00 Build 0)  -->
<!DOCTYPE svg PUBLIC "-//W3C//DTD SVG 1.1//EN" "http://www.w3.org/Graphics/SVG/1.1/DTD/svg11.dtd">
<svg version="1.1" id="Layer_1" xmlns="http://www.w3.org/2000/svg" xmlns:xlink="http://www.w3.org/1999/xlink" x="0px" y="0px"
	 width="1190px" height="555px" viewBox="0 0 1190 555" enable-background="new 0 0 1190 555" xml:space="preserve">
<g>
	<path fill="#FFFFFF" d="M209.049,256.864l93.419,0.084C314.743-77.265,740.934-60.897,801.615,177.76l187.18-0.08l-0.264,79.018
		l180.627,0.346l-110.471,140.968l126.945,147.973H205.636C86.65,579.914,0.881,486.75,4.477,395.293
		C7.993,306.001,95.344,219.868,209.049,256.864"/>
	<path fill="#262161" d="M168.579,329.167c-48.689,0-74.97,38.354-74.97,74.428c0,40.283,32.936,71.862,74.97,71.862
		c42.653,0,73.586-30.96,73.586-73.577C242.165,354.132,205.15,329.167,168.579,329.167 M155.549,531.637
		c-61.79,0-127.476-45.772-127.476-130.628c0-73,56.397-128.043,131.188-128.043c46.037,0,76.012,26.051,84.752,36.046v-27.857
		h60.424v242.717h-60.424V496.86C223.298,517.199,186.961,531.637,155.549,531.637"/>
	<path fill="none" stroke="#743182" stroke-width="0.25" d="M168.579,329.167c-48.689,0-74.97,38.354-74.97,74.428
		c0,40.283,32.936,71.862,74.97,71.862c42.653,0,73.586-30.96,73.586-73.577C242.165,354.132,205.15,329.167,168.579,329.167z
		 M155.549,531.637c-61.79,0-127.476-45.772-127.476-130.628c0-73,56.397-128.043,131.188-128.043
		c46.037,0,76.012,26.051,84.752,36.046v-27.857h60.424v242.717h-60.424V496.86C223.298,517.199,186.961,531.637,155.549,531.637z"
		/>
	<path fill="#262161" d="M434.754,531.637c-49.798,0-76.456-24.165-87.905-38.587c-19.479-25.952-19.479-64.434-19.479-85.12
		V281.195h65.485v123.732c0,19.265,0,70.533,52.109,70.533c43.751,0,50.28-43.938,50.28-70.116V281.195h65.477v242.676h-60.357
		V501.95C490.825,513.707,473.526,531.637,434.754,531.637"/>
	<path fill="none" stroke="#743182" stroke-width="0.25" d="M434.754,531.637c-49.798,0-76.456-24.165-87.905-38.587
		c-19.479-25.952-19.479-64.434-19.479-85.12V281.195h65.485v123.732c0,19.265,0,70.533,52.109,70.533
		c43.751,0,50.28-43.938,50.28-70.116V281.195h65.477v242.676h-60.357V501.95C490.825,513.707,473.526,531.637,434.754,531.637z"/>
	<polygon fill="#262161" points="700.045,523.828 655.992,523.828 655.553,522.656 565.189,281.203 626.596,281.203 
		679.365,437.493 728.998,281.203 791.236,281.203 	"/>
	<polygon fill="none" stroke="#743182" stroke-width="0.25" points="700.045,523.828 655.992,523.828 655.553,522.656 
		565.189,281.203 626.596,281.203 679.365,437.493 728.998,281.203 791.236,281.203 	"/>
	<path fill="#262161" d="M871.932,253.995h-64.518v-52.488h64.518V253.995z M871.932,523.828h-64.518V280.862h64.518V523.828z"/>
	<path fill="none" stroke="#743182" stroke-width="0.25" d="M871.932,253.995h-64.518v-52.488h64.518V253.995z M871.932,523.828
		h-64.518V280.862h64.518V523.828z"/>
	<polygon fill="#262161" points="1136.17,523.828 1053.434,523.828 968.096,414.007 968.096,523.828 902.836,523.828 
		902.836,201.101 968.096,201.101 968.096,390.945 1048.322,280.869 1123.898,280.869 1029.814,399.917 	"/>
	<polygon fill="none" stroke="#743182" stroke-width="0.25" points="1136.17,523.828 1053.434,523.828 968.096,414.007 
		968.096,523.828 902.836,523.828 902.836,201.101 968.096,201.101 968.096,390.945 1048.322,280.869 1123.898,280.869 
		1029.814,399.917 	"/>
	<path fill="#804096" d="M785.145,221.378C769.438,111.463,673.383,26.621,557.572,26.621
		c-126.777,0-229.881,101.609-229.881,226.478h66.097c0-88.554,73.469-160.585,163.784-160.585c23.704,0,46.211,5.004,66.598,13.93
		c-70.444,9.869-124.904,71.849-124.904,146.655h66.071c0-45.33,35.248-82.189,78.525-82.189c36.645,0,67.49,26.364,76.148,61.895
		c0.857,6.658,1.334,13.416,1.334,20.294h1.09h65.023h1.068C788.525,242.194,787.344,231.605,785.145,221.378"/>
	<path fill="none" stroke="#743182" stroke-width="0.25" d="M785.145,221.378C769.438,111.463,673.383,26.621,557.572,26.621
		c-126.777,0-229.881,101.609-229.881,226.478h66.097c0-88.554,73.469-160.585,163.784-160.585c23.704,0,46.211,5.004,66.598,13.93
		c-70.444,9.869-124.904,71.849-124.904,146.655h66.071c0-45.33,35.248-82.189,78.525-82.189c36.645,0,67.49,26.364,76.148,61.895
		c0.857,6.658,1.334,13.416,1.334,20.294h1.09h65.023h1.068C788.525,242.194,787.344,231.605,785.145,221.378z"/>
</g>
</svg>
