<?xml version="1.0" encoding="utf-8"?>
<!-- Generator: Adobe Illustrator 19.2.1, SVG Export Plug-In . SVG Version: 6.00 Build 0)  -->
<svg version="1.1" id="layer" xmlns="http://www.w3.org/2000/svg" xmlns:xlink="http://www.w3.org/1999/xlink" x="0px" y="0px"
	 viewBox="0 0 652 652" style="enable-background:new 0 0 652 652;" xml:space="preserve">
<style type="text/css">
	.st0{fill:#56565A;}
	.st1{fill:#F57E20;}
</style>
<path class="st0" d="M619.6,323.1c-0.3-0.7-0.7-1.3-1.3-1.9c-0.5-0.5-1.2-1-1.9-1.3c-1.4-0.6-3.2-0.6-4.6,0
	c-0.7,0.3-1.3,0.7-1.9,1.3c-0.5,0.5-1,1.2-1.3,1.9s-0.5,1.5-0.5,2.3c0,0.8,0.2,1.6,0.5,2.3c0.3,0.7,0.7,1.3,1.3,1.9
	c0.5,0.5,1.2,1,1.9,1.3c0.7,0.3,1.5,0.5,2.3,0.5s1.6-0.2,2.3-0.5c0.7-0.3,1.3-0.7,1.9-1.3c0.5-0.5,1-1.2,1.3-1.9
	c0.3-0.7,0.5-1.5,0.5-2.3C620,324.6,619.9,323.8,619.6,323.1z M614.6,324.7c-0.2,0-0.4,0-0.6,0h-0.8v-1.6h1.2c0.1,0,0.3,0,0.5,0
	c0.1,0,0.3,0.1,0.4,0.1c0.1,0.1,0.2,0.1,0.2,0.2c0.1,0.1,0.1,0.2,0.1,0.4c0,0.2,0,0.4-0.1,0.5c-0.1,0.1-0.2,0.2-0.3,0.2
	C614.9,324.7,614.8,324.7,614.6,324.7z M615.7,325.8c0.2-0.1,0.4-0.2,0.6-0.4s0.3-0.4,0.4-0.6c0.1-0.2,0.2-0.5,0.2-0.9
	c0-0.7-0.2-1.2-0.6-1.5c-0.4-0.4-1-0.5-1.8-0.5h-2.8v7h1.4v-2.8h0.7l1.8,2.7l0.1,0.1h1.1c-0.3,0.3-0.7,0.5-1.1,0.7
	c-1.1,0.5-2.4,0.5-3.5,0c-0.6-0.2-1-0.6-1.4-1c-0.4-0.4-0.7-0.9-1-1.4c-0.2-0.5-0.4-1.1-0.4-1.8c0-0.6,0.1-1.2,0.4-1.8
	c0.2-0.5,0.6-1,1-1.4c0.4-0.4,0.9-0.7,1.4-1c0.5-0.2,1.1-0.4,1.8-0.4c0.6,0,1.2,0.1,1.8,0.4c0.5,0.2,1,0.6,1.4,1
	c0.4,0.4,0.7,0.9,1,1.4c0.2,0.5,0.4,1.1,0.4,1.8c0,0.6-0.1,1.2-0.4,1.8c-0.2,0.6-0.6,1-1,1.4l0,0l-1.8-2.7
	C615.5,325.9,615.6,325.9,615.7,325.8z"/>
<g>
	<path class="st1" d="M132.5,320.5c-3.4,0-6.1,2.8-6.1,6.1c0,3.4,2.8,6.1,6.1,6.1c3.4,0,6.1-2.8,6.1-6.1
		C138.6,323.3,135.8,320.5,132.5,320.5z"/>
	<path class="st1" d="M135.9,276.9h-6.6l-36.4,89.2h8.1l0.3-0.7c0.1-0.2,1.9-4.6,4.5-11.3c7.6-19.2,22.7-57,26.8-67.2l33.1,79.1v0.1
		h8.5L135.9,276.9L135.9,276.9z"/>
	<polygon class="st1" points="77.4,354.5 28.5,276.9 28.5,276.9 20.1,276.9 20.1,366.1 27.2,366.1 27.2,288.7 76.2,366.1 
		76.3,366.1 84.7,366.1 84.7,276.9 77.4,276.9 	"/>
	<polygon class="st1" points="195.4,356.4 164.7,277 164.7,276.9 156.9,276.9 191.7,366 191.8,366.1 199.3,366.1 233.4,277 
		233.5,276.9 225.6,276.9 	"/>
	<polygon class="st1" points="249.1,322.9 292.3,322.9 292.3,316.2 249.1,316.2 249.1,283.5 293.9,283.5 293.9,276.9 241.7,276.9 
		241.7,366.1 295.8,366.1 295.8,359.5 249.1,359.5 	"/>
	<polygon class="st1" points="341.7,320 372,276.9 363.4,276.9 337.3,314.2 310.7,276.9 310.7,276.9 301.5,276.9 332.9,319.8 
		300.7,366.1 309.5,366.1 337.1,326.1 365.5,366.1 365.6,366.1 374.6,366.1 	"/>
</g>
<g>
	<path class="st0" d="M402.6,347.4h11.5v12.7c-3,0.9-6.1,1.4-9.4,1.4c-4.8,0-8.7-1.9-11.3-5.5c-2.4-3.4-3.6-7.8-3.6-13.1
		c0-5,1.1-9.3,3.4-12.7c2.5-3.7,6-5.5,10.5-5.5c2.8,0,4.9,0.7,6.6,2c1.6,1.3,2.7,3.2,3,5.5l0.2,1.4h5.8l-0.2-1.8
		c-0.5-4.1-2.2-7.2-5.1-9.4c-2.8-2-6.2-3-10.3-3c-6.4,0-11.6,2.5-15.1,7.4c-3.2,4.3-4.7,9.8-4.7,16.2c0,6.8,1.7,12.4,5,16.6
		c3.7,4.7,9,7.1,15.8,7.1c4.1,0,8.8-0.8,13.9-2.4l1.1-0.4v-22h-17.1L402.6,347.4L402.6,347.4z"/>
	<polygon class="st0" points="433.4,320.1 427.8,320.1 427.8,366.5 455.6,366.5 455.6,361.2 433.4,361.2 	"/>
	<path class="st0" d="M475.2,319.4c-6.6,0-11.9,2.5-15.5,7.3c-3.2,4.3-4.8,9.8-4.8,16.4c0,6.7,1.6,12.3,4.7,16.6
		c3.7,4.9,8.9,7.4,15.5,7.4c6.6,0,11.9-2.6,15.4-7.5c3.1-4.4,4.6-9.9,4.6-16.6c0-6.9-1.5-12.5-4.5-16.5
		C487.2,321.8,482,319.4,475.2,319.4z M475.2,361.8c-4.7,0-8.4-1.9-11-5.7c-2.3-3.4-3.5-7.7-3.5-13c0-5.3,1.1-9.7,3.4-12.9
		c2.5-3.7,6.1-5.4,11-5.4s8.5,1.8,11,5.3c2.1,3.1,3.2,7.5,3.2,13c0,5.2-1.1,9.6-3.4,13C483.5,359.9,479.9,361.8,475.2,361.8z"/>
	<path class="st0" d="M526.4,341.9c0.9-0.6,1.6-1.3,2.3-2.1c1.7-2,2.6-4.6,2.6-7.5c0-2.8-0.8-5.1-2.4-7.2c-1.6-2.1-3.7-3.5-6.2-4.3
		c-1.7-0.5-4.4-0.8-7.9-0.8H502v46.5h13.1c14.8,0,18-7.4,18-13.7C533.1,347.6,530.7,343.9,526.4,341.9z M522.8,338
		c-1.6,1.2-3.8,1.7-6.6,1.7h-8.4v-14.1h9.2c2.6,0,4.7,0.6,6.2,1.9c1.4,1.1,2.2,2.9,2.2,5C525.4,335.1,524.6,336.9,522.8,338z
		 M507.8,345.1h9.2c9.2,0,10.3,4.5,10.3,7.8c0,3.5-1.1,5.6-3.6,6.8c-1.8,0.9-4.7,1.3-8.9,1.3h-7V345.1L507.8,345.1z"/>
	<path class="st0" d="M557.2,320.1h-4.6l-18.9,46.3l-0.1,0.2h6.2l5-12.9h20.4l5.3,12.8v0.1h6.4L557.2,320.1L557.2,320.1z
		 M562.9,348.3H547l7.8-19.6L562.9,348.3z"/>
	<polygon class="st0" points="586.2,361.2 586.2,320.1 580.6,320.1 580.6,366.5 608.4,366.5 608.4,361.2 	"/>
</g>
</svg>
