<svg version="1.1" id="Layer_1" xmlns="http://www.w3.org/2000/svg" xmlns:xlink="http://www.w3.org/1999/xlink" x="0px" y="0px" viewBox="0 0 176.9 60.6" style="enable-background:new 0 0 176.9 60.6;" xml:space="preserve">
 <style type="text/css">
  .st0{fill:#6D6E71;}
	.st1{fill:#F37322;}
 </style>
 <g>
  <path class="st0" d="M29,30.9c1.7-1.8,2.7-4.1,2.6-6.6c0-2.1-0.7-4.1-2.2-5.6c-3.2-3.2-8.6-3.6-15.2-3.6H0v33.1
		c0,0.3,0.3,0.6,0.6,0.6h7.2V35.1c0,0,3.3,0.1,5.3,0.1C18.3,35.2,25,35,29,30.9z M7.8,32.6V17.7c1.3-0.1,2.7-0.2,4-0.1
		c4.2,0,12,0.6,12,7.2c0,7-7.2,7.8-12.5,7.8C9.2,32.7,7.8,32.6,7.8,32.6z">
  </path>
  <path class="st0" d="M176.9,26.8c0-0.3,0-0.5-0.4-0.7c-1.7-0.5-3.6-0.8-5.4-0.7c-3.2,0-6.3,0.5-9.3,1.5v-0.6c0-0.3-0.3-0.6-0.6-0.6
		H154v22.4c0,0.3,0.2,0.6,0.5,0.6c0,0,0,0,0,0h7.2V34.8c0-4.2,4.1-6,8.3-6c2.3,0,4.7,0.5,6.8,1.3L176.9,26.8z">
  </path>
  <path class="st0" d="M45,25c-6.1,0-10,1.6-11,2.1c-0.3,0.1-0.4,0.4-0.4,0.7v3.4c2.8-1.7,5.9-2.5,9.1-2.5c1.9-0.1,3.9,0.6,5.3,1.9
		c0.9,0.9,1.4,2.1,1.4,4.4c0,0-3.5-0.3-6.3-0.3c-5,0-14.5,0.9-14.5,7.7c0,3.2,2.4,6.7,10.2,6.7c3.6,0,7.2-0.7,10.6-1.9v1.1
		c0,0.3,0.3,0.6,0.6,0.6h7.2V33.6C57.1,28,53.6,25,45,25z M49.4,44.3c-2.1,1-4.4,1.5-6.7,1.5c-3.3,0-6.2-1.2-6.2-4.3
		c0-3.4,3-4.6,10-4.6c1.4,0,2.8,0.1,2.8,0.1V44.3z">
  </path>
  <path class="st0" d="M84.1,25.8c-0.3,0-0.6,0.2-0.7,0.5l-9.1,17c0,0-8.9-16.6-9.2-17c-0.1-0.3-0.4-0.4-0.7-0.4H58l12.8,23.7
		l-6.2,11.1h6.7c0.4,0,0.7-0.2,0.9-0.5L91,25.8H84.1z">
  </path>
  <path class="st1" d="M87.7,10.7c1.7,1,2.3,3.1,1.5,4.9l-2.6,4.8c-0.1,0.2,0.1,0.5,0.3,0.6c0.1,0,0.1,0,0.2,0l21.3-6.5
		c0.6-0.2,1-0.8,1-1.4c0-0.7-0.4-1.3-1.1-1.5L70.6,0c-0.1,0-0.1,0-0.2,0c-0.3,0-0.5,0.2-0.5,0.5c0,0.2,0.1,0.3,0.2,0.4L87.7,10.7z">
  </path>
  <path class="st0" d="M134.2,25c-10.8,0-15.7,6-15.7,12.4s5,12.2,15.9,12.2s16.4-5.4,16.4-12.3C150.9,30,144.9,25,134.2,25z
		 M134.8,46.4c-4.7,0-8.4-4.1-8.4-9.1s3.3-8.9,8.5-8.9c5.3,0,8.2,4.9,8.2,9.2C143.1,42,140.2,46.4,134.8,46.4L134.8,46.4z">
  </path>
  <path class="st0" d="M116.3,43.2c-2.8,1.6-6,2.5-9.2,2.5c-5.3,0-9.3-3.2-9.3-8.4s4.1-9,10.1-9c2.9,0,5.7,0.8,8.1,2.4l1.5-2.7
		c0.1-0.2,0-0.5-0.2-0.7c0,0,0,0,0,0c-1.4-0.6-4.9-2.4-11.6-2.4c-10.8,0-15.7,6-15.7,12.4s5,12.2,15.9,12.2c4,0,8-1.1,11.4-3.3
		c0.3-0.1,0.4-0.4,0.2-0.7c0,0,0,0,0,0L116.3,43.2z">
  </path>
  <path class="st0" d="M167.9,45.7c0-0.5-0.3-0.8-1-0.8h-1v2.6h0.4v-1.1h0.4l0.7,1.1h0.5l-0.7-1.2c0.4,0,0.7-0.2,0.7-0.6
		C167.9,45.8,167.9,45.8,167.9,45.7z M166.3,46.1v-0.8h0.5c0.3,0,0.6,0,0.6,0.3s-0.3,0.4-0.6,0.4L166.3,46.1z">
  </path>
  <path class="st0" d="M166.8,43.9c-1.3,0-2.4,1-2.4,2.3s1,2.4,2.3,2.4s2.4-1,2.4-2.3c0,0,0,0,0,0C169.2,45,168.2,43.9,166.8,43.9
		C166.9,43.9,166.8,43.9,166.8,43.9z M166.8,48.2c-1.1-0.2-1.8-1.2-1.6-2.3c0.1-0.8,0.8-1.5,1.6-1.6c1.1,0.2,1.8,1.2,1.6,2.3
		C168.3,47.4,167.6,48.1,166.8,48.2z">
  </path>
 </g>
</svg>