<svg width="120" height="38" fill="none" xmlns="http://www.w3.org/2000/svg"><path fill-rule="evenodd" clip-rule="evenodd" d="M95.733 12.692c-1.401 0-2.034.405-3.331 2.025v-.7c0-.846-.106-.956-.912-.956h-.666c-.806 0-.912.11-.912.957v13.36c0 .847.106.957.912.957h.666c.806 0 .912-.11.912-.957v-7.104c0-1.84.176-2.944.561-3.68.533-1.016 1.693-1.525 2.766-1.368.25.036.471.124.71.208.088.031.19.055.277.014a.59.59 0 0 0 .22-.195c.142-.192.234-.423.342-.636l.209-.416c.142-.294.246-.515.246-.625.034-.479-.912-.884-2-.884zM51.417 12.692c-1.402 0-2.034.405-3.331 2.025v-.7c0-.846-.105-.956-.912-.956h-.666c-.807 0-.912.11-.912.957v13.36c0 .847.105.957.912.957h.666c.807 0 .912-.11.912-.957v-7.104c0-1.84.175-2.944.56-3.68.533-1.016 1.693-1.525 2.766-1.368.25.036.472.124.71.208.087.031.19.055.278.014a.592.592 0 0 0 .218-.195c.143-.192.235-.423.343-.636l.21-.416c.14-.294.245-.515.245-.625.035-.479-.912-.884-1.999-.884zM58.63 21.967c0 1.435.14 2.209.456 2.871.49.957 1.578 1.546 2.84 1.546 1.227 0 2.315-.588 2.806-1.546.316-.662.456-1.436.456-2.871v-7.95c0-.847.105-.957.912-.957h.666c.807 0 .912.11.912.957v8.244c0 2.246-.35 3.46-1.332 4.601-1.053 1.252-2.631 1.914-4.42 1.914-1.824 0-3.4-.662-4.453-1.914-.982-1.14-1.333-2.355-1.333-4.6v-8.245c0-.847.105-.957.912-.957h.666c.807 0 .912.11.912.957v7.95zM74.076 20.68c0 3.386 2 5.705 4.876 5.705 2.77 0 4.769-2.43 4.769-5.78 0-3.09-2.07-5.484-4.804-5.484-2.841 0-4.841 2.283-4.841 5.558zm.176-5.448c1.437-1.73 2.981-2.503 5.085-2.503 3.998 0 6.944 3.35 6.944 7.95 0 4.675-2.981 8.097-7.014 8.097-2.034 0-3.647-.81-5.015-2.538v1.14c0 .847-.105.957-.912.957h-.666c-.807 0-.913-.11-.913-.957V2.46c0-.846.106-.956.913-.956h.666c.807 0 .912.11.912.956v12.772zM103.473 27.378c0 .847-.106.957-.912.957h-.667c-.807 0-.911-.11-.911-.957v-13.36c0-.847.104-.958.911-.958h.667c.806 0 .912.111.912.957v13.36zm.561-20.094c0 1.032-.807 1.88-1.789 1.88-.982 0-1.788-.848-1.788-1.917 0-.995.806-1.842 1.788-1.842s1.789.847 1.789 1.88zM115.448 13.502c.42-.442.42-.442 1.017-.442h1.087c.631 0 .877.185.877.59 0 .146-.141.367-.421.662l-5.016 5.264 6.348 7.508c.246.33.387.552.387.7 0 .367-.281.551-.913.551h-1.087c-.631 0-.631 0-1.017-.478l-5.471-6.479-.632.663v5.337c0 .847-.105.957-.911.957h-.666c-.807 0-.912-.11-.912-.957V2.46c0-.846.105-.956.912-.956h.666c.806 0 .911.11.911.956v16.232l4.841-5.19z" fill="#070F52"/><mask id="a" style="mask-type:alpha" maskUnits="userSpaceOnUse" x="11" y="1" width="12" height="12"><path fill-rule="evenodd" clip-rule="evenodd" d="M17.114 1.096a.747.747 0 0 0-.285.186l-4.755 4.985a.815.815 0 0 0 0 1.112l4.755 4.985a.729.729 0 0 0 1.062 0l4.753-4.985a.816.816 0 0 0 0-1.112l-4.753-4.985a.743.743 0 0 0-.283-.186h-.494z" fill="#fff"/></mask><g mask="url(#a)"><path fill-rule="evenodd" clip-rule="evenodd" d="M17.114 1.096a.747.747 0 0 0-.285.186l-4.755 4.985a.815.815 0 0 0 0 1.112l4.755 4.985a.729.729 0 0 0 1.062 0l4.753-4.985a.816.816 0 0 0 0-1.112l-4.753-4.985a.743.743 0 0 0-.283-.186h-.494z" fill="#070F52"/></g><mask id="b" style="mask-type:alpha" maskUnits="userSpaceOnUse" x="23" y="13" width="12" height="13"><path fill-rule="evenodd" clip-rule="evenodd" d="M28.685 13.714 23.93 18.7a.816.816 0 0 0 0 1.112l4.756 4.985a.728.728 0 0 0 1.06 0l4.754-4.985a.816.816 0 0 0 0-1.112l-4.753-4.985a.728.728 0 0 0-1.06 0z" fill="#fff"/></mask><g mask="url(#b)"><path fill-rule="evenodd" clip-rule="evenodd" d="M28.685 13.714 23.93 18.7a.816.816 0 0 0 0 1.112l4.756 4.985a.728.728 0 0 0 1.06 0l4.754-4.985a.816.816 0 0 0 0-1.112l-4.753-4.985a.728.728 0 0 0-1.06 0z" fill="#070F52"/></g><mask id="c" style="mask-type:alpha" maskUnits="userSpaceOnUse" x="8" y="32" width="4" height="5"><path fill-rule="evenodd" clip-rule="evenodd" d="m10.88 32.37-2.113 2.217c-.292.305-.233.724.13.928l1.82.904c.382.166.694-.053.694-.485v-3.333c0-.265-.09-.406-.226-.406-.086 0-.19.057-.305.175z" fill="#fff"/></mask><g mask="url(#c)"><path fill-rule="evenodd" clip-rule="evenodd" d="m10.88 32.37-2.113 2.217c-.292.305-.233.724.13.928l1.82.904c.382.166.694-.053.694-.485v-3.333c0-.265-.09-.406-.226-.406-.086 0-.19.057-.305.175z" fill="#070F52"/></g><mask id="d" style="mask-type:alpha" maskUnits="userSpaceOnUse" x="23" y="32" width="4" height="5"><path fill-rule="evenodd" clip-rule="evenodd" d="M23.306 32.601v3.333c0 .432.311.65.693.485l1.82-.904c.364-.204.423-.623.131-.928l-2.114-2.217c-.113-.118-.219-.175-.305-.175-.136 0-.225.141-.225.406z" fill="#fff"/></mask><g mask="url(#d)"><path fill-rule="evenodd" clip-rule="evenodd" d="M23.306 32.601v3.333c0 .432.311.65.693.485l1.82-.904c.364-.204.423-.623.131-.928l-2.114-2.217c-.113-.118-.219-.175-.305-.175-.136 0-.225.141-.225.406z" fill="#070F52"/></g><mask id="e" style="mask-type:alpha" maskUnits="userSpaceOnUse" x="23" y="25" width="7" height="7"><path fill-rule="evenodd" clip-rule="evenodd" d="M24.056 25.493c-.412 0-.75.353-.75.785v4.496c0 .432.338.787.75.787h4.285c.412 0 .75-.355.75-.787v-4.496c0-.432-.338-.785-.75-.785h-4.285z" fill="#fff"/></mask><g mask="url(#e)"><path fill-rule="evenodd" clip-rule="evenodd" d="M24.056 25.493c-.412 0-.75.353-.75.785v4.496c0 .432.338.787.75.787h4.285c.412 0 .75-.355.75-.787v-4.496c0-.432-.338-.785-.75-.785h-4.285z" fill="#070F52"/></g><mask id="f" style="mask-type:alpha" maskUnits="userSpaceOnUse" x="29" y="10" width="5" height="4"><path fill-rule="evenodd" clip-rule="evenodd" d="m31.978 10.246-2.113 2.218c-.292.307-.193.558.22.558h3.178c.412 0 .62-.328.462-.729l-.862-1.91c-.111-.219-.29-.332-.476-.332a.57.57 0 0 0-.409.195z" fill="#fff"/></mask><g mask="url(#f)"><path fill-rule="evenodd" clip-rule="evenodd" d="m31.978 10.246-2.113 2.218c-.292.307-.193.558.22.558h3.178c.412 0 .62-.328.462-.729l-.862-1.91c-.111-.219-.29-.332-.476-.332a.57.57 0 0 0-.409.195z" fill="#070F52"/></g><mask id="g" style="mask-type:alpha" maskUnits="userSpaceOnUse" x="23" y="2" width="4" height="5"><path fill-rule="evenodd" clip-rule="evenodd" d="M23.306 2.576V5.91c0 .433.238.537.53.23l2.114-2.216c.292-.305.232-.724-.13-.928l-1.821-.903a.614.614 0 0 0-.247-.056c-.26 0-.446.207-.446.54z" fill="#fff"/></mask><g mask="url(#g)"><path fill-rule="evenodd" clip-rule="evenodd" d="M23.306 2.576V5.91c0 .433.238.537.53.23l2.114-2.216c.292-.305.232-.724-.13-.928l-1.821-.903a.614.614 0 0 0-.247-.056c-.26 0-.446.207-.446.54z" fill="#070F52"/></g><mask id="h" style="mask-type:alpha" maskUnits="userSpaceOnUse" x="0" y="10" width="6" height="4"><path fill-rule="evenodd" clip-rule="evenodd" d="m1.853 10.382-.86 1.913c-.159.4.049.727.461.727h3.18c.412 0 .51-.25.219-.558l-2.114-2.218a.569.569 0 0 0-.41-.195c-.185 0-.364.113-.476.331z" fill="#fff"/></mask><g mask="url(#h)"><path fill-rule="evenodd" clip-rule="evenodd" d="m1.853 10.382-.86 1.913c-.159.4.049.727.461.727h3.18c.412 0 .51-.25.219-.558l-2.114-2.218a.569.569 0 0 0-.41-.195c-.185 0-.364.113-.476.331z" fill="#070F52"/></g><mask id="i" style="mask-type:alpha" maskUnits="userSpaceOnUse" x="5" y="6" width="7" height="8"><path fill-rule="evenodd" clip-rule="evenodd" d="M6.375 6.95c-.412 0-.75.354-.75.787v4.494c0 .433.338.787.75.787h4.286c.412 0 .75-.354.75-.787V7.737c0-.433-.338-.787-.75-.787H6.375z" fill="#fff"/></mask><g mask="url(#i)"><path fill-rule="evenodd" clip-rule="evenodd" d="M6.375 6.95c-.412 0-.75.354-.75.787v4.494c0 .433.338.787.75.787h4.286c.412 0 .75-.354.75-.787V7.737c0-.433-.338-.787-.75-.787H6.375z" fill="#070F52"/></g><mask id="j" style="mask-type:alpha" maskUnits="userSpaceOnUse" x="8" y="2" width="4" height="5"><path fill-rule="evenodd" clip-rule="evenodd" d="m10.717 2.092-1.82.903c-.363.204-.422.623-.13.928l2.114 2.217c.291.306.53.202.53-.23V2.575c0-.333-.186-.54-.447-.54a.62.62 0 0 0-.247.056z" fill="#fff"/></mask><g mask="url(#j)"><path fill-rule="evenodd" clip-rule="evenodd" d="m10.717 2.092-1.82.903c-.363.204-.422.623-.13.928l2.114 2.217c.291.306.53.202.53-.23V2.575c0-.333-.186-.54-.447-.54a.62.62 0 0 0-.247.056z" fill="#070F52"/></g><mask id="k" style="mask-type:alpha" maskUnits="userSpaceOnUse" x="29" y="25" width="5" height="4"><path fill-rule="evenodd" clip-rule="evenodd" d="M30.084 25.493c-.412 0-.51.25-.22.556l2.114 2.22c.292.306.69.243.885-.138l.862-1.912c.158-.399-.05-.726-.462-.726h-3.179z" fill="#fff"/></mask><g mask="url(#k)"><path fill-rule="evenodd" clip-rule="evenodd" d="M30.084 25.493c-.412 0-.51.25-.22.556l2.114 2.22c.292.306.69.243.885-.138l.862-1.912c.158-.399-.05-.726-.462-.726h-3.179z" fill="#070F52"/></g><mask id="l" style="mask-type:alpha" maskUnits="userSpaceOnUse" x="5" y="25" width="7" height="7"><path fill-rule="evenodd" clip-rule="evenodd" d="M6.375 25.493c-.412 0-.75.353-.75.785v4.496c0 .432.338.786.75.786h4.286c.412 0 .75-.354.75-.786v-4.496c0-.432-.338-.785-.75-.785H6.375z" fill="#fff"/></mask><g mask="url(#l)"><path fill-rule="evenodd" clip-rule="evenodd" d="M6.375 25.493c-.412 0-.75.353-.75.785v4.496c0 .432.338.786.75.786h4.286c.412 0 .75-.354.75-.786v-4.496c0-.432-.338-.785-.75-.785H6.375z" fill="#070F52"/></g><mask id="m" style="mask-type:alpha" maskUnits="userSpaceOnUse" x="0" y="25" width="6" height="4"><path fill-rule="evenodd" clip-rule="evenodd" d="M1.454 25.493c-.412 0-.62.326-.462.726l.861 1.912c.196.38.594.444.886.137l2.114-2.22c.292-.305.193-.555-.22-.555H1.454z" fill="#fff"/></mask><g mask="url(#m)"><path fill-rule="evenodd" clip-rule="evenodd" d="M1.454 25.493c-.412 0-.62.326-.462.726l.861 1.912c.196.38.594.444.886.137l2.114-2.22c.292-.305.193-.555-.22-.555H1.454z" fill="#070F52"/></g><mask id="n" style="mask-type:alpha" maskUnits="userSpaceOnUse" x="23" y="6" width="7" height="8"><path fill-rule="evenodd" clip-rule="evenodd" d="M24.056 6.95c-.412 0-.75.354-.75.787v4.494c0 .433.338.787.75.787h4.285c.412 0 .75-.354.75-.787V7.737c0-.433-.338-.787-.75-.787h-4.285z" fill="#fff"/></mask><g mask="url(#n)"><path fill-rule="evenodd" clip-rule="evenodd" d="M24.056 6.95c-.412 0-.75.354-.75.787v4.494c0 .433.338.787.75.787h4.285c.412 0 .75-.354.75-.787V7.737c0-.433-.338-.787-.75-.787h-4.285z" fill="#070F52"/></g><mask id="o" style="mask-type:alpha" maskUnits="userSpaceOnUse" x="11" y="25" width="12" height="13"><path fill-rule="evenodd" clip-rule="evenodd" d="m16.83 26.177-4.756 4.985a.815.815 0 0 0 0 1.112l4.755 4.984c.067.07.143.123.223.16h.617a.75.75 0 0 0 .222-.16l4.753-4.984a.817.817 0 0 0 0-1.112l-4.753-4.985a.73.73 0 0 0-1.061 0z" fill="#fff"/></mask><g mask="url(#o)"><path fill-rule="evenodd" clip-rule="evenodd" d="m16.83 26.177-4.756 4.985a.815.815 0 0 0 0 1.112l4.755 4.984c.067.07.143.123.223.16h.617a.75.75 0 0 0 .222-.16l4.753-4.984a.817.817 0 0 0 0-1.112l-4.753-4.985a.73.73 0 0 0-1.061 0z" fill="#070F52"/></g><mask id="p" style="mask-type:alpha" maskUnits="userSpaceOnUse" x="0" y="13" width="12" height="13"><path fill-rule="evenodd" clip-rule="evenodd" d="M4.975 13.714.22 18.7a.816.816 0 0 0 0 1.112l4.756 4.985a.728.728 0 0 0 1.061 0l4.753-4.985a.817.817 0 0 0 0-1.112l-4.753-4.985a.729.729 0 0 0-1.06 0z" fill="#fff"/></mask><g mask="url(#p)"><path fill-rule="evenodd" clip-rule="evenodd" d="M4.975 13.714.22 18.7a.816.816 0 0 0 0 1.112l4.756 4.985a.728.728 0 0 0 1.061 0l4.753-4.985a.817.817 0 0 0 0-1.112l-4.753-4.985a.729.729 0 0 0-1.06 0z" fill="#070F52"/></g></svg>