<?xml version="1.0" encoding="utf-8"?>
<!-- Generator: Adobe Illustrator 22.1.0, SVG Export Plug-In . SVG Version: 6.00 Build 0)  -->
<svg version="1.1" id="Logo" xmlns="http://www.w3.org/2000/svg" xmlns:xlink="http://www.w3.org/1999/xlink" x="0px" y="0px"
	 viewBox="0 0 200 56" style="enable-background:new 0 0 200 56;" xml:space="preserve">
<style type="text/css">
	.st0{fill:#FFFFFF;}
	.st1{fill:url(#SVGID_1_);}
	.st2{fill:url(#SVGID_2_);}
	.st3{opacity:0.5;}
</style>
<g>
	<g>
		<rect width="200" height="56"/>
		<g>
			<path class="st0" d="M89.323,31.362l0.03,0.092c-0.102,2.639-0.876,4.651-2.322,6.043c-1.446,1.39-3.544,2.085-6.292,2.085
				c-2.759,0-5.004-0.855-6.73-2.565c-1.728-1.709-2.59-3.93-2.59-6.658v-4.696c0-2.721,0.829-4.936,2.489-6.653
				c1.661-1.714,3.82-2.572,6.478-2.572c2.82,0,4.977,0.717,6.468,2.148c1.493,1.431,2.336,3.467,2.53,6.103l-0.031,0.093h-5.043
				c-0.071-1.462-0.396-2.55-0.973-3.26c-0.579-0.711-1.562-1.066-2.951-1.066c-1.176,0-2.101,0.476-2.775,1.429
				c-0.674,0.954-1.011,2.202-1.011,3.746v4.729c0,1.555,0.368,2.812,1.104,3.769c0.736,0.958,1.748,1.437,3.036,1.437
				c1.246,0,2.13-0.334,2.651-1.005c0.522-0.669,0.819-1.734,0.891-3.198H89.323z"/>
			<path class="st0" d="M29.131,33.275c0-0.793-0.261-1.406-0.781-1.839c-0.521-0.432-1.457-0.89-2.806-1.375
				c-2.82-0.896-4.91-1.855-6.269-2.882c-1.359-1.024-2.039-2.505-2.039-4.441c0-1.885,0.809-3.41,2.43-4.573
				c1.62-1.165,3.675-1.747,6.17-1.747c2.473,0,4.499,0.641,6.078,1.923c1.578,1.282,2.342,2.934,2.291,4.952l-0.031,0.093h-5.027
				c0-0.895-0.302-1.626-0.906-2.186c-0.603-0.561-1.435-0.842-2.499-0.842c-1.042,0-1.86,0.232-2.453,0.696
				c-0.593,0.464-0.888,1.035-0.888,1.715c0,0.66,0.298,1.188,0.896,1.585c0.599,0.396,1.719,0.893,3.364,1.491
				c2.535,0.762,4.444,1.699,5.726,2.811c1.282,1.112,1.923,2.643,1.923,4.589c0,1.977-0.763,3.525-2.291,4.643
				c-1.527,1.117-3.554,1.676-6.078,1.676c-2.535,0-4.726-0.641-6.575-1.923c-1.85-1.283-2.75-3.13-2.698-5.539l0.031-0.093h5.043
				c0,1.297,0.347,2.225,1.042,2.78c0.695,0.557,1.748,0.834,3.158,0.834c1.074,0,1.872-0.216,2.4-0.648
				C28.868,34.541,29.131,33.974,29.131,33.275"/>
			<polygon class="st0" points="35.521,16.567 35.521,21.016 41.629,21.016 41.629,39.37 46.266,39.37 46.266,21.016 52.337,21.016 
				52.337,16.567 			"/>
			<polygon class="st0" points="146.572,16.567 146.572,21.016 152.681,21.016 152.681,39.37 157.319,39.37 157.319,21.016 
				163.388,21.016 163.388,16.567 			"/>
			<polygon class="st0" points="178.734,16.567 178.734,25.728 171.192,25.728 171.192,16.567 166.593,16.567 166.593,39.37 
				171.192,39.37 171.192,30.173 178.734,30.173 178.734,39.37 183.333,39.37 183.333,16.567 			"/>
			<path class="st0" d="M117.719,31.549v7.815h-5.268V16.561h8.477c2.683,0,4.812,0.692,6.387,2.076
				c1.574,1.384,2.362,3.192,2.362,5.427c0,2.244-0.789,4.054-2.362,5.426c-1.575,1.374-3.704,2.06-6.387,2.06H117.719z
				 M117.719,27.478h3.209c1.14,0,2.007-0.315,2.603-0.947c0.596-0.631,0.894-1.443,0.894-2.434c0-1.014-0.298-1.843-0.894-2.492
				c-0.595-0.646-1.462-0.97-2.603-0.97h-3.209V27.478z"/>
			<path class="st0" d="M109.249,38.301c-2.66-3.08-6.816-7.855-8.989-10.408l8.989-10.445v-0.881h-1.418h-3.799
				c-2.413,2.851-4.79,5.589-7.203,8.436v-8.436h-4.6V39.37h4.6v-8.437l7.24,8.437h3.763h1.418V38.301z"/>
			<polygon class="st0" points="135.85,16.566 128.005,39.369 132.907,39.369 140.94,16.566 			"/>
			<polygon class="st0" points="58.19,16.566 50.346,39.369 55.248,39.369 63.281,16.566 			"/>
			<g>
				<linearGradient id="SVGID_1_" gradientUnits="userSpaceOnUse" x1="74.0073" y1="31.3441" x2="59.7862" y2="26.168">
					<stop  offset="0.0555" style="stop-color:#FFFFFF"/>
					<stop  offset="1" style="stop-color:#FFFFFF;stop-opacity:0.2"/>
				</linearGradient>
				<polygon class="st1" points="63.281,16.567 60.827,23.533 63.281,30.554 58.353,30.554 56.788,34.998 64.676,34.998 
					66.183,39.369 71.086,39.369 				"/>
			</g>
			<g>
				<linearGradient id="SVGID_2_" gradientUnits="userSpaceOnUse" x1="151.6667" y1="31.3441" x2="137.4456" y2="26.168">
					<stop  offset="0.0555" style="stop-color:#FFFFFF"/>
					<stop  offset="1" style="stop-color:#FFFFFF;stop-opacity:0.2"/>
				</linearGradient>
				<polygon class="st2" points="140.94,16.567 138.486,23.533 140.94,30.554 136.013,30.554 134.447,34.998 142.335,34.998 
					143.843,39.369 148.746,39.369 				"/>
			</g>
		</g>
	</g>
	<g class="st3">
		<path class="st0" d="M186.562,16.945h-0.696v1.895h-0.469v-1.895h-0.688v-0.379h1.853V16.945z"/>
		<path class="st0" d="M187.44,16.565l0.584,1.649l0.581-1.649h0.615v2.274h-0.47v-0.622l0.047-1.073l-0.614,1.695h-0.321
			l-0.612-1.693l0.047,1.072v0.622h-0.469v-2.274H187.44z"/>
	</g>
</g>
</svg>
