<svg version="1.1" id="rc-logo" xmlns="http://www.w3.org/2000/svg" xmlns:xlink="http://www.w3.org/1999/xlink" x="0px" y="0px" viewBox="0 0 210 60" style="enable-background:new 0 0 203.2 60.4;" xml:space="preserve"> <rect x="47.2" y="3" class="st9" fill="white" width="57" height="54"></rect><title></title> 
<polygon class="st2" fill="black" points="48.2,54.9 103.2,39.5 102.1,35.6 47.2,51 "></polygon> <polygon class="st2" fill="black" points="101.4,37.6 101.4,53.4 101.4,53.4 101.4,53.5 101.4,53.5 101.4,53.5 101.4,53.5 101.4,53.5 101.4,53.5 101.4,53.6 
 101.4,53.6 101.3,53.6 101.3,53.6 101.3,53.6 101.3,53.7 101.3,53.7 101.3,53.7 101.3,53.7 101.3,53.7 101.3,53.8 101.3,53.8 
 101.3,53.8 101.3,53.8 101.3,53.8 101.3,53.9 101.3,53.9 101.3,53.9 101.3,53.9 101.3,53.9 101.3,54 101.3,54 101.3,54 101.3,54 
 101.3,54 101.3,54 101.3,54.1 101.3,54.1 101.3,54.1 101.3,54.1 101.3,54.1 101.3,54.2 101.3,54.2 101.3,54.2 101.3,54.2 
 101.2,54.2 101.2,54.2 101.2,54.3 101.2,54.3 101.2,54.3 101.2,54.3 101.2,54.3 101.2,54.4 101.2,54.4 101.2,54.4 101.2,54.4 
 101.2,54.4 101.2,54.4 101.2,54.5 101.2,54.5 101.2,54.5 101.2,54.5 101.1,54.5 101.1,54.5 101.1,54.6 101.1,54.6 101.1,54.6 
 101.1,54.6 101.1,54.6 101.1,54.6 101.1,54.7 101.1,54.7 101.1,54.7 101.1,54.7 101.1,54.7 101,54.7 101,54.8 101,54.8 101,54.8 
 101,54.8 101,54.8 101,54.8 101,54.9 101,54.9 101,54.9 101,54.9 101,54.9 100.9,54.9 100.9,55 100.9,55 100.9,55 100.9,55 
 100.9,55 100.9,55 100.9,55.1 100.9,55.1 100.9,55.1 100.8,55.1 100.8,55.1 100.8,55.1 100.8,55.1 100.8,55.2 100.8,55.2 
 100.8,55.2 100.8,55.2 100.8,55.2 100.8,55.2 100.7,55.2 100.7,55.3 100.7,55.3 100.7,55.3 100.7,55.3 100.7,55.3 100.7,55.3 
 100.7,55.3 100.6,55.4 100.6,55.4 100.6,55.4 100.6,55.4 100.6,55.4 100.6,55.4 100.6,55.4 100.6,55.5 100.6,55.5 100.5,55.5 
 100.5,55.5 100.5,55.5 100.5,55.5 100.5,55.5 100.5,55.6 100.5,55.6 100.4,55.6 100.4,55.6 100.4,55.6 100.4,55.6 100.4,55.6 
 100.4,55.6 100.4,55.7 100.4,55.7 100.3,55.7 100.3,55.7 100.3,55.7 100.3,55.7 100.3,55.7 100.3,55.7 100.3,55.7 100.2,55.8 
 100.2,55.8 100.2,55.8 100.2,55.8 100.2,55.8 100.2,55.8 100.2,55.8 100.1,55.8 100.1,55.9 100.1,55.9 100.1,55.9 100.1,55.9 
 100.1,55.9 100.1,55.9 100,55.9 100,55.9 100,55.9 100,55.9 100,56 100,56 99.9,56 99.9,56 99.9,56 99.9,56 99.9,56 99.9,56 
 99.9,56 99.8,56 99.8,56.1 99.8,56.1 99.8,56.1 99.8,56.1 99.8,56.1 99.7,56.1 99.7,56.1 99.7,56.1 99.7,56.1 99.7,56.1 99.7,56.1 
 99.6,56.1 99.6,56.2 99.6,56.2 99.6,56.2 99.6,56.2 99.6,56.2 99.5,56.2 99.5,56.2 99.5,56.2 99.5,56.2 99.5,56.2 99.5,56.2 
 99.4,56.2 99.4,56.2 99.4,56.3 99.4,56.3 99.4,56.3 99.4,56.3 99.3,56.3 99.3,56.3 99.3,56.3 99.3,56.3 99.3,56.3 99.3,56.3 
 99.2,56.3 99.2,56.3 99.2,56.3 99.2,56.3 99.2,56.3 99.1,56.3 99.1,56.3 99.1,56.4 99.1,56.4 99.1,56.4 99.1,56.4 99,56.4 99,56.4 
 99,56.4 99,56.4 99,56.4 98.9,56.4 98.9,56.4 98.9,56.4 98.9,56.4 98.9,56.4 98.9,56.4 98.8,56.4 98.8,56.4 98.8,56.4 98.8,56.4 
 98.8,56.4 98.7,56.4 98.7,56.4 98.7,56.4 98.7,56.4 98.7,56.4 98.6,56.4 98.6,56.4 98.6,56.4 98.6,56.4 98.6,56.4 98.5,56.4 
 98.5,56.4 98.5,56.4 98.5,56.5 98.5,56.5 98.4,56.5 98.4,56.5 98.4,56.5 98.4,56.5 98.4,56.5 98.3,56.5 98.3,56.5 98.3,56.5 
 51.9,56.5 51.9,56.5 51.9,56.5 51.9,56.5 51.8,56.5 51.8,56.5 51.8,56.5 51.8,56.5 51.8,56.5 51.8,56.5 51.7,56.5 51.7,56.4 
 51.7,56.4 51.7,56.4 51.7,56.4 51.6,56.4 51.6,56.4 51.6,56.4 51.6,56.4 51.6,56.4 51.5,56.4 51.5,56.4 51.5,56.4 51.5,56.4 
 51.5,56.4 51.4,56.4 51.4,56.4 51.4,56.4 51.4,56.4 51.4,56.4 51.4,56.4 51.3,56.4 51.3,56.4 51.3,56.4 51.3,56.4 51.3,56.4 
 51.2,56.4 51.2,56.4 51.2,56.4 51.2,56.4 51.2,56.4 51.1,56.4 51.1,56.4 51.1,56.3 51.1,56.3 51.1,56.3 51.1,56.3 51,56.3 51,56.3 
 51,56.3 51,56.3 51,56.3 50.9,56.3 50.9,56.3 50.9,56.3 50.9,56.3 50.9,56.3 50.9,56.3 50.8,56.3 50.8,56.3 50.8,56.2 50.8,56.2 
 50.8,56.2 50.8,56.2 50.7,56.2 50.7,56.2 50.7,56.2 50.7,56.2 50.7,56.2 50.7,56.2 50.6,56.2 50.6,56.2 50.6,56.2 50.6,56.1 
 50.6,56.1 50.6,56.1 50.5,56.1 50.5,56.1 50.5,56.1 50.5,56.1 50.5,56.1 50.5,56.1 50.4,56.1 50.4,56.1 50.4,56.1 50.4,56 50.4,56 
 50.4,56 50.4,56 50.3,56 50.3,56 50.3,56 50.3,56 50.3,56 50.3,56 50.2,55.9 50.2,55.9 50.2,55.9 50.2,55.9 50.2,55.9 50.2,55.9 
 50.2,55.9 50.1,55.9 50.1,55.9 50.1,55.9 50.1,55.8 50.1,55.8 50.1,55.8 50,55.8 50,55.8 50,55.8 50,55.8 50,55.8 50,55.7 50,55.7 
 50,55.7 49.9,55.7 49.9,55.7 49.9,55.7 49.9,55.7 49.9,55.7 49.9,55.7 49.9,55.6 49.8,55.6 49.8,55.6 49.8,55.6 49.8,55.6 
 49.8,55.6 49.8,55.6 49.8,55.6 49.7,55.5 49.7,55.5 49.7,55.5 49.7,55.5 49.7,55.5 49.7,55.5 49.7,55.5 49.7,55.4 49.7,55.4 
 49.6,55.4 49.6,55.4 49.6,55.4 49.6,55.4 49.6,55.4 49.6,55.3 49.6,55.3 49.6,55.3 49.5,55.3 49.5,55.3 49.5,55.3 49.5,55.3 
 49.5,55.2 49.5,55.2 49.5,55.2 49.5,55.2 49.5,55.2 49.4,55.2 49.4,55.2 49.4,55.1 49.4,55.1 49.4,55.1 49.4,55.1 49.4,55.1 
 49.4,55.1 49.4,55.1 49.4,55 49.3,55 49.3,55 49.3,55 49.3,55 49.3,55 49.3,54.9 49.3,54.9 49.3,54.9 49.3,54.9 49.3,54.9 
 49.3,54.9 49.2,54.8 49.2,54.8 49.2,54.8 49.2,54.8 49.2,54.8 49.2,54.8 49.2,54.7 49.2,54.7 49.2,54.7 49.2,54.7 49.2,54.7 
 49.2,54.7 49.1,54.6 49.1,54.6 49.1,54.6 49.1,54.6 49.1,54.6 49.1,54.6 49.1,54.5 49.1,54.5 49.1,54.5 49.1,54.5 49.1,54.5 
 49.1,54.5 49.1,54.4 49.1,54.4 49,54.4 49,54.4 49,54.4 49,54.4 49,54.3 49,54.3 49,54.3 49,54.3 49,54.3 49,54.2 49,54.2 49,54.2 
 49,54.2 49,54.2 49,54.2 49,54.1 49,54.1 49,54.1 49,54.1 49,54.1 48.9,54 48.9,54 48.9,54 48.9,54 48.9,54 48.9,54 48.9,53.9 
 48.9,53.9 48.9,53.9 48.9,53.9 48.9,53.9 48.9,53.8 48.9,53.8 48.9,53.8 48.9,53.8 48.9,53.8 48.9,53.7 48.9,53.7 48.9,53.7 
 48.9,53.7 48.9,53.7 48.9,53.6 48.9,53.6 48.9,53.6 48.9,53.6 48.9,53.6 48.9,53.6 48.9,53.5 48.9,53.5 48.9,53.5 48.9,53.5 
 48.9,53.5 48.9,53.4 48.9,53.4 48.9,7 48.9,7 48.9,7 48.9,7 48.9,7 48.9,6.9 48.9,6.9 48.9,6.9 48.9,6.9 48.9,6.9 48.9,6.8 
 48.9,6.8 48.9,6.8 48.9,6.8 48.9,6.8 48.9,6.7 48.9,6.7 48.9,6.7 48.9,6.7 48.9,6.7 48.9,6.6 48.9,6.6 48.9,6.6 48.9,6.6 48.9,6.6 
 48.9,6.5 48.9,6.5 48.9,6.5 48.9,6.5 48.9,6.5 48.9,6.5 48.9,6.4 48.9,6.4 48.9,6.4 49,6.4 49,6.4 49,6.3 49,6.3 49,6.3 49,6.3 
 49,6.3 49,6.3 49,6.2 49,6.2 49,6.2 49,6.2 49,6.2 49,6.1 49,6.1 49,6.1 49,6.1 49,6.1 49,6.1 49,6 49.1,6 49.1,6 49.1,6 49.1,6 
 49.1,5.9 49.1,5.9 49.1,5.9 49.1,5.9 49.1,5.9 49.1,5.9 49.1,5.8 49.1,5.8 49.1,5.8 49.1,5.8 49.2,5.8 49.2,5.8 49.2,5.7 49.2,5.7 
 49.2,5.7 49.2,5.7 49.2,5.7 49.2,5.7 49.2,5.6 49.2,5.6 49.2,5.6 49.2,5.6 49.3,5.6 49.3,5.6 49.3,5.5 49.3,5.5 49.3,5.5 49.3,5.5 
 49.3,5.5 49.3,5.5 49.3,5.5 49.3,5.4 49.3,5.4 49.4,5.4 49.4,5.4 49.4,5.4 49.4,5.4 49.4,5.3 49.4,5.3 49.4,5.3 49.4,5.3 49.4,5.3 
 49.4,5.3 49.5,5.3 49.5,5.2 49.5,5.2 49.5,5.2 49.5,5.2 49.5,5.2 49.5,5.2 49.5,5.2 49.5,5.1 49.6,5.1 49.6,5.1 49.6,5.1 49.6,5.1 
 49.6,5.1 49.6,5.1 49.6,5 49.6,5 49.6,5 49.7,5 49.7,5 49.7,5 49.7,5 49.7,4.9 49.7,4.9 49.7,4.9 49.7,4.9 49.8,4.9 49.8,4.9 
 49.8,4.9 49.8,4.9 49.8,4.8 49.8,4.8 49.8,4.8 49.9,4.8 49.9,4.8 49.9,4.8 49.9,4.8 49.9,4.8 49.9,4.7 49.9,4.7 49.9,4.7 50,4.7 
 50,4.7 50,4.7 50,4.7 50,4.7 50,4.6 50,4.6 50.1,4.6 50.1,4.6 50.1,4.6 50.1,4.6 50.1,4.6 50.1,4.6 50.2,4.6 50.2,4.5 50.2,4.5 
 50.2,4.5 50.2,4.5 50.2,4.5 50.2,4.5 50.3,4.5 50.3,4.5 50.3,4.5 50.3,4.5 50.3,4.4 50.3,4.4 50.4,4.4 50.4,4.4 50.4,4.4 50.4,4.4 
 50.4,4.4 50.4,4.4 50.4,4.4 50.5,4.4 50.5,4.4 50.5,4.3 50.5,4.3 50.5,4.3 50.5,4.3 50.6,4.3 50.6,4.3 50.6,4.3 50.6,4.3 50.6,4.3 
 50.6,4.3 50.7,4.3 50.7,4.3 50.7,4.2 50.7,4.2 50.7,4.2 50.7,4.2 50.8,4.2 50.8,4.2 50.8,4.2 50.8,4.2 50.8,4.2 50.8,4.2 50.9,4.2 
 50.9,4.2 50.9,4.2 50.9,4.2 50.9,4.1 50.9,4.1 51,4.1 51,4.1 51,4.1 51,4.1 51,4.1 51.1,4.1 51.1,4.1 51.1,4.1 51.1,4.1 51.1,4.1 
 51.1,4.1 51.2,4.1 51.2,4.1 51.2,4.1 51.2,4.1 51.2,4.1 51.3,4.1 51.3,4.1 51.3,4.1 51.3,4 51.3,4 51.4,4 51.4,4 51.4,4 51.4,4 
 51.4,4 51.4,4 51.5,4 51.5,4 51.5,4 51.5,4 51.5,4 51.6,4 51.6,4 51.6,4 51.6,4 51.6,4 51.7,4 51.7,4 51.7,4 51.7,4 51.7,4 51.8,4 
 51.8,4 51.8,4 51.8,4 51.8,4 51.8,4 51.9,4 51.9,4 51.9,4 51.9,4 98.3,4 98.3,4 98.3,4 98.4,4 98.4,4 98.4,4 98.4,4 98.4,4 98.5,4 
 98.5,4 98.5,4 98.5,4 98.5,4 98.6,4 98.6,4 98.6,4 98.6,4 98.6,4 98.7,4 98.7,4 98.7,4 98.7,4 98.7,4 98.8,4 98.8,4 98.8,4 98.8,4 
 98.8,4 98.9,4 98.9,4 98.9,4 98.9,4 98.9,4 98.9,4.1 99,4.1 99,4.1 99,4.1 99,4.1 99,4.1 99.1,4.1 99.1,4.1 99.1,4.1 99.1,4.1 
 99.1,4.1 99.1,4.1 99.2,4.1 99.2,4.1 99.2,4.1 99.2,4.1 99.2,4.1 99.3,4.1 99.3,4.1 99.3,4.1 99.3,4.1 99.3,4.2 99.3,4.2 99.4,4.2 
 99.4,4.2 99.4,4.2 99.4,4.2 99.4,4.2 99.4,4.2 99.5,4.2 99.5,4.2 99.5,4.2 99.5,4.2 99.5,4.2 99.5,4.2 99.6,4.3 99.6,4.3 99.6,4.3 
 99.6,4.3 99.6,4.3 99.6,4.3 99.7,4.3 99.7,4.3 99.7,4.3 99.7,4.3 99.7,4.3 99.7,4.3 99.8,4.4 99.8,4.4 99.8,4.4 99.8,4.4 99.8,4.4 
 99.8,4.4 99.9,4.4 99.9,4.4 99.9,4.4 99.9,4.4 99.9,4.4 99.9,4.5 99.9,4.5 100,4.5 100,4.5 100,4.5 100,4.5 100,4.5 100,4.5 
 100.1,4.5 100.1,4.5 100.1,4.6 100.1,4.6 100.1,4.6 100.1,4.6 100.1,4.6 100.2,4.6 100.2,4.6 100.2,4.6 100.2,4.6 100.2,4.7 
 100.2,4.7 100.2,4.7 100.3,4.7 100.3,4.7 100.3,4.7 100.3,4.7 100.3,4.7 100.3,4.8 100.3,4.8 100.4,4.8 100.4,4.8 100.4,4.8 
 100.4,4.8 100.4,4.8 100.4,4.8 100.4,4.8 100.4,4.9 100.5,4.9 100.5,4.9 100.5,4.9 100.5,4.9 100.5,4.9 100.5,4.9 100.5,5 100.6,5 
 100.6,5 100.6,5 100.6,5 100.6,5 100.6,5 100.6,5.1 100.6,5.1 100.6,5.1 100.7,5.1 100.7,5.1 100.7,5.1 100.7,5.1 100.7,5.2 
 100.7,5.2 100.7,5.2 100.7,5.2 100.8,5.2 100.8,5.2 100.8,5.2 100.8,5.3 100.8,5.3 100.8,5.3 100.8,5.3 100.8,5.3 100.8,5.3 
 100.8,5.3 100.9,5.4 100.9,5.4 100.9,5.4 100.9,5.4 100.9,5.4 100.9,5.4 100.9,5.5 100.9,5.5 100.9,5.5 100.9,5.5 101,5.5 101,5.5 
 101,5.5 101,5.6 101,5.6 101,5.6 101,5.6 101,5.6 101,5.6 101,5.7 101,5.7 101,5.7 101.1,5.7 101.1,5.7 101.1,5.7 101.1,5.8 
 101.1,5.8 101.1,5.8 101.1,5.8 101.1,5.8 101.1,5.8 101.1,5.9 101.1,5.9 101.1,5.9 101.1,5.9 101.2,5.9 101.2,5.9 101.2,6 101.2,6 
 101.2,6 101.2,6 101.2,6 101.2,6.1 101.2,6.1 101.2,6.1 101.2,6.1 101.2,6.1 101.2,6.1 101.2,6.2 101.2,6.2 101.2,6.2 101.2,6.2 
 101.3,6.2 101.3,6.2 101.3,6.3 101.3,6.3 101.3,6.3 101.3,6.3 101.3,6.3 101.3,6.4 101.3,6.4 101.3,6.4 101.3,6.4 101.3,6.4 
 101.3,6.4 101.3,6.5 101.3,6.5 101.3,6.5 101.3,6.5 101.3,6.5 101.3,6.6 101.3,6.6 101.3,6.6 101.3,6.6 101.3,6.6 101.3,6.7 
 101.3,6.7 101.3,6.7 101.3,6.7 101.3,6.7 101.3,6.8 101.3,6.8 101.3,6.8 101.3,6.8 101.3,6.8 101.4,6.9 101.4,6.9 101.4,6.9 
 101.4,6.9 101.4,6.9 101.4,6.9 101.4,7 101.4,7 101.4,7 101.4,7 101.4,38.1 105.3,38.1 105.3,7 105.3,7 105.3,6.9 105.3,6.9 
 105.3,6.8 105.3,6.8 105.3,6.8 105.3,6.7 105.3,6.7 105.3,6.6 105.3,6.6 105.3,6.5 105.3,6.5 105.3,6.4 105.3,6.4 105.3,6.4 
 105.3,6.3 105.3,6.3 105.3,6.2 105.3,6.2 105.3,6.1 105.3,6.1 105.3,6 105.3,6 105.3,6 105.3,5.9 105.2,5.9 105.2,5.8 105.2,5.8 
 105.2,5.7 105.2,5.7 105.2,5.7 105.2,5.6 105.2,5.6 105.2,5.5 105.2,5.5 105.2,5.4 105.1,5.4 105.1,5.4 105.1,5.3 105.1,5.3 
 105.1,5.2 105.1,5.2 105.1,5.1 105.1,5.1 105.1,5.1 105,5 105,5 105,4.9 105,4.9 105,4.9 105,4.8 105,4.8 105,4.7 104.9,4.7 
 104.9,4.7 104.9,4.6 104.9,4.6 104.9,4.5 104.9,4.5 104.9,4.5 104.8,4.4 104.8,4.4 104.8,4.3 104.8,4.3 104.8,4.3 104.8,4.2 
 104.7,4.2 104.7,4.1 104.7,4.1 104.7,4.1 104.7,4 104.6,4 104.6,3.9 104.6,3.9 104.6,3.9 104.6,3.8 104.6,3.8 104.5,3.8 104.5,3.7 
 104.5,3.7 104.5,3.6 104.4,3.6 104.4,3.6 104.4,3.5 104.4,3.5 104.4,3.5 104.3,3.4 104.3,3.4 104.3,3.3 104.3,3.3 104.3,3.3 
 104.2,3.2 104.2,3.2 104.2,3.2 104.2,3.1 104.1,3.1 104.1,3.1 104.1,3 104.1,3 104,3 104,2.9 104,2.9 104,2.9 103.9,2.8 103.9,2.8 
 103.9,2.8 103.9,2.7 103.8,2.7 103.8,2.7 103.8,2.6 103.8,2.6 103.7,2.6 103.7,2.5 103.7,2.5 103.7,2.5 103.6,2.4 103.6,2.4 
 103.6,2.4 103.5,2.3 103.5,2.3 103.5,2.3 103.5,2.2 103.4,2.2 103.4,2.2 103.4,2.1 103.3,2.1 103.3,2.1 103.3,2.1 103.2,2 103.2,2 
 103.2,2 103.2,1.9 103.1,1.9 103.1,1.9 103.1,1.9 103,1.8 103,1.8 103,1.8 102.9,1.7 102.9,1.7 102.9,1.7 102.8,1.7 102.8,1.6 
 102.8,1.6 102.7,1.6 102.7,1.6 102.7,1.5 102.7,1.5 102.6,1.5 102.6,1.4 102.5,1.4 102.5,1.4 102.5,1.4 102.4,1.3 102.4,1.3 
 102.4,1.3 102.3,1.3 102.3,1.2 102.3,1.2 102.2,1.2 102.2,1.2 102.2,1.2 102.1,1.1 102.1,1.1 102.1,1.1 102,1.1 102,1 102,1 
 101.9,1 101.9,1 101.8,1 101.8,0.9 101.8,0.9 101.7,0.9 101.7,0.9 101.7,0.9 101.6,0.8 101.6,0.8 101.5,0.8 101.5,0.8 101.5,0.8 
 101.4,0.7 101.4,0.7 101.4,0.7 101.3,0.7 101.3,0.7 101.2,0.6 101.2,0.6 101.2,0.6 101.1,0.6 101.1,0.6 101,0.6 101,0.5 101,0.5 
 100.9,0.5 100.9,0.5 100.8,0.5 100.8,0.5 100.8,0.4 100.7,0.4 100.7,0.4 100.6,0.4 100.6,0.4 100.6,0.4 100.5,0.4 100.5,0.3 
 100.4,0.3 100.4,0.3 100.4,0.3 100.3,0.3 100.3,0.3 100.2,0.3 100.2,0.3 100.1,0.2 100.1,0.2 100.1,0.2 100,0.2 100,0.2 99.9,0.2 
 99.9,0.2 99.9,0.2 99.8,0.2 99.8,0.2 99.7,0.1 99.7,0.1 99.6,0.1 99.6,0.1 99.6,0.1 99.5,0.1 99.5,0.1 99.4,0.1 99.4,0.1 99.3,0.1 
 99.3,0.1 99.2,0.1 99.2,0.1 99.2,0.1 99.1,0 99.1,0 99,0 99,0 98.9,0 98.9,0 98.8,0 98.8,0 98.8,0 98.7,0 98.7,0 98.6,0 98.6,0 
 98.5,0 98.5,0 98.4,0 98.4,0 98.4,0 51.9,0 51.8,0 51.8,0 51.7,0 51.7,0 51.7,0 51.6,0 51.6,0 51.5,0 51.5,0 51.4,0 51.4,0 51.3,0 
 51.3,0 51.3,0 51.2,0 51.2,0 51.1,0 51.1,0.1 51,0.1 51,0.1 50.9,0.1 50.9,0.1 50.9,0.1 50.8,0.1 50.8,0.1 50.7,0.1 50.7,0.1 
 50.6,0.1 50.6,0.1 50.6,0.1 50.5,0.1 50.5,0.2 50.4,0.2 50.4,0.2 50.3,0.2 50.3,0.2 50.3,0.2 50.2,0.2 50.2,0.2 50.1,0.2 50.1,0.2 
 50,0.3 50,0.3 50,0.3 49.9,0.3 49.9,0.3 49.8,0.3 49.8,0.3 49.8,0.3 49.7,0.4 49.7,0.4 49.6,0.4 49.6,0.4 49.6,0.4 49.5,0.4 
 49.5,0.4 49.4,0.5 49.4,0.5 49.4,0.5 49.3,0.5 49.3,0.5 49.2,0.5 49.2,0.6 49.2,0.6 49.1,0.6 49.1,0.6 49,0.6 49,0.6 49,0.7 
 48.9,0.7 48.9,0.7 48.8,0.7 48.8,0.7 48.8,0.8 48.7,0.8 48.7,0.8 48.7,0.8 48.6,0.8 48.6,0.8 48.5,0.9 48.5,0.9 48.5,0.9 48.4,0.9 
 48.4,1 48.4,1 48.3,1 48.3,1 48.2,1 48.2,1.1 48.2,1.1 48.1,1.1 48.1,1.1 48.1,1.2 48,1.2 48,1.2 48,1.2 47.9,1.2 47.9,1.3 
 47.9,1.3 47.8,1.3 47.8,1.3 47.8,1.4 47.7,1.4 47.7,1.4 47.7,1.4 47.6,1.5 47.6,1.5 47.6,1.5 47.5,1.6 47.5,1.6 47.5,1.6 47.4,1.6 
 47.4,1.7 47.4,1.7 47.3,1.7 47.3,1.7 47.3,1.8 47.2,1.8 47.2,1.8 47.2,1.9 47.1,1.9 47.1,1.9 47.1,1.9 47,2 47,2 47,2 47,2.1 
 46.9,2.1 46.9,2.1 46.9,2.1 46.8,2.2 46.8,2.2 46.8,2.2 46.8,2.3 46.7,2.3 46.7,2.3 46.7,2.4 46.6,2.4 46.6,2.4 46.6,2.5 46.6,2.5 
 46.5,2.5 46.5,2.6 46.5,2.6 46.5,2.6 46.4,2.7 46.4,2.7 46.4,2.7 46.3,2.8 46.3,2.8 46.3,2.8 46.3,2.9 46.2,2.9 46.2,2.9 46.2,3 
 46.2,3 46.2,3 46.1,3.1 46.1,3.1 46.1,3.1 46.1,3.2 46,3.2 46,3.2 46,3.3 46,3.3 45.9,3.3 45.9,3.4 45.9,3.4 45.9,3.5 45.9,3.5 
 45.8,3.5 45.8,3.6 45.8,3.6 45.8,3.6 45.7,3.7 45.7,3.7 45.7,3.8 45.7,3.8 45.7,3.8 45.7,3.9 45.6,3.9 45.6,3.9 45.6,4 45.6,4 
 45.6,4.1 45.5,4.1 45.5,4.1 45.5,4.2 45.5,4.2 45.5,4.3 45.5,4.3 45.4,4.3 45.4,4.4 45.4,4.4 45.4,4.5 45.4,4.5 45.4,4.5 45.3,4.6 
 45.3,4.6 45.3,4.7 45.3,4.7 45.3,4.7 45.3,4.8 45.3,4.8 45.2,4.9 45.2,4.9 45.2,4.9 45.2,5 45.2,5 45.2,5.1 45.2,5.1 45.2,5.1 
 45.1,5.2 45.1,5.2 45.1,5.3 45.1,5.3 45.1,5.4 45.1,5.4 45.1,5.4 45.1,5.5 45.1,5.5 45.1,5.6 45,5.6 45,5.7 45,5.7 45,5.7 45,5.8 
 45,5.8 45,5.9 45,5.9 45,6 45,6 45,6 45,6.1 45,6.1 44.9,6.2 44.9,6.2 44.9,6.3 44.9,6.3 44.9,6.4 44.9,6.4 44.9,6.4 44.9,6.5 
 44.9,6.5 44.9,6.6 44.9,6.6 44.9,6.7 44.9,6.7 44.9,6.8 44.9,6.8 44.9,6.8 44.9,6.9 44.9,6.9 44.9,7 44.9,7 44.9,53.4 44.9,53.5 
 44.9,53.5 44.9,53.5 44.9,53.6 44.9,53.6 44.9,53.7 44.9,53.7 44.9,53.8 44.9,53.8 44.9,53.9 44.9,53.9 44.9,53.9 44.9,54 44.9,54 
 44.9,54.1 44.9,54.1 44.9,54.2 44.9,54.2 44.9,54.3 45,54.3 45,54.3 45,54.4 45,54.4 45,54.5 45,54.5 45,54.6 45,54.6 45,54.7 
 45,54.7 45,54.7 45,54.8 45,54.8 45,54.9 45.1,54.9 45.1,55 45.1,55 45.1,55 45.1,55.1 45.1,55.1 45.1,55.2 45.1,55.2 45.1,55.3 
 45.2,55.3 45.2,55.3 45.2,55.4 45.2,55.4 45.2,55.5 45.2,55.5 45.2,55.5 45.2,55.6 45.3,55.6 45.3,55.7 45.3,55.7 45.3,55.7 
 45.3,55.8 45.3,55.8 45.3,55.9 45.4,55.9 45.4,55.9 45.4,56 45.4,56 45.4,56.1 45.4,56.1 45.5,56.1 45.5,56.2 45.5,56.2 45.5,56.3 
 45.5,56.3 45.5,56.3 45.6,56.4 45.6,56.4 45.6,56.5 45.6,56.5 45.6,56.5 45.7,56.6 45.7,56.6 45.7,56.7 45.7,56.7 45.7,56.7 
 45.7,56.8 45.8,56.8 45.8,56.8 45.8,56.9 45.8,56.9 45.9,56.9 45.9,57 45.9,57 45.9,57.1 45.9,57.1 46,57.1 46,57.2 46,57.2 
 46,57.2 46.1,57.3 46.1,57.3 46.1,57.3 46.1,57.4 46.2,57.4 46.2,57.4 46.2,57.5 46.2,57.5 46.2,57.6 46.3,57.6 46.3,57.6 
 46.3,57.7 46.3,57.7 46.4,57.7 46.4,57.8 46.4,57.8 46.5,57.8 46.5,57.9 46.5,57.9 46.5,57.9 46.6,57.9 46.6,58 46.6,58 46.6,58 
 46.7,58.1 46.7,58.1 46.7,58.1 46.8,58.2 46.8,58.2 46.8,58.2 46.8,58.3 46.9,58.3 46.9,58.3 46.9,58.4 47,58.4 47,58.4 47,58.4 
 47,58.5 47.1,58.5 47.1,58.5 47.1,58.6 47.2,58.6 47.2,58.6 47.2,58.6 47.3,58.7 47.3,58.7 47.3,58.7 47.4,58.8 47.4,58.8 
 47.4,58.8 47.5,58.8 47.5,58.9 47.5,58.9 47.6,58.9 47.6,58.9 47.6,59 47.7,59 47.7,59 47.7,59 47.8,59.1 47.8,59.1 47.8,59.1 
 47.9,59.1 47.9,59.2 47.9,59.2 48,59.2 48,59.2 48,59.3 48.1,59.3 48.1,59.3 48.1,59.3 48.2,59.4 48.2,59.4 48.2,59.4 48.3,59.4 
 48.3,59.4 48.4,59.5 48.4,59.5 48.4,59.5 48.5,59.5 48.5,59.5 48.5,59.6 48.6,59.6 48.6,59.6 48.7,59.6 48.7,59.7 48.7,59.7 
 48.8,59.7 48.8,59.7 48.8,59.7 48.9,59.7 48.9,59.8 49,59.8 49,59.8 49,59.8 49.1,59.8 49.1,59.9 49.2,59.9 49.2,59.9 49.2,59.9 
 49.3,59.9 49.3,59.9 49.4,60 49.4,60 49.4,60 49.5,60 49.5,60 49.6,60 49.6,60 49.6,60.1 49.7,60.1 49.7,60.1 49.8,60.1 49.8,60.1 
 49.8,60.1 49.9,60.1 49.9,60.2 50,60.2 50,60.2 50,60.2 50.1,60.2 50.1,60.2 50.2,60.2 50.2,60.2 50.3,60.2 50.3,60.3 50.3,60.3 
 50.4,60.3 50.4,60.3 50.5,60.3 50.5,60.3 50.6,60.3 50.6,60.3 50.6,60.3 50.7,60.3 50.7,60.3 50.8,60.3 50.8,60.4 50.9,60.4 
 50.9,60.4 50.9,60.4 51,60.4 51,60.4 51.1,60.4 51.1,60.4 51.2,60.4 51.2,60.4 51.3,60.4 51.3,60.4 51.3,60.4 51.4,60.4 51.4,60.4 
 51.5,60.4 51.5,60.4 51.6,60.4 51.6,60.4 51.7,60.4 51.7,60.4 51.7,60.4 51.8,60.4 51.8,60.4 51.9,60.4 51.9,60.4 98.3,60.4 
 98.4,60.4 98.4,60.4 98.4,60.4 98.5,60.4 98.5,60.4 98.6,60.4 98.6,60.4 98.7,60.4 98.7,60.4 98.8,60.4 98.8,60.4 98.8,60.4 
 98.9,60.4 98.9,60.4 99,60.4 99,60.4 99.1,60.4 99.1,60.4 99.2,60.4 99.2,60.4 99.2,60.4 99.3,60.4 99.3,60.4 99.4,60.4 99.4,60.4 
 99.5,60.3 99.5,60.3 99.6,60.3 99.6,60.3 99.6,60.3 99.7,60.3 99.7,60.3 99.8,60.3 99.8,60.3 99.9,60.3 99.9,60.3 99.9,60.3 
 100,60.2 100,60.2 100.1,60.2 100.1,60.2 100.1,60.2 100.2,60.2 100.2,60.2 100.3,60.2 100.3,60.2 100.4,60.1 100.4,60.1 
 100.4,60.1 100.5,60.1 100.5,60.1 100.6,60.1 100.6,60.1 100.6,60 100.7,60 100.7,60 100.8,60 100.8,60 100.8,60 100.9,60 
 100.9,59.9 101,59.9 101,59.9 101,59.9 101.1,59.9 101.1,59.9 101.2,59.8 101.2,59.8 101.2,59.8 101.3,59.8 101.3,59.8 101.4,59.7 
 101.4,59.7 101.4,59.7 101.5,59.7 101.5,59.7 101.5,59.7 101.6,59.6 101.6,59.6 101.7,59.6 101.7,59.6 101.7,59.5 101.8,59.5 
 101.8,59.5 101.8,59.5 101.9,59.5 101.9,59.4 102,59.4 102,59.4 102,59.4 102.1,59.4 102.1,59.3 102.1,59.3 102.2,59.3 102.2,59.3 
 102.2,59.2 102.3,59.2 102.3,59.2 102.3,59.2 102.4,59.1 102.4,59.1 102.4,59.1 102.5,59.1 102.5,59 102.5,59 102.6,59 102.6,59 
 102.7,58.9 102.7,58.9 102.7,58.9 102.7,58.9 102.8,58.8 102.8,58.8 102.8,58.8 102.9,58.8 102.9,58.7 102.9,58.7 103,58.7 
 103,58.6 103,58.6 103.1,58.6 103.1,58.6 103.1,58.5 103.2,58.5 103.2,58.5 103.2,58.4 103.3,58.4 103.3,58.4 103.3,58.4 
 103.3,58.3 103.4,58.3 103.4,58.3 103.4,58.2 103.5,58.2 103.5,58.2 103.5,58.1 103.5,58.1 103.6,58.1 103.6,58 103.6,58 103.7,58 
 103.7,57.9 103.7,57.9 103.7,57.9 103.8,57.9 103.8,57.8 103.8,57.8 103.8,57.8 103.9,57.7 103.9,57.7 103.9,57.7 103.9,57.6 
 104,57.6 104,57.6 104,57.5 104,57.5 104.1,57.4 104.1,57.4 104.1,57.4 104.1,57.3 104.2,57.3 104.2,57.3 104.2,57.2 104.2,57.2 
 104.3,57.2 104.3,57.1 104.3,57.1 104.3,57.1 104.3,57 104.4,57 104.4,56.9 104.4,56.9 104.4,56.9 104.4,56.8 104.5,56.8 
 104.5,56.8 104.5,56.7 104.5,56.7 104.6,56.7 104.6,56.6 104.6,56.6 104.6,56.5 104.6,56.5 104.6,56.5 104.7,56.4 104.7,56.4 
 104.7,56.3 104.7,56.3 104.7,56.3 104.8,56.2 104.8,56.2 104.8,56.1 104.8,56.1 104.8,56.1 104.8,56 104.9,56 104.9,56 104.9,55.9 
 104.9,55.9 104.9,55.8 104.9,55.8 104.9,55.7 105,55.7 105,55.7 105,55.6 105,55.6 105,55.5 105,55.5 105,55.5 105,55.4 105.1,55.4 
 105.1,55.3 105.1,55.3 105.1,55.3 105.1,55.2 105.1,55.2 105.1,55.1 105.1,55.1 105.1,55 105.2,55 105.2,55 105.2,54.9 105.2,54.9 
 105.2,54.8 105.2,54.8 105.2,54.7 105.2,54.7 105.2,54.7 105.2,54.6 105.2,54.6 105.3,54.5 105.3,54.5 105.3,54.4 105.3,54.4 
 105.3,54.3 105.3,54.3 105.3,54.3 105.3,54.2 105.3,54.2 105.3,54.1 105.3,54.1 105.3,54 105.3,54 105.3,54 105.3,53.9 105.3,53.9 
 105.3,53.8 105.3,53.8 105.3,53.7 105.3,53.7 105.3,53.6 105.3,53.6 105.3,53.5 105.3,53.5 105.3,53.5 105.3,53.4 105.3,37.7 "></polygon> <path fill= "#ce222e" class="st0" d="M54,11.8c0.7-0.9,2.3-1.8,3.3-2.2c6.9-5.1,10.2-0.2,14.9,5.5c8.4,5.4,11.6,14.4,15.6,24.6c2.7,2.9,3.3,4.2,6,7.1
 c-0.3,0.2-0.8,0.1-1.3-0.1c1.4,1.5,2.9,3.7,3.6,5.5c-1-0.2-2-1-2.9-1.9c0.9,2,1.9,4.6,1.4,5.3c-0.4,0.2-0.9-0.3-1.3-1
 c0,0.6-0.1,1.2-0.2,1.6c-0.6,0-0.9-0.4-1.2-1.3c-2.3-6.7-7.6-11.5-12.1-14.7c0,0.8,0,1.7,0.3,2.8c0,0.6,0.3,2.1-0.2,2.4
 c0-0.9-0.5-2.5-1-3.3c-0.5,1.2-1.3,4.6-2,4.3c-0.2,0.5-0.4,1.3-0.2,1.9c-0.4-0.3-0.5-1.5-0.2-2.1c-0.3-0.1,0.9-2.1,0.7-2.9
 c-0.5,0.8-0.6,1-1,1.5c0-0.8,0.5-2.1,1-2.7c0.9-0.6,1.6-1.4,1.9-2.3c-0.4-0.3-0.7-0.5-1.1-0.7c-2.1,0.2-4.7,0-7-0.7
 c0.2,0.6,0.1,1.3-1.2,2.1c-1.2,1.2-2.1,2.4-3.1,4c0,0.1-0.1,0.2-0.1,0.5c0.1,0.7,0.4,3.6,0.5,4.3c-0.3-0.7-0.9-2.5-1.1-3.2
 c-0.8,1-1.3,2.6-1.7,3.9c-0.1,0.2-0.3,0.2-0.5,0.2c-0.2,0.6-0.3,1.4-0.2,1.9c-0.3-0.6-0.5-1.6-0.3-2.2c0,0,0-0.2,0-0.3
 c0.2-0.8,0.6-1.8,0.9-2.6c-0.5,0.3-0.8,0.8-1,1.6c-0.3-0.9,0.2-2.5,1.2-3.2c1.9-1.5,3.1-3.6,4.4-5.5c-0.3-0.8-0.4-1.7-0.5-2.6
 c-0.3-0.1-0.6-0.3-0.8-0.5c-5.9-4.7-8.4-9.8-8.8-19.7c-1-0.8-1.8-2.2-1.7-3.6C56.5,13,54.8,12.4,54,11.8"></path> <path class="st1" d="M8.8,29.5c-1.7,0-3.3,0-4.9,0.2v10.1H0V26.5c2.5-0.5,6.2-0.9,8.8-0.9V29.5z"></path> <path class="st1" d="M23.8,31.5c0,1.3-0.1,1.6-0.3,2.8H14c0.5,1.5,1.9,2.4,3.9,2.4c1.1,0,2.5-0.2,4.9-0.7l0.5,3.1c-2.1,0.7-4,1.1-5.5,1.1
 c-5.3,0-8-3.2-8-7.3c0-4.4,3.1-7.3,7.2-7.3C20.9,25.5,23.8,27.9,23.8,31.5 M13.8,31.5h6.5c-0.1-1.7-1.4-2.8-3.2-2.8
 C15.3,28.6,14.2,29.7,13.8,31.5"></path> <path class="st1" d="M40.4,39.5C36,40,34.3,40,32.3,40c-3.7,0-6.6-2.5-6.6-7.3c0-4.3,2.4-7.2,7.2-7.2c1.1,0,2.6,0.1,3.5,0.3v-6.5h4
 C40.4,19.3,40.4,39.5,40.4,39.5z M29.6,32.7c0,2.5,1.1,4.1,3.6,4.1c0.5,0,1.5-0.1,3.2-0.2v-7.4c-1-0.2-2.2-0.3-3-0.3
 C30.5,28.9,29.6,30.5,29.6,32.7"></path> <path class="st1" d="M120.9,29.3c-1.6-0.3-2.9-0.6-3.9-0.6c-2.7,0-4.3,1.7-4.3,4c0,2.4,1.7,4,4.1,4c0.9,0,2.5-0.2,4.1-0.6l0.5,3.1
 c-1.5,0.5-3.4,0.9-4.9,0.9c-4.5,0-7.8-2.9-7.8-7.4s3.2-7.3,7.9-7.3c1.3,0,3.2,0.3,4.8,0.8L120.9,29.3z"></path> <path class="st1" d="M137.4,26.2v13.5h-4v-1c-1.1,0.9-2.5,1.4-4.1,1.4c-3.8,0-6.6-2.8-6.6-7.4c0.1-4.3,2.5-7.2,6.9-7.2
 C132.5,25.6,134.1,25.8,137.4,26.2 M126.6,32.9c0,2.3,1.3,3.9,3.3,3.9c1.1,0,2.3-0.4,3.5-1.3V29c-0.9-0.1-1.9-0.2-3.2-0.2
 C127.6,28.9,126.6,30.6,126.6,32.9"></path> <path class="st1" d="M155,30.8v8.9h-4V32c0-1.7-1.1-2.8-2.7-2.8c-1,0-2.1,0.1-3.2,0.2v10.3h-4V26.2c1.8-0.3,5.5-0.7,8.2-0.7
 C152.7,25.6,155,27.7,155,30.8"></path> <path class="st1" d="M172.1,26.2v13.5h-4v-1c-1.1,0.9-2.5,1.4-4.1,1.4c-3.8,0-6.6-2.8-6.6-7.4c0.1-4.3,2.5-7.2,6.9-7.2
 C167.2,25.6,168.8,25.8,172.1,26.2 M161.3,32.9c0,2.3,1.3,3.9,3.3,3.9c1.1,0,2.3-0.4,3.5-1.3V29c-0.9-0.1-1.9-0.2-3.2-0.2
 C162.3,28.9,161.3,30.6,161.3,32.9"></path> <path class="st1" d="M184.6,29.5c-1.7,0-3.3,0-4.9,0.2v10.1h-4V26.5c2.5-0.5,6.2-0.9,8.8-0.9L184.6,29.5L184.6,29.5z"></path> <polygon class="st1" points="193.5,46.3 189.1,46.3 192.7,38.7 186,26 190.6,26 194.8,34.2 198.7,26 203.2,26 "></polygon> <path class="st1" d="M207,30.8c-0.3,0-0.6-0.1-0.8-0.2s-0.5-0.3-0.7-0.5c-0.2-0.2-0.4-0.4-0.5-0.7c-0.1-0.3-0.2-0.6-0.2-0.9s0.1-0.7,0.2-0.9
 c0.1-0.3,0.3-0.5,0.5-0.7c0.2-0.2,0.4-0.4,0.7-0.5s0.5-0.2,0.8-0.2c0.3,0,0.6,0.1,0.9,0.2c0.3,0.1,0.5,0.3,0.7,0.5
 c0.2,0.2,0.4,0.4,0.5,0.7c0.1,0.3,0.2,0.6,0.2,0.9s-0.1,0.7-0.2,0.9c-0.1,0.3-0.3,0.5-0.5,0.7c-0.2,0.2-0.4,0.4-0.7,0.5
 C207.6,30.7,207.3,30.8,207,30.8z M207,30.3c0.2,0,0.5,0,0.7-0.1s0.4-0.2,0.6-0.4s0.3-0.4,0.4-0.6c0.1-0.2,0.1-0.5,0.1-0.8
 c0-0.3,0-0.5-0.1-0.8c-0.1-0.2-0.2-0.4-0.4-0.6s-0.3-0.3-0.6-0.4c-0.2-0.1-0.4-0.1-0.7-0.1c-0.2,0-0.5,0-0.7,0.1
 c-0.2,0.1-0.4,0.2-0.5,0.4c-0.2,0.2-0.3,0.4-0.4,0.6c-0.1,0.2-0.1,0.5-0.1,0.8c0,0.3,0,0.5,0.1,0.8c0.1,0.2,0.2,0.4,0.4,0.6
 c0.2,0.2,0.3,0.3,0.5,0.4S206.8,30.3,207,30.3z M206.2,27.3h0.9c0.2,0,0.5,0.1,0.6,0.2c0.2,0.1,0.3,0.3,0.3,0.6
 c0,0.1,0,0.3-0.1,0.4c-0.1,0.1-0.2,0.2-0.3,0.2l0.5,1h-0.5l-0.4-0.8h-0.5v0.8h-0.5V27.3z M207,28.4c0.3,0,0.5-0.1,0.5-0.4
 c0-0.1,0-0.2-0.1-0.3s-0.2-0.1-0.4-0.1h-0.3v0.8H207z"></path> </svg>