<svg xmlns="http://www.w3.org/2000/svg" viewBox="0 0 148.37 55"><title>trinet_logo_no_tagline</title><path fill="#e87722" d="M131.14 0l15.06 16-15.06-9.61zm8.43 24l8.8-5.61-25.05-16v9.41a3.47 3.47 0 0 0 1.5 2.78l5.86 3.75zm-14-2.29a4.7 4.7 0 0 0-2.25 3.4v9.18l15.51-9.88-8.82-5.62z"/><path fill="#0072ce" d="M99.94 43.22H83.58q.4 7.29 7.87 7.3a13.06 13.06 0 0 0 7.85-3h.22v5.59A23.6 23.6 0 0 1 90.71 55q-6.49 0-9.9-3.25t-3.37-9.37q0-6.09 3.22-9.57c2.16-2.33 5.12-3.49 8.91-3.49q10.4 0 10.4 11.63zm-6.12-3.65c0-4.18-1.67-6.27-4.84-6.27q-5.06 0-5.4 6.27zm-50-18.67a3.3 3.3 0 1 0 3.29 3.29 3.29 3.29 0 0 0-3.31-3.29zM0 23.98v4h9.37v26.37h6.24V27.99h9.37v-5.24h-24a1.05 1.05 0 0 0-1 1.07zm22.44 7.52v22.85h6.11V37.8a11 11 0 0 1 6-1.5 12.32 12.32 0 0 1 3.3.33h.21v-6.6c-.56 0-1-.05-1.3-.05a7.9 7.9 0 0 0-3.57.92 22.15 22.15 0 0 0-4.62 3.57v-4.36h-5.19a1 1 0 0 0-.94 1zm46.66-7.34v19L57.81 22.75h-6.57a1.06 1.06 0 0 0-1 1.06v30.54h5.79V31.18l12.8 23.17h6v-31.6h-4.78a1 1 0 0 0-1 1.06zm33.34 10.17v12.64q0 4.16 1.92 6t6 1.86a20.48 20.48 0 0 0 5.23-.64v-4.4h-.15a6 6 0 0 1-2.81.74 3.77 3.77 0 0 1-3.15-1.18c-.63-.78-.94-2.46-.94-5v-10h5.41v-4.24h-5.42v-7.36h-5.09a1.06 1.06 0 0 0-1 1.08v10.5zm-61.71-2.84v22.86h6.12V30.11h-5.11a1 1 0 0 0-1 1.08z"/><path fill="#231f20" d="M141.13 4.9a2.37 2.37 0 0 1 .46-.66 2 2 0 0 1 .68-.44 2.07 2.07 0 0 1 .82-.16 2 2 0 0 1 .81.16 1.91 1.91 0 0 1 .67.44 2 2 0 0 1 .46.66 2.12 2.12 0 0 1 .17.83 2.07 2.07 0 0 1-.17.84 2 2 0 0 1-.46.67 2.08 2.08 0 0 1-.67.45 2.16 2.16 0 0 1-.81.15 2.06 2.06 0 0 1-1.5-.6 2.28 2.28 0 0 1-.46-.67 2.07 2.07 0 0 1-.17-.84 2.12 2.12 0 0 1 .17-.83zm.35 1.55a1.7 1.7 0 0 0 .37.57 1.64 1.64 0 0 0 .55.38 1.72 1.72 0 0 0 1.92-.38 1.68 1.68 0 0 0 .36-.57 1.89 1.89 0 0 0 .14-.72 1.82 1.82 0 0 0-.14-.7 1.68 1.68 0 0 0-.36-.57 1.93 1.93 0 0 0-.55-.38 1.87 1.87 0 0 0-1.33.03 1.8 1.8 0 0 0-.55.38 1.7 1.7 0 0 0-.37.57 1.82 1.82 0 0 0-.13.7 1.88 1.88 0 0 0 .05.69zm1.74-1.94a1.05 1.05 0 0 1 .65.17.66.66 0 0 1 .21.53.57.57 0 0 1-.19.49.76.76 0 0 1-.46.18l.71 1.09h-.42l-.67-1.06h-.4v1.06h-.38V4.51zm-.17 1.09h.24a.65.65 0 0 0 .21 0 .33.33 0 0 0 .14-.12.41.41 0 0 0 .06-.23.37.37 0 0 0 0-.2.28.28 0 0 0-.13-.11.43.43 0 0 0-.17-.06h-.7v.78z"/></svg>