<svg id="Layer_2" xmlns="http://www.w3.org/2000/svg" xmlns:xlink="http://www.w3.org/1999/xlink" viewBox="0 0 416.91 96">
 <defs>
  <style>
   .cls-1{fill:none;}.cls-2{clip-path:url(#clipPath);}.cls-3{fill:#fff;}.cls-4,.cls-5{fill:#222e3a;}.cls-5,.cls-6{fill-rule:evenodd;}.cls-6{fill:#178a9e;}
  </style>
  <clipPath id="clipPath">
   <rect class="cls-1" width="416.91" height="96">
   </rect>
  </clipPath>
 </defs>
 <g id="Layer_1-2">
  <g class="cls-2">
   <g>
    <path class="cls-4" d="M396.54,29.89c0,5.3,4.31,9.65,9.67,9.65s9.72-4.36,9.72-9.65-4.36-9.68-9.72-9.68-9.67,4.36-9.67,9.68Zm2.23,0c0-4.28,3.26-7.62,7.43-7.62s7.43,3.34,7.43,7.62-3.26,7.59-7.43,7.59-7.43-3.34-7.43-7.59Zm9.01,5.14h2.76l-2.1-4.02c1.21-.52,2.02-1.64,2.02-3.03,0-1.88-1.58-3.39-3.6-3.39h-4.15v10.44h2.5v-3.63h.76l1.81,3.63Zm-2.57-5.66v-2.74h1.21c.95,0,1.53,.52,1.53,1.38s-.58,1.36-1.53,1.36h-1.21Z">
    </path>
    <path class="cls-4" d="M390.96,40.55h-12.43l-12.15,13.02V20.21h-9.5v55.36h9.5v-9.25l3.93-4.13,9.29,13.38h11.65l-14.36-20.28,14.07-14.73Z">
    </path>
    <path class="cls-4" d="M353.36,40.45c-.7-.07-1.39,0-2.16,0-2.96,0-7.77,.71-9.89,5.33v-5.33h-9.09v35.11h9.38v-15.99c0-7.53,3.94-10.33,8.74-10.33h3.03v-8.79Z">
    </path>
    <path class="cls-4" d="M296.08,65.34c0,5.32,4.54,10.23,11.98,10.23,5.17,0,8.51-1.5,10.28-4.19l.32,4.19h8.26v-22.23c0-6.84-4.11-12.92-15.17-12.92-9.36,0-14.39,5.87-14.96,11.19l8.37,1.73c.28-2.97,2.55-5.53,6.66-5.53s5.89,2,5.89,4.42c0,1.17-.64,1.29-2.62,1.57l-8.58,1.24c-5.81,.83-10.42,4.21-10.42,10.3Zm13.97,3.39c-3.05,0-4.54-1.93-4.54-3.94,0-2.63,1.91-3.94,4.32-4.28l7.87-1.17v2.37c0,6.01-3.69,7.02-7.66,7.02Z">
    </path>
    <path class="cls-4" d="M270.23,55c.21-3.84,2.54-6.83,6.5-6.83,4.52,0,6.43,3.06,6.43,6.97v20.43h9.4v-22.06c0-7.69-4.1-13-12.93-13-3.32,0-7.14,.26-9.4,2.96V20.21h-9.4v55.36h9.4v-20.57Z">
    </path>
    <path class="cls-4" d="M229.11,65.46c.43,3.79,3.99,10.11,14.53,10.11,9.19,0,13.67-5.37,13.67-10.78,0-4.87-3.49-8.87-10.4-10.22l-4.99-1.02c-1.92-.34-3.2-1.35-3.2-2.98,0-1.89,1.99-3.32,4.49-3.32,3.99,0,5.48,2.5,5.77,4.47l7.9-1.69c-.43-3.59-3.77-9.61-13.74-9.61-7.55,0-13.1,4.94-13.1,10.9,0,4.67,3.06,8.53,9.83,9.95l4.63,1.01c2.71,.54,3.77,1.76,3.77,3.25,0,1.76-1.49,3.32-4.63,3.32-4.13,0-6.19-2.44-6.41-5.08l-8.12,1.69Z">
    </path>
    <path class="cls-5" d="M219.57,34.2s0-.1,0-.14c0-3.15,2.56-5.71,5.73-5.71h2.05v-8.14h-4.63c-7.15,0-12.54,5.36-12.54,13.01v7.24h-5.75v8.79h5.75v26.32h9.39v-26.32h7.78v-8.79h-7.78v-6.25Z">
    </path>
    <path class="cls-4" d="M200.91,40.45c-.7-.07-1.39,0-2.16,0-2.96,0-7.78,.71-9.89,5.33v-5.33h-9.09v35.11h9.38v-15.99c0-7.53,3.95-10.33,8.74-10.33h3.03v-8.79Z">
    </path>
    <path class="cls-4" d="M165.89,75.57h8.58V40.42h-9.36v20.49c0,4.06-2.53,5.98-6.68,5.98-4.36,0-6.33-3.13-6.33-7.04v-19.42h-9.36v21.34c0,7.61,4.78,13.8,13.15,13.8,3.66,0,7.8-.5,9.7-3.77l.28,3.77Z">
    </path>
    <path class="cls-4" d="M138.47,33.77c-1.21-5.9-6.18-13.56-19.14-13.56-10.1,0-18.61,7.08-18.61,16.37,0,7.89,5.5,13.27,14.01,14.96l7.46,1.47c4.14,.81,6.48,4.05,6.48,7.07,0,3.69-3.09,6.41-8.66,6.41-7.53,0-11.23-4.64-11.68-9.8l-9.64,2.51c.83,7.45,7.08,16.36,21.25,16.36,12.43,0,19.29-8.11,19.29-16.14,0-7.37-5.2-14.44-14.92-16.29l-7.46-1.4c-3.92-.74-5.8-3.02-5.8-5.9,0-3.46,3.32-6.63,8.36-6.63,6.78,0,9.19,4.5,9.72,7.37l9.34-2.8Z">
    </path>
    <path class="cls-6" d="M59.25,0h-22.58C22.1,.78,15.97,9.22,14.33,13.71,7.95,32.79,3.98,57.5,1.11,75.33c-.06,.35-.11,.69-.17,1.04L.01,84.84c-.06,1.34,.07,2.79,.43,4.2,1.79,5.17,7.18,9.53,19.07,5.19h0c11.23-4.87,24.49-10.94,38.2-17.74,7.81-4.5,19.24-14.85,19.83-27.92-.11-9.69-.43-19.86-1.09-29.75h0v-.06c-.05-.81-.11-1.75-.17-2.73-.11-1.88-.23-3.9-.37-5.43-.19-1.06-.44-2.02-.75-2.89-1.9-4.24-5.64-6.28-9.57-7.26-1.79-.31-4-.37-6.34-.43Zm-.85,19.73c0-1.1-.89-1.99-1.99-1.99-12.65,0-22.9,10.25-22.9,22.9v7.54c0,6.8-5.51,12.31-12.31,12.31-1.13,0-2.05,.92-2.05,2.05v6.23c0,1.1,.89,1.99,1.99,1.99,12.65,0,22.9-10.25,22.9-22.9v-7.54c0-6.8,5.51-12.31,12.31-12.31,1.13,0,2.05-.92,2.05-2.05v-6.23Z">
    </path>
    <path class="cls-3" d="M56.41,17.75c1.1,0,1.99,.89,1.99,1.99v6.23c0,1.13-.92,2.05-2.05,2.05-6.8,0-12.31,5.51-12.31,12.31v7.54c0,12.65-10.25,22.9-22.9,22.9-1.1,0-1.99-.89-1.99-1.99v-6.23c0-1.13,.92-2.05,2.05-2.05,6.8,0,12.31-5.51,12.31-12.31v-7.54c0-12.65,10.25-22.9,22.9-22.9Z">
    </path>
   </g>
  </g>
 </g>
</svg>