<?xml version="1.0" encoding="UTF-8"?> <!-- Generator: Adobe Illustrator 23.0.1, SVG Export Plug-In . SVG Version: 6.00 Build 0) --> <svg xmlns="http://www.w3.org/2000/svg" xmlns:xlink="http://www.w3.org/1999/xlink" id="Layer_1" x="0px" y="0px" viewBox="0 0 600 202" style="enable-background:new 0 0 600 202;" xml:space="preserve"> <style type="text/css"> .st0{fill:#545758;} </style> <g> <path class="st0" d="M268.5,189.2h-2.3c-0.2,0-0.5-0.1-0.6-0.2c-0.2-0.1-0.3-0.3-0.4-0.5l-2.1-5.8h-9.7l-2,5.8 c-0.1,0.2-0.2,0.4-0.4,0.5c-0.2,0.2-0.4,0.2-0.6,0.2h-2.3l8.7-23.9h3L268.5,189.2z M254.3,180.3h8.1l-3.4-9.7 c-0.3-0.7-0.5-1.5-0.7-2.2c-0.1,0.5-0.2,0.9-0.3,1.3s-0.2,0.7-0.3,1L254.3,180.3z"></path> <path d="M279.9,152.2h7.6v16.2l13.6-16.2h9.4l-15.6,17.9l16.1,20h-9.9l-13.6-17.5h-0.1V190h-7.6V152.2z"></path> <path d="M314,163.5c3-1.4,6.3-2.1,9.6-2.1c8.5,0,12,3.5,12,11.7v3.6c0,2.8,0,4.9,0.1,7c0.1,2,0.2,4,0.3,6.2h-6.4 c-0.2-1.4-0.3-2.8-0.3-4.2h-0.1c-1.8,3-5.1,4.8-8.6,4.8c-4.9,0-9.7-3-9.7-8.3c-0.2-3.4,1.7-6.6,4.8-8c3-1.2,6.2-1.8,9.4-1.6h4 c0-4.5-2-6-6.3-6c-3.1,0.1-6.1,1.1-8.6,3.1L314,163.5z M322.5,185.3c2,0.1,3.9-0.9,5.1-2.5c1.1-1.7,1.7-3.7,1.5-5.7h-3.1 c-3.2,0-8,0.5-8,4.8C317.9,184.3,319.9,185.3,322.5,185.3z"></path> <path d="M357.2,167.9c-2.1-0.8-4.3-1.2-6.5-1.2c-2,0-4.3,0.7-4.3,3.1c0,4.4,12.6,1.6,12.6,11.7c0,6.5-5.8,9.1-11.7,9.1 c-2.8,0-5.5-0.4-8.2-1.2l0.4-6c2.2,1.2,4.6,1.8,7.1,1.8c1.8,0,4.8-0.7,4.8-3.4c0-5.5-12.6-1.7-12.6-11.8c0-6,5.2-8.7,10.9-8.7 c2.7,0,5.3,0.4,7.9,1L357.2,167.9z"></path> <path d="M385.1,188.4c-2.9,1.6-6.2,2.3-9.6,2.2c-9.2,0-14.5-5.4-14.5-14.4c0-8,4.3-14.7,12.9-14.7c10.3,0,13.3,7.1,13.3,16.8H368 c0.3,4.5,3.5,7,8,7c3.3-0.1,6.4-1.1,9.2-2.8L385.1,188.4z M380.3,173.3c-0.2-3.5-1.8-6.5-5.9-6.5c-4.1,0-6.1,2.8-6.4,6.5H380.3z"></path> <path d="M401.7,182.4h0.1l6.7-20.4h7.3l-10.4,27.7c-2.3,6.2-4,12.3-11.6,12.3c-1.7,0-3.5-0.3-5.1-0.8l0.5-5.4 c1.2,0.4,2.5,0.5,3.7,0.5c2.5,0.1,4.6-1.8,4.7-4.3c0-0.2,0-0.4,0-0.7l-10.7-29.3h8L401.7,182.4z"></path> <path d="M417.7,163.5c3-1.4,6.3-2.1,9.7-2.1c8.5,0,12,3.5,12,11.7v3.6c0,2.8,0,4.9,0.1,7c0.1,2,0.2,4,0.3,6.2h-6.4 c-0.2-1.4-0.3-2.8-0.3-4.2H433c-1.8,3-5.1,4.8-8.6,4.8c-4.9,0-9.7-3-9.7-8.3c-0.2-3.4,1.7-6.6,4.8-8c3-1.2,6.2-1.8,9.4-1.6h4 c0-4.5-2-6-6.3-6c-3.1,0.1-6.1,1.1-8.6,3.1L417.7,163.5z M426.1,185.3c2,0,3.9-0.9,5.1-2.5c1.1-1.7,1.7-3.7,1.5-5.7h-3.1 c-3.2,0-8,0.5-8,4.8C421.5,184.3,423.5,185.3,426.1,185.3z"></path> <path class="st0" d="M466.2,184.3c0.2,0,0.3,0.1,0.4,0.2l1.1,1.3c-0.9,1.1-2,2-3.2,2.7c-2.8,1.2-6,1.2-8.8,0 c-1.3-0.6-2.4-1.4-3.3-2.5c-0.9-1.1-1.6-2.5-2.1-3.9c-0.5-1.6-0.8-3.3-0.7-5c0-1.7,0.3-3.4,0.8-5c0.5-1.4,1.3-2.7,2.2-3.9 c1-1.1,2.1-1.9,3.4-2.5c1.4-0.6,2.9-0.9,4.4-0.9c1.4,0,2.8,0.2,4.1,0.8c1.2,0.6,2.2,1.3,3.1,2.2l-1,1.5c-0.1,0.1-0.1,0.2-0.2,0.3 c-0.1,0.1-0.3,0.1-0.4,0.1c-0.2,0-0.3-0.1-0.4-0.2l-0.5-0.4c-0.2-0.2-0.4-0.3-0.7-0.5c-0.3-0.2-0.6-0.4-1-0.5 c-0.4-0.2-0.9-0.3-1.3-0.4c-0.6-0.1-1.1-0.2-1.7-0.2c-1.1,0-2.2,0.2-3.2,0.7c-1,0.4-1.8,1.1-2.5,1.9c-0.7,0.9-1.3,1.9-1.6,3 c-0.4,1.3-0.6,2.6-0.6,3.9c0,1.4,0.2,2.7,0.6,4c0.3,1.1,0.9,2.1,1.6,3c0.7,0.8,1.5,1.4,2.4,1.8c0.9,0.4,1.9,0.6,3,0.6 c0.6,0,1.2,0,1.7-0.1c0.5-0.1,1-0.2,1.4-0.4c0.4-0.2,0.8-0.4,1.2-0.7c0.4-0.3,0.8-0.6,1.1-1C465.8,184.4,466,184.3,466.2,184.3z"></path> <path class="st0" d="M491.8,177.3c0,1.7-0.2,3.3-0.8,4.9c-0.5,1.4-1.2,2.7-2.2,3.9c-0.9,1.1-2.1,1.9-3.4,2.5 c-1.4,0.6-2.9,0.9-4.4,0.9c-1.5,0-3-0.3-4.4-0.9c-1.3-0.6-2.5-1.4-3.4-2.5c-1-1.1-1.7-2.4-2.2-3.9c-1-3.2-1-6.6,0-9.9 c0.5-1.4,1.2-2.7,2.2-3.9c0.9-1.1,2.1-1.9,3.4-2.5c1.4-0.6,2.9-0.9,4.4-0.9c1.5,0,3,0.3,4.4,0.9c1.3,0.6,2.5,1.4,3.4,2.5 c1,1.1,1.7,2.4,2.2,3.9C491.5,173.9,491.8,175.6,491.8,177.3z M488.8,177.3c0-1.3-0.2-2.7-0.5-4c-0.3-1.1-0.8-2.1-1.5-3 c-0.7-0.8-1.5-1.4-2.4-1.9c-1-0.5-2.1-0.7-3.2-0.7c-1.1,0-2.2,0.2-3.2,0.7c-0.9,0.4-1.8,1.1-2.4,1.9c-0.7,0.9-1.2,1.9-1.5,3 c-0.7,2.6-0.7,5.3,0,7.9c0.3,1.1,0.8,2.1,1.5,2.9c0.7,0.8,1.5,1.4,2.4,1.9c1,0.4,2.1,0.7,3.2,0.6c1.1,0,2.2-0.2,3.2-0.6 c0.9-0.4,1.8-1.1,2.4-1.9c0.7-0.9,1.2-1.9,1.5-2.9C488.6,179.9,488.8,178.6,488.8,177.3z"></path> <path class="st0" d="M506.8,181.4c0.1,0.3,0.2,0.6,0.3,0.9c0.1-0.3,0.2-0.6,0.3-0.9s0.2-0.6,0.4-0.9l7.4-14.7 c0.1-0.2,0.2-0.4,0.4-0.5c0.2-0.1,0.4-0.1,0.6-0.1h2.2v23.9h-2.6v-17.5c0-0.2,0-0.5,0-0.7c0-0.3,0-0.5,0-0.8l-7.4,15 c-0.2,0.4-0.6,0.7-1.1,0.7h-0.4c-0.5,0-0.9-0.3-1.1-0.7l-7.6-15c0,0.3,0,0.6,0.1,0.9s0,0.5,0,0.8v17.6h-2.6v-23.9h2.2 c0.2,0,0.4,0,0.6,0.1c0.2,0.1,0.3,0.3,0.4,0.5l7.5,14.7C506.6,180.9,506.7,181.1,506.8,181.4z"></path> <path class="st0" d="M526.9,180.3v8.9H524v-23.9h6.4c1.2,0,2.4,0.2,3.6,0.5c0.9,0.3,1.8,0.8,2.5,1.5c0.7,0.6,1.2,1.4,1.5,2.3 c0.3,1,0.5,2,0.5,3.1c0,1-0.2,2.1-0.5,3.1c-0.3,0.9-0.9,1.7-1.6,2.4c-0.7,0.7-1.6,1.2-2.5,1.6c-1.1,0.4-2.3,0.6-3.5,0.5H526.9z M526.9,177.7h3.5c0.8,0,1.5-0.1,2.2-0.4c0.6-0.2,1.2-0.6,1.6-1c0.4-0.4,0.8-1,1-1.6c0.2-0.6,0.3-1.3,0.3-2 c0.1-1.3-0.4-2.6-1.3-3.6c-1.1-1-2.5-1.4-3.9-1.3h-3.5L526.9,177.7z"></path> <path class="st0" d="M558,189.2h-2.3c-0.2,0-0.5-0.1-0.6-0.2c-0.2-0.1-0.3-0.3-0.4-0.5l-2-5.8h-9.7l-2,5.8 c-0.1,0.2-0.2,0.4-0.4,0.5c-0.2,0.2-0.4,0.2-0.6,0.2h-2.3l8.7-23.9h3L558,189.2z M543.7,180.3h8.1l-3.4-9.7 c-0.3-0.7-0.5-1.5-0.7-2.2c-0.1,0.5-0.2,0.9-0.3,1.3c-0.1,0.4-0.2,0.7-0.3,1L543.7,180.3z"></path> <path class="st0" d="M562.8,165.4c0.2,0.1,0.3,0.3,0.4,0.4l12.6,18c0-0.3,0-0.6-0.1-0.8c-0.1-0.3,0-0.5,0-0.8v-16.9h2.6v23.9h-1.5 c-0.2,0-0.4,0-0.6-0.1c-0.2-0.1-0.3-0.3-0.5-0.4l-12.6-18c0,0.3,0,0.5,0,0.8s0,0.5,0,0.7v17h-2.6v-23.9h1.5 C562.4,165.3,562.6,165.3,562.8,165.4z"></path> <path class="st0" d="M592,179.7v9.5h-2.9v-9.5l-8-14.4h2.7c0.2,0,0.4,0.1,0.6,0.2c0.2,0.2,0.3,0.3,0.4,0.5l5,9.3 c0.2,0.4,0.4,0.7,0.5,1.1c0.1,0.3,0.3,0.7,0.4,1c0.1-0.3,0.2-0.7,0.4-1c0.1-0.4,0.3-0.7,0.5-1.1l5-9.3c0.1-0.2,0.2-0.4,0.4-0.5 c0.2-0.2,0.4-0.2,0.6-0.2h2.6L592,179.7z"></path> <path d="M184.5,131.7h-23.4c-1.8,0-3.2-1.5-3.2-3.3c0-0.1,0-0.2,0-0.2V4.9c-0.1-1.7,1.1-3.2,2.8-3.3c0.1,0,0.2,0,0.3,0h23.4 c1.8-0.1,3.3,1.3,3.3,3.1c0,0.1,0,0.1,0,0.2v123.3C187.9,130,186.5,131.6,184.5,131.7C184.6,131.7,184.6,131.7,184.5,131.7z"></path> <path d="M294.6,26.3h-28.3v101.9c0,1.9-1.6,3.5-3.5,3.5l0,0h-22.9c-1.9,0-3.5-1.6-3.5-3.5V26.3H208c-1.9,0.1-3.4-1.4-3.5-3.2 c0,0,0-0.1,0-0.1v-18c0-1.9,1.5-3.3,3.4-3.3c0,0,0.1,0,0.1,0h86.6c1.9-0.1,3.6,1.4,3.7,3.3v18C298.2,24.9,296.5,26.4,294.6,26.3z"></path> <path d="M392.7,130.3c-11.5,1.9-23.1,2.8-34.7,2.7c-21.8,0-45.2-14.4-45.2-54.5V55c0-42.5,24.4-54.6,46.8-54.6 c11.1-0.1,22.2,0.7,33.2,2.5c1.6,0.2,3,0.9,3,2.7v8.8c0,1.2-0.7,1.8-2.3,1.8h-0.7c-10.3-0.9-18.3-1.2-33.2-1.2 c-16.2,0-30.9,8.7-30.9,40.2v23.5c0,28.9,13.1,40.3,29.4,40.3c10.7,0,17.8-0.7,22-1.1V67.6c-0.2-1.8,1.2-3.3,2.9-3.5 c0.1,0,0.1,0,0.2,0h9.4c1.9,0.1,3.3,1.6,3.3,3.5v58.8C396,128.3,394.6,130,392.7,130.3z"></path> <path d="M422.3,131.7h-9.1c-1.8-0.1-3.2-1.7-3.1-3.5V3.3c-0.1-1.8,1.3-3.2,3-3.3c0,0,0.1,0,0.1,0h9.1c1.8,0,3.2,1.5,3.2,3.2 c0,0,0,0.1,0,0.1v124.9C425.5,130,424.1,131.6,422.3,131.7z"></path> <path d="M508,131.7h-8.7c-1.9,0-3.3-1.5-3.3-3.4c0,0,0-0.1,0-0.1v-3.3c-9.6,5.4-17.5,8-27.8,8c-21,0-30.4-13.1-30.4-36.4V38.8 c0-1.9,1.6-3.5,3.5-3.5h8.4c1.9,0,3.5,1.6,3.5,3.5v57.6c0,17.7,5.9,23.1,19.2,23.1c7.3,0,15.5-2.8,23.6-6.8V38.8 c0.1-1.9,1.6-3.4,3.5-3.5h8.6c1.9,0.1,3.3,1.6,3.3,3.5v89.3c0.1,1.8-1.3,3.4-3.1,3.5C508.2,131.7,508.1,131.7,508,131.7z"></path> <path d="M596.6,88.4h-58.5v2.5c0,20.8,8.2,28.5,24.3,28.5c10.4,0,20.8-0.6,31.1-1.9h0.9c1.4-0.2,2.6,0.8,2.8,2.1c0,0.1,0,0.2,0,0.3 v6c0,2.3-0.7,3.5-3.5,4c-10.3,2-20.8,3.1-31.4,3c-20,0-39.7-9.5-39.7-42V75.1c0-25,13.8-41,38.7-41c25.5,0,38.4,16.1,38.4,41v9.5 C600,86.9,598.7,88.4,596.6,88.4z M584.4,75.1c0-19.8-7.5-27.5-22.9-27.5c-15,0-23.4,8.6-23.4,27.5v1.6h46.3V75.1z"></path> <path d="M127.3,114L69.6,25H45.5l55.2,86.2H17V52.4L0,26v94.7c0,2.5,0.9,4.8,2.5,6.7c1.5,1.7,3.7,2.7,6,2.8h112.7 c3.6-0.1,6.7-2.4,7.9-5.8C130.5,120.8,129.8,116.8,127.3,114z"></path> <path d="M2.5,16.1l57.6,89h24.2L29.1,18.9h83.6v58.8l17.1,26.4V9.4c0-2.5-0.9-4.8-2.5-6.7c-1.5-1.7-3.7-2.7-6-2.7H8.5 C4.9,0.1,1.8,2.4,0.6,5.8C-0.6,9.3,0.1,13.2,2.5,16.1z"></path> </g> </svg> 