<svg id="Layer_1" data-name="Layer 1" xmlns="http://www.w3.org/2000/svg" viewBox="0 0 270 35"><path d="M231.19,18.46a10.62,10.62,0,0,0-2.36-3.61,10.85,10.85,0,0,0-3.53-2.47,10.39,10.39,0,0,0-4.48-1c-.54,0-1,0-1.45.06l5.4-9.67h-5.31l-8.88,15.62a10.56,10.56,0,0,0-1.43,5.25,10.85,10.85,0,0,0,1.77,6.14,11.81,11.81,0,0,0,4.38,4.08,11.23,11.23,0,0,0,5.41,1.45,10.83,10.83,0,0,0,5.63-1.6,12.3,12.3,0,0,0,4.17-4.22,11.32,11.32,0,0,0,.68-10Zm-3.86,4.29a6.62,6.62,0,0,1-.89,3.38A6.44,6.44,0,0,1,224,28.51a6.56,6.56,0,0,1-3.35.9A6.57,6.57,0,0,1,214.91,26a6.65,6.65,0,0,1-.89-3.36,6.36,6.36,0,0,1,.92-3.25A6.69,6.69,0,0,1,217.37,17,6.34,6.34,0,0,1,224,17a6.7,6.7,0,0,1,2.46,2.47A6.46,6.46,0,0,1,227.33,22.75Z" fill="#8005d8"/><path d="M265.82,11c-.12-.3-.27-.63-.43-1a6,6,0,0,1-.93,1.28,5.65,5.65,0,0,1-3,1.57,11.24,11.24,0,0,1,.87,4.42,12,12,0,0,1-.9,4.55,11.73,11.73,0,0,1-2.61,3.95,11.33,11.33,0,0,1-3.85,2.52,12.18,12.18,0,0,1-4.52.85,11.69,11.69,0,0,1-11.32-8.78,11.63,11.63,0,0,1,.08-6.14,11.62,11.62,0,0,1,3.09-5.35,11.31,11.31,0,0,1,3.88-2.54,12.67,12.67,0,0,1,4.43-.89,11.9,11.9,0,0,1,4.23.82,5.59,5.59,0,0,1,1.58-3.07,5.87,5.87,0,0,1,1.22-.91c-.27-.13-.55-.27-.82-.38A16.71,16.71,0,0,0,250.51.72h0a16.33,16.33,0,0,0-11.69,4.82,16.67,16.67,0,0,0-4.39,7.52,17.2,17.2,0,0,0-.06,8.55,16.4,16.4,0,0,0,11.76,11.82,16.74,16.74,0,0,0,4.15.52,17.35,17.35,0,0,0,4.44-.58,16.72,16.72,0,0,0,11.11-9.84,16.83,16.83,0,0,0,1.24-6.26A16.21,16.21,0,0,0,265.82,11Z" fill="#8005d8"/><path d="M206.27,19.63h0a11.92,11.92,0,0,0-1.46-3.13,12.23,12.23,0,0,0-2.4-2.56l-.15-.09a14,14,0,0,0-2.32-1.44L206,1.86H188.29V6.62h9.49l-4.91,8.51,3,.79a9.91,9.91,0,0,1,3.9,2.07,1.64,1.64,0,0,0,.22.25,6.61,6.61,0,0,1,1.37,2,6.35,6.35,0,0,1,.54,2.52,6.54,6.54,0,0,1-.92,3.46,6.31,6.31,0,0,1-2.39,2.47,6.51,6.51,0,0,1-6.58,0,6.86,6.86,0,0,1-2.48-2.45,6.27,6.27,0,0,1-.92-3.32V21.36h-4.82v1.58a11.63,11.63,0,0,0,5.73,10,11.44,11.44,0,0,0,11.5,0,11.43,11.43,0,0,0,4.19-4.15A11.2,11.2,0,0,0,206.78,23,11.9,11.9,0,0,0,206.27,19.63Z" fill="#8005d8"/><path d="M260.41,4.24a3,3,0,0,0-2.11.88,3,3,0,1,0,2.11-.88Z" fill="#8005d8"/><path d="M2.06,1.74h9.4c6.77,0,11.41,4.08,11.41,10.35S18.23,22.43,11.46,22.43H2.06ZM11.23,18.5c4.1,0,6.79-2.45,6.79-6.41s-2.69-6.42-6.79-6.42H6.85V18.5Z" fill="#8005d8"/><path d="M25.18,12.09c0-6.15,4.79-10.7,11.32-10.7s11.32,4.52,11.32,10.7S43,22.79,36.5,22.79,25.18,18.23,25.18,12.09Zm17.79,0a6.47,6.47,0,1,0-12.94,0,6.47,6.47,0,1,0,12.94,0Z" fill="#8005d8"/><path d="M50.13,12.09c0-6.24,4.79-10.7,11.23-10.7a10.68,10.68,0,0,1,8.51,3.66L66.8,7.89a6.66,6.66,0,0,0-5.2-2.43A6.35,6.35,0,0,0,55,12.09a6.35,6.35,0,0,0,6.63,6.62,6.6,6.6,0,0,0,5.2-2.46l3.07,2.84a10.61,10.61,0,0,1-8.54,3.7C54.92,22.79,50.13,18.32,50.13,12.09Z" fill="#8005d8"/><path d="M72.74,13.33V1.74h4.79V13.15c0,3.93,1.71,5.56,4.61,5.56s4.61-1.63,4.61-5.56V1.74h4.73V13.33c0,6.09-3.49,9.46-9.37,9.46S72.74,19.42,72.74,13.33Z" fill="#8005d8"/><path d="M115,22.43,115,10l-6.09,10.22h-2.16l-6.06-10V22.43H96.21V1.74h4l7.75,12.86,7.62-12.86h3.93l.06,20.69Z" fill="#8005d8"/><path d="M140.46,18.59v3.84h-16V1.74h15.64V5.58H129.2v4.5h9.61V13.8H129.2v4.79Z" fill="#8005d8"/><path d="M163.25,1.74V22.43h-3.93L149,9.87V22.43h-4.72V1.74h4L158.52,14.3V1.74Z" fill="#8005d8"/><path d="M172.45,5.64h-6.62V1.74h18v3.9h-6.63V22.43h-4.78Z" fill="#8005d8"/></svg>