<svg id="Layer_1" data-name="Layer 1" xmlns="http://www.w3.org/2000/svg" viewBox="0 0 835.49 195.45"><defs><style>.cls-1{fill:#0c75ac;}.cls-2{fill:#043765;}</style></defs><title>Naverisk Logo Full</title><g id="Layer_2" data-name="Layer 2"><g id="Layer_1-2" data-name="Layer 1-2"><path class="cls-1" d="M43.15,112.7h-23a3,3,0,0,1-2.81-1.86c-1.62-3.76-3.48-7.43-5.21-11.14Q8.52,92.07,5,84.41c-.45-1-.22-1.56,1-1.49H6.3c20.25-.31,40.48-.22,60.78-.24A4,4,0,0,1,70.17,84c4.31,4.18,8.44,8.54,12.68,12.78.67.68.78,1.11,0,1.84-2.69,2.59-5.42,5.1-7.92,7.87-1.25,1.38-2.69,2.62-3.93,4a6.34,6.34,0,0,1-5.08,2.22C58.29,112.63,50.72,112.7,43.15,112.7Z"/><path class="cls-2" d="M151.65,82.68H174.9a2.77,2.77,0,0,1,2.57,1.63q3,6.8,6.18,13.56c2,4.41,4.11,8.82,6.25,13.18.54,1.1.42,1.48-.8,1.39h-.16c-20.4.4-40.8.3-61.22.31a3.31,3.31,0,0,1-2.57-1c-4.19-4.24-8.39-8.47-12.64-12.64-1.05-1-1.05-1.55,0-2.68,3.92-4.08,8-8,11.91-12.15a5.18,5.18,0,0,1,4.11-1.63Z"/><path class="cls-1" d="M82.48,43.36v-23a3,3,0,0,1,1.86-2.81c3.77-1.62,7.41-3.47,11.13-5.21q7.64-3.56,15.3-7.09c1-.45,1.56-.22,1.48,1v.33c.33,20.24.24,40.47.26,60.77a4.09,4.09,0,0,1-1.34,3C107,74.59,102.63,78.72,98.39,83c-.68.67-1.11.78-1.86,0C94,80.26,91.42,77.54,88.68,75c-1.39-1.25-2.62-2.68-4-3.93a6.29,6.29,0,0,1-2.19-5Z"/><path class="cls-2" d="M112.49,151.89v23.26a2.77,2.77,0,0,1-1.63,2.57q-6.81,3-13.57,6.18c-4.41,2-8.82,4.11-13.19,6.25-1.08.54-1.46.41-1.37-.8v-.16c-.39-20.44-.25-40.77-.25-61.26a3.33,3.33,0,0,1,1-2.57c4.23-4.18,8.47-8.39,12.64-12.64,1-1,1.54-1,2.67,0,4.08,3.92,8,8,12.16,11.91a5.22,5.22,0,0,1,1.63,4.13Q112.49,140.32,112.49,151.89Z"/></g></g><g id="Layer_2-2" data-name="Layer 2"><g id="Layer_1-2-2" data-name="Layer 1-2"><path class="cls-2" d="M700.25,132l-4.71-.46a72.1,72.1,0,0,1-20.32-5.25,74.86,74.86,0,0,1-10.83-5.67c-.68-.42-.74-.74-.23-1.38,1.54-1.84,3-3.74,4.5-5.62.36-.47.66-.58,1.19-.24a63.15,63.15,0,0,0,26.3,10,44.74,44.74,0,0,0,22-1.71,16.92,16.92,0,0,0,7.56-4.83,9.27,9.27,0,0,0-.95-13.07,8.69,8.69,0,0,0-1.36-1,23.48,23.48,0,0,0-10.58-3.36c-4.67-.36-9.37-.53-14-.91a97.6,97.6,0,0,1-14.56-1.65,33.74,33.74,0,0,1-11.47-4.55,12.5,12.5,0,0,1-5.75-9.1,13.76,13.76,0,0,1,6.16-13.36A34.57,34.57,0,0,1,687,64.33a55,55,0,0,1,15.89-.55,71,71,0,0,1,27.51,8.32c1,.57,2.11,1.21,3.09,1.78.42.23.57.46.19.91-1.68,2-3.37,4-5,6-.4.49-.72.24-1.08,0a55,55,0,0,0-26.28-9.07,40,40,0,0,0-15.76,1.58A15.71,15.71,0,0,0,679,76.92a6.21,6.21,0,0,0-1.1,7.56A5.62,5.62,0,0,0,680,86.59,23.2,23.2,0,0,0,690.37,90c5.78.49,11.56.83,17.35,1.19a73.51,73.51,0,0,1,10.37,1,33.26,33.26,0,0,1,14.31,6.56A15.1,15.1,0,0,1,738,109.3c.74,7.49-2.66,12.87-8.91,16.63a44,44,0,0,1-15.72,5.42c-1.73.27-3.51.44-5.29.66Z"/><path class="cls-2" d="M830.54,129.76H819.16c-.58,0-.85-.4-1.15-.76-2.83-3.28-5.65-6.58-8.46-9.86L792.62,99.4c-1.52-1.78-3.07-3.56-4.57-5.36-.4-.48-.68-.61-1.23-.21Q778.2,99.95,769.53,106a1.59,1.59,0,0,0-.69,1.5v21c0,1.36,0,1.36-1.38,1.36h-7.21c-1.25,0-1.25,0-1.25-1.29V65.75c0-.87.27-1.14,1.12-1.12h7.57c1.17,0,1.17,0,1.17,1.18V95.55c0,.33-.17.8.1,1s.66-.26.93-.45L799,74.91l13.14-9.6a3.23,3.23,0,0,1,2.12-.68h10.58a1.38,1.38,0,0,1,.91.13c0,.34-.34.42-.55.57L795.54,87c-.95.7-.95.7-.19,1.59l28.5,33.18,6.2,7.2c.19.23.45.44.66.65Z"/><path class="cls-2" d="M545.61,97.32V66.05c0-1.38,0-1.38,1.34-1.38H592A27.3,27.3,0,0,1,608,69.56a15.16,15.16,0,0,1,6.35,14.33,16.07,16.07,0,0,1-3.85,9.86,23.26,23.26,0,0,1-13.27,7.51c-1.05.21-1.08.21-.48,1.08l18.11,26.83c.15.19.42.38.27.66s-.46.14-.71.14c-2.9,0-5.82,0-8.74.17a1.68,1.68,0,0,1-1.59-.84c-6-9-12.13-17.93-18.16-26.88a1.61,1.61,0,0,0-1.6-.82h-16a1.59,1.59,0,0,1-1.61-.93c-1.06-2-2.12-4-3.32-6-.58-1-.56-1,.57-1h25.66a22.09,22.09,0,0,0,8.81-1.48,8.82,8.82,0,0,0,5.69-8.46,12.14,12.14,0,0,0-.64-4.93A8.9,8.9,0,0,0,598,73.64a20.12,20.12,0,0,0-7.41-1.2H556.43c-1.06,0-1.08,0-1.08,1.2V129c0,.74-.26,1-1,1H546.9c-1.29,0-1.29,0-1.29-1.24Z"/><path class="cls-2" d="M271.9,112.88a1.91,1.91,0,0,0,0-1.06V66c0-1.34,0-1.36,1.36-1.36h7.32c1.25,0,1.25,0,1.25,1.23v62.61c0,1.46,0,1.32-1.51,1.51a6.87,6.87,0,0,1-6.11-2.52c-7-7-14.28-13.9-21.44-20.82L237.22,91.61l-10.09-9.73-.38-.32a1.74,1.74,0,0,0,0,1.06v45.94c0,1.41,0,1.41-1.38,1.41H218c-1.12,0-1.15,0-1.15-1.14V66c0-1.27,0-1.27,1.27-1.29s2.12,0,3.14,0a1.73,1.73,0,0,1,1.35.57l14.37,14,17.07,16.57,10.8,10.45,6.66,6.35C271.67,112.75,271.75,112.92,271.9,112.88Z"/><path class="cls-2" d="M466.28,97.32V66c0-1.32,0-1.34,1.31-1.34h58.24c1.29,0,1.29,0,1.31,1.34v5.35c0,1.08,0,1.14-1.16,1.14H477.31c-1.36,0-1.36,0-1.36,1.31V90c0,.85.21,1.13,1.08,1.1h28.55c1.46,0,1.46,0,1.46,1.49v4.23c0,2.3.29,2.11-2.12,2.11H478.2c-2.12,0-2.12,0-2.12,2.12v19.78c0,1.17,0,1.17,1.19,1.17h51.54c1.61,0,1.61,0,1.61,1.56v5.27c0,.79-.3,1.08-1.06,1H467.68c-1.4,0-1.4,0-1.4-1.38Z"/><path class="cls-1" d="M340.63,102.93h9.27c.61,0,.82,0,.44-.74L337,78.91c-.53-.93-.55-.91-1.06,0l-17.86,31.28c-3.57,6.35-7.17,12.69-10.73,18.89a1.45,1.45,0,0,1-1.46.89h-9c-.91,0-1,0-.49-.89l28.76-49.81Q329,72.42,333,65.58a1.41,1.41,0,0,1,1.42-.82h4.07a1.65,1.65,0,0,1,1.69.95c2.92,5.18,5.9,10.33,8.84,15.49l17.21,30.07,10.22,17.79c.48.87.44.93-.53.93h-8.74a1.51,1.51,0,0,1-1.48-.86c-3.26-5.78-6.56-11.51-9.82-17.29a1.62,1.62,0,0,0-1.61-.93H336a1.73,1.73,0,0,1-1.79-1.06c-1.06-2.12-2.23-4-3.35-6-.46-.85-.42-.91.57-.91Z"/><path class="cls-2" d="M375.31,64.67h4.43a1.35,1.35,0,0,1,1.35.79Q389.27,79.79,397.43,94L410,115.94c.45.79.49.79.94,0Q416.6,106,422.25,96l17.37-30.45a1.33,1.33,0,0,1,1.33-.8h8.93c1,0,1.08.1.57,1q-8.07,14.07-16.23,28.08Q424,111.41,413.78,129.06a1.5,1.5,0,0,1-1.54.91H408a1.28,1.28,0,0,1-1.29-.74q-15.27-26.5-30.45-53.07l-6-10.58c-.51-.89-.47-1,.57-1Z"/><path class="cls-2" d="M637.37,97.15V65.58c0-1.31,0-1.31,1.31-1.31h7.47c1.1,0,1.14,0,1.14,1.16v63.32c0,1.22,0,1.22-1.23,1.22h-7.57c-1.12,0-1.12,0-1.12-1.14C637.34,118.27,637.37,107.71,637.37,97.15Z"/></g></g></svg>