<svg width="294" height="41" viewBox="0 0 294 41" fill="none" xmlns="http://www.w3.org/2000/svg">
<path d="M47.9288 20.1393L42.6642 25.4781L39.2403 28.9502L38.4409 29.7609L37.6467 30.5662L33.8968 34.369C33.881 34.385 33.8705 34.3957 33.8599 34.4064C33.3393 34.929 32.7976 35.4197 32.2243 35.8837C31.9298 36.1237 31.6247 36.3584 31.3144 36.5824C31.0041 36.8064 30.6833 37.0198 30.3572 37.2278C27.312 39.1585 23.7146 40.2732 19.8595 40.2732C8.89363 40.2732 0 31.2543 0 20.1339C0 9.0136 8.89363 0 19.8542 0C22.568 0 25.1504 0.554683 27.5066 1.55205C28.4954 1.97339 29.4421 2.47474 30.3467 3.04009C29.8891 3.42943 29.4526 3.84011 29.0213 4.27213L28.9845 4.30946L24.7717 8.57625C23.2623 7.9149 21.6003 7.54689 19.8542 7.54689C13.0012 7.54689 7.44204 13.1844 7.44204 20.1339C7.44204 27.0835 13.0012 32.721 19.8542 32.721C21.6003 32.721 23.2728 32.353 24.777 31.6916C25.1346 31.5369 25.487 31.3609 25.8236 31.1689C26.1549 30.9822 26.481 30.7849 26.7913 30.5662C27.4382 30.1289 28.0378 29.6275 28.5848 29.0729C28.6006 29.0569 28.6111 29.0462 28.6216 29.0355L32.2138 25.3928L32.9921 24.6034L33.7705 23.814L37.389 20.1446L33.76 16.4645L37.3522 12.8217L37.3785 12.8004L37.3995 12.779C37.9623 12.2137 38.5776 11.723 39.235 11.3177L42.6694 14.8004L47.9288 20.1393Z" fill="black"/>
<path d="M64.4322 20.1339C64.4322 31.2543 55.5439 40.2679 44.578 40.2679C41.8642 40.2679 39.2818 39.7132 36.9256 38.7158C35.9369 38.2945 34.9849 37.7931 34.0856 37.2278C34.5431 36.8384 34.9797 36.4277 35.4109 35.9957L35.453 35.9584L39.6605 31.6916C41.17 32.353 42.8319 32.721 44.578 32.721C51.431 32.721 56.9902 27.0835 56.9902 20.1339C56.9902 13.1844 51.431 7.54689 44.578 7.54689C42.8319 7.54689 41.1594 7.9149 39.6552 8.57625C39.2976 8.73093 38.9452 8.90693 38.6086 9.09894C38.2773 9.28561 37.9512 9.48295 37.6409 9.69629C36.994 10.139 36.3944 10.6403 35.8475 11.195C35.8317 11.211 35.8212 11.2217 35.8106 11.2323L32.2185 14.8751L31.4401 15.6645L30.6617 16.4538L27.0432 20.1233L30.6722 23.8034L27.08 27.4461L27.0432 27.4835C26.4805 28.0488 25.8651 28.5395 25.2077 28.9449L16.5034 20.1286L21.7681 14.7898L25.1919 11.3177L25.9914 10.507L26.7908 9.69629L30.5407 5.89351C30.5565 5.87751 30.567 5.86684 30.5775 5.85617C31.0982 5.33349 31.6399 4.84281 32.2132 4.3788C32.5077 4.13879 32.8128 3.90412 33.1231 3.68011C33.4334 3.4561 33.7542 3.24276 34.0803 3.03476C37.1255 1.1147 40.7229 0 44.578 0C55.5439 0 64.4322 9.01893 64.4322 20.1339Z" fill="black"/>
<path fill-rule="evenodd" clip-rule="evenodd" d="M75.6357 8.43774V31.7611H80.9477V24.2355H84.4137L88.821 31.7611H94.8167L89.7625 23.0888C90.3463 22.7582 90.8722 22.3582 91.335 21.8888C91.7978 21.4195 92.1923 20.8861 92.5184 20.2941C92.8445 19.7021 93.0917 19.0727 93.2652 18.406C93.4388 17.7394 93.5229 17.0407 93.5229 16.3206C93.5229 15.3553 93.3336 14.4059 92.9549 13.4619C92.5762 12.5232 92.0503 11.6805 91.3824 10.9338C90.7092 10.1871 89.915 9.58444 88.9999 9.12576C88.0795 8.66708 87.0802 8.43774 86.002 8.43774H75.6357ZM85.8123 19.5423H80.9526V13.1741H85.6493C86.2541 13.1741 86.8116 13.4567 87.3323 14.0274C87.853 14.5981 88.1107 15.3608 88.1107 16.3262C88.1107 17.2649 87.8845 18.0382 87.4322 18.6409C86.9799 19.2436 86.4382 19.5423 85.8123 19.5423Z" fill="black"/>
<path d="M114.255 27.0356V31.7664H98.0879V8.43774H113.961V13.1686H103.4V17.702H112.472V22.0701H103.4V27.0303H114.255V27.0356Z" fill="black"/>
<path d="M116.758 19.9046C116.758 18.5019 117.016 17.1045 117.537 15.7178C118.057 14.3257 118.809 13.083 119.803 11.9897C120.798 10.8963 122.007 10.0056 123.432 9.32827C124.858 8.65091 126.478 8.30957 128.292 8.30957C130.454 8.30957 132.326 8.77892 133.914 9.72295C135.503 10.667 136.686 11.8937 137.465 13.4031L133.383 16.2938C133.126 15.6805 132.794 15.1738 132.394 14.7684C131.995 14.3631 131.558 14.0324 131.085 13.7817C130.612 13.5311 130.122 13.3551 129.628 13.2537C129.128 13.1577 128.645 13.1044 128.171 13.1044C127.156 13.1044 126.273 13.3124 125.515 13.7284C124.758 14.1444 124.132 14.6831 123.638 15.3391C123.138 15.9951 122.775 16.7418 122.538 17.5738C122.302 18.4059 122.181 19.2486 122.181 20.1019C122.181 21.0193 122.323 21.91 122.601 22.7633C122.88 23.6167 123.285 24.374 123.816 25.0301C124.348 25.6861 124.984 26.2088 125.726 26.5928C126.472 26.9768 127.309 27.1688 128.234 27.1688C128.708 27.1688 129.202 27.1101 129.707 26.9875C130.212 26.8648 130.701 26.6834 131.164 26.4274C131.627 26.1768 132.053 25.8461 132.442 25.4407C132.831 25.0354 133.141 24.5394 133.383 23.9474L137.722 26.5448C137.375 27.3981 136.865 28.1662 136.181 28.8435C135.503 29.5209 134.719 30.0915 133.83 30.5502C132.947 31.0089 132.005 31.3609 131.011 31.6009C130.017 31.8409 129.044 31.9636 128.098 31.9636C126.436 31.9636 124.905 31.6169 123.511 30.9289C122.118 30.2409 120.918 29.3235 119.914 28.1875C118.909 27.0515 118.131 25.7554 117.584 24.31C117.037 22.8647 116.758 21.398 116.758 19.9046Z" fill="black"/>
<path d="M141.125 31.7664V8.43774H146.437V31.7611H141.125V31.7664Z" fill="black"/>
<path fill-rule="evenodd" clip-rule="evenodd" d="M151.765 8.43774V31.7611H157.082V24.2355H161.747C162.852 24.2355 163.856 24.0169 164.761 23.5795C165.666 23.1422 166.439 22.5502 167.075 21.8035C167.712 21.0621 168.206 20.2194 168.564 19.2754C168.921 18.3367 169.1 17.35 169.1 16.3206C169.1 15.3553 168.911 14.4059 168.532 13.4619C168.153 12.5232 167.633 11.6805 166.975 10.9338C166.313 10.1871 165.529 9.58444 164.609 9.12576C163.688 8.66708 162.678 8.43774 161.579 8.43774H151.765ZM161.416 19.5419H157.077V13.1631H161.222C161.521 13.1631 161.821 13.2218 162.126 13.3444C162.426 13.4671 162.699 13.6591 162.936 13.9204C163.173 14.1818 163.362 14.5125 163.504 14.9071C163.646 15.3018 163.714 15.7712 163.714 16.3205C163.714 17.3712 163.488 18.1712 163.036 18.7206C162.584 19.2699 162.042 19.5419 161.416 19.5419Z" fill="black"/>
<path fill-rule="evenodd" clip-rule="evenodd" d="M172.439 8.43774V31.7611H177.751V24.2355H181.217L185.625 31.7611H191.62L186.566 23.0888C187.15 22.7582 187.676 22.3582 188.139 21.8888C188.602 21.4195 188.996 20.8861 189.322 20.2941C189.648 19.7021 189.895 19.0727 190.069 18.406C190.242 17.7394 190.327 17.0407 190.327 16.3206C190.327 15.3553 190.137 14.4059 189.759 13.4619C189.38 12.5232 188.854 11.6805 188.186 10.9338C187.513 10.1871 186.719 9.58444 185.804 9.12576C184.883 8.66708 183.884 8.43774 182.806 8.43774H172.439ZM182.617 19.5423H177.757V13.1741H182.453C183.058 13.1741 183.616 13.4567 184.136 14.0274C184.657 14.5981 184.915 15.3608 184.915 16.3262C184.915 17.2649 184.689 18.0382 184.236 18.6409C183.784 19.2436 183.242 19.5423 182.617 19.5423Z" fill="black"/>
<path fill-rule="evenodd" clip-rule="evenodd" d="M199.931 30.9449C201.335 31.6223 202.892 31.9636 204.596 31.9636C206.258 31.9636 207.793 31.6329 209.198 30.9822C210.602 30.3209 211.812 29.4515 212.827 28.3688C213.842 27.2861 214.636 26.0328 215.209 24.6087C215.782 23.1847 216.066 21.702 216.066 20.1713C216.066 18.7045 215.798 17.2592 215.256 15.8351C214.72 14.4111 213.952 13.1364 212.958 12.0217C211.964 10.907 210.765 10.0056 209.361 9.32827C207.956 8.65091 206.4 8.30957 204.696 8.30957C203.028 8.30957 201.498 8.63491 200.094 9.28027C198.689 9.93095 197.475 10.795 196.449 11.8777C195.423 12.9604 194.624 14.2137 194.051 15.6378C193.477 17.0618 193.193 18.5445 193.193 20.0753C193.193 21.5846 193.467 23.0513 194.019 24.4754C194.566 25.8994 195.339 27.1635 196.333 28.2675C197.327 29.3715 198.526 30.2676 199.931 30.9449ZM198.989 22.7474C198.731 21.9047 198.6 21.03 198.6 20.134C198.6 19.2593 198.726 18.4006 198.973 17.5526C199.225 16.7099 199.599 15.9579 200.109 15.3019C200.614 14.6458 201.24 14.1125 201.987 13.7071C202.733 13.3018 203.612 13.0991 204.627 13.0991C205.6 13.0991 206.457 13.2911 207.204 13.6751C207.946 14.0592 208.577 14.5765 209.097 15.2219C209.618 15.8672 210.007 16.6139 210.265 17.4566C210.523 18.2993 210.654 19.174 210.654 20.07C210.654 20.95 210.528 21.8087 210.281 22.6514C210.028 23.4941 209.655 24.2515 209.16 24.9181C208.666 25.5848 208.04 26.1288 207.283 26.5449C206.526 26.9609 205.642 27.1689 204.627 27.1689C203.654 27.1689 202.791 26.9715 202.034 26.5769C201.282 26.1822 200.646 25.6542 200.141 24.9981C199.63 24.3421 199.247 23.5901 198.989 22.7474Z" fill="black"/>
<path d="M218.606 19.9046C218.606 18.5019 218.864 17.1045 219.385 15.7178C219.906 14.3257 220.658 13.083 221.652 11.9897C222.646 10.8963 223.855 10.0056 225.281 9.32827C226.706 8.65091 228.326 8.30957 230.14 8.30957C232.302 8.30957 234.174 8.77892 235.763 9.72295C237.351 10.667 238.534 11.8937 239.307 13.4031L235.226 16.2938C234.968 15.6805 234.637 15.1738 234.237 14.7684C233.838 14.3631 233.401 14.0324 232.928 13.7817C232.454 13.5311 231.965 13.3551 231.471 13.2537C230.971 13.1577 230.487 13.1044 230.014 13.1044C228.999 13.1044 228.115 13.3124 227.358 13.7284C226.601 14.1444 225.975 14.6831 225.48 15.3391C224.981 15.9951 224.618 16.7418 224.381 17.5738C224.145 18.4059 224.024 19.2486 224.024 20.1019C224.024 21.0193 224.166 21.91 224.444 22.7633C224.723 23.6167 225.128 24.374 225.659 25.0301C226.19 25.6861 226.827 26.2088 227.568 26.5928C228.315 26.9768 229.152 27.1688 230.077 27.1688C230.551 27.1688 231.045 27.1101 231.55 26.9875C232.055 26.8648 232.544 26.6834 233.007 26.4274C233.469 26.1768 233.895 25.8461 234.285 25.4407C234.674 25.0354 234.984 24.5394 235.226 23.9474L239.565 26.5448C239.218 27.3981 238.708 28.1662 238.024 28.8435C237.346 29.5209 236.562 30.0915 235.673 30.5502C234.79 31.0089 233.848 31.3609 232.854 31.6009C231.86 31.8409 230.887 31.9636 229.94 31.9636C228.278 31.9636 226.748 31.6169 225.354 30.9289C223.961 30.2409 222.761 29.3235 221.757 28.1875C220.752 27.0515 219.974 25.7554 219.427 24.31C218.88 22.8647 218.606 21.398 218.606 19.9046Z" fill="black"/>
<path d="M242.973 31.7664V8.43774H248.285V31.7611H242.973V31.7664Z" fill="black"/>
<path d="M270.543 13.1686H263.548V31.7611H258.236V13.1686H251.204V8.43774H270.543V13.1686Z" fill="black"/>
<path d="M278.222 8.43774L283.177 19.1474L288.199 8.43774H294L285.806 23.8142V31.7664H280.526V23.7502L272.458 8.44308H278.222V8.43774Z" fill="black"/>
</svg>
