<svg id="Group_2" data-name="Group 2" xmlns="http://www.w3.org/2000/svg" width="134.17" height="18.351" viewBox="0 0 134.17 18.351">
  <path id="Path_2" data-name="Path 2" d="M133.329,133.309v4.513h7.555V151.46h5.375V137.822h7.555v-4.513Z" transform="translate(-133.329 -133.309)" fill="#ec2e30"/>
  <path id="Path_3" data-name="Path 3" d="M285.935,137.521l3.487,6.819h-6.876Zm-3.487-4.212-9.492,18.151h6.005l1.574-3.209h10.9l1.671,3.209h5.981l-9.637-18.151Z" transform="translate(-255.773 -133.309)" fill="#ec2e30"/>
  <path id="Path_4" data-name="Path 4" d="M515.358,133.309V146.5h-.048l-10.1-13.187h-8.33V151.46h5.376V138.273h.048l10.1,13.187h8.33V133.309Z" transform="translate(-452.142 -133.309)" fill="#ec2e30"/>
  <rect id="Rectangle_1" data-name="Rectangle 1" width="5.376" height="18.151" transform="translate(71.742 0)" fill="#ec2e30"/>
  <g id="Group_1" data-name="Group 1" transform="translate(80.267)">
    <path id="Path_5" data-name="Path 5" d="M785.564,133.309h5.376v10.479c0,2.306.8,3.209,3,3.209h5.327c2.2,0,3-.9,3-3.209V133.309h5.376v11.683c0,4.513-2.252,6.669-7.191,6.669h-7.7c-4.94,0-7.192-2.156-7.192-6.669Z" transform="translate(-785.564 -133.309)" fill="#ec2e30"/>
    <path id="Path_6" data-name="Path 6" d="M990.6,133.309h8.257l6.078,11.683,6.078-11.683h8.257V151.46h-5.23V138.424H1014l-7.047,13.036h-4.019l-7.046-13.036h-.048V151.46H990.6Z" transform="translate(-965.371 -133.309)" fill="#ec2e30"/>
  </g>
</svg>
