<svg xmlns="http://www.w3.org/2000/svg" xmlns:xlink="http://www.w3.org/1999/xlink" width="121.167" height="43.292" viewBox="0 0 121.167 43.292">
  <defs>
    <radialGradient id="radial-gradient" cx="0.499" cy="0.491" r="3.148" gradientTransform="matrix(-0.143, 0, 0, 0.131, 8.551, -1.005)" gradientUnits="objectBoundingBox">
      <stop offset="0.219" stop-color="#8f9294"/>
      <stop offset="1" stop-color="#fff"/>
    </radialGradient>
  </defs>
  <g id="kape_logo_fin-03" data-name="kape logo fin-03" transform="translate(-39.2 -54.3)">
    <ellipse id="Ellipse_2051" data-name="Ellipse 2051" cx="14.936" cy="2.138" rx="14.936" ry="2.138" transform="translate(40.117 93.315)" opacity="0.34" fill="url(#radial-gradient)"/>
    <g id="Group_49162" data-name="Group 49162" transform="translate(80.12 61.368)">
      <path id="Path_119949" data-name="Path 119949" d="M567.961,295.751a3.749,3.749,0,0,1-.827.1c-1.1,0-1.634-.461-1.634-1.365V271.069a3.341,3.341,0,0,1,.6-.173,4.08,4.08,0,0,1,.846-.1c1.057,0,1.6.461,1.6,1.365v13.667l8.3-8.054a2.363,2.363,0,0,1,1.422.442,1.257,1.257,0,0,1,.519,1.038,1.343,1.343,0,0,1-.346.923c-.231.269-.538.577-.9.923l-6.113,5.344,8.458,7.593a2.31,2.31,0,0,1-.519,1.326,1.47,1.47,0,0,1-1.154.5,1.918,1.918,0,0,1-1.038-.288,4.988,4.988,0,0,1-.961-.807l-7.67-7.708v8.5A2.231,2.231,0,0,1,567.961,295.751Z" transform="translate(-565.5 -270.8)" fill="#6213c5"/>
      <path id="Path_119950" data-name="Path 119950" d="M661.139,306.4a8.406,8.406,0,0,1,5.229,1.48,5.5,5.5,0,0,1,1.942,4.671v9a2.127,2.127,0,0,1-.327,1.269,3.184,3.184,0,0,1-.961.807,9.661,9.661,0,0,1-2.4.923,13.314,13.314,0,0,1-3.441.4,9.25,9.25,0,0,1-5.517-1.4,4.687,4.687,0,0,1-1.961-4.056,4.451,4.451,0,0,1,1.634-3.768,8.951,8.951,0,0,1,4.594-1.576l5.382-.538v-1.057a3.277,3.277,0,0,0-1.134-2.768,4.953,4.953,0,0,0-3.076-.865,9.6,9.6,0,0,0-3,.461,18.2,18.2,0,0,0-2.5,1.019,3.433,3.433,0,0,1-.557-.615,1.213,1.213,0,0,1-.25-.75,1.366,1.366,0,0,1,.269-.865,2.754,2.754,0,0,1,.826-.654,9.1,9.1,0,0,1,2.345-.807A12.683,12.683,0,0,1,661.139,306.4Zm.038,16.051a9.178,9.178,0,0,0,2.633-.327,5.769,5.769,0,0,0,1.5-.634v-5.5l-4.71.5a6.106,6.106,0,0,0-2.922.884,2.394,2.394,0,0,0-.942,2.076,2.577,2.577,0,0,0,1.1,2.23A6.057,6.057,0,0,0,661.178,322.451Z" transform="translate(-636.746 -299.557)" fill="#6213c5"/>
      <path id="Path_119951" data-name="Path 119951" d="M766.078,324.911a9.471,9.471,0,0,1-2.5-.308,8.582,8.582,0,0,1-1.941-.73v7.362a3.054,3.054,0,0,1-.577.173,3.747,3.747,0,0,1-.826.1c-1.1,0-1.634-.461-1.634-1.4v-20.03a2.456,2.456,0,0,1,.269-1.211,2.921,2.921,0,0,1,1.1-.942,13.906,13.906,0,0,1,2.441-1.038,10.5,10.5,0,0,1,3.248-.481,11.224,11.224,0,0,1,3.518.538,7.259,7.259,0,0,1,2.845,1.653,8.3,8.3,0,0,1,1.9,2.864,11.335,11.335,0,0,1,.711,4.171,11.9,11.9,0,0,1-.634,4.094,7.7,7.7,0,0,1-1.768,2.9,7.282,7.282,0,0,1-2.71,1.73A10.5,10.5,0,0,1,766.078,324.911Zm-.423-2.5a5.769,5.769,0,0,0,4.267-1.615q1.615-1.615,1.615-5.19a8.989,8.989,0,0,0-.481-3.152,5.541,5.541,0,0,0-1.288-2.1,4.636,4.636,0,0,0-1.884-1.134,7.212,7.212,0,0,0-2.23-.346,6.7,6.7,0,0,0-2.307.346,13.036,13.036,0,0,0-1.711.75v11.188a6.214,6.214,0,0,0,1.711.865A6.046,6.046,0,0,0,765.655,322.412Z" transform="translate(-721.481 -299.557)" fill="#6213c5"/>
      <path id="Path_119952" data-name="Path 119952" d="M864.433,317.434c.692,3.306,2.864,4.979,6.536,4.979a7.34,7.34,0,0,0,2.883-.538,8.428,8.428,0,0,0,2.057-1.134,1.575,1.575,0,0,1,.9,1.442,1.441,1.441,0,0,1-.48,1.019,4.185,4.185,0,0,1-1.288.865,8.86,8.86,0,0,1-1.9.615,11.229,11.229,0,0,1-2.326.231,9.771,9.771,0,0,1-6.959-2.384c-1.711-1.6-2.557-3.921-2.557-6.978a10.819,10.819,0,0,1,.634-3.845,8.252,8.252,0,0,1,1.749-2.864,7.558,7.558,0,0,1,2.672-1.807,8.9,8.9,0,0,1,3.383-.634,8.435,8.435,0,0,1,3.153.577,7.293,7.293,0,0,1,2.48,1.615A7.756,7.756,0,0,1,877,311.052a8.268,8.268,0,0,1,.6,3.133,1.581,1.581,0,0,1-.385,1.192,1.78,1.78,0,0,1-1.057.442Zm5.248-8.573a5.009,5.009,0,0,0-3.825,1.615,6.748,6.748,0,0,0-1.6,4.613l10.438-1.442a5.68,5.68,0,0,0-1.461-3.441A4.666,4.666,0,0,0,869.681,308.861Z" transform="translate(-804.44 -299.557)" fill="#6213c5"/>
      <path id="Path_34" data-name="Path 34" d="M70.47,14.18a2.738,2.738,0,0,1,1.7-2.615,3.056,3.056,0,0,1,2.351,0,2.939,2.939,0,0,1,.921.607,2.831,2.831,0,0,1,.6.911,2.939,2.939,0,0,1,0,2.2,2.772,2.772,0,0,1-1.518,1.528,3.242,3.242,0,0,1-2.351,0,2.762,2.762,0,0,1-1.5-1.528,3.036,3.036,0,0,1-.206-1.107Zm.627,0a2.684,2.684,0,0,0,.167.921,2.272,2.272,0,0,0,.46.725,2.028,2.028,0,0,0,.705.47,2.517,2.517,0,0,0,1.851,0,2.018,2.018,0,0,0,.715-.47,2.243,2.243,0,0,0,.451-.725,2.566,2.566,0,0,0,0-1.832A2.145,2.145,0,0,0,75,12.545a2.184,2.184,0,0,0-.715-.48,2.615,2.615,0,0,0-1.851,0,2.184,2.184,0,0,0-.715.48,2.145,2.145,0,0,0-.451.725,2.449,2.449,0,0,0-.157.911Zm1.959.313v.921a1.479,1.479,0,0,1-.294,0,.4.4,0,0,1-.215,0c-.059,0-.078-.108-.078-.225V13.044c0-.108.078-.176.245-.206h.6a1.43,1.43,0,0,1,.862.225.813.813,0,0,1,.147,1.126.921.921,0,0,1-.411.284l.656.8a.294.294,0,0,1-.118.167.4.4,0,0,1-.215.069.48.48,0,0,1-.382-.235l-.49-.725Zm.372-.47c.294,0,.431-.137.431-.4a.284.284,0,0,0-.137-.274.6.6,0,0,0-.362-.1h-.3V14Z" transform="translate(3.988 -4.486)" fill="#6213c5"/>
    </g>
    <g id="Group_49163" data-name="Group 49163" transform="translate(39.2 54.3)">
      <path id="Path_119953" data-name="Path 119953" d="M60.4,114.1,56.1,116.837a1.417,1.417,0,0,0-.606.824,22.05,22.05,0,0,1-15.247,15.395,1.414,1.414,0,0,0-1.042,1.361v3.234A26.231,26.231,0,0,0,60.4,114.1Z" transform="translate(-39.2 -109.45)" fill="#a381ff"/>
      <path id="Path_119954" data-name="Path 119954" d="M63.6,56.92A29.192,29.192,0,0,1,60.239,70.4a29.62,29.62,0,0,1-2.278,3.639,30.259,30.259,0,0,1-1.967,2.41c-.319.35-.645.692-.987,1.034-.676.676-1.376,1.306-2.1,1.913a29.077,29.077,0,0,1-6.7,4.16A28.8,28.8,0,0,1,39.2,85.665v4.3a33.468,33.468,0,0,0,8.141-2.278c.832-.35,1.641-.731,2.434-1.143a32,32,0,0,0,3.67-2.224c.84-.583,1.648-1.205,2.434-1.866.739-.622,1.446-1.275,2.138-1.959.319-.319.638-.653.941-.98.715-.778,1.392-1.578,2.029-2.41a32.717,32.717,0,0,0,2.426-3.654,33.439,33.439,0,0,0,4.432-16.685c0-.824-.031-1.648-.086-2.465Z" transform="translate(-39.2 -54.3)" fill="#a381ff"/>
    </g>
    <g id="Group_49164" data-name="Group 49164" transform="translate(49.984 79.103)">
      <path id="Path_119955" data-name="Path 119955" d="M179.968,454.615l4.758.606a18.96,18.96,0,0,0-2.807-5.621l-4.02,1.742A14.564,14.564,0,0,1,179.968,454.615Z" transform="translate(-177.9 -443.668)" fill="#6213c5"/>
      <path id="Path_119956" data-name="Path 119956" d="M269.819,420.588l4.447.568a25.926,25.926,0,0,0-3.709-9.556l-3.958,1.711A21.608,21.608,0,0,1,269.819,420.588Z" transform="translate(-259.703 -408.622)" fill="#6213c5"/>
      <path id="Path_119957" data-name="Path 119957" d="M362.625,384.908a33.414,33.414,0,0,0-2.2-7.643,33.788,33.788,0,0,0-2-3.965L354.5,375a29.052,29.052,0,0,1,4.028,11.212l2.519.319A1.412,1.412,0,0,0,362.625,384.908Z" transform="translate(-340.769 -373.3)" fill="#6213c5"/>
    </g>
    <g id="Group_49165" data-name="Group 49165" transform="translate(49.774 73.427)">
      <path id="Path_119958" data-name="Path 119958" d="M175.2,442.424c.07.078.14.163.21.249l4.02-1.742c-.179-.249-.365-.49-.56-.731A34.381,34.381,0,0,1,175.2,442.424Z" transform="translate(-175.2 -429.323)" fill="#321381"/>
      <path id="Path_119959" data-name="Path 119959" d="M255.938,379.38c-.684.684-1.4,1.337-2.138,1.959.35.435.684.886,1,1.353l3.958-1.711a27.226,27.226,0,0,0-1.874-2.581C256.576,378.727,256.257,379.061,255.938,379.38Z" transform="translate(-247.689 -372.328)" fill="#321381"/>
      <path id="Path_119960" data-name="Path 119960" d="M321.826,300.3a34.615,34.615,0,0,1-2.426,3.654,29.518,29.518,0,0,1,2.737,3.74l3.926-1.7A34.13,34.13,0,0,0,321.826,300.3Z" transform="translate(-308.188 -300.3)" fill="#321381"/>
    </g>
  </g>
</svg>
