<svg width="141" height="24" viewBox="0 0 141 24" fill="none" xmlns="http://www.w3.org/2000/svg">
<g clip-path="url(#clip0_2965_39910)">
<path d="M87.0418 16.4234C86.2133 17.9915 84.9754 19.3161 83.4614 20.2533C81.9158 21.2102 80.1657 21.7084 78.4004 21.6911C75.7947 21.6751 73.3591 20.6462 71.5424 18.7939C69.7373 16.9533 68.7338 14.5025 68.7169 11.8925C68.6998 9.27641 69.7997 6.69629 71.7348 4.81416C73.5824 3.01701 75.9743 2.02715 78.4695 2.02715C80.1301 2.02715 81.7855 2.4896 83.2569 3.36431C84.6913 4.21716 85.9161 5.43733 86.7988 6.89273L86.8192 6.92629H89.3812L89.3344 6.82992C88.3574 4.82309 86.8303 3.118 84.9184 1.89906C82.9699 0.656729 80.7401 0 78.4698 0C76.88 0 75.3255 0.314663 73.85 0.935061C72.4328 1.53114 71.15 2.38122 70.0376 3.46222C68.8979 4.5697 68.0021 5.85452 67.3753 7.28128C66.7261 8.75854 66.4015 10.3103 66.4101 11.8932C66.4273 15.0343 67.6664 17.9891 69.8991 20.2133C72.1515 22.4572 75.1703 23.7017 78.3994 23.718C78.4274 23.718 78.4552 23.718 78.4832 23.718C80.8315 23.718 83.1142 23.0311 85.0898 21.7293C87.0597 20.4312 88.5884 18.6159 89.5106 16.4795L89.551 16.3859H87.0613L87.0418 16.4228V16.4234Z" fill="#1D1D1C"/>
<path d="M25.1787 13.6484L25.1685 13.6648V23.2115H27.4757V14.2094L36.1646 0.506786H33.5188L25.1787 13.6484Z" fill="#1D1D1C"/>
<path d="M25.3969 10.0132L19.4605 0.539423L19.4401 0.506786H16.7943L24.0937 12.0736L25.3969 10.0132Z" fill="#1D1D1C"/>
<path d="M109.491 2.22512C108.36 1.10101 106.749 0.506786 104.831 0.506786H95.8126V9.45375H98.1198V2.53393H104.831C107.273 2.53393 108.851 4.11217 108.851 6.55466C108.851 10.5822 104.756 11.1835 102.314 11.1835H95.8126V23.2115H98.1198V13.2106H102.314C105.386 13.2106 107.256 12.4886 108.285 11.883C110.191 10.7598 111.158 8.96698 111.158 6.55466C111.158 4.80646 110.582 3.3092 109.491 2.22512Z" fill="#1D1D1C"/>
<path d="M113.043 23.2056L108.263 13.8972L108.202 13.9218C107.441 14.2319 106.771 14.4406 106.154 14.5598L106.064 14.577L110.51 23.2056H113.043Z" fill="#1D1D1C"/>
<path d="M41.2479 3.41357V23.2115H43.5548V6.55497L41.2479 3.41357Z" fill="#1D1D1C"/>
<path d="M59.9844 23.1764V0.506786H57.6772V19.1079L44.0454 0.506786H41.2871L57.9422 23.1764H59.9844Z" fill="#1D1D1C"/>
<path d="M8.80902 10.9584C6.397 9.77581 3.63554 8.45804 3.63554 5.75538C3.63554 3.63587 5.78476 2.20541 8.04578 2.24174C8.99218 2.25714 9.72228 2.28577 10.482 2.39046L9.29352 0.519102C8.88993 0.455369 8.48028 0.420269 8.07477 0.417498V0.416883H8.01648V0.417498C4.64724 0.441206 1.46817 2.53055 1.46817 5.78894C1.46817 9.57321 4.85875 11.1949 7.83013 12.6478C10.2421 13.8304 12.6191 15.1817 12.6191 17.7495C12.6191 20.3173 10.3119 22.108 7.65525 22.108C5.31331 22.108 3.18098 20.9254 2.27217 18.8644H0C1.04865 22.0742 4.12483 24 7.65525 24C11.4654 24 14.7862 21.3309 14.7862 17.7495C14.7862 14.1682 11.7804 12.4449 8.80902 10.9584Z" fill="#1D1D1C"/>
<path d="M121.746 21.4682L122.816 19.7881C120.423 17.9441 118.981 14.9511 119.046 11.4809C119.151 6.58176 123.101 2.46004 127.995 2.02068V2.01945C128.569 1.96772 129.154 1.9668 129.744 2.0213L129.743 2.02068C131.056 2.14599 132.299 2.53855 133.416 3.1414L134.462 1.4985C133.03 0.734317 131.43 0.250006 129.742 0.128698L129.741 0.128082C129.154 0.0846696 128.57 0.0859012 127.994 0.128698H127.994C121.947 0.568056 117.018 5.53463 116.879 11.4473C116.789 15.6968 118.667 19.3124 121.746 21.4682H121.746Z" fill="#1D1D1C"/>
<path d="M136.051 2.51176L134.982 4.19038C137.216 6.01124 138.656 8.77947 138.656 11.819C138.656 16.9884 134.742 21.2118 129.743 21.6847C129.169 21.7367 128.585 21.773 127.995 21.7185C126.698 21.628 125.496 21.301 124.419 20.7792L123.376 22.4174C124.76 23.0773 126.315 23.4818 127.995 23.5767C128.582 23.6201 129.166 23.6188 129.742 23.576L129.743 23.5767C135.965 23.1373 140.824 18.0356 140.824 11.819C140.824 8.08826 138.934 4.67962 136.051 2.51176Z" fill="#1D1D1C"/>
</g>
<defs>
<clipPath id="clip0_2965_39910">
<rect width="140.824" height="24" fill="white"/>
</clipPath>
</defs>
</svg>
