<?xml version="1.0" encoding="utf-8"?>
<!-- Generator: Adobe Illustrator 24.1.1, SVG Export Plug-In . SVG Version: 6.00 Build 0)  -->
<svg version="1.1" id="Layer_1" xmlns="http://www.w3.org/2000/svg" xmlns:xlink="http://www.w3.org/1999/xlink" x="0px" y="0px"
	 viewBox="0 0 512 512" style="enable-background:new 0 0 512 512;" xml:space="preserve">
<g>
	<path d="M97.8,290.2L92,290H40.3l69-69l-0.3-5.8c-0.2-9.2-7.7-16.8-17-17l-5.7-0.2H0l0.3,5.7c0.7,9.3,7.5,16.4,16.9,17L23,221h51.9
		L5.7,290l0.3,5.8c0.3,9.2,7.7,16.7,17,17l5.8,0.2H115l-0.3-5.7C114,297.8,107.3,290.9,97.8,290.2L97.8,290.2z M166.9,198L166.9,198
		c-76.8,0.1-76.7,115-0.1,115C243.5,313,243.5,198.1,166.9,198z M191.2,279.9c-13.3,14.1-35.7,14.3-49.4,0.6
		c-13.7-13.7-13.4-36,0.6-49.4C175,200.1,222.1,247.3,191.2,279.9z M465.9,198c-13.2,0-25.7,5.7-34.4,15.6
		c-8.8-9.9-21.3-15.6-34.5-15.6c-9.2,0-18.2,2.8-25.8,7.9c-4.4-5-14.5-7.9-20.2-7.9v115l5.8-0.2c9.6-0.7,16.6-7.4,16.9-17l0.3-5.8
		v-40.3l0.3-5.7c0.3-4.3,0.8-8.2,2.8-11.5c6.3-11,20.4-14.8,31.4-8.4c3.5,2,6.3,4.9,8.3,8.3s2.6,7.3,2.8,11.6l0.3,5.7V290l0.2,5.8
		c0.6,9.3,7.5,16.3,17,17l5.8,0.2v-63.3l0.2-5.7c0.2-4.2,0.8-8.3,2.8-11.6c6.4-11,20.5-14.7,31.4-8.3c3.5,2,6.4,4.9,8.4,8.4
		c1.9,3.3,2.5,7.3,2.8,11.5l0.3,5.7V290l0.3,5.8c0.6,9.4,7.5,16.4,17,17l5.7,0.2v-69C512,218.6,491.3,198,465.9,198L465.9,198z
		 M247,214.8c-23.5,22.3-23.9,59.5-1.1,82.3c22.9,22.9,60.1,22.4,82.4-1C379.9,242,301.2,163.3,247,214.8L247,214.8z M312,279.9
		c-13.4,13.7-35.5,13.9-49.1,0.3c-13.7-13.7-13.5-35.8,0.3-49.2C295.8,199.4,343.8,247.3,312,279.9z"/>
</g>
</svg>
