<?xml version="1.0" standalone="no"?>
<!DOCTYPE svg PUBLIC "-//W3C//DTD SVG 20010904//EN"
 "http://www.w3.org/TR/2001/REC-SVG-20010904/DTD/svg10.dtd">
<svg version="1.0" xmlns="http://www.w3.org/2000/svg"
 width="512.000000pt" height="512.000000pt" viewBox="0 0 512.000000 512.000000"
 preserveAspectRatio="xMidYMid meet">
<metadata>
Created by potrace 1.14, written by Peter Selinger 2001-2017
</metadata>
<g transform="translate(0.000000,512.000000) scale(0.100000,-0.100000)"
fill="#000000" stroke="none">
<path d="M124 5100 c-52 -24 -100 -78 -114 -127 -8 -27 -10 -372 -8 -1153 l3
-1115 1198 0 1198 0 -1 40 c0 22 0 95 0 163 0 67 -2 127 -5 132 -3 5 -1 11 5
15 6 4 8 10 5 14 -2 5 -5 57 -5 117 0 60 0 150 -1 199 0 50 0 104 1 120 1 17
2 35 2 40 -1 26 -2 213 -2 323 1 67 -2 127 -5 132 -3 5 -1 11 5 15 6 4 8 10 5
14 -2 5 -5 57 -5 117 0 60 0 150 -1 199 0 50 0 104 1 120 1 17 2 35 2 40 -1
26 -2 213 -2 323 1 67 -2 127 -5 132 -3 5 -2 11 2 13 5 3 7 37 5 76 l-4 71
-1116 0 c-1083 -1 -1118 -1 -1158 -20z"/>
<path d="M2720 5088 c2 -56 1 -241 0 -273 -1 -16 -2 -34 -2 -40 1 -26 2 -213
2 -323 -1 -67 2 -127 5 -132 3 -5 1 -11 -5 -15 -6 -4 -8 -10 -5 -14 2 -5 5
-57 5 -117 0 -60 0 -149 1 -199 0 -49 0 -103 -1 -120 -1 -16 -2 -34 -2 -40 1
-26 2 -213 2 -323 -1 -67 2 -127 5 -132 3 -5 1 -11 -5 -15 -6 -4 -8 -10 -5
-14 2 -5 5 -57 5 -117 0 -60 0 -149 0 -199 1 -49 1 -97 1 -105 -1 -52 0 -121
2 -160 l2 -45 1198 0 1197 0 -2 1136 -3 1136 -33 49 c-19 27 -50 58 -70 69
-36 20 -58 20 -1165 23 l-1128 2 1 -32z"/>
<path d="M2 1265 l3 -1120 25 -40 c24 -39 41 -56 90 -85 22 -13 171 -15 1152
-18 l1127 -2 3 32 c2 18 0 57 -3 86 -3 29 -1 55 3 58 5 3 6 9 3 13 -2 5 -5 57
-5 117 0 60 0 150 -1 199 0 50 0 104 1 120 1 17 2 35 2 40 -1 26 -2 213 -2
323 1 67 -2 127 -5 132 -3 5 -1 11 5 15 6 4 8 10 5 14 -2 5 -5 57 -5 117 0 60
0 150 -1 199 0 50 0 104 1 120 1 17 2 35 2 40 -1 26 -2 213 -2 323 1 67 -2
127 -5 132 -3 5 -2 11 2 13 5 3 6 40 3 84 -3 43 -3 101 0 130 3 29 3 58 0 65
-4 11 -228 13 -1203 13 l-1197 0 2 -1120z"/>
<path d="M2723 2377 c-3 -5 -5 -30 -3 -56 1 -25 1 -57 0 -71 -1 -14 -2 -29 -2
-35 1 -37 2 -220 2 -323 -1 -67 2 -127 5 -132 3 -5 1 -11 -5 -15 -6 -4 -8 -10
-5 -14 2 -5 5 -57 5 -117 0 -60 0 -149 1 -199 0 -49 0 -103 -1 -120 -1 -16 -2
-34 -2 -40 1 -26 2 -213 2 -323 -1 -67 2 -127 5 -132 3 -5 1 -11 -5 -15 -6 -4
-8 -10 -5 -14 2 -5 5 -57 5 -117 0 -60 0 -149 1 -199 0 -49 0 -103 -1 -120 -1
-16 -2 -34 -2 -40 2 -37 3 -232 2 -240 -1 -6 -2 -20 -1 -32 l1 -23 1117 0
c1112 0 1117 0 1160 21 24 11 43 25 43 30 0 5 6 9 13 9 7 0 24 19 38 42 l24
43 3 1120 2 1120 -1196 0 c-668 0 -1198 -4 -1201 -8z"/>
</g>
</svg>
