<svg id="Layer_2" data-name="Layer 2" xmlns="http://www.w3.org/2000/svg" viewBox="0 0 147 35"><defs><style>.cls-1{fill:none}.cls-2{fill:url(#linear-gradient)}.cls-3{fill:#41b6e6}.cls-4{fill:#003da5}.cls-5{clip-path:url(#clippath)}</style><clipPath id="clippath"><path class="cls-1" d="M0 0h147v35H0z"/></clipPath><linearGradient id="linear-gradient" x1="-.74" y1="34.74" x2="20.26" y2="18.74" gradientTransform="matrix(1 0 0 -1 0 36.71)" gradientUnits="userSpaceOnUse"><stop offset=".62" stop-color="#41b6e6"/><stop offset="1" stop-color="#efff15"/></linearGradient></defs><g class="cls-5" id="Layer_1-2" data-name="Layer 1"><path class="cls-4" d="M34.17.77c0-.26.06-.45.19-.58.11-.13.28-.2.45-.19h16.16c.26 0 .45.06.58.19.13.13.19.32.19.58v4.17c0 .19-.06.38-.19.58-.13.19-.38.26-.64.26H40.65v5.26h7.56c.19 0 .38.06.51.19s.19.32.19.58v4.04c0 .19-.06.38-.19.58a.58.58 0 0 1-.51.26h-7.56v7.69c0 .51-.26.71-.77.71h-5.13c-.38-.06-.58-.32-.58-.71V.77zm26.54 16.09c0 .71.06 1.28.26 1.73.19.45.45.9.77 1.15.32.32.64.51 1.09.64.38.13.83.19 1.28.19s.9-.06 1.35-.26c.39-.19.77-.38 1.09-.71.32-.32.58-.71.77-1.22.19-.45.26-1.03.26-1.6V5.06c0-.19.06-.32.19-.45.11-.13.28-.2.45-.19h4.04c.19 0 .39.06.51.19.13.11.2.28.19.45v11.73c0 1.6-.26 3.01-.71 4.1-.45 1.09-1.09 1.99-1.92 2.63-.83.64-1.73 1.15-2.82 1.47s-2.18.45-3.33.45-2.31-.13-3.33-.45c-1.09-.32-1.99-.77-2.82-1.47a6.448 6.448 0 0 1-1.92-2.69c-.45-1.09-.71-2.44-.71-4.04V5.06c0-.13.06-.32.13-.45.13-.13.26-.19.38-.19h4.17c.13 0 .26.06.45.19.13.13.26.26.26.45v11.79h-.07zm18.85 1.54c.13.13.39.32.58.51.26.19.51.45.83.64.45.32.96.58 1.41.71.45.19.96.26 1.47.26a6 6 0 0 0 1.22-.13c.32-.13.58-.26.77-.45.19-.19.32-.38.39-.64.06-.26.13-.45.13-.71s-.13-.51-.32-.77-.51-.45-.77-.58c-.31-.18-.63-.33-.96-.45-.32-.13-.64-.26-.9-.32-.99-.35-1.96-.78-2.89-1.28-.83-.45-1.54-.96-2.05-1.47-.58-.58-.96-1.15-1.22-1.79-.26-.64-.38-1.41-.38-2.24s.19-1.67.51-2.37c.32-.71.83-1.28 1.47-1.79s1.41-.9 2.31-1.15c.9-.26 1.92-.38 3.01-.38.83 0 1.67.06 2.44.26.77.19 1.54.51 2.31.9.32.19.64.38.9.58l.77.58.51.51c.13.19.19.32.19.45s0 .26-.06.32c-.06.13-.13.19-.26.32l-2.12 2.24c-.13.13-.32.26-.45.26s-.26-.06-.38-.13c-.13-.06-.26-.19-.39-.26l-.13-.13c-.19-.13-.39-.32-.64-.51-.22-.17-.46-.32-.71-.45-.26-.13-.51-.26-.83-.32-.29-.08-.59-.12-.9-.13-.32 0-.58 0-.83.06-.26.06-.51.13-.71.26-.19.13-.39.26-.51.45-.13.19-.2.41-.19.64 0 .26.06.51.19.71s.32.38.58.51c.26.19.58.32.96.45s.83.32 1.35.45c.96.32 1.86.64 2.69 1.03.83.38 1.54.77 2.11 1.28.58.51 1.09 1.09 1.41 1.73.32.71.51 1.47.51 2.44 0 1.03-.19 1.92-.64 2.76-.39.84-.99 1.57-1.73 2.11-.71.58-1.6 1.03-2.56 1.35-.96.32-2.05.45-3.14.45-1.07 0-2.14-.19-3.14-.58-1.02-.38-1.99-.9-2.89-1.54-.34-.22-.67-.48-.96-.77-.26-.26-.45-.45-.58-.64l-.06-.06v-.13c-.19-.26-.32-.45-.32-.58s.13-.32.32-.51l2.37-2.31c.19-.13.32-.19.45-.19.06 0 .19 0 .26.06-.06.32.06.38.19.51zM95.2 5.06c0-.19.07-.32.13-.45.11-.13.28-.2.45-.19h4.1c.13 0 .26.06.45.19.13.13.26.26.26.45v19.42c0 .39-.26.64-.71.64h-4.1c-.39 0-.64-.19-.64-.64V5.06h.07zm8.91 9.68c0-.96.13-1.92.38-2.82.26-.9.58-1.73 1.09-2.56.46-.79 1.02-1.53 1.67-2.18.64-.64 1.35-1.22 2.11-1.67.8-.48 1.66-.84 2.57-1.09.92-.26 1.87-.39 2.82-.38.96 0 1.92.13 2.82.38.9.26 1.73.64 2.57 1.09.77.45 1.47 1.03 2.18 1.67.64.64 1.22 1.35 1.67 2.18.47.81.83 1.67 1.09 2.56.26.9.39 1.86.39 2.82s-.13 1.92-.39 2.82c-.26.9-.64 1.73-1.09 2.5s-1.03 1.47-1.67 2.12-1.35 1.22-2.18 1.67c-.81.47-1.67.83-2.57 1.09-.9.26-1.86.38-2.82.38s-1.92-.13-2.82-.38c-.9-.26-1.73-.58-2.57-1.09-.77-.45-1.47-1.03-2.11-1.67-.64-.64-1.22-1.35-1.67-2.12-.47-.78-.83-1.62-1.09-2.5-.26-.92-.39-1.87-.38-2.82zm5.39 0c0 .77.13 1.47.38 2.18.26.63.63 1.22 1.09 1.73.46.51 1.03.91 1.67 1.15.64.26 1.35.45 2.12.45s1.47-.13 2.11-.45c.64-.25 1.21-.64 1.67-1.15.46-.51.83-1.1 1.09-1.73.26-.64.38-1.41.38-2.18s-.13-1.47-.38-2.12c-.26-.64-.64-1.28-1.09-1.73-.46-.51-1.03-.91-1.67-1.15-.64-.26-1.35-.45-2.11-.45s-1.47.13-2.12.45c-.64.26-1.22.71-1.67 1.15-.46.51-.83 1.1-1.09 1.73-.26.67-.39 1.39-.38 2.12zm19.29-9.68c0-.19.06-.32.13-.45.11-.13.28-.2.45-.19h4.55c.13 0 .26.06.38.13.13.06.26.19.38.32 1.15 1.92 2.37 3.78 3.53 5.64 1.17 1.89 2.34 3.77 3.53 5.64V4.94c.06-.19.13-.32.19-.38.13-.06.26-.13.38-.13h3.98c.19 0 .38.06.51.13.13.11.2.28.19.45V24.5c0 .19-.06.32-.19.39-.13.06-.26.13-.45.13h-4.42c-.12 0-.23-.05-.32-.13l-.32-.32c-1.2-2.02-2.42-4.03-3.65-6.03s-2.45-4.01-3.65-6.03v11.92c0 .19-.06.39-.13.45-.06.13-.26.13-.51.13h-3.98c-.19 0-.38-.06-.45-.19-.13-.13-.13-.26-.13-.45V5.06zM18.91 23.33l7.69 4.68V35l-13.4-8.21 4.23-2.56 1.48-.9zM7.5 11.54l1.67-1.03 4.04-2.44L26.6 0v6.99l-7.63 4.55-5.19 3.14-4.49 2.76 3.91 2.37-4.36 2.69-1.35.83L0 18.72v-2.63l7.5-4.55z"/><path class="cls-2" d="M13.21 8.08l-4.04 2.44-1.67 1.03L0 7.05V.06l13.21 8.01z"/><path class="cls-3" d="M13.21 19.81l3.91-2.37-3.91-2.37.58-.38 5.19-3.14 7.63 4.62v2.44l-9.17 5.64-4.23 2.57L0 34.94v-6.99l8.85-5.45 4.36-2.69zm21.22 10.13h1.92c1.03 0 1.86.32 1.86 1.47 0 .71-.38 1.22-1.09 1.35l1.28 2.12h-1.28l-1.03-1.99h-.51v1.99h-1.09v-4.94h-.06zm1.09 2.05h.64c.39 0 .9 0 .9-.58 0-.51-.45-.58-.83-.58h-.71v1.15zm7.5-2.05h-1.09v4.94h1.09v-4.94zm6.41 1.21c-.21-.2-.48-.31-.77-.32-.32 0-.71.13-.71.51 0 .9 2.31.32 2.31 2.05 0 1.09-.9 1.6-1.92 1.6-.64 0-1.22-.19-1.67-.64l.77-.83c.19.32.58.45.96.45s.77-.19.77-.51c0-.9-2.31-.45-2.31-2.05 0-1.03.9-1.6 1.86-1.6.58 0 1.09.13 1.54.51l-.83.83zm4.61-1.21h1.09v2.05l1.92-2.05h1.41l-2.18 2.31 2.37 2.63h-1.54l-1.99-2.37v2.37h-1.09v-4.94zm13.02 0h1.67l1.15 3.21 1.15-3.21h1.67v4.94h-1.09V31.1l-1.35 3.78h-.83l-1.22-3.78h-.06v3.78h-1.09v-4.94zm11.22 0h.9l2.18 4.94h-1.22l-.45-1.03h-1.92l-.39 1.03h-1.22l2.12-4.94zm.44 1.41l-.58 1.54h1.22l-.64-1.54zm6.1-1.41h1.54l2.05 3.46h.06v-3.46h1.09v4.94h-1.47l-2.12-3.53v3.53h-1.15v-4.94zm10.32 0h.9l2.18 4.94H97l-.45-1.03h-1.92l-.39 1.03h-1.22l2.12-4.94zm.44 1.41L95 32.89h1.22l-.64-1.54zm10.58 3.2c-.64.32-1.35.45-2.05.45-1.54 0-2.69-1.03-2.69-2.63s1.15-2.63 2.69-2.63c.77 0 1.47.19 1.99.64l-.77.83c-.32-.32-.64-.45-1.22-.45-.96 0-1.54.64-1.54 1.6 0 .9.58 1.6 1.54 1.6.45 0 .83-.13 1.03-.26v-.83h-.9v-1.03h1.92v2.69zm4.04-4.61h3.33v1.03h-2.24v.9h2.11v1.03h-2.11v.96h2.37v1.03h-3.46v-4.94zm7.31 0h1.67l1.15 3.21 1.15-3.21h1.67v4.94h-1.09V31.1H122l-1.28 3.78h-.83l-1.28-3.78v3.78h-1.09v-4.94zm9.62 0h3.4v1.03h-2.24v.9h2.12v1.03h-2.12v.96h2.37v1.03h-3.53v-4.94zm7.37 0h1.48l2.12 3.46v-3.46h1.09v4.94h-1.41l-2.18-3.53v3.53h-1.09v-4.94zm9.68.96h-1.41v-.96h3.91v.96h-1.41v3.97h-1.09V30.9z"/></g></svg>