<?xml version="1.0" standalone="no"?>
<!DOCTYPE svg PUBLIC "-//W3C//DTD SVG 20010904//EN"
 "http://www.w3.org/TR/2001/REC-SVG-20010904/DTD/svg10.dtd">
<svg version="1.0" xmlns="http://www.w3.org/2000/svg"
 width="1353.000000pt" height="1406.000000pt" viewBox="0 0 1353.000000 1406.000000"
 preserveAspectRatio="xMidYMid meet">
<metadata>
Created by potrace 1.16, written by Peter Selinger 2001-2019
</metadata>
<g transform="translate(0.000000,1406.000000) scale(0.100000,-0.100000)"
fill="#000000" stroke="none">
<path d="M7987 13393 c-4 -3 -7 -1208 -7 -2678 0 -2064 -3 -2674 -12 -2683
-17 -17 -2389 -17 -2406 0 -9 9 -12 253 -12 1038 0 576 -4 1031 -9 1039 -5 8
-15 12 -22 9 -47 -18 -1886 -1032 -1896 -1046 -10 -13 -13 -755 -13 -3637 0
-3437 1 -3623 18 -3637 17 -16 1863 -1085 1890 -1096 8 -2 18 1 23 9 5 8 9
1154 9 2680 0 2059 3 2668 12 2677 19 19 2391 17 2407 -1 8 -10 12 -303 13
-1043 3 -917 5 -1029 18 -1032 19 -3 1890 1022 1908 1045 9 13 12 756 12 3633
0 2878 -3 3619 -12 3632 -15 18 -1886 1098 -1903 1098 -6 0 -15 -3 -18 -7z"/>
<path d="M4565 12847 c-517 -298 -1532 -884 -2255 -1301 -723 -418 -1330 -770
-1348 -783 l-32 -24 0 -3679 c0 -2023 3 -3686 6 -3694 4 -9 36 -34 73 -55 769
-446 1683 -971 1690 -971 5 0 12 7 15 16 3 9 6 1653 6 3653 0 3452 1 3639 18
3653 9 8 636 354 1392 768 756 414 1383 762 1393 772 16 19 17 83 15 1102 -3
951 -5 1081 -18 1083 -8 2 -438 -241 -955 -540z"/>
<path d="M10816 11754 c-3 -9 -6 -1650 -6 -3648 0 -2890 -3 -3636 -12 -3649
-7 -9 -638 -359 -1403 -778 -764 -419 -1396 -768 -1402 -777 -18 -22 -19
-2172 -2 -2189 9 -9 20 -8 43 4 76 39 4504 2598 4534 2620 l32 24 0 3688 c0
2934 -3 3691 -12 3703 -13 17 -1741 1018 -1757 1018 -5 0 -12 -7 -15 -16z"/>
</g>
</svg>
