<svg version="1.1" id="Layer_1" xmlns="http://www.w3.org/2000/svg" xmlns:xlink="http://www.w3.org/1999/xlink" x="0px" y="0px" viewBox="0 0 1396 395" style="enable-background:new 0 0 1396 395;" xml:space="preserve" data-darkreader-inline-invert="">
<style type="text/css">
	.st0{fill:#7F3DD4;}
	.st1{fill:none;}
	.st2{fill:none;stroke:#000000;stroke-width:2;stroke-miterlimit:10;}
</style>
<path class="a" d="M337.1,174.3c-10.4,0-20.4,1.7-29.8,4.8c1.7-7.1,2.6-14.4,2.6-22c0-51.9-42.1-93.9-93.9-93.9
	c-38.1,0-72.8,28.5-85.8,55.6c-2.8,5.8-0.6,12.8,5.2,15.8c3.7,1.9,8,1.6,11.4-0.4c1.8-1.1,3.2-2.8,4.4-4.7
	c13.4-21.6,36.2-42.8,64.9-42.8c39,0,70.5,31.6,70.5,70.5c0,17.4-5.3,34.2-16.7,45.6c-9.3,9.3-17.2,15.3-25.4,18.9L219.7,199
	c-4.5-4.2-11.6-3.8-15.7,0.7l-0.6,0.7c-4.2,4.5-3.8,11.6,0.7,15.7l75.1,68.7c4.5,4.2,11.6,3.8,15.7-0.7l0.6-0.7
	c4.2-4.5,3.8-11.6-0.7-15.7l-24.4-22.3c2.9-8.5,10-20.1,16.6-26.8c12.8-13,30.5-21,50.2-21c39,0,70.5,31.6,70.5,70.5
	s-31.6,70.5-70.5,70.5c-18.4,0-34.2-8.3-47.8-18.7c-4.1-3.1-93.1-82.7-121.6-111.2c-19.3-19.3-43.4-34.6-72.8-34.6
	c-51.9,0-93.9,42.1-93.9,93.9s42.1,93.9,93.9,93.9c38.1,0,70.9-22.7,85.6-55.3l23.8,21.8c4.5,4.2,11.6,3.8,15.7-0.7
	c4.2-4.5,3.8-11.6-0.7-15.7l-74.3-68.1c-4.5-4.2-11.6-3.8-15.7,0.7c-4.2,4.5-3.8,11.6,0.7,15.7l32,29.3
	c-9.1,28.3-35.7,48.9-67.1,48.9c-39,0-70.5-31.6-70.5-70.5s31.6-70.5,70.5-70.5c19.2,0,35.8,8.4,49.2,20
	c0.3,0.2,102,91.6,120.2,109.8c19.2,19.2,43.4,34.6,72.7,34.6c51.9,0,93.9-42.1,93.9-93.9S389,174.3,337.1,174.3z"></path>
<path d="M576.6,67.2c7.5,3.4,13.5,8.2,18.1,14.3c1.2,2,1.8,3.7,1.8,5.3c0,2.6-1.2,4.7-3.7,6.2c-1.1,0.8-2.5,1.1-4.3,1.1
	c-3.2,0-5.9-1.1-8-3.4c-7.5-8.5-17.7-12.8-30.6-12.8c-8.4,0-15.1,1.7-20.1,5.1s-7.5,7.7-7.5,12.9c0,5.5,2.4,9.9,7.1,13.1
	c4.7,3.3,13.1,5.9,25.2,7.9c16.3,2.7,28,7.2,35,13.4s10.5,13.8,10.5,23c0,7-2.1,13.3-6.3,18.7c-4.2,5.5-10,9.8-17.5,12.8
	s-15.9,4.6-25.4,4.6s-18.5-1.6-27.2-4.8s-15.7-7.7-21-13.5c-1.5-1.8-2.3-3.6-2.3-5.3c0-2.6,1.2-4.9,3.7-6.9c1.8-1.4,3.7-2.1,5.7-2.1
	c2.6,0,4.8,1.1,6.6,3.2c3.7,4.3,8.5,7.5,14.5,9.8s12.7,3.4,20,3.4c10.7,0,18.7-1.8,24-5.5s8.1-8.5,8.2-14.4c0-5.5-2.7-10.1-8-13.7
	c-5.3-3.7-13.8-6.4-25.4-8.2c-14.9-2.4-26.1-6.7-33.5-12.7c-7.4-6-11.1-13.3-11.1-21.8c0-11.1,4.3-19.7,12.9-25.8
	c8.6-6.1,19.4-9.1,32.4-9.1C560.3,62,569.1,63.8,576.6,67.2z"></path>
<path d="M719.7,70.3c9.6,5.5,17.2,13.1,22.8,22.9s8.3,20.7,8.3,32.7s-2.7,22.9-8.2,32.6s-13.1,17.3-22.7,22.7
	c-9.7,5.5-20.5,8.2-32.6,8.2c-12,0-22.9-2.7-32.6-8.2s-17.3-13.1-22.7-22.7c-5.5-9.7-8.2-20.5-8.2-32.6c0-12,2.7-22.9,8.2-32.7
	s13.1-17.4,22.7-22.9c9.7-5.5,20.5-8.2,32.6-8.2C699.3,62,710.1,64.8,719.7,70.3z M663.6,84.2c-7.1,4.1-12.7,9.8-16.7,17
	s-6.1,15.4-6.1,24.6c0,9,2,17.1,6.1,24.4c4,7.2,9.6,12.9,16.7,17c7.1,4.1,15,6.2,23.7,6.2c8.8,0,16.8-2.1,23.8-6.2
	c7-4.1,12.5-9.8,16.5-17s5.9-15.4,5.9-24.4c0-9.1-2-17.3-5.9-24.6c-4-7.2-9.5-12.9-16.5-17S696.2,78,687.3,78
	C678.5,78,670.7,80.1,663.6,84.2z"></path>
<path d="M873.5,68.7c8.6,4.6,15.4,11.2,20.2,20c4.9,8.8,7.3,19.2,7.3,31.4v59.4c0,2.4-0.8,4.5-2.5,6.2s-3.7,2.5-6.2,2.5
	c-2.6,0-4.7-0.8-6.4-2.5s-2.5-3.7-2.5-6.2v-59.4c0-13.6-3.8-23.9-11.3-31s-17.4-10.6-29.6-10.6c-7.5,0-14.2,1.4-20.2,4.3
	s-10.8,6.9-14.3,12s-5.3,10.8-5.3,17v67.7c0,2.6-0.8,4.7-2.4,6.3c-1.6,1.6-3.7,2.4-6.3,2.4s-4.7-0.8-6.4-2.4
	c-1.7-1.6-2.5-3.7-2.5-6.3V72.1c0-2.6,0.8-4.7,2.5-6.4c1.7-1.7,3.8-2.5,6.4-2.5s4.7,0.8,6.3,2.5c1.6,1.7,2.4,3.8,2.4,6.4v7.8
	c5-5.6,11.1-10.1,18.3-13.3c7.2-3.2,14.9-4.8,23.3-4.8C855.1,61.8,864.8,64.1,873.5,68.7z"></path>
<path d="M1011.6,64.3c3.7,1.7,5.6,4,5.6,7.1c0,0.9-0.1,1.6-0.2,2.1c-0.6,2.1-1.6,3.6-2.9,4.3c-1.3,0.8-3.1,1.1-5.4,1.1
	c-1.4,0-3.7-0.2-7.1-0.5c-1.2-0.2-3.1-0.2-5.5-0.2c-11.4,0-20.8,3.1-28,9.1c-7.2,6.1-10.9,14-10.9,23.8v68.4c0,2.7-0.8,4.9-2.3,6.4
	s-3.7,2.3-6.4,2.3s-4.9-0.8-6.4-2.3s-2.3-3.7-2.3-6.4V71.9c0-2.7,0.8-4.9,2.3-6.4s3.7-2.3,6.4-2.3s4.9,0.8,6.4,2.3s2.3,3.7,2.3,6.4
	V82c4.4-6.4,10.1-11.4,16.9-14.9c6.9-3.5,14.3-5.3,22.2-5.3C1002.8,61.8,1007.8,62.7,1011.6,64.3z"></path>
<path d="M1124.7,70.4c9.7,5.6,17.3,13.2,22.9,23s8.3,20.6,8.3,32.5v53.7c0,2.4-0.8,4.5-2.5,6.2s-3.8,2.5-6.4,2.5s-4.7-0.8-6.4-2.4
	c-1.7-1.6-2.5-3.7-2.5-6.3v-13.7c-5.3,7.3-12.1,13.1-20.4,17.3c-8.2,4.2-17.3,6.3-27.2,6.3c-11.6,0-22.1-2.8-31.4-8.3
	c-9.4-5.6-16.8-13.2-22.2-22.9s-8.1-20.5-8.1-32.4s2.8-22.7,8.3-32.5c5.6-9.8,13.2-17.4,22.9-23s20.5-8.3,32.4-8.3
	C1104.3,62,1115.1,64.8,1124.7,70.4z M1115.9,167.2c7-4.1,12.5-9.8,16.6-17c4-7.2,6.1-15.4,6.1-24.4s-2-17.1-6.1-24.4
	c-4-7.2-9.6-13-16.6-17.1c-7-4.2-14.9-6.3-23.6-6.3s-16.6,2.1-23.7,6.3c-7.1,4.2-12.7,9.9-16.7,17.1s-6.1,15.4-6.1,24.4
	s2,17.1,6.1,24.4c4,7.2,9.6,12.9,16.7,17s15,6.2,23.7,6.2C1101.1,173.4,1108.9,171.3,1115.9,167.2z"></path>
<path d="M1226.4,1c2.6,0,4.7,0.9,6.4,2.6c1.7,1.8,2.5,3.9,2.5,6.5c0,2.4-0.8,4.4-2.5,5.9l-25.6,25.8c-1.5,1.5-3.5,2.3-5.9,2.3
	c-2.6,0-4.7-0.9-6.4-2.6c-1.7-1.8-2.5-3.8-2.5-6.3c0-2.4,0.7-4.4,2.1-5.9l25.8-25.8C1221.9,1.8,1223.9,1,1226.4,1z"></path>
<path d="M1196.4,65.7c1.7-1.7,3.8-2.5,6.4-2.5s4.7,0.8,6.3,2.5c1.6,1.7,2.4,3.8,2.4,6.4v107.2c0,2.6-0.8,4.7-2.4,6.4
	s-3.7,2.5-6.3,2.5c-2.6,0-4.7-0.8-6.4-2.5c-1.7-1.7-2.5-3.8-2.5-6.4V72.1C1193.9,69.5,1194.7,67.4,1196.4,65.7z"></path>
<path d="M700.3,348.2c-6.7-2.5-12.1-5.9-16.2-10.4c-1.2-1.4-1.8-2.8-1.8-4.1c0-2,0.9-3.8,2.8-5.3c1.4-1.1,2.9-1.6,4.4-1.6
	c2,0,3.7,0.8,5.1,2.5c2.8,3.3,6.6,5.8,11.2,7.6c4.6,1.8,9.8,2.6,15.4,2.6c8.2,0,14.4-1.4,18.5-4.2c4.1-2.8,6.2-6.5,6.4-11.1
	c0-4.2-2.1-7.8-6.2-10.6c-4.1-2.8-10.6-4.9-19.6-6.4c-11.5-1.9-20.1-5.1-25.9-9.8c-5.7-4.6-8.6-10.3-8.6-16.9
	c0-8.6,3.3-15.2,10-19.9c6.6-4.7,15-7.1,25-7.1c7.8,0,14.5,1.3,20.3,4c5.8,2.6,10.4,6.3,13.9,11c0.9,1.5,1.4,2.9,1.4,4.1
	c0,2-0.9,3.6-2.8,4.8c-0.8,0.6-1.9,0.9-3.4,0.9c-2.5,0-4.5-0.9-6.2-2.6c-5.8-6.6-13.7-9.9-23.6-9.9c-6.5,0-11.6,1.3-15.5,4
	c-3.9,2.6-5.8,6-5.8,10c0,4.2,1.8,7.6,5.5,10.1c3.6,2.5,10.1,4.6,19.4,6.1c12.6,2.1,21.6,5.6,27,10.3c5.4,4.8,8.1,10.7,8.1,17.7
	c0,5.4-1.6,10.2-4.9,14.5c-3.2,4.2-7.7,7.5-13.5,9.9s-12.3,3.5-19.6,3.5C714,351.9,707,350.6,700.3,348.2z"></path>
<path d="M847,259.7c6.7,4.1,11.9,9.7,15.6,16.9c3.7,7.2,5.6,15.4,5.6,24.5c0,1.9-0.6,3.4-1.8,4.5s-2.7,1.7-4.6,1.7h-71.3
	c0.9,9.6,4.7,17.5,11.3,23.5s14.8,9,24.7,9c4.2,0,8.5-0.7,12.8-2.2s7.7-3.3,10.3-5.6c1.5-1.2,3.1-1.8,4.8-1.8c1.3,0,2.6,0.5,3.9,1.4
	c1.5,1.4,2.3,3,2.3,4.8c0,1.5-0.6,2.9-1.9,4.1c-3.9,3.3-8.8,6-14.8,8.2s-11.8,3.3-17.3,3.3c-9.4,0-17.8-2.1-25.2-6.3
	c-7.4-4.2-13.2-10-17.4-17.5s-6.3-15.9-6.3-25.3c0-9.5,2-18,5.9-25.5s9.4-13.3,16.4-17.5c7-4.2,15-6.3,23.9-6.3
	C832.6,253.6,840.3,255.6,847,259.7z M801.6,274.1c-5.9,5.5-9.5,12.8-10.8,21.9h64.7c-0.9-9.1-4.2-16.4-9.9-21.9
	c-5.6-5.5-12.9-8.3-21.7-8.3C814.9,265.8,807.5,268.5,801.6,274.1z"></path>
<path d="M905.9,345.4c-7.3-4.3-13-10.2-17.2-17.6c-4.2-7.5-6.3-15.8-6.3-25c0-9.4,2-17.9,6-25.3c4-7.5,9.5-13.3,16.6-17.6
	c7.1-4.2,15-6.4,23.8-6.4c14.7,0,26.7,5.6,35.8,16.9c0.9,1.1,1.4,2.3,1.4,3.7c0,1.9-1,3.5-3,4.9c-1.1,0.7-2.2,1.1-3.4,1.1
	c-1.8,0-3.5-0.9-5.1-2.6c-3.5-3.9-7.4-6.8-11.6-8.7c-4.2-1.9-8.9-2.9-14.1-2.9c-6.5,0-12.2,1.6-17.3,4.7s-9,7.5-11.7,13.1
	c-2.8,5.6-4.1,12-4.1,19.1c0,6.9,1.5,13.2,4.4,18.8c2.9,5.6,7.1,10,12.4,13.1c5.3,3.2,11.4,4.8,18.2,4.8c9.4,0,17-2.5,22.8-7.6
	c1.5-1.3,3.1-1.9,4.8-1.9c1.4,0,2.7,0.5,3.9,1.4c1.6,1.4,2.5,3,2.5,4.8c0,1.5-0.6,2.8-1.8,3.9c-8.5,7.9-19.2,11.8-32.1,11.8
	C921.5,351.9,913.2,349.7,905.9,345.4z"></path>
<path d="M1078.5,256.3c1.3,1.2,1.9,2.9,1.9,4.9v82.9c0,2-0.6,3.6-1.9,4.9s-2.9,1.9-4.9,1.9s-3.6-0.6-4.9-1.9
	c-1.2-1.3-1.9-2.9-1.9-4.9v-6c-3.9,4.4-8.6,7.8-14.1,10.2c-5.5,2.5-11.5,3.7-18,3.7c-8.4,0-15.9-1.8-22.5-5.3s-11.9-8.7-15.6-15.4
	c-3.8-6.8-5.6-14.9-5.6-24.3v-45.9c0-1.9,0.6-3.5,1.9-4.8c1.3-1.3,2.9-1.9,4.8-1.9c2,0,3.6,0.6,4.9,1.9c1.3,1.3,1.9,2.9,1.9,4.8V307
	c0,10.5,2.9,18.4,8.7,23.9s13.4,8.2,22.9,8.2c5.8,0,11-1.1,15.6-3.4c4.6-2.2,8.3-5.3,11-9.3c2.7-3.9,4.1-8.3,4.1-13.1v-52.2
	c0-2,0.6-3.6,1.9-4.9c1.2-1.2,2.9-1.9,4.9-1.9C1075.6,254.5,1077.2,255.1,1078.5,256.3z"></path>
<path d="M1167.6,255.3c2.9,1.3,4.3,3.1,4.3,5.5c0,0.7-0.1,1.2-0.2,1.6c-0.5,1.6-1.2,2.8-2.2,3.4s-2.4,0.9-4.1,0.9
	c-1.1,0-2.9-0.1-5.5-0.4c-0.9-0.1-2.4-0.2-4.2-0.2c-8.8,0-16,2.4-21.6,7.1s-8.4,10.8-8.4,18.4v52.8c0,2.1-0.6,3.8-1.8,4.9
	c-1.2,1.2-2.8,1.8-4.9,1.8s-3.8-0.6-4.9-1.8c-1.2-1.2-1.8-2.8-1.8-4.9v-83.1c0-2.1,0.6-3.8,1.8-4.9c1.2-1.2,2.8-1.8,4.9-1.8
	s3.8,0.6,4.9,1.8c1.2,1.2,1.8,2.8,1.8,4.9v7.8c3.4-4.9,7.8-8.8,13.1-11.5c5.3-2.7,11-4.1,17.1-4.1
	C1160.8,253.4,1164.7,254.1,1167.6,255.3z"></path>
<path d="M1197.8,349.1c-1.3-1.3-1.9-2.9-1.9-4.9v-82.8c0-2,0.6-3.6,1.9-4.9c1.3-1.3,2.9-1.9,4.9-1.9s3.6,0.6,4.9,1.9
	c1.2,1.3,1.9,2.9,1.9,4.9v82.8c0,2-0.6,3.6-1.9,4.9c-1.2,1.3-2.9,1.9-4.9,1.9C1200.8,351,1199.1,350.4,1197.8,349.1z"></path>
<path d="M1291.2,339.4c1.2,1.3,1.8,2.9,1.8,4.9c0,1.9-0.7,3.5-2.1,4.8s-3.2,1.9-5.3,1.9h-3.7c-6.2,0-11.8-1.5-16.8-4.5
	c-4.9-3-8.8-7.1-11.6-12.2c-2.8-5.1-4.1-10.9-4.1-17.4v-47.1h-11.5c-1.9,0-3.4-0.6-4.5-1.7s-1.7-2.5-1.7-4.1c0-1.8,0.6-3.2,1.7-4.3
	c1.1-1.1,2.6-1.7,4.5-1.7h11.5v-27.4c0-2,0.6-3.6,1.9-4.9c1.2-1.3,2.9-1.9,4.9-1.9s3.6,0.6,4.9,1.9c1.3,1.3,1.9,2.9,1.9,4.9V258
	h19.9c1.9,0,3.4,0.6,4.5,1.7s1.7,2.6,1.7,4.3c0,1.6-0.6,3-1.7,4.1s-2.6,1.7-4.5,1.7H1263v47.1c0,6,1.8,10.9,5.3,14.7
	c3.5,3.8,8.1,5.7,13.6,5.7h4.8C1288.5,337.4,1290,338.1,1291.2,339.4z"></path>
<path d="M1394.6,260.1c0,1.1-0.2,2.1-0.7,3.2L1336.7,389c-1.1,2.7-2.8,4.1-5.1,4.1c-1.2,0-2.2-0.2-3.2-0.7c-2.7-1.1-4.1-2.8-4.1-5.3
	c0-1.1,0.2-2.1,0.7-3.2l17.5-38.7V345l-39.4-81.5c-0.5-0.9-0.7-2-0.7-3.2c0-2.5,1.3-4.2,3.9-5.3c0.9-0.5,2-0.7,3.2-0.7
	c2.5,0,4.2,1.2,5.3,3.7l34.4,72.5l32.8-72.4c1.2-2.6,2.9-3.9,5.3-3.9c1.1,0,2.1,0.2,3.2,0.7C1393.3,256.1,1394.6,257.8,1394.6,260.1
	z"></path>
<path d="M1197.8,235.3c-1.3-1.3-1.9-2.9-1.9-4.9s0.7-3.6,2-4.9c1.3-1.2,2.9-1.9,4.9-1.9c1.8,0,3.4,0.6,4.7,1.9c1.3,1.2,2,2.9,2,4.9
	c0,1.9-0.7,3.5-2,4.9c-1.3,1.3-3,2-4.9,2S1199.1,236.7,1197.8,235.3z"></path>
<path class="a" d="M337.1,174.3c-10.4,0-20.4,1.7-29.8,4.8c1.7-7.1,2.6-14.4,2.6-22c0-51.9-42.1-93.9-93.9-93.9
	c-38.1,0-72.8,28.5-85.8,55.6c-2.8,5.8-0.6,12.8,5.2,15.8c3.7,1.9,8,1.6,11.4-0.4c1.8-1.1,3.2-2.8,4.4-4.7
	c13.4-21.6,36.2-42.8,64.9-42.8c39,0,70.5,31.6,70.5,70.5c0,17.4-5.3,34.2-16.7,45.6c-9.3,9.3-17.2,15.3-25.4,18.9L219.7,199
	c-4.5-4.2-11.6-3.8-15.7,0.7l-0.6,0.7c-4.2,4.5-3.8,11.6,0.7,15.7l75.1,68.7c4.5,4.2,11.6,3.8,15.7-0.7l0.6-0.7
	c4.2-4.5,3.8-11.6-0.7-15.7l-24.4-22.3c2.9-8.5,10-20.1,16.6-26.8c12.8-13,30.5-21,50.2-21c39,0,70.5,31.6,70.5,70.5
	s-31.6,70.5-70.5,70.5c-18.4,0-34.2-8.3-47.8-18.7c-4.1-3.1-93.1-82.7-121.6-111.2c-19.3-19.3-43.4-34.6-72.8-34.6
	c-51.9,0-93.9,42.1-93.9,93.9s42.1,93.9,93.9,93.9c38.1,0,70.9-22.7,85.6-55.3l23.8,21.8c4.5,4.2,11.6,3.8,15.7-0.7
	c4.2-4.5,3.8-11.6-0.7-15.7l-74.3-68.1c-4.5-4.2-11.6-3.8-15.7,0.7c-4.2,4.5-3.8,11.6,0.7,15.7l32,29.3
	c-9.1,28.3-35.7,48.9-67.1,48.9c-39,0-70.5-31.6-70.5-70.5s31.6-70.5,70.5-70.5c19.2,0,35.8,8.4,49.2,20
	c0.3,0.2,102,91.6,120.2,109.8c19.2,19.2,43.4,34.6,72.7,34.6c51.9,0,93.9-42.1,93.9-93.9S389,174.3,337.1,174.3z"></path>
<path class="b" d="M576.6,67.2c7.5,3.4,13.5,8.2,18.1,14.3c1.2,2,1.8,3.7,1.8,5.3c0,2.6-1.2,4.7-3.7,6.2c-1.1,0.8-2.5,1.1-4.3,1.1
	c-3.2,0-5.9-1.1-8-3.4c-7.5-8.5-17.7-12.8-30.6-12.8c-8.4,0-15.1,1.7-20.1,5.1s-7.5,7.7-7.5,12.9c0,5.5,2.4,9.9,7.1,13.1
	c4.7,3.3,13.1,5.9,25.2,7.9c16.3,2.7,28,7.2,35,13.4s10.5,13.8,10.5,23c0,7-2.1,13.3-6.3,18.7c-4.2,5.5-10,9.8-17.5,12.8
	s-15.9,4.6-25.4,4.6s-18.5-1.6-27.2-4.8s-15.7-7.7-21-13.5c-1.5-1.8-2.3-3.6-2.3-5.3c0-2.6,1.2-4.9,3.7-6.9c1.8-1.4,3.7-2.1,5.7-2.1
	c2.6,0,4.8,1.1,6.6,3.2c3.7,4.3,8.5,7.5,14.5,9.8s12.7,3.4,20,3.4c10.7,0,18.7-1.8,24-5.5s8.1-8.5,8.2-14.4c0-5.5-2.7-10.1-8-13.7
	c-5.3-3.7-13.8-6.4-25.4-8.2c-14.9-2.4-26.1-6.7-33.5-12.7c-7.4-6-11.1-13.3-11.1-21.8c0-11.1,4.3-19.7,12.9-25.8
	c8.6-6.1,19.4-9.1,32.4-9.1C560.3,62,569.1,63.8,576.6,67.2z"></path>
<path class="b" d="M719.7,70.3c9.6,5.5,17.2,13.1,22.8,22.9s8.3,20.7,8.3,32.7s-2.7,22.9-8.2,32.6s-13.1,17.3-22.7,22.7
	c-9.7,5.5-20.5,8.2-32.6,8.2c-12,0-22.9-2.7-32.6-8.2s-17.3-13.1-22.7-22.7c-5.5-9.7-8.2-20.5-8.2-32.6c0-12,2.7-22.9,8.2-32.7
	s13.1-17.4,22.7-22.9c9.7-5.5,20.5-8.2,32.6-8.2C699.3,62,710.1,64.8,719.7,70.3z M663.6,84.2c-7.1,4.1-12.7,9.8-16.7,17
	s-6.1,15.4-6.1,24.6c0,9,2,17.1,6.1,24.4c4,7.2,9.6,12.9,16.7,17c7.1,4.1,15,6.2,23.7,6.2c8.8,0,16.8-2.1,23.8-6.2
	c7-4.1,12.5-9.8,16.5-17s5.9-15.4,5.9-24.4c0-9.1-2-17.3-5.9-24.6c-4-7.2-9.5-12.9-16.5-17S696.2,78,687.3,78
	C678.5,78,670.7,80.1,663.6,84.2z"></path>
<path class="b" d="M873.5,68.7c8.6,4.6,15.4,11.2,20.2,20c4.9,8.8,7.3,19.2,7.3,31.4v59.4c0,2.4-0.8,4.5-2.5,6.2s-3.7,2.5-6.2,2.5
	c-2.6,0-4.7-0.8-6.4-2.5s-2.5-3.7-2.5-6.2v-59.4c0-13.6-3.8-23.9-11.3-31s-17.4-10.6-29.6-10.6c-7.5,0-14.2,1.4-20.2,4.3
	s-10.8,6.9-14.3,12s-5.3,10.8-5.3,17v67.7c0,2.6-0.8,4.7-2.4,6.3c-1.6,1.6-3.7,2.4-6.3,2.4s-4.7-0.8-6.4-2.4
	c-1.7-1.6-2.5-3.7-2.5-6.3V72.1c0-2.6,0.8-4.7,2.5-6.4c1.7-1.7,3.8-2.5,6.4-2.5s4.7,0.8,6.3,2.5c1.6,1.7,2.4,3.8,2.4,6.4v7.8
	c5-5.6,11.1-10.1,18.3-13.3c7.2-3.2,14.9-4.8,23.3-4.8C855.1,61.8,864.8,64.1,873.5,68.7z"></path>
<path class="b" d="M1011.6,64.3c3.7,1.7,5.6,4,5.6,7.1c0,0.9-0.1,1.6-0.2,2.1c-0.6,2.1-1.6,3.6-2.9,4.3c-1.3,0.8-3.1,1.1-5.4,1.1
	c-1.4,0-3.7-0.2-7.1-0.5c-1.2-0.2-3.1-0.2-5.5-0.2c-11.4,0-20.8,3.1-28,9.1c-7.2,6.1-10.9,14-10.9,23.8v68.4c0,2.7-0.8,4.9-2.3,6.4
	s-3.7,2.3-6.4,2.3s-4.9-0.8-6.4-2.3s-2.3-3.7-2.3-6.4V71.9c0-2.7,0.8-4.9,2.3-6.4s3.7-2.3,6.4-2.3s4.9,0.8,6.4,2.3s2.3,3.7,2.3,6.4
	V82c4.4-6.4,10.1-11.4,16.9-14.9c6.9-3.5,14.3-5.3,22.2-5.3C1002.8,61.8,1007.8,62.7,1011.6,64.3z"></path>
<path class="b" d="M1124.7,70.4c9.7,5.6,17.3,13.2,22.9,23s8.3,20.6,8.3,32.5v53.7c0,2.4-0.8,4.5-2.5,6.2s-3.8,2.5-6.4,2.5
	s-4.7-0.8-6.4-2.4c-1.7-1.6-2.5-3.7-2.5-6.3v-13.7c-5.3,7.3-12.1,13.1-20.4,17.3c-8.2,4.2-17.3,6.3-27.2,6.3
	c-11.6,0-22.1-2.8-31.4-8.3c-9.4-5.6-16.8-13.2-22.2-22.9s-8.1-20.5-8.1-32.4s2.8-22.7,8.3-32.5c5.6-9.8,13.2-17.4,22.9-23
	s20.5-8.3,32.4-8.3C1104.3,62,1115.1,64.8,1124.7,70.4z M1115.9,167.2c7-4.1,12.5-9.8,16.6-17c4-7.2,6.1-15.4,6.1-24.4
	s-2-17.1-6.1-24.4c-4-7.2-9.6-13-16.6-17.1c-7-4.2-14.9-6.3-23.6-6.3s-16.6,2.1-23.7,6.3c-7.1,4.2-12.7,9.9-16.7,17.1
	s-6.1,15.4-6.1,24.4s2,17.1,6.1,24.4c4,7.2,9.6,12.9,16.7,17s15,6.2,23.7,6.2C1101.1,173.4,1108.9,171.3,1115.9,167.2z"></path>
<path class="b" d="M1226.4,1c2.6,0,4.7,0.9,6.4,2.6c1.7,1.8,2.5,3.9,2.5,6.5c0,2.4-0.8,4.4-2.5,5.9l-25.6,25.8
	c-1.5,1.5-3.5,2.3-5.9,2.3c-2.6,0-4.7-0.9-6.4-2.6c-1.7-1.8-2.5-3.8-2.5-6.3c0-2.4,0.7-4.4,2.1-5.9l25.8-25.8
	C1221.9,1.8,1223.9,1,1226.4,1z"></path>
<path class="b" d="M1196.4,65.7c1.7-1.7,3.8-2.5,6.4-2.5s4.7,0.8,6.3,2.5c1.6,1.7,2.4,3.8,2.4,6.4v107.2c0,2.6-0.8,4.7-2.4,6.4
	s-3.7,2.5-6.3,2.5c-2.6,0-4.7-0.8-6.4-2.5c-1.7-1.7-2.5-3.8-2.5-6.4V72.1C1193.9,69.5,1194.7,67.4,1196.4,65.7z"></path>
<path class="b" d="M700.3,348.2c-6.7-2.5-12.1-5.9-16.2-10.4c-1.2-1.4-1.8-2.8-1.8-4.1c0-2,0.9-3.8,2.8-5.3
	c1.4-1.1,2.9-1.6,4.4-1.6c2,0,3.7,0.8,5.1,2.5c2.8,3.3,6.6,5.8,11.2,7.6c4.6,1.8,9.8,2.6,15.4,2.6c8.2,0,14.4-1.4,18.5-4.2
	c4.1-2.8,6.2-6.5,6.4-11.1c0-4.2-2.1-7.8-6.2-10.6c-4.1-2.8-10.6-4.9-19.6-6.4c-11.5-1.9-20.1-5.1-25.9-9.8
	c-5.7-4.6-8.6-10.3-8.6-16.9c0-8.6,3.3-15.2,10-19.9c6.6-4.7,15-7.1,25-7.1c7.8,0,14.5,1.3,20.3,4c5.8,2.6,10.4,6.3,13.9,11
	c0.9,1.5,1.4,2.9,1.4,4.1c0,2-0.9,3.6-2.8,4.8c-0.8,0.6-1.9,0.9-3.4,0.9c-2.5,0-4.5-0.9-6.2-2.6c-5.8-6.6-13.7-9.9-23.6-9.9
	c-6.5,0-11.6,1.3-15.5,4c-3.9,2.6-5.8,6-5.8,10c0,4.2,1.8,7.6,5.5,10.1c3.6,2.5,10.1,4.6,19.4,6.1c12.6,2.1,21.6,5.6,27,10.3
	c5.4,4.8,8.1,10.7,8.1,17.7c0,5.4-1.6,10.2-4.9,14.5c-3.2,4.2-7.7,7.5-13.5,9.9s-12.3,3.5-19.6,3.5C714,351.9,707,350.6,700.3,348.2
	z"></path>
<path class="b" d="M847,259.7c6.7,4.1,11.9,9.7,15.6,16.9c3.7,7.2,5.6,15.4,5.6,24.5c0,1.9-0.6,3.4-1.8,4.5s-2.7,1.7-4.6,1.7
	h-71.3c0.9,9.6,4.7,17.5,11.3,23.5s14.8,9,24.7,9c4.2,0,8.5-0.7,12.8-2.2s7.7-3.3,10.3-5.6c1.5-1.2,3.1-1.8,4.8-1.8
	c1.3,0,2.6,0.5,3.9,1.4c1.5,1.4,2.3,3,2.3,4.8c0,1.5-0.6,2.9-1.9,4.1c-3.9,3.3-8.8,6-14.8,8.2s-11.8,3.3-17.3,3.3
	c-9.4,0-17.8-2.1-25.2-6.3c-7.4-4.2-13.2-10-17.4-17.5s-6.3-15.9-6.3-25.3c0-9.5,2-18,5.9-25.5s9.4-13.3,16.4-17.5
	c7-4.2,15-6.3,23.9-6.3C832.6,253.6,840.3,255.6,847,259.7z M801.6,274.1c-5.9,5.5-9.5,12.8-10.8,21.9h64.7
	c-0.9-9.1-4.2-16.4-9.9-21.9c-5.6-5.5-12.9-8.3-21.7-8.3C814.9,265.8,807.5,268.5,801.6,274.1z"></path>
<path class="b" d="M905.9,345.4c-7.3-4.3-13-10.2-17.2-17.6c-4.2-7.5-6.3-15.8-6.3-25c0-9.4,2-17.9,6-25.3
	c4-7.5,9.5-13.3,16.6-17.6c7.1-4.2,15-6.4,23.8-6.4c14.7,0,26.7,5.6,35.8,16.9c0.9,1.1,1.4,2.3,1.4,3.7c0,1.9-1,3.5-3,4.9
	c-1.1,0.7-2.2,1.1-3.4,1.1c-1.8,0-3.5-0.9-5.1-2.6c-3.5-3.9-7.4-6.8-11.6-8.7c-4.2-1.9-8.9-2.9-14.1-2.9c-6.5,0-12.2,1.6-17.3,4.7
	s-9,7.5-11.7,13.1c-2.8,5.6-4.1,12-4.1,19.1c0,6.9,1.5,13.2,4.4,18.8c2.9,5.6,7.1,10,12.4,13.1c5.3,3.2,11.4,4.8,18.2,4.8
	c9.4,0,17-2.5,22.8-7.6c1.5-1.3,3.1-1.9,4.8-1.9c1.4,0,2.7,0.5,3.9,1.4c1.6,1.4,2.5,3,2.5,4.8c0,1.5-0.6,2.8-1.8,3.9
	c-8.5,7.9-19.2,11.8-32.1,11.8C921.5,351.9,913.2,349.7,905.9,345.4z"></path>
<path class="b" d="M1078.5,256.3c1.3,1.2,1.9,2.9,1.9,4.9v82.9c0,2-0.6,3.6-1.9,4.9s-2.9,1.9-4.9,1.9s-3.6-0.6-4.9-1.9
	c-1.2-1.3-1.9-2.9-1.9-4.9v-6c-3.9,4.4-8.6,7.8-14.1,10.2c-5.5,2.5-11.5,3.7-18,3.7c-8.4,0-15.9-1.8-22.5-5.3s-11.9-8.7-15.6-15.4
	c-3.8-6.8-5.6-14.9-5.6-24.3v-45.9c0-1.9,0.6-3.5,1.9-4.8c1.3-1.3,2.9-1.9,4.8-1.9c2,0,3.6,0.6,4.9,1.9c1.3,1.3,1.9,2.9,1.9,4.8V307
	c0,10.5,2.9,18.4,8.7,23.9s13.4,8.2,22.9,8.2c5.8,0,11-1.1,15.6-3.4c4.6-2.2,8.3-5.3,11-9.3c2.7-3.9,4.1-8.3,4.1-13.1v-52.2
	c0-2,0.6-3.6,1.9-4.9c1.2-1.2,2.9-1.9,4.9-1.9C1075.6,254.5,1077.2,255.1,1078.5,256.3z"></path>
<path class="b" d="M1167.6,255.3c2.9,1.3,4.3,3.1,4.3,5.5c0,0.7-0.1,1.2-0.2,1.6c-0.5,1.6-1.2,2.8-2.2,3.4s-2.4,0.9-4.1,0.9
	c-1.1,0-2.9-0.1-5.5-0.4c-0.9-0.1-2.4-0.2-4.2-0.2c-8.8,0-16,2.4-21.6,7.1s-8.4,10.8-8.4,18.4v52.8c0,2.1-0.6,3.8-1.8,4.9
	c-1.2,1.2-2.8,1.8-4.9,1.8s-3.8-0.6-4.9-1.8c-1.2-1.2-1.8-2.8-1.8-4.9v-83.1c0-2.1,0.6-3.8,1.8-4.9c1.2-1.2,2.8-1.8,4.9-1.8
	s3.8,0.6,4.9,1.8c1.2,1.2,1.8,2.8,1.8,4.9v7.8c3.4-4.9,7.8-8.8,13.1-11.5c5.3-2.7,11-4.1,17.1-4.1
	C1160.8,253.4,1164.7,254.1,1167.6,255.3z"></path>
<path class="b" d="M1197.8,349.1c-1.3-1.3-1.9-2.9-1.9-4.9v-82.8c0-2,0.6-3.6,1.9-4.9c1.3-1.3,2.9-1.9,4.9-1.9s3.6,0.6,4.9,1.9
	c1.2,1.3,1.9,2.9,1.9,4.9v82.8c0,2-0.6,3.6-1.9,4.9c-1.2,1.3-2.9,1.9-4.9,1.9C1200.8,351,1199.1,350.4,1197.8,349.1z"></path>
<path class="b" d="M1291.2,339.4c1.2,1.3,1.8,2.9,1.8,4.9c0,1.9-0.7,3.5-2.1,4.8s-3.2,1.9-5.3,1.9h-3.7c-6.2,0-11.8-1.5-16.8-4.5
	c-4.9-3-8.8-7.1-11.6-12.2c-2.8-5.1-4.1-10.9-4.1-17.4v-47.1h-11.5c-1.9,0-3.4-0.6-4.5-1.7s-1.7-2.5-1.7-4.1c0-1.8,0.6-3.2,1.7-4.3
	c1.1-1.1,2.6-1.7,4.5-1.7h11.5v-27.4c0-2,0.6-3.6,1.9-4.9c1.2-1.3,2.9-1.9,4.9-1.9s3.6,0.6,4.9,1.9c1.3,1.3,1.9,2.9,1.9,4.9V258
	h19.9c1.9,0,3.4,0.6,4.5,1.7s1.7,2.6,1.7,4.3c0,1.6-0.6,3-1.7,4.1s-2.6,1.7-4.5,1.7H1263v47.1c0,6,1.8,10.9,5.3,14.7
	c3.5,3.8,8.1,5.7,13.6,5.7h4.8C1288.5,337.4,1290,338.1,1291.2,339.4z"></path>
<path class="b" d="M1394.6,260.1c0,1.1-0.2,2.1-0.7,3.2L1336.7,389c-1.1,2.7-2.8,4.1-5.1,4.1c-1.2,0-2.2-0.2-3.2-0.7
	c-2.7-1.1-4.1-2.8-4.1-5.3c0-1.1,0.2-2.1,0.7-3.2l17.5-38.7V345l-39.4-81.5c-0.5-0.9-0.7-2-0.7-3.2c0-2.5,1.3-4.2,3.9-5.3
	c0.9-0.5,2-0.7,3.2-0.7c2.5,0,4.2,1.2,5.3,3.7l34.4,72.5l32.8-72.4c1.2-2.6,2.9-3.9,5.3-3.9c1.1,0,2.1,0.2,3.2,0.7
	C1393.3,256.1,1394.6,257.8,1394.6,260.1z"></path>
<path class="b" d="M1197.8,235.3c-1.3-1.3-1.9-2.9-1.9-4.9s0.7-3.6,2-4.9c1.3-1.2,2.9-1.9,4.9-1.9c1.8,0,3.4,0.6,4.7,1.9
	c1.3,1.2,2,2.9,2,4.9c0,1.9-0.7,3.5-2,4.9c-1.3,1.3-3,2-4.9,2S1199.1,236.7,1197.8,235.3z"></path>
</svg>