<?xml version="1.0" encoding="UTF-8"?>
<svg xmlns="http://www.w3.org/2000/svg" width="250" height="53" viewBox="0 0 250 53" fill="none">
  <path d="M69.375 13.1258C70.7328 13.1101 72.0837 13.3208 73.3719 13.7494C74.5283 14.1331 75.5961 14.7436 76.5125 15.5451C77.3901 16.3225 78.0893 17.2796 78.5625 18.351C79.0634 19.5046 79.3137 20.7509 79.2969 22.008C79.3154 23.2572 79.065 24.4957 78.5625 25.6401C78.0827 26.7077 77.3844 27.6634 76.5125 28.4459C75.5983 29.2601 74.5306 29.8843 73.3719 30.2822C72.089 30.7375 70.7367 30.9674 69.375 30.9619H64.6V40.6952H58.9469V13.1258H69.375ZM64.6 18.0829V26.0329H69.3313C70.6729 26.0329 71.7063 25.664 72.4313 24.9261C72.7984 24.5398 73.0839 24.0838 73.2707 23.5851C73.4575 23.0865 73.5419 22.5554 73.5188 22.0236C73.5408 21.5013 73.4557 20.9799 73.2687 20.4916C73.0817 20.0032 72.7967 19.5581 72.4313 19.1834C71.7021 18.4497 70.6688 18.0829 69.3313 18.0829H64.6Z" fill="white"></path>
  <path d="M92.6531 19.7669C93.2628 19.7542 93.8706 19.8394 94.4531 20.0194V24.9889H92.9469C91.3281 24.9889 90.0021 25.4202 88.9688 26.2827C87.9354 27.1453 87.4146 28.5108 87.4063 30.3793V40.6956H81.7656V20.0194H86.9594V22.4823C87.6201 21.6189 88.4769 20.9243 89.4594 20.4559C90.459 19.9909 91.5503 19.7555 92.6531 19.7669Z" fill="white"></path>
  <path d="M162.922 31.5872C162.943 32.9523 162.694 34.3082 162.191 35.5778C161.733 36.712 161.049 37.7418 160.181 38.605C159.32 39.446 158.293 40.0999 157.166 40.5255C155.968 40.9793 154.697 41.2066 153.416 41.1958C152.123 41.2091 150.838 40.9828 149.628 40.5286C148.502 40.103 147.476 39.4491 146.616 38.6081C145.746 37.7457 145.061 36.7157 144.603 35.5809C144.1 34.3114 143.851 32.9554 143.872 31.5903V20.0176H149.481V32.0455C149.481 33.2738 149.858 34.2424 150.613 34.9511C151.372 35.6631 152.383 36.0454 153.425 36.0142C154.451 36.038 155.444 35.6557 156.188 34.9511C156.942 34.2403 157.319 33.2717 157.319 32.0455V20.0176H162.944L162.922 31.5872Z" fill="white"></path>
  <path d="M200.816 24.7796H194.909V32.926C194.909 34.1232 195.222 34.9545 195.847 35.4201C196.472 35.894 197.444 36.1278 198.756 36.1278C199.091 36.1278 199.481 36.1278 199.928 36.0873C200.375 36.0468 200.866 36.0187 201.434 35.9626V40.6827C200.85 40.8199 200.234 40.9383 199.594 41.0381C198.914 41.138 198.228 41.187 197.541 41.1846C194.976 41.1846 192.953 40.5611 191.472 39.3141C189.991 38.067 189.251 36.1039 189.253 33.4248V24.7796H185.991V20.0189H189.259V14.7969H194.909V20.0189H200.816V24.7796Z" fill="white"></path>
  <path d="M209.522 20.0176H203.869V40.6938H209.522V20.0176Z" fill="white"></path>
  <path d="M105.841 19.1895C103.631 19.1895 101.471 19.8431 99.6338 21.0678C97.7966 22.2925 96.3647 24.0332 95.5191 26.0698C94.6735 28.1064 94.4523 30.3474 94.8834 32.5094C95.3144 34.6715 96.3785 36.6574 97.9409 38.2162C99.5033 39.7749 101.494 40.8364 103.661 41.2665C105.828 41.6965 108.074 41.4758 110.116 40.6322C112.157 39.7886 113.902 38.3601 115.13 36.5272C116.357 34.6943 117.012 32.5394 117.012 30.335C117.012 27.379 115.835 24.5441 113.74 22.4539C111.645 20.3637 108.804 19.1895 105.841 19.1895ZM105.841 35.9749C104.722 35.9749 103.63 35.6441 102.7 35.0244C101.77 34.4047 101.046 33.5239 100.618 32.4933C100.19 31.4628 100.078 30.3288 100.296 29.2348C100.514 28.1407 101.053 27.1358 101.843 26.3471C102.634 25.5583 103.641 25.0212 104.738 24.8036C105.834 24.586 106.971 24.6977 108.004 25.1245C109.037 25.5514 109.92 26.2743 110.541 27.2017C111.162 28.1292 111.494 29.2196 111.494 30.335C111.494 31.0758 111.348 31.8094 111.064 32.4938C110.78 33.1782 110.364 33.8001 109.839 34.3239C109.314 34.8477 108.69 35.2631 108.004 35.5464C107.318 35.8297 106.583 35.9753 105.841 35.9749Z" fill="white"></path>
  <path d="M180.987 33.0225C180.388 34.1266 179.437 35 178.285 35.5043C177.133 36.0086 175.844 36.1151 174.624 35.8069C173.404 35.4986 172.322 34.7933 171.549 33.8025C170.776 32.8118 170.357 31.5921 170.357 30.3366C170.357 29.0811 170.776 27.8614 171.549 26.8707C172.322 25.8799 173.404 25.1746 174.624 24.8663C175.844 24.5581 177.133 24.6646 178.285 25.1689C179.437 25.6732 180.388 26.5466 180.987 27.6507L184.972 23.6726C183.569 21.7952 181.608 20.4064 179.369 19.7034C177.13 19.0004 174.726 19.019 172.498 19.7565C170.27 20.494 168.331 21.9129 166.957 23.8118C165.583 25.7107 164.844 27.9931 164.844 30.335C164.844 32.677 165.583 34.9594 166.957 36.8583C168.331 38.7572 170.27 40.1761 172.498 40.9136C174.726 41.6511 177.13 41.6696 179.369 40.9667C181.608 40.2637 183.569 38.8749 184.972 36.9975L180.987 33.0225Z" fill="white"></path>
  <path d="M223.541 40.6938L233.556 20.0176H227.609L222.334 31.7119L217.144 20.0176H211.156L221.212 40.6938H223.541Z" fill="white"></path>
  <path d="M20.8656 21.9508L5.04065 16.5137V42.1345L20.8656 47.5717V21.9508Z" fill="#00BAF1"></path>
  <path d="M25.1188 5.95703V38.1062C29.3921 38.1062 33.4904 36.4126 36.512 33.3981C39.5337 30.3835 41.2313 26.2949 41.2313 22.0316C41.2313 17.7684 39.5337 13.6797 36.512 10.6652C33.4904 7.6506 29.3921 5.95703 25.1188 5.95703Z" fill="#00BAF1"></path>
  <path d="M141.1 29.4655V12.2031H135.475V20.6488C133.758 19.6733 131.812 19.1696 129.836 19.1891C127.86 19.2087 125.924 19.7508 124.227 20.7602C122.529 21.7695 121.131 23.21 120.173 24.9347C119.216 26.6594 118.734 28.6066 118.777 30.5776C118.821 32.5486 119.387 34.473 120.419 36.1543C121.451 37.8356 122.911 39.2138 124.651 40.1483C126.391 41.0827 128.349 41.54 130.324 41.4734C132.299 41.4068 134.221 40.8188 135.894 39.7694V40.8637H141.087V29.4655H141.1ZM135.522 31.4109C135.253 32.7808 134.483 34.0022 133.363 34.8386C132.243 35.6751 130.851 36.0671 129.458 35.9388C128.065 35.8105 126.769 35.1709 125.821 34.144C124.873 33.1171 124.341 31.7759 124.328 30.38C124.314 28.9841 124.821 27.633 125.748 26.5881C126.676 25.5432 127.96 24.879 129.35 24.7241C130.741 24.5691 132.14 24.9344 133.276 25.7493C134.412 26.5642 135.204 27.7706 135.5 29.1351C135.586 29.5294 135.628 29.9319 135.625 30.3354C135.623 30.6969 135.585 31.0573 135.509 31.4109H135.522Z" fill="white"></path>
  <path d="M206.697 16.0318C208.609 16.0318 210.159 14.4852 210.159 12.5774C210.159 10.6696 208.609 9.12305 206.697 9.12305C204.785 9.12305 203.234 10.6696 203.234 12.5774C203.234 14.4852 204.785 16.0318 206.697 16.0318Z" fill="#00BAF1"></path>
  <path d="M237.013 24.2841V20.9419H235.806V20.1719H239.097V20.9419H237.897V24.2841H237.013Z" fill="white"></path>
  <path d="M243.244 24.2841V21.3192L242.081 24.2841H241.7L240.538 21.3192V24.2841H239.659V20.1719H240.888L241.891 22.7595L242.891 20.1875H244.141V24.2841H243.244Z" fill="white"></path>
</svg>
