<svg width="140px" height="42px" viewBox="0 0 169 42" version="1.1" xmlns="http://www.w3.org/2000/svg" xmlns:xlink="http://www.w3.org/1999/xlink"><g id="Page-1" stroke="none" stroke-width="1" fill="none" fill-rule="evenodd" data-darkreader-inline-stroke="" style="--darkreader-inline-stroke: none;"><g id="Automox---Homepage-Design---V5" transform="translate(-188.000000, -26.000000)"><g id="Nav-Bar" transform="translate(0.000000, -1.000000)"><g id="AX-logo" transform="translate(188.000000, 27.000000)"><g id="Group-8" transform="translate(56.000000, 14.000000)" fill="#383838" data-darkreader-inline-fill="" style="--darkreader-inline-fill: var(--darkreader-background-383838, #2a2e2f);"><path d="M9.73020243,8.6982996 L7.29781377,3.08663968 L4.8848583,8.6982996 L9.73020243,8.6982996 Z M6.19206478,0.140566802 L8.48323887,0.140566802 L14.6753036,14.2697976 L12.0615385,14.2697976 L10.6344939,10.8825911 L3.9805668,10.8825911 L2.53214575,14.2697976 L8.70414851e-14,14.2697976 L6.19206478,0.140566802 L6.19206478,0.140566802 Z" id="Fill-1"></path><path d="M17.5280972,8.31740891 L17.5280972,0.240323887 L20.0012955,0.240323887 L20.0012955,8.21765182 C20.0012955,10.822996 21.3480162,12.2254251 23.5595142,12.2254251 C25.7502834,12.2254251 27.0976518,10.9026721 27.0976518,8.31740891 L27.0976518,0.240323887 L29.5708502,0.240323887 L29.5708502,8.19757085 C29.5708502,12.3854251 27.1980567,14.4900405 23.5193522,14.4900405 C19.860081,14.4900405 17.5280972,12.3854251 17.5280972,8.31740891" id="Fill-2"></path><polyline id="Fill-3" points="37.5481781 2.52566802 33.0850202 2.52566802 33.0850202 0.240323887 44.5039676 0.240323887 44.5039676 2.52566802 40.0414575 2.52566802 40.0414575 14.2704453 37.5481781 14.2704453 37.5481781 2.52566802"></polyline><path d="M58.5962753,7.29522267 L58.5962753,7.25506073 C58.5962753,4.52923077 56.6069636,2.26461538 53.8118219,2.26461538 C51.0179757,2.26461538 49.0675304,4.4897166 49.0675304,7.21554656 L49.0675304,7.25506073 C49.0675304,9.98024291 51.0574899,12.2468016 53.8526316,12.2468016 C56.6471255,12.2468016 58.5962753,10.0204049 58.5962753,7.29522267 M46.4738462,7.29522267 L46.4738462,7.25506073 C46.4738462,3.30688259 49.5293927,-6.92779167e-14 53.8526316,-6.92779167e-14 C58.1752227,-6.92779167e-14 61.1899595,3.26607287 61.1899595,7.21554656 L61.1899595,7.25506073 C61.1899595,11.2032389 58.134413,14.5101215 53.8118219,14.5101215 C49.4905263,14.5101215 46.4738462,11.2440486 46.4738462,7.29522267" id="Fill-4"></path><polyline id="Fill-5" points="65.2916599 0.240323887 67.9255061 0.240323887 72.2072874 6.87417004 76.4890688 0.240323887 79.122915 0.240323887 79.122915 14.2704453 76.6497166 14.2704453 76.6497166 4.20923077 72.2072874 10.8223482 72.1263158 10.8223482 67.7240486 4.24939271 67.7240486 14.2704453 65.2916599 14.2704453 65.2916599 0.240323887"></polyline><path d="M95.3282591,7.29522267 L95.3282591,7.25506073 C95.3282591,4.52923077 93.3382996,2.26461538 90.5444534,2.26461538 C87.748664,2.26461538 85.7988664,4.4897166 85.7988664,7.21554656 L85.7988664,7.25506073 C85.7988664,9.98024291 87.7894737,12.2468016 90.5833198,12.2468016 C93.3784615,12.2468016 95.3282591,10.0204049 95.3282591,7.29522267 M83.20583,7.29522267 L83.20583,7.25506073 C83.20583,3.30688259 86.2613765,-6.92779167e-14 90.5833198,-6.92779167e-14 C94.9059109,-6.92779167e-14 97.9212955,3.26607287 97.9212955,7.21554656 L97.9212955,7.25506073 C97.9212955,11.2032389 94.8651012,14.5101215 90.5444534,14.5101215 C86.2218623,14.5101215 83.20583,11.2440486 83.20583,7.29522267" id="Fill-6"></path><polyline id="Fill-7" points="104.814899 7.13522267 99.8892308 0.240323887 102.804858 0.240323887 106.302834 5.27093117 109.820243 0.240323887 112.654899 0.240323887 107.74996 7.09441296 112.856356 14.2704453 109.942024 14.2704453 106.242591 8.95805668 102.523725 14.2704453 99.6884211 14.2704453 104.814899 7.13522267"></polyline></g><path d="M36.0807834,35.9281067 L26.2741496,18.1275733 L28.2838726,14.88928 L42.1695051,39.6084267 L5.96735435,39.6084267 L3.61539053,35.9281067 L36.0807834,35.9281067 Z M9.35885602,29.9824 L9.27141121,30.12352 L30.1073983,30.09216 L32.0055538,33.5365333 L3.53096106,33.5365333 L21.9991539,2.39157333 L26.2628421,2.39157333 L9.35885602,29.9824 Z M20.3241335,27.7170133 L24.8124644,20.4810667 L28.791957,27.7028267 L20.3241335,27.7170133 Z M17.4791619,27.72 L13.573545,27.72672 L28.3803634,3.55712 L46.2371964,34.4750933 L44.1995815,38.29056 L28.4663005,10.2823467 L28.3871479,10.1434667 L17.4791619,27.72 Z M29.7892802,1.16554667 L29.1153521,0 L20.6090829,0 L0,34.75584 L4.63155951,42 L44.9571853,42 L48.9758773,34.4765867 L49,34.4317867 L29.7892802,1.16554667 L29.7892802,1.16554667 Z" id="Fill-9" fill="#009CC9" data-darkreader-inline-fill="" style="--darkreader-inline-fill: var(--darkreader-background-009cc9, #007da1);"></path></g></g></g></g></svg>