<svg fill="none" height="29" viewBox="0 0 140 29" width="140" xmlns="http://www.w3.org/2000/svg"><path d="M14.35 7.64033C15.553 8.88199 16.1551 10.7249 16.1551 13.1666V22.7291H11.5729V13.9128C11.5729 12.5879 11.2979 11.6006 10.7503 10.9482C10.2027 10.2959 9.40979 9.97037 8.3715 9.97037C7.21587 9.97037 6.29611 10.3482 5.61102 11.1027C4.92476 11.8584 4.58222 12.9812 4.58222 14.4712V22.7291H0V7.4229L4.37717 5.32812V7.98253C4.98284 7.27913 5.73666 6.73494 6.63746 6.35234C7.53826 5.96856 8.52677 5.77726 9.60417 5.77726C11.561 5.77726 13.1434 6.39868 14.3476 7.63915" fill="#09344F"></path><path d="M19.5654 7.42494V22.7288H24.1441V5.32898L19.5654 7.42494Z" fill="#09344F"></path><path d="M24.1441 0.00366211V3.93061L19.5654 6.02657V2.09962L24.1441 0.00366211Z" fill="#09344F"></path><path d="M47.0662 2.10309V6.03004L51.6448 3.92695V0L47.0662 2.10309Z" fill="#09344F"></path><path d="M42.0106 7.64033C43.2136 8.88199 43.8157 10.7249 43.8157 13.1666V22.7291H39.2335V13.9128C39.2335 12.5879 38.9585 11.6006 38.411 10.9482C37.8634 10.2959 37.0704 9.97037 36.0321 9.97037C34.8777 9.97037 33.9567 10.3482 33.2717 11.1027C32.5854 11.8584 32.2429 12.9812 32.2429 14.4712V22.7291H27.6606V7.4229L32.0378 5.32812V7.98253C32.6435 7.27913 33.3973 6.73494 34.2981 6.35234C35.1989 5.96856 36.1874 5.77726 37.2648 5.77726C39.2217 5.77726 40.804 6.39868 42.0082 7.63915" fill="#09344F"></path><path d="M51.6485 5.37048V22.6966C51.6485 24.6417 51.1222 26.178 50.0768 27.3091C49.0279 28.4367 47.5653 28.9999 45.6854 28.9999C44.0794 28.9999 42.8586 28.6886 42.0159 28.0696L43.2473 24.5609C43.776 24.9542 44.4219 25.1478 45.1853 25.1478C45.7743 25.1478 46.2318 24.9482 46.5661 24.5442C46.8991 24.1402 47.0663 23.5355 47.0663 22.7275V7.47357L51.6485 5.37048Z" fill="#09344F"></path><path d="M71.1761 7.42137V22.7276H66.8001V20.8027C65.6646 22.2523 64.0206 22.9759 61.8658 22.9759C60.3771 22.9759 59.0319 22.6254 57.8276 21.922C56.6234 21.2174 55.6788 20.2146 54.9937 18.9099C54.3086 17.6065 53.9661 16.0963 53.9661 14.3782C53.9661 12.6601 54.3074 11.1499 54.9937 9.84646C55.6788 8.54302 56.6234 7.53901 57.8276 6.8356C59.0307 6.1322 60.3771 5.7793 61.8658 5.7793C63.882 5.7793 65.4584 6.45181 66.5938 7.79803V5.32898L71.1761 7.42375V7.42137ZM65.5378 17.7443C66.3023 16.9067 66.6827 15.7838 66.6827 14.3758C66.6827 12.9678 66.3011 11.845 65.5378 11.0073C64.7745 10.1696 63.8144 9.75022 62.66 9.75022C61.5055 9.75022 60.5158 10.1696 59.7537 11.0073C58.9892 11.845 58.6087 12.969 58.6087 14.3758C58.6087 15.7826 58.9904 16.9067 59.7537 17.7443C60.517 18.582 61.4865 19.0014 62.66 19.0014C63.8334 19.0014 64.7745 18.582 65.5378 17.7443Z" fill="#09344F"></path><path d="M123.119 10.1488C122.415 10.769 121.983 11.6174 121.827 12.6939H129.609C129.453 11.6388 129.021 10.7952 128.316 10.1631C127.612 9.53212 126.75 9.21607 125.732 9.21607C124.714 9.21607 123.823 9.52618 123.119 10.1476M132.796 20.0618C131.31 21.8572 129.142 22.7507 126.288 22.7507C124.51 22.7507 122.931 22.38 121.564 21.6469C120.19 20.9138 119.132 19.8943 118.392 18.5873C117.645 17.2874 117.275 15.8069 117.275 14.1518C117.275 12.4966 117.645 11.0435 118.379 9.73055C119.113 8.4176 120.116 7.39101 121.399 6.6579C122.681 5.92479 124.114 5.55408 125.701 5.55408C127.288 5.55408 128.648 5.9034 129.904 6.60919C131.16 7.31497 132.137 8.32018 132.858 9.63312C133.572 10.9532 133.928 12.4764 133.928 14.2148C133.928 14.2777 133.895 14.7102 133.843 15.5146H121.89C122.101 16.5555 122.61 17.373 123.416 17.973C124.215 18.5742 125.214 18.8665 126.409 18.8665C127.235 18.8665 127.962 18.7406 128.597 18.4827C128.749 18.4198 128.9 18.3497 129.046 18.2665L132.799 20.0618H132.796Z" fill="#09344F"></path><path d="M79.1753 21.6401C77.4614 20.6681 76.1209 19.3279 75.1514 17.6204C74.183 15.913 73.6982 13.9941 73.6982 11.8625C73.6982 9.73088 74.183 7.81077 75.1514 6.10335C76.1221 4.39593 77.4626 3.05685 79.1753 2.08372C80.888 1.1106 82.8117 0.624634 84.9464 0.624634C87.081 0.624634 88.9988 1.1106 90.702 2.08372C92.4052 3.05685 93.7457 4.39593 94.726 6.10335C95.705 7.81077 96.1945 9.73088 96.1945 11.8625C96.1945 13.9941 95.705 15.913 94.726 17.6204C93.7469 19.3279 92.4052 20.6681 90.702 21.6401C88.9988 22.6132 87.0798 23.1003 84.9464 23.1003C82.8129 23.1003 80.888 22.6144 79.1753 21.6401ZM88.2355 17.9305C89.2133 17.34 89.9825 16.519 90.5408 15.4627C91.0979 14.4076 91.3776 13.2075 91.3776 11.8613C91.3776 10.5151 91.0979 9.31502 90.5408 8.25991C89.9825 7.2048 89.2133 6.38139 88.2355 5.79086C87.2564 5.20152 86.1601 4.90566 84.9464 4.90566C83.7327 4.90566 82.6363 5.20152 81.6573 5.79086C80.6782 6.38139 79.909 7.20361 79.3519 8.25991C78.7937 9.31502 78.514 10.5151 78.514 11.8613C78.514 13.2075 78.7937 14.4076 79.3519 15.4627C79.909 16.5178 80.6771 17.34 81.6573 17.9305C82.6363 18.5211 83.7327 18.8157 84.9464 18.8157C86.1601 18.8157 87.2564 18.5211 88.2355 17.9305Z" fill="#09344F"></path><path d="M113.069 7.64131C114.272 8.88296 114.874 10.7258 114.874 13.1676V22.7301H110.292V13.9137C110.292 12.5889 110.017 11.6015 109.469 10.9492C108.922 10.2969 108.129 9.97134 107.09 9.97134C105.935 9.97134 105.015 10.3492 104.33 11.1037C103.644 11.8594 103.301 12.9822 103.301 14.4722V22.7301H98.719V7.42387L103.096 5.3291V7.98351C103.702 7.2801 104.456 6.73591 105.356 6.35332C106.257 5.96953 107.246 5.77824 108.323 5.77824C110.28 5.77824 111.862 6.39966 113.067 7.64012" fill="#09344F"></path><path d="M139.826 19.4906C139.71 19.2113 139.546 18.9654 139.337 18.7538C139.129 18.5423 138.882 18.3783 138.599 18.2618C138.315 18.1454 138.008 18.0872 137.679 18.0872C137.349 18.0872 137.043 18.1466 136.759 18.2654C136.476 18.3842 136.229 18.5506 136.017 18.7645C135.806 18.9784 135.641 19.2256 135.523 19.5084C135.404 19.7901 135.345 20.0943 135.345 20.4199C135.345 20.7455 135.403 21.0497 135.52 21.3314C135.636 21.613 135.8 21.8614 136.011 22.0753C136.222 22.2892 136.467 22.4556 136.749 22.5744C137.03 22.6933 137.336 22.7527 137.666 22.7527C137.995 22.7527 138.3 22.6933 138.582 22.5744C138.863 22.4556 139.111 22.2892 139.324 22.0753C139.538 21.8614 139.704 21.613 139.822 21.329C139.941 21.045 140 20.7372 140 20.4068C140 20.0765 139.942 19.7711 139.826 19.4918V19.4906ZM139.474 21.1852C139.376 21.4276 139.24 21.638 139.062 21.8162C138.884 21.9945 138.677 22.1347 138.439 22.2357C138.202 22.3367 137.942 22.3878 137.661 22.3878C137.38 22.3878 137.134 22.3379 136.896 22.2393C136.659 22.1407 136.453 22.0004 136.276 21.8198C136.101 21.6392 135.965 21.43 135.868 21.1924C135.77 20.9547 135.723 20.6968 135.723 20.4187C135.723 20.1407 135.773 19.884 135.871 19.6463C135.969 19.4086 136.106 19.1995 136.28 19.0188C136.453 18.8382 136.661 18.698 136.9 18.5993C137.139 18.5007 137.4 18.4508 137.681 18.4508C137.962 18.4508 138.221 18.5007 138.455 18.5993C138.69 18.698 138.895 18.8358 139.068 19.0117C139.242 19.1876 139.376 19.3944 139.474 19.6332C139.57 19.8709 139.618 20.1288 139.618 20.4057C139.618 20.6825 139.57 20.9428 139.474 21.1852Z" fill="#09344F"></path><path d="M138.581 20.6897C138.775 20.5317 138.872 20.3083 138.872 20.0219C138.872 19.7355 138.775 19.5239 138.581 19.3611C138.388 19.1983 138.12 19.1163 137.778 19.1163H136.697V21.72H137.263V20.9274H137.778C137.803 20.9274 137.82 20.9191 137.845 20.9191L138.364 21.7212H138.931L138.343 20.8133C138.427 20.7777 138.515 20.7456 138.581 20.6909V20.6897ZM137.256 20.4853V19.5667H137.744C137.929 19.5667 138.072 19.6059 138.172 19.6856C138.273 19.7652 138.324 19.8769 138.324 20.0231C138.324 20.1692 138.273 20.2821 138.172 20.3629C138.072 20.4437 137.928 20.4853 137.744 20.4853H137.256Z" fill="#09344F"></path></svg>