<svg xmlns="http://www.w3.org/2000/svg" width="166" height="32" viewBox="0 0 166 32" fill="none"><path fill-rule="evenodd" clip-rule="evenodd" d="M77.6397 31C68.9876 31 64.75 24.629 64.75 16C64.75 7.37097 68.9876 1 77.6397 1C86.2918 1 90.5294 7.37097 90.5294 16C90.5294 24.629 86.2918 31 77.6397 31ZM77.6397 27.8548C84.32 27.8548 86.9076 22.5726 86.9076 16C86.9076 9.42742 84.32 4.14516 77.6397 4.14516C70.9595 4.14516 68.3718 9.42742 68.3718 16C68.3718 22.5726 70.9595 27.8548 77.6397 27.8548Z" fill="black"></path><path fill-rule="evenodd" clip-rule="evenodd" d="M97.5882 5.63235V26.5882H103.8C107.657 26.5882 111.926 25.3451 111.926 20.7277C111.926 17.975 109.895 15.8143 107.216 15.5775V15.5183C109.453 14.8376 110.867 13.2096 110.867 10.7825C110.867 6.9347 107.392 5.63235 103.948 5.63235H97.5882ZM100.061 14.512V7.94105H103.742C105.979 7.94105 108.217 8.53303 108.217 11.1081C108.217 14.0088 105.803 14.512 103.477 14.512H100.061ZM100.061 24.2795V16.8207H104.301C106.804 16.8207 109.277 17.7086 109.277 20.6389C109.277 23.3028 106.656 24.2795 104.242 24.2795H100.061Z" fill="black"></path><path fill-rule="evenodd" clip-rule="evenodd" d="M135.924 5.63235L126.689 26.5882H129.501L131.662 21.4381H142.14L144.271 26.5882H147.171L138.262 5.63235H135.924ZM137.049 8.82901L141.192 19.1294H132.638L136.989 8.82901H137.049Z" fill="black"></path><path d="M162.348 9.66016L164.291 7.97017C162.827 6.25201 160.939 5.63235 158.714 5.63235C155.222 5.63235 151.926 7.54767 151.926 11.3783C151.926 14.702 154.067 15.9413 156.883 16.8708C157.06 16.9296 157.232 16.9866 157.399 17.042C160.594 18.1008 162.094 18.5982 162.094 20.9268C162.094 23.2083 159.785 24.3912 157.757 24.3912C156.039 24.3912 154.349 23.6308 153.504 22.1661L151.476 23.8279C152.828 25.8277 155.306 26.5882 157.616 26.5882C161.221 26.5882 164.629 24.7292 164.629 20.7578C164.629 16.8426 161.756 15.8286 158.658 14.8428C155.475 13.8288 154.461 13.012 154.461 11.1812C154.461 8.81517 156.63 7.82934 158.714 7.82934C160.151 7.82934 161.559 8.39267 162.348 9.66016Z" fill="black"></path><path d="M118.381 26.5882V5.63235H120.867V26.5882H118.381Z" fill="black"></path><path fill-rule="evenodd" clip-rule="evenodd" d="M43.3827 5.63235V26.5882H45.869V17.1758H49.0656L54.7486 26.5882H57.7972L51.8479 16.9391C55.1038 16.4359 57.0869 14.4528 57.0869 11.4041C57.0869 6.22433 52.7951 5.63235 48.74 5.63235H43.3827ZM45.869 14.8671V7.94105H49.3616C51.7887 7.94105 54.423 8.38503 54.423 11.4041C54.423 14.8671 50.8415 14.8671 48.0889 14.8671H45.869Z" fill="black"></path><path d="M22.9903 26.5882V5.63235H36.1617V7.94105H25.4766V14.512H35.4514V16.8207H25.4766V24.2795H36.6945V26.5882H22.9903Z" fill="black"></path><path d="M1 24.3683V26.5882H16.1823V24.2795H4.00116L16.0352 7.76346V5.63235H1.17654V7.94105H13.034L1 24.3683Z" fill="black"></path><path fill-rule="evenodd" clip-rule="evenodd" d="M96.5882 27.5882V4.63235H103.948C105.77 4.63235 107.709 4.9728 109.226 5.91492C110.803 6.894 111.867 8.49437 111.867 10.7825C111.867 12.1997 111.45 13.4386 110.663 14.428C110.398 14.7611 110.096 15.059 109.764 15.3225C111.663 16.363 112.926 18.3661 112.926 20.7277C112.926 23.4193 111.645 25.2035 109.807 26.2571C108.04 27.2697 105.807 27.5882 103.8 27.5882H96.5882ZM108.78 15.9583C108.3 15.7595 107.78 15.6293 107.234 15.5792C107.228 15.5786 107.222 15.5781 107.216 15.5775V15.5183L107.221 15.5167C107.76 15.3521 108.252 15.1325 108.687 14.8599C110.054 14.003 110.867 12.6224 110.867 10.7825C110.867 6.9347 107.392 5.63235 103.948 5.63235H97.5882V26.5882H103.8C107.657 26.5882 111.926 25.3451 111.926 20.7277C111.926 18.5432 110.647 16.7314 108.78 15.9583ZM125.156 27.5882L135.272 4.63235H138.924L148.683 27.5882H143.602L141.471 22.4381H132.327L130.166 27.5882H125.156ZM131.662 21.4381H142.14L144.271 26.5882H147.171L138.262 5.63235H135.924L126.689 26.5882H129.501L131.662 21.4381ZM165.695 8.07501L162.119 11.1847L161.499 10.1885C160.941 9.29211 159.908 8.82934 158.714 8.82934C157.809 8.82934 156.958 9.0467 156.366 9.44668C155.815 9.81858 155.461 10.3574 155.461 11.1812C155.461 11.8632 155.628 12.2249 156.018 12.5599C156.501 12.9748 157.373 13.3838 158.962 13.89C160.479 14.3727 162.151 14.9187 163.422 15.9146C164.776 16.9749 165.629 18.5003 165.629 20.7578C165.629 23.0705 164.619 24.823 163.068 25.967C161.552 27.0858 159.574 27.5882 157.616 27.5882C155.14 27.5882 152.262 26.7764 150.647 24.388L150.136 23.6325L153.781 20.6459L154.37 21.6664C154.994 22.7478 156.302 23.3912 157.757 23.3912C158.596 23.3912 159.473 23.1423 160.113 22.695C160.729 22.264 161.094 21.6812 161.094 20.9268C161.094 20.4508 161.018 20.143 160.911 19.9248C160.808 19.7135 160.646 19.5215 160.367 19.3247C159.744 18.8837 158.745 18.5415 157.085 17.9913C156.986 17.9586 156.885 17.9252 156.783 17.8913C156.712 17.8678 156.641 17.844 156.569 17.8199C155.134 17.3463 153.716 16.7488 152.66 15.7479C151.556 14.7004 150.926 13.2885 150.926 11.3783C150.926 9.13861 151.906 7.41209 153.406 6.2726C154.876 5.15519 156.8 4.63235 158.714 4.63235C161.146 4.63235 163.348 5.32244 165.052 7.32144L165.695 8.07501ZM156.883 16.8708C157.06 16.9296 157.232 16.9866 157.399 17.042C160.594 18.1008 162.094 18.5982 162.094 20.9268C162.094 23.2083 159.785 24.3912 157.757 24.3912C156.384 24.3912 155.029 23.9056 154.109 22.9632C153.877 22.7262 153.673 22.4604 153.504 22.1661L151.476 23.8279C151.663 24.1057 151.873 24.3596 152.101 24.5909C152.104 24.5941 152.107 24.5974 152.11 24.6006C153.522 26.0269 155.632 26.5882 157.616 26.5882C161.221 26.5882 164.629 24.7292 164.629 20.7578C164.629 16.8426 161.756 15.8286 158.658 14.8428C155.475 13.8288 154.461 13.012 154.461 11.1812C154.461 8.81517 156.63 7.82934 158.714 7.82934C159.818 7.82934 160.906 8.16206 161.708 8.89143C161.95 9.11111 162.165 9.36677 162.348 9.66016L164.291 7.97017C164.26 7.93344 164.228 7.8972 164.197 7.86146C164.001 7.6411 163.798 7.43966 163.589 7.25604C162.24 6.07667 160.599 5.63235 158.714 5.63235C155.222 5.63235 151.926 7.54767 151.926 11.3783C151.926 14.702 154.067 15.9413 156.883 16.8708ZM117.381 4.63235H121.867V27.5882H117.381V4.63235ZM42.3827 27.5882V4.63235H48.74C50.7699 4.63235 53.0724 4.77059 54.8838 5.68264C55.8148 6.1514 56.634 6.83236 57.2126 7.80629C57.789 8.77636 58.0869 9.97012 58.0869 11.4041C58.0869 13.1585 57.5098 14.6735 56.4095 15.8189C55.623 16.6377 54.6068 17.229 53.4293 17.5986L59.5886 27.5882H54.1842L48.5013 18.1758H46.869V27.5882H42.3827ZM45.869 17.1758H49.0656L54.7486 26.5882H57.7972L51.8479 16.9391C52.2099 16.8831 52.5562 16.8089 52.8857 16.7169C55.5202 15.9817 57.0869 14.1138 57.0869 11.4041C57.0869 6.22433 52.7951 5.63235 48.74 5.63235H43.3827V26.5882H45.869V17.1758ZM21.9903 4.63235H37.1617V8.94105H26.4766V13.512H36.4514V17.8207H26.4766V23.2795H37.6945V27.5882H21.9903V4.63235ZM35.4514 14.512V16.8207H25.4766V24.2795H36.6945V26.5882H22.9903V5.63235H36.1617V7.94105H25.4766V14.512H35.4514ZM0 27.5882V24.0412L11.0619 8.94105H0.176539V4.63235H17.0352V8.08913L5.96708 23.2795H17.1823V27.5882H0ZM4.00116 24.2795L16.0352 7.76346V5.63235H1.17654V7.94105H13.034L1 24.3683V26.5882H16.1823V24.2795H4.00116ZM77.6397 32C68.4245 32 63.75 25.1705 63.75 16C63.75 6.82953 68.4245 0 77.6397 0C86.8549 0 91.5294 6.82953 91.5294 16C91.5294 25.1705 86.8549 32 77.6397 32ZM77.6397 26.8548C83.6959 26.8548 85.9076 22.0949 85.9076 16C85.9076 9.90509 83.6959 5.14516 77.6397 5.14516C71.5835 5.14516 69.3718 9.90509 69.3718 16C69.3718 22.0949 71.5835 26.8548 77.6397 26.8548ZM100.061 14.512V7.94105H103.742C105.979 7.94105 108.217 8.53303 108.217 11.1081C108.217 14.0088 105.803 14.512 103.477 14.512H100.061ZM101.061 8.94105V13.512H103.477C104.607 13.512 105.577 13.3819 106.24 13.0201C106.551 12.8503 106.78 12.6368 106.937 12.3638C107.096 12.0883 107.217 11.6926 107.217 11.1081C107.217 10.6128 107.111 10.2733 106.969 10.0325C106.828 9.79175 106.62 9.59385 106.33 9.43144C105.717 9.08819 104.807 8.94105 103.742 8.94105H101.061ZM100.061 24.2795V16.8207H104.301C106.804 16.8207 109.277 17.7086 109.277 20.6389C109.277 23.3028 106.656 24.2795 104.242 24.2795H100.061ZM101.061 17.8207V23.2795H104.242C105.339 23.2795 106.399 23.054 107.148 22.6019C107.848 22.1795 108.277 21.5726 108.277 20.6389C108.277 19.5121 107.83 18.8789 107.193 18.4763C106.489 18.0313 105.462 17.8207 104.301 17.8207H101.061ZM136.989 8.82901H137.049L141.192 19.1294H132.638L136.989 8.82901ZM136.997 11.3805L134.146 18.1294H139.712L136.997 11.3805ZM118.381 26.5882V5.63235H120.867V26.5882H118.381ZM45.869 14.8671V7.94105H49.3616C51.7887 7.94105 54.423 8.38503 54.423 11.4041C54.423 14.8671 50.8415 14.8671 48.0889 14.8671H45.869ZM46.869 8.94105V13.8671H48.0889C49.5136 13.8671 50.9112 13.8559 51.9585 13.4902C52.4571 13.316 52.8046 13.0834 53.031 12.7922C53.2497 12.511 53.423 12.0891 53.423 11.4041C53.423 10.7978 53.2921 10.3921 53.1202 10.1108C52.9487 9.83014 52.6967 9.60821 52.3498 9.43209C51.6135 9.05829 50.5551 8.94105 49.3616 8.94105H46.869ZM64.75 16C64.75 24.629 68.9876 31 77.6397 31C86.2918 31 90.5294 24.629 90.5294 16C90.5294 7.37097 86.2918 1 77.6397 1C68.9876 1 64.75 7.37097 64.75 16ZM86.9076 16C86.9076 22.5726 84.32 27.8548 77.6397 27.8548C70.9595 27.8548 68.3718 22.5726 68.3718 16C68.3718 9.42742 70.9595 4.14516 77.6397 4.14516C84.32 4.14516 86.9076 9.42742 86.9076 16Z" fill="black"></path><path fill-rule="evenodd" clip-rule="evenodd" d="M67.0001 23.0001L85.0001 5.00011L88.5356 8.53564L70.5356 26.5356L67.0001 23.0001Z" fill="black"></path></svg>