<svg xmlns="http://www.w3.org/2000/svg" focusable="false" width="207" height="58" viewBox="0 0 207 58">
  <title>MITRE logo</title>
  <polygon points="173.5 0 207 0 207 9.4 184.3 9.4 184.3 24.3 206.8 24.3 206.8 33.7 184.3 33.7 184.3 48.6 207 48.6 207 58 173.5 58 173.5 0" fill="currentColor"></polygon>
  <path d="M140.8,58H130V0h25.8A21.2,21.2,0,0,1,161,1a16.8,16.8,0,0,1,7.2,4.8c2.4,2.5,3.7,6.1,3.7,10.9s-1.4,8.6-4,11.1a17.8,17.8,0,0,1-7.8,4.9,28,28,0,0,1-5.9,1.1L173.5,58H160.4L142.7,34.1V23.6h11.4a7.7,7.7,0,0,0,4.5-1.7,6.4,6.4,0,0,0,2.5-5.2,6.4,6.4,0,0,0-2.1-5,7.7,7.7,0,0,0-5.5-1.9H140.8Z" fill="currentColor"></path>
  <polygon points="90.1 0 90.1 9.4 102.9 9.4 102.9 58 113.7 58 113.7 9.4 126.4 9.4 126.4 0 90.1 0" fill="currentColor"></polygon><rect x="75.7" width="10.9" height="58" fill="currentColor"></rect>
  <polygon points="50.4 0 36.3 36.2 22.1 0 10.9 0 0 58 11.6 58 18.5 21.7 31.9 58 40.6 58 54 21.7 60.9 58 72.8 58 61.6 0 50.4 0" fill="currentColor"></polygon>
</svg>