<svg width="158" height="31" viewBox="0 0 158 31" fill="none" xmlns="http://www.w3.org/2000/svg">
<path d="M15.7859 13.1442L22.0977 19.4617H22.0875C21.8006 19.2262 21.4317 19.0828 21.0321 19.0828C20.6222 19.0828 20.2534 19.2262 19.9665 19.4617V19.4412L12.6403 26.7722C9.76101 29.6494 5.04765 29.6494 2.1684 26.7722H2.15816C-0.721091 23.8849 -0.721091 19.175 2.1684 16.2876L5.44726 13.0009C8.35725 10.2569 12.9374 10.2978 15.7859 13.1442Z" fill="#00918C" style="fill:#00918C;fill:color(display-p3 0.0000 0.5686 0.5490);fill-opacity:1;"/>
<path d="M39.8836 26.7723C37.0043 29.6494 32.291 29.6494 29.4015 26.7723L22.0958 19.4515L15.784 13.1443C12.9355 10.2979 8.3553 10.2569 5.45556 13.0009H5.44531L15.2409 3.21254L15.6508 2.80299C15.6917 2.75521 15.7361 2.70743 15.784 2.65964C18.489 -0.0434278 22.8028 -0.20725 25.7025 2.15794C25.8938 2.31493 26.0816 2.48217 26.2661 2.65964V2.66988L39.8836 16.2876C42.7628 19.175 42.7628 23.8849 39.8836 26.7723Z" fill="#00ADA8" style="fill:#00ADA8;fill:color(display-p3 0.0000 0.6784 0.6588);fill-opacity:1;"/>
<path fill-rule="evenodd" clip-rule="evenodd" d="M70.2054 16.2774C70.2054 22.6563 66.6089 25.861 61.0246 25.861C55.471 25.861 51.9258 22.6563 51.9258 16.4617V4.16479H55.6862V16.3081C55.6862 20.2706 57.7253 22.4105 61.0861 22.4105C64.4059 22.4105 66.4552 20.3935 66.4552 16.4617V4.16479H70.2054V16.2774ZM83.3618 25.861C80.708 25.861 79.0276 24.5095 77.9005 23.0146V30.4071H74.2015V9.40712H77.9005V12.0897C79.0891 10.4105 80.7695 9.06923 83.3618 9.06923C87.1735 9.06923 90.8725 12.0897 90.8725 17.4651C90.8725 22.8303 87.2043 25.861 83.3618 25.861ZM82.5011 12.274C80.001 12.274 77.8083 14.3218 77.8083 17.4651C77.8083 20.6085 80.001 22.6563 82.5011 22.6563C85.0423 22.6563 87.112 20.6699 87.112 17.4651C87.112 14.2911 85.0115 12.274 82.5011 12.274ZM99.4385 25.8303C97.1535 25.8303 94.6227 25.001 92.6041 23.4139L94.2538 20.9156C95.9957 22.2262 97.881 22.8918 99.5307 22.8918C101.119 22.8918 102.041 22.2262 102.041 21.1511V21.1C102.041 19.8406 100.33 19.4208 98.4343 18.8372C96.0572 18.1614 93.4033 17.1887 93.4033 14.1068V14.0453C93.4033 10.9941 95.9342 9.13066 99.1413 9.13066C101.15 9.13066 103.353 9.83715 105.054 10.9634L103.588 13.5846C102.041 12.6426 100.391 12.059 99.0491 12.059C97.6146 12.059 96.7847 12.7348 96.7847 13.6767V13.7382C96.7847 14.8952 98.5266 15.3866 100.422 16.001C102.769 16.7279 105.422 17.803 105.422 20.7006V20.7621C105.422 24.1511 102.799 25.8303 99.4385 25.8303ZM112.872 20.4856C112.872 21.9191 113.599 22.5027 114.849 22.5027C115.679 22.5027 116.407 22.3184 117.144 21.9498V24.9703C116.222 25.4924 115.187 25.7996 113.814 25.7996C111.099 25.7996 109.173 24.6017 109.173 21.059V12.5812H107.134V9.40712H109.173V4.98391H112.872V9.40712H117.206V12.5812H112.872V20.4856ZM129.901 23.5368C128.795 24.8474 127.124 25.861 124.675 25.861C121.622 25.861 118.937 24.1204 118.937 20.8849V20.8235C118.937 17.3423 121.714 15.6324 125.475 15.6324C127.422 15.6324 128.672 15.9088 129.932 16.2979V15.9088C129.932 13.6767 128.528 12.4583 125.956 12.4583C124.163 12.4583 122.821 12.8576 121.356 13.4617L120.341 10.5027C122.114 9.71428 123.856 9.16138 126.479 9.16138C131.243 9.16138 133.559 11.6597 133.559 15.9703V25.5232H129.901V23.5368ZM129.983 18.6836C129.04 18.315 127.729 18.0385 126.294 18.0385C123.979 18.0385 122.606 18.9907 122.606 20.6392V20.7006C122.606 22.2262 123.979 23.0761 125.721 23.0761C128.159 23.0761 129.983 21.704 129.983 19.687V18.6836ZM140.916 25.5232H137.217V9.40712H140.916V13.0419C141.92 10.6255 143.785 8.97708 146.623 9.09995V13.0112H146.408C143.17 13.0112 140.916 15.1102 140.916 19.3901V25.5232ZM153.519 20.4856C153.519 21.9191 154.247 22.5027 155.497 22.5027C156.327 22.5027 157.054 22.3184 157.792 21.9498V24.9703C156.87 25.4924 155.835 25.7996 154.462 25.7996C151.747 25.7996 149.82 24.6017 149.82 21.0692V12.5812H147.781V9.40712H149.82V4.98391H153.519V9.40712H157.843V12.5812H153.519V20.4856Z" fill="#333333" style="fill:#333333;fill:color(display-p3 0.2000 0.2000 0.2000);fill-opacity:1;"/>
</svg>
