<svg width="155" height="30" viewBox="0 0 155 30" fill="none" xmlns="http://www.w3.org/2000/svg">
<path fill-rule="evenodd" clip-rule="evenodd" d="M9.46491 15.6596C9.6064 17.0289 10.2505 18.2972 11.2727 19.2193C12.295 20.1413 13.6227 20.6517 14.9994 20.6517C16.376 20.6517 17.7038 20.1413 18.726 19.2193C19.7483 18.2972 20.3924 17.0289 20.5339 15.6596C20.5526 15.4724 20.5619 15.2827 20.5619 15.0906C20.5682 14.3561 20.4289 13.6277 20.1522 12.9473C19.8755 12.2669 19.4667 11.6481 18.9496 11.1265C18.4324 10.6049 17.8171 10.1909 17.1391 9.90836C16.4611 9.62583 15.7339 9.48036 14.9994 9.48036C14.2649 9.48036 13.5376 9.62583 12.8596 9.90836C12.1817 10.1909 11.5663 10.6049 11.0492 11.1265C10.532 11.6481 10.1233 12.2669 9.84657 12.9473C9.56984 13.6277 9.43059 14.3561 9.43687 15.0906C9.43687 15.282 9.44622 15.4722 9.46491 15.6596ZM5.50715e-09 15.0004C-8.03687e-05 12.0336 0.879606 9.13347 2.52781 6.66666C4.17602 4.19985 6.51872 2.27721 9.25965 1.14185C12.0006 0.00649989 15.0166 -0.290561 17.9264 0.288237C20.8362 0.867036 23.5089 2.2957 25.6067 4.39355C27.7045 6.4914 29.1331 9.16422 29.7118 12.074C30.2906 14.9838 29.9934 17.9998 28.858 20.7407C27.7226 23.4816 25.7999 25.8243 23.333 27.4724C20.8661 29.1206 17.966 30.0002 14.9992 30C13.0294 30 11.079 29.612 9.25915 28.8582C7.43934 28.1044 5.78582 26.9995 4.39302 25.6067C3.00021 24.2139 1.89538 22.5603 1.14163 20.7405C0.387872 18.9206 -5.33638e-05 16.9702 5.50715e-09 15.0004Z" fill="#1F1F1F"/>
<path d="M48.5785 14.8989C48.5785 19.4607 45.4123 21.4487 42.424 21.4487C39.0795 21.4487 36.5 19.0027 36.5 15.1029C36.5 10.9739 39.2061 8.55305 42.628 8.55305C46.1782 8.55305 48.5785 11.1267 48.5785 14.8989ZM38.7724 15.0261C38.7724 17.7282 40.3307 19.7671 42.5266 19.7671C44.6716 19.7671 46.2804 17.7534 46.2804 14.9757C46.2804 12.8852 45.2327 10.2347 42.5771 10.2347C39.9215 10.2347 38.7724 12.682 38.7724 15.0261Z" fill="#1F1F1F"/>
<path d="M61.7564 17.8045C61.7564 19.0785 61.7816 20.2022 61.8586 21.1686H59.8671L59.7397 19.1554H59.6879C59.2715 19.8645 58.6739 20.4506 57.9561 20.8536C57.2383 21.2566 56.4262 21.4621 55.6028 21.449C53.6613 21.449 51.338 20.379 51.338 16.044V8.83336H53.5852V15.6636C53.5852 18.0085 54.3006 19.5882 56.3434 19.5882C56.9835 19.5774 57.6062 19.3781 58.1333 19.0154C58.6604 18.6527 59.0683 18.1426 59.306 17.5493C59.4414 17.1822 59.5104 16.794 59.5096 16.4028V8.83336H61.7564V17.8045Z" fill="#1F1F1F"/>
<path d="M73.2797 18.875C74.1694 19.431 75.1918 19.7397 76.2411 19.769C77.8755 19.769 78.6434 18.9538 78.6434 17.9342C78.6434 16.8633 78.005 16.2769 76.3453 15.6653C74.1234 14.8752 73.0765 13.6516 73.0765 12.1739C73.0765 10.1859 74.6857 8.5546 77.3413 8.5546C78.4033 8.54428 79.4499 8.80772 80.38 9.31943L79.8185 10.9507C79.0586 10.4829 78.1832 10.2356 77.2904 10.2367C75.9622 10.2367 75.2215 11.0011 75.2215 11.9191C75.2215 12.9388 75.9622 13.3968 77.5713 14.0088C79.7163 14.8248 80.8137 15.8945 80.8137 17.7302C80.8137 19.8962 79.1284 21.4515 76.1922 21.4515C74.9789 21.4661 73.7824 21.1672 72.719 20.5839L73.2797 18.875Z" fill="#1F1F1F"/>
<path d="M95.242 18.875C96.1322 19.4309 97.1549 19.7396 98.2046 19.769C99.8382 19.769 100.607 18.9538 100.607 17.9342C100.607 16.8633 99.9685 16.2769 98.3088 15.6653C96.0869 14.8752 95.0404 13.6516 95.0404 12.1739C95.0404 10.1859 96.6484 8.5546 99.304 8.5546C100.366 8.54423 101.413 8.80767 102.343 9.31943L101.781 10.9507C101.021 10.4829 100.146 10.2357 99.2535 10.2367C97.9249 10.2367 97.1842 11.0011 97.1842 11.9191C97.1842 12.9388 97.9249 13.3968 99.534 14.0088C101.679 14.8249 102.777 15.8945 102.777 17.7302C102.777 19.8962 101.091 21.4515 98.1549 21.4515C96.9419 21.4659 95.7457 21.1671 94.6825 20.5839L95.242 18.875Z" fill="#1F1F1F"/>
<path d="M126.263 12.1719C126.263 10.8974 126.237 9.85175 126.161 8.83333H128.126L128.228 10.8206H128.305C128.675 10.1188 129.235 9.53454 129.921 9.13374C130.607 8.73294 131.392 8.53161 132.186 8.55251C132.956 8.54417 133.709 8.77876 134.337 9.22277C134.965 9.66679 135.437 10.2975 135.685 11.025H135.736C136.077 10.3991 136.547 9.85197 137.115 9.41894C137.896 8.82093 138.863 8.51445 139.847 8.55251C141.482 8.55251 143.907 9.62336 143.907 13.9051V21.169H141.711V14.1851C141.711 11.8146 140.843 10.3878 139.03 10.3878C138.431 10.413 137.854 10.6225 137.379 10.9874C136.903 11.3524 136.552 11.8551 136.374 12.4267C136.257 12.7892 136.197 13.1675 136.196 13.5483V21.169H134V13.7775C134 11.8146 133.132 10.3878 131.42 10.3878C130.016 10.3878 128.994 11.5094 128.637 12.6307C128.511 12.9826 128.451 13.3544 128.459 13.7279V21.169H126.262L126.263 12.1719Z" fill="#1F1F1F"/>
<path d="M147.223 18.875C148.113 19.431 149.136 19.7397 150.185 19.7691C151.819 19.7691 152.588 18.9539 152.588 17.9342C152.588 16.8634 151.949 16.277 150.29 15.6653C148.065 14.8733 147.019 13.6496 147.019 12.172C147.019 10.1839 148.627 8.55264 151.283 8.55264C152.345 8.54233 153.392 8.80577 154.322 9.31748L153.76 10.9487C153 10.4809 152.125 10.2337 151.232 10.2347C149.904 10.2347 149.163 10.9991 149.163 11.9172C149.163 12.9368 149.904 13.3948 151.513 14.0069C153.656 14.8229 154.755 15.8946 154.755 17.7282C154.755 19.8943 153.069 21.4495 150.134 21.4495C148.921 21.4641 147.724 21.1652 146.661 20.5819L147.223 18.875Z" fill="#1F1F1F"/>
<path d="M91.2495 8.98575L88.7975 16.057C88.4917 16.9511 88.2364 18.1166 88.0063 18.4677H87.9554C87.7518 18.1166 87.4448 16.9234 87.1631 16.1106L84.457 8.98575H82.005L86.5767 20.2766C86.6564 20.4501 86.708 20.6351 86.7294 20.8248C86.7014 21.0064 86.641 21.1814 86.5511 21.3417C86.1245 22.3071 85.477 23.159 84.6606 23.8293C84.0813 24.3151 83.4139 24.6854 82.6947 24.92L83.3055 26.7947C84.3163 26.5498 85.2483 26.0527 86.014 25.35C87.5466 24.0252 88.6444 21.9343 90.2531 17.7029L93.6241 8.98575H91.2495Z" fill="#1F1F1F"/>
<path d="M123.403 15.3081C123.463 14.9779 123.489 14.6425 123.48 14.3071C123.48 12.0334 122.404 8.50505 118.36 8.50505C114.751 8.50505 112.549 11.4555 112.549 15.1854C112.549 18.9152 114.83 21.4503 118.642 21.4503C120.05 21.4624 121.444 21.159 122.72 20.5623L122.158 18.8555C120.273 19.6207 118.865 19.7735 117.813 19.574C117.384 19.4853 116.972 19.3301 116.592 19.114C114.925 18.0947 114.724 15.8994 114.701 15.4402C114.701 15.4105 114.698 15.3065 114.698 15.3065L123.403 15.3081ZM118.181 10.2493C120.715 10.2493 121.329 12.4971 121.304 13.9024H114.725C114.905 12.4971 115.903 10.2493 118.181 10.2493Z" fill="#1F1F1F"/>
<path d="M70.5076 18.8977C70.0971 19.2 69.6153 19.3914 69.109 19.4533C68.3308 19.4411 67.7946 18.9034 67.7946 17.3969V10.3895H70.962V8.9858H67.7946V4.45776L65.3308 6.1321V17.2673C65.3308 18.7206 65.694 19.8158 66.3324 20.4778C66.695 20.8577 67.1529 21.1337 67.6586 21.2772C68.2348 21.4523 68.8455 21.4823 69.4362 21.3646C70.0269 21.2469 70.5792 20.9851 71.0439 20.6026L70.5076 18.8977Z" fill="#1F1F1F"/>
<path d="M110.643 18.8977C110.229 19.1998 109.746 19.3911 109.237 19.4533C108.46 19.4411 107.917 18.9034 107.917 17.3969V10.3895H111.086V8.9858H107.917V4.45776L105.454 6.13211V17.2673C105.454 18.7206 105.823 19.8158 106.462 20.4778C106.825 20.858 107.284 21.1341 107.791 21.2772C108.367 21.4522 108.978 21.4822 109.569 21.3645C110.159 21.2468 110.712 20.985 111.177 20.6026L110.643 18.8977Z" fill="#1F1F1F"/>
</svg>
