<svg class="logo__img" viewBox="0 0 163 86" fill="none" xmlns="http://www.w3.org/2000/svg">
            <title>Veeam logo</title>
            <path d="M0 0H163V80C163 83.3137 160.314 86 157 86H6C2.68629 86 0 83.3137 0 80V0Z" fill="#00B336"></path>
            <path d="M37.4675 43.503C36.3482 42.8893 34.9667 43.3622 34.3919 44.5392L26.1535 62.2555C25.962 62.6378 25.7905 62.8994 25.3569 62.8994C24.9233 62.8994 24.7519 62.6378 24.5603 62.2555L16.3118 44.5392C15.7371 43.3622 14.3556 42.8994 13.2363 43.503C12.117 44.1167 11.6733 45.5654 12.2582 46.7324L20.3151 63.1308L21.2327 64.9919C22.0293 66.6217 23.6125 67.6378 25.367 67.6378C27.1115 67.6378 28.6946 66.6217 29.5013 64.9919L30.419 63.1308L38.4758 46.7324C39.0204 45.5654 38.5868 44.1167 37.4675 43.503Z" fill="white"></path>
            <path d="M146.876 43.2414C145.323 43.2314 143.962 44.2072 143.316 45.5352C141.219 49.8008 135.058 62.4869 135.037 62.5272C134.987 62.6076 134.866 62.8994 134.594 62.8994C134.342 62.8994 134.201 62.6177 134.15 62.5171C132.103 58.3018 128.08 49.9919 125.962 45.6861C125.145 44.0262 123.784 43.2314 122.312 43.2314C120.043 43.2314 118.208 45.1429 118.208 47.7485V65.1831C118.208 66.2394 118.813 67.2253 119.751 67.5372C121.273 68.0302 122.574 66.7123 122.574 65.1428L122.251 48.1408C122.251 47.9698 122.463 47.8994 122.544 48.0503L130.954 65.0423C131.73 66.672 133.091 67.6378 134.594 67.6378C136.096 67.6378 137.447 66.662 138.234 65.0423L146.654 48.0604C146.735 47.8994 146.956 47.9598 146.956 48.1509L146.634 65.2435C146.634 66.5915 147.642 67.6881 148.882 67.6378C150.082 67.5976 151 66.4507 151 65.1328C151 65.1328 151 52.0946 151 47.7485C151 45.1227 149.155 43.2515 146.876 43.2414Z" fill="white"></path>
            <path d="M115.415 64.0966L106.148 45.8471C105.341 44.2274 103.768 43.2113 102.023 43.2113C100.934 43.2113 99.9058 43.6036 99.089 44.2978C98.605 44.7103 98.1916 45.2334 97.8891 45.837L88.6625 63.996C88.6524 64.0161 88.6423 64.0362 88.6322 64.0563L88.6221 64.0865C88.1986 64.9316 88.2995 65.9276 88.8037 66.6519C88.8137 66.672 88.8339 66.6922 88.844 66.7123C88.8541 66.7324 88.8742 66.7525 88.8944 66.7726C89.0557 66.9839 89.2574 67.175 89.4994 67.3159C90.2759 67.7887 91.2036 67.7183 91.8994 67.2354C91.9094 67.2253 91.9195 67.2254 91.9296 67.2153C91.98 67.1751 92.0304 67.1449 92.0708 67.1046C92.1111 67.0744 92.1514 67.0342 92.1817 66.994C92.2019 66.9738 92.2119 66.9638 92.2321 66.9437C92.3935 66.7726 92.5447 66.5815 92.6556 66.3501L92.9985 65.6258L94.9245 61.5915C94.9749 61.4909 95.0757 61.4205 95.1867 61.4205H103.707C104.847 61.4205 105.775 60.4447 105.775 59.2475C105.775 58.0503 104.847 57.0744 103.707 57.0744H97.3446C97.2034 57.0744 97.1227 56.9336 97.1731 56.8028L97.6471 55.7968L101.126 48.7948L101.136 48.7646C101.146 48.7545 101.146 48.7344 101.156 48.7243C101.217 48.6036 101.398 48.1107 101.741 48.0101C101.923 47.9497 102.124 47.9598 102.255 48C102.608 48.1107 102.77 48.5433 102.921 48.8551L111.371 66.3602C111.784 67.165 112.571 67.6278 113.388 67.6278C113.65 67.6278 113.912 67.5775 114.164 67.4869C114.184 67.4769 114.194 67.4769 114.215 67.4668C114.275 67.4366 114.336 67.4064 114.396 67.3762C114.416 67.3662 114.447 67.3561 114.467 67.3461C114.477 67.336 114.487 67.326 114.507 67.326C114.527 67.3159 114.547 67.3058 114.557 67.2958C114.588 67.2756 114.608 67.2555 114.638 67.2455C114.658 67.2254 114.678 67.2153 114.699 67.1952C114.729 67.165 114.769 67.1449 114.799 67.1147C114.84 67.0845 114.87 67.0543 114.91 67.0141C114.92 67.004 114.931 66.994 114.941 66.9839C115.687 66.2797 115.909 65.0926 115.415 64.0966Z" fill="white"></path>
            <path d="M43.6891 58.0805H59.2886C59.5811 58.0805 62.0012 57.8793 62.0012 55.163C62.0012 48.4527 56.808 43 50.425 43C44.042 43 38.8489 48.4527 38.8489 55.163C38.8489 55.3139 38.859 55.7364 38.859 55.8068C38.8489 63.4628 43.7799 67.5875 50.3141 67.9698C50.6267 67.9899 50.9292 68 51.2317 68C53.7426 68 55.8602 67.3461 58.1593 65.8974C58.3912 65.7565 59.3189 65.1429 60.2567 63.9256C61.0029 62.9598 61.0734 61.5211 60.2567 60.7767C59.087 59.7002 57.8769 60.2837 56.798 61.1891C55.1039 62.6278 53.8031 63.7445 50.425 63.7445C47.2487 63.7445 44.2437 61.9336 43.5278 58.3219C43.4975 58.2012 43.5681 58.0805 43.6891 58.0805ZM43.5076 53.5936C43.9412 50.0825 46.3613 46.9638 50.4049 46.9638C54.4384 46.9638 56.9996 50.0121 57.403 53.5936C57.4131 53.7243 57.3324 53.8451 57.2114 53.8451H43.7093C43.5782 53.8451 43.4975 53.7243 43.5076 53.5936Z" fill="white"></path>
            <path d="M69.3522 58.0805H84.9517C85.2441 58.0805 87.6642 57.8793 87.6642 55.163C87.6642 48.4527 82.4711 43 76.0881 43C69.7051 43 64.512 48.4527 64.512 55.163C64.512 55.3139 64.5221 55.7364 64.5221 55.8068C64.512 63.4628 69.4429 67.5875 75.9772 67.9698C76.2898 67.9899 76.5923 68 76.8948 68C79.4056 68 81.5232 67.3461 83.8223 65.8974C84.0542 65.7565 84.9819 65.1429 85.9197 63.9256C86.6659 62.9598 86.7365 61.5211 85.9197 60.7767C84.75 59.7002 83.54 60.2837 82.461 61.1891C80.7669 62.6278 79.4661 63.7445 76.0881 63.7445C72.9117 63.7445 69.9068 61.9336 69.1908 58.3219C69.1505 58.2012 69.2312 58.0805 69.3522 58.0805ZM69.1707 53.5936C69.6043 50.0825 72.0244 46.9638 76.0679 46.9638C80.1014 46.9638 82.6627 50.0121 83.066 53.5936C83.0761 53.7243 82.9954 53.8451 82.8744 53.8451H69.3723C69.2413 53.8451 69.1505 53.7243 69.1707 53.5936Z" fill="white"></path>
        </svg>