<?xml version="1.0" encoding="UTF-8"?> <svg xmlns="http://www.w3.org/2000/svg" id="Layer_2" data-name="Layer 2" viewBox="0 0 243.15 125.78">
<defs><style> .cls-1 { fill: none; } .cls-2 { fill: #000000; } .cls-3 { fill: #8cc63f; } .cls-4 { fill: #1c1e1d; } </style></defs><g id="Isolation_Mode" data-name="Isolation Mode"><g><g><rect class="cls-1" x="0" width="243.15" height="125.77"></rect><g id="Artwork_5" data-name="Artwork 5"><g>
<path class="cls-3" d="m23.05,92.87c7.59-5.78,14.1-12.17,19.33-19.33,3.57,1.46,5.11,4.55,8.75,6.69,5.03-4.23,9.54-9.03,13.99-13.99,3.17-3.54,9.49-3.67,12.68-6.78,4.75-4.62,8.87-9.13,12.48-14.32,3.19,5.09,8.2,10.56,13.32,14.84,5.19-.55,11.81,8.78,17.89,13.52,1.43-1.05,2.87-2.19,4.28-3.41V0H0v109.75c0,.29.03.59.04.88h.75c7.32-7.16,14.51-15.77,22.26-17.77Z"></path>
<path class="cls-4" d="m0,125.77h125.77v-35.72c-4.82,3.04-9.84,6.03-14.9,9.02,2.92-2.96,5.64-6.1,8.19-9.37-4.54,3.37-9.58,6.56-14.97,9.61.92-1.84,1.7-3.7,2.21-5.59-5.2,2.86-10.9,5.37-16.78,7.76,6.12-4.14,11.84-8.52,17.02-13.19,1.26-.18,2.52-.37,3.78-.55,5.4-3.96,10.56-8.1,15.45-12.44v-5.2c-1.4,1.22-2.85,2.36-4.28,3.41-6.08-4.75-12.7-14.06-17.89-13.52-5.11-4.28-10.14-9.75-13.32-14.84-3.62,5.19-7.74,9.7-12.48,14.32-3.19,3.11-9.51,3.24-12.68,6.78-4.45,4.96-8.96,9.75-13.99,13.99-3.64-2.14-5.18-5.23-8.75-6.69-5.22,7.15-11.74,13.55-19.33,19.33-7.76,2-14.94,10.61-22.26,17.77H.04c-.04,8.71-.04,15.13-.04,15.13h0ZM99.47,60.34c.74.66,1.48,1.31,2.22,1.93.32.27.65.54.96.8.42-.04.84-.09,1.26-.13.84-.08,2.09.6,3.42,1.58-1.48,2.79-4.74,7.59-7.16,11.58,3.97-3.2,7.1-5.89,10.17-9.03,1.42,1.32,2.64,2.58,3.26,3.2,1.93,1.92,3.3,3.41,5.45,5.08-3.04,2.92-7.02,6.45-11.41,9.21-3.64.46-6.68,2.05-9.37,4.29,1.4-2.7,3.04-5.28,4.96-7.72-4.71,2.48-9.08,5.83-13.16,9.89.7-1.53,1.27-3.07,1.65-4.61-4.65,3.11-9.75,5.77-15.24,8.03,3.74-3.08,7.34-6.27,10.4-9.93,2.88-5.91,6.32-11.47,10.04-16.86-1.69.15-3.36.55-5.01,1.06,2.29-3.03,4.77-5.85,7.54-8.41v.03Zm-46.43,22.18c5.16-4.35,9.79-9.26,14.29-14.28,1.16-1.29,3.3-2.07,4.89-2.65,2.71-.99,5.53-1.92,7.66-3.98,3.69-3.59,7.18-7.29,10.32-11.33-.74,3.45-1.69,6.88-2.85,10.27,2.62-.39,5.18-.97,7.72-1.74-4.75,5.37-9.16,11.23-13.39,17.33,3.41-2.12,6.85-3.94,10.32-5.43-2.81,3.71-5.26,7.69-7.33,11.97-9.11,3.32-18.33,7.31-27.65,11.9,5.92-7.28,12.07-13.99,18.51-20.01-7.81,5.31-15.03,11.39-21.9,17.96.78-1.7,1.71-3.31,2.83-4.8-6.36,2.84-12.7,6.28-19.06,10.17,4.96-4.96,10.35-10.92,15.63-15.38h0ZM6.87,108.76c4.27-4.34,10.9-11.45,16.93-13,.19-.05.39-.1.59-.15.16-.12.32-.24.48-.36,6.79-5.17,13.05-11.06,18.3-17.79-.29,3.15-1.1,6.2-2.17,9.19,1.22-.73,2.47-1.18,3.74-1.34-2.78,2.8-4.94,5.82-6.77,8.94-5.48.49-10.71,5.33-15.87,11.19.57-1.74,1.36-3.43,2.88-5.01-6.3-.7-13.3,6.81-19.95,10.21.62-.63,1.24-1.26,1.85-1.88h0Z"></path>
<path class="cls-2" d="m96.93,67.68c-3.72,5.38-7.16,10.95-10.04,16.86-3.06,3.66-6.66,6.85-10.4,9.93,5.49-2.27,10.59-4.93,15.24-8.03-.39,1.53-.95,3.07-1.65,4.61,4.08-4.06,8.44-7.4,13.16-9.89-1.93,2.44-3.56,5.02-4.96,7.72,2.69-2.25,5.74-3.84,9.37-4.29,4.39-2.77,8.36-6.3,11.41-9.21-2.15-1.68-3.51-3.16-5.45-5.08-.62-.61-1.85-1.89-3.26-3.2-3.07,3.13-6.2,5.82-10.17,9.03,2.41-3.99,5.68-8.79,7.16-11.58-1.33-.99-2.58-1.67-3.42-1.58-.42.04-.84.08-1.26.13-.32-.27-.65-.54-.96-.8-.74-.62-1.48-1.27-2.22-1.93-2.77,2.55-5.25,5.38-7.54,8.41,1.64-.52,3.3-.91,5.01-1.06v-.03Z"></path>
<path class="cls-2" d="m56.47,87.72c-1.12,1.49-2.05,3.1-2.83,4.8,6.87-6.57,14.09-12.65,21.9-17.96-6.44,6.02-12.59,12.74-18.51,20.01,9.32-4.59,18.54-8.57,27.65-11.9,2.07-4.28,4.52-8.27,7.33-11.97-3.46,1.49-6.91,3.31-10.32,5.43,4.23-6.1,8.64-11.96,13.39-17.33-2.53.76-5.11,1.34-7.72,1.74,1.16-3.4,2.11-6.83,2.85-10.27-3.14,4.03-6.64,7.74-10.32,11.33-2.12,2.06-4.95,2.99-7.66,3.98-1.59.58-3.73,1.37-4.89,2.65-4.49,5.01-9.13,9.93-14.29,14.28-5.29,4.46-10.67,10.42-15.63,15.38,6.36-3.89,12.7-7.34,19.06-10.17h0Z"></path>
<path class="cls-2" d="m24.95,100.43c-1.52,1.58-2.31,3.27-2.88,5.01,5.16-5.85,10.39-10.7,15.87-11.19,1.84-3.12,3.99-6.14,6.77-8.94-1.27.15-2.52.6-3.74,1.34,1.07-2.99,1.89-6.04,2.17-9.19-5.26,6.73-11.51,12.62-18.3,17.79-.16.12-.32.24-.48.36-.19.05-.39.1-.59.15-6.03,1.55-12.66,8.66-16.93,13-.61.63-1.23,1.26-1.85,1.88,6.65-3.4,13.65-10.9,19.95-10.21h0Z"></path>
<path class="cls-2" d="m106.53,88.28c-5.18,4.67-10.89,9.05-17.02,13.19,5.88-2.39,11.59-4.9,16.78-7.76-.5,1.89-1.28,3.76-2.21,5.59,5.38-3.05,10.42-6.24,14.97-9.61-2.56,3.28-5.27,6.41-8.19,9.37,5.06-2.99,10.08-5.99,14.9-9.02v-14.77c-4.9,4.33-10.05,8.48-15.45,12.44-1.26.18-2.52.37-3.78.55h0Z"></path></g></g></g><g id="Artwork_2" data-name="Artwork 2"><g><g>
<path class="cls-2" d="m161.69,97.98l-2.77-3.97c-.12.01-.29.02-.53.02h-3.06v3.95h-2.52v-13.54h5.57c1.18,0,2.19.2,3.07.58.87.39,1.53.94,2,1.66.46.72.69,1.58.69,2.57s-.25,1.9-.74,2.63-1.21,1.28-2.14,1.65l3.11,4.45h-2.71,0Zm-.91-10.71c-.57-.46-1.4-.69-2.49-.69h-2.94v5.4h2.94c1.09,0,1.93-.24,2.49-.71.57-.47.85-1.14.85-2s-.28-1.53-.85-1.99Z"></path>
<path class="cls-2" d="m166.58,84.43h2.52v13.54h-2.52v-13.54Z"></path>
<path class="cls-2" d="m171.59,84.43h5.92c1.44,0,2.73.28,3.85.84,1.12.56,1.99,1.35,2.61,2.38.62,1.02.93,2.21.93,3.55s-.31,2.52-.93,3.55c-.62,1.02-1.49,1.81-2.61,2.38s-2.4.84-3.85.84h-5.92v-13.54Zm5.8,11.42c1,0,1.86-.19,2.62-.57s1.34-.93,1.74-1.63.61-1.52.61-2.45-.2-1.74-.61-2.45-.99-1.24-1.74-1.63-1.63-.57-2.62-.57h-3.29v9.29h3.29Z"></path>
<path class="cls-2" d="m196.05,91.05h2.38v5.4c-.69.55-1.51.98-2.44,1.28-.93.29-1.89.45-2.87.45-1.38,0-2.62-.3-3.74-.9s-1.98-1.43-2.61-2.49c-.63-1.06-.95-2.25-.95-3.58s.32-2.52.95-3.58c.63-1.06,1.51-1.89,2.62-2.49,1.11-.6,2.37-.9,3.76-.9,1.14,0,2.17.19,3.1.56s1.71.93,2.34,1.65l-1.58,1.55c-1.03-1.03-2.28-1.55-3.74-1.55-.95,0-1.8.2-2.54.6s-1.32.96-1.74,1.68c-.42.72-.63,1.55-.63,2.47s.21,1.72.63,2.44c.42.72,1,1.29,1.74,1.7.74.41,1.58.62,2.52.62,1.06,0,1.98-.23,2.79-.69v-4.22Z"></path>
<path class="cls-2" d="m211.11,95.87v2.11h-10.15v-13.54h9.89v2.11h-7.37v3.52h6.54v2.07h-6.54v3.74h7.64Z"></path>
<path class="cls-2" d="m158.6,108.58c-.48-.15-.85-.34-1.13-.57l.43-.95c.27.22.6.39,1,.53s.79.2,1.19.2c.49,0,.86-.08,1.1-.24.25-.16.36-.36.36-.62,0-.19-.07-.34-.2-.47-.14-.12-.31-.22-.52-.29s-.49-.15-.85-.24c-.5-.12-.91-.24-1.23-.36s-.58-.31-.81-.56c-.22-.25-.34-.6-.34-1.04,0-.36.1-.7.3-1,.2-.3.5-.54.9-.71.4-.18.89-.27,1.47-.27.41,0,.8.05,1.19.15.39.1.73.25,1.01.43l-.39.95c-.29-.17-.6-.3-.91-.39-.32-.09-.62-.13-.92-.13-.48,0-.85.08-1.09.25s-.36.39-.36.65c0,.19.07.34.2.46.13.12.31.22.52.28s.49.15.85.24c.49.11.9.23,1.21.36.32.12.59.31.81.56s.34.6.34,1.02c0,.36-.1.69-.3,1-.2.29-.5.53-.9.71-.41.18-.9.27-1.48.27-.51,0-1-.07-1.48-.22h0Z"></path>
<path class="cls-2" d="m169.24,107.67v1.03h-4.97v-6.62h4.84v1.03h-3.6v1.72h3.2v1.01h-3.2v1.83h3.74Z"></path>
<path class="cls-2" d="m171.58,108.36c-.54-.29-.96-.7-1.27-1.21-.31-.52-.46-1.1-.46-1.75s.15-1.23.46-1.75.74-.93,1.28-1.22,1.14-.44,1.81-.44c.55,0,1.04.1,1.49.28.45.19.83.46,1.14.83l-.79.75c-.48-.52-1.07-.78-1.77-.78-.46,0-.86.1-1.22.29-.36.2-.64.48-.84.83s-.3.76-.3,1.21.1.85.3,1.2.48.63.84.83.77.3,1.22.3c.7,0,1.29-.27,1.77-.78l.79.76c-.31.36-.69.63-1.14.83-.45.19-.95.28-1.49.28-.67,0-1.28-.15-1.81-.44h0Z"></path>
<path class="cls-2" d="m177.64,108.03c-.51-.51-.76-1.25-.76-2.21v-3.74h1.23v3.69c0,1.3.56,1.95,1.68,1.95s1.67-.65,1.67-1.95v-3.69h1.21v3.74c0,.96-.25,1.7-.76,2.21s-1.22.77-2.14.77-1.63-.26-2.14-.77h0Z"></path>
<path class="cls-2" d="m188.44,108.7l-1.35-1.94c-.06,0-.14,0-.26,0h-1.49v1.93h-1.23v-6.62h2.73c.57,0,1.07.1,1.5.28.43.19.75.46.98.81s.34.77.34,1.26-.12.93-.36,1.29c-.25.36-.59.63-1.04.81l1.52,2.18h-1.32Zm-.45-5.24c-.28-.22-.69-.34-1.22-.34h-1.44v2.64h1.44c.54,0,.95-.12,1.22-.34.28-.23.42-.55.42-.98s-.14-.75-.42-.97Z"></path>
<path class="cls-2" d="m191.13,102.08h1.23v6.62h-1.23v-6.62Z"></path>
<path class="cls-2" d="m195.77,103.12h-2.19v-1.04h5.62v1.04h-2.19v5.59h-1.23v-5.59Z"></path>
<path class="cls-2" d="m203.45,106.37v2.34h-1.23v-2.32l-2.6-4.31h1.32l1.94,3.23,1.96-3.23h1.21l-2.59,4.29h0Z"></path></g>
<path class="cls-2" d="m180.17,52.04h-9.19v11.69h-16.85V19.74h27.24c5.39,0,10.07.66,14.04,1.98,3.97,1.32,7.04,3.2,9.19,5.66,2.16,2.45,3.24,5.33,3.24,8.64s-1.01,5.96-3.02,8.33c-2.02,2.37-4.9,4.22-8.64,5.56l12.85,13.83h-18.04l-10.81-11.69h0Zm8-20.8c-1.76-1.13-4.37-1.7-7.83-1.7h-9.36v12.88h9.36c3.46,0,6.07-.55,7.83-1.67,1.76-1.11,2.63-2.69,2.63-4.74s-.88-3.64-2.63-4.78h0Z"></path><rect class="cls-2" x="150.73" y="68.92" width="61.68" height="10.29"></rect></g></g></g></g></svg> 