<svg width="127" height="18" viewBox="0 0 127 18" xmlns="http://www.w3.org/2000/svg"><path d="M2.87814 4.99046C2.87814 3.01064 1.8749 1.37442 0 0H4.35833C5.88785 1.17807 6.8253 2.97791 6.8253 4.99046C6.8253 7.003 5.88785 8.80284 4.35833 9.98091C5.77273 10.5699 6.57861 12.0098 6.57861 14.0714V17.9984H2.63144V14.0714C2.63144 12.108 1.69399 10.7336 0 9.98091C1.8749 8.60649 2.87814 6.97028 2.87814 4.99046ZM11.4303 4.99046C11.4303 3.01064 10.4271 1.37442 8.55219 0H12.9105C14.44 1.17807 15.3775 2.97791 15.3775 4.99046C15.3775 7.003 14.44 8.80284 12.9105 9.98091C14.3249 10.5699 15.1308 12.0098 15.1308 14.0714V17.9984H11.1836V14.0714C11.1836 12.108 10.2462 10.7336 8.55219 9.98091C10.4271 8.60649 11.4303 6.97028 11.4303 4.99046ZM19.9842 4.99046C19.9842 3.01064 18.9809 1.37442 17.106 0H21.4643C22.9939 1.17807 23.9313 2.97791 23.9313 4.99046C23.9313 7.003 22.9939 8.80284 21.4643 9.98091C22.8787 10.5699 23.6846 12.0098 23.6846 14.0714V17.9984H19.7375V14.0714C19.7375 12.108 18.8 10.7336 17.106 9.98091C18.9809 8.60649 19.9842 6.97028 19.9842 4.99046Z"></path><path d="M35.9522 14.7276H32.959V3.27246H40.3106C43.8466 3.27246 45.5899 4.58143 45.5899 6.72487C45.5899 8.18111 44.7347 9.27737 43.1394 9.83368C44.784 10.0791 45.5241 10.9463 45.5241 12.5007V14.726H42.498V12.6316C42.498 11.3226 41.8401 10.799 40.1132 10.799H35.9522V14.7276ZM40.1461 4.9414H35.9522V9.13011H40.1132C41.6263 9.13011 42.5637 8.29564 42.5637 6.98667C42.5637 5.69406 41.6921 4.9414 40.1461 4.9414Z"></path><path d="M50.7872 3.27246H47.7939V14.7276H50.7872V3.27246Z"></path><path d="M59.9637 10.9954H56.3126V14.726H53.3193V3.27246H60.0295C63.5655 3.27246 65.424 4.74505 65.424 7.1012C65.424 9.53916 63.5326 10.9954 59.9637 10.9954ZM59.8979 4.9414H56.3126V9.32646H59.865C61.411 9.32646 62.3649 8.54107 62.3649 7.11757C62.3649 5.72678 61.411 4.9414 59.8979 4.9414Z"></path><path d="M73.8446 10.9954H70.1935V14.726H67.2002V3.27246H73.9104C77.4464 3.27246 79.3049 4.74505 79.3049 7.1012C79.3049 9.53916 77.4135 10.9954 73.8446 10.9954ZM73.7788 4.9414H70.1935V9.32646H73.7459C75.2919 9.32646 76.2458 8.54107 76.2458 7.11757C76.2458 5.72678 75.2919 4.9414 73.7788 4.9414Z"></path><path d="M84.0743 3.27246V13.0243H91.541V14.7276H81.0811V3.27246H84.0743Z"></path><path d="M96.4073 3.27246H93.4141V14.7276H96.4073V3.27246Z"></path><path d="M100.914 7.1012V14.7276H98.9404V3.27246H101.179L109.336 10.8972V3.27246H111.31V14.7276H109.073L100.914 7.1012Z"></path><path d="M121.08 4.61375C118.234 4.61375 116.376 6.41359 116.376 9.09698C116.376 11.7477 118.152 13.3839 120.915 13.3839H121.112C122.05 13.3839 123.102 13.1875 124.073 12.8766V9.78419H119.238V8.14798H127V13.5311C125.389 14.3656 122.954 15.0201 120.981 15.0201H120.718C116.178 15.0201 113.251 12.6312 113.251 9.16243C113.251 5.72638 116.261 2.97754 120.882 2.97754H121.145C123.07 2.97754 125.273 3.58294 126.902 4.53194L126.046 5.92273C124.583 5.12098 122.839 4.61375 121.277 4.61375H121.08Z"></path></svg>