<svg xmlns="http://www.w3.org/2000/svg" width="674.046" height="25.713" viewBox="0 0 674.046 25.713">
  <path id="path260" d="M680.9-72.242a5.142,5.142,0,0,1-1.3-.5h-8.045c-1.105-.2-2.126-.377-3.189-.566-1.866.131-2.651.827-6.77.287l-1.824-.352H643.334c-.694-.144-1.347-.281-2.4-.505-5.381-.19-11.311.044-17.133-.116-.652-.138-1.3-.274-2.234-.469h-27.1c-1.154-.193-2.187-.363-3.249-.54l-4.62.561-4.324-.652H535.842l-3.013-.584h-91c-1.051.2-2.047.4-3.461.667l-5.81-.608H417c-.393.066-1.432.235-2.9.475-3.8.4-6.825-.441-10.593-.566l-3.189.595H378.364l-2.9-.557-1.957.409a7.33,7.33,0,0,1-1.057.154c-14.7.008-29.393.006-43.748.006-1.3.237-2.313.419-3.75.679-1.431-.169-2.923-.344-5.3-.624H308.961l-2.355.5H298.26c-.749-.141-1.757-.328-2.808-.522-.924.175-1.9.363-2.863.547h-5.4l-2.935-.55c-1.721.361-3.346.7-4.97,1.043-3.128.122-6.3.289-8.533-.459H256.837l-2.838.53c-2.953.117-6.209-.147-9.56.234.791.211,1.5.4,2.452.652l-10.883,1.154c8.068.408,41.912.5,70.979.188l2.1-.439h8.34c.755.139,1.758.326,2.881.536h16.445c.912-.175,1.9-.368,2.893-.558l2.573.54c3.346.069,7.368.037,11.342,0l2.307-.485h14.047l2.868.468h10.641a41.558,41.558,0,0,1,8.437-.526l3.014.561h16.336l3.044.6h19.265c.664.139,1.317.275,1.963.412a7.185,7.185,0,0,0,1.057.156c29.423.008,58.84.008,87.961.008l3.708.676,5.453-.629c1.9-.082,5.061-.255,7.325.5h71.553l3.255.594h10.955l2.8-.549a17.176,17.176,0,0,1,4.771.383,12.954,12.954,0,0,0,6-.352l3.044.483h7.616c1.135.2,2.162.372,3.473.6h21.6l3.261.6h27.333c1.033.2,2.029.4,3.056.6h24.827l2.331.509h8.159l3.46.617c.8-.168,1.45-.305,2.349-.493h11.547l2.657.557h13.812c1.135.239,1.782.376,2.525.53h16.4l3.062.6h11.016c.616.136,1.256.274,2.331.509H825.3c1.135.239,1.745.384,2.446.51,2.162.391,5.5-.155,7.47.411,1.661.482,4.119.276,6.287.306a23.2,23.2,0,0,1,4.946.3c2.41.61,7.543-.1,9.367.841h13.95c.846-.166,1.842-.358,3.092-.6.58.359,1.123.693,1.685,1.041a94.743,94.743,0,0,0,9.524.131c.537-.32,1.1-.655,1.866-1.111l3.122.5,2.784-.464c.839.151,1.782.316,2.887.513h8.449c1.9-.441,4.047-.937,6.559-1.518.157-.325.477-.786-.441-1.293H900.26c-.345.055-1.377.223-2.863.46H886.146l-2.355-.5h-8l-3.243-.6h-8.026c-1.033-.2-2.023-.4-3.044-.6H847.725c-.646-.136-1.3-.271-2.433-.511h-8.286c-1.141-.238-1.788-.373-2.76-.577h-7.706c-1.184-.191-2.222-.36-3.708-.6h-12.6L800.063-69.3H781.68l-3.044-.594H756.6l-2.422-.513H740.354l-2.923-.612H723.625l-2.923-.613H704.131c-1.135-.238-1.782-.374-2.6-.545h-13.5c-1.087-.2-2.1-.384-3.116-.571-1.292.2-2.633.408-4,.5-.549.322-.344.77-2.754.378a26.479,26.479,0,0,1,2.754-.378" transform="matrix(-1, 0.017, -0.017, -1, 908.697, -65.867)" fill="#fdaf26"/>
</svg>
