<svg xmlns="http://www.w3.org/2000/svg" xmlns:xlink="http://www.w3.org/1999/xlink" width="148" height="47" viewBox="0 0 148 47">
            <defs>
              <clipPath id="clip-path">
                <rect id="Rectangle_12" data-name="Rectangle 12" width="148" height="47" fill="#fff"></rect>
              </clipPath>
              <clipPath id="clip-path-2">
                <path id="Path_178" data-name="Path 178" d="M-313.574,276.133h11.1c6.549,0,10.767,3.342,10.767,9.034v.074c0,6.059-4.7,9.256-11.135,9.256H-306.4v7.346h-7.18v-25.71Zm10.582,12.781c2.556,0,4.107-1.32,4.107-3.342V285.5c0-2.2-1.551-3.379-4.144-3.379h-3.365v6.8Z" transform="translate(313.575 -276.133)" fill="#03a5fb"></path>
              </clipPath>
              <clipPath id="clip-path-3">
                <path id="Path_180" data-name="Path 180" d="M-291.706,281.8h7v4.041c1.143-2.745,2.984-4.523,6.3-4.375v7.411H-279c-3.646,0-5.711,2.112-5.711,6.745v6.226h-7V281.8" transform="translate(291.711 -281.457)" fill="#03a5fb"></path>
              </clipPath>
              <clipPath id="clip-path-4">
                <path id="Path_182" data-name="Path 182" d="M-278.407,292.017v-.074c0-5.708,4.67-10.49,11.119-10.49,6.413,0,11.044,4.707,11.044,10.415v.075c0,5.708-4.67,10.492-11.117,10.492-6.412,0-11.046-4.708-11.046-10.418Zm15.307,0v-.074a4.347,4.347,0,0,0-1.179-3.158,4.347,4.347,0,0,0-3.082-1.365,4.2,4.2,0,0,0-3.055,1.32,4.2,4.2,0,0,0-1.135,3.128v.075a4.347,4.347,0,0,0,1.18,3.158,4.347,4.347,0,0,0,3.083,1.365,4.2,4.2,0,0,0,3.054-1.321,4.2,4.2,0,0,0,1.134-3.128Z" transform="translate(278.407 -281.453)" fill="#03a5fb"></path>
              </clipPath>
              <clipPath id="clip-path-5">
                <path id="Path_184" data-name="Path 184" d="M-254.791,287.494h-2.34v-5.5h2.34v-.443c0-2.286.523-3.982,1.707-5.164,1.227-1.216,2.861-1.733,5.237-1.733a15.533,15.533,0,0,1,4.607.553v4.942a8.432,8.432,0,0,0-2.638-.406c-1.3,0-2.006.592-2.006,1.882v.481h4.6v5.387h-4.492v14.349h-7.02V287.494" transform="translate(257.131 -274.647)" fill="#03a5fb"></path>
              </clipPath>
              <clipPath id="clip-path-6">
                <path id="Path_186" data-name="Path 186" d="M-244.127,299.2l2.638-4.217a13.2,13.2,0,0,0,6.916,2.275c1.226,0,1.783-.368,1.783-1.065v-.073c0-.77-1.115-1.1-3.233-1.688-3.979-1.027-7.139-2.347-7.139-6.346v-.074c0-4.216,3.422-6.563,8.066-6.563a15.88,15.88,0,0,1,8.289,2.311l-2.414,4.4a13.747,13.747,0,0,0-5.947-1.835c-1.08,0-1.638.4-1.638.955v.071c0,.77,1.152,1.138,3.273,1.763,3.976,1.1,7.138,2.458,7.138,6.308v.073c0,4.363-3.309,6.639-8.217,6.639a16.383,16.383,0,0,1-9.515-2.935" transform="translate(244.127 -281.449)" fill="#03a5fb"></path>
              </clipPath>
              <clipPath id="clip-path-7">
                <path id="Path_188" data-name="Path 188" d="M-371.2,276.133h11.1c6.55,0,10.769,3.342,10.769,9.034v.074c0,6.059-4.7,9.256-11.138,9.256h-3.552v7.346H-371.2v-25.71Zm10.582,12.781c2.554,0,4.108-1.32,4.108-3.342V285.5c0-2.2-1.554-3.379-4.145-3.379h-3.366v6.8Z" transform="translate(371.2 -276.133)" fill="none"></path>
              </clipPath>
              <clipPath id="clip-path-8">
                <path id="Path_190" data-name="Path 190" d="M-349.331,281.8h7v4.041c1.142-2.745,2.984-4.523,6.3-4.375v7.411h-.588c-3.646,0-5.71,2.112-5.71,6.745v6.226h-7V281.8" transform="translate(349.331 -281.457)" fill="none"></path>
              </clipPath>
              <clipPath id="clip-path-9">
                <path id="Path_192" data-name="Path 192" d="M-336.034,292.017v-.074c0-5.708,4.67-10.49,11.119-10.49,6.413,0,11.046,4.707,11.046,10.415v.075c0,5.708-4.67,10.492-11.119,10.492-6.412,0-11.046-4.708-11.046-10.418Zm15.309,0v-.074a4.348,4.348,0,0,0-1.18-3.158,4.348,4.348,0,0,0-3.083-1.365,4.2,4.2,0,0,0-3.054,1.321,4.2,4.2,0,0,0-1.135,3.127v.075A4.347,4.347,0,0,0-328,295.1a4.347,4.347,0,0,0,3.082,1.365,4.2,4.2,0,0,0,3.055-1.32A4.2,4.2,0,0,0-320.725,292.017Z" transform="translate(336.034 -281.453)" fill="none"></path>
              </clipPath>
            </defs>
            <g id="ProProfs_logo" data-name="ProProfs logo" transform="translate(-578 -488)">
              <g id="Group_208527" data-name="Group 208527" transform="translate(-14 11)">
                <g id="Training_Maker" data-name="Training Maker" transform="translate(592 477)" clip-path="url(#clip-path)">
                  <g id="Group_845" data-name="Group 845" transform="translate(2 -0.008)">
                    <text id="aining_Make" data-name="aining Make" transform="translate(15.805 43.116)" fill="#0e055b" font-size="12" font-family="Roboto-Bold, Roboto" font-weight="700">
                      <tspan x="0" y="0">Delightfully Smart Tools</tspan>
                    </text>
                    <g id="Group_189" data-name="Group 189" transform="translate(57.625 1.486)">
                      <g id="Group_188" data-name="Group 188" clip-path="url(#clip-path-2)">
                        <path id="Path_177" data-name="Path 177" d="M-315.052,274.655h24.824v28.666h-24.824Z" transform="translate(313.575 -276.133)" fill="#03a5fb"></path>
                      </g>
                    </g>
                    <g id="Group_191" data-name="Group 191" transform="translate(79.489 6.811)">
                      <g id="Group_190" data-name="Group 190" clip-path="url(#clip-path-3)">
                        <path id="Path_179" data-name="Path 179" d="M-293.184,279.974h16.257v23.348h-16.257Z" transform="translate(291.711 -281.457)" fill="#03a5fb"></path>
                      </g>
                    </g>
                    <g id="Group_193" data-name="Group 193" transform="translate(92.793 6.806)">
                      <g id="Group_192" data-name="Group 192" clip-path="url(#clip-path-4)">
                        <path id="Path_181" data-name="Path 181" d="M-279.886,279.974h25.121v23.938h-25.121Z" transform="translate(278.407 -281.453)" fill="#03a5fb"></path>
                      </g>
                    </g>
                    <g id="Group_195" data-name="Group 195" transform="translate(114.069)">
                      <g id="Group_194" data-name="Group 194" clip-path="url(#clip-path-5)">
                        <path id="Path_183" data-name="Path 183" d="M-258.609,273.178h16.847v30.144h-16.847Z" transform="translate(257.131 -274.647)" fill="#03a5fb"></path>
                      </g>
                    </g>
                    <g id="Group_197" data-name="Group 197" transform="translate(127.073 6.802)">
                      <g id="Group_196" data-name="Group 196" clip-path="url(#clip-path-6)">
                        <path id="Path_185" data-name="Path 185" d="M-245.6,279.974h20.683v23.643H-245.6Z" transform="translate(244.127 -281.449)" fill="#03a5fb"></path>
                      </g>
                    </g>
                    <g id="Group_199" data-name="Group 199" transform="translate(0 1.486)">
                      <g id="Group_198" data-name="Group 198" clip-path="url(#clip-path-7)">
                        <path id="Path_187" data-name="Path 187" d="M-372.677,274.655h24.823v28.666h-24.823Z" transform="translate(371.2 -276.133)" fill="#0e055b"></path>
                      </g>
                    </g>
                    <g id="Group_201" data-name="Group 201" transform="translate(21.869 6.811)">
                      <g id="Group_200" data-name="Group 200" clip-path="url(#clip-path-8)">
                        <path id="Path_189" data-name="Path 189" d="M-350.808,279.974h16.253v23.348h-16.253Z" transform="translate(349.331 -281.457)" fill="#0e055b"></path>
                      </g>
                    </g>
                    <g id="Group_203" data-name="Group 203" transform="translate(35.166 6.806)">
                      <g id="Group_202" data-name="Group 202" clip-path="url(#clip-path-9)">
                        <path id="Path_191" data-name="Path 191" d="M-337.512,279.974h25.119v23.938h-25.119Z" transform="translate(336.034 -281.453)" fill="#0e055b"></path>
                      </g>
                    </g>
                  </g>
                </g>
              </g>
            </g>
          </svg>