<?xml version="1.0" encoding="UTF-8"?> <svg xmlns="http://www.w3.org/2000/svg" id="icons" viewBox="0 0 160 130"><defs><style> .cls-1 { fill: #ff68c1; } .cls-1, .cls-2 { stroke-width: 0px; } .cls-2 { fill: #ffcd66; } .cls-3 { stroke-width: 1.51px; } .cls-3, .cls-4 { fill: none; stroke: #fff; stroke-miterlimit: 10; } .cls-4 { stroke-width: 1.5px; } </style></defs><g><path class="cls-3" d="M53.04,48.49c-6.13-.39-10.8-5.97-10.44-12.47.37-6.5,5.64-11.45,11.77-11.06,4.06.26,7.49,2.8,9.22,6.37"></path><path class="cls-3" d="M37.07,56.19c-1.01-1.66-2.06-5.48-1.94-7.61.26-4.57,3.72-8.21,7.81-8.94"></path><path class="cls-3" d="M38.19,74.5c-3.17-2.05-5.44-6.01-5.2-10.22.34-6.05,5.25-10.66,10.96-10.3,4.49.29,8.14,3.56,9.33,7.89"></path><path class="cls-3" d="M43.8,88.46c-4.87-1.33-7.69-6.59-6.43-11.75.66-2.7,2.33-4.84,4.48-6.08"></path><path class="cls-3" d="M61.79,99.02c-2.01,2.93-5.34,4.75-9.01,4.52-5.71-.36-10.06-5.56-9.72-11.62.34-6.05,5.25-10.66,10.96-10.3"></path><path class="cls-3" d="M57.92,25.81c1.35-3.89,4.97-6.55,9.07-6.29,1.41.09,2.73.52,3.89,1.2,2.64,1.56,4.15,4.63,4.15,7.82v72.89c-.3,5.32-4.66,9.37-9.68,9.05-4.17-.27-7.81-3.37-8.65-7.49"></path><path class="cls-3" d="M54.27,35.05c.92.25,4.13,1.27,6.44,4.65,2.6,3.82,2.16,7.91,2.05,8.79"></path><path class="cls-3" d="M48.72,72.71c2.72,2.8,6.69,3.68,10.09,2.25,4.58-1.93,5.63-6.99,5.7-7.36"></path><path class="cls-3" d="M67.92,79.3c-3.06.53-5.45,2.97-5.96,6.02-.66,3.92,2.16,6.68,2.33,6.84"></path><path class="cls-3" d="M68.97,52.75c-.08.51-.71,4.11-2.9,5.81-2.28,1.77-4.35,0-4.6-.23"></path><path class="cls-3" d="M68.57,42.12c-.31.31-1.34,1.23-2.91,1.34-2.18.15-3.6-1.41-3.8-1.64"></path><path class="cls-3" d="M61.88,87.05c-.23.66-1.05,2.74-3.19,4.06-1.43.89-2.8,1.02-3.51,1.04"></path></g><g><path class="cls-1" d="M123.65,56.47c-1.43.71-3.49,2.26-3.17,4.49.24,1.72,1.57,2.34,2.78,2.17,1.36-.19,4.09-2.17,3.74-4.61-.18-1.25-1.72-2.36-2.91-2.19-.16.02-.31.07-.45.14Z"></path><path class="cls-2" d="M119.77,76.06c-2.85-.33-3.69-6.42-6.54-7.46-2.7-.98.93-5.54,7.75-3.74,2.78.73,5.55,3.44,5.22,6.29-.33,2.85-3.58,5.24-6.43,4.91Z"></path></g><g><path class="cls-4" d="M83.6,55.37l5-5c-2.69-5.63-2.91-11.39,1.76-16.05l2.38-2.38c4.17-4.17,10.9-4.22,16.05-1.76l-8.91,8.91,7.15,7.15,8.91-8.91c2.46,5.15,2.41,11.89-1.76,16.05-.47.47-1.98,1.98-2.38,2.38-4.67,4.67-10.42,4.45-16.05,1.76l-4.56,4.56"></path><path class="cls-4" d="M87.19,80.96l11.91-11.92s3.58,1.19,3.58,1.19c0,0,1.18,5.95,1.19,5.96l14.28,14.28c1.97,1.97,1.97,5.17,0,7.15l-2.38,2.38c-1.97,1.97-5.17,1.97-7.15,0l-14.28-14.28s-5.95-1.19-5.95-1.19c0,0-1.21-3.55-1.19-3.57Z"></path><line class="cls-4" x1="97.9" y1="79.75" x2="112.19" y2="94.04"></line><path class="cls-4" d="M75.06,52.15v9.53c7.44,7.44,15.69,15.69,15.69,15.69l4.77-4.77s-12.34-12.34-20.45-20.45Z"></path><polygon class="cls-4" points="75.06 67.24 75.06 78.21 80.23 73.04 75.06 67.24"></polygon></g></svg> 