<svg id="logo-gliffy-reg" xmlns="http://www.w3.org/2000/svg" viewBox="0 0 428.48 177.77">
    <g>
      <path d="M82.18,133c.56-4.82,2.08-9.62,4.67-14.09l.09-.15,30.75,17.76V59.28c0-6.95-4.66-10.39-6.67-11.55-2-1.16-7.31-3.47-13.33,0L6.67,100.29c-6.02,3.47-6.67,9.23-6.67,11.55s.65,8.07,6.67,11.55l13.1,7.56,39.7-22.92c-3.29,6.64-5.36,13.6-6.28,20.62l-18.71,10.8,28.56,16.49c-5.17-15.39-3.98-32.83,4.78-48l11.12-19.26-5.86-3.38c-2.44-1.41-2.44-4.94,0-6.34l24.41-14.09c2.44-1.41,5.49.35,5.49,3.17v28.19c0,2.82-3.05,4.58-5.49,3.17l-5.86-3.38-11.12,19.26c-12.14,21.02-4.94,47.91,16.09,60.04h0l1.1.64c6.02,3.47,11.33,1.16,13.33,0,2-1.16,6.67-4.6,6.67-11.55v-10.88l-35.51-20.5Z" fill="#4c00ff"/>
      <g>
        <path d="M172.69,149.65c-5.69-3.45-10.1-8.33-13.22-14.65-3.12-6.32-4.68-13.63-4.68-21.94,0-8.98,1.68-16.79,5.05-23.44,3.37-6.65,8.04-11.78,14.03-15.4,5.98-3.62,12.88-5.42,20.7-5.42,9.89,0,17.95,2.51,24.19,7.54,6.23,5.03,10.06,12.28,11.47,21.76h-16.33c-.92-5.15-3.01-8.98-6.3-11.47-3.28-2.49-7.67-3.74-13.15-3.74-4.66,0-8.73,1.18-12.22,3.55-3.49,2.37-6.23,5.78-8.23,10.22-1.99,4.45-2.99,9.75-2.99,15.9v1.12c0,5.74.94,10.68,2.81,14.84,1.87,4.16,4.59,7.32,8.17,9.48,3.57,2.16,7.77,3.24,12.59,3.24,3.74,0,7.13-.73,10.16-2.18,3.03-1.45,5.42-3.57,7.17-6.36,1.75-2.78,2.62-6.09,2.62-9.91v-2.74l6.61,4.86h-25.06v-12.97h34.54v41.27h-13.96v-11.35c-2.41,4.16-5.69,7.36-9.85,9.6-4.16,2.24-8.9,3.37-14.21,3.37-7.56,0-14.19-1.72-19.89-5.17Z" fill="#00003a"/>
        <path d="M241.46,69.29h15.46v83.91h-15.46v-83.91Z" fill="#00003a"/>
        <path d="M267.01,70.66h15.96v15.09h-15.96v-15.09ZM267.13,94.35h15.46v58.85h-15.46v-58.85Z" fill="#00003a"/>
        <path d="M299.05,106.95h-9.1v-12.59h9.1v-4.61c0-4.82.52-8.68,1.56-11.6,1.04-2.91,2.76-5.05,5.17-6.42,2.41-1.37,5.69-2.22,9.85-2.56h11.22v13.34h-4.49c-2.74,0-4.63.15-5.67.44-1.04.29-1.75,1-2.12,2.12s-.56,3.1-.56,5.92v9.97l-6.73-6.61h18.33v12.59h-11.6v46.26h-14.96v-46.26ZM340.32,106.95h-9.1v-12.59h9.1v-4.61c0-4.82.52-8.68,1.56-11.6,1.04-2.91,2.76-5.05,5.17-6.42,2.41-1.37,5.69-2.22,9.85-2.56h11.22v13.34h-4.49c-2.74,0-4.63.15-5.67.44-1.04.29-1.75,1-2.12,2.12s-.56,3.1-.56,5.92v9.97l-6.73-6.61h18.33v12.59h-11.6v46.26h-14.96v-46.26Z" fill="#00003a"/>
        <path d="M373.62,163.68h7.48c2.16-.08,3.82-.42,4.99-1,1.16-.58,2.22-1.62,3.18-3.12.95-1.5,2.06-3.78,3.3-6.86l-22.32-58.35h16.21l13.72,41.27,12.84-41.27h15.46l-22.57,64.34c-1.66,4.49-3.51,8.06-5.55,10.72-2.04,2.66-4.61,4.61-7.73,5.86-3.12,1.25-7.04,1.87-11.78,1.87h-7.23v-13.47Z" fill="#00003a"/>
      </g>
      <g>
        <path d="M190.12,34.38c-1.84-1.03-3.27-2.52-4.29-4.45-1.02-1.93-1.53-4.16-1.53-6.68,0-2.53.53-4.77,1.58-6.73,1.05-1.96,2.5-3.5,4.34-4.6,1.84-1.1,3.92-1.66,6.23-1.66,3.65,0,6.51,1.13,8.58,3.39,2.07,2.26,3.1,5.36,3.1,9.29v1.74c0,.08-.07.15-.15.15h-18.41c-.09,0-.16.08-.15.17.2,2.06.91,3.7,2.14,4.91,1.26,1.25,2.96,1.87,5.1,1.87,1.96,0,3.49-.41,4.58-1.24,1.05-.8,1.86-1.83,2.42-3.1.03-.07.11-.11.19-.08l4.24,1.63c.08.03.12.13.08.21-.91,2-2.3,3.62-4.17,4.85-1.91,1.26-4.36,1.89-7.34,1.89-2.53,0-4.71-.52-6.55-1.55ZM201.04,16.1c-1.12-1.12-2.68-1.68-4.68-1.68-1.89,0-3.48.59-4.76,1.76-1.24,1.14-2,2.69-2.27,4.64-.01.09.06.17.15.17h13.24c.09,0,.16-.08.15-.16-.13-2.06-.74-3.64-1.83-4.73Z" fill="#00003a"/>
        <path d="M211.61,10.68h4.8c.08,0,.15.07.15.15v3.54c0,.16.23.21.29.06.43-1.13,1.08-2.04,1.97-2.72,1.12-.86,2.79-1.29,5-1.29h.59c.08,0,.15.07.15.15v4.75c0,.08-.07.15-.15.15h-2.17c-2.18,0-3.67.56-4.47,1.68-.81,1.12-1.21,3-1.21,5.63v12.58c0,.08-.07.15-.15.15h-4.8c-.08,0-.15-.07-.15-.15V10.83c0-.08.07-.15.15-.15Z" fill="#00003a"/>
        <path d="M237.05,5.87c.16-.51.47-.83.95-.97.47-.14,1.32-.21,2.55-.21h3.88c.08,0,.15-.07.15-.15V.15c0-.08-.07-.15-.15-.15h-6.03c-1.68.11-3,.44-3.95,1-.95.56-1.62,1.39-2.03,2.5-.4,1.1-.61,2.62-.61,4.55v2.48c0,.08-.07.15-.15.15h-4.01v4.37h4.01c.08,0,.15.07.15.15v20.17c0,.08.07.15.15.15h4.65c.08,0,.15-.07.15-.15V15.2c0-.08.07-.15.15-.15h4.8c.08,0,.15-.07.15-.15v-4.07c0-.08-.07-.15-.15-.15h-4.75c-.08,0-.15-.07-.15-.15v-2.06c0-1.23.08-2.1.24-2.6Z" fill="#00003a"/>
        <path d="M248.78,34.3c-1.88-1.09-3.34-2.6-4.39-4.52-1.05-1.93-1.58-4.14-1.58-6.63s.53-4.76,1.6-6.71c1.07-1.95,2.54-3.46,4.42-4.55,1.88-1.09,4.03-1.63,6.45-1.63,2.38,0,4.52.54,6.42,1.63,1.89,1.09,3.37,2.6,4.42,4.55,1.05,1.95,1.58,4.18,1.58,6.71,0,2.42-.54,4.61-1.6,6.58-1.07,1.96-2.56,3.49-4.47,4.58-1.91,1.09-4.06,1.63-6.45,1.63-2.39,0-4.52-.54-6.39-1.63ZM260.54,29.36c1.3-1.47,1.95-3.49,1.95-6.05v-.21c0-2.63-.64-4.71-1.92-6.23-1.28-1.53-3.04-2.29-5.29-2.29-2.25,0-4.03.76-5.34,2.29-1.32,1.53-1.97,3.6-1.97,6.23v.21c0,2.56.64,4.58,1.92,6.05,1.28,1.47,3.04,2.21,5.29,2.21,2.28,0,4.07-.74,5.37-2.21Z" fill="#00003a"/>
        <path d="M270.65,10.68h4.8c.08,0,.15.07.15.15v3.54c0,.16.23.21.29.06.43-1.13,1.08-2.04,1.97-2.72,1.12-.86,2.79-1.29,5-1.29h.59c.08,0,.15.07.15.15v4.75c0,.08-.07.15-.15.15h-2.17c-2.18,0-3.67.56-4.47,1.68-.81,1.12-1.21,3-1.21,5.63v12.58c0,.08-.07.15-.15.15h-4.8c-.08,0-.15-.07-.15-.15V10.83c0-.08.07-.15.15-.15Z" fill="#00003a"/>
        <path d="M290.21,34.3c-1.84-1.09-3.26-2.6-4.26-4.55-1-1.95-1.5-4.18-1.5-6.71,0-2.45.52-4.66,1.55-6.6,1.03-1.95,2.49-3.46,4.37-4.55,1.88-1.09,4.01-1.63,6.39-1.63,2.81,0,5.15.71,7.02,2.13,1.84,1.39,3.16,3.28,3.98,5.67.03.08-.02.17-.1.19l-4.6,1.48c-.08.03-.17-.02-.19-.1-.46-1.61-1.17-2.85-2.14-3.72s-2.36-1.34-4.08-1.34c-2.14,0-3.85.77-5.13,2.32-1.28,1.54-1.92,3.58-1.92,6.1v.21c0,2.53.61,4.56,1.84,6.1,1.23,1.54,2.91,2.32,5.05,2.32,1.93,0,3.4-.46,4.42-1.37.99-.89,1.73-2.2,2.22-3.95.02-.08.11-.13.19-.1l4.55,1.43c.08.03.13.12.1.2-.88,2.56-2.26,4.54-4.13,5.95-1.91,1.44-4.32,2.16-7.23,2.16-2.42,0-4.55-.54-6.39-1.63Z" fill="#00003a"/>
        <path d="M315.88,34.38c-1.84-1.03-3.27-2.52-4.29-4.45-1.02-1.93-1.53-4.16-1.53-6.68,0-2.53.53-4.77,1.58-6.73,1.05-1.96,2.5-3.5,4.34-4.6,1.84-1.1,3.92-1.66,6.23-1.66,3.65,0,6.51,1.13,8.58,3.39,2.07,2.26,3.1,5.36,3.1,9.29v1.74c0,.08-.07.15-.15.15h-18.41c-.09,0-.16.08-.15.17.2,2.06.91,3.7,2.14,4.91,1.26,1.25,2.96,1.87,5.1,1.87,1.96,0,3.49-.41,4.58-1.24,1.05-.8,1.86-1.83,2.42-3.1.03-.07.11-.11.19-.08l4.24,1.63c.08.03.12.13.08.21-.91,2-2.3,3.62-4.17,4.85-1.91,1.26-4.36,1.89-7.34,1.89-2.53,0-4.71-.52-6.55-1.55ZM326.8,16.1c-1.12-1.12-2.68-1.68-4.68-1.68-1.89,0-3.48.59-4.76,1.76-1.24,1.14-2,2.69-2.27,4.64-.01.09.06.17.15.17h13.24c.09,0,.16-.08.15-.16-.13-2.06-.74-3.64-1.83-4.73Z" fill="#00003a"/>
        <path d="M180.23,16.15c-.96-1.93-2.3-3.41-4-4.45-1.7-1.03-3.62-1.55-5.76-1.55-1.72,0-3.27.37-4.66,1.1-1.25.66-2.29,1.57-3.12,2.71-.09.12-.27.06-.27-.08v-3.05c0-.08-.07-.15-.15-.15h-4.7c-.08,0-.15.07-.15.15v34.32c0,.08.07.15.15.15h4.75c.08,0,.15-.07.15-.15v-8.96c0-.08.07-.15.15-.15h7.79c2.14,0,4.07-.53,5.79-1.6,1.72-1.07,3.06-2.6,4.02-4.58.96-1.98,1.45-4.27,1.45-6.87v-.05c0-2.6-.48-4.86-1.45-6.79ZM176.31,23.15c0,2.67-.65,4.75-1.95,6.26-1.3,1.51-3.02,2.26-5.16,2.26h0s-6.64,0-6.64,0c-.08,0-.15-.07-.15-.15v-11.15c.3-1.36.84-2.53,1.63-3.51,1.26-1.56,2.98-2.34,5.16-2.34,2.21,0,3.95.72,5.21,2.16,1.26,1.44,1.89,3.47,1.89,6.1v.37Z" fill="#00003a"/>
      </g>
    </g>
</svg>