<?xml version="1.0" encoding="UTF-8"?> <svg xmlns="http://www.w3.org/2000/svg" width="143" height="32" viewBox="0 0 143 32" fill="none"><path d="M30.6803 22.3633C28.2192 28.0342 22.5733 32 15.999 32C15.7314 32 15.4658 31.9939 15.2023 31.9797C6.73449 31.5641 0 24.5672 0 15.9949C0 14.5615 0.192587 13.1726 0.547354 11.8507C0.908203 11.4655 1.41501 11.2242 1.97859 11.2242C3.07127 11.2242 3.96123 12.1224 3.96123 13.2233V13.866C3.96123 13.8762 3.95717 13.8883 3.95717 13.8965V18.7645C3.95717 20.7778 5.5891 22.416 7.59404 22.416C9.59898 22.416 11.2309 20.7778 11.2309 18.7645V14.8372C11.2309 14.823 11.2269 14.8129 11.2269 14.7987V13.2213C11.2269 12.1204 12.1168 11.2222 13.2095 11.2222C14.3022 11.2222 15.1921 12.1204 15.1921 13.2213V18.7624C15.1921 20.7758 16.822 22.414 18.827 22.414C20.8319 22.414 22.4639 20.7758 22.4639 18.7624V14.8352C22.4639 14.821 22.4598 14.8109 22.4598 14.7967V13.2193C22.4598 12.1183 23.3498 11.2202 24.4424 11.2202C25.5351 11.2202 26.4251 12.1183 26.4251 13.2193V13.349C26.4251 13.349 26.4251 13.3673 26.4251 13.3774V18.7604C26.4251 20.6136 27.8077 22.1504 29.5896 22.3815C29.7416 22.4018 29.8998 22.4119 30.0579 22.4119C30.2728 22.4119 30.4816 22.3896 30.6884 22.3552" fill="#073C8C"></path><path d="M31.9997 15.999C31.9997 17.4486 31.8031 18.8476 31.4442 20.1837C31.4442 20.1837 31.4422 20.1878 31.4422 20.1898C31.4402 20.1898 31.4382 20.1939 31.4361 20.1939C31.0773 20.5487 30.5908 20.7677 30.0515 20.7677C28.9588 20.7677 28.0689 19.8695 28.0689 18.7685V17.619C28.0689 17.6068 28.0689 17.5987 28.0689 17.5906V13.2274C28.0689 11.2141 26.439 9.57384 24.434 9.57384C22.4291 9.57384 20.7972 11.2141 20.7972 13.2274V17.6879C20.7972 17.698 20.8012 17.7102 20.8012 17.7224V18.7685C20.8012 19.8695 19.9113 20.7677 18.8186 20.7677C17.7259 20.7677 16.8359 19.8695 16.8359 18.7685V13.2274C16.8359 11.2141 15.206 9.57384 13.2011 9.57384C11.1962 9.57384 9.56423 11.2141 9.56423 13.2274V17.6879C9.56423 17.698 9.56828 17.7122 9.56828 17.7224V18.7685C9.56828 19.8695 8.67832 20.7677 7.58564 20.7677C6.49296 20.7677 5.603 19.8695 5.603 18.7685V18.1258C5.603 18.1157 5.60705 18.1056 5.60705 18.0954V13.2294C5.60705 11.2161 3.97715 9.57993 1.97221 9.57587C1.74718 9.57587 1.52824 9.59817 1.31335 9.63872C3.77443 3.96579 9.42029 0 15.9967 0C16.0838 0 16.1669 0 16.2541 0C24.9713 0.13787 31.9977 7.2483 31.9977 15.999" fill="#55C6C2"></path><path d="M112.595 23.8748C111.54 23.8748 110.586 23.6352 109.733 23.1561C108.881 22.6634 108.211 21.979 107.724 21.1029C107.237 20.2132 106.994 19.1866 106.994 18.0231C106.994 16.8733 107.244 15.8535 107.745 14.9638C108.245 14.074 108.928 13.3896 109.794 12.9105C110.66 12.4314 111.628 12.1919 112.696 12.1919C113.765 12.1919 114.733 12.4314 115.599 12.9105C116.464 13.3896 117.148 14.074 117.648 14.9638C118.149 15.8535 118.399 16.8733 118.399 18.0231C118.399 19.1729 118.142 20.1926 117.628 21.0824C117.114 21.9721 116.41 22.6634 115.517 23.1561C114.638 23.6352 113.664 23.8748 112.595 23.8748ZM112.595 21.8421C113.19 21.8421 113.745 21.6983 114.259 21.4109C114.787 21.1234 115.213 20.6923 115.538 20.1174C115.862 19.5425 116.025 18.8444 116.025 18.0231C116.025 17.2018 115.869 16.5105 115.558 15.9493C115.247 15.3744 114.834 14.9432 114.32 14.6558C113.806 14.3683 113.251 14.2246 112.656 14.2246C112.061 14.2246 111.506 14.3683 110.992 14.6558C110.491 14.9432 110.092 15.3744 109.794 15.9493C109.497 16.5105 109.348 17.2018 109.348 18.0231C109.348 19.2413 109.652 20.1858 110.261 20.8565C110.883 21.5136 111.661 21.8421 112.595 21.8421Z" fill="#073C8C"></path><path d="M104.482 12.1919V23.9656H103.325H102.168V12.1919H104.482Z" fill="#073C8C"></path><path d="M102.523 10.1222C102.759 10.3598 103.052 10.4787 103.402 10.4787C103.74 10.4787 104.027 10.3598 104.263 10.1222C104.5 9.88448 104.618 9.5902 104.618 9.23934C104.618 8.88848 104.5 8.5942 104.263 8.35652C104.027 8.11884 103.74 8 103.402 8C103.052 8 102.759 8.11884 102.523 8.35652C102.286 8.5942 102.168 8.88848 102.168 9.23934C102.168 9.5902 102.286 9.88448 102.523 10.1222Z" fill="#073C8C"></path><path d="M98.5021 23.9657C98.1528 23.9657 97.8599 23.8469 97.6233 23.6092C97.3867 23.3715 97.2684 23.0773 97.2684 22.7264C97.2684 22.3755 97.3867 22.0813 97.6233 21.8436C97.8599 21.6059 98.1528 21.4871 98.5021 21.4871C98.8401 21.4871 99.1273 21.6059 99.3639 21.8436C99.6005 22.0813 99.7188 22.3755 99.7188 22.7264C99.7188 23.0773 99.6005 23.3715 99.3639 23.6092C99.1273 23.8469 98.8401 23.9657 98.5021 23.9657Z" fill="#073C8C"></path><path d="M83.3969 18.0545C83.3969 16.9184 83.6269 15.9123 84.0869 15.0362C84.5604 14.1602 85.1963 13.4826 85.9945 13.0035C86.8063 12.5108 87.7061 12.2644 88.6937 12.2644C89.4243 12.2644 90.1414 12.4286 90.8449 12.7572C91.562 13.072 92.1303 13.4963 92.5497 14.0302V8.16412H94.8836V23.9473H92.5497V22.0583C92.1708 22.6058 91.6432 23.0575 90.9667 23.4134C90.3038 23.7693 89.5393 23.9473 88.6734 23.9473C87.6993 23.9473 86.8063 23.7009 85.9945 23.2081C85.1963 22.7016 84.5604 22.0035 84.0869 21.1138C83.6269 20.2104 83.3969 19.1906 83.3969 18.0545ZM92.5497 18.0956C92.5497 17.3153 92.3873 16.6378 92.0626 16.0629C91.7514 15.488 91.3388 15.0499 90.8246 14.7488C90.3105 14.4477 89.7558 14.2971 89.1605 14.2971C88.5652 14.2971 88.0105 14.4477 87.4963 14.7488C86.9822 15.0362 86.5628 15.4674 86.2381 16.0423C85.9269 16.6035 85.7713 17.2743 85.7713 18.0545C85.7713 18.8347 85.9269 19.5191 86.2381 20.1077C86.5628 20.6963 86.9822 21.148 87.4963 21.4629C88.024 21.764 88.5787 21.9146 89.1605 21.9146C89.7558 21.9146 90.3105 21.764 90.8246 21.4629C91.3388 21.1617 91.7514 20.7237 92.0626 20.1488C92.3873 19.5602 92.5497 18.8758 92.5497 18.0956Z" fill="#073C8C"></path><path d="M76.2665 12.1919C77.1459 12.1919 77.9307 12.3767 78.6207 12.7463C79.3242 13.1158 79.8722 13.6634 80.2645 14.3888C80.6569 15.1143 80.8531 15.9904 80.8531 17.017V23.9998H78.5598V17.366C78.5598 16.3531 78.3095 15.5797 77.8089 15.0459C77.3083 14.4984 76.625 14.2246 75.7591 14.2246C74.8932 14.2246 74.2032 14.4984 73.6891 15.0459C73.1885 15.5797 72.9382 16.3531 72.9382 17.366V23.9998H70.6246V12.1919H72.9382V13.6702C73.317 13.2048 73.7973 12.8421 74.3791 12.582C74.9744 12.3219 75.6036 12.1919 76.2665 12.1919Z" fill="#073C8C"></path><path d="M68.1697 17.7561C68.1697 18.1805 68.1426 18.5637 68.0885 18.906H59.5445C59.6122 19.8094 59.9437 20.5348 60.539 21.0824C61.1343 21.6299 61.8649 21.9037 62.7308 21.9037C63.9755 21.9037 64.8549 21.3767 65.3691 20.3227H67.8653C67.527 21.363 66.9114 22.2185 66.0185 22.8892C65.1391 23.5462 64.0432 23.8748 62.7308 23.8748C61.6619 23.8748 60.7013 23.6352 59.8489 23.1561C59.0101 22.6634 58.3472 21.979 57.8601 21.1029C57.3866 20.2132 57.1498 19.1866 57.1498 18.0231C57.1498 16.8596 57.3798 15.8398 57.8398 14.9638C58.3133 14.074 58.9695 13.3896 59.8084 12.9105C60.6607 12.4314 61.6349 12.1919 62.7308 12.1919C63.7861 12.1919 64.7264 12.4246 65.5517 12.89C66.377 13.3554 67.0197 14.0124 67.4797 14.8611C67.9397 15.6961 68.1697 16.6611 68.1697 17.7561ZM65.7547 17.017C65.7411 16.1546 65.4367 15.4634 64.8414 14.9432C64.2461 14.4231 63.5087 14.163 62.6293 14.163C61.831 14.163 61.1478 14.4231 60.5796 14.9432C60.0113 15.4497 59.6731 16.1409 59.5648 17.017H65.7547Z" fill="#073C8C"></path><path d="M54.8556 9.40356V23.9833H52.542V14.21L48.2396 23.9833H46.6363L42.3136 14.21V23.9833H40V9.40356H41.2481H42.4962L47.4481 20.9035L52.3797 9.40356H53.6176H54.8556Z" fill="#073C8C"></path></svg> 