<svg xmlns="http://www.w3.org/2000/svg" width="112" height="44"><path fill="#FF5745" fill-rule="evenodd" d="M41.87 15.252c3.484 0 5.51 2.192 5.51 5.351l-.023 1.945a.097.097 0 01-.097.09h-8.262c0 2.243 1.128 3.57 3.297 3.57 1.308 0 2.13-.388 3.044-1.271a.098.098 0 01.134 0l1.573 1.4a.095.095 0 01.006.136 6.472 6.472 0 01-4.81 2.064c-3.318 0-5.883-1.695-5.883-6.669v-.156c.007-1.302.174-2.431.588-3.364.885-1.996 2.68-3.096 4.922-3.096zm2.978 5.22l-.003-.21c-.025-.602-.101-.894-.356-1.34-.408-.737-1.323-1.242-2.544-1.242-1.22 0-2.162.505-2.57 1.242-.255.446-.306.737-.33 1.34v.21h5.803zm22.883-5.22c3.485 0 5.51 2.192 5.51 5.351l-.021 1.945a.097.097 0 01-.098.09h-8.261c0 2.243 1.127 3.57 3.297 3.57 1.307 0 2.13-.388 3.043-1.271a.098.098 0 01.135 0l1.572 1.4a.095.095 0 01.006.136 6.472 6.472 0 01-4.809 2.064c-3.318 0-5.884-1.695-5.884-6.669v-.156c.007-1.302.175-2.431.588-3.364.885-1.996 2.68-3.096 4.922-3.096zm2.977 5.22v-.21c-.024-.602-.101-.894-.356-1.34-.407-.737-1.323-1.242-2.544-1.242-1.22 0-2.162.505-2.57 1.242-.254.446-.304.737-.33 1.34v.21h5.8zm-45.956-4.97a.095.095 0 01.027-.07.098.098 0 01.071-.03h10.325c.035 0 .068.018.085.049a.095.095 0 01-.002.097l-6.425 10.478h6.316c.054 0 .097.043.097.096v2.166c0 .025-.01.05-.028.067a.098.098 0 01-.07.029h-10.62a.097.097 0 01-.085-.05.095.095 0 01.001-.096l6.454-10.474H24.85a.098.098 0 01-.07-.028.095.095 0 01-.028-.068v-2.166zm69.278-3.44a.095.095 0 01.098.096v3.249h2.576c.054 0 .097.042.097.095v2.168a.096.096 0 01-.097.096h-2.576v6.084c0 1.5.647 2.158 1.929 2.216.129.007.259.007.388 0a.098.098 0 01.07.025c.02.017.031.04.033.066v2.216a.096.096 0 01-.093.096c-.13.007-.274.007-.508.007-2.275 0-4.353-1.104-4.353-3.922v-6.789h-1.733a.096.096 0 01-.097-.096v-2.168c0-.053.043-.095.097-.095h1.733v-3.249c0-.053.044-.096.097-.096h2.34zm12.626 9.779c.96.666 1.406 1.581 1.337 2.914-.134 2.576-2.522 3.784-5.047 3.784-1.972 0-3.9-.755-5.039-2.02a.095.095 0 01.009-.134L99.47 25a.098.098 0 01.135.005c.865.871 1.936 1.305 3.177 1.305 1.073 0 2.666-.4 2.697-1.7.034-1.335-1.714-1.409-2.698-1.584-1.443-.256-2.911-.542-3.848-1.55a3.138 3.138 0 01-.709-1.204 4.084 4.084 0 01-.077-2.024 3.38 3.38 0 01.78-1.55 4.08 4.08 0 011.441-1.003 6.52 6.52 0 012.473-.444 7.552 7.552 0 011.889.251c.556.16 1.086.398 1.572.707.409.263.77.591 1.07.97a.09.09 0 01-.013.13l-1.588 1.415a.093.093 0 01-.136-.005c-.675-.724-1.624-1.003-2.376-1.067-.652-.056-1.344-.034-2.005.31a1.23 1.23 0 00-.683 1.104c-.021.821.238 1.219 2.35 1.576 1.593.27 2.868.601 3.735 1.199zm-20.194-8.89c-.989 0-1.79-.791-1.79-1.766s.801-1.766 1.79-1.766 1.79.79 1.79 1.766c0 .975-.801 1.765-1.79 1.765zm-7.35 2.456h8.516c.054 0 .097.042.097.095v12.792a.096.096 0 01-.097.096H85.29a.098.098 0 01-.068-.028.095.095 0 01-.029-.068V17.766h-6.087v10.528a.098.098 0 01-.097.096h-2.34a.098.098 0 01-.068-.028.095.095 0 01-.029-.068V17.762h-1.956a.096.096 0 01-.097-.096v-2.168a.097.097 0 01.097-.091h1.956v-2.021c0-2.616 1.824-4.04 4.389-4.04h.236a9.188 9.188 0 011.632.153.096.096 0 01.08.09v2.153a.09.09 0 01-.033.072.093.093 0 01-.077.02 12.191 12.191 0 00-1.644-.092c-1.044.021-1.965.536-2.041 1.87v1.795zm-20.498 1.015c1.187 1.08 1.573 2.467 1.573 3.887v7.974a.096.096 0 01-.097.096h-2.339a.096.096 0 01-.097-.096v-7.977c0-1.268-.857-2.252-2.091-2.453-.772-.127-1.918-.076-2.59.337-.551.34-1.063.941-1.063 1.616v8.482a.09.09 0 01-.029.067.098.098 0 01-.069.029h-2.34a.096.096 0 01-.097-.096V15.502c0-.053.044-.095.097-.095h2.341c.054 0 .097.042.097.095v.943l.118-.105c.162-.14.333-.27.512-.388.845-.552 1.705-.699 2.706-.699 1.436 0 2.536.409 3.368 1.169zm-41.966-4.898v2.645L0 22.742v-2.623l6.631-3.416L0 15.062V12.66l9.776 2.423 3.75-1.932L0 9.802V7.4l16.648 4.124zM0 28.275v-2.647l16.648-8.573v2.628l-6.63 3.415 6.63 1.642v2.4L6.87 24.718 3.12 26.65 16.648 30v2.4L0 28.275z"/></svg>