<svg xmlns="http://www.w3.org/2000/svg" class="objcvr" fill="none" height="32" width="144"><g clip-path="url(#dark-logo-dsk_svg__clip0_11851_4046)"><path d="M108.904 7.345c-2.668 0-4.346 1.897-4.346 5.065v2.918c0 3.242 1.678 5.034 4.346 5.034 2.669 0 4.347-1.792 4.347-5.034V12.41c0-3.168-1.678-5.065-4.347-5.065zm0 16.343c-5.034 0-8.36-3.41-8.36-9.736 0-6.327 3.326-9.872 8.36-9.872 5.035 0 8.361 3.386 8.361 9.872s-3.326 9.736-8.361 9.736zM137.999 23.688c3.364 0 5.813-1.05 5.813-4.331 0-2.903-1.451-3.576-4.414-4.06l-1.799-.294c-1.051-.16-1.452-.537-1.452-1.369 0-.884.484-1.21 1.671-1.21 1.073 0 1.784.447 1.965 1.165.061.234.28.393.522.393h2.593a.538.538 0 00.536-.59c-.264-2.857-2.525-3.877-5.73-3.877-3.205 0-5.351 1.21-5.351 4.225 0 2.744 1.315 3.682 4.089 4.143l1.988.325c1.104.189 1.693.242 1.693 1.345 0 1.104-.967 1.346-2.124 1.346-1.156 0-2.011-.522-2.305-1.376a.546.546 0 00-.514-.37h-2.525a.537.537 0 00-.522.665c.688 2.842 2.661 3.87 5.866 3.87zM91.775 23.393h3.266c.15 0 .272-.12.272-.272v-6.478c0-2.57 1.542-3.296 3.65-3.349a.27.27 0 00.266-.272V9.734a.27.27 0 00-.288-.272c-1.481.098-2.638.967-3.424 2.237a.106.106 0 01-.197-.06V9.787a.271.271 0 00-.332-.265l-3.266.764a.275.275 0 00-.211.264v12.563a.262.262 0 00.264.28zM53.466 23.688c1.98 0 2.94-.635 3.711-2.32.045-.106.204-.069.204.045v1.436c0 .295.242.537.537.537h2.676a.539.539 0 00.537-.537V10.134a.545.545 0 00-.666-.529l-2.676.62a.543.543 0 00-.415.53v6.56c0 1.543-.673 3.32-2.54 3.32-1.406 0-2.079-1.24-2.079-2.783v-7.718a.545.545 0 00-.665-.529l-2.646.62a.543.543 0 00-.416.53v8.103c.008 3.13 1.603 4.83 4.438 4.83zM126.048 9.492c-1.61 0-2.698.582-3.605 1.799-.061.083-.197.038-.197-.068V10.18a.545.545 0 00-.665-.53l-2.638.628a.543.543 0 00-.416.53V27.74c0 .295.242.536.537.536h2.638a.538.538 0 00.536-.536v-5.775c0-.106.144-.152.197-.053.763 1.224 2.026 1.768 3.598 1.768 3.613 0 5.231-2.774 5.231-6.281v-1.754c.015-3.538-1.739-6.153-5.216-6.153zm1.338 7.793c0 1.867-.514 2.971-2.487 2.971-1.731 0-2.645-1.217-2.645-2.97v-1.482c0-1.89.755-3.13 2.645-3.13 1.89 0 2.487 1.323 2.487 3.13v1.481zM70.655 9.477c-1.663 0-2.782.627-3.704 1.935-.03.045-.098.023-.098-.03v-1.225a.545.545 0 00-.665-.529l-2.639.627a.543.543 0 00-.415.53v16.932c0 .295.242.537.536.537h2.639a.539.539 0 00.536-.537v-5.972c0-.053.076-.075.099-.022.748 1.345 2.048 1.935 3.696 1.935 3.613 0 5.23-2.774 5.23-6.282v-1.754c.016-3.53-1.738-6.145-5.215-6.145zm1.338 7.793c0 1.867-.514 2.971-2.487 2.971-1.731 0-2.646-1.217-2.646-2.97v-1.482c0-1.89.756-3.13 2.646-3.13s2.487 1.323 2.487 3.13v1.481zM89.477 15.88c0-3.833-2.23-6.365-6.01-6.365-3.779 0-6.364 1.935-6.364 6.259v1.768c0 4 2.638 6.146 6.259 6.146 2.88 0 5.133-1.126 5.858-3.659a.543.543 0 00-.514-.695h-2.713a.415.415 0 00-.363.204c-.235.43-.96.831-1.966.831-1.277 0-2.26-.71-2.502-1.851-.045-.265-.098-.537-.128-.862a.112.112 0 01.105-.121h7.802a.539.539 0 00.536-.537V15.88zm-8.383-.613c-.06 0-.106-.053-.106-.113.038-1.505.794-2.533 2.427-2.533s2.29.953 2.32 2.533c0 .06-.045.113-.105.113h-4.536z" fill="#fff"></path><path d="M6.01 31.428v-5.465a.57.57 0 01.294-.491L26.253 14.45v6.425a.637.637 0 01-.333.552L6.924 31.92c-.408.227-.914-.053-.914-.492z" fill="#E0064B"></path><path d="M14.37 13.793l10.764 6.743s.53.272.544.612c.023.34-.28.567-.28.567s.295-.166.522-.287a.642.642 0 00.325-.461c0-.023.008-.046.008-.068v-7.227a.603.603 0 00-.28-.499l-5.39-3.379a.655.655 0 00-.665-.015L14.4 12.826c-.34.189-.378.748-.03.967z" fill="#F05"></path><path d="M20.243.572v5.465a.57.57 0 01-.294.492L0 17.558v-6.426c0-.226.129-.438.333-.552L19.32.08c.408-.226.922.054.922.492z" fill="#E0064B"></path><path d="M11.883 18.208L1.119 11.465s-.53-.272-.545-.612c-.022-.34.28-.567.28-.567s-.295.166-.521.287a.642.642 0 00-.325.461c0 .023-.008.045-.008.068v7.226c0 .197.106.386.28.5l5.39 3.378a.655.655 0 00.665.015l5.518-3.046c.332-.189.378-.748.03-.967z" fill="#F05"></path><path d="M41.19 23.688c4.021 0 6.538-1.557 6.538-5.548 0-3.417-1.829-4.513-4.92-5.715l-1.943-.824c-1.013-.386-2.434-.764-2.434-2.32 0-1.256.846-1.89 2.38-1.89 1.671 0 2.57.604 2.79 2.131.03.272.272.461.522.461h2.653a.535.535 0 00.544-.574c-.355-3.53-2.79-5.33-6.508-5.33-3.908 0-6.237 2.11-6.237 5.307 0 3.198 1.89 4.566 4.732 5.549l1.83.657c1.534.544 2.706 1.013 2.706 2.706 0 1.694-1.036 2.079-2.676 2.079-1.913 0-2.79-.521-3.25-2.35-.053-.25-.303-.409-.545-.409h-2.66a.531.531 0 00-.522.627c.703 3.75 2.948 5.443 7 5.443z" fill="#fff"></path></g><defs><clipPath id="dark-logo-dsk_svg__clip0_11851_4046"><path d="M0 0h143.812v32H0z" fill="#fff"></path></clipPath></defs></svg>