<?xml version="1.0" encoding="UTF-8" standalone="no"?>
<svg xmlns:dc="http://purl.org/dc/elements/1.1/"
  xmlns:cc="http://creativecommons.org/ns#"
  xmlns:rdf="http://www.w3.org/1999/02/22-rdf-syntax-ns#"
  xmlns:svg="http://www.w3.org/2000/svg"
  xmlns="http://www.w3.org/2000/svg"
  xmlns:sodipodi="http://sodipodi.sourceforge.net/DTD/sodipodi-0.dtd"
  xmlns:inkscape="http://www.inkscape.org/namespaces/inkscape" version="1.1" id="svg2" xml:space="preserve" width="510.67999" height="179.16" viewBox="0 0 510.67999 179.16" sodipodi:docname="cwe-logo.eps">
  <metadata id="metadata8">
    <rdf:RDF>
      <cc:Work rdf:about="">
        <dc:format>image/svg+xml</dc:format>
        <dc:type rdf:resource="http://purl.org/dc/dcmitype/StillImage" />
      </cc:Work>
    </rdf:RDF>
  </metadata>
  <defs id="defs6" />
  <sodipodi:namedview pagecolor="#ffffff" bordercolor="#666666" borderopacity="1" objecttolerance="10" gridtolerance="10" guidetolerance="10" inkscape:pageopacity="0" inkscape:pageshadow="2" inkscape:window-width="640" inkscape:window-height="480" id="namedview4" />
  <g id="g10" inkscape:groupmode="layer" inkscape:label="ink_ext_XXXXXX" transform="matrix(1.3333333,0,0,-1.3333333,0,179.16)">
    <g id="g12" aria-label="CWE Logo" transform="scale(0.1)">
      <path d="m 699.895,1040.39 c -257.793,0 -451.567,-183.808 -451.567,-409.042 0,-208.231 178.715,-379.996 409.477,-404.7 l -2.739,0.5 H 1147.52 L 1228.42,1.44922 620.859,0.949219 C 279.902,0.949219 24.6992,273.449 24.6992,636.094 c 0,308.281 244.6558,634.666 644.1798,634.666 h 128.98 l 87.336,-230.28 -185.3,-0.09" style="fill:#9fafc6;fill-opacity:1;fill-rule:nonzero;stroke:none" id="path14" />
      <path d="m 2005.61,659.363 c 49.19,-151.39 102.18,-302.761 157.07,-450.332 168.39,350.032 367.3,703.86 524.37,1059.589 h 285.7 L 2355.9,6.57031 H 2015.33 C 1979.39,129.539 1939.64,252.551 1896.11,373.633 1837.46,252.551 1780.7,129.539 1729.61,6.57031 H 1387.13 L 917.895,1268.62 h 257.635 c 115.42,-357.604 238.41,-713.335 367.08,-1067.159 71.89,145.699 171.87,293.273 236.2,442.746 -68.1,210.023 -143.81,418.183 -221.36,624.413 h 240.01 l 107.47,-329.237" style="fill:#9fafc6;fill-opacity:1;fill-rule:nonzero;stroke:none" id="path16" />
      <path d="m 3119.06,1272.21 h 681.86 L 3705.73,1071.7 H 3281.59 L 3132.77,758.223 h 381.81 l -95.16,-200.485 h -381.81 l -169.6,-357.25 h 425.82 L 3198.65,0 c 0,0 -214.08,0 -436.69,0 -136.64,0 -246.88,0 -246.88,0 l 603.98,1272.21" style="fill:#9fafc6;fill-opacity:1;fill-rule:nonzero;stroke:none" id="path18" />
      <path d="m 675.059,1101.93 c -257.793,0 -451.426,-183.797 -451.426,-409.032 0,-208.226 178.711,-380 409.476,-404.687 l -2.734,0.488 H 1125.07 L 1206.23,63 598.414,62.5 C 255.211,62.5 0,335 0,697.645 0,1005.93 244.656,1332.31 644.184,1332.31 h 130.23 l 86.848,-228.42 -186.067,-1.95" style="fill:#314a8d;fill-opacity:1;fill-rule:nonzero;stroke:none" id="path20" />
      <path d="m 1994.39,721.664 c 49.2,-151.391 102.19,-302.766 157.07,-450.336 168.4,350.031 331.11,703.86 488.17,1059.592 h 285.71 L 2308.48,68.8711 H 1967.91 C 1931.97,191.84 1892.23,314.852 1848.69,435.93 1790.04,314.852 1733.29,191.84 1682.2,68.8711 H 1339.72 L 870.473,1330.92 h 287.597 c 115.43,-357.607 238.42,-713.326 367.09,-1067.158 71.89,145.699 141.91,293.273 206.23,442.746 -68.09,210.023 -143.81,418.182 -221.37,624.412 h 276.23 l 107.47,-329.24" style="fill:#ffffff;fill-opacity:1;fill-rule:nonzero;stroke:none" id="path22" />
      <path d="m 1994.39,721.664 c 49.2,-151.391 102.19,-302.766 157.07,-450.336 168.4,350.031 331.11,703.86 488.17,1059.592 h 285.71 L 2308.48,68.8711 H 1967.91 C 1931.97,191.84 1892.23,314.852 1848.69,435.93 1790.04,314.852 1733.29,191.84 1682.2,68.8711 H 1339.72 L 870.473,1330.92 h 287.597 c 115.43,-357.607 238.42,-713.326 367.09,-1067.158 71.89,145.699 141.91,293.273 206.23,442.746 -68.09,210.023 -143.81,418.182 -221.37,624.412 h 276.23 l 107.47,-329.24" style="fill:none;stroke:#81171b;stroke-width:25.5696;stroke-linecap:butt;stroke-linejoin:miter;stroke-miterlimit:4;stroke-dasharray:none;stroke-opacity:1" id="path24" />
      <path d="m 3071.64,1334.51 h 758.5 L 3734.93,1134 H 3234.18 L 3085.35,820.52 h 458.42 L 3448.62,620.039 H 2990.2 l -169.61,-357.25 h 504.45 L 3229.85,62.3008 c 0,0 -292.7,0 -515.31,0 -136.63,0 -246.88,0 -246.88,0 L 3071.64,1334.51" style="fill:#314a8d;fill-opacity:1;fill-rule:nonzero;stroke:none" id="path26" />
      <g id="g28" transform="scale(10)">
        <g aria-label="TM" transform="matrix(1,0,0,-1,336.847,19.391)" id="text32" style="font-style:italic;font-variant:normal;font-size:10px;font-family:Frutiger;-inkscape-font-specification:Frutiger-Italic;writing-mode:lr-tb;fill:#314a8d;fill-opacity:1;fill-rule:nonzero;stroke:none">
          <path d="M 1.4306641,-7.2900391 H 7.5976562 L 7.4316406,-6.4599609 H 4.84375 L 3.5498047,0 H 2.5585938 L 3.8525391,-6.4599609 H 1.2646484 Z" id="path34" />
          <path d="m 8.0014062,-7.2900391 h 1.4697266 l 0.8642582,4.9609375 2.866211,-4.9609375 h 1.469726 L 13.211367,0 h -0.961914 l 1.279297,-6.4013672 -2.880859,5 H 9.6566796 l -0.8789062,-5 L 7.4984765,0 H 6.5414453 Z" id="path36" />
        </g>
      </g>
    </g>
  </g>
</svg>
