<svg xmlns="http://www.w3.org/2000/svg" viewBox="0 0 36 36"><g id="Layer_2" data-name="Layer 2"><g id="Layer_1-2" data-name="Layer 1"><path d="M31.17,19.81a1.25,1.25,0,0,1-.35.86,1.2,1.2,0,0,1-2-.86V9a1.2,1.2,0,0,1,2-.86,1.25,1.25,0,0,1,.35.86Zm-.41,7.49c-.16.16-4.62,3.91-12.78,3.91S5.39,27.48,5.21,27.32A1.12,1.12,0,0,1,4.92,27a1.17,1.17,0,0,1-.13-.45,1.41,1.41,0,0,1,0-.46,1.27,1.27,0,0,1,.23-.41,1.22,1.22,0,0,1,.81-.42,1.2,1.2,0,0,1,.87.29c.07,0,4.05,3.31,11.22,3.31s11.18-3.28,11.22-3.31a1.21,1.21,0,0,1,1.69.13,1.14,1.14,0,0,1,.28.86,1.2,1.2,0,0,1-.39.81ZM4.78,9a1.24,1.24,0,0,1,.4-.84,1.21,1.21,0,0,1,.87-.31,1.18,1.18,0,0,1,.78.36A1.17,1.17,0,0,1,7.17,9V19.79a1.2,1.2,0,0,1-2,.86,1.25,1.25,0,0,1-.35-.86Zm6-2.4a1.23,1.23,0,0,1,.39-.84,1.21,1.21,0,0,1,.87-.31,1.19,1.19,0,0,1,.79.36,1.21,1.21,0,0,1,.34.79v16a1.25,1.25,0,0,1-.35.86,1.2,1.2,0,0,1-2-.86Zm6-.6a1.25,1.25,0,0,1,.35-.86,1.21,1.21,0,0,1,1.7,0,1.25,1.25,0,0,1,.35.86V23.4a1.25,1.25,0,0,1-.35.86,1.21,1.21,0,0,1-1.7,0,1.25,1.25,0,0,1-.35-.86Zm5.94.6a1.25,1.25,0,0,1,.35-.86,1.2,1.2,0,0,1,2,.86v16a1.2,1.2,0,0,1-2,.86,1.25,1.25,0,0,1-.35-.86ZM31.5,0H4.5A4.4,4.4,0,0,0,1.33,1.31a4.42,4.42,0,0,0-1,1.46A4.49,4.49,0,0,0,0,4.5v27a4.49,4.49,0,0,0,.35,1.73,4.42,4.42,0,0,0,1,1.46A4.4,4.4,0,0,0,4.5,36h27a4.56,4.56,0,0,0,1.71-.33,4.49,4.49,0,0,0,2.44-2.43A4.49,4.49,0,0,0,36,31.51V4.5a4.49,4.49,0,0,0-.35-1.73,4.66,4.66,0,0,0-1-1.46,4.44,4.44,0,0,0-1.46-1A4.39,4.39,0,0,0,31.51,0"/></g></g></svg>