<svg version="1.1" id="Layer_1" xmlns:x="ns_extend;" xmlns:i="ns_ai;" xmlns:graph="ns_graphs;" xmlns="http://www.w3.org/2000/svg" xmlns:xlink="http://www.w3.org/1999/xlink" x="0px" y="0px" viewBox="0 0 284.4 100" style="enable-background:new 0 0 284.4 100;" xml:space="preserve">
 <style type="text/css">
  .st0{fill:#48206E;}
	.st1{fill:#231F20;}
 </style>
 <metadata>
  <sfw xmlns="ns_sfw;">
   <slices>
   </slices>
   <sliceSourceBounds bottomLeftOrigin="true" height="100" width="284.4" x="-157.6" y="0.6">
   </sliceSourceBounds>
  </sfw>
 </metadata>
 <g>
  <path class="st0" d="M53.6,1.2C54.3,0.4,55,0,56.1,0s1.6,0.2,2.5,1.2L85.1,37H73.5c-2.9,0-4.9,1-6.5,3.1L42.2,73.5H0L53.6,1.2z">
  </path>
  <path class="st1" d="M109.5,99.2h-4.8c-1,0-1.9-0.8-1.9-1.7V60.5c0-0.9,0.8-1.7,1.9-1.7h18.3c2.1,0,4.2,0.3,6.2,1
		c1.8,0.7,3.4,1.7,4.8,2.9c0.7,0.6,1.3,1.3,1.8,2c0.5,0.8,1,1.6,1.3,2.4c0.7,1.8,1.1,3.7,1.1,5.6c0,3.1-0.8,5.8-2.5,8
		c-1.3,1.8-3,3.2-5,4.2c-0.4,0.2-0.7,0.5-0.9,0.9c-0.1,0.4,0,0.8,0.3,1.1c1.5,1.8,2.9,3.6,4.3,5.2c1.3,1.6,2.8,3.4,4.2,5.2
		c0.3,0.3,0.4,0.8,0.3,1.2c-0.2,0.4-0.6,0.7-1,0.6h-6.1c-0.6,0-1.1-0.1-1.6-0.4c-0.5-0.2-1-0.5-1.3-0.9c-0.7-0.8-1.4-1.7-2-2.5
		l-2-2.5l-4-5.1c-0.4-0.4-0.8-0.8-1.3-1c-0.5-0.2-1.1-0.4-1.6-0.4h-4.7c-1,0-1.9,0.7-1.9,1.7v9.5c0,0.4-0.2,0.9-0.5,1.2
		C110.3,99.1,109.9,99.3,109.5,99.2L109.5,99.2L109.5,99.2z M113.2,79.5h9.8c0.8,0,1.6-0.2,2.4-0.4c0.8-0.3,1.6-0.7,2.2-1.3
		c0.7-0.6,1.2-1.3,1.6-2.1c0.4-0.9,0.7-2,0.6-3c0-0.7-0.1-1.4-0.2-2.1c-0.1-0.4-0.2-0.8-0.4-1.2c-0.2-0.4-0.3-0.8-0.5-1.1
		c-0.5-0.8-1.2-1.4-2.1-1.9c-1.1-0.6-2.3-0.8-3.6-0.8h-9.8c-1,0-1.9,0.7-1.9,1.7v10.5C111.3,78.7,112.1,79.5,113.2,79.5
		C113.1,79.5,113.2,79.5,113.2,79.5z M229.7,92.5l2.5-3.4c0.2-0.4,0.7-0.7,1.2-0.7c0.5-0.1,1,0,1.4,0.3c1.7,1,3.5,1.9,5.3,2.7
		c2.3,1,4.9,1.6,7.5,1.6c1.2,0,2.5-0.1,3.7-0.5c1-0.3,1.9-0.7,2.7-1.2c0.7-0.4,1.2-1,1.6-1.7c0.4-0.6,0.5-1.2,0.5-1.9
		c0-0.8-0.3-1.5-0.9-2.1c-0.6-0.6-1.4-1.1-2.2-1.4c-0.5-0.2-1-0.4-1.5-0.5c-0.5-0.1-1.1-0.3-1.8-0.5c-0.6-0.1-1.2-0.3-1.8-0.4
		c-0.6-0.1-1.3-0.2-2-0.3l-1.5-0.2c-0.5-0.1-1.1-0.2-1.6-0.3c-2.3-0.5-5.4-1.4-7.3-2.2c-1.2-0.5-2.3-1.3-3.3-2.1
		c-1-0.9-1.8-1.9-2.4-3.1c-0.6-1.3-0.9-2.8-0.9-4.2c0-2.3,0.5-4.3,1.6-5.9c1-1.5,2.4-2.8,4-3.7c1.7-0.9,3.6-1.5,5.5-1.9
		c1.9-0.4,3.9-0.6,5.8-0.6c1.7,0,3.3,0.1,5,0.3c0.7,0.1,1.4,0.2,2.1,0.4c1.1,0.3,2.9,0.9,3.9,1.3c0.6,0.3,1.2,0.6,1.7,0.9
		c0.4,0.2,1.9,1,2.4,1.3c0.5,0.3,0.7,0.7,0.8,1.1c0.1,0.4,0,0.9-0.4,1.3l-2.6,3.3c-0.3,0.4-0.7,0.6-1.2,0.7c-0.5,0.1-1,0-1.4-0.3
		c-1.4-0.8-2.9-1.6-4.5-2.1c-2-0.7-4-1.1-6.1-1c-0.4,0-0.8,0-1.2,0.1c-0.4,0.1-0.9,0.1-1.3,0.2c-0.9,0.2-1.8,0.4-2.7,0.8
		c-0.4,0.2-0.8,0.4-1.1,0.6c-0.3,0.2-0.7,0.5-0.9,0.8c-0.5,0.6-0.8,1.3-0.8,2.1c0,0.8,0.3,1.5,1,2c0.7,0.6,1.6,1.1,2.5,1.4
		c0.5,0.2,1.1,0.3,1.6,0.5c0.5,0.1,1.1,0.3,1.7,0.4c0.6,0.2,1.2,0.3,1.8,0.4c0.6,0.1,5.9,1.1,6.5,1.2c0.6,0.1,1.2,0.3,1.8,0.5
		c0.3,0.1,0.7,0.2,1,0.3l1,0.3c0.5,0.2,1,0.4,1.7,0.7c0.6,0.3,1.1,0.6,1.6,0.9c0.3,0.2,0.6,0.4,0.9,0.6c0.3,0.2,0.5,0.4,0.8,0.7
		c1,0.9,1.8,2,2.3,3.2c0.7,1.5,0.9,3,0.9,4.6c0,1.9-0.4,3.7-1.2,5.5c-0.8,1.5-2,2.9-3.5,3.8c-1.6,1.1-3.4,1.9-5.3,2.3
		c-2.2,0.5-4.5,0.8-6.8,0.8c-2.1,0-4.2-0.1-6.2-0.4c-1.6-0.3-3.3-0.7-4.8-1.3c-0.7-0.2-1.4-0.5-2.1-0.9c-0.7-0.3-1.4-0.7-2-1
		c-0.8-0.5-1.7-1-2.5-1.5c-0.4-0.2-0.7-0.6-0.8-1C229.4,93.4,229.5,92.9,229.7,92.5L229.7,92.5L229.7,92.5z M272.9,94.6
		c0-0.5,0.1-1,0.2-1.4c0.1-0.4,0.3-0.9,0.6-1.3c0.2-0.4,0.5-0.8,0.9-1.1c0.3-0.3,0.7-0.6,1.2-0.8c0.4-0.2,0.9-0.4,1.4-0.5
		c0.5-0.1,1-0.2,1.5-0.2c0.5,0,1,0.1,1.5,0.2c1,0.2,1.9,0.7,2.6,1.4c0.4,0.3,0.7,0.7,0.9,1.1c0.2,0.4,0.4,0.8,0.6,1.3
		c0.3,1.2,0.2,2.4-0.2,3.5c-0.6,1.3-1.7,2.3-3.1,2.9c-1.7,0.7-3.6,0.6-5.2-0.3c-0.4-0.2-0.8-0.5-1.2-0.8c-0.4-0.3-0.7-0.7-0.9-1.1
		c-0.3-0.4-0.5-0.8-0.6-1.3C272.9,95.6,272.8,95.1,272.9,94.6C272.8,94.6,272.9,94.6,272.9,94.6z M274.3,94.6c0,1.1,0.5,2.2,1.3,3
		c0.8,0.8,1.9,1.2,3.1,1.2c0.6,0,1.2-0.1,1.7-0.3c1.1-0.4,1.9-1.2,2.3-2.2c0.4-1,0.4-2.2,0-3.3c-0.2-0.5-0.5-0.9-0.9-1.3
		c-0.4-0.4-0.9-0.7-1.4-0.9c-0.5-0.2-1.1-0.3-1.7-0.3c-0.6,0-1.2,0.1-1.7,0.3c-0.5,0.2-1,0.5-1.4,0.9c-0.4,0.4-0.7,0.8-0.9,1.3
		C274.4,93.4,274.3,94,274.3,94.6L274.3,94.6z M276.6,91.8h2.4c0.3,0,0.5,0,0.8,0.1c0.2,0.1,0.4,0.2,0.6,0.3
		c0.2,0.1,0.3,0.3,0.4,0.5c0.1,0.2,0.1,0.4,0.1,0.7c0,0.2,0,0.4-0.1,0.6c-0.1,0.1-0.2,0.3-0.3,0.4c-0.1,0.1-0.2,0.2-0.3,0.3
		c-0.1,0.1-0.2,0.1-0.3,0.1v0l0.1,0.1c0,0,0.1,0.1,0.1,0.2l1.1,2h-1.5l-1-2h-0.8v2h-1.4L276.6,91.8L276.6,91.8L276.6,91.8z
		 M278.7,94.3c0.2,0,0.5-0.1,0.6-0.2c0.2-0.2,0.2-0.4,0.2-0.6c0-0.2-0.1-0.4-0.2-0.6c-0.2-0.1-0.4-0.2-0.6-0.2H278v1.6L278.7,94.3
		C278.8,94.3,278.7,94.3,278.7,94.3z M66.6,92.9c-0.6,0-1.1,0.2-1.5,0.5c-0.5,0.3-0.9,0.6-1.1,1.1l-1.8,3.3c-0.6,1-1.7,1.6-2.7,1.6
		h-5.5c-1,0-1.4-0.7-0.9-1.5l21-38.3c0.2-0.4,0.8-0.7,1.2-0.7c0.4,0,1,0.2,1.2,0.7l21,38.3c0.4,0.8,0.1,1.5-0.9,1.5H91
		c-0.9,0-2.1-0.5-2.7-1.6l-1.8-3.3c-0.3-0.4-0.7-0.8-1.1-1.1c-0.5-0.3-1-0.4-1.5-0.4L66.6,92.9L66.6,92.9z M74.4,75.4l-4.7,9.1
		c-0.2,0.3-0.2,0.7,0,1.1c0.2,0.3,0.7,0.5,1.1,0.5h9c0.4,0,0.9-0.1,1.1-0.5c0.2-0.3,0.2-0.8,0-1.1l-4.7-9.1
		c-0.2-0.4-0.5-0.7-0.8-0.7C75,74.8,74.7,75,74.4,75.4C74.5,75.4,74.4,75.4,74.4,75.4z M194.6,59.6v37.9c0,0.5-0.2,0.9-0.5,1.2
		c-0.3,0.3-0.8,0.5-1.3,0.5H188c-0.5,0-1-0.2-1.3-0.5c-0.4-0.3-0.6-0.7-0.6-1.2v-17c0-0.5-0.1-0.8-0.3-0.9c-0.2-0.1-0.5,0-0.8,0.5
		l-11.4,12.5c-0.3,0.4-0.7,0.6-1.2,0.6c-0.5,0-0.9-0.2-1.2-0.6l-11.5-12.6c-0.3-0.4-0.6-0.5-0.8-0.4c-0.2,0.1-0.4,0.3-0.4,0.8v17
		c0,0.4-0.2,0.9-0.5,1.2c-0.4,0.4-0.8,0.5-1.3,0.5h-4.7c-1,0-1.9-0.8-1.9-1.7V59.6c0-0.2,0-0.4,0.2-0.6c0.1-0.2,0.3-0.3,0.6-0.3
		c0.5-0.1,0.9,0.1,1.2,0.4L171,80.9c0.3,0.3,0.8,0.5,1.2,0.5s0.9-0.2,1.2-0.5l19.2-21.6c0.3-0.4,0.8-0.5,1.2-0.4
		C194.3,58.9,194.6,59.2,194.6,59.6L194.6,59.6L194.6,59.6z M215.1,99.2h-4.8c-0.5,0-1-0.2-1.3-0.5c-0.3-0.3-0.5-0.7-0.5-1.2v-37
		c0-0.4,0.2-0.9,0.5-1.2c0.3-0.3,0.8-0.5,1.3-0.5h4.8c0.5,0,1,0.2,1.3,0.5c0.4,0.3,0.6,0.8,0.6,1.2v37c0,0.4-0.2,0.9-0.6,1.2
		C216,99,215.5,99.2,215.1,99.2L215.1,99.2z">
  </path>
 </g>
</svg>