<svg xmlns="http://www.w3.org/2000/svg" viewBox="0 0 314 90" width="230" height="65.923568558562" role="presentation" aria-labelledby="logo-title" class="h-full w-[170px] md:w-[160px] lg:w-[190px] xl:w-[210px] -mt-2 md:-mt-1 py-[5px] transition-all duration-300"><title id="logo-title">BeyondTrust</title><style type="text/css">.st0{fill:#FF5500;}</style><g class="logo-text"><path class="st0" d="M278.8,61.1c-1.5,1.1-2.6,1.5-3.8,1.5c-1.9,0-2.9-1-2.9-3v-7.4h6.7v-4.4h-6.7v-5.5l-5.6,1.4v4.1h-2.9v4.4
				h2.9v7.9c0,4.8,2.3,7.3,6.5,7.3c1.8,0,3.5-0.5,5-1.3l0.9-5L278.8,61.1z"></path><path class="st0" d="M256.8,55.2c-1.7-0.4-2.8-0.8-3.3-1.1c-0.5-0.3-0.8-0.6-0.8-1.1c0-0.9,1-1.4,2.6-1.4c2,0,4.6,0.9,6.8,2.3
				l0.1,0v-4.8c-2.1-1.1-4.3-1.7-6.7-1.7c-4.9,0-8.1,2.4-8.1,6c0,3,1.7,4.6,6.7,5.9c1.7,0.5,2.8,0.8,3.4,1.1
				c0.6,0.3,0.8,0.7,0.8,1.2c0,0.9-1.1,1.5-2.7,1.5c-2.7,0-5.7-1.1-8.6-3.1l-0.1,0.1l0.8,5.2c2.4,1.5,4.9,2.1,7.6,2.1
				c2.5,0,4.5-0.6,6-1.7c1.5-1.1,2.3-2.6,2.3-4.4c0-1.6-0.5-2.9-1.5-3.8C261.1,56.7,259.4,55.9,256.8,55.2"></path><path class="st0" d="M239.8,60.6c-1.6,1.4-2.7,1.9-4.1,1.9c-2.1,0-3.2-1.3-3.2-3.6V47.8h-5.7v12.2c0,4.6,2.5,7.4,6.5,7.4
				c2.7,0,4.7-1.2,6.7-3.9v3.5h5.5V47.8h-5.7V60.6z"></path><path class="st0" d="M223.7,47.5c-2.1,0-3.6,1.3-6.3,5v-5l-5.6,0.7v18.8h5.7V55.8c2.4-1.7,4.3-2.3,6.4-2.3c0.5,0,0.9,0,1.4,0.1
				l-0.3-5.9C224.4,47.6,224.1,47.5,223.7,47.5"></path><polygon class="st0" points="212.6,40.7 187.7,40.7 187.7,46.2 197.1,46.2 197.1,67.1 203.2,67.1 203.2,46.2 212.6,46.2 			"></polygon><path class="st0" d="M180.5,61.2c-1.5,1.1-2.8,1.5-4.2,1.5c-2.7,0-4.7-2.1-4.7-5.1c0-3.1,2.1-5.3,5-5.3c1.4,0,2.5,0.3,3.8,1.1
				V61.2z M180.5,49.4c-1.6-1.2-3.3-1.9-5.1-1.9c-2.6,0-4.8,1-6.6,2.9c-1.8,2-2.7,4.4-2.7,7.4c0,2.7,0.8,5,2.4,6.8
				c1.6,1.8,3.5,2.7,5.9,2.7c2.4,0,4.3-0.9,6.2-3.1v2.7h5.6V38.6l-5.7,1.5V49.4z"></path><path class="st0" d="M157.8,47.4c-2.6,0-4.6,1.2-6.7,3.9v-3.7l-5.6,0.7v18.8h5.7V54.2c1.6-1.4,2.7-1.8,4.1-1.8
				c2.1,0,3.2,1.3,3.2,3.6v11.1h5.7V54.8C164.3,50.2,161.8,47.4,157.8,47.4"></path><path class="st0" d="M133.4,62.7c-2.7,0-4.9-2.3-4.9-5.3c0-3,2-5.3,4.9-5.3c2.8,0,4.9,2.2,4.9,5.2
				C138.3,60.4,136.3,62.7,133.4,62.7 M133.5,47.3c-3,0-5.5,1-7.4,2.9c-2,2-3,4.4-3,7.2c0,2.9,1,5.3,2.9,7.2c1.9,2,4.4,2.9,7.4,2.9
				c3,0,5.5-1,7.4-3c2-2,3-4.4,3-7.2c0-2.9-1-5.3-2.9-7.2C139,48.3,136.5,47.3,133.5,47.3"></path><path class="st0" d="M118.1,47.8l-4.3,12.1l-4.7-12.1h-6.2l8,18.4c-0.9,2.1-2.1,3-4.2,3c-1.1,0-2-0.3-3.2-0.9l-0.1,0.1l1.1,5.2
				c1.1,0.5,2.1,0.6,3.3,0.6c3.9,0,6.8-2.3,8.6-7l7.7-19.4H118.1z"></path><path class="st0" d="M94.6,51.4c2.2,0,3.7,1.7,3.9,4.3h-8.1C90.7,53.1,92.3,51.4,94.6,51.4 M96.2,63c-3.1,0-5.2-1.5-5.8-4h13.3
				c0-0.6,0.1-1.3,0.1-1.6c0-3-0.8-5.5-2.4-7.3c-1.7-1.8-3.9-2.7-6.7-2.7c-2.8,0-5.1,1-7,2.9c-1.8,2-2.8,4.4-2.8,7.2
				c0,3,0.9,5.5,2.8,7.3c1.8,1.8,4.3,2.7,7.4,2.7c2.4,0,4.3-0.4,6.6-1.5l1.5-4.8l-0.1-0.1C100.8,62.4,98.5,63,96.2,63"></path><path class="st0" d="M73.3,62.4h-3.6v-6.6h3.4c2.9,0,4.5,1.2,4.5,3.3C77.7,61.1,76,62.4,73.3,62.4 M69.8,45.4H73
				c2.4,0,3.8,1.1,3.8,3c0,2-1.6,3.2-4,3.2h-3V45.4z M78.9,53.3c2.4-1.2,3.7-3.2,3.7-5.6c0-4.4-3.3-7-8.9-7H64v26.3h9.8
				c3,0,5.4-0.7,7.2-2.1c1.8-1.4,2.7-3.2,2.7-5.5C83.6,56.6,82,54.5,78.9,53.3"></path></g><path class="st0" d="M47.9,39.4l-5.7-5.7c0,0-0.1-0.1-0.2,0c-0.1,0-0.1,0.1-0.1,0.1v40.3c0,0.1,0,0.1,0.1,0.1c0,0,0,0,0.1,0
		c0,0,0.1,0,0.1,0l5.7-5.7c0.2-0.2,0.4-0.7,0.4-1V40.4C48.3,40.1,48.1,39.6,47.9,39.4"></path><g><path class="st0" d="M37.6,30.3H17.3c-0.2,0-0.3-0.1-0.3-0.3V13c0-0.1,0-0.1-0.1-0.1c-0.1,0-0.1,0-0.2,0l-5.7,5.7
			c-0.2,0.2-0.4,0.7-0.4,1v16.9c0,0.1,0.1,0.2,0.2,0.2H31c0.2,0,0.3,0.1,0.3,0.3v3c0,0.4-0.4,0.8-0.8,0.8H10.7c0,0-0.1,0-0.1,0
			c0,0,0,0.1,0,0.1l0,21.6c0,2.5,2,4.5,4.5,4.5h15.5c0.4,0,0.8,0.4,0.8,0.8v3c0,0.2-0.1,0.3-0.3,0.3H15c-4.8,0-8.6-3.9-8.6-8.6v-39
			c0-0.1,0-0.1-0.1-0.1c-0.1,0-0.1,0-0.2,0l-5.7,5.7c-0.2,0.2-0.4,0.7-0.4,1v34.3c0,7.3,5.9,13.2,13.2,13.2h24.4
			c0.1,0,0.2-0.1,0.2-0.2l0-47C37.8,30.3,37.7,30.3,37.6,30.3z M31.3,59.8c0,0.4-0.4,0.8-0.8,0.8H17.8c-0.4,0-0.8-0.4-0.8-0.8V48
			c0-0.4,0.4-0.8,0.8-0.8h12.8c0.4,0,0.8,0.4,0.8,0.8V59.8z"></path></g></svg>