<?xml version="1.0" encoding="utf-8"?>
<!-- Generator: Adobe Illustrator 23.1.0, SVG Export Plug-In . SVG Version: 6.00 Build 0)  -->
<svg version="1.1" id="Layer_1" xmlns="http://www.w3.org/2000/svg" xmlns:xlink="http://www.w3.org/1999/xlink" x="0px" y="0px"
	 viewBox="0 0 1000 228.33" style="enable-background:new 0 0 1000 228.33;" xml:space="preserve">
<style type="text/css">
	.st0{clip-path:url(#SVGID_2_);fill:#0099F5;}
	.st1{clip-path:url(#SVGID_2_);fill:#7AB7FF;}
</style>
<g>
	<defs>
		<rect id="SVGID_1_" width="1000" height="228.33"/>
	</defs>
	<clipPath id="SVGID_2_">
		<use xlink:href="#SVGID_1_"  style="overflow:visible;"/>
	</clipPath>
	<path class="st0" d="M670.02,40.88c-6.03,0-11.19-2-15.48-6c-4.31-4-6.45-8.81-6.45-14.44c0-5.62,2.14-10.44,6.45-14.44
		c4.29-4.01,9.43-6,15.39-6c6.01,0,11.15,2,15.43,6c4.27,4,6.4,8.82,6.4,14.44c0,5.62-2.13,10.44-6.4,14.44
		C681.07,38.89,675.97,40.88,670.02,40.88 M650.26,61.53h39.1v152.44h-39.1V61.53z"/>
	<path class="st0" d="M785.08,216.94c-15.42,0-28.64-3.32-39.69-9.97c-11.05-6.65-19.54-15.9-25.46-27.74
		c-5.92-11.85-8.89-25.47-8.89-40.89c0-15.55,2.99-29.24,8.98-41.09c5.99-11.85,14.5-21.09,25.56-27.74
		c11.05-6.65,24.14-9.98,39.29-9.98c12.84,0,24.15,2.35,33.94,7.04c9.79,4.7,17.57,11.28,23.32,19.75
		c5.76,8.47,8.98,18.4,9.63,29.77h-37.12c-1.26-7.48-4.38-13.61-9.37-18.41c-5.01-4.8-11.61-7.2-19.8-7.2
		c-6.94,0-13.02,1.87-18.21,5.61c-5.19,3.74-9.25,9.13-12.16,16.18c-2.91,7.05-4.36,15.53-4.36,25.46c0,10.05,1.43,18.64,4.31,25.75
		c2.88,7.11,6.91,12.57,12.11,16.38c5.19,3.8,11.29,5.7,18.31,5.7c5.1,0,9.64-1.01,13.65-3.02c4-2.02,7.35-4.93,10.07-8.73
		c2.71-3.81,4.53-8.42,5.45-13.84h37.12c-0.74,11.18-3.89,21.06-9.48,29.62c-5.6,8.57-13.24,15.27-22.93,20.1
		C809.68,214.53,798.25,216.94,785.08,216.94"/>
	<path class="st0" d="M272.66,87.23c-3.57-6.61-8.39-11.96-14.44-16.03c-6.05-4.07-12.83-7.03-20.34-8.88
		c-7.5-1.85-15.24-2.78-23.17-2.78c-11.45,0-21.67,1.7-30.66,5.11c-9,3.41-16.48,8.37-22.44,14.88
		c-5.95,6.52-10.08,14.41-12.4,23.67c-0.28,1.21-0.41,2.41-0.48,3.18h37.13c1.73-4.74,4.82-8.85,9.35-12.26
		c4.79-3.6,11.29-5.41,19.5-5.41c7.74,0,13.71,1.89,17.91,5.65c4.2,3.78,6.3,9.1,6.3,15.98v0.59c0,3.31-1.26,5.79-3.77,7.45
		c-2.51,1.65-6.52,2.88-12.01,3.67c-5.49,0.79-12.67,1.66-21.53,2.58c-7.48,0.73-14.66,1.98-21.54,3.77
		c-6.87,1.79-13.03,4.4-18.46,7.84c-5.42,3.44-9.7,8.01-12.84,13.7c-3.14,5.69-4.71,12.8-4.71,21.34c0,10.06,2.21,18.46,6.64,25.21
		c4.44,6.75,10.48,11.85,18.12,15.28c7.64,3.44,16.32,5.16,26.04,5.16c7.75,0,14.53-1.06,20.34-3.17c5.83-2.12,10.76-5,14.79-8.64
		c4.04-3.64,7.22-7.71,9.53-12.21h1.19v21.04h37.32V111.55C278.02,101.96,276.24,93.85,272.66,87.23 M239.11,159.39
		c0,5.49-1.39,10.49-4.21,14.98c-2.82,4.5-6.73,8.09-11.76,10.77c-5.03,2.68-10.89,4.02-17.57,4.02c-6.95,0-12.69-1.6-17.22-4.81
		c-4.53-3.21-6.79-7.89-6.79-14.05c0-4.3,1.12-7.85,3.38-10.67c2.25-2.81,5.36-5.03,9.33-6.65c3.97-1.62,8.53-2.8,13.7-3.53
		c2.38-0.33,5.08-0.71,8.08-1.14c3.01-0.43,6.06-0.95,9.13-1.54c3.08-0.59,5.86-1.26,8.35-1.98c2.47-0.73,4.34-1.56,5.6-2.48V159.39
		z"/>
	<path class="st0" d="M529.8,136.75c0-13.16-1.84-24.59-5.51-34.29c-3.67-9.69-8.75-17.71-15.24-24.06
		c-6.48-6.35-13.98-11.08-22.52-14.19c-8.53-3.11-17.66-4.66-27.39-4.66c-14.75,0-27.6,3.31-38.55,9.92
		c-10.96,6.62-19.44,15.87-25.46,27.74c-6.02,11.88-9.02,25.65-9.02,41.33c0,16.01,3,29.89,9.02,41.64
		c6.02,11.74,14.62,20.81,25.8,27.19c11.18,6.38,24.52,9.57,39.99,9.57c12.24,0,23.06-1.87,32.46-5.61
		c9.39-3.74,17.1-8.99,23.12-15.78c6.02-6.78,10.05-14.74,12.11-23.87c0.26-1.01,0.51-3.18,0.51-3.18h-36.84
		c-1.51,4.04-3.75,7.45-6.7,10.23c-2.95,2.78-6.45,4.88-10.52,6.3c-4.08,1.42-8.59,2.14-13.55,2.14c-7.41,0-13.85-1.59-19.35-4.76
		c-5.5-3.18-9.76-7.71-12.8-13.6c-2.99-5.79-4.49-12.71-4.54-20.74H529.8V136.75z M425.04,122.86c0.31-5.7,1.63-11.02,4.28-15.83
		c2.95-5.33,7.03-9.61,12.26-12.85c5.22-3.24,11.27-4.86,18.15-4.86c6.49,0,12.18,1.45,17.11,4.36c4.93,2.91,8.8,6.88,11.57,11.91
		c2.79,5.03,4.2,10.79,4.27,17.27H425.04z"/>
	<path class="st0" d="M382.75,61.53h-30.96V50.41c0-5.56,1.3-9.86,3.91-12.9c2.62-3.04,7.13-4.57,13.55-4.57
		c2.71,0,5.24,0.25,7.6,0.75c2.34,0.5,4.32,0.98,5.9,1.44V3.53c-1.3-0.28-2.48-0.55-4.02-0.85c-5.13-0.99-10.87-1.49-17.22-1.49
		c-9.19,0-17.48,1.76-24.86,5.26c-7.38,3.51-13.22,8.78-17.52,15.83s-6.45,15.9-6.45,26.55v12.7h-22.03V91.3h22.03v122.66h39.11
		V91.3h30.96V61.53z"/>
	<path class="st0" d="M994.64,87.23c-3.57-6.61-8.39-11.96-14.44-16.03c-6.05-4.07-12.83-7.03-20.34-8.88
		c-7.5-1.85-15.24-2.78-23.17-2.78c-11.45,0-21.67,1.7-30.66,5.11c-9,3.41-16.48,8.37-22.44,14.88
		c-5.95,6.52-10.08,14.41-12.4,23.67c-0.28,1.21-0.41,2.41-0.48,3.18h37.13c1.73-4.74,4.82-8.85,9.35-12.26
		c4.79-3.6,11.29-5.41,19.5-5.41c7.74,0,13.71,1.89,17.91,5.65c4.2,3.78,6.3,9.1,6.3,15.98v0.59c0,3.31-1.26,5.79-3.77,7.45
		c-2.51,1.65-6.52,2.88-12.01,3.67c-5.49,0.79-12.67,1.66-21.53,2.58c-7.48,0.73-14.66,1.98-21.54,3.77
		c-6.87,1.79-13.03,4.4-18.46,7.84c-5.42,3.44-9.7,8.01-12.84,13.7c-3.14,5.69-4.71,12.8-4.71,21.34c0,10.06,2.21,18.46,6.64,25.21
		c4.44,6.75,10.48,11.85,18.12,15.28c7.64,3.44,16.32,5.16,26.04,5.16c7.75,0,14.53-1.06,20.34-3.17c5.83-2.12,10.76-5,14.79-8.64
		c4.05-3.64,7.22-7.71,9.53-12.21h1.19v21.04H1000V111.55C1000,101.96,998.21,93.85,994.64,87.23 M961.09,159.39
		c0,5.49-1.4,10.49-4.21,14.98c-2.82,4.5-6.73,8.09-11.76,10.77c-5.03,2.68-10.89,4.02-17.57,4.02c-6.95,0-12.69-1.6-17.22-4.81
		c-4.53-3.21-6.79-7.89-6.79-14.05c0-4.3,1.12-7.85,3.38-10.67c2.25-2.81,5.36-5.03,9.33-6.65c3.97-1.62,8.53-2.8,13.7-3.53
		c2.39-0.33,5.08-0.71,8.08-1.14c3.01-0.43,6.06-0.95,9.13-1.54c3.08-0.59,5.86-1.26,8.34-1.98c2.48-0.73,4.34-1.56,5.6-2.48V159.39
		z"/>
	<path class="st0" d="M624.74,181.6c-1.6,0.45-4.06,1.01-5.53,1.29c-1.51,0.29-1.51,0.29-2.44,0.46c-1.95,0.37-3.98,0.55-6.09,0.55
		c-2.91,0-5.5-0.45-7.77-1.34c-2.28-0.89-4.09-2.51-5.45-4.86c-1.35-2.35-2.03-5.71-2.03-10.07V91.3h29.32V61.53h-29.32V25.01
		h-39.03v36.52h-21.2V91.3h21.2v82.07c-0.07,9.73,2,17.81,6.2,24.26c4.19,6.45,10,11.21,17.43,14.29
		c7.42,3.08,15.93,4.45,25.51,4.12c5.28-0.2,9.77-0.71,13.47-1.54c2.29-0.51,4.11-0.98,5.74-1.43V181.6z"/>
	<path class="st1" d="M0,228.33c26.66-4.09,49.15-26.4,49.15-58.98H0V228.33z"/>
	<path class="st0" d="M118.75,140.92c-7.16-6.75-18.05-11.64-32.64-14.69l-26.74-5.56c-7.4-1.65-12.65-3.8-15.76-6.45
		c-3.1-2.64-4.65-5.99-4.65-10.02c0-4.83,2.38-8.75,7.13-11.76c4.75-3.01,10.63-4.52,17.63-4.52c5.22,0,9.66,0.86,13.32,2.58
		c3.67,1.72,6.62,3.97,8.87,6.75c2.24,2.78,3.76,5.83,4.56,9.13h35.99c-0.14-1.2-0.34-2.68-0.55-3.87
		c-2.26-13.06-8.53-23.47-18.94-31.16C96.3,63.48,81.69,59.54,63.13,59.54c-12.61,0-23.66,1.92-33.13,5.76
		c-9.47,3.84-16.84,9.24-22.08,16.23c-5.25,6.98-7.85,15.26-7.78,24.86c-0.07,11.25,3.47,20.53,10.6,27.83
		c7.13,7.31,18.06,12.46,32.79,15.44l26.15,5.36c6.8,1.46,11.82,3.51,15.05,6.15c3.24,2.65,4.89,6.02,4.95,10.13
		c-0.07,4.83-2.51,8.85-7.33,12.05c-4.82,3.21-11.23,4.82-19.22,4.82c-1.26,0-2.41-0.12-3.59-0.2c-2.54,10.34-7.18,19.7-13.51,27.61
		c5.36,0.81,10.96,1.37,17.1,1.37c12.94,0,24.4-2.08,34.37-6.25c9.97-4.17,17.79-9.96,23.48-17.37c5.68-7.41,8.51-16.01,8.51-25.81
		C129.5,156.54,125.91,147.67,118.75,140.92"/>
</g>
</svg>
