<svg id="ART" xmlns="http://www.w3.org/2000/svg" width="6.0185in" height="3.4412in" viewBox="0 0 433.3325 247.7686" xmlns:xlink="http://www.w3.org/1999/xlink">
 <g>
  <g>
   <rect x="206.0536" width="22.1158" height="132.2676" fill="#6b0aea">
   </rect>
   <path d="M237.3428,171.2631l22.1157-13.6308V43.1289a54.9863,54.9863,0,0,0-22.1157-9.7919Z" transform="translate(-3.8221 -7.1051)" fill="#6b0aea" fill-rule="evenodd">
   </path>
   <path d="M182.4086,157.6325l22.1157,13.6308V33.3371a54.9633,54.9633,0,0,0-22.1157,9.792Z" transform="translate(-3.8221 -7.1051)" fill="#6b0aea" fill-rule="evenodd">
   </path>
   <path d="M264.81,13.3914v141.78l10.32-6.3725c7.0671-4.2819,11.7953-12.9078,11.7953-22.302V59.5893C286.9257,40.2689,264.81,13.3914,264.81,13.3914Z" transform="translate(-3.8221 -7.1051)" fill="#6b0aea" fill-rule="evenodd">
   </path>
   <path d="M154.9415,126.4971c0,9.3942,4.7265,18.02,11.7953,22.302l10.32,6.3725V13.3914s-22.1157,26.8775-22.1157,46.1979Z" transform="translate(-3.8221 -7.1051)" fill="#6b0aea" fill-rule="evenodd">
   </path>
  </g>
  <g>
   <rect x="156.267" y="204.8507" width="8.8167" height="42.2281">
   </rect>
   <path d="M143.3337,201.4563,134.44,205.16v37.2984q0,11.7258,12.297,11.7258h6.9606v-7.2807h-5.4138a5.6121,5.6121,0,0,1-3.8283-1.0346,4.4617,4.4617,0,0,1-1.1214-3.41V219.0832h10.3635v-7.1274H143.3337Z" transform="translate(-3.8221 -7.1051)">
   </path>
   <path d="M65.828,211.2661q-9.32,0-15.1972,5.94T44.753,233.0315q0,9.8865,5.8,15.8643t15.0813,5.9779a20.8405,20.8405,0,0,0,12.6063-3.717,18.9567,18.9567,0,0,0,7.0379-9.5416H75.7661q-2.9388,5.9013-10.1314,5.9012a11.5266,11.5266,0,0,1-8.2367-3.1038,12.0139,12.0139,0,0,1-3.5963-8.392H86.439a25.9932,25.9932,0,0,0,.3094-4.1386q0-9.1967-5.8-14.9062T65.828,211.2661ZM53.8791,230.0426a12.5056,12.5056,0,0,1,3.7509-8.3153,11.4258,11.4258,0,0,1,8.1593-3.1039,11.8378,11.8378,0,0,1,8.2754,3.1039,10.94,10.94,0,0,1,3.48,8.3153Z" transform="translate(-3.8221 -7.1051)">
   </path>
   <path d="M113.8354,211.2661q-9.3581,0-13.6117,7.3573v-6.6676H91.407v42.2281h8.8167V230.5791q0-5.6713,2.9-8.6985a10.36,10.36,0,0,1,7.85-3.0273,10.2331,10.2331,0,0,1,7.8113,3.0273q2.8615,3.0272,2.8616,8.6985v23.6048h8.7393V229.2762q0-8.5069-4.679-13.2585A15.956,15.956,0,0,0,113.8354,211.2661Z" transform="translate(-3.8221 -7.1051)">
   </path>
   <path d="M31.2,226.0957q-4.1763-1.1878-8.3526-2.1075a20.3554,20.3554,0,0,1-7.1153-2.9123,6.5561,6.5561,0,0,1-2.9389-5.7863,6.9922,6.9922,0,0,1,2.4749-5.7862,9.9176,9.9176,0,0,1,6.4191-1.9926,9.0677,9.0677,0,0,1,6.2646,2.0692,7.6964,7.6964,0,0,1,2.63,5.1349h9.7448q-.5414-6.9742-5.3751-10.6529t-12.9157-3.6786q-8.082,0-13.1477,4.2534a13.9381,13.9381,0,0,0-5.0658,11.2277,13.7231,13.7231,0,0,0,1.5855,6.8592,11.1049,11.1049,0,0,0,4.0989,4.2534,26.0357,26.0357,0,0,0,5.5685,2.3758q3.055.92,6.0712,1.6094a51.3336,51.3336,0,0,1,5.53,1.5711,9.7115,9.7115,0,0,1,4.0991,2.6441A7.5683,7.5683,0,0,1,29.77,245.5237a10.2823,10.2823,0,0,1-7.0766,2.2992q-4.4857,0-6.8059-2.0693a8.1281,8.1281,0,0,1-2.63-5.5946H3.8221a12.7142,12.7142,0,0,0,5.2591,10.8061q5.2592,3.9087,13.6891,3.9086t13.4571-4.675q5.0271-4.6749,5.0271-10.5762t-2.9389-9.12A15.0247,15.0247,0,0,0,31.2,226.0957Z" transform="translate(-3.8221 -7.1051)">
   </path>
   <path d="M322.3527,203.7054a28.0085,28.0085,0,0,0-26.9585,0,24.484,24.484,0,0,0-9.3853,9.6866,31.0765,31.0765,0,0,0,0,28.2622,24.75,24.75,0,0,0,9.3853,9.7247,27.7418,27.7418,0,0,0,26.9585,0,24.4816,24.4816,0,0,0,9.3467-9.7247,31.3938,31.3938,0,0,0,0-28.2622A24.22,24.22,0,0,0,322.3527,203.7054Zm6.18,36.5813a21.0912,21.0912,0,0,1-8.1493,8.4331,23.91,23.91,0,0,1-23.0577,0,21.1708,21.1708,0,0,1-8.1107-8.4331,28.8766,28.8766,0,0,1,0-25.5271,21.1708,21.1708,0,0,1,8.1107-8.4331,23.91,23.91,0,0,1,23.0577,0,21.0912,21.0912,0,0,1,8.1493,8.4331,28.8757,28.8757,0,0,1,0,25.5271Z" transform="translate(-3.8221 -7.1051)">
   </path>
   <path d="M423.8506,230.6381a18.0771,18.0771,0,0,0-2.2789-8.851,17.2351,17.2351,0,0,0-6.72-6.6856,20.8546,20.8546,0,0,0-10.5438-2.5452,21.4006,21.4006,0,0,0-10.5439,2.5452,18.1636,18.1636,0,0,0-7.2224,7.3314,25.5458,25.5458,0,0,0,0,22.5642,18.1636,18.1636,0,0,0,7.2224,7.3314,21.4006,21.4006,0,0,0,10.5439,2.5452q7.9561,0,13.0929-4.0266a16.7083,16.7083,0,0,0,6.2955-10.6364h-3.63a12.9208,12.9208,0,0,1-5.2525,8.6231,17.6117,17.6117,0,0,1-10.66,3.1529,18.23,18.23,0,0,1-8.2266-1.8614,14.7241,14.7241,0,0,1-6.1024-5.774,18.9819,18.9819,0,0,1-2.4332-9.6866h36.0731A22.5509,22.5509,0,0,0,423.8506,230.6381Zm-3.399,1.9753H387.391a18.6146,18.6146,0,0,1,2.4332-9.5727,14.9889,14.9889,0,0,1,6.1408-5.774,19.1057,19.1057,0,0,1,16.53-.038,13.9693,13.9693,0,0,1,6.0252,5.774A17.1455,17.1455,0,0,1,420.4516,232.6134Z" transform="translate(-3.8221 -7.1051)">
   </path>
   <path d="M361.1864,212.0945a17.5144,17.5144,0,0,0-10.08,2.963,14.6966,14.6966,0,0,0-5.9093,8.7369V212.93h-3.4761v41.2537h3.4761V232.2275q0-8.509,4.1325-12.8775a14.3441,14.3441,0,0,1,10.93-4.3685q6.5662,0,10.3512,3.9127t3.7847,11.358v23.9317h3.4761V230.1q0-8.889-4.6345-13.4474A16.4511,16.4511,0,0,0,361.1864,212.0945Z" transform="translate(-3.8221 -7.1051)">
   </path>
   <polygon points="262.586 247.079 271.403 247.079 271.403 185.737 262.586 189.44 262.586 247.079">
   </polygon>
   <path d="M198.9318,211.2661q-9.3582,0-13.6118,7.3573v-6.6676h-8.8167v42.2281H185.32V230.5791q0-5.6713,2.9-8.6985a10.36,10.36,0,0,1,7.85-3.0273,10.233,10.233,0,0,1,7.8113,3.0273q2.8615,3.0272,2.8616,8.6985v23.6048h8.7394V229.2762q0-8.5069-4.6791-13.2585A15.9558,15.9558,0,0,0,198.9318,211.2661Z" transform="translate(-3.8221 -7.1051)">
   </path>
   <path d="M240.8294,211.2661q-9.3195,0-15.1973,5.94t-5.8778,15.8259q0,9.8865,5.8005,15.8643t15.0812,5.9779a20.8408,20.8408,0,0,0,12.6064-3.717,18.9567,18.9567,0,0,0,7.0379-9.5416h-9.5128q-2.939,5.9013-10.1315,5.9012a11.5265,11.5265,0,0,1-8.2366-3.1038,12.0139,12.0139,0,0,1-3.5963-8.392H261.44a26.0049,26.0049,0,0,0,.3094-4.1386q0-9.1967-5.8-14.9062T240.8294,211.2661ZM228.88,230.0426a12.5061,12.5061,0,0,1,3.751-8.3153,11.4257,11.4257,0,0,1,8.1593-3.1039,11.8379,11.8379,0,0,1,8.2754,3.1039,10.94,10.94,0,0,1,3.48,8.3153Z" transform="translate(-3.8221 -7.1051)">
   </path>
   <g>
    <path d="M433.3816,217.1182l-1.0147-1.5145h-.8179v1.5145h-1.04V212.387h2.163c1.1152,0,1.7844.5878,1.7844,1.561v.0133a1.47,1.47,0,0,1-1.0138,1.4672l1.1558,1.69Zm.02-3.1162c0-.4459-.31-.6759-.8179-.6759H431.549v1.3584h1.0545c.5074,0,.798-.27.798-.6692Z" transform="translate(-3.8221 -7.1051)">
    </path>
    <path d="M432.31,219.7292a4.8452,4.8452,0,1,1,4.845-4.845A4.8507,4.8507,0,0,1,432.31,219.7292Zm0-8.6359a3.7907,3.7907,0,1,0,3.7905,3.7909A3.795,3.795,0,0,0,432.31,211.0933Z" transform="translate(-3.8221 -7.1051)">
    </path>
   </g>
  </g>
 </g>
</svg>