<svg version="1.1" id="Layer_1" xmlns:x="ns_extend;" xmlns:i="ns_ai;" xmlns:graph="ns_graphs;" xmlns="http://www.w3.org/2000/svg" xmlns:xlink="http://www.w3.org/1999/xlink" x="0px" y="0px" viewBox="0 0 177.7 42" style="enable-background:new 0 0 177.7 42;" xml:space="preserve">
 <style type="text/css">
  .st0{fill:#F26207;}
 </style>
 <metadata>
  <sfw xmlns="ns_sfw;">
   <slices>
   </slices>
   <sliceSourceBounds bottomLeftOrigin="true" height="42" width="177.7" x="111.4" y="-221.2">
   </sliceSourceBounds>
  </sfw>
 </metadata>
 <g>
  <path class="st0" d="M177.7,14.4v-2.5c0-0.4-0.4-0.8-0.8-0.8h-8.8V6.3c0-0.4-0.4-0.8-0.8-0.8h-3.3c-0.5,0-0.8,0.4-0.8,0.8v4.8H158
		c-0.5,0-0.8,0.4-0.8,0.8v2.5c0,0.4,0.4,0.8,0.8,0.8h5.2v7.4c0,5.7,2.7,8.3,8.4,8.3h4.7c0.5,0,0.8-0.4,0.8-0.8v-2.5
		c0-0.4-0.4-0.8-0.8-0.8h-3.9c-3.1,0-4.2-1.2-4.2-4.3v-7.4h8.8C177.3,15.1,177.7,14.8,177.7,14.4z">
  </path>
  <path class="st0" d="M151.3,3.5h-4.5c-0.5,0-0.8,0.4-0.8,0.8v3.2c0,0.4,0.4,0.8,0.8,0.8h4.5c0.5,0,0.8-0.4,0.8-0.8V4.3
		C152.1,3.8,151.7,3.5,151.3,3.5z">
  </path>
  <path class="st0" d="M151.9,26.9v-15c0-0.4-0.4-0.8-0.8-0.8h-10.2c-0.5,0-0.8,0.4-0.8,0.8v2.5c0,0.4,0.4,0.8,0.8,0.8h6v11.7h-6
		c-0.5,0-0.8,0.4-0.8,0.8v2.5c0,0.4,0.4,0.8,0.8,0.8h17.2c0.5,0,0.8-0.4,0.8-0.8v-2.5c0-0.4-0.4-0.8-0.8-0.8H151.9z">
  </path>
  <path class="st0" d="M136.3,26.9h-5.2V4.3c0-0.4-0.4-0.8-0.8-0.8h-10.1c-0.5,0-0.8,0.4-0.8,0.8v2.5c0,0.4,0.4,0.8,0.8,0.8h6v19.3
		h-6.7c-0.5,0-0.8,0.4-0.8,0.8v2.5c0,0.4,0.4,0.8,0.8,0.8h16.8c0.5,0,0.8-0.4,0.8-0.8v-2.5C137.1,27.2,136.8,26.9,136.3,26.9z">
  </path>
  <path class="st0" d="M108.9,10.7c-1.7,0-3,0.4-3.9,1.3l-1.2,1.1h-1.1l-0.4-1.5c-0.1-0.3-0.4-0.6-0.8-0.6h-2.3
		c-0.5,0-0.8,0.4-0.8,0.8v25.9c0,0.4,0.4,0.8,0.8,0.8h3.3c0.5,0,0.8-0.4,0.8-0.8v-5.6l-0.4-3l1.1-0.3l1.2,1.1
		c0.9,0.9,2.1,1.3,3.8,1.3c4.9,0,7.9-3.4,7.9-10.3C116.8,14.1,113.9,10.7,108.9,10.7z M107.2,27.2c-2.5,0-3.9-1.3-3.9-3.7v-4.8
		c0-2.4,1.4-3.7,3.9-3.7c3.1,0,4.4,1.9,4.4,6.1C111.7,25.2,110.3,27.2,107.2,27.2z">
  </path>
  <path class="st0" d="M84.3,10.7c-6.4,0-9.8,3.4-9.8,10.3c0,6.9,3.4,10.3,9.6,10.3c4.8,0,8-2,8.8-5.5c0.1-0.5-0.3-0.9-0.8-0.9h-3
		c-0.3,0-0.6,0.2-0.8,0.5c-0.5,1.5-2,2.2-4.1,2.2c-3.2,0-4.7-1.7-4.9-5.8h13.8C94,14.2,90.9,10.7,84.3,10.7z M79.6,18.7
		c0.5-3,2-4.4,4.7-4.4c2.9,0,4.3,1.5,4.3,4.4H79.6z">
  </path>
  <path class="st0" d="M64.7,12l-1.1,1.1h-1.1l-0.4-1.4c-0.1-0.4-0.4-0.6-0.8-0.6H54c-0.5,0-0.8,0.4-0.8,0.8v2.5
		c0,0.4,0.4,0.8,0.8,0.8h4.3v11.7h-5c-0.5,0-0.8,0.4-0.8,0.8v2.5c0,0.4,0.4,0.8,0.8,0.8H69c0.5,0,0.8-0.4,0.8-0.8v-2.5
		c0-0.4-0.4-0.8-0.8-0.8h-5.8v-8.3c0-2.3,1.4-3.5,4-3.5h4.3c0.5,0,0.8-0.4,0.8-0.8v-2.8c0-0.4-0.4-0.8-0.8-0.8h-2.6
		C67.2,10.7,65.7,11.1,64.7,12z">
  </path>
  <path class="st0" d="M0,2.6C0,1.2,1.2,0,2.6,0h12.2c1.4,0,2.6,1.2,2.6,2.6V14H2.6C1.2,14,0,12.8,0,11.4V2.6z">
  </path>
  <path class="st0" d="M17.5,14h14.9c1.4,0,2.6,1.2,2.6,2.6v8.8c0,1.4-1.2,2.6-2.6,2.6H17.5V14z">
  </path>
  <path class="st0" d="M0,30.6C0,29.2,1.2,28,2.6,28h14.9v11.4c0,1.4-1.2,2.6-2.6,2.6H2.6C1.2,42,0,40.8,0,39.4V30.6z">
  </path>
 </g>
</svg>