<svg class="logo" fill="none" height="37" viewBox="0 0 203 37" width="203" xmlns="http://www.w3.org/2000/svg">
<g clip-path="url(#clip0_487_21909)">
<path d="M0 0.462891H3.66771V19.0489C3.66771 20.8625 4.14351 22.2586 5.09511 23.2373C6.04671 24.2159 7.40441 24.7052 9.16821 24.7052H14.1865V28.1019H9.80403C6.50971 28.1019 4.05247 27.304 2.43234 25.708C0.812201 24.1121 0.00142242 21.6939 0 18.4537V0.462891Z" fill="#393E46"></path>
<path d="M30.2053 28.0979V18.6588C30.2053 16.6787 29.6455 15.0735 28.5261 13.8432C27.4067 12.6128 25.9522 11.9983 24.1628 11.9997C22.3877 11.9997 20.9304 12.6078 19.791 13.8239C18.6517 15.0401 18.0827 16.6048 18.0841 18.5179C18.0841 20.4738 18.6694 22.0754 19.8401 23.3229C21.0107 24.5703 22.5043 25.1948 24.3207 25.1962C25.1404 25.1963 25.9537 25.0519 26.7232 24.7695C27.5661 24.4505 28.357 24.0083 29.0702 23.4573V27.1122C28.3051 27.5476 27.4838 27.8757 26.6293 28.0873C25.7471 28.306 24.8413 28.4157 23.9324 28.4137C23.0213 28.4078 22.1163 28.2639 21.2483 27.987C20.3895 27.724 19.5763 27.3304 18.8373 26.8199C17.5141 25.9267 16.4381 24.7135 15.7094 23.293C14.9788 21.8374 14.6085 20.2276 14.6298 18.599C14.6298 15.7698 15.5238 13.4314 17.3117 11.5836C19.0997 9.73591 21.3706 8.81134 24.1244 8.80992C25.8816 8.79488 27.608 9.27157 29.1086 10.1861C30.6002 11.0855 31.805 12.391 32.5821 13.9498C32.9604 14.695 33.2278 15.4914 33.3758 16.3139C33.5655 17.5849 33.6462 18.8697 33.6169 20.1544V28.1065L30.2053 28.0979Z" fill="#393E46"></path>
<path d="M37.6719 28.098V17.7713C37.6719 15.0189 38.4058 12.8383 39.8738 11.2295C41.3417 9.62079 43.3004 8.81641 45.7498 8.81641C48.1949 8.81641 50.1444 9.62079 51.5981 11.2295C53.0518 12.8383 53.7786 15.0189 53.7786 17.7713V28.098H50.4096V17.1546C50.4096 15.6611 49.9758 14.4449 49.1081 13.5061C48.2405 12.5673 47.121 12.0979 45.7498 12.0979C45.1207 12.0792 44.4948 12.1951 43.9141 12.438C43.3334 12.6809 42.8114 13.0451 42.3829 13.5061C41.5024 14.4449 41.0615 15.6611 41.0601 17.1546V28.098H37.6719Z" fill="#393E46"></path>
<path d="M57.2734 24.8548H65.4559C66.2795 24.8548 66.926 24.694 67.3954 24.3726C67.6176 24.2302 67.7992 24.0328 67.9226 23.7995C68.046 23.5662 68.1069 23.305 68.0995 23.0412C68.1022 22.8126 68.0565 22.586 67.9653 22.3764C67.8741 22.1667 67.7395 21.9788 67.5703 21.825C67.2162 21.4893 66.5498 21.1159 65.5711 20.7049L62.3301 19.3927C60.4241 18.6203 59.1112 17.8323 58.3915 17.0286C57.6717 16.225 57.3118 15.1987 57.3118 13.9498C57.3118 12.405 57.8588 11.2216 58.9526 10.3994C60.0464 9.57728 61.6161 9.16548 63.6615 9.16406H70.6662V12.3282H62.7462C62.2104 12.2975 61.6799 12.4478 61.2399 12.755C61.0612 12.8972 60.919 13.08 60.8251 13.2881C60.7312 13.4963 60.6884 13.7239 60.7 13.9519C60.7029 14.1499 60.7473 14.3451 60.8304 14.5248C60.9135 14.7045 61.0333 14.8648 61.1823 14.9953C61.6583 15.3949 62.2006 15.7083 62.7846 15.9213L66.1984 17.3103C68.3235 18.1836 69.758 19.0257 70.5019 19.8365C71.2459 20.6473 71.6157 21.6764 71.6114 22.9238C71.6114 24.6763 70.9614 25.9764 69.6613 26.8241C68.3612 27.6719 66.3606 28.0986 63.6594 28.1043H57.2734V24.8548Z" fill="#FF8A00"></path>
<path d="M101.617 9.16406V20.1075C101.617 22.6806 100.942 24.7132 99.5904 26.2054C98.2391 27.6975 96.4248 28.4436 94.1475 28.4436C93.016 28.4629 91.8965 28.2081 90.8848 27.7009C89.8731 27.1938 88.9992 26.4493 88.3376 25.5311C87.6421 26.4426 86.7521 27.1875 85.7325 27.7117C84.7379 28.2036 83.6415 28.4543 82.532 28.4436C80.2561 28.4436 78.4383 27.6946 77.0785 26.1968C75.7186 24.699 75.0401 22.6692 75.043 20.1075V9.16406H78.4184V20.7049C78.4184 22.0419 78.7946 23.1194 79.5471 23.9373C80.2995 24.7552 81.2952 25.1642 82.5342 25.1642C83.0913 25.1826 83.6459 25.082 84.1611 24.8689C84.6762 24.6559 85.1399 24.3354 85.5212 23.9288C86.2922 23.1052 86.6777 22.0306 86.6777 20.7049V9.16406H90.036V20.7049C90.036 22.0419 90.4129 23.1194 91.1668 23.9373C91.9207 24.7552 92.9164 25.1642 94.1539 25.1642C94.7062 25.1823 95.2559 25.0818 95.7661 24.8695C96.2762 24.6571 96.7349 24.3378 97.1111 23.9331C97.875 23.1095 98.2576 22.0348 98.259 20.7091V9.16406H101.617Z" fill="#FF8A00"></path>
<path d="M123.985 19.7211C123.509 22.4237 122.416 24.5573 120.703 26.122C118.99 27.6867 116.906 28.469 114.449 28.469C113.611 28.4687 112.777 28.3546 111.97 28.1297C111.159 27.9078 110.382 27.5731 109.664 27.1355C107.644 25.8956 106.129 23.9806 105.387 21.7302C104.645 19.4798 104.724 17.0393 105.61 14.8415C106.098 13.6513 106.808 12.5651 107.703 11.6411C108.582 10.731 109.636 10.0086 110.803 9.51753C111.969 9.02649 113.222 8.77699 114.488 8.78412C116.316 8.75811 118.109 9.28623 119.632 10.299C121.143 11.3089 122.368 12.779 123.308 14.7092L110.899 21.5795L109.469 19.0191L118.676 13.8856C118.146 13.2819 117.496 12.7957 116.766 12.4582C116.04 12.1276 115.251 11.958 114.454 11.9611C113.643 11.9489 112.84 12.1125 112.099 12.4407C111.357 12.7689 110.696 13.2538 110.161 13.8622C108.996 15.1295 108.413 16.6942 108.413 18.5561C108.413 20.4181 108.999 21.9828 110.169 23.2501C110.691 23.8236 111.322 24.2874 112.025 24.6144C112.727 24.9414 113.488 25.125 114.263 25.1546C115.038 25.1842 115.811 25.0592 116.536 24.7868C117.262 24.5143 117.927 24.1 118.49 23.568C119.579 22.5069 120.258 21.0504 120.528 19.1984L123.985 19.7211Z" fill="#FF8A00"></path>
<path d="M145.41 19.7211C144.932 22.4237 143.839 24.5573 142.129 26.122C140.419 27.6867 138.334 28.469 135.875 28.469C135.037 28.4689 134.203 28.3547 133.396 28.1297C132.588 27.9122 131.814 27.5825 131.098 27.1504C129.077 25.9121 127.56 23.9979 126.815 21.7474C126.071 19.4968 126.149 17.0555 127.033 14.8564C127.523 13.6665 128.234 12.5805 129.129 11.656C130.006 10.7432 131.06 10.018 132.227 9.52441C133.393 9.03077 134.647 8.77893 135.914 8.78412C137.742 8.75811 139.535 9.28623 141.058 10.299C142.568 11.3089 143.794 12.779 144.734 14.7092L132.325 21.5795L130.895 19.0191L140.102 13.8856C139.568 13.2809 138.914 12.7947 138.182 12.4582C137.454 12.1312 136.664 11.966 135.867 11.9739C135.056 11.9618 134.252 12.1255 133.511 12.4536C132.769 12.7818 132.108 13.2667 131.572 13.875C130.407 15.1423 129.825 16.707 129.826 18.5689C129.828 20.4309 130.413 21.9956 131.582 23.2629C132.104 23.8364 132.735 24.3002 133.438 24.6272C134.14 24.9542 134.901 25.1378 135.676 25.1674C136.451 25.197 137.224 25.072 137.949 24.7996C138.675 24.5271 139.34 24.1128 139.903 23.5808C140.992 22.5197 141.67 21.0632 141.939 19.2112L145.41 19.7211Z" fill="#FF8A00"></path>
<path d="M148.554 36.5213V20.1457C148.533 18.8926 148.617 17.64 148.806 16.4011C148.954 15.5499 149.223 14.7243 149.606 13.9496C150.356 12.379 151.555 11.0663 153.052 10.1773C154.577 9.26657 156.324 8.79544 158.1 8.81608C160.852 8.81608 163.123 9.74065 164.913 11.5898C166.702 13.4389 167.592 15.7753 167.582 18.5988C167.587 19.8581 167.361 21.1076 166.916 22.2857C166.482 23.4409 165.83 24.5021 164.996 25.4115C164.152 26.3611 163.113 27.1161 161.949 27.624C160.782 28.144 159.52 28.4129 158.243 28.4135C157.336 28.418 156.431 28.3112 155.55 28.0956C154.696 27.884 153.874 27.5559 153.109 27.1205V23.4656C153.819 24.0225 154.61 24.4652 155.456 24.7778C156.236 25.0588 157.059 25.2032 157.889 25.2045C159.702 25.2045 161.196 24.5801 162.369 23.3312C163.543 22.0823 164.128 20.4806 164.125 18.5262C164.125 16.623 163.553 15.0584 162.408 13.8322C161.263 12.6061 159.795 11.9945 158.006 11.9973C156.218 11.9973 154.764 12.6118 153.645 13.8408C152.525 15.0698 151.966 16.675 151.966 18.6564V36.5213H148.554Z" fill="#FF8A00"></path>
<path d="M189.047 19.7211C188.571 22.4237 187.477 24.5573 185.765 26.122C184.054 27.6867 181.97 28.469 179.512 28.469C178.674 28.4687 177.84 28.3546 177.033 28.1297C176.221 27.9074 175.445 27.5727 174.726 27.1355C172.707 25.8956 171.192 23.9806 170.45 21.7302C169.708 19.4798 169.786 17.0393 170.672 14.8415C171.16 13.6513 171.87 12.5651 172.765 11.6411C173.644 10.731 174.699 10.0086 175.865 9.51753C177.031 9.02649 178.285 8.77699 179.55 8.78412C181.379 8.75811 183.172 9.28623 184.694 10.299C186.206 11.3089 187.432 12.779 188.371 14.7092L175.961 21.5795L174.534 19.0191L183.739 13.8856C183.205 13.2807 182.551 12.7944 181.818 12.4582C181.09 12.1314 180.299 11.9662 179.501 11.9739C178.691 11.9617 177.887 12.1253 177.146 12.4535C176.405 12.7817 175.744 13.2666 175.208 13.875C174.043 15.1423 173.461 16.707 173.461 18.5689C173.461 20.4309 174.046 21.9956 175.217 23.2629C175.739 23.8364 176.369 24.3002 177.072 24.6272C177.775 24.9542 178.536 25.1378 179.311 25.1674C180.085 25.197 180.858 25.072 181.584 24.7996C182.31 24.5271 182.974 24.1128 183.538 23.5808C184.626 22.5197 185.305 21.0632 185.576 19.2112L189.047 19.7211Z" fill="#FF8A00"></path>
<path d="M192.48 28.098V9.16419H195.606V11.9614C196.122 10.9214 196.962 10.078 198 9.55891C199.016 9.06391 200.386 8.81641 202.112 8.81641H202.999V12.0979H202.479C200.149 12.0979 198.466 12.6513 197.431 13.7579C196.395 14.8645 195.877 16.6653 195.877 19.1602V28.098H192.48Z" fill="#FF8A00"></path>
</g>
<defs>
<clipPath id="clip0_487_21909">
<rect fill="white" height="37" width="203"></rect>
</clipPath>
</defs>
</svg>