<svg version="1.1" id="Layer_1" xmlns="http://www.w3.org/2000/svg" xmlns:xlink="http://www.w3.org/1999/xlink" x="0px" y="0px" viewBox="0 0 383.82 59.41" style="enable-background:new 0 0 383.82 59.41;" xml:space="preserve" aria-hidden="true">
<style type="text/css">
	.st0{fill:#24336A;}
</style>
<g>
	<path class="st0" d="M376.87,39.23v-3.38h-8.89v-4.62h6.28v-3.18h-6.28v-3.71h8.55v-3.38h-12.29v18.27H376.87L376.87,39.23z
		 M346.27,38.48c1.23,0.72,2.61,1.08,4.14,1.08c1.86,0,3.4-0.5,4.6-1.51c1.2-1.01,1.8-2.33,1.8-3.97c0-1.22-0.36-2.24-1.08-3.06
		c-0.72-0.82-1.86-1.58-3.43-2.28l-2.08-0.91c-0.81-0.37-1.37-0.7-1.68-0.98c-0.3-0.29-0.46-0.66-0.46-1.12
		c0-0.55,0.21-0.99,0.64-1.3c0.42-0.31,0.97-0.47,1.63-0.47c1.38,0,2.55,0.7,3.49,2.1l2.55-1.97c-0.59-1.07-1.4-1.91-2.44-2.53
		c-1.03-0.62-2.23-0.93-3.6-0.93c-1.75,0-3.2,0.48-4.35,1.43c-1.14,0.95-1.72,2.2-1.72,3.75c0,2.2,1.48,3.95,4.43,5.26l1.97,0.89
		c0.92,0.42,1.54,0.78,1.85,1.07c0.31,0.29,0.47,0.69,0.47,1.2c0,0.63-0.23,1.12-0.69,1.48c-0.46,0.36-1.1,0.54-1.91,0.54
		c-1.7,0-3.19-0.89-4.48-2.66l-2.57,1.94C344.07,36.77,345.04,37.76,346.27,38.48L346.27,38.48z M336.29,39.23V20.96h-3.74v18.27
		H336.29L336.29,39.23z M317.38,31.7l-4.79-11.07h-1.25l-4.79,11.13l-4.07-10.8h-4.15l7.31,18.6h1.22l5.12-11.46l5.09,11.46h1.22
		l7.31-18.6h-4.15L317.38,31.7L317.38,31.7z M287.26,39.23V24.33h5.87v-3.38h-15.45v3.38h5.84v14.89H287.26L287.26,39.23z
		 M257.07,36.83c1.93,1.87,4.23,2.78,6.91,2.73c1.75,0,3.34-0.4,4.76-1.2c1.42-0.8,2.53-1.91,3.32-3.34l-2.82-1.99
		c-1.31,2.05-3.06,3.07-5.23,3.07c-1.7,0-3.11-0.56-4.22-1.69c-1.12-1.13-1.68-2.56-1.68-4.29c0-1.73,0.56-3.17,1.68-4.32
		c1.12-1.14,2.52-1.72,4.22-1.72c2.18,0,3.92,1.02,5.23,3.07l2.82-1.99c-0.81-1.42-1.92-2.53-3.34-3.34s-2.99-1.2-4.72-1.2
		c-2.66-0.06-4.96,0.85-6.89,2.73c-1.94,1.87-2.89,4.12-2.85,6.74C254.2,32.71,255.14,34.96,257.07,36.83L257.07,36.83z
		 M248.33,39.23v-3.38h-8.89v-4.62h6.28v-3.18h-6.28v-3.71H248v-3.38h-12.29v18.27H248.33L248.33,39.23z M223.64,31.86l-10.6-11.24
		h-1.22v18.6h3.74V28.26l10.58,11.3h1.25v-18.6h-3.74V31.86L223.64,31.86z M199.75,31.86l-10.6-11.24h-1.22v18.6h3.74V28.26
		l10.58,11.3h1.25v-18.6h-3.74V31.86L199.75,31.86z M175.1,34.41c-1.12,1.13-2.52,1.69-4.19,1.69c-1.7,0-3.1-0.56-4.21-1.69
		c-1.11-1.13-1.66-2.57-1.66-4.32c0-1.75,0.55-3.19,1.66-4.32c1.11-1.13,2.51-1.69,4.21-1.69c1.68,0,3.08,0.57,4.19,1.7
		c1.12,1.14,1.67,2.57,1.67,4.3C176.77,31.84,176.21,33.28,175.1,34.41L175.1,34.41z M164.02,36.82c1.93,1.88,4.21,2.8,6.85,2.74
		c2.64,0.06,4.93-0.86,6.88-2.74c1.95-1.88,2.9-4.12,2.87-6.73c0.04-2.6-0.92-4.84-2.87-6.73c-1.95-1.88-4.24-2.8-6.88-2.74
		c-2.64-0.06-4.92,0.86-6.85,2.74c-1.93,1.88-2.88,4.13-2.84,6.73C161.15,32.69,162.09,34.94,164.02,36.82L164.02,36.82z
		 M140.05,36.83c1.93,1.87,4.23,2.78,6.91,2.73c1.75,0,3.34-0.4,4.76-1.2c1.42-0.8,2.53-1.91,3.32-3.34l-2.82-1.99
		c-1.31,2.05-3.05,3.07-5.23,3.07c-1.7,0-3.11-0.56-4.22-1.69c-1.12-1.13-1.68-2.56-1.68-4.29c0-1.73,0.56-3.17,1.68-4.32
		c1.12-1.14,2.52-1.72,4.22-1.72c2.18,0,3.92,1.02,5.23,3.07l2.82-1.99c-0.81-1.42-1.92-2.53-3.34-3.34c-1.41-0.8-2.99-1.2-4.72-1.2
		c-2.66-0.06-4.96,0.85-6.89,2.73c-1.94,1.87-2.89,4.12-2.85,6.74C137.18,32.71,138.12,34.96,140.05,36.83L140.05,36.83z
		 M83.82,17.64c-7.33-4.09-15.57-6.27-24-6.27c-8.43,0-16.66,2.18-24,6.27c2.94,2.93,5.69,6.19,8.24,9.76
		c4.4,6.16,7.34,12,9.1,16.05l6.66-10.87l6.66,10.87c1.76-4.05,4.69-9.89,9.1-16.05C78.13,23.83,80.89,20.58,83.82,17.64
		L83.82,17.64z M117.26,5.87c-8.75,1.71-16.69,5.4-23.75,10.99c0,0,0,0,0,0c-1.58,1.25-3.11,2.59-4.6,4.03c0,0,0,0,0,0
		c-2.98,2.89-5.79,6.15-8.41,9.8C73.1,41,70.05,50.6,70.02,50.7c-0.34,1.09-1.27,1.88-2.4,2.05c-0.14,0.02-0.29,0.03-0.43,0.03
		c-0.98,0-1.9-0.48-2.46-1.31l-4.91-7.31l-4.91,7.31c-0.55,0.83-1.48,1.31-2.46,1.31c-0.14,0-0.29-0.01-0.43-0.03
		c-1.13-0.17-2.06-0.96-2.4-2.05c-0.03-0.09-3.08-9.7-10.48-20c-2.64-3.67-5.47-6.96-8.47-9.86c-0.34-0.33-0.69-0.66-1.04-0.98
		c-0.01-0.01-0.02-0.02-0.03-0.03c-1.13-1.04-2.29-2.02-3.46-2.96c0,0,0,0,0,0c-7.06-5.6-15-9.28-23.75-10.99
		C0.79,5.55-0.26,4,0.06,2.39c0.31-1.6,1.87-2.65,3.47-2.34c10.14,1.99,19.5,6.53,27.68,13.36c8.64-5.22,18.5-8.03,28.62-8.03
		c10.12,0,19.98,2.8,28.62,8.03c8.18-6.83,17.53-11.37,27.68-13.36c1.61-0.31,3.16,0.73,3.47,2.34C119.91,4,118.86,5.55,117.26,5.87
		L117.26,5.87z M22.38,19.99C12.15,29.28,5.41,42.07,3.42,55.99c-0.23,1.63,0.9,3.15,2.54,3.38c1.64,0.23,3.15-0.9,3.38-2.54
		c1.79-12.55,7.85-24.06,17.06-32.42c0.55-0.5,1.12-0.99,1.69-1.47c-1.49-1.41-3.02-2.73-4.6-3.94
		C23.12,19.33,22.75,19.65,22.38,19.99L22.38,19.99z M116.23,55.99c0.23,1.63-0.9,3.15-2.54,3.38c-0.14,0.02-0.29,0.03-0.43,0.03
		c-1.46,0-2.74-1.08-2.96-2.57c-1.79-12.55-7.85-24.06-17.06-32.42c-0.56-0.5-1.12-0.99-1.69-1.47c1.49-1.41,3.02-2.73,4.6-3.94
		c0.38,0.32,0.75,0.65,1.12,0.99C107.51,29.28,114.24,42.07,116.23,55.99L116.23,55.99z"></path>
	<polygon class="st0" points="379.52,19.16 378.62,19.16 378.62,18.77 380.86,18.77 380.86,19.16 379.95,19.16 379.95,21.46 
		379.52,21.46 379.52,19.16 	"></polygon>
	<polygon class="st0" points="383.82,18.73 383.82,21.46 383.39,21.46 383.39,19.78 382.62,20.78 382.47,20.78 381.7,19.77 
		381.7,21.46 381.26,21.46 381.26,18.73 381.41,18.73 382.54,20.23 383.67,18.73 383.82,18.73 	"></polygon>
</g>
</svg>