<svg width="162" height="32" viewBox="0 0 162 32" fill="none" xmlns="http://www.w3.org/2000/svg">
<path d="M161.697 11.8818H156.472V6.50085H152.533V11.8818H152.299C150.661 11.8818 149.453 13.0124 149.453 14.6497V15.469H152.533V26.2713C152.533 29.6632 154.444 31.5349 157.914 31.5349H161.697V27.9477H158.463C157.176 27.9477 156.475 27.2456 156.475 25.9586V15.469H158.496C159.709 15.469 160.446 15.1577 160.992 14.5715C161.457 14.0482 161.709 13.369 161.697 12.6688V11.8818Z" fill="#FA5D00"/>
<path d="M139.352 19.7168C137.832 19.6386 136.974 18.7816 136.974 17.4946C136.974 15.895 138.456 14.8426 140.835 14.8426C142.941 14.8426 144.461 15.895 144.735 17.4555H148.639C148.369 13.7901 145.286 11.4116 140.84 11.4116C136.2 11.4116 133.159 13.8683 133.159 17.6496C133.159 21.0428 135.264 23.0318 138.929 23.265L142.751 23.4995C144.503 23.6167 145.364 24.4347 145.364 25.7998C145.364 27.4385 143.843 28.5691 141.269 28.5691C138.773 28.5691 136.979 27.3562 136.707 25.6448H132.763C133.032 29.5043 136.428 32 141.342 32C146.138 32 149.18 29.5043 149.18 25.6448C149.18 22.2125 147.035 20.1844 143.174 19.9513L139.352 19.7168Z" fill="#FA5D00"/>
<path d="M117.438 20.5231C116.999 20.9845 116.713 21.5698 116.619 22.1995V21.6146C116.619 17.5975 118.92 14.8295 122.195 14.8295C124.89 14.8295 126.797 16.6623 127.343 19.5865H120.168C118.803 19.5865 117.984 19.9382 117.438 20.5231ZM131.398 21.8491C131.398 15.6098 128.239 11.3204 122.195 11.3204C116.58 11.3204 112.72 15.498 112.72 21.6146C112.72 27.5804 116.501 31.9088 122.469 31.9088C127.069 31.9088 130.462 29.4131 131.125 25.5536H127.265C126.68 27.3055 124.73 28.3997 122.508 28.3997C119.036 28.3997 117.088 26.0994 116.697 22.8625H131.398V21.8491Z" fill="#FA5D00"/>
<path d="M103.985 27.401L98.8373 11.8809H94.587L101.411 31.534H106.364L113.188 11.8809H109.131L103.985 27.401Z" fill="#FA5D00"/>
<path d="M89.7128 11.8809C88.0351 11.8809 87.333 12.1504 86.7872 12.622C86.1467 13.223 85.7207 14.0172 85.5744 14.8833V11.8809H81.6408V31.534H85.5784V15.7417H89.9069C91.6588 15.7417 92.4417 15.3509 92.9875 14.766C93.4416 14.233 93.6905 13.5554 93.6896 12.8552V11.8809H89.7128Z" fill="#FA5D00"/>
<path d="M69.3576 28.6472C67.134 28.6472 65.7312 27.5166 65.7312 25.7216C65.7312 23.9698 67.095 22.8365 69.2794 22.8365H74.5431V25.7216C73.2575 27.6325 71.5784 28.6472 69.3576 28.6472V28.6472ZM70.6836 11.4116C65.7703 11.4116 62.4943 14.1405 62.2989 18.3126H66.1988C66.4333 16.2468 68.1488 14.9207 70.5273 14.9207C72.9839 14.9207 74.5431 16.4031 74.5431 18.7034V22.1734C73.9191 20.6534 71.8479 19.6386 69.2403 19.6386C64.7556 19.6386 61.8286 22.1344 61.8286 25.9952C61.8286 29.4652 64.2071 31.9246 68.2633 31.9246C71.228 31.9246 73.527 30.6767 74.5794 28.2591V31.5324H78.443V18.2735C78.443 14.096 75.4015 11.4116 70.6836 11.4116" fill="#FA5D00"/>
<path d="M52.8631 11.4129C49.7825 11.4129 47.5213 12.7766 46.5456 15.1565V4.31244H42.608V31.5337H46.5456V16.0135C48.1061 15.3896 49.5103 15.1174 50.8741 15.1174C53.9547 15.1174 55.5542 16.4421 55.5542 19.1723V31.5337H59.4919V18.237C59.4919 13.8304 56.9962 11.4129 52.8631 11.4129" fill="#FA5D00"/>
<path d="M13.7979 19.7476V31.5335H11.8102V13.8155C11.8111 13.5562 11.8633 13.2996 11.9639 13.0605C12.0645 12.8215 12.2115 12.6048 12.3963 12.4229C12.5811 12.2409 12.8001 12.0974 13.0407 12.0006C13.2812 11.9038 13.5386 11.8556 13.7979 11.8588H19.6842V17.7518C19.6877 18.0106 19.6401 18.2676 19.5439 18.508C19.4478 18.7484 19.305 18.9674 19.1239 19.1523C18.9428 19.3373 18.7269 19.4847 18.4887 19.5859C18.2504 19.6871 17.9944 19.7402 17.7356 19.7422L13.7979 19.7476Z" fill="#FA5D00"/>
<path d="M31.5334 8.04422e-05V29.5432C31.5317 30.0701 31.3218 30.5749 30.9495 30.9477C30.5772 31.3205 30.0726 31.5311 29.5457 31.5336H27.5971V1.95138C27.5944 1.69461 27.643 1.43988 27.7399 1.2021C27.8369 0.964311 27.9802 0.748247 28.1617 0.566547C28.3431 0.384847 28.559 0.24116 28.7967 0.143894C29.0343 0.0466283 29.289 -0.00226326 29.5457 8.04422e-05H31.5334Z" fill="#FA5D00"/>
<path d="M23.6595 0H25.6041V29.5431C25.6046 30.0633 25.4013 30.5629 25.0378 30.9349C24.6743 31.307 24.1796 31.5219 23.6595 31.5335H21.6719V9.83737C21.6731 9.57827 21.7256 9.32198 21.8263 9.08326C21.9271 8.84454 22.0741 8.62813 22.2588 8.44648C22.4436 8.26484 22.6625 8.12157 22.9029 8.02492C23.1433 7.92828 23.4005 7.88017 23.6595 7.88337V0Z" fill="#FA5D00"/>
<path d="M7.87396 31.5335H5.9294V1.95135C5.92671 1.69492 5.97512 1.44053 6.0718 1.20301C6.16849 0.965493 6.31152 0.749612 6.49253 0.567967C6.67355 0.386321 6.88894 0.24255 7.12612 0.145042C7.3633 0.0475344 7.61753 -0.0017559 7.87396 4.77692e-05H9.86165V21.6598C9.85988 22.1867 9.64998 22.6915 9.27768 23.0643C8.90537 23.4371 8.40083 23.6477 7.87396 23.6502V31.5335Z" fill="#FA5D00"/>
<path d="M0 31.5336V1.95145C0.00157929 1.69258 0.0543367 1.43658 0.155236 1.19817C0.256136 0.959765 0.403185 0.743667 0.587922 0.562311C0.77266 0.380956 0.991437 0.237923 1.23167 0.141445C1.47189 0.0449666 1.72883 -0.00305273 1.98769 0.000150304H3.9363V29.5433C3.93986 29.8021 3.89219 30.0591 3.79604 30.2995C3.69989 30.5399 3.55716 30.7588 3.37605 30.9438C3.19495 31.1288 2.97904 31.2762 2.74077 31.3774C2.5025 31.4786 2.24656 31.5317 1.98769 31.5336H0Z" fill="#FA5D00"/>
</svg>
