<svg width="45" height="50" viewBox="0 0 45 50" fill="none" xmlns="http://www.w3.org/2000/svg">
<path d="M22.3904 44.813C11.738 44.813 3.0107 36.0429 3.0107 25.3904C3.0107 22.9947 3.43851 20.7273 4.25135 18.5883L15.5883 41.3905C15.7166 41.69 15.9305 41.9467 16.2728 41.9467C16.615 41.9467 16.8289 41.69 16.9573 41.3905L22.1765 29.7113C22.2193 29.583 22.3049 29.4546 22.4332 29.4546C22.5616 29.4546 22.6044 29.583 22.6899 29.7113L27.9092 41.3905C28.0375 41.69 28.2514 41.9467 28.5937 41.9467C28.9359 41.9467 29.1498 41.69 29.2782 41.3905L40.6151 18.5883C41.4279 20.7273 41.8558 22.9947 41.8558 25.3904C41.7702 36.0429 33.0429 44.813 22.3904 44.813ZM22.3904 20.984C22.2621 20.984 22.2193 20.8557 22.1338 20.7273L16.0589 7.03744C18.0268 6.31017 20.1658 5.92514 22.3904 5.92514C24.6151 5.92514 26.7541 6.31017 28.722 7.03744L22.6471 20.7273C22.5616 20.8985 22.5188 20.984 22.3904 20.984ZM16.1872 35.0589C16.0589 35.0589 16.0161 34.9306 15.9305 34.8022L6.09093 14.9519C7.84494 12.2567 10.1979 9.98933 13.0642 8.40643L20.1658 24.1926C20.2514 24.4493 20.4653 24.5348 20.6792 24.5348H24.1017C24.3584 24.5348 24.5295 24.492 24.6578 24.1926L31.7595 8.40643C34.583 9.98933 36.9787 12.2567 38.7327 14.9519L28.8076 34.8022C28.7648 34.9306 28.6792 35.0589 28.5509 35.0589C28.4226 35.0589 28.3798 34.9306 28.2942 34.8022L24.5723 26.3316C24.4439 26.0322 24.2728 25.9894 24.0161 25.9894H20.5936C20.337 25.9894 20.1658 26.0322 20.0375 26.3316L16.4439 34.8022C16.4011 34.9306 16.3156 35.0589 16.1872 35.0589ZM22.3904 46.7809C34.2408 46.7809 43.7809 37.2408 43.7809 25.3904C43.7809 13.5401 34.2408 4 22.3904 4C10.5401 4 1 13.5401 1 25.3904C1 37.2408 10.5401 46.7809 22.3904 46.7809Z" fill="#1D1E1C"/>
</svg>
