<svg width="245" height="20" viewBox="0 0 245 20" fill="none" xmlns="http://www.w3.org/2000/svg">
<path fill-rule="evenodd" clip-rule="evenodd" d="M0 17.0443L2.75843 14.0609C3.89455 15.2762 5.00361 15.9947 6.3975 15.9947C8.04642 15.9947 9.07017 15.0275 9.07017 12.7902V0.331604H13.5605V12.9836C13.5605 15.2762 12.8789 16.989 11.6855 18.1491C10.4622 19.3368 8.67112 19.9448 6.51034 19.9448C3.41157 19.9448 1.365 18.6188 0 17.0443Z" fill="#39B6E9"/>
<path fill-rule="evenodd" clip-rule="evenodd" d="M23.3955 11.3812V0.331818H27.7735V11.2706C27.7735 14.4198 29.3944 16.0497 32.0671 16.0497C34.7379 16.0497 36.3588 14.4751 36.3588 11.4088V0.331818H40.7368V11.243C40.7368 17.0993 37.3537 19.9722 32.0098 19.9722C26.664 19.9722 23.3955 17.0717 23.3955 11.3812Z" fill="#39B6E9"/>
<path fill-rule="evenodd" clip-rule="evenodd" d="M49.5176 16.8508L52.1045 13.8397C53.8956 15.2762 55.772 16.1876 58.0461 16.1876C59.8372 16.1876 60.9173 15.4972 60.9173 14.3647V14.3095C60.9173 13.2318 60.2357 12.6796 56.9099 11.8511C52.9007 10.8563 50.3138 9.77911 50.3138 5.93955V5.88429C50.3138 2.37587 53.214 0.0552063 57.2782 0.0552063C60.1784 0.0552063 62.6525 0.93944 64.6706 2.51404L62.397 5.71805C60.6329 4.5303 58.8992 3.81231 57.2214 3.81231C55.5449 3.81231 54.6629 4.55794 54.6629 5.49744V5.5527C54.6629 6.82334 55.5165 7.23783 58.9565 8.09398C62.9928 9.11593 65.2664 10.5252 65.2664 13.895V13.9502C65.2664 17.7898 62.2539 19.9447 57.9617 19.9447C54.9473 19.9447 51.9059 18.9227 49.5176 16.8508Z" fill="#39B6E9"/>
<path fill-rule="evenodd" clip-rule="evenodd" d="M78.9674 4.25415H72.9116V0.331696H89.4012V4.25415H83.3454V19.6685H78.9674V4.25415Z" fill="#39B6E9"/>
<path fill-rule="evenodd" clip-rule="evenodd" d="M96.9028 0.331571H101.594L105.716 13.4253L110.179 0.276306H113.931L118.395 13.4253L122.517 0.331571H127.095L120.3 19.8066H116.489L111.999 7.15497L107.507 19.8066H103.698L96.9028 0.331571Z" fill="#39B6E9"/>
<path fill-rule="evenodd" clip-rule="evenodd" d="M150.571 10.0552V9.99994C150.571 6.68496 148.07 3.92306 144.546 3.92306C141.02 3.92306 138.576 6.62969 138.576 9.94468V9.99994C138.576 13.3149 141.077 16.0773 144.601 16.0773C148.127 16.0773 150.571 13.3702 150.571 10.0552ZM133.998 10.0552V9.99996C133.998 4.50291 138.461 0.000183105 144.602 0.000183105C150.743 0.000183105 155.15 4.44765 155.15 9.9447V9.99996C155.15 15.497 150.686 19.9997 144.546 19.9997C138.404 19.9997 133.998 15.5523 133.998 10.0552Z" fill="#39B6E9"/>
<path fill-rule="evenodd" clip-rule="evenodd" d="M173.54 9.72378C175.672 9.72378 176.894 8.61894 176.894 6.98908V6.93381C176.894 5.11052 175.586 4.17147 173.454 4.17147H169.105V9.72378H173.54ZM164.727 0.331482H173.824C176.354 0.331482 178.316 1.02229 179.622 2.29293C180.731 3.37015 181.329 4.88948 181.329 6.71276V6.76803C181.329 9.88959 179.595 11.851 177.064 12.7625L181.926 19.6683H176.808L172.545 13.4809H169.105V19.6683H164.727V0.331482Z" fill="#39B6E9"/>
<path fill-rule="evenodd" clip-rule="evenodd" d="M190.962 0.331604H195.34V8.78486L203.413 0.331604H208.702L200.599 8.53617L209.071 19.6684H203.811L197.642 11.4367L195.34 13.7569V19.6684H190.962V0.331604Z" fill="#39B6E9"/>
<path fill-rule="evenodd" clip-rule="evenodd" d="M215.749 16.8508L218.336 13.8397C220.127 15.2762 222.004 16.1876 224.278 16.1876C226.069 16.1876 227.149 15.4972 227.149 14.3647V14.3095C227.149 13.2318 226.467 12.6796 223.141 11.8511C219.132 10.8563 216.545 9.77911 216.545 5.93955V5.88429C216.545 2.37587 219.445 0.0552063 223.51 0.0552063C226.41 0.0552063 228.884 0.93944 230.902 2.51404L228.628 5.71805C226.864 4.5303 225.131 3.81231 223.453 3.81231C221.776 3.81231 220.895 4.55794 220.895 5.49744V5.5527C220.895 6.82334 221.748 7.23783 225.188 8.09398C229.224 9.11593 231.498 10.5252 231.498 13.895V13.9502C231.498 17.7898 228.485 19.9447 224.193 19.9447C221.179 19.9447 218.137 18.9227 215.749 16.8508Z" fill="#39B6E9"/>
<mask id="mask0" mask-type="alpha" maskUnits="userSpaceOnUse" x="0" y="0" width="245" height="20">
<path fill-rule="evenodd" clip-rule="evenodd" d="M0 20H244.972V0H0V20Z" fill="white"/>
</mask>
<g mask="url(#mask0)">
<path fill-rule="evenodd" clip-rule="evenodd" d="M240.366 19.6684H244.972V15.2486H240.366V19.6684Z" fill="#39B6E9"/>
</g>
</svg>
