<svg id="Layer_1" data-name="Layer 1" xmlns="http://www.w3.org/2000/svg" viewBox="0 0 350 63.49"><defs><style>.cls-1{fill:#1542e8;}.cls-2{fill:#4bbc81;}</style></defs><title>accelqlogo-blue</title><path class="cls-1" d="M221.92,37.26h-12.7a5.3,5.3,0,0,1,0-10.6h12.7a5.3,5.3,0,1,1,0,10.6Z"/><path class="cls-1" d="M225.22,61.16h-33.1a5.53,5.53,0,0,1-5.6-5.6V7.66a5.53,5.53,0,0,1,5.6-5.6h32.7a5.19,5.19,0,0,1,5.1,5.1,5.12,5.12,0,0,1-5.1,5.1h-27.2v38.8h27.6a5.19,5.19,0,0,1,5.1,5.1A5.1,5.1,0,0,1,225.22,61.16Z"/><path class="cls-1" d="M55.42,62.76a6,6,0,0,1-5.5-3.5l-23-50.2a6,6,0,1,1,11-5l23,50.2a6,6,0,0,1-3,8A5.59,5.59,0,0,1,55.42,62.76Z"/><path class="cls-1" d="M6.82,62.76a6,6,0,0,0,5.5-3.5l14.2-31.1a6,6,0,0,0-11-5L1.32,54.26a6,6,0,0,0,3,8A5.59,5.59,0,0,0,6.82,62.76Z"/><path class="cls-1" d="M277.72,60.56h-28.6a5.76,5.76,0,0,1-5.7-5.7v-47a5.7,5.7,0,1,1,11.4,0v41.3h22.9a5.7,5.7,0,0,1,0,11.4Z"/><path class="cls-2" d="M317.62,63.36a31.6,31.6,0,1,1,31.6-31.6A31.67,31.67,0,0,1,317.62,63.36Zm0-51.8a20.2,20.2,0,1,0,20.2,20.2A20.27,20.27,0,0,0,317.62,11.56Z"/><path class="cls-1" d="M335.92,55.76a5.61,5.61,0,0,1-4-1.7,5.8,5.8,0,0,1,0-8.1,20.15,20.15,0,0,0-28.5-28.5,5.8,5.8,0,0,1-8.1,0,5.7,5.7,0,0,1,0-8.1A31.61,31.61,0,0,1,340,54.06,6.21,6.21,0,0,1,335.92,55.76Z"/><path class="cls-2" d="M343.22,63.06a5.61,5.61,0,0,1-4-1.7l-23.5-23.5a5.73,5.73,0,1,1,8.1-8.1l23.5,23.5a5.8,5.8,0,0,1,0,8.1A5.59,5.59,0,0,1,343.22,63.06Z"/><path class="cls-1" d="M117.92,49.46a5.45,5.45,0,0,0-7.6-1.2,20.47,20.47,0,1,1-11.9-37.1,20,20,0,0,1,12,3.9,5.44,5.44,0,0,0,6.4-8.8A31,31,0,0,0,98.52.36a31.3,31.3,0,0,0,0,62.6,30.75,30.75,0,0,0,18.3-5.9A5.52,5.52,0,0,0,117.92,49.46Z"/><path class="cls-1" d="M175.52,49.46a5.45,5.45,0,0,0-7.6-1.2A20.47,20.47,0,1,1,156,11.16a20,20,0,0,1,12,3.9,5.44,5.44,0,1,0,6.4-8.8,31,31,0,0,0-18.3-5.9,31.3,31.3,0,0,0,0,62.6,30.75,30.75,0,0,0,18.3-5.9A5.52,5.52,0,0,0,175.52,49.46Z"/></svg>