<?xml version="1.0" encoding="utf-8"?>
<!-- Generator: Adobe Illustrator 27.0.1, SVG Export Plug-In . SVG Version: 6.00 Build 0)  -->
<svg version="1.1" id="Layer_1" xmlns="http://www.w3.org/2000/svg" xmlns:xlink="http://www.w3.org/1999/xlink" x="0px" y="0px"
	 viewBox="0 0 1080 1080" style="enable-background:new 0 0 1080 1080;" xml:space="preserve">
<style type="text/css">
	.st0{fill:#FFFFFF;}
	.st1{fill:#4296D1;}
	.st2{fill:#EF5680;}
	.st3{fill:#76625A;}
	.st4{fill:#A9978E;}
	.st5{fill:#282524;}
</style>
<g>
	<g>
		<g>
			<path class="st0" d="M456.9,342.4c15.1,0,27.3,12.2,27.3,27.3c0,15.1-12.2,27.3-27.3,27.3c-15.1,0-27.3-12.2-27.3-27.3
				C429.6,354.7,441.8,342.4,456.9,342.4z"/>
			<path class="st0" d="M310,407.4c-15.1,0-27.3-12.2-27.3-27.3c0-15.1,12.2-27.3,27.3-27.3c15.1,0,27.3,12.2,27.3,27.3
				C337.3,395.2,325.1,407.4,310,407.4z"/>
		</g>
		<path class="st3" d="M459.8,268.2c0,0,50.1-111.3,8.5-187.7c-6.4-11.8-21.8-15.8-33-8.4c-26.5,17.3-68,65.4-61.5,195.2
			C383.1,456.3,459.8,268.2,459.8,268.2z"/>
		<path class="st4" d="M944.3,524.3c-20.3,1.4-93,47.4-133.8,74.1c-29.1-38-79-56.4-124.8-55.9c-11.9-27.8-32.3-43.1-32.3-43.1
			c5.6-46.1-38.6-52.7-38.6-52.7s-7,18.6-2.5,38.1c4.5,19.5,26.2,20.7,26.2,20.7c11.2,11.5,16.4,25.9,18.6,39.7
			c-2,0.5-4.1,0.9-6.1,1.5c-25.8,6.4-47.6,20-59.2,40.7c-28.3,50.4-82.8,75.3-127.2,87.5c0.3-0.4,0.7-0.7,1-1.1
			c16.3-18.6,39-57.9,39-57.9c-24.5,10.4-46,5.5-77.9,0.9c-51.1-7.4-87.8-61.7-87.8-61.7c75.8,40.9,136.5,45.3,173.4,38.3
			c18.3-49.8,19.7-97,5.3-109.8c-7-6.2-12.2-13.6-15.9-21.4c-7.6-15.5-9.7-32.7-10-45.8c0-0.9,0-1.7,0-2.6
			c-0.1-23.2-2.7-46.4-8.6-68.9c-1.1-4.2-2.3-8.3-3.6-12.4c-7.2-22.4-16.3-40.8-26.8-55.8c-23-32.9-52.6-49.3-82.6-56.1
			c-68.8-15.7-140.1,18.6-140.1,18.6l-13.4,7.8c1.7-46-3.2-121.3-38.4-207.8c-5-12.4-17.8-20.5-31-18.5
			c-14.7,2.2-32.5,16.4-44.4,64.2c-23.2,92.7-13.2,170,45.6,243.1v153.5c0,62.6-12.7,190.5,105.7,234.5c2.9,1.1,5.9,2.1,9,3.1
			c8.7,4.6,23.8,15,29,33c7.5,26,10,57.1,15.5,67.6c0,0.1,0.1,0.1,0.2,0.2c7.7,23,22.6,45.1,46.4,62.9c21.4,16,51.5,28.8,86.2,36.9
			c2,13.2,3.5,27.7,4.2,43.7c0.7,32.1,2.8,61.4,7.5,74.6c13.1,36.7,86.7,20.3,92.1-8c2.7-14.1-9.2-59.2-21.9-100.9
			c112.9,1.1,241.2-45.5,295.1-175.5c15.5-37.3,19.8-69.6,16.4-97c48.8-12,121.1-31.4,141.7-45.6
			C1007.8,589.2,973,522.3,944.3,524.3z M456.9,342.4c15.1,0,27.3,12.2,27.3,27.3c0,15.1-12.2,27.3-27.3,27.3
			c-15.1,0-27.3-12.2-27.3-27.3C429.6,354.7,441.8,342.4,456.9,342.4z M310,407.4c-15.1,0-27.3-12.2-27.3-27.3
			c0-15.1,12.2-27.3,27.3-27.3c15.1,0,27.3,12.2,27.3,27.3C337.3,395.2,325.1,407.4,310,407.4z"/>
		<path class="st5" d="M171,275.3c0,0-5.3-108.3-9.8-180.2s-45.3-11.4-50,74.2c-4.7,85.6,68.6,172.3,59.8,107.2V275.3z"/>
		<ellipse class="st5" cx="320" cy="378.1" rx="20.1" ry="20.1"/>
		<ellipse class="st5" cx="466.1" cy="366" rx="20.1" ry="20.1"/>
		<path class="st0" d="M566.5,533.2c-2.5-23.5-13.1-40.5-28.1-52.7c0.1-0.3,0.2-0.6,0.2-1c1-6.4,0-12.9-2.3-18.9
			c-6-15.3-23.5-39.7-70.4-7.4c-17.1-2.3-34-2.9-48.6-2.6c-53.8-39.5-70.9-6.8-75.6,8c-34.2,8-87.7,29.7-110.7,88.5
			c-0.6,1.6-1.2,3.2-1.8,4.7c-34.5,94,44,191.1,143.4,179.1C492.2,716.4,575.1,614.8,566.5,533.2z"/>
		<path class="st5" d="M357.9,468.1c0,0,6.7-28.3,41.4-7.8L357.9,468.1z"/>
		<path class="st5" d="M527.6,468.1c0,0-6.7-28.3-41.4-7.8L527.6,468.1z"/>
		<path class="st3" d="M354.4,883c-10.9-8.1-19.8-17.2-27.1-26.8c-12.3,37.9-34.8,110.9-33.5,134.4c1.8,32.2,64.1,36.3,75.1,15.2
			c6.8-13.1,6.8-69.2,5.8-110.1C367.3,891.8,360.5,887.5,354.4,883z"/>
		<path class="st0" d="M773.6,729.9c-4.9,26-4.9,47.3-61.9,104c-36,35.8-98,60.8-151.7,68.9l0.4,0.1c-40,4.4-37.9,25.6-37.8,26.4
			c0,0.1,0,0.1,0.1,0.2c112.9,1.1,241.2-45.5,295.1-175.5c12.8-30.9,18-58.4,17.4-82.4C804.3,674.2,778.6,703.1,773.6,729.9z"/>
		<g>
			<path class="st0" d="M640.4,550.1c9.4,8.4,13.9,23.2,15.6,39.4c1.7-8.5,4.1-25.9,1.2-44.1c-2,0.5-4.1,0.9-6.1,1.5
				C647.5,547.8,643.9,548.9,640.4,550.1z"/>
			<path class="st0" d="M704.9,543.5c-6.4-0.7-12.9-0.9-19.2-0.9c5.2,12.2,8.6,26.8,8,43.6C701.2,562.7,704.8,544,704.9,543.5z"/>
		</g>
		<path class="st0" d="M387.6,803.8c-5.6-4-11.6-7.6-18-10.3c-19.1-8.1-43.2-11.2-67.6,4.6c1.8,9.6,3.6,17.5,5.9,21.8
			c0,0.1,0.1,0.1,0.2,0.2c7.7,23,22.6,45.1,46.4,62.9c21.4,16,51.5,28.8,86.2,36.9C428.8,843,397.6,812,387.6,803.8z"/>
		<path class="st3" d="M764.5,560.9c20.7-34.6,43.4-75.3,46.7-92.8c6.3-33.2-55.9-53.3-72.4-34.6c-10.2,11.5-24.4,68.3-33.9,110.1
			C725.4,545.6,745.9,551.4,764.5,560.9z"/>
		<path class="st4" d="M430.1,617c-51.1-7.4-86.4-58-86.4-58c132.7,71.6,214.8,19.9,214.8,19.9C505.9,623.1,481.2,624.4,430.1,617z"
			/>
	</g>
</g>
</svg>
