<?xml version="1.0" encoding="UTF-8"?> <svg xmlns="http://www.w3.org/2000/svg" width="241" height="45" viewBox="0 0 241 45" fill="none"><path d="M63.8167 19.2653C59.8536 18.511 57.9384 18.101 57.9384 16.1479C57.9384 14.2981 59.547 13.3715 61.731 13.3715C64.2284 13.3715 65.7648 14.7787 65.9731 16.799H71.035C70.9318 12.2072 67.3768 9.26029 61.7379 9.26029C56.0989 9.26029 52.8127 12.2778 52.8127 16.5285C52.8127 21.3942 56.3349 22.6652 60.4013 23.4524C64.4007 24.2412 66.352 24.6494 66.352 26.6715C66.352 28.5557 64.6073 29.5821 62.2511 29.5821C59.3128 29.5821 57.4665 27.9701 57.2959 25.6414L52.2375 25.5743C52.3046 30.44 56.1006 33.6624 62.1874 33.6624C67.7936 33.6624 71.4846 30.5811 71.5208 26.0893C71.5208 21.2581 67.8952 20.0215 63.8288 19.2705L63.815 19.2619V19.2671L63.8167 19.2653Z" fill="#191D34"></path><path d="M102.724 15.6276C99.9931 15.6276 98.2052 17.6548 97.4043 20.0643H96.1367L97.2563 17.5464C97.4939 17.0106 97.6179 16.4319 97.6179 15.8464H92.103V33.4521H96.9376V24.4374C96.9376 21.3871 98.3775 19.6028 100.878 19.6028C103.38 19.6028 104.442 21.1805 104.442 24.1601V33.4486H109.277V23.5762C109.277 17.5791 106.362 15.6241 102.729 15.6241L102.724 15.6276Z" fill="#191D34"></path><path d="M141.997 15.6276C139.265 15.6276 137.478 17.6548 136.677 20.0643H135.409L136.528 17.5464C136.766 17.0106 136.891 16.4319 136.891 15.8464H131.373V33.4521H136.208V24.4374C136.208 21.3871 137.648 19.6028 140.149 19.6028C142.65 19.6028 143.712 21.1805 143.712 24.1601V33.4486H148.547V23.5762C148.547 17.5791 145.633 15.6241 141.999 15.6241H141.997V15.6276Z" fill="#191D34"></path><path d="M128.903 15.8449H124.053V33.4507H128.905V15.8449H128.903Z" fill="#191D34"></path><path d="M174.428 8.78844L169.607 11.2204V33.4524H174.428V8.78844Z" fill="#191D34"></path><path d="M128.905 9.66496H124.053V14.5169H128.905V9.66496Z" fill="#191D34"></path><path d="M117.768 15.8447V9.60641L112.946 12.0383V15.8447H110.042V19.9163H112.946V30.867C112.946 32.293 114.103 33.4505 115.53 33.4505H121.802V29.3754H117.768V19.9163H121.802V15.8447H117.768Z" fill="#191D34"></path><path d="M150.061 24.6751C150.061 19.1912 153.659 15.6278 159.108 15.6278C164.558 15.6278 167.951 18.9174 167.985 24.093C167.985 24.6063 167.951 25.1901 167.848 25.7379H155.099V25.9773C155.202 28.4799 156.812 29.9868 159.246 29.9868C161.165 29.9868 162.536 29.1308 162.981 27.4843H167.745C167.199 30.9118 164.148 33.6537 159.418 33.6537C153.558 33.6537 150.061 30.1229 150.061 24.6734V24.6751ZM163.12 22.5842C162.811 20.4245 161.302 19.2257 159.145 19.2257C156.986 19.2257 155.477 20.4933 155.204 22.5842H163.12Z" fill="#191D34"></path><path d="M214.26 15.6276C211.528 15.6276 209.741 17.6548 208.94 20.0643H207.673L208.793 17.5464C209.029 17.0106 209.154 16.4319 209.154 15.8464H203.637V33.4521H208.472V24.4374C208.472 21.3871 209.911 19.6028 212.412 19.6028C214.913 19.6028 215.975 21.1805 215.975 24.1601V33.4486H220.81V23.5762C220.81 17.5791 217.896 15.6241 214.262 15.6241H214.26V15.6276Z" fill="#191D34"></path><path d="M222.322 24.6751C222.322 19.1912 225.92 15.6278 231.369 15.6278C236.819 15.6278 240.212 18.9174 240.246 24.093C240.246 24.6063 240.212 25.1901 240.108 25.7379H227.36V25.9773C227.463 28.4799 229.074 29.9868 231.507 29.9868C233.426 29.9868 234.797 29.1308 235.243 27.4843H240.007C239.459 30.9118 236.409 33.6537 231.679 33.6537C225.818 33.6537 222.322 30.1229 222.322 24.6734V24.6751ZM235.381 22.5842C235.072 20.4245 233.563 19.2257 231.406 19.2257C229.247 19.2257 227.738 20.4933 227.465 22.5842H235.381Z" fill="#191D34"></path><path d="M72.7245 24.6751C72.7245 19.1912 76.3225 15.6278 81.772 15.6278C87.2215 15.6278 90.6145 18.9174 90.649 24.093C90.649 24.6063 90.6145 25.1901 90.5112 25.7379H77.7624V25.9773C77.8657 28.4799 79.4762 29.9868 81.9098 29.9868C83.8285 29.9868 85.1995 29.1308 85.6456 27.4843H90.4095C89.8618 30.9118 86.8115 33.6537 82.082 33.6537C76.2209 33.6537 72.7245 30.1229 72.7245 24.6734V24.6751ZM85.7833 22.5842C85.4751 20.4245 83.9663 19.2257 81.8081 19.2257C79.6501 19.2257 78.1413 20.4933 77.8674 22.5842H85.785H85.7833Z" fill="#191D34"></path><path d="M189.78 33.6572C182.724 33.6572 177.613 28.4505 177.613 21.4612C177.613 14.472 182.724 9.26531 189.78 9.26531C196.837 9.26531 202.023 14.472 202.023 21.4612C202.023 28.4505 196.837 33.6572 189.78 33.6572ZM189.78 29.3065C193.788 29.3065 196.746 25.9841 196.746 21.4612C196.746 16.9384 193.788 13.616 189.78 13.616C185.772 13.616 182.854 16.9384 182.854 21.4612C182.854 25.9841 185.738 29.3065 189.78 29.3065Z" fill="#191D34"></path><path d="M240.943 17.0382C240.083 17.0382 239.386 16.339 239.386 15.4812C239.386 14.6235 240.085 13.9242 240.943 13.9242C241.801 13.9242 242.499 14.6235 242.499 15.4812C242.499 16.339 241.801 17.0382 240.943 17.0382ZM240.943 14.2567C240.268 14.2567 239.718 14.8061 239.718 15.4812C239.718 16.1564 240.268 16.7058 240.943 16.7058C241.618 16.7058 242.167 16.1564 242.167 15.4812C242.167 14.8061 241.618 14.2567 240.943 14.2567Z" fill="#191D34"></path><path d="M18.3935 7.45175L36.7863 16.6474V7.43281L18.3935 -1.76449V7.45175Z" fill="#191D34"></path><path d="M18.3935 34.9988L36.7863 25.8015V35.0177L18.3935 44.2151V34.9988Z" fill="#191D34"></path><path d="M18.3929 7.45151L0 16.6471V7.43257L18.3929 -1.76473V7.45151Z" fill="#191D34"></path><path d="M18.3929 34.9988L0 25.8015V35.0177L18.3929 44.2151V34.9988Z" fill="#191D34"></path><path d="M4.59616 18.9327L22.9753 28.1231L32.1864 23.5142L13.8158 14.3289L4.59616 18.9327Z" fill="#191D34"></path></svg> 