<svg xmlns="http://www.w3.org/2000/svg" width="100" height="17" viewBox="0 0 100 17">
    <g fill="#231F20" fill-rule="evenodd">
        <path d="M84.363 13.968h8.72c1.355 0 2.097-.127 2.531-.408.537-.332.842-.893.842-1.555 0-.79-.408-1.478-1.098-1.81-.359-.204-1.022-.306-1.841-.306h-3.64c-2.044 0-3.372-.357-4.267-1.12C84.588 7.876 84 6.5 84 5.02 84 2.855 85.2.97 86.964.357 87.732.076 88.624 0 90.62 0h8.888v3.033h-8.071c-1.61.026-2.232.026-2.77.153-.715.178-1.15.84-1.15 1.733 0 .765.357 1.376.971 1.657.511.229 1.415.28 2.643.28h2.734c2.507 0 3.86.382 4.858 1.402.766.764 1.277 2.269 1.277 3.746 0 1.81-.844 3.493-2.173 4.308-.842.534-1.917.688-4.448.688h-9.017v-3.032zM71.719 4.635C71.232 5.44 71 6.732 71 8.465 71 12.268 72.249 14 75.023 14 77.751 14 79 12.268 79 8.513 79 4.707 77.775 3 75.023 3c-1.502 0-2.681.586-3.304 1.635m9.725-2.043C82.442 3.949 83 6.16 83 8.752c0 2.941-.9 5.356-2.504 6.688C79.28 16.445 77.433 17 75.243 17c-3.112 0-5.566-1.057-6.832-2.943C67.463 12.675 67 10.839 67 8.6c0-3.218.85-5.659 2.455-6.967C70.72.578 72.715 0 75.001 0c2.893 0 5.203.93 6.443 2.592M65 17h-3.675V9.99h-6.65V17H51V0h3.675v6.958h6.65V0H65zM43.55 8c.895 0 1.413-.128 1.768-.485.423-.384.682-1.198.682-2.142 0-1.122-.424-1.939-1.154-2.22-.26-.102-.684-.153-1.226-.153H39v5h4.55zm-4.969 9H35V0h8.397c2.948 0 3.982.305 5.092 1.554C49.472 2.624 50 4.027 50 5.53c0 1.784-.704 3.441-1.865 4.436-.982.84-1.891 1.094-3.806 1.094H38.58V17zM21.716 4.635C21.23 5.44 21 6.732 21 8.465 21 12.268 22.248 14 25.023 14 27.75 14 29 12.268 29 8.513 29 4.707 27.775 3 25.023 3c-1.503 0-2.683.586-3.307 1.635m9.728-2.043C32.442 3.949 33 6.16 33 8.752c0 2.941-.9 5.356-2.505 6.688C29.28 16.445 27.433 17 25.243 17c-3.113 0-5.568-1.057-6.832-2.943C17.462 12.675 17 10.839 17 8.6c0-3.218.851-5.659 2.457-6.967C20.72.578 22.714 0 25 0c2.893 0 5.205.93 6.444 2.592M.363 13.968h8.721c1.354 0 2.096-.127 2.53-.408.537-.332.843-.893.843-1.555 0-.79-.408-1.478-1.098-1.81-.359-.204-1.022-.306-1.84-.306h-3.64c-2.044 0-3.374-.357-4.268-1.12C.589 7.876 0 6.5 0 5.02 0 2.855 1.202.97 2.966.357 3.732.076 4.626 0 6.62 0h8.888v3.033H7.438c-1.61.026-2.234.026-2.77.153-.715.178-1.15.84-1.15 1.733 0 .765.359 1.376.971 1.657.512.229 1.416.28 2.643.28h2.734c2.504 0 3.86.382 4.856 1.402.766.764 1.278 2.269 1.278 3.746 0 1.81-.844 3.493-2.172 4.308-.843.534-1.916.688-4.447.688H.363v-3.032z"/>
    </g>
</svg>
