<?xml version="1.0" encoding="UTF-8"?>
<svg width="162px" height="37px" viewBox="0 0 162 37" version="1.1" xmlns="http://www.w3.org/2000/svg" xmlns:xlink="http://www.w3.org/1999/xlink">
    <title>logo_norton_d</title>
    <g id="logo_norton_d" stroke="none" stroke-width="1" fill="none" fill-rule="evenodd">
        <g id="Norton_WBG_Horizontal">
            <path d="M76.6694084,8.25071823 C78.6234476,8.25071823 80.3795717,8.64765795 81.9381527,9.44153739 C83.4961757,10.2352305 84.7242163,11.3861693 85.6222744,12.8943539 C86.5197746,14.4023521 86.9691757,16.2150435 86.9691757,18.3316826 L86.9691757,18.9665998 C86.9691757,21.083798 86.5197746,22.895744 85.6222744,24.4039286 C84.7242163,25.9121132 83.4961757,27.063052 81.9381527,27.8569315 C80.3795717,28.6506245 78.6234476,29.0473779 76.6694084,29.0473779 C74.7146253,29.0473779 72.9586872,28.6506245 71.4006642,27.8569315 C69.8420832,27.063052 68.6140426,25.9121132 67.7165424,24.4039286 C66.8182983,22.895744 66.3696412,21.083798 66.3696412,18.9665998 L66.3696412,18.3316826 C66.3696412,16.2150435 66.8182983,14.4023521 67.7165424,12.8943539 C68.6140426,11.3861693 69.8420832,10.2352305 71.4006642,9.44153739 C72.9586872,8.64765795 74.7146253,8.25071823 76.6694084,8.25071823 Z M125.579891,8.25071823 C127.533931,8.25071823 129.290055,8.64765795 130.848636,9.44153739 C132.406659,10.2352305 133.634699,11.3861693 134.532757,12.8943539 C135.430258,14.4023521 135.879659,16.2150435 135.879659,18.3316826 L135.879659,18.9665998 C135.879659,21.083798 135.430258,22.895744 134.532757,24.4039286 C133.634699,25.9121132 132.406659,27.063052 130.848636,27.8569315 C129.290055,28.6506245 127.533931,29.0473779 125.579891,29.0473779 C123.625108,29.0473779 121.86917,28.6506245 120.311147,27.8569315 C118.752566,27.063052 117.524526,25.9121132 116.627025,24.4039286 C115.728781,22.895744 115.280124,21.083798 115.280124,18.9665998 L115.280124,18.3316826 C115.280124,16.2150435 115.728781,14.4023521 116.627025,12.8943539 C117.524526,11.3861693 118.752566,10.2352305 120.311147,9.44153739 C121.86917,8.64765795 123.625108,8.25071823 125.579891,8.25071823 Z M56.1181065,8.48888206 C57.64953,8.48888206 58.9902929,8.83997804 60.1390931,9.54067914 C61.2878932,10.2421257 62.179255,11.2076396 62.8129924,12.4379664 C63.4469158,13.6682932 63.7636915,15.1037987 63.7636915,16.7441101 L63.7636915,28.4918487 L58.7722887,28.4918487 L58.7722887,17.1408635 C58.7722887,15.6595143 58.4090104,14.5482694 57.6830119,13.8071289 C56.9562693,13.0667338 55.9201914,12.695884 54.5731042,12.695884 C53.0413087,12.695884 51.8527023,13.2055695 51.0078431,14.2238224 C50.1624259,15.2428207 49.7401823,16.6647222 49.7401823,18.4904585 L49.7401823,28.4918487 L44.7487795,28.4918487 L44.7487795,8.80643384 L49.6609419,8.80643384 L49.6609419,11.3861693 L50.3741057,11.3861693 C50.6908814,10.6985132 51.2851846,10.0436558 52.1566433,9.42159723 C53.0282879,8.80028407 54.3484037,8.48888206 56.1181065,8.48888206 Z M109.029412,2.69430756 L109.029412,8.80643384 L114.417203,8.80643384 L114.417203,12.9340479 L109.029412,12.9340479 L109.029412,23.1736018 C109.029412,23.9674813 109.399015,24.3642346 110.138778,24.3642346 L113.941761,24.3642346 L113.941761,28.4918487 L108.395675,28.4918487 C107.101415,28.4918487 106.051572,28.0887592 105.246333,27.281462 C104.44035,26.4745376 104.03801,25.3962779 104.03801,24.0466829 L104.03801,12.9340479 L98.9241191,12.9340479 C97.4808645,12.9662876 96.612754,13.5095173 95.7944943,14.1841285 C94.9756766,14.858926 94.5664538,15.8976781 94.5664538,17.2998257 L94.5664538,28.4918487 L89.575051,28.4918487 L89.575051,8.80643384 L94.4872133,8.80643384 L94.4872133,11.0289236 L95.2003772,11.0289236 C95.4905534,10.2352305 96.0013379,9.70113224 96.6748815,9.33028246 C97.3482391,8.9601781 98.1051154,8.80643384 99.0033596,8.80643384 L104.03801,8.80643384 L104.03801,2.69430756 L109.029412,2.69430756 Z M149.854861,8.48888206 C151.386284,8.48888206 152.727047,8.83997804 153.875847,9.54067914 C155.024648,10.2421257 155.916009,11.2076396 156.549747,12.4379664 C157.18367,13.6682932 157.500446,15.1037987 157.500446,16.7441101 L157.500446,28.4918487 L152.509043,28.4918487 L152.509043,17.1408635 C152.509043,15.6595143 152.145765,14.5482694 151.41958,13.8071289 C150.693024,13.0667338 149.65676,12.695884 148.309859,12.695884 C146.778063,12.695884 145.589457,13.2055695 144.744598,14.2238224 C143.89918,15.2428207 143.476937,16.6647222 143.476937,18.4904585 L143.476937,28.4918487 L138.485534,28.4918487 L138.485534,8.80643384 L143.397696,8.80643384 L143.397696,11.3861693 L144.11086,11.3861693 C144.427636,10.6985132 145.021939,10.0436558 145.893398,9.42159723 C146.765042,8.80028407 148.085158,8.48888206 149.854861,8.48888206 Z M76.6694084,12.695884 C75.1374269,12.695884 73.8697661,13.1919655 72.8664261,14.1841285 C71.862342,15.1764778 71.361044,16.5989383 71.361044,18.4505782 L71.361044,18.8475179 C71.361044,20.6999033 71.862342,22.1218047 72.8664261,23.114154 C73.8697661,24.106317 75.1374269,24.6023985 76.6694084,24.6023985 C78.200832,24.6023985 79.4684928,24.106317 80.4723908,23.114154 C81.4757309,22.1218047 81.9777729,20.6999033 81.9777729,18.8475179 L81.9777729,18.4505782 C81.9777729,16.5989383 81.4826133,15.1764778 80.4922939,14.1841285 C79.5017886,13.1919655 78.2274315,12.695884 76.6694084,12.695884 Z M125.579891,12.695884 C124.04791,12.695884 122.780249,13.1919655 121.776909,14.1841285 C120.772825,15.1764778 120.271527,16.5989383 120.271527,18.4505782 L120.271527,18.8475179 C120.271527,20.6999033 120.772825,22.1218047 121.776909,23.114154 C122.780249,24.106317 124.04791,24.6023985 125.579891,24.6023985 C127.111315,24.6023985 128.378976,24.106317 129.382874,23.114154 C130.386214,22.1218047 130.888256,20.6999033 130.888256,18.8475179 L130.888256,18.4505782 C130.888256,16.5989383 130.393096,15.1764778 129.402777,14.1841285 C128.412272,13.1919655 127.137914,12.695884 125.579891,12.695884 Z M160.214672,8.79681783 L160.645658,10.6883381 L160.74815,10.6883381 L161.179136,8.79681783 L162,8.79681783 L162,11.0789417 L161.569014,11.0789417 L161.569014,9.18742143 L161.466522,9.18742143 L161.035536,11.0789417 L160.358272,11.0789417 L159.927286,9.18742143 L159.824795,9.18742143 L159.824795,11.0789417 L159.393808,11.0789417 L159.393808,8.79681783 L160.214672,8.79681783 Z M159.085961,8.79681783 L159.085961,9.18742143 L158.326667,9.18742143 L158.326667,11.0789417 L157.895681,11.0789417 L157.895681,9.18742143 L157.136386,9.18742143 L157.136386,8.79681783 L159.085961,8.79681783 Z" id="Combined-Shape" fill="#242424"></path>
            <path d="M36.9312465,18.5005591 C36.9312465,28.7013508 28.6480179,37 18.4661813,37 C8.28341461,37 0,28.7013508 0,18.5005591 C0,8.29883552 8.28341461,0 18.4661813,0 C21.2803325,0 23.9492095,0.633426344 26.338513,1.76647494 L23.2715737,5.72487711 C21.7760502,5.15891188 20.1572017,4.84900073 18.4661813,4.84900073 C11.2861803,4.84900073 5.38630282,10.4402601 4.8757043,17.5059735 C4.86565974,17.6485363 4.8578473,17.792031 4.85189497,17.9364574 C4.84408253,18.1235595 4.8399903,18.3115934 4.8399903,18.5005591 C4.8399903,26.0275052 10.9522917,32.1509993 18.4661813,32.1509993 C25.9789549,32.1509993 32.0912562,26.0275052 32.0912562,18.5005591 C32.0912562,17.494233 31.9816961,16.512506 31.7752246,15.5684231 L35.3339753,10.9756628 C36.3603807,13.2754906 36.9312465,15.8228 36.9312465,18.5005591" id="Fill-13" fill="#FFE01A"></path>
            <path d="M33.1669171,7.31815215 L30.0564514,11.3309705 L19.1378276,25.4217715 L10.2301621,17.4436558 L13.4552102,13.828709 L18.4957198,18.3431995 L26.7612774,7.67744782 L29.727585,3.84856354 C31.0205432,4.84818076 32.1780859,6.01589169 33.1669171,7.31815215" id="Fill-16" fill="#242424"></path>
        </g>
    </g>
</svg>