<svg viewBox="0 0 101 52" fill="none" xmlns="http://www.w3.org/2000/svg">
<g clip-path="url(#clip0_9532_30976)">
<path d="M90.2774 27.8597H89.8887V34.5779H85.0647V17.8511L89.8887 10.3103V25.9174C90.8489 24.7406 94.084 20.2733 94.084 20.2733H100.04L94.3926 26.2487L100.234 34.5893H94.1412L90.2774 27.8597ZM76.8341 26.7629L78.8117 20.319H83.59L77.9887 34.5322C76.3197 38.8053 73.9305 41.6959 70.3639 41.6959C68.9922 41.6959 67.8376 41.3417 67.2318 40.9989L69.1522 38.0283C69.438 38.0626 69.7352 38.074 70.0324 38.074C71.6786 38.074 72.9131 36.4745 73.7133 34.5779L67.8376 20.319H73.2446L75.3595 26.6829C75.771 27.894 76.0682 30.2019 76.0682 30.2019C76.0682 30.2019 76.4454 27.974 76.8341 26.7629ZM62.2591 26.4316C62.2591 24.5692 61.4361 23.6895 59.87 23.6895C59.1041 23.6895 58.3039 23.9065 57.7552 24.2379V34.5779H52.9311V20.4561L57.6523 20.0676L57.538 22.3755H57.698C58.7154 21.0045 60.4415 19.9648 62.4992 19.9648C64.9684 19.9648 67.106 21.4958 67.106 25.1176V34.5779H62.2591V26.4316ZM39.1221 33.8466L39.5565 30.5561C41.0654 31.2988 42.7687 31.653 44.1976 31.653C45.2378 31.653 45.9237 31.2988 45.9237 30.6704C45.9237 28.8652 39.4193 29.2993 39.4193 24.5806C39.4193 21.5643 42.1857 19.9762 45.6494 19.9762C47.3755 19.9762 49.1588 20.4446 50.3134 20.856L49.8447 24.0893C48.633 23.6209 46.9868 23.1867 45.6151 23.1867C44.7692 23.1867 44.0833 23.4838 44.0833 24.0322C44.0833 25.8146 50.7249 25.4604 50.7249 30.0648C50.7249 33.1268 48.0042 34.8864 44.2776 34.8864C42.22 34.8864 40.551 34.5322 39.1221 33.8466Z" fill="#091C30"/>
<path d="M28.6202 13.98H4.62421C4.62421 12.4767 6.79318 7.93249 11.1311 0.347412C11.1311 0.347412 11.7318 4.34776 12.933 12.3485L20.2639 12.3486L22.0633 0.347412C26.4346 8.03307 28.6202 12.5773 28.6202 13.98Z" fill="white"/>
<path d="M16.5855 52.0117L0.269287 40.568V13.8593C0.269287 13.8593 6.30192 11.6309 16.6064 11.6309C26.911 11.6309 32.8995 13.8593 32.8995 13.8593V40.568L16.5855 52.0117Z" fill="white"/>
<path d="M16.5855 50.4032L1.31177 39.7354V14.9313C1.31177 14.9313 7.02352 12.8618 16.5855 12.8618V50.4032Z" fill="#DBDBDB"/>
<path d="M16.6063 12.8618C16.5992 12.8618 16.5926 12.862 16.5855 12.8618V50.3716H16.5857L31.7253 39.7348V14.9313C31.7253 14.9313 26.1683 12.8618 16.6063 12.8618Z" fill="#C6C6C6"/>
<path d="M24.85 44.5669L23.562 33.3636H16.4835C16.4835 42.2556 16.4835 47.9441 16.4835 50.4292L16.5855 50.5256C19.3394 48.6399 22.0942 46.6536 24.85 44.5669Z" fill="#3B3B63"/>
<path d="M8.32544 44.6553L16.5855 50.5256L16.5896 33.0225H9.43599L8.32544 44.6553Z" fill="#53537A"/>
<path d="M20.1201 41.3392C20.1201 43.264 18.2955 44.2182 16.6217 44.2182C14.9479 44.2182 13.0864 43.264 13.0864 41.3392" fill="#BC9375"/>
<path d="M16.6031 42.3346C15.2593 42.3346 14.6059 41.3632 14.6059 39.3662H15.2466C15.2466 41.7041 16.1626 41.7041 16.6031 41.7041C17.0435 41.7041 17.9596 41.7041 17.9596 39.3662H18.6001C18.6001 41.3632 17.9467 42.3346 16.6031 42.3346Z" fill="white"/>
<path d="M16.5855 39.8537C16.999 40.9247 17.7981 41.4603 18.9829 41.4603C20.143 41.4603 21.3536 40.8587 21.9048 39.3722C22.6748 37.2928 22.6671 34.3984 22.6671 34.3984C22.6671 34.3984 26.0888 30.1791 26.0888 28.7524C26.0888 28.7524 22.9211 28.7524 16.5855 28.7524V39.8537Z" fill="#C49A7E"/>
<path d="M6.94434 28.7524C6.94434 30.4047 10.3364 34.3984 10.3364 34.3984C10.3364 34.3984 10.3281 37.2919 11.0989 39.3722C11.6489 40.8577 12.8607 41.4603 14.021 41.4603C15.2059 41.4603 16.0607 40.9247 16.5855 39.8537V28.7524H6.94434Z" fill="#D8B7A0"/>
<path d="M25.6804 19.2521C23.0426 16.5882 22.3829 11.0332 22.3829 11.0332C21.8905 12.7836 20.82 17.9444 20.82 17.9444C20.82 17.9444 18.7409 17.2821 16.5014 17.2786C16.4279 17.2786 16.4279 24.2321 16.5014 38.1389L18.6335 36.621L19.0298 29.2548L21.3 31.8061L24.2244 32.6478C24.2244 32.6478 25.3186 31.8793 25.3186 31.8822C25.7831 31.2413 25.9372 30.6954 26.0496 30.4121C26.4558 29.3814 25.5438 21.4991 25.5438 21.4991C25.22 20.8316 25.6804 19.2521 25.6804 19.2521Z" fill="#3B3B63"/>
<path d="M12.4067 17.9441C12.4067 17.9441 11.3358 12.7834 10.8438 11.0328C10.8438 11.0328 10.1845 16.5878 7.54635 19.2517C7.54635 19.2517 8.00672 20.8314 7.68292 21.4988C7.68292 21.4988 6.77094 29.3814 7.1771 30.4104C7.28927 30.694 7.4446 31.2397 7.90851 31.8806C7.90851 31.8777 9.00334 32.6464 9.00334 32.6464L11.9271 31.8045L14.1969 29.2536L14.5943 36.6198L16.5877 38.0976V17.2396C14.3398 17.2433 12.4067 17.9441 12.4067 17.9441Z" fill="#53537A"/>
<path d="M23.8345 5.88535C24.2722 6.68873 28.0344 14.1158 28.0344 16.6879L26.3657 21.1646C26.648 23.6907 27.2095 29.1793 26.7856 30.2517C26.524 30.915 25.5265 32.2794 24.6733 33.3844L25.8397 43.8707L24.2629 44.9891L23.3862 37.327C23.2657 38.1046 23.0845 38.9348 22.8083 39.6804C22.443 40.6672 21.7975 41.4149 20.9718 41.8579C20.9234 44.2235 18.7086 45.4998 16.6217 45.4998C14.5175 45.4998 12.2841 44.2245 12.2349 41.8597C11.4075 41.416 10.7612 40.6682 10.3955 39.6804C10.1303 38.9636 9.95157 38.17 9.83044 37.4185L8.99177 45.13L7.40641 43.9934L8.55129 33.4164C7.69144 32.3065 6.67479 30.9217 6.41062 30.2511C5.98674 29.1785 6.52634 23.6907 6.80907 21.1642L5.0412 16.5306V16.3796C5.0412 13.8076 8.90199 6.68873 9.34025 5.88535L10.5906 3.62988C11.3519 8.85557 11.7323 11.4707 11.7317 11.4754L12.3474 15.71L13.1575 17.0215C13.9358 16.7628 15.2571 16.4036 16.595 16.4036C17.9344 16.4036 19.2646 16.764 20.0463 17.0223L20.8559 15.7102L22.61 3.62988L23.8345 5.88535ZM16.6217 43.8183C17.5453 43.8183 18.8608 43.407 19.1891 42.3166C19.1539 42.3176 19.1199 42.3205 19.0847 42.3205C18.905 42.3205 18.7369 42.3039 18.5739 42.2819C18.0974 42.9345 17.3552 43.1325 16.6033 43.1325C15.8527 43.1325 15.1119 42.9327 14.6364 42.2811C14.4723 42.3041 14.3023 42.3205 14.1211 42.3205C14.0865 42.3205 14.0532 42.3176 14.0192 42.3166C14.3509 43.407 15.6841 43.8183 16.6217 43.8183ZM15.54 42.0261C15.8265 42.2374 16.1805 42.355 16.604 42.355C17.0251 42.355 17.3775 42.2366 17.6636 42.0261C17.4355 41.9262 17.229 41.8072 17.047 41.6773C16.8823 41.7253 16.7247 41.7243 16.6031 41.7243C16.4809 41.7243 16.3217 41.7243 16.1557 41.6763C15.9741 41.8072 15.7681 41.9262 15.54 42.0261ZM22.1031 33.8911C23.238 32.5035 24.9464 30.2685 25.1939 29.643C25.3805 28.999 25.0622 24.7298 24.6571 21.1515L24.6347 20.9531L24.9696 20.0642C23.8656 18.9054 23.0954 17.3176 22.5691 15.8181L22.5007 16.2891L20.7577 19.1096L20.0769 18.824C20.0603 18.8168 18.283 18.0842 16.596 18.0842C14.8982 18.0842 13.1497 18.8162 13.1327 18.8234L12.4509 19.1114L10.7057 16.2897L10.654 15.9282C10.1221 17.4132 9.35109 18.9731 8.2523 20.1066L8.57214 20.9537L8.54983 21.1523C8.14451 24.7298 7.82613 28.999 8.01899 29.6592C8.26022 30.2695 9.96888 32.5045 11.1031 33.8911L11.2924 34.1227L11.2914 34.4196C11.2914 34.4475 11.2947 37.1927 12.0024 39.1031C12.5161 40.4887 13.6558 40.6368 14.1226 40.6368C15.296 40.6368 15.7925 39.5768 15.8129 39.5316C16.0879 38.999 16.2254 38.1239 16.2254 36.9064H16.9348C16.9348 37.8846 17.0827 38.7616 17.3785 39.5374C17.3965 39.5757 17.9054 40.6395 19.0847 40.6395C19.5505 40.6395 20.6906 40.4897 21.2039 39.1041C21.9138 37.1869 21.9147 34.4475 21.9147 34.4206L21.9138 34.1238L22.1031 33.8911Z" fill="#333152"/>
<path d="M21.9096 26.4297H19.3472H18.4932V26.4652C18.4932 27.6395 19.5248 28.5908 20.735 28.5908C21.9455 28.5908 22.9772 27.6393 22.9772 26.4652V26.4297H21.9096Z" fill="#333152"/>
<path d="M19.3472 26.4297V26.4652C19.3472 27.1637 19.9185 27.7298 20.6286 27.7298C21.3388 27.7298 21.9098 27.1637 21.9098 26.4652V26.4297H19.3472Z" fill="white"/>
<path d="M20.4235 26.4297C20.4177 26.4297 20.4127 26.4326 20.4074 26.4336C20.4819 26.449 20.5232 26.6151 20.5071 26.7257C20.4831 26.8948 20.3368 27.0121 20.1691 27.015C20.2179 27.2359 20.401 27.4136 20.6441 27.4473C20.9548 27.4905 21.2419 27.2809 21.2858 26.9754C21.3175 26.7505 21.2077 26.4297 21.024 26.4297H20.4235Z" fill="#333152"/>
<path d="M13.6624 26.4297H11.1004H10.2462V26.4652C10.2462 27.6395 11.278 28.5908 12.4879 28.5908C13.6985 28.5908 14.7304 27.6393 14.7304 26.4652V26.4297H13.6624Z" fill="#333152"/>
<path d="M11.1005 26.4297V26.4652C11.1005 27.1637 11.6722 27.7298 12.3813 27.7298C13.0916 27.7298 13.6627 27.1637 13.6627 26.4652V26.4297H11.1005Z" fill="white"/>
<path d="M12.7772 26.4297H12.1761C12.1708 26.4297 12.1652 26.4326 12.1604 26.4336C12.2346 26.449 12.2757 26.6151 12.2601 26.7257C12.2359 26.8948 12.0904 27.0121 11.9217 27.015C11.9711 27.2359 12.1542 27.4136 12.3969 27.4473C12.7073 27.4905 12.995 27.2809 13.0384 26.9754C13.0705 26.7505 12.9609 26.4297 12.7772 26.4297Z" fill="#333152"/>
<path d="M21.652 25.4273C21.7954 25.2726 23.0133 23.9128 21.3845 23.9128C19.9127 23.9128 18.8537 25.0814 18.5731 25.4273H21.652Z" fill="#C49A7E"/>
<path d="M14.6264 25.4273C14.3459 25.0814 13.2869 23.9128 11.8147 23.9128C10.1868 23.9128 11.4046 25.2726 11.5472 25.4273H14.6264Z" fill="#D8B7A0"/>
<path d="M6.79614 16.2427C6.89289 14.9086 8.30339 11.7121 9.64884 9.01819L10.0075 11.4813C9.87068 12.4022 9.2456 16.0139 7.56884 18.2905L6.79614 16.2427Z" fill="#D8B7A0"/>
<path d="M23.2274 11.2895L23.5578 9.01843C24.9031 11.7121 26.3144 14.9088 26.4111 16.2429L25.6566 18.2422C23.8449 15.736 23.2766 11.6618 23.2274 11.2895Z" fill="#C49A7E"/>
<mask id="mask0_9532_30976" style="mask-type:alpha" maskUnits="userSpaceOnUse" x="14" y="35" width="6" height="5">
<path d="M15.3469 38.4023C14.7151 37.9306 14.067 37.3354 14.067 36.8788C14.067 36.5788 14.6059 35.6544 14.6059 35.6544H18.6137C18.6137 35.6544 19.1393 36.474 19.1393 36.8788C19.1393 37.3039 18.4851 37.8828 17.8323 38.3545C17.6101 37.978 17.3274 37.9126 17.1967 38.2094C17.1293 38.3632 17.116 38.5845 17.149 38.8162C16.7935 39.0422 16.5337 39.1878 16.5337 39.1878C16.5337 39.1878 16.3331 39.0724 16.0462 38.8868C16.0925 38.6301 16.0836 38.3787 16.0091 38.2094C15.8774 37.9086 15.589 37.9798 15.3651 38.3698C15.3589 38.3805 15.3529 38.3914 15.3469 38.4023Z" fill="white"/>
</mask>
<g mask="url(#mask0_9532_30976)">
<path d="M15.3469 38.4023C14.7151 37.9306 14.067 37.3354 14.067 36.8788C14.067 36.5788 14.6059 35.6544 14.6059 35.6544H18.6137C18.6137 35.6544 19.1393 36.474 19.1393 36.8788C19.1393 37.3039 18.4851 37.8828 17.8323 38.3545C17.6101 37.978 17.3274 37.9126 17.1967 38.2094C17.1293 38.3632 17.116 38.5845 17.149 38.8162C16.7935 39.0422 16.5337 39.1878 16.5337 39.1878C16.5337 39.1878 16.3331 39.0724 16.0462 38.8868C16.0925 38.6301 16.0836 38.3787 16.0091 38.2094C15.8774 37.9086 15.589 37.9798 15.3651 38.3698C15.3589 38.3805 15.3529 38.3914 15.3469 38.4023Z" fill="#333152"/>
</g>
</g>
<defs>
<clipPath id="clip0_9532_30976">
<rect width="100.414" height="52" fill="white"/>
</clipPath>
</defs>
</svg>
