<svg width="101" height="42" viewBox="0 0 101 42" fill="none" xmlns="http://www.w3.org/2000/svg">
<path d="M92.911 29.3326C92.643 29.3326 92.4585 29.1468 92.4585 28.8797V15.6085H87.9502C87.6821 15.6085 87.4972 15.4236 87.4972 15.1561V13.3255C87.4972 13.0574 87.6822 12.872 87.9502 12.872H99.9505C100.218 12.872 100.403 13.0576 100.403 13.3255V15.156C100.403 15.4233 100.218 15.6085 99.9505 15.6085H95.4425V28.8795C95.4425 29.1468 95.257 29.3326 94.9899 29.3326H92.911ZM58.3767 22.7069L56.0102 15.9175L53.6224 22.7069H58.3767ZM63.6255 28.7963C63.729 29.0645 63.564 29.3326 63.2758 29.3326H61.1355C60.8266 29.3326 60.6411 29.189 60.5379 28.8996L59.324 25.403H52.6763L51.4603 28.8996C51.3582 29.1891 51.1722 29.3326 50.8641 29.3326H48.8476C48.5797 29.3326 48.3941 29.0644 48.4971 28.7963L54.075 13.2843C54.1782 12.9953 54.3634 12.8727 54.6715 12.8727H57.4297C57.7387 12.8727 57.9446 12.9954 58.0475 13.2843L63.6255 28.7963ZM79.6139 27.11C80.9306 27.11 81.8161 26.4733 82.5367 25.3823L79.2028 21.8017C77.9261 22.5224 77.1024 23.2416 77.1024 24.6823C77.1026 26.1022 78.2546 27.11 79.6139 27.11ZM80.54 15.0529C79.47 15.0529 78.8526 15.7325 78.8526 16.6376C78.8526 17.3371 79.2223 17.9544 80.0665 18.86C81.5277 18.0158 82.1456 17.5017 82.1456 16.5967C82.1456 15.7524 81.6107 15.0529 80.54 15.0529ZM89.659 28.7564C89.9263 29.0447 89.762 29.3326 89.4317 29.3326H86.8177C86.4679 29.3326 86.2827 29.2499 86.0564 28.9821L84.4921 27.2545C83.4426 28.6538 81.98 29.7028 79.5517 29.7028C76.5468 29.7028 74.179 27.8923 74.179 24.786C74.179 22.3986 75.4559 21.1226 77.391 20.0529C76.4433 18.9625 76.012 17.8102 76.012 16.8026C76.012 14.2506 77.8025 12.502 80.4984 12.502C83.2566 12.502 84.9447 14.128 84.9447 16.5348C84.9447 18.5923 83.4631 19.7435 81.8983 20.6083L84.2039 23.0987L85.5004 20.8346C85.6649 20.5675 85.8503 20.4643 86.1791 20.4643H88.1753C88.5051 20.4643 88.6904 20.6912 88.4852 21.0408L86.1794 24.9906L89.659 28.7564ZM69.1177 29.3326C69.3853 29.3326 69.5714 29.1468 69.5714 28.8797V15.6085H74.0784C74.346 15.6085 74.531 15.4236 74.531 15.1561V13.3255C74.531 13.0574 74.346 12.872 74.0784 12.872H62.0781C61.8101 12.872 61.6253 13.0576 61.6253 13.3255V15.156C61.6253 15.4233 61.8102 15.6085 62.0781 15.6085H66.5851V28.8795C66.5851 29.1468 66.771 29.3326 67.0382 29.3326H69.1177Z" fill="white"/>
<path d="M8.20193 37.3371C11.6926 40.0392 16.074 41.6628 20.8277 41.6628C26.0297 41.6628 30.7721 39.7314 34.3915 36.5611C34.4354 36.5223 34.4138 36.4967 34.3705 36.5223C32.7464 37.607 28.1174 39.9747 20.8279 39.9747C14.493 39.9747 10.4896 38.5613 8.22876 37.2994C8.1855 37.278 8.16948 37.3105 8.20193 37.3371ZM22.2253 38.3892C27.2921 38.3892 32.8598 37.008 36.1898 34.2739C37.101 33.529 37.969 32.5375 38.7464 31.2051C39.1939 30.4384 39.6316 29.5276 39.9881 28.6323C40.0039 28.5886 39.977 28.5674 39.9442 28.6164C36.8475 33.1735 27.8803 36.0159 18.6211 36.0159C12.0765 36.0159 5.03447 33.923 2.27748 29.9268C2.25035 29.8899 2.22321 29.9057 2.23973 29.9482C4.80806 35.4071 12.5998 38.3892 22.2253 38.3892ZM16.6894 29.3331C6.15151 29.3331 1.18268 24.4252 0.28134 21.0759C0.270225 21.0274 0.238281 21.038 0.238281 21.0816C0.238281 22.2091 0.351136 23.6642 0.545303 24.6301C0.637931 25.1002 1.02056 25.838 1.58153 26.4261C4.13323 29.0859 10.495 32.8128 21.5125 32.8128C36.5235 32.8128 39.9557 27.8125 40.6565 26.1682C41.1577 24.9922 41.4174 22.8669 41.4174 21.0817C41.4174 20.6497 41.4066 20.3046 41.3902 19.9658C41.3902 19.9109 41.3584 19.9064 41.3474 19.9599C40.5973 23.9836 27.7721 29.3331 16.6894 29.3331ZM2.22321 12.2522C1.61938 13.4506 0.95006 15.4723 0.751086 16.5186C0.663866 16.9669 0.701017 17.1822 0.858233 17.5168C2.12127 20.1966 8.50995 24.4843 23.4122 24.4843C32.5037 24.4843 39.5662 22.2507 40.7104 18.1748C40.9211 17.4244 40.9324 16.6323 40.6617 15.5648C40.3593 14.372 39.7929 12.9809 39.3136 12.0042C39.2978 11.9724 39.2698 11.9771 39.2755 12.0147C39.4536 17.3607 24.5454 20.8061 17.0234 20.8061C8.87565 20.8061 2.07821 17.5598 2.07821 13.4608C2.07821 13.067 2.15972 12.673 2.26146 12.2631C2.27168 12.2256 2.23963 12.2194 2.22321 12.2522ZM34.4249 5.68852C34.5114 5.82411 34.5545 5.9688 34.5545 6.16357C34.5545 8.45032 27.5558 12.4957 16.4148 12.4957C8.22876 12.4957 6.69616 9.4589 6.69616 7.52765C6.69616 6.8373 6.96092 6.13093 7.54402 5.41354C7.57587 5.37088 7.54883 5.35446 7.51208 5.3862C6.44862 6.28744 5.47147 7.30154 4.6143 8.39624C4.20473 8.91395 3.95048 9.37258 3.95048 9.64736C3.95048 13.6496 13.9859 16.5513 23.3693 16.5513C33.3674 16.5513 37.8295 13.2875 37.8295 10.4191C37.8295 9.39401 37.4305 8.79559 36.4097 7.6354C35.7471 6.88066 35.1203 6.26611 34.4569 5.66118C34.4249 5.63475 34.4025 5.65627 34.4249 5.68852ZM31.3598 3.40228C28.2741 1.55273 24.6909 0.500488 20.8279 0.500488C16.9379 0.500488 13.2468 1.58949 10.15 3.48799C9.22113 4.05968 8.69831 4.51781 8.69831 5.10672C8.69831 6.84271 12.7554 8.70927 19.9532 8.70927C27.0763 8.70927 32.6011 6.66476 32.6011 4.69676C32.6011 4.22701 32.1905 3.89836 31.3598 3.40228Z" fill="white"/>
</svg>
