<svg width="72" height="75" viewBox="0 0 72 75" fill="none" xmlns="http://www.w3.org/2000/svg">
<path d="M8.89763 19.595C4.78272 19.595 1.47188 23.0109 1.61377 27.1857C1.75567 30.9811 4.83002 34.0648 8.61384 34.2072C12.776 34.3495 16.1815 31.0285 16.1815 26.9011V24.1969C16.1815 21.635 18.2153 19.595 20.7694 19.595H23.3708C27.3438 19.595 30.6546 16.4639 30.7492 12.5262C30.8911 8.39873 27.5803 5.03035 23.5126 4.98291C19.445 4.93547 16.1815 8.35129 16.1815 12.4313V15.4676C16.1815 17.7448 14.3369 19.595 12.0666 19.595H8.89763Z" fill="#66FF66"/>
<path d="M16.1815 47.5385C16.1815 43.4111 12.776 40.0901 8.61384 40.2324C4.83002 40.3748 1.75567 43.4585 1.61377 47.2538C1.47188 51.4287 4.78272 54.8446 8.89763 54.8446H11.5936C14.1477 54.8446 16.1815 56.8846 16.1815 59.4464V62.0557C16.1815 66.0409 19.3031 69.3618 23.2289 69.4567C27.3438 69.599 30.7019 66.2781 30.7492 62.1981C30.7965 58.1181 27.3911 54.8446 23.3235 54.8446H20.2964C18.0261 54.8446 16.1815 52.9943 16.1815 50.7171V47.5385Z" fill="#66FF66"/>
<path d="M28.6207 56.9793C25.6883 54.0379 20.9585 54.1328 18.1206 57.1691C15.5666 59.9682 15.5666 64.3328 18.1206 67.0845C20.9585 70.1207 25.6883 70.2156 28.6207 67.2742L30.5127 65.3765C32.31 63.5737 35.1951 63.5737 36.9925 65.3765L38.8371 67.2268C41.6276 70.0259 46.1682 70.1682 49.0534 67.464C52.0332 64.6175 52.1277 59.9207 49.2426 57.0268C46.4047 54.1328 41.6749 54.1802 38.8371 57.0742L36.7087 59.2091C35.1005 60.8221 32.4992 60.8221 30.891 59.2091L28.6207 56.9793Z" fill="#66FF66"/>
<path d="M44.0402 54.845C39.9253 54.845 36.6145 58.2609 36.7563 62.4357C36.8982 66.2311 39.9726 69.3148 43.7564 69.4572C47.9186 69.5995 51.3241 66.2785 51.3241 62.1511V59.4469C51.3241 56.885 53.3579 54.845 55.912 54.845H58.5133C62.4863 54.845 65.7972 51.7139 65.8918 47.7762C66.0337 43.6487 62.7228 40.2804 58.6552 40.2329C54.5876 40.1855 51.3241 43.6013 51.3241 47.6813V50.7176C51.3241 52.9948 49.4795 54.845 47.2092 54.845H44.0402Z" fill="#66FF66"/>
<path d="M3.7411 42.4148C0.808638 45.3562 0.903234 50.1004 3.93029 52.9469C6.72086 55.5088 11.0723 55.5088 13.8155 52.9469C16.8426 50.1004 16.9372 45.3562 14.0047 42.4148L12.1128 40.5172C10.3155 38.7144 10.3155 35.8204 12.1128 34.0176L13.9574 32.1674C16.748 29.3683 16.8899 24.8139 14.1939 21.9199C11.356 18.9311 6.67357 18.8362 3.7884 21.7301C0.903236 24.5767 0.950534 29.3208 3.8357 32.1674L5.9641 34.3023C7.57222 35.9153 7.57222 38.5246 5.9641 40.1376L3.7411 42.4148Z" fill="#66FF66"/>
<path d="M53.4501 42.4148C50.5176 45.3562 50.6122 50.1004 53.6393 52.9469C56.4298 55.5088 60.7812 55.5088 63.5245 52.9469C66.5516 50.1004 66.6462 45.3562 63.7137 42.4148L61.8218 40.5172C60.0245 38.7144 60.0245 35.8204 61.8218 34.0176L63.6664 32.1674C66.457 29.3683 66.5989 24.8139 63.9029 21.9199C61.065 18.9311 56.3825 18.8362 53.4974 21.7301C50.6122 24.5767 50.6595 29.3208 53.5447 32.1674L55.6731 34.3023C57.2812 35.9153 57.2812 38.5246 55.6731 40.1376L53.4501 42.4148Z" fill="#66FF66"/>
<path d="M44.0397 19.5955C48.0625 19.5955 51.3236 16.3245 51.3236 12.2895C51.3236 8.25443 48.0625 4.9834 44.0397 4.9834C40.017 4.9834 36.7559 8.25443 36.7559 12.2895C36.7559 16.3245 40.017 19.5955 44.0397 19.5955Z" fill="#66FF66"/>
</svg>
