<svg xmlns="http://www.w3.org/2000/svg" width="158" height="31" viewBox="0 0 158 31" fill="none">
  <!-- Icon -->
  <g>
    <path d="M3.47745 6.96817C1.51659 6.96817 -0.0611263 8.59701 0.00648966 10.5879C0.0741056 12.3978 1.53913 13.8682 3.34222 13.936C5.32563 14.0039 6.94843 12.4203 6.94843 10.4522V9.16261C6.94843 7.94096 7.91758 6.96817 9.13468 6.96817H10.3743C12.2676 6.96817 13.8453 5.47505 13.8903 3.59731C13.9579 1.6291 12.3802 0.0228587 10.4419 0.000232685C8.5036 -0.0223819 6.94843 1.60649 6.94843 3.55207V4.99996C6.94843 6.08587 6.06942 6.96817 4.98755 6.96817H3.47745Z" fill="#1DF26D"/>
    <path d="M6.94843 20.2937C6.94843 18.3254 5.32563 16.7419 3.34222 16.8097C1.53913 16.8776 0.0741056 18.3481 0.00648966 20.158C-0.0611263 22.1488 1.51659 23.7777 3.47745 23.7777H4.76217C5.97926 23.7777 6.94843 24.7505 6.94843 25.9721V27.2163C6.94843 29.1167 8.43599 30.7003 10.3067 30.7456C12.2676 30.8135 13.8678 29.2298 13.8903 27.2842C13.9129 25.3386 12.2901 23.7777 10.3518 23.7777H8.90929C7.82743 23.7777 6.94843 22.8954 6.94843 21.8094V20.2937Z" fill="#1DF26D"/>
    <path d="M12.8766 24.7953C11.4792 23.3927 9.22536 23.4379 7.87302 24.8859C6.65593 26.2205 6.65593 28.3018 7.87302 29.6141C9.22536 31.0619 11.4792 31.1072 12.8766 29.7045L13.7781 28.7996C14.6346 27.94 16.0095 27.94 16.866 28.7996L17.7449 29.682C19.0748 31.0166 21.2385 31.0845 22.6134 29.795C24.0333 28.4377 24.0784 26.198 22.7035 24.818C21.3512 23.4379 19.0973 23.4605 17.7449 24.8405L16.7307 25.8586C15.9645 26.6278 14.7249 26.6278 13.9585 25.8586L12.8766 24.7953Z" fill="#1DF26D"/>
    <path d="M20.2239 23.7773C18.2629 23.7773 16.6852 25.4061 16.7528 27.397C16.8205 29.2068 18.2855 30.6772 20.0886 30.7451C22.072 30.813 23.6948 29.2294 23.6948 27.2612V25.9717C23.6948 24.7501 24.6639 23.7773 25.881 23.7773H27.1206C29.014 23.7773 30.5917 22.2841 30.6367 20.4064C30.7043 18.4381 29.1266 16.8319 27.1883 16.8093C25.2499 16.7867 23.6948 18.4156 23.6948 20.3612V21.809C23.6948 22.8949 22.8158 23.7773 21.734 23.7773H20.2239Z" fill="#1DF26D"/>
    <path d="M1.02048 17.85C-0.376919 19.2527 -0.331842 21.515 1.11063 22.8724C2.44042 24.0941 4.51399 24.0941 5.82123 22.8724C7.26372 21.515 7.30879 19.2527 5.91139 17.85L5.00985 16.9451C4.15336 16.0855 4.15336 14.7054 5.00985 13.8458L5.88886 12.9635C7.21864 11.6287 7.28625 9.45686 6.00154 8.07684C4.64923 6.65159 2.41788 6.60633 1.04302 7.98635C-0.331841 9.34379 -0.309302 11.606 1.06556 12.9635L2.0798 13.9815C2.84612 14.7507 2.84612 15.9949 2.0798 16.7641L1.02048 17.85Z" fill="#1DF26D"/>
    <path d="M24.7092 17.85C23.3118 19.2527 23.3569 21.515 24.7994 22.8724C26.1292 24.0941 28.2027 24.0941 29.51 22.8724C30.9524 21.515 30.9976 19.2527 29.6001 17.85L28.6986 16.9451C27.8421 16.0855 27.8421 14.7054 28.6986 13.8458L29.5776 12.9635C30.9074 11.6287 30.9751 9.45686 29.6903 8.07684C28.338 6.65159 26.1067 6.60633 24.7318 7.98635C23.3569 9.34379 23.3795 11.606 24.7543 12.9635L25.7685 13.9815C26.5349 14.7507 26.5349 15.9949 25.7685 16.7641L24.7092 17.85Z" fill="#1DF26D"/>
    <path d="M20.2238 6.96841C22.1408 6.96841 23.6948 5.40859 23.6948 3.48445C23.6948 1.56031 22.1408 0.000488281 20.2238 0.000488281C18.3068 0.000488281 16.7529 1.56031 16.7529 3.48445C16.7529 5.40859 18.3068 6.96841 20.2238 6.96841Z" fill="#1DF26D"/>
  </g>
  <!-- Text, offset by 39 (31 + 8) horizontally and 1.5 vertically to center -->
  <g transform="translate(39, 1.5)">
    <path d="M10.4806 27.8264C7.28002 27.8264 4.73319 26.899 2.83996 25.0665C0.946615 23.2114 0 20.5418 0 17.0126V10.8139C0 7.30726 0.946615 4.61512 2.83996 2.76002C4.73319 0.904927 7.28002 0 10.4806 0C13.6585 0 16.0927 0.882301 17.7831 2.6469C19.4735 4.41151 20.33 6.83219 20.33 9.8863V10.0672H16.859V9.79578C16.859 7.85019 16.3406 6.26661 15.3039 5.02234C14.267 3.77807 12.6443 3.14462 10.4806 3.14462C8.29434 3.14462 6.58135 3.82331 5.36426 5.15807C4.12464 6.49285 3.51609 8.37058 3.51609 10.746V17.0805C3.51609 19.456 4.12464 21.311 5.36426 22.6684C6.60388 24.0258 8.29434 24.7045 10.4806 24.7045C12.6668 24.7045 14.267 24.071 15.3039 22.8267C16.3406 21.5825 16.859 19.9762 16.859 18.0533V17.4424H20.33V17.9401C20.33 20.9942 19.4735 23.415 17.7831 25.1795C16.0927 26.9442 13.6585 27.8264 10.4806 27.8264Z" fill="black"/>
    <path d="M51.0493 27.3062V0.542969H67.5703V3.7102H54.5203V12.2844H66.1954V15.4516H54.5203V24.1162H67.7731V27.2835H51.0493V27.3062Z" fill="black"/>
    <path d="M42.1019 0.542969L35.3404 12.8499H34.4613L27.7448 0.542969H23.7329L33.1541 17.2841V27.3062H36.6476V17.2841L46.0462 0.542969H42.1019Z" fill="black"/>
    <path d="M110.709 0.542969H104.331L96.3071 27.2835H99.9131L101.852 20.6776H113.143L115.126 27.2835H118.71L110.709 0.542969ZM102.753 17.4877L106.832 3.73283H108.207L112.286 17.4877H102.753Z" fill="black"/>
    <path d="M77.3759 16.4471V27.3062H73.9048V0.542969H84.7915C86.4361 0.542969 87.9011 0.837062 89.1409 1.40264C90.4035 1.96823 91.3721 2.78266 92.0938 3.84595C92.8143 4.90923 93.1528 6.17613 93.1528 7.64662V8.07648C93.1528 9.81846 92.7468 11.1758 91.9131 12.1939C91.0794 13.2119 90.1107 13.9132 88.9602 14.2979V14.8408H89.8396C91.6649 14.8408 93.13 16.3339 93.13 18.1664V27.3062H89.6589V18.6415C89.6589 17.4424 88.6902 16.4471 87.4734 16.4471H77.3759ZM77.3759 13.2798H84.453C86.0987 13.2798 87.383 12.8726 88.3071 12.0582C89.2312 11.2437 89.6818 10.1126 89.6818 8.66473V8.39315C89.6818 6.92274 89.2312 5.76892 88.3517 4.95448C87.4734 4.14005 86.1662 3.73283 84.4758 3.73283H77.3988V13.2798H77.3759Z" fill="black"/>
  </g>
</svg>
