<?xml version="1.0" encoding="utf-8"?>
<!-- Generator: Adobe Illustrator 18.1.1, SVG Export Plug-In . SVG Version: 6.00 Build 0)  -->
<!DOCTYPE svg PUBLIC "-//W3C//DTD SVG 1.1//EN" "http://www.w3.org/Graphics/SVG/1.1/DTD/svg11.dtd">
<svg version="1.1" xmlns="http://www.w3.org/2000/svg" xmlns:xlink="http://www.w3.org/1999/xlink" x="0px" y="0px"
	 viewBox="0 0 526.3 526.3" enable-background="new 0 0 526.3 526.3" xml:space="preserve">
<g id="bg">
	<circle fill="#006FBA" stroke="#FFFFFF" stroke-width="3" stroke-miterlimit="10" cx="263.2" cy="263.2" r="191"/>
	<g>
		<path stroke="#FFFFFF" stroke-width="3" stroke-miterlimit="10" d="M72.3,270.1C76,372.4,160,454.2,263.2,454.2
			c103.2,0,187.2-81.8,190.9-184.1H72.3z"/>
	</g>
</g>
<g id="top">
	<circle fill="#FFFFFF" stroke="#FFFFFF" stroke-width="3" stroke-miterlimit="10" cx="263.2" cy="262.2" r="141.1"/>
	<g>
		<path fill="#231F20" d="M219.1,312.7c-1-1.4-2.3-2.4-3.9-3.1c-1.6-0.7-3.3-1-5.1-1c-1.1,0-2.1,0.1-3.1,0.4c-1,0.2-1.9,0.6-2.7,1.2
			c-0.8,0.5-1.4,1.2-1.9,2.1c-0.5,0.8-0.7,1.9-0.7,3c0,1.7,0.6,3.1,1.8,4c1.2,0.9,2.7,1.7,4.5,2.4c1.8,0.7,3.8,1.3,5.9,2
			c2.1,0.6,4.1,1.5,5.9,2.6c1.8,1.1,3.3,2.6,4.5,4.4c1.2,1.8,1.8,4.3,1.8,7.3c0,2.8-0.5,5.2-1.5,7.2c-1,2.1-2.4,3.8-4.1,5.1
			c-1.7,1.4-3.7,2.4-6,3.1c-2.3,0.7-4.7,1-7.2,1c-3.2,0-6.3-0.5-9.2-1.6c-3-1.1-5.5-2.9-7.6-5.4l6.9-6.7c1.1,1.7,2.6,3,4.4,4
			c1.8,0.9,3.7,1.4,5.8,1.4c1.1,0,2.1-0.1,3.2-0.4c1.1-0.3,2-0.7,2.9-1.3c0.9-0.6,1.6-1.3,2.1-2.2c0.5-0.9,0.8-1.9,0.8-3.1
			c0-1.9-0.6-3.3-1.8-4.4c-1.2-1-2.7-1.9-4.5-2.6c-1.8-0.7-3.8-1.4-5.9-2c-2.1-0.6-4.1-1.5-5.9-2.6c-1.8-1.1-3.3-2.5-4.5-4.4
			c-1.2-1.8-1.8-4.3-1.8-7.3c0-2.7,0.5-5,1.6-6.9c1.1-1.9,2.5-3.6,4.3-4.8c1.8-1.3,3.8-2.2,6.1-2.9c2.3-0.6,4.6-0.9,7-0.9
			c2.7,0,5.3,0.4,7.9,1.2c2.5,0.8,4.8,2.2,6.9,4.1L219.1,312.7z"/>
		<path fill="#231F20" d="M232.3,327.6c0-4.1,0.7-7.9,2-11.2c1.4-3.4,3.2-6.2,5.6-8.6c2.4-2.4,5.3-4.2,8.6-5.5c3.3-1.3,7-1.9,11-1.9
			c4,0,7.7,0.5,11.1,1.8c3.3,1.2,6.2,3,8.7,5.4c2.4,2.4,4.3,5.2,5.7,8.6c1.4,3.3,2,7.1,2,11.2c0,4-0.7,7.7-2,11
			c-1.4,3.3-3.3,6.1-5.7,8.5c-2.4,2.4-5.3,4.2-8.7,5.6c-3.3,1.3-7,2-11.1,2.1c-4,0-7.6-0.6-11-1.9c-3.3-1.3-6.2-3.1-8.6-5.5
			c-2.4-2.4-4.3-5.2-5.6-8.5C233,335.3,232.3,331.6,232.3,327.6z M241.9,327c0,2.8,0.4,5.3,1.3,7.6c0.8,2.3,2,4.3,3.6,6
			c1.6,1.7,3.4,3,5.6,4c2.2,1,4.6,1.5,7.2,1.5c2.7,0,5.1-0.5,7.3-1.5c2.2-1,4-2.3,5.6-4s2.8-3.7,3.6-6c0.8-2.3,1.3-4.9,1.3-7.6
			c0-2.6-0.4-5-1.3-7.2c-0.8-2.2-2-4.2-3.6-5.9s-3.4-3-5.6-3.9s-4.6-1.4-7.3-1.4c-2.7,0-5.1,0.5-7.2,1.4c-2.2,0.9-4,2.3-5.6,3.9
			c-1.6,1.7-2.8,3.6-3.6,5.9C242.3,322.1,241.9,324.5,241.9,327z"/>
		<path fill="#231F20" d="M330.5,313.7c-1.9-2-3.7-3.4-5.5-4.1c-1.8-0.7-3.6-1-5.3-1c-2.7,0-5.1,0.5-7.2,1.4s-4,2.3-5.6,3.9
			s-2.8,3.6-3.6,5.9c-0.8,2.2-1.3,4.6-1.3,7.2c0,2.8,0.4,5.3,1.3,7.6c0.8,2.3,2,4.3,3.6,6s3.4,3,5.6,4c2.2,1,4.6,1.5,7.2,1.5
			c2.1,0,4.1-0.5,6.1-1.5c2-1,3.8-2.6,5.5-4.8l7.6,5.4c-2.3,3.2-5.2,5.5-8.5,7c-3.3,1.5-6.9,2.2-10.7,2.2c-4,0-7.6-0.6-11-1.9
			c-3.3-1.3-6.2-3.1-8.6-5.5c-2.4-2.4-4.3-5.2-5.6-8.5c-1.4-3.3-2-7-2-11c0-4.1,0.7-7.9,2-11.2c1.4-3.4,3.2-6.2,5.6-8.6
			s5.3-4.2,8.6-5.5c3.3-1.3,7-1.9,11-1.9c3.5,0,6.7,0.6,9.7,1.9c3,1.2,5.8,3.3,8.3,6.3L330.5,313.7z"/>
		<path fill="#231F20" d="M191.1,366c0.6-0.6,1.3-1.1,2.1-1.4c0.8-0.3,1.7-0.4,2.5-0.4c1.7,0,3,0.4,3.7,1.2c0.8,0.8,1.1,2,1.1,3.7v5
			c0,0.3,0,0.7,0,1c0,0.4,0.1,0.7,0.1,1h-1.9c-0.1-0.3-0.1-0.6-0.1-0.9s0-0.6,0-0.9h0c-0.4,0.6-0.9,1.1-1.5,1.5
			c-0.6,0.4-1.4,0.6-2.3,0.6c-0.6,0-1.2-0.1-1.7-0.2c-0.5-0.1-1-0.4-1.4-0.7c-0.4-0.3-0.7-0.7-0.9-1.1c-0.2-0.4-0.3-0.9-0.3-1.5
			c0-1,0.2-1.7,0.7-2.3c0.5-0.5,1.1-1,1.9-1.2c0.7-0.3,1.5-0.4,2.4-0.5c0.9-0.1,1.6-0.1,2.4-0.1h0.7v-0.3c0-0.8-0.3-1.5-0.8-1.9
			c-0.5-0.4-1.2-0.6-2.1-0.6c-0.6,0-1.2,0.1-1.9,0.3c-0.6,0.2-1.1,0.5-1.6,1L191.1,366z M196.7,370.6c-1.2,0-2.2,0.2-3,0.5
			c-0.7,0.3-1.1,0.9-1.1,1.7c0,0.7,0.2,1.2,0.7,1.6c0.5,0.3,1.1,0.5,1.8,0.5c0.6,0,1.1-0.1,1.5-0.3c0.4-0.2,0.8-0.4,1.1-0.8
			s0.5-0.7,0.6-1.1c0.1-0.4,0.2-0.9,0.2-1.4v-0.7H196.7z"/>
		<path fill="#231F20" d="M203.7,360c0-0.4,0.1-0.7,0.4-1s0.6-0.4,1-0.4c0.4,0,0.7,0.1,1,0.4c0.3,0.3,0.4,0.6,0.4,1
			c0,0.4-0.1,0.8-0.4,1c-0.3,0.3-0.6,0.4-1,0.4c-0.4,0-0.8-0.1-1-0.4S203.7,360.4,203.7,360z M204.2,364.5h1.9v11.6h-1.9V364.5z"/>
		<path fill="#231F20" d="M218.1,367.4c-0.4-0.5-0.9-0.9-1.3-1.1c-0.5-0.2-1-0.3-1.6-0.3c-0.6,0-1.2,0.1-1.7,0.3
			c-0.5,0.2-0.9,0.5-1.2,0.9s-0.6,0.9-0.7,1.4c-0.2,0.5-0.2,1.1-0.2,1.7c0,0.6,0.1,1.2,0.3,1.7c0.2,0.5,0.5,1,0.8,1.4
			c0.3,0.4,0.8,0.7,1.2,0.9c0.5,0.2,1,0.3,1.6,0.3c1.3,0,2.3-0.5,3-1.4l1.4,1.4c-0.6,0.6-1.2,1.1-2,1.4s-1.6,0.4-2.4,0.4
			c-0.9,0-1.7-0.1-2.5-0.4c-0.7-0.3-1.4-0.7-1.9-1.3c-0.5-0.5-0.9-1.2-1.2-1.9c-0.3-0.7-0.4-1.6-0.4-2.5c0-0.9,0.1-1.7,0.4-2.4
			c0.3-0.7,0.7-1.4,1.2-1.9c0.5-0.5,1.2-1,1.9-1.3c0.7-0.3,1.6-0.5,2.5-0.5c0.9,0,1.7,0.1,2.5,0.4c0.8,0.3,1.4,0.8,2,1.4
			L218.1,367.4z"/>
		<path fill="#231F20" d="M221.5,364.5h1.9v1.7h0c0.5-0.6,1.1-1.1,1.9-1.5c0.7-0.3,1.5-0.5,2.3-0.5c0.9,0,1.7,0.2,2.5,0.5
			c0.8,0.3,1.4,0.7,1.9,1.3s0.9,1.2,1.2,1.9c0.3,0.7,0.4,1.6,0.4,2.4c0,0.9-0.1,1.7-0.4,2.4c-0.3,0.7-0.7,1.4-1.2,1.9
			c-0.5,0.5-1.1,1-1.9,1.3c-0.7,0.3-1.5,0.5-2.3,0.5c-1,0-2-0.2-2.8-0.7s-1.4-1-1.7-1.7h0v7.7h-1.9V364.5z M223.4,370.3
			c0,0.6,0.1,1.2,0.3,1.7c0.2,0.5,0.5,1,0.8,1.4c0.4,0.4,0.8,0.7,1.3,0.9c0.5,0.2,1.1,0.3,1.7,0.3c0.6,0,1.2-0.1,1.7-0.3
			c0.5-0.2,0.9-0.5,1.3-0.9c0.4-0.4,0.6-0.8,0.8-1.4c0.2-0.5,0.3-1.1,0.3-1.7c0-0.6-0.1-1.2-0.3-1.7s-0.5-1-0.8-1.4
			c-0.4-0.4-0.8-0.7-1.3-0.9c-0.5-0.2-1.1-0.3-1.7-0.3c-0.6,0-1.2,0.1-1.7,0.3c-0.5,0.2-0.9,0.5-1.3,0.9c-0.4,0.4-0.6,0.8-0.8,1.4
			S223.4,369.7,223.4,370.3z"/>
		<path fill="#231F20" d="M236.4,366c0.6-0.6,1.3-1.1,2.1-1.4c0.8-0.3,1.7-0.4,2.5-0.4c1.7,0,3,0.4,3.7,1.2c0.8,0.8,1.1,2,1.1,3.7v5
			c0,0.3,0,0.7,0,1c0,0.4,0.1,0.7,0.1,1h-1.9c-0.1-0.3-0.1-0.6-0.1-0.9s0-0.6,0-0.9h0c-0.4,0.6-0.9,1.1-1.5,1.5
			c-0.6,0.4-1.4,0.6-2.3,0.6c-0.6,0-1.2-0.1-1.7-0.2c-0.5-0.1-1-0.4-1.4-0.7c-0.4-0.3-0.7-0.7-0.9-1.1c-0.2-0.4-0.3-0.9-0.3-1.5
			c0-1,0.2-1.7,0.7-2.3c0.5-0.5,1.1-1,1.9-1.2c0.7-0.3,1.5-0.4,2.4-0.5c0.9-0.1,1.6-0.1,2.4-0.1h0.7v-0.3c0-0.8-0.3-1.5-0.8-1.9
			c-0.5-0.4-1.2-0.6-2.1-0.6c-0.6,0-1.2,0.1-1.9,0.3c-0.6,0.2-1.1,0.5-1.6,1L236.4,366z M242,370.6c-1.2,0-2.2,0.2-3,0.5
			c-0.7,0.3-1.1,0.9-1.1,1.7c0,0.7,0.2,1.2,0.7,1.6c0.5,0.3,1.1,0.5,1.8,0.5c0.6,0,1.1-0.1,1.5-0.3c0.4-0.2,0.8-0.4,1.1-0.8
			s0.5-0.7,0.6-1.1c0.1-0.4,0.2-0.9,0.2-1.4v-0.7H242z"/>
		<path fill="#231F20" d="M250.9,373.3c0.4,0,0.8,0.1,1.1,0.4c0.3,0.3,0.4,0.6,0.4,1.1c0,0.4-0.2,0.8-0.5,1.1
			c-0.3,0.3-0.7,0.4-1,0.4s-0.7-0.1-1-0.4c-0.3-0.3-0.5-0.6-0.5-1.1c0-0.4,0.1-0.8,0.4-1.1C250.1,373.5,250.5,373.3,250.9,373.3z"/>
		<path fill="#231F20" d="M255.3,370.3c0-0.9,0.2-1.7,0.5-2.5c0.3-0.7,0.7-1.4,1.3-1.9c0.5-0.5,1.2-1,2-1.3c0.8-0.3,1.6-0.4,2.5-0.4
			c0.9,0,1.7,0.1,2.5,0.4c0.8,0.3,1.4,0.7,2,1.3c0.5,0.5,1,1.2,1.3,1.9c0.3,0.7,0.5,1.6,0.5,2.5c0,0.9-0.2,1.7-0.5,2.5
			c-0.3,0.7-0.7,1.4-1.3,1.9c-0.5,0.5-1.2,1-2,1.3c-0.8,0.3-1.6,0.4-2.5,0.4c-0.9,0-1.7-0.1-2.5-0.4c-0.8-0.3-1.4-0.7-2-1.3
			c-0.5-0.5-1-1.2-1.3-1.9C255.5,372.1,255.3,371.2,255.3,370.3z M257.4,370.3c0,0.6,0.1,1.2,0.3,1.7c0.2,0.5,0.5,1,0.8,1.4
			c0.4,0.4,0.8,0.7,1.3,0.9c0.5,0.2,1.1,0.3,1.7,0.3c0.6,0,1.2-0.1,1.7-0.3c0.5-0.2,0.9-0.5,1.3-0.9c0.4-0.4,0.6-0.8,0.8-1.4
			c0.2-0.5,0.3-1.1,0.3-1.7c0-0.6-0.1-1.2-0.3-1.7s-0.5-1-0.8-1.4c-0.4-0.4-0.8-0.7-1.3-0.9c-0.5-0.2-1.1-0.3-1.7-0.3
			c-0.6,0-1.2,0.1-1.7,0.3c-0.5,0.2-0.9,0.5-1.3,0.9c-0.4,0.4-0.6,0.8-0.8,1.4C257.5,369.1,257.4,369.7,257.4,370.3z"/>
		<path fill="#231F20" d="M270.6,367.3c0-0.5,0-1,0-1.5s0-0.9,0-1.3h1.8c0,0.3,0,0.6,0,0.9c0,0.3,0,0.6,0,1h0
			c0.1-0.3,0.3-0.6,0.6-0.8c0.2-0.3,0.5-0.5,0.9-0.7c0.3-0.2,0.7-0.4,1.1-0.5c0.4-0.1,0.9-0.2,1.3-0.2c0.1,0,0.3,0,0.4,0
			s0.3,0,0.4,0.1l-0.1,2c-0.3-0.1-0.7-0.1-1-0.1c-1.2,0-2.1,0.4-2.6,1.2s-0.8,1.8-0.8,3.2v5.7h-1.9V367.3z"/>
		<path fill="#231F20" d="M290.3,375.6c0,2.1-0.5,3.7-1.6,4.8c-1.1,1.1-2.7,1.7-4.7,1.7c-1.1,0-2.2-0.2-3.1-0.5s-1.8-0.9-2.6-1.7
			l1.4-1.6c0.6,0.7,1.3,1.2,2,1.5c0.7,0.3,1.5,0.5,2.4,0.5c0.9,0,1.6-0.1,2.2-0.4c0.6-0.3,1-0.6,1.4-1c0.3-0.4,0.6-0.9,0.7-1.5
			c0.1-0.6,0.2-1.2,0.2-1.8v-1.5h0c-0.5,0.7-1.1,1.3-1.8,1.6c-0.7,0.3-1.5,0.5-2.3,0.5c-0.9,0-1.8-0.1-2.5-0.4
			c-0.8-0.3-1.4-0.7-2-1.2s-1-1.2-1.3-1.9c-0.3-0.7-0.4-1.5-0.4-2.4c0-0.9,0.1-1.8,0.4-2.6s0.7-1.4,1.3-1.9c0.5-0.5,1.2-0.9,2-1.2
			s1.6-0.4,2.5-0.4c0.4,0,0.8,0,1.2,0.1c0.4,0.1,0.8,0.2,1.2,0.4c0.4,0.2,0.7,0.4,1,0.7c0.3,0.3,0.5,0.6,0.7,1h0v-2h1.9V375.6z
			 M280.1,370.3c0,0.6,0.1,1.1,0.3,1.7c0.2,0.5,0.5,0.9,0.9,1.3c0.4,0.4,0.8,0.7,1.3,0.9c0.5,0.2,1,0.3,1.6,0.3
			c0.7,0,1.3-0.1,1.8-0.3c0.5-0.2,1-0.5,1.3-0.9s0.6-0.8,0.8-1.3c0.2-0.5,0.3-1,0.3-1.6c0-0.6-0.1-1.2-0.3-1.7
			c-0.2-0.5-0.5-1-0.8-1.4s-0.8-0.7-1.3-0.9c-0.5-0.2-1.1-0.3-1.7-0.3s-1.2,0.1-1.7,0.3c-0.5,0.2-0.9,0.5-1.3,0.9
			c-0.4,0.4-0.6,0.8-0.8,1.4S280.1,369.7,280.1,370.3z"/>
		<path fill="#231F20" d="M293.5,377.2l-1.6-0.6l7.5-19.1l1.6,0.6L293.5,377.2z"/>
		<path fill="#231F20" d="M303,373.1c0.4,0.5,0.8,0.9,1.3,1.1c0.5,0.3,1,0.4,1.7,0.4c0.3,0,0.6,0,0.9-0.1c0.3-0.1,0.6-0.2,0.8-0.3
			s0.4-0.3,0.6-0.6c0.1-0.2,0.2-0.5,0.2-0.8c0-0.3-0.1-0.6-0.2-0.8c-0.1-0.2-0.3-0.4-0.6-0.5c-0.2-0.1-0.5-0.3-0.8-0.3
			c-0.3-0.1-0.6-0.2-0.9-0.2c-0.5-0.1-1.1-0.2-1.6-0.4c-0.5-0.1-0.9-0.3-1.3-0.6c-0.4-0.2-0.7-0.6-0.9-0.9c-0.2-0.4-0.3-0.9-0.3-1.5
			c0-0.6,0.1-1.1,0.4-1.5s0.6-0.8,1-1.1c0.4-0.3,0.9-0.5,1.4-0.6s1-0.2,1.6-0.2c0.8,0,1.6,0.2,2.3,0.5c0.7,0.3,1.3,0.9,1.7,1.6
			l-1.6,1.1c-0.2-0.4-0.6-0.8-1-1c-0.4-0.3-0.9-0.4-1.5-0.4c-0.3,0-0.5,0-0.8,0.1c-0.3,0.1-0.5,0.2-0.7,0.3
			c-0.2,0.1-0.4,0.3-0.5,0.5c-0.1,0.2-0.2,0.4-0.2,0.7c0,0.2,0.1,0.5,0.2,0.6c0.2,0.2,0.4,0.3,0.6,0.5c0.3,0.1,0.6,0.2,0.9,0.3
			c0.4,0.1,0.7,0.2,1.1,0.2c0.5,0.1,1,0.2,1.5,0.4c0.5,0.2,0.9,0.4,1.2,0.6c0.3,0.3,0.6,0.6,0.8,1s0.3,0.9,0.3,1.5
			c0,0.7-0.1,1.2-0.4,1.7c-0.3,0.5-0.6,0.8-1.1,1.1c-0.4,0.3-0.9,0.5-1.5,0.6s-1.1,0.2-1.7,0.2c-1,0-1.9-0.2-2.6-0.5
			c-0.7-0.3-1.4-0.9-2-1.7L303,373.1z"/>
		<path fill="#231F20" d="M312.5,370.3c0-0.9,0.2-1.7,0.5-2.5c0.3-0.7,0.7-1.4,1.3-1.9s1.2-1,2-1.3c0.8-0.3,1.6-0.4,2.5-0.4
			c0.9,0,1.7,0.1,2.5,0.4c0.8,0.3,1.4,0.7,2,1.3c0.5,0.5,1,1.2,1.3,1.9c0.3,0.7,0.5,1.6,0.5,2.5c0,0.9-0.2,1.7-0.5,2.5
			c-0.3,0.7-0.7,1.4-1.3,1.9c-0.5,0.5-1.2,1-2,1.3c-0.8,0.3-1.6,0.4-2.5,0.4c-0.9,0-1.7-0.1-2.5-0.4c-0.8-0.3-1.4-0.7-2-1.3
			s-1-1.2-1.3-1.9C312.6,372.1,312.5,371.2,312.5,370.3z M314.6,370.3c0,0.6,0.1,1.2,0.3,1.7c0.2,0.5,0.5,1,0.8,1.4
			c0.4,0.4,0.8,0.7,1.3,0.9c0.5,0.2,1.1,0.3,1.7,0.3c0.6,0,1.2-0.1,1.7-0.3c0.5-0.2,0.9-0.5,1.3-0.9c0.4-0.4,0.6-0.8,0.8-1.4
			c0.2-0.5,0.3-1.1,0.3-1.7c0-0.6-0.1-1.2-0.3-1.7c-0.2-0.5-0.5-1-0.8-1.4c-0.4-0.4-0.8-0.7-1.3-0.9c-0.5-0.2-1.1-0.3-1.7-0.3
			c-0.6,0-1.2,0.1-1.7,0.3c-0.5,0.2-0.9,0.5-1.3,0.9c-0.4,0.4-0.6,0.8-0.8,1.4C314.7,369.1,314.6,369.7,314.6,370.3z"/>
		<path fill="#231F20" d="M336,367.4c-0.4-0.5-0.9-0.9-1.3-1.1c-0.5-0.2-1-0.3-1.6-0.3c-0.6,0-1.2,0.1-1.7,0.3
			c-0.5,0.2-0.9,0.5-1.2,0.9s-0.6,0.9-0.7,1.4c-0.2,0.5-0.2,1.1-0.2,1.7c0,0.6,0.1,1.2,0.3,1.7c0.2,0.5,0.5,1,0.8,1.4
			c0.3,0.4,0.8,0.7,1.2,0.9c0.5,0.2,1,0.3,1.6,0.3c1.3,0,2.3-0.5,3-1.4l1.4,1.4c-0.6,0.6-1.2,1.1-2,1.4s-1.6,0.4-2.4,0.4
			c-0.9,0-1.7-0.1-2.5-0.4s-1.4-0.7-1.9-1.3s-0.9-1.2-1.2-1.9s-0.4-1.6-0.4-2.5c0-0.9,0.1-1.7,0.4-2.4c0.3-0.7,0.7-1.4,1.2-1.9
			s1.2-1,1.9-1.3c0.7-0.3,1.6-0.5,2.5-0.5c0.9,0,1.7,0.1,2.5,0.4c0.8,0.3,1.4,0.8,2,1.4L336,367.4z"/>
	</g>
	<g>
		<path fill="#006FBA" d="M178.7,175.5l-27.4,54.7h8.1l8.6-17.1h22.7l8.7,17.1h7.9l-27.8-56.3L178.7,175.5z M171.4,206.4l8.1-16
			l8,16H171.4z M211.6,176.6v53.6h7.2v-53.6H211.6z"/>
		<path fill="#006FBA" d="M347.8,173.9l-0.8,1.5l-27.4,54.7h8.1l8.6-17.1H359l8.7,17.1h7.9L347.8,173.9z M339.7,206.4l8.1-16l8,16
			H339.7z M276.4,216.5c-4.9,5.5-10.9,8.2-18.2,8.2c-6.7,0-12.1-2-16.4-6.1c-4.3-4.1-6.5-9-6.5-15c0-4,1-7.6,2.9-10.7
			c1.9-3.2,4.6-5.7,8.2-7.6c3.5-1.9,7.3-2.8,11.5-2.9c3.8,0,7.3,0.7,10.4,2.2c3.2,1.4,5.8,3.6,8.1,6.4l0.5,0.6l5.6-4.1l-0.5-0.7
			c-2.7-3.5-6.1-6.3-10.2-8.2c-4.2-2-8.8-2.9-13.9-2.9c-8.5,0-15.6,2.6-21.3,7.9c-5.7,5.3-8.5,11.9-8.5,19.6c0,7.3,2.4,13.7,7,18.9
			c5.6,6.2,13.3,9.3,22.8,9.3h0c5,0,9.6-0.9,13.8-2.7c4.1-1.8,7.6-4.4,10.3-7.8l0.6-0.7l-5.6-4.1L276.4,216.5z M325.2,200.4
			c2.1-2.4,3.1-5.5,3.1-9.1c0-3.6-1.1-6.7-3.2-9.1c-2.1-2.4-4.9-4-8.2-4.8c-2.4-0.5-6.6-0.8-12.9-0.8h-11.9v53.6h7.2v-24.1h3.1
			c6.9,0,11.6-0.3,14.2-0.9C320.3,204.4,323.2,202.8,325.2,200.4z M319.6,195.6c-0.9,1.3-2.1,2.2-3.7,2.8c-1.6,0.6-4.3,0.9-8,0.9
			l-8.5-0.1v-15.9h8.9c3.7,0,6.3,0.3,7.7,0.9c1.5,0.6,2.6,1.5,3.6,2.8c0.9,1.3,1.3,2.7,1.3,4.3C321,192.9,320.5,194.3,319.6,195.6z"
			/>
	</g>
	<g>
		<path fill="#FFFFFF" d="M136.2,349.7l7.3,10.6l-2.5,1.7l-5.3-7.6l-4.1,2.9l5,7.2l-2.5,1.7l-5-7.2l-6.5,4.5l-2-2.9L136.2,349.7z"/>
		<path fill="#FFFFFF" d="M134.3,369.1c0.8-0.7,1.6-1.1,2.5-1.4c0.9-0.3,1.8-0.3,2.6-0.2c0.9,0.1,1.7,0.4,2.6,0.9
			c0.8,0.5,1.6,1.1,2.2,1.9c0.7,0.8,1.2,1.6,1.5,2.5c0.3,0.9,0.5,1.8,0.5,2.7c0,0.9-0.2,1.7-0.6,2.6c-0.4,0.8-1,1.6-1.7,2.3
			c-0.8,0.7-1.6,1.1-2.5,1.4c-0.9,0.3-1.8,0.3-2.6,0.2c-0.9-0.1-1.7-0.4-2.6-0.9c-0.8-0.5-1.6-1.1-2.2-1.9c-0.7-0.8-1.2-1.6-1.5-2.5
			c-0.3-0.9-0.5-1.8-0.5-2.7c0-0.9,0.2-1.7,0.6-2.6C132.9,370.5,133.5,369.8,134.3,369.1z M136.5,371.7c-0.4,0.3-0.7,0.7-0.9,1.2
			c-0.2,0.4-0.4,0.9-0.4,1.4c0,0.5,0,1,0.2,1.5c0.2,0.5,0.4,1,0.8,1.5c0.4,0.5,0.8,0.8,1.3,1c0.5,0.2,1,0.4,1.5,0.4
			c0.5,0,1,0,1.5-0.2c0.5-0.2,0.9-0.4,1.3-0.7c0.4-0.3,0.7-0.7,0.9-1.2c0.2-0.4,0.4-0.9,0.4-1.4c0-0.5,0-1-0.2-1.5
			c-0.2-0.5-0.4-1-0.8-1.5c-0.4-0.5-0.8-0.8-1.3-1c-0.5-0.2-1-0.4-1.5-0.4c-0.5,0-1,0-1.5,0.2C137.3,371.1,136.9,371.3,136.5,371.7z
			"/>
		<path fill="#FFFFFF" d="M150.5,377.6l2.4,2.4l-1.4,1.5l0,0c0.8-0.3,1.6-0.3,2.4-0.1c0.8,0.2,1.5,0.6,2.1,1.2
			c0.1,0.1,0.3,0.3,0.4,0.5c0.1,0.2,0.2,0.3,0.3,0.5l-2.2,2.2c-0.2-0.2-0.3-0.5-0.5-0.7c-0.2-0.2-0.3-0.4-0.5-0.6
			c-0.6-0.5-1.1-0.9-1.6-1c-0.5-0.1-1-0.2-1.5-0.1c-0.4,0.1-0.8,0.2-1.1,0.4c-0.3,0.2-0.5,0.4-0.7,0.5l-4.8,5l-2.4-2.4L150.5,377.6z
			"/>
		<path fill="#FFFFFF" d="M157.8,385l2.5,2l-1.2,1.6l0,0c0.6-0.3,1.3-0.4,2.1-0.4c0.8,0,1.7,0.4,2.6,1.1c1.7,1.3,2.3,2.8,1.8,4.5
			c0.9-0.4,1.7-0.5,2.6-0.3c0.8,0.1,1.6,0.5,2.4,1.1c0.7,0.6,1.2,1.1,1.5,1.7s0.5,1.2,0.5,1.9c0,0.6-0.1,1.3-0.4,1.9
			c-0.3,0.6-0.7,1.3-1.1,1.9l-4.7,6.1l-2.7-2.1l4.5-5.8c0.2-0.3,0.4-0.6,0.6-1c0.2-0.3,0.3-0.7,0.3-1c0-0.3,0-0.7-0.2-1
			c-0.2-0.3-0.4-0.6-0.8-0.9c-0.4-0.3-0.8-0.5-1.2-0.6s-0.8-0.1-1.2,0c-0.4,0.1-0.7,0.3-1.1,0.5c-0.3,0.3-0.6,0.5-0.9,0.9l-4.3,5.5
			l-2.7-2.1l4.7-6.1c0.5-0.6,0.8-1.3,0.8-1.9c0-0.6-0.3-1.1-1-1.6c-0.4-0.3-0.9-0.6-1.3-0.7c-0.4-0.1-0.8-0.1-1.2,0
			c-0.4,0.1-0.7,0.3-1.1,0.5c-0.3,0.2-0.6,0.5-0.9,0.9l-4.3,5.6l-2.7-2.1L157.8,385z"/>
		<path fill="#FFFFFF" d="M174.9,406.9c-0.4,0.9-0.4,1.7-0.1,2.6c0.3,0.8,0.9,1.5,1.7,1.9c0.7,0.4,1.4,0.6,2.1,0.7s1.3-0.1,1.9-0.3
			l1.2,2.7c-1.2,0.4-2.3,0.5-3.3,0.4c-1-0.2-2-0.5-2.9-1.1c-0.9-0.5-1.6-1.1-2.2-1.9c-0.6-0.7-1-1.5-1.3-2.4
			c-0.3-0.8-0.3-1.7-0.2-2.6c0.1-0.9,0.4-1.8,0.9-2.7c0.5-0.9,1.2-1.6,1.9-2.1c0.8-0.5,1.6-0.9,2.4-1c0.9-0.2,1.8-0.2,2.7,0
			c0.9,0.2,1.8,0.5,2.7,1c0.8,0.5,1.5,1.1,2,1.7c0.5,0.7,0.8,1.4,1,2.2c0.2,0.8,0.2,1.6,0,2.6c-0.2,0.9-0.6,1.8-1.1,2.8l-0.5,0.8
			L174.9,406.9z M182.1,408.3c0.5-0.8,0.6-1.6,0.4-2.4c-0.2-0.8-0.8-1.4-1.7-2c-0.9-0.5-1.7-0.7-2.5-0.5c-0.8,0.2-1.5,0.6-2.1,1.4
			L182.1,408.3z"/>
		<path fill="#FFFFFF" d="M189.9,406.7l3,1.5L192,410l0.1,0c0.7-0.5,1.4-0.8,2.2-0.9c0.8-0.1,1.6,0.1,2.4,0.5
			c0.2,0.1,0.4,0.2,0.5,0.3c0.2,0.1,0.3,0.2,0.5,0.4l-1.4,2.8c-0.2-0.2-0.4-0.4-0.7-0.5c-0.2-0.2-0.5-0.3-0.7-0.4
			c-0.7-0.3-1.3-0.5-1.9-0.5c-0.6,0-1,0.2-1.4,0.4c-0.4,0.2-0.7,0.5-0.9,0.7c-0.2,0.3-0.4,0.5-0.5,0.7l-3,6.2l-3-1.5L189.9,406.7z"
			/>
		<path fill="#FFFFFF" d="M202.4,404.3l3.1,1.3l-7.9,18.8l-3.1-1.3L202.4,404.3z"/>
		<path fill="#FFFFFF" d="M204,413.3l3.5,1.2l0.6,9.7l0.1,0l6.1-7.4l3.3,1.1l-11.1,12.8c-0.4,0.5-0.9,0.9-1.3,1.3
			c-0.4,0.3-0.9,0.6-1.3,0.8c-0.5,0.2-1,0.2-1.5,0.2c-0.6,0-1.2-0.2-1.9-0.4c-0.8-0.3-1.6-0.7-2.3-1.1l1.3-2.6
			c0.2,0.2,0.5,0.3,0.7,0.5c0.3,0.2,0.5,0.3,0.8,0.4c0.4,0.1,0.7,0.2,1,0.2c0.3,0,0.6,0,0.8-0.1c0.2-0.1,0.5-0.2,0.7-0.4
			c0.2-0.2,0.4-0.4,0.7-0.7l1.1-1.2L204,413.3z"/>
		<path fill="#FFFFFF" d="M236.9,420.1c-0.3-0.6-0.7-1.1-1.3-1.4c-0.6-0.4-1.2-0.6-1.9-0.7c-0.4-0.1-0.8-0.1-1.2-0.1
			c-0.4,0-0.8,0.1-1.1,0.2c-0.3,0.1-0.6,0.3-0.9,0.6c-0.2,0.3-0.4,0.6-0.5,1c-0.1,0.6,0,1.2,0.4,1.6c0.4,0.4,0.9,0.8,1.5,1.2
			c0.6,0.4,1.3,0.8,2.1,1.1c0.8,0.4,1.4,0.8,2.1,1.4c0.6,0.5,1.1,1.2,1.4,1.9c0.3,0.8,0.4,1.7,0.2,2.8c-0.2,1-0.6,1.9-1.1,2.5
			c-0.5,0.7-1.2,1.2-1.9,1.6c-0.7,0.4-1.6,0.6-2.5,0.7c-0.9,0.1-1.8,0-2.8-0.1c-1.2-0.2-2.3-0.6-3.4-1.2c-1-0.6-1.9-1.4-2.5-2.5
			l3.1-1.9c0.3,0.7,0.8,1.3,1.4,1.8c0.6,0.5,1.3,0.8,2.1,0.9c0.4,0.1,0.8,0.1,1.2,0.1c0.4,0,0.8-0.1,1.2-0.3c0.4-0.1,0.7-0.4,1-0.7
			c0.3-0.3,0.4-0.6,0.5-1.1c0.1-0.7,0-1.3-0.4-1.7c-0.4-0.5-0.9-0.9-1.5-1.3c-0.6-0.4-1.3-0.8-2.1-1.2c-0.8-0.4-1.5-0.8-2.1-1.4
			c-0.6-0.5-1.1-1.2-1.4-1.9c-0.3-0.8-0.4-1.7-0.2-2.8c0.2-1,0.5-1.8,1.1-2.4c0.5-0.6,1.2-1.1,2-1.5c0.8-0.3,1.6-0.5,2.5-0.6
			c0.9-0.1,1.8,0,2.7,0.2c1,0.2,2,0.5,2.9,1c0.9,0.5,1.7,1.1,2.3,2L236.9,420.1z"/>
		<path fill="#FFFFFF" d="M248.8,417.4l3,0.2l7,19.7l-4-0.3l-1.5-4.5l-8.6-0.7l-2.1,4.2l-3.9-0.3L248.8,417.4z M252.3,429.5l-2.4-8
			l-3.7,7.5L252.3,429.5z"/>
		<path fill="#FFFFFF" d="M270.8,422c-0.4-0.5-0.9-0.9-1.5-1.1c-0.6-0.2-1.3-0.3-2-0.3c-0.4,0-0.8,0.1-1.2,0.2
			c-0.4,0.1-0.7,0.3-1,0.5s-0.5,0.5-0.7,0.8c-0.2,0.3-0.3,0.7-0.2,1.1c0,0.6,0.3,1.1,0.7,1.5c0.5,0.3,1.1,0.6,1.8,0.8
			c0.7,0.2,1.5,0.5,2.3,0.7c0.8,0.2,1.6,0.5,2.3,0.9c0.7,0.4,1.3,0.9,1.8,1.6c0.5,0.7,0.7,1.6,0.8,2.7c0,1-0.1,1.9-0.5,2.7
			c-0.4,0.8-0.9,1.4-1.5,1.9c-0.6,0.5-1.4,0.9-2.3,1.2c-0.9,0.3-1.8,0.4-2.8,0.5c-1.2,0-2.4-0.1-3.6-0.5c-1.2-0.4-2.2-1-3-1.9
			l2.6-2.6c0.4,0.6,1,1.1,1.7,1.4c0.7,0.3,1.5,0.5,2.2,0.5c0.4,0,0.8-0.1,1.2-0.2c0.4-0.1,0.8-0.3,1.1-0.5c0.3-0.2,0.6-0.5,0.8-0.8
			c0.2-0.3,0.3-0.7,0.3-1.2c0-0.7-0.3-1.2-0.7-1.6c-0.5-0.4-1.1-0.7-1.8-0.9c-0.7-0.2-1.5-0.5-2.3-0.7c-0.8-0.2-1.6-0.5-2.3-0.9
			c-0.7-0.4-1.3-0.9-1.8-1.6c-0.5-0.7-0.7-1.6-0.8-2.7c0-1,0.2-1.8,0.6-2.6c0.4-0.7,0.9-1.3,1.6-1.8c0.7-0.5,1.4-0.9,2.3-1.1
			c0.9-0.3,1.8-0.4,2.7-0.4c1,0,2.1,0.1,3.1,0.4c1,0.3,1.9,0.8,2.7,1.4L270.8,422z"/>
		<path fill="#FFFFFF" d="M282.3,416.9l13.3-2.3l0.5,2.9l-5,17.3l-3.9,0.7l5.2-17.2l-9.6,1.7L282.3,416.9z"/>
		<path fill="#FFFFFF" d="M299.8,423.5c-0.4-1.5-0.6-2.7-0.7-3.8c0-1.1,0-2.1,0.2-2.9c0.2-0.8,0.5-1.5,0.9-2.1
			c0.4-0.6,0.8-1,1.2-1.4c0.5-0.4,0.9-0.6,1.4-0.8c0.5-0.2,0.9-0.4,1.2-0.5c0.4-0.1,0.8-0.2,1.3-0.3c0.5-0.1,1-0.1,1.6,0
			c0.6,0.1,1.2,0.2,1.8,0.5c0.6,0.3,1.2,0.7,1.8,1.3c0.6,0.6,1.2,1.4,1.7,2.3c0.5,1,1,2.2,1.4,3.6c0.4,1.5,0.6,2.7,0.7,3.8
			c0,1.1,0,2.1-0.2,2.9c-0.2,0.8-0.5,1.5-0.9,2.1c-0.4,0.6-0.8,1-1.2,1.4s-0.9,0.6-1.4,0.8c-0.5,0.2-0.9,0.4-1.2,0.5
			c-0.4,0.1-0.8,0.2-1.3,0.3c-0.5,0.1-1,0.1-1.6,0c-0.6-0.1-1.2-0.2-1.8-0.5c-0.6-0.3-1.2-0.7-1.8-1.3s-1.2-1.4-1.7-2.3
			C300.6,426.1,300.2,424.9,299.8,423.5z M303,422.6c0.2,0.6,0.4,1.2,0.7,2c0.3,0.7,0.7,1.4,1.1,2c0.4,0.6,1,1.1,1.6,1.4
			c0.6,0.3,1.3,0.4,2.1,0.2c0.8-0.2,1.4-0.6,1.7-1.2c0.4-0.6,0.6-1.3,0.6-2c0.1-0.7,0-1.5-0.1-2.3c-0.1-0.8-0.3-1.4-0.4-2
			c-0.2-0.6-0.4-1.2-0.7-2c-0.3-0.7-0.7-1.4-1.1-2c-0.4-0.6-1-1.1-1.6-1.4c-0.6-0.3-1.3-0.4-2.1-0.2c-0.8,0.2-1.4,0.6-1.7,1.2
			c-0.4,0.6-0.6,1.3-0.6,2s0,1.5,0.1,2.3C302.7,421.3,302.8,422,303,422.6z"/>
		<path fill="#FFFFFF" d="M319.9,407l6.3-2.9c0.9-0.4,1.7-0.7,2.6-0.9c0.9-0.2,1.7-0.3,2.5-0.2c0.8,0.1,1.5,0.4,2.2,0.8
			s1.2,1.2,1.7,2.2c0.6,1.3,0.7,2.5,0.4,3.7c-0.3,1.2-1.1,2.2-2.4,3l8.3,5.5l-3.9,1.8l-7.6-5.4l-2.3,1.1l3.4,7.4l-3.2,1.5L319.9,407
			z M329,411.8c0.5-0.2,0.9-0.4,1.3-0.7c0.4-0.3,0.8-0.5,1.1-0.9c0.3-0.3,0.5-0.7,0.6-1.1c0.1-0.4,0-0.9-0.3-1.5
			c-0.2-0.5-0.5-0.9-0.9-1.1c-0.4-0.2-0.8-0.3-1.2-0.3c-0.4,0-0.9,0.1-1.3,0.2c-0.5,0.2-0.9,0.3-1.3,0.5l-2.8,1.3l2.2,4.7L329,411.8
			z"/>
		<path fill="#FFFFFF" d="M343.6,410.8c0.6,0.8,1.3,1.2,2.2,1.4c0.9,0.1,1.7-0.1,2.5-0.5c0.7-0.4,1.2-0.9,1.6-1.5
			c0.3-0.6,0.5-1.2,0.7-1.8l3,0.3c-0.2,1.2-0.6,2.2-1.3,3.1s-1.4,1.5-2.3,2.1c-0.9,0.5-1.8,0.9-2.7,1c-0.9,0.2-1.8,0.2-2.7,0
			c-0.9-0.2-1.7-0.5-2.4-1.1c-0.8-0.5-1.4-1.2-1.9-2.1c-0.5-0.9-0.8-1.8-0.9-2.7c-0.1-0.9,0-1.8,0.2-2.6c0.3-0.8,0.7-1.6,1.3-2.4
			c0.6-0.7,1.3-1.4,2.2-1.9c0.8-0.5,1.6-0.8,2.5-0.9c0.8-0.1,1.6-0.1,2.4,0.2s1.5,0.6,2.2,1.2c0.7,0.6,1.4,1.4,1.9,2.4l0.5,0.8
			L343.6,410.8z M348.3,405.2c-0.5-0.8-1.1-1.3-1.9-1.5c-0.8-0.2-1.7,0-2.6,0.6c-0.9,0.5-1.4,1.2-1.6,1.9c-0.2,0.8-0.2,1.6,0.2,2.5
			L348.3,405.2z"/>
		<path fill="#FFFFFF" d="M350.4,397.8l2.6-1.9l1.2,1.6l0,0c-0.1-0.9,0.1-1.8,0.5-2.6c0.4-0.8,1.1-1.5,1.8-2c0.8-0.6,1.7-1,2.5-1.2
			c0.9-0.2,1.7-0.2,2.6-0.1c0.8,0.1,1.6,0.5,2.3,1s1.4,1.1,2,1.9c0.6,0.8,1,1.6,1.2,2.4c0.2,0.9,0.3,1.7,0.2,2.5
			c-0.1,0.8-0.4,1.6-0.8,2.4c-0.4,0.8-1,1.4-1.8,2c-0.5,0.4-1,0.7-1.5,0.9c-0.5,0.2-0.9,0.3-1.3,0.4c-0.4,0.1-0.8,0.1-1.1,0.1
			c-0.3,0-0.6-0.1-0.9-0.1l-0.1,0l4.6,6.3l-2.7,2L350.4,397.8z M363.2,396.3c-0.3-0.4-0.7-0.7-1.1-1c-0.4-0.3-0.9-0.4-1.4-0.5
			s-1-0.1-1.5,0c-0.5,0.1-1,0.4-1.5,0.7c-0.5,0.4-0.9,0.8-1.1,1.2c-0.3,0.5-0.4,0.9-0.5,1.4c-0.1,0.5,0,1,0.1,1.5
			c0.1,0.5,0.4,0.9,0.7,1.3c0.3,0.4,0.7,0.7,1.1,1c0.4,0.3,0.9,0.4,1.4,0.5s1,0.1,1.5,0s1-0.4,1.5-0.7c0.5-0.4,0.9-0.8,1.1-1.2
			c0.3-0.5,0.4-0.9,0.5-1.4c0.1-0.5,0-1-0.1-1.5C363.7,397.2,363.5,396.7,363.2,396.3z"/>
		<path fill="#FFFFFF" d="M367.6,392.9c-0.7-0.8-1.2-1.6-1.5-2.4c-0.3-0.9-0.4-1.8-0.3-2.6c0.1-0.9,0.3-1.7,0.8-2.6s1-1.6,1.8-2.3
			c0.7-0.7,1.6-1.2,2.4-1.6c0.9-0.4,1.8-0.6,2.6-0.6c0.9,0,1.8,0.2,2.6,0.5s1.6,0.9,2.3,1.7c0.7,0.8,1.2,1.6,1.5,2.4
			c0.3,0.9,0.4,1.8,0.3,2.6c-0.1,0.9-0.3,1.7-0.8,2.6c-0.4,0.8-1,1.6-1.8,2.3c-0.7,0.7-1.6,1.2-2.4,1.6c-0.9,0.4-1.8,0.6-2.6,0.6
			c-0.9,0-1.8-0.2-2.6-0.5C369.1,394.2,368.3,393.7,367.6,392.9z M370.1,390.6c0.3,0.4,0.7,0.7,1.2,0.9c0.4,0.2,0.9,0.3,1.4,0.4
			s1,0,1.5-0.2c0.5-0.2,1-0.5,1.4-0.9c0.5-0.4,0.8-0.9,1-1.4c0.2-0.5,0.3-1,0.3-1.5c0-0.5-0.1-1-0.3-1.4c-0.2-0.5-0.5-0.9-0.8-1.3
			c-0.3-0.4-0.7-0.7-1.2-0.9c-0.4-0.2-0.9-0.3-1.4-0.4c-0.5,0-1,0-1.5,0.2s-1,0.5-1.4,0.9s-0.8,0.9-1,1.4c-0.2,0.5-0.3,1-0.3,1.5
			c0,0.5,0.1,1,0.3,1.4C369.5,389.8,369.7,390.2,370.1,390.6z"/>
		<path fill="#FFFFFF" d="M375.6,376.4l2.3-2.5l1.5,1.4l0,0c-0.3-0.8-0.4-1.6-0.2-2.4c0.2-0.8,0.5-1.5,1.1-2.2
			c0.1-0.2,0.3-0.3,0.4-0.4c0.2-0.1,0.3-0.2,0.5-0.4l2.3,2.1c-0.2,0.2-0.5,0.3-0.7,0.5c-0.2,0.2-0.4,0.4-0.6,0.5
			c-0.5,0.6-0.8,1.1-1,1.7c-0.1,0.5-0.1,1,0,1.5c0.1,0.4,0.3,0.8,0.5,1.1c0.2,0.3,0.4,0.5,0.5,0.6l5.1,4.7l-2.3,2.5L375.6,376.4z"/>
		<path fill="#FFFFFF" d="M383.7,371.5l-2.2-1.7l1.7-2.2l-3-2.3l2.1-2.6l3,2.3l2.3-2.9l2.2,1.7l-2.3,2.9l4.5,3.5
			c0.5,0.4,1,0.6,1.4,0.7c0.5,0,0.9-0.2,1.4-0.8c0.2-0.2,0.4-0.5,0.5-0.8c0.2-0.3,0.3-0.6,0.3-0.9l2.1,1.7c-0.1,0.4-0.3,0.8-0.5,1.2
			c-0.3,0.4-0.5,0.8-0.8,1.1c-0.6,0.7-1.1,1.2-1.6,1.6c-0.5,0.3-1,0.5-1.5,0.5c-0.5,0-1-0.1-1.6-0.4c-0.5-0.3-1.1-0.6-1.7-1.1
			l-4.7-3.7L383.7,371.5z"/>
		<path fill="#FFFFFF" d="M395.8,356.4c-1.1,0.1-2,0.5-2.6,1.5c-0.2,0.4-0.4,0.8-0.5,1.3c-0.1,0.5,0.1,0.9,0.5,1.1
			c0.3,0.2,0.7,0.2,1,0c0.3-0.2,0.7-0.5,1.1-0.9c0.4-0.4,0.8-0.8,1.3-1.2c0.5-0.4,1-0.8,1.5-1.1c0.5-0.3,1.1-0.5,1.7-0.5
			c0.6,0,1.3,0.2,2,0.7c0.6,0.4,1.1,0.9,1.3,1.5c0.2,0.6,0.4,1.2,0.3,1.8c0,0.6-0.2,1.3-0.5,1.9c-0.3,0.7-0.6,1.3-1,1.8
			c-0.6,0.9-1.2,1.6-2,2.2c-0.7,0.6-1.6,0.9-2.6,1.1l-0.4-3c0.6-0.1,1.2-0.3,1.7-0.5c0.5-0.2,1-0.7,1.4-1.3c0.1-0.2,0.3-0.4,0.4-0.7
			c0.1-0.2,0.2-0.5,0.2-0.8c0-0.3,0-0.5-0.1-0.7s-0.2-0.4-0.4-0.5c-0.4-0.2-0.8-0.3-1.1-0.1c-0.4,0.2-0.8,0.5-1.2,0.8
			c-0.4,0.4-0.8,0.8-1.3,1.2c-0.4,0.5-0.9,0.8-1.4,1.1s-1.1,0.5-1.7,0.5c-0.6,0-1.2-0.2-1.9-0.6c-0.6-0.4-1-0.9-1.3-1.4
			c-0.3-0.6-0.4-1.1-0.4-1.7c0-0.6,0.1-1.2,0.3-1.9c0.2-0.6,0.5-1.2,0.9-1.8c0.5-0.7,1.1-1.4,1.9-2c0.7-0.6,1.6-0.9,2.5-0.9
			L395.8,356.4z"/>
	</g>
	<g>
		<path fill="#FFFFFF" d="M93.3,225.6l0.4-1.8l17.4-3.3l-0.5,2.2l-4.3,0.8l-1.7,8l3.6,2.5l-0.5,2.1L93.3,225.6z M96,225.3L96,225.3
			l7.1,5.1l1.4-6.5L96,225.3z"/>
		<path fill="#FFFFFF" d="M96.2,214.3l0.5-1.9l15.6,4.6l-0.5,1.9L96.2,214.3z"/>
		<path fill="#FFFFFF" d="M105.1,198.3c-0.8,0.2-1.5,0.6-2,1.2c-0.6,0.6-1,1.2-1.2,1.9c-0.3,0.8-0.4,1.7-0.3,2.5
			c0.1,0.8,0.3,1.6,0.7,2.4c0.4,0.7,0.9,1.4,1.6,2c0.7,0.6,1.4,1,2.2,1.3c0.9,0.3,1.8,0.5,2.7,0.5c0.9,0,1.7-0.2,2.4-0.5
			c0.8-0.3,1.4-0.7,2-1.3c0.6-0.6,1-1.3,1.4-2.2c0.3-0.9,0.5-1.8,0.4-2.7s-0.4-1.7-0.9-2.5l1.6-0.9c0.7,1,1,2.1,1.1,3.2
			c0.1,1.1-0.1,2.3-0.6,3.5c-0.4,1.1-1,2-1.7,2.8c-0.8,0.8-1.6,1.4-2.6,1.9c-1,0.4-2,0.7-3.1,0.7c-1.1,0-2.3-0.2-3.4-0.6
			c-1.1-0.4-2.1-1-2.9-1.7c-0.8-0.7-1.5-1.6-2-2.5c-0.5-1-0.7-2-0.8-3.1c-0.1-1.1,0.1-2.2,0.5-3.4c0.4-1,0.9-2,1.7-2.8
			c0.7-0.8,1.6-1.4,2.7-1.7L105.1,198.3z"/>
		<path fill="#FFFFFF" d="M104.3,191.8l2.1-4.4c0.3-0.7,0.7-1.3,1.1-1.8c0.4-0.6,0.9-1,1.4-1.3c0.5-0.3,1.1-0.5,1.8-0.5
			c0.7,0,1.4,0.1,2.1,0.5c0.8,0.4,1.4,0.9,1.8,1.4c0.4,0.6,0.6,1.1,0.7,1.8c0.1,0.6,0,1.2-0.1,1.9c-0.1,0.6-0.3,1.2-0.6,1.7
			l-1.4,2.9l6.6,3.1l-0.8,1.7L104.3,191.8z M111.6,193.2l1.4-2.9c0.4-0.9,0.6-1.7,0.4-2.4c-0.1-0.7-0.6-1.3-1.4-1.7
			c-0.8-0.4-1.6-0.4-2.2-0.1c-0.7,0.4-1.2,1-1.6,1.8l-1.4,2.9L111.6,193.2z"/>
		<path fill="#FFFFFF" d="M112.5,175.7l0.9-1.6l17.6,2.2l-1.1,1.9l-4.3-0.6l-4.1,7l2.6,3.5L123,190L112.5,175.7z M115.1,176.2
			L115.1,176.2l5.2,7l3.3-5.7L115.1,176.2z"/>
		<path fill="#FFFFFF" d="M129.7,155.6c-0.6-0.1-1.2,0-1.7,0.3c-0.5,0.3-1,0.7-1.3,1.1c-0.3,0.3-0.5,0.7-0.6,1.1
			c-0.2,0.4-0.3,0.8-0.3,1.2c0,0.4,0,0.8,0.2,1.1c0.2,0.4,0.4,0.7,0.8,1c0.3,0.2,0.6,0.4,0.9,0.5c0.3,0.1,0.6,0.1,1,0
			c0.3-0.1,0.7-0.2,1.2-0.4c0.4-0.2,0.9-0.5,1.5-0.9c0.5-0.4,1.1-0.7,1.6-1.1c0.5-0.3,1.1-0.6,1.6-0.7s1.1-0.2,1.7-0.1
			c0.6,0.1,1.2,0.4,1.8,0.9c0.6,0.5,1.1,1.1,1.4,1.7c0.3,0.6,0.4,1.3,0.4,1.9c0,0.7-0.2,1.3-0.4,2c-0.3,0.7-0.6,1.3-1.1,1.9
			c-0.3,0.4-0.6,0.7-1,1.1c-0.4,0.3-0.7,0.6-1.1,0.8c-0.4,0.2-0.8,0.4-1.3,0.6c-0.5,0.1-0.9,0.2-1.4,0.1l-0.1-2.1
			c0.7,0.1,1.3,0,2-0.3c0.6-0.3,1.2-0.7,1.6-1.3c0.3-0.3,0.5-0.7,0.6-1.1c0.2-0.4,0.2-0.8,0.3-1.2c0-0.4,0-0.8-0.2-1.2
			s-0.4-0.7-0.8-1c-0.4-0.3-0.8-0.5-1.1-0.5c-0.4-0.1-0.7,0-1.1,0.1c-0.4,0.1-0.8,0.4-1.3,0.7c-0.5,0.3-1,0.7-1.7,1.1
			c-0.5,0.4-1,0.6-1.5,0.9c-0.5,0.2-1,0.4-1.5,0.5c-0.5,0.1-1,0-1.5-0.1c-0.5-0.1-1-0.4-1.6-0.8c-0.6-0.5-1.1-1-1.3-1.6
			c-0.3-0.6-0.4-1.2-0.4-1.9c0-0.7,0.1-1.3,0.4-1.9c0.2-0.6,0.6-1.3,1-1.8c0.6-0.7,1.2-1.3,1.9-1.7c0.7-0.4,1.5-0.7,2.4-0.7
			L129.7,155.6z"/>
		<path fill="#FFFFFF" d="M148,151.9c0.2,1,0.1,1.9-0.1,2.7c-0.3,0.8-0.7,1.6-1.4,2.3c-0.6,0.6-1.2,1.1-1.9,1.4
			c-0.7,0.3-1.4,0.5-2,0.5c-0.7,0-1.4-0.1-2.1-0.4c-0.7-0.3-1.3-0.7-1.9-1.2c-0.6-0.6-1.1-1.2-1.4-1.8c-0.3-0.7-0.5-1.4-0.6-2.1
			c0-0.7,0.1-1.4,0.3-2.1c0.2-0.7,0.6-1.3,1.2-1.9c0.5-0.6,1.1-1,1.7-1.3c0.6-0.3,1.2-0.5,1.9-0.5c0.7,0,1.3,0.1,2,0.4
			c0.7,0.3,1.4,0.7,2,1.3l0.4,0.4l-5.8,6.5c0.4,0.3,0.8,0.5,1.2,0.6c0.4,0.1,0.9,0.2,1.3,0.2c0.4,0,0.9-0.1,1.3-0.3
			c0.4-0.2,0.8-0.5,1.1-0.8c0.5-0.6,0.9-1.2,1-1.7c0.2-0.6,0.2-1.2,0.1-1.9L148,151.9z M143.7,150.1c-0.7-0.6-1.5-0.9-2.2-0.8
			c-0.8,0.1-1.5,0.4-2.2,1.2c-0.7,0.7-1,1.5-1,2.3c0,0.8,0.3,1.6,0.9,2.3L143.7,150.1z"/>
		<path fill="#FFFFFF" d="M145.7,145.4c-0.3-0.4-0.7-0.7-1-1c-0.3-0.3-0.6-0.6-0.9-0.8l1.2-1.2c0.2,0.2,0.4,0.4,0.6,0.6
			c0.2,0.2,0.4,0.4,0.6,0.6l0,0c-0.1-0.3-0.1-0.6-0.2-0.9c0-0.3,0-0.7,0.1-1c0.1-0.4,0.2-0.7,0.4-1.1c0.2-0.4,0.4-0.7,0.8-1
			c0.1-0.1,0.2-0.2,0.3-0.2c0.1-0.1,0.2-0.1,0.3-0.2l1.2,1.4c-0.3,0.1-0.5,0.3-0.8,0.6c-0.8,0.8-1.1,1.6-1,2.4
			c0.1,0.9,0.6,1.7,1.5,2.6l3.7,3.8l-1.3,1.3L145.7,145.4z"/>
		<path fill="#FFFFFF" d="M160.8,142.7l-1.5,1.3l-10.4-5.2l1.6-1.4l8.1,4.2l0,0l-3.1-8.5l1.5-1.3L160.8,142.7z"/>
		<path fill="#FFFFFF" d="M155.9,127.3c-0.2-0.3-0.3-0.6-0.3-1c0-0.4,0.2-0.7,0.5-0.9c0.3-0.2,0.6-0.3,1-0.3c0.4,0,0.6,0.2,0.9,0.5
			c0.2,0.3,0.3,0.6,0.3,1c0,0.3-0.2,0.6-0.5,0.9c-0.3,0.2-0.6,0.3-1,0.3C156.4,127.7,156.1,127.6,155.9,127.3z M158.8,130.3l1.4-1.1
			l6.6,8.5l-1.4,1.1L158.8,130.3z"/>
		<path fill="#FFFFFF" d="M171,124.7c-0.6-0.2-1.1-0.2-1.6-0.1c-0.5,0.1-0.9,0.3-1.4,0.6c-0.5,0.3-0.9,0.7-1.1,1.2
			c-0.3,0.4-0.4,0.9-0.4,1.4c0,0.5,0,1,0.2,1.4c0.2,0.5,0.4,1,0.7,1.4c0.3,0.5,0.7,0.8,1.1,1.1c0.4,0.3,0.9,0.5,1.3,0.6
			s0.9,0.1,1.4,0c0.5-0.1,0.9-0.3,1.4-0.6c1-0.7,1.5-1.6,1.5-2.7l1.8,0.3c-0.1,0.8-0.3,1.5-0.8,2.1c-0.4,0.6-0.9,1.2-1.6,1.6
			c-0.7,0.5-1.4,0.8-2.1,1c-0.7,0.2-1.4,0.2-2.1,0.1c-0.7-0.1-1.3-0.4-2-0.8c-0.6-0.4-1.2-1-1.6-1.6c-0.5-0.7-0.8-1.4-1-2.1
			s-0.2-1.4-0.1-2.1c0.1-0.7,0.4-1.4,0.8-2c0.4-0.6,0.9-1.2,1.6-1.7c0.7-0.5,1.3-0.8,2.1-1c0.7-0.2,1.5-0.2,2.3,0L171,124.7z"/>
		<path fill="#FFFFFF" d="M185.5,123c-0.1,1-0.4,1.9-0.9,2.6c-0.5,0.7-1.2,1.3-2,1.8c-0.7,0.4-1.5,0.7-2.2,0.8
			c-0.7,0.1-1.4,0-2.1-0.2c-0.7-0.2-1.3-0.5-1.8-1c-0.6-0.5-1.1-1-1.5-1.7c-0.4-0.7-0.7-1.4-0.8-2.2c-0.1-0.7-0.1-1.4,0.1-2.1
			c0.2-0.7,0.5-1.3,0.9-1.9c0.4-0.6,1-1.1,1.7-1.5c0.6-0.4,1.3-0.6,2-0.7c0.7-0.1,1.3-0.1,2,0.1c0.6,0.2,1.2,0.5,1.8,1
			c0.6,0.5,1.1,1.1,1.5,1.9l0.3,0.5l-7.5,4.5c0.3,0.4,0.6,0.7,1,1c0.4,0.3,0.8,0.5,1.2,0.6c0.4,0.1,0.9,0.1,1.3,0.1s0.9-0.2,1.3-0.5
			c0.7-0.4,1.2-0.9,1.5-1.4c0.3-0.5,0.5-1.1,0.6-1.8L185.5,123z M181.9,120c-0.5-0.8-1.1-1.2-1.9-1.4c-0.8-0.2-1.6,0-2.4,0.5
			c-0.9,0.5-1.4,1.2-1.6,2s-0.2,1.6,0.2,2.5L181.9,120z"/>
		<path fill="#FFFFFF" d="M201.7,117.7c-1.1,0.5-2.3,0.7-3.4,0.7c-1.1,0-2.2-0.2-3.2-0.6c-1-0.4-1.9-1-2.7-1.8
			c-0.8-0.8-1.4-1.8-1.9-2.9s-0.7-2.3-0.8-3.4c0-1.1,0.2-2.2,0.6-3.2c0.4-1,1-1.9,1.8-2.7c0.8-0.8,1.7-1.4,2.9-1.9
			c1.1-0.5,2.3-0.7,3.4-0.7c1.1,0,2.2,0.2,3.2,0.6c1,0.4,1.9,1,2.7,1.8c0.8,0.8,1.4,1.8,1.9,2.9s0.7,2.3,0.8,3.4
			c0,1.1-0.2,2.2-0.6,3.2c-0.4,1-1,1.9-1.8,2.7C203.8,116.6,202.8,117.2,201.7,117.7z M201,116.1c0.9-0.4,1.6-0.9,2.2-1.5
			c0.6-0.6,1-1.3,1.3-2.1c0.3-0.8,0.4-1.6,0.4-2.5c0-0.9-0.2-1.7-0.6-2.6c-0.4-0.9-0.9-1.6-1.5-2.2s-1.3-1.1-2.1-1.5
			s-1.6-0.5-2.4-0.5c-0.9,0-1.7,0.2-2.6,0.5c-0.9,0.4-1.6,0.9-2.2,1.5c-0.6,0.6-1,1.3-1.3,2.1c-0.3,0.8-0.4,1.6-0.4,2.5
			c0,0.9,0.2,1.7,0.6,2.6c0.4,0.9,0.9,1.6,1.5,2.2c0.6,0.6,1.3,1.1,2.1,1.5c0.8,0.3,1.6,0.5,2.4,0.5
			C199.2,116.6,200.1,116.4,201,116.1z"/>
		<path fill="#FFFFFF" d="M209.1,105.6c-0.2-0.5-0.3-0.9-0.5-1.3c-0.2-0.4-0.3-0.8-0.4-1.1l1.6-0.5c0.1,0.3,0.2,0.6,0.3,0.8
			c0.1,0.3,0.2,0.6,0.3,0.8l0,0c0-0.3,0.1-0.6,0.3-0.9c0.1-0.3,0.3-0.6,0.5-0.9c0.2-0.3,0.5-0.5,0.8-0.8c0.3-0.2,0.7-0.4,1.1-0.6
			c0.1,0,0.2-0.1,0.4-0.1c0.1,0,0.2,0,0.4,0l0.5,1.8c-0.3,0-0.6,0.1-1,0.2c-1,0.3-1.7,0.9-1.9,1.8s-0.2,1.8,0.2,3l1.6,5l-1.7,0.6
			L209.1,105.6z"/>
		<path fill="#FFFFFF" d="M228.9,108c0.5,1.9,0.4,3.5-0.3,4.7c-0.7,1.2-2,2.1-3.8,2.6c-1,0.3-2,0.4-2.9,0.3
			c-0.9-0.1-1.8-0.4-2.7-0.9l0.9-1.7c0.7,0.5,1.4,0.8,2.1,0.9s1.4,0.1,2.2-0.1c0.8-0.2,1.4-0.5,1.8-0.8c0.5-0.4,0.8-0.8,1-1.2
			c0.2-0.5,0.3-1,0.3-1.5c0-0.5-0.1-1.1-0.2-1.6l-0.3-1.3l0,0c-0.2,0.8-0.7,1.4-1.2,1.9c-0.6,0.5-1.2,0.8-1.9,1
			c-0.8,0.2-1.6,0.3-2.4,0.2c-0.8-0.1-1.4-0.3-2-0.7s-1.1-0.8-1.6-1.4c-0.4-0.6-0.8-1.3-1-2c-0.2-0.8-0.3-1.6-0.2-2.4
			c0.1-0.8,0.3-1.4,0.7-2c0.4-0.6,0.9-1.1,1.5-1.5c0.6-0.4,1.3-0.8,2.2-1c0.4-0.1,0.7-0.1,1.1-0.2c0.4,0,0.8,0,1.1,0.1
			c0.4,0.1,0.7,0.2,1.1,0.4c0.3,0.2,0.6,0.4,0.9,0.7l0,0l-0.5-1.8l1.7-0.4L228.9,108z M218.5,105.6c0.1,0.5,0.4,1,0.7,1.4
			c0.3,0.4,0.7,0.7,1.1,1c0.4,0.2,0.9,0.4,1.4,0.5c0.5,0.1,1,0.1,1.5-0.1c0.6-0.2,1.1-0.4,1.5-0.7c0.4-0.3,0.7-0.7,1-1.1
			c0.2-0.4,0.4-0.9,0.4-1.4c0-0.5,0-1-0.1-1.5c-0.1-0.6-0.4-1.1-0.7-1.5s-0.7-0.8-1.1-1c-0.4-0.3-0.9-0.4-1.4-0.5
			c-0.5-0.1-1,0-1.6,0.1c-0.5,0.1-1,0.4-1.4,0.7s-0.7,0.7-0.9,1.1c-0.2,0.4-0.4,0.9-0.4,1.4C218.3,104.5,218.4,105,218.5,105.6z"/>
		<path fill="#FFFFFF" d="M230.1,98.6c0.4-0.7,1-1.2,1.7-1.6c0.7-0.4,1.4-0.7,2.2-0.8c1.6-0.3,2.8-0.1,3.6,0.5
			c0.8,0.6,1.4,1.7,1.6,3.2l0.8,4.6c0.1,0.3,0.1,0.6,0.2,0.9c0.1,0.3,0.2,0.6,0.3,0.9l-1.7,0.3c-0.1-0.2-0.2-0.5-0.2-0.8
			s-0.1-0.6-0.1-0.8l0,0c-0.3,0.6-0.6,1.1-1.2,1.6c-0.5,0.4-1.2,0.7-2,0.9c-0.5,0.1-1.1,0.1-1.6,0.1c-0.5-0.1-0.9-0.2-1.3-0.4
			c-0.4-0.2-0.7-0.5-1-0.8s-0.5-0.8-0.6-1.3c-0.2-0.9,0-1.6,0.3-2.2c0.4-0.6,0.9-1,1.5-1.4c0.6-0.4,1.3-0.6,2.1-0.8s1.5-0.3,2.1-0.5
			l0.7-0.1l-0.1-0.3c-0.1-0.8-0.5-1.3-1-1.6c-0.5-0.3-1.2-0.4-2-0.3c-0.6,0.1-1.1,0.3-1.6,0.6c-0.5,0.3-1,0.7-1.3,1.1L230.1,98.6z
			 M236,101.9c-1.1,0.2-2,0.5-2.6,0.9c-0.6,0.4-0.9,1-0.7,1.7c0.1,0.7,0.4,1.1,0.9,1.3c0.5,0.2,1.1,0.2,1.7,0.1
			c0.5-0.1,0.9-0.3,1.3-0.5c0.4-0.2,0.6-0.5,0.8-0.9c0.2-0.3,0.3-0.7,0.4-1.1c0.1-0.4,0.1-0.8,0-1.3l-0.1-0.7L236,101.9z"/>
		<path fill="#FFFFFF" d="M242.4,97.8c0-0.5-0.1-0.9-0.2-1.4c-0.1-0.4-0.1-0.8-0.2-1.2l1.7-0.2c0,0.3,0.1,0.6,0.1,0.9
			s0.1,0.6,0.1,0.9l0,0c0.1-0.3,0.2-0.5,0.4-0.8c0.2-0.3,0.4-0.5,0.7-0.7c0.3-0.2,0.6-0.4,1-0.6c0.4-0.2,0.8-0.2,1.2-0.3
			c0.7-0.1,1.3,0,1.9,0.1c0.5,0.2,1,0.4,1.4,0.8c0.4,0.3,0.7,0.8,0.9,1.3c0.2,0.5,0.3,1.1,0.4,1.8l0.6,6.6l-1.8,0.2l-0.6-6.4
			c-0.1-0.9-0.4-1.6-0.8-2.1c-0.4-0.5-1.1-0.7-1.9-0.6c-0.6,0.1-1.1,0.2-1.5,0.4c-0.4,0.2-0.7,0.6-0.9,0.9c-0.2,0.4-0.4,0.8-0.5,1.4
			c-0.1,0.5-0.1,1.1,0,1.7l0.5,5.2l-1.8,0.2L242.4,97.8z"/>
		<path fill="#FFFFFF" d="M254.8,90c0-0.4,0.1-0.7,0.3-0.9c0.2-0.3,0.5-0.4,0.9-0.4c0.4,0,0.7,0.1,0.9,0.4c0.3,0.3,0.4,0.6,0.4,0.9
			c0,0.4-0.1,0.7-0.3,1c-0.2,0.3-0.5,0.4-0.9,0.4c-0.4,0-0.7-0.1-1-0.3C255,90.7,254.8,90.4,254.8,90z M255.4,94.2l1.8-0.1l0.4,10.8
			l-1.8,0.1L255.4,94.2z"/>
		<path fill="#FFFFFF" d="M259.9,103.4l6.3-7.8l-6,0l0-1.5l8.4,0l0,1.4l-6.3,7.8l6.5,0l0,1.5l-8.8,0L259.9,103.4z"/>
		<path fill="#FFFFFF" d="M271.3,95.6c0.6-0.5,1.3-0.9,2.1-1.1c0.8-0.2,1.6-0.3,2.3-0.2c1.6,0.1,2.7,0.6,3.4,1.4
			c0.6,0.8,0.9,2,0.8,3.5l-0.3,4.6c0,0.3,0,0.6,0,1c0,0.3,0,0.6,0,0.9l-1.7-0.1c0-0.2-0.1-0.5,0-0.8c0-0.3,0-0.6,0-0.8l0,0
			c-0.4,0.5-0.9,0.9-1.5,1.2c-0.6,0.3-1.3,0.4-2.2,0.4c-0.6,0-1.1-0.1-1.5-0.3c-0.5-0.2-0.9-0.4-1.2-0.7c-0.3-0.3-0.6-0.6-0.8-1.1
			c-0.2-0.4-0.3-0.9-0.2-1.4c0.1-0.9,0.3-1.6,0.8-2c0.5-0.5,1.1-0.8,1.8-1c0.7-0.2,1.4-0.3,2.2-0.3s1.5,0,2.2,0.1l0.7,0.1l0-0.3
			c0.1-0.8-0.1-1.4-0.6-1.8c-0.4-0.4-1.1-0.7-1.9-0.7c-0.6,0-1.2,0-1.7,0.2c-0.6,0.1-1.1,0.4-1.5,0.8L271.3,95.6z M276.2,100.2
			c-1.1-0.1-2.1,0-2.8,0.3c-0.7,0.3-1.1,0.8-1.1,1.5c0,0.7,0.1,1.2,0.6,1.5c0.4,0.3,1,0.5,1.7,0.6c0.5,0,1,0,1.4-0.2
			c0.4-0.1,0.7-0.4,1-0.6c0.3-0.3,0.5-0.6,0.7-1c0.2-0.4,0.3-0.8,0.3-1.2l0.1-0.7L276.2,100.2z"/>
		<path fill="#FFFFFF" d="M289.4,97.6l-3.1-0.4l-0.7,5.3c0,0.3-0.1,0.7-0.1,1s0,0.6,0.1,0.8c0.1,0.2,0.2,0.4,0.4,0.6
			s0.5,0.3,0.9,0.3c0.3,0,0.5,0,0.8,0c0.3,0,0.6-0.1,0.8-0.2l-0.2,1.6c-0.3,0.1-0.7,0.1-1.1,0.2c-0.4,0-0.7,0-1.1-0.1
			c-0.6-0.1-1.1-0.2-1.5-0.5c-0.4-0.2-0.6-0.5-0.8-0.8c-0.2-0.3-0.3-0.7-0.3-1.2s0-1,0.1-1.5l0.8-5.9l-2.3-0.3l0.2-1.5l2.3,0.3
			l0.4-3l1.8,0.2l-0.4,3l3.1,0.4L289.4,97.6z"/>
		<path fill="#FFFFFF" d="M292.1,96.6l1.8,0.3l-1.9,10.6l-1.8-0.3L292.1,96.6z M292.5,92.4c0.1-0.3,0.2-0.6,0.5-0.8
			c0.3-0.2,0.6-0.3,1-0.2s0.6,0.2,0.8,0.6c0.2,0.3,0.3,0.6,0.2,1c-0.1,0.4-0.2,0.7-0.5,0.9c-0.3,0.2-0.6,0.3-1,0.2
			c-0.4-0.1-0.7-0.2-0.9-0.5C292.5,93.1,292.4,92.7,292.5,92.4z"/>
		<path fill="#FFFFFF" d="M295.9,102.6c0.2-0.8,0.5-1.5,1-2.1c0.4-0.6,1-1.1,1.6-1.5c0.6-0.4,1.3-0.6,2-0.7c0.8-0.1,1.5-0.1,2.3,0.1
			c0.8,0.2,1.5,0.5,2.1,0.9c0.6,0.4,1.1,1,1.5,1.6c0.4,0.6,0.6,1.3,0.7,2c0.1,0.7,0.1,1.5-0.1,2.3c-0.2,0.8-0.5,1.5-1,2.1
			c-0.4,0.6-1,1.1-1.6,1.5c-0.6,0.4-1.3,0.6-2,0.7c-0.8,0.1-1.5,0.1-2.3-0.1c-0.8-0.2-1.5-0.5-2.1-0.9c-0.6-0.4-1.1-1-1.5-1.6
			c-0.4-0.6-0.6-1.3-0.7-2C295.6,104.2,295.7,103.5,295.9,102.6z M297.7,103.1c-0.1,0.6-0.2,1.1-0.1,1.6c0.1,0.5,0.2,1,0.5,1.4
			c0.2,0.4,0.6,0.8,1,1.1c0.4,0.3,0.9,0.5,1.5,0.7c0.6,0.1,1.1,0.2,1.6,0.1c0.5-0.1,1-0.3,1.4-0.5c0.4-0.3,0.8-0.6,1-1
			c0.3-0.4,0.5-0.9,0.6-1.5c0.1-0.6,0.2-1.1,0.1-1.6s-0.2-1-0.5-1.4c-0.2-0.4-0.6-0.8-1-1.1c-0.4-0.3-0.9-0.5-1.5-0.7
			c-0.6-0.1-1.1-0.2-1.6-0.1c-0.5,0.1-1,0.3-1.4,0.5c-0.4,0.3-0.8,0.6-1,1C298.1,102.1,297.9,102.6,297.7,103.1z"/>
		<path fill="#FFFFFF" d="M310.6,103.5c0.2-0.5,0.3-0.9,0.4-1.3c0.1-0.4,0.2-0.8,0.3-1.1l1.6,0.5c-0.1,0.3-0.2,0.6-0.3,0.8
			c-0.1,0.3-0.2,0.6-0.3,0.9l0,0c0.2-0.2,0.4-0.4,0.7-0.6c0.3-0.2,0.6-0.3,1-0.4c0.4-0.1,0.7-0.1,1.1-0.1c0.4,0,0.8,0.1,1.2,0.2
			c0.7,0.2,1.2,0.5,1.6,0.9c0.4,0.4,0.7,0.8,0.9,1.3c0.2,0.5,0.3,1,0.3,1.6c0,0.6-0.1,1.2-0.3,1.8l-2.1,6.3l-1.7-0.6l2-6.1
			c0.3-0.9,0.3-1.6,0.1-2.2c-0.2-0.6-0.7-1.1-1.5-1.3c-0.6-0.2-1.1-0.2-1.5-0.2c-0.5,0.1-0.9,0.2-1.2,0.5c-0.4,0.3-0.7,0.6-1,1.1
			s-0.5,1-0.7,1.5l-1.6,5l-1.7-0.6L310.6,103.5z"/>
		<path fill="#FFFFFF" d="M341.6,111c-0.2-0.8-0.5-1.5-1-2.1c-0.5-0.6-1.1-1.1-1.8-1.4c-0.8-0.4-1.6-0.6-2.5-0.6
			c-0.8,0-1.6,0.2-2.4,0.5c-0.8,0.3-1.5,0.8-2.1,1.4c-0.6,0.6-1.1,1.3-1.5,2.1c-0.4,0.9-0.7,1.7-0.7,2.6s0,1.7,0.2,2.5
			c0.2,0.8,0.6,1.5,1.1,2.1c0.5,0.6,1.2,1.2,2,1.6c0.9,0.4,1.8,0.6,2.7,0.6c0.9,0,1.7-0.2,2.6-0.6l0.8,1.7c-1.1,0.6-2.2,0.8-3.3,0.8
			c-1.1,0-2.3-0.3-3.5-0.9c-1.1-0.5-1.9-1.2-2.7-2s-1.3-1.7-1.6-2.7c-0.3-1-0.5-2.1-0.4-3.2s0.4-2.2,0.9-3.4c0.5-1.1,1.2-2,2-2.8
			c0.8-0.8,1.7-1.3,2.7-1.7c1-0.4,2-0.5,3.1-0.5c1.1,0,2.2,0.3,3.3,0.8c1,0.5,1.9,1.1,2.6,1.9c0.7,0.8,1.2,1.8,1.5,2.9L341.6,111z"
			/>
		<path fill="#FFFFFF" d="M341.8,119.6c0.4-0.7,1-1.3,1.6-1.7c0.6-0.4,1.3-0.7,1.9-0.9c0.7-0.2,1.4-0.2,2.2-0.1
			c0.7,0.1,1.5,0.4,2.2,0.8c0.7,0.4,1.3,0.9,1.8,1.5c0.5,0.6,0.8,1.2,1,1.9c0.2,0.7,0.2,1.4,0.1,2.1c-0.1,0.7-0.4,1.5-0.8,2.2
			c-0.4,0.7-1,1.3-1.6,1.7c-0.6,0.4-1.3,0.7-1.9,0.9c-0.7,0.2-1.4,0.2-2.2,0.1c-0.7-0.1-1.5-0.4-2.2-0.8c-0.7-0.4-1.3-0.9-1.8-1.5
			c-0.5-0.6-0.8-1.2-1-1.9s-0.2-1.4-0.1-2.1C341.1,121,341.3,120.3,341.8,119.6z M343.4,120.6c-0.3,0.5-0.5,1-0.6,1.5
			c-0.1,0.5-0.1,1,0,1.5c0.1,0.5,0.3,0.9,0.6,1.4c0.3,0.4,0.7,0.8,1.2,1.1c0.5,0.3,1,0.5,1.5,0.5c0.5,0.1,1,0,1.5-0.1
			c0.5-0.1,0.9-0.4,1.3-0.7c0.4-0.3,0.7-0.7,1-1.2c0.3-0.5,0.5-1,0.6-1.5c0.1-0.5,0.1-1,0-1.5c-0.1-0.5-0.3-0.9-0.6-1.4
			c-0.3-0.4-0.7-0.8-1.2-1.1c-0.5-0.3-1-0.5-1.5-0.5c-0.5-0.1-1,0-1.5,0.1c-0.5,0.1-0.9,0.4-1.3,0.7
			C344.1,119.7,343.7,120.1,343.4,120.6z"/>
		<path fill="#FFFFFF" d="M355.6,124.8c0.3-0.4,0.5-0.8,0.8-1.1c0.2-0.4,0.4-0.7,0.6-1l1.4,1c-0.2,0.2-0.3,0.5-0.5,0.7
			c-0.2,0.2-0.3,0.5-0.5,0.7l0,0c0.3-0.1,0.5-0.2,0.9-0.3c0.3-0.1,0.7-0.1,1-0.1c0.4,0,0.7,0.1,1.1,0.2c0.4,0.1,0.7,0.3,1.1,0.6
			c0.6,0.4,1,0.9,1.3,1.3c0.3,0.5,0.5,1,0.5,1.5c0,0.5,0,1-0.2,1.6c-0.2,0.5-0.5,1.1-0.8,1.6l-3.9,5.4l-1.5-1l3.8-5.3
			c0.5-0.7,0.8-1.4,0.8-2.1c0-0.7-0.4-1.2-1.1-1.7c-0.5-0.3-0.9-0.6-1.4-0.6c-0.5-0.1-0.9-0.1-1.3,0.1c-0.4,0.1-0.8,0.4-1.2,0.7
			c-0.4,0.3-0.8,0.8-1.1,1.3l-3.1,4.3l-1.5-1L355.6,124.8z"/>
		<path fill="#FFFFFF" d="M371.2,135.4l-2.5-2l-3.4,4.2c-0.2,0.3-0.4,0.5-0.6,0.8c-0.2,0.2-0.3,0.5-0.4,0.7c-0.1,0.2,0,0.5,0,0.7
			c0.1,0.2,0.3,0.5,0.6,0.7c0.2,0.2,0.4,0.3,0.7,0.4c0.3,0.1,0.5,0.2,0.8,0.3l-1,1.3c-0.3-0.1-0.7-0.2-1-0.4
			c-0.3-0.2-0.6-0.4-0.9-0.6c-0.5-0.4-0.8-0.8-1-1.2c-0.2-0.4-0.3-0.7-0.2-1.1c0-0.4,0.2-0.8,0.4-1.2c0.2-0.4,0.5-0.8,0.9-1.2
			l3.7-4.6l-1.8-1.5l1-1.2l1.8,1.5l1.9-2.4l1.4,1.1l-1.9,2.4l2.5,2L371.2,135.4z"/>
		<path fill="#FFFFFF" d="M372.3,137.7c0.3-0.4,0.6-0.7,0.9-1.1c0.3-0.3,0.5-0.6,0.8-0.9l1.3,1.1c-0.2,0.2-0.4,0.4-0.6,0.7
			c-0.2,0.2-0.4,0.5-0.6,0.7l0,0c0.3-0.1,0.6-0.2,0.9-0.2s0.7,0,1,0c0.4,0.1,0.7,0.2,1.1,0.4c0.4,0.2,0.7,0.4,1,0.7
			c0.1,0.1,0.2,0.2,0.3,0.3c0.1,0.1,0.2,0.2,0.2,0.3l-1.3,1.3c-0.2-0.3-0.4-0.5-0.6-0.8c-0.8-0.7-1.7-1-2.5-0.8
			c-0.8,0.2-1.7,0.8-2.5,1.7l-3.5,3.9l-1.3-1.2L372.3,137.7z"/>
		<path fill="#FFFFFF" d="M375.7,144.5c0.6-0.6,1.3-1,2-1.3c0.7-0.3,1.4-0.4,2.1-0.4c0.7,0,1.4,0.2,2.1,0.5s1.3,0.8,1.9,1.4
			c0.6,0.6,1,1.2,1.3,1.9s0.4,1.4,0.4,2.1s-0.2,1.4-0.4,2.1c-0.3,0.7-0.7,1.3-1.3,1.9c-0.6,0.6-1.3,1-2,1.3
			c-0.7,0.3-1.4,0.4-2.1,0.4c-0.7,0-1.4-0.2-2.1-0.5c-0.7-0.3-1.3-0.8-1.9-1.4c-0.6-0.6-1-1.2-1.3-1.9c-0.3-0.7-0.4-1.4-0.4-2.1
			c0-0.7,0.2-1.4,0.4-2.1C374.6,145.8,375.1,145.1,375.7,144.5z M377,145.9c-0.4,0.4-0.7,0.8-0.9,1.3c-0.2,0.5-0.3,0.9-0.4,1.4
			c0,0.5,0.1,1,0.2,1.5c0.2,0.5,0.5,0.9,0.9,1.3c0.4,0.4,0.8,0.7,1.3,0.9s1,0.3,1.5,0.3c0.5,0,1-0.1,1.4-0.3
			c0.5-0.2,0.9-0.5,1.3-0.9c0.4-0.4,0.7-0.8,0.9-1.3c0.2-0.5,0.3-0.9,0.4-1.4c0-0.5-0.1-1-0.2-1.5c-0.2-0.5-0.5-0.9-0.9-1.3
			s-0.8-0.7-1.3-0.9s-1-0.3-1.5-0.3c-0.5,0-1,0.1-1.4,0.3C377.9,145.2,377.4,145.5,377,145.9z"/>
		<path fill="#FFFFFF" d="M394.7,147.2l1.2,1.4l-13.1,11.4l-1.2-1.4L394.7,147.2z"/>
		<path fill="#FFFFFF" d="M402.1,158.1l2.4,3.4c0.5,0.6,0.9,1.3,1.2,2c0.4,0.7,0.6,1.4,0.7,2s0,1.3-0.2,2c-0.3,0.7-0.8,1.3-1.6,1.9
			c-1,0.7-2,1-3,0.8c-1-0.2-2-0.7-2.9-1.6l-3.5,8.1l-1.4-1.9l3.4-7.8l-1.4-2l-6,4.2l-1.1-1.6L402.1,158.1z M397.4,163.8l1,1.4
			c0.3,0.4,0.6,0.9,1,1.3c0.4,0.5,0.7,0.8,1.2,1.1c0.4,0.3,0.9,0.5,1.3,0.5c0.5,0,1-0.1,1.5-0.5c0.5-0.3,0.8-0.7,0.9-1.1
			c0.2-0.4,0.2-0.8,0.1-1.2c-0.1-0.4-0.2-0.8-0.4-1.3s-0.5-0.8-0.7-1.2l-1.6-2.2L397.4,163.8z"/>
		<path fill="#FFFFFF" d="M402.9,185.7c-1-0.1-1.9-0.4-2.6-0.9c-0.7-0.5-1.3-1.2-1.8-2c-0.4-0.7-0.7-1.5-0.8-2.2
			c-0.1-0.7,0-1.4,0.2-2.1c0.2-0.7,0.5-1.3,1-1.8s1-1.1,1.7-1.4c0.7-0.4,1.4-0.7,2.2-0.8c0.7-0.1,1.5-0.1,2.1,0.1
			c0.7,0.2,1.3,0.5,1.9,0.9c0.6,0.4,1.1,1,1.5,1.7c0.4,0.6,0.6,1.3,0.7,2c0.1,0.7,0.1,1.3-0.1,2c-0.2,0.6-0.5,1.2-1,1.8
			c-0.5,0.6-1.1,1.1-1.9,1.5l-0.5,0.3l-4.4-7.5c-0.4,0.3-0.7,0.6-1,1c-0.3,0.4-0.5,0.8-0.6,1.2c-0.1,0.4-0.1,0.9-0.1,1.3
			c0.1,0.4,0.2,0.9,0.5,1.3c0.4,0.7,0.9,1.2,1.4,1.5c0.5,0.3,1.1,0.5,1.8,0.6L402.9,185.7z M405.9,182.1c0.8-0.5,1.3-1.1,1.4-1.9
			c0.2-0.8,0-1.6-0.5-2.4c-0.5-0.9-1.2-1.4-1.9-1.7c-0.8-0.2-1.6-0.2-2.5,0.2L405.9,182.1z"/>
		<path fill="#FFFFFF" d="M412.2,184.4l0.8,1.6l-1.4,0.7l0,0c0.7,0.2,1.4,0.5,2,1c0.6,0.4,1,1,1.4,1.7c0.4,0.8,0.6,1.5,0.6,2.3
			c0,0.8,0,1.5-0.3,2.1c-0.2,0.7-0.6,1.3-1.1,1.8c-0.5,0.5-1.1,1-1.9,1.4c-0.7,0.4-1.5,0.6-2.2,0.6c-0.7,0.1-1.4,0-2.1-0.2
			c-0.7-0.2-1.3-0.6-1.8-1c-0.5-0.5-1-1-1.3-1.7c-0.4-0.9-0.6-1.7-0.5-2.6c0.1-0.8,0.3-1.5,0.7-2.1l0,0l-6.4,3.1l-0.8-1.6
			L412.2,184.4z M408.2,188.3c-0.5,0.2-0.9,0.6-1.3,0.9c-0.4,0.4-0.6,0.8-0.8,1.2c-0.2,0.5-0.3,0.9-0.2,1.5c0,0.5,0.2,1,0.4,1.6
			c0.3,0.5,0.6,1,1,1.3c0.4,0.3,0.8,0.6,1.3,0.7c0.5,0.1,1,0.2,1.5,0.1c0.5-0.1,1-0.2,1.5-0.4c0.5-0.2,0.9-0.6,1.3-0.9
			c0.4-0.4,0.6-0.8,0.8-1.2c0.2-0.5,0.3-0.9,0.2-1.5c0-0.5-0.2-1-0.4-1.6c-0.3-0.5-0.6-1-1-1.3c-0.4-0.3-0.8-0.6-1.3-0.7
			s-1-0.2-1.5-0.1C409.2,187.9,408.7,188.1,408.2,188.3z"/>
		<path fill="#FFFFFF" d="M413.2,198.9c0.8-0.3,1.6-0.4,2.3-0.4c0.7,0,1.4,0.2,2.1,0.5c0.6,0.3,1.2,0.7,1.7,1.3
			c0.5,0.6,0.9,1.2,1.2,2c0.3,0.8,0.4,1.5,0.4,2.3c0,0.8-0.2,1.5-0.4,2.1c-0.3,0.7-0.7,1.2-1.2,1.8c-0.5,0.5-1.2,0.9-2,1.2
			c-0.8,0.3-1.6,0.4-2.3,0.4c-0.7,0-1.4-0.2-2.1-0.5c-0.6-0.3-1.2-0.7-1.7-1.3c-0.5-0.6-0.9-1.2-1.2-2c-0.3-0.8-0.4-1.5-0.4-2.3
			c0-0.8,0.2-1.5,0.4-2.1c0.3-0.7,0.7-1.2,1.2-1.8C411.7,199.7,412.4,199.2,413.2,198.9z M413.9,200.8c-0.5,0.2-1,0.5-1.4,0.8
			c-0.4,0.3-0.7,0.7-0.9,1.2c-0.2,0.4-0.3,0.9-0.4,1.4c0,0.5,0.1,1,0.3,1.6c0.2,0.5,0.5,1,0.9,1.4c0.4,0.4,0.8,0.6,1.2,0.8
			c0.5,0.2,0.9,0.3,1.5,0.3c0.5,0,1-0.1,1.6-0.3c0.5-0.2,1-0.5,1.4-0.8s0.7-0.7,0.9-1.2c0.2-0.4,0.3-0.9,0.4-1.4
			c0-0.5-0.1-1-0.3-1.6c-0.2-0.5-0.5-1-0.9-1.4c-0.4-0.4-0.8-0.6-1.2-0.8c-0.5-0.2-0.9-0.3-1.5-0.3
			C414.9,200.4,414.4,200.6,413.9,200.8z"/>
		<path fill="#FFFFFF" d="M420.8,211.6c0.5-0.1,0.9-0.3,1.3-0.4c0.4-0.2,0.8-0.3,1.1-0.4l0.5,1.6c-0.3,0.1-0.6,0.2-0.8,0.3
			c-0.3,0.1-0.6,0.2-0.9,0.3l0,0c0.3,0,0.6,0.1,0.9,0.3c0.3,0.1,0.6,0.3,0.9,0.6c0.3,0.2,0.5,0.5,0.7,0.9c0.2,0.3,0.4,0.7,0.5,1.1
			c0,0.1,0.1,0.2,0.1,0.4c0,0.1,0,0.2,0,0.4l-1.8,0.4c0-0.3-0.1-0.6-0.1-1c-0.3-1.1-0.9-1.7-1.7-2s-1.8-0.2-3,0.1l-5,1.5l-0.5-1.7
			L420.8,211.6z"/>
		<path fill="#FFFFFF" d="M425.5,224.9l-0.8-3.1l-5.2,1.3c-0.3,0.1-0.7,0.2-0.9,0.3c-0.3,0.1-0.5,0.2-0.7,0.4
			c-0.2,0.2-0.3,0.4-0.4,0.6c-0.1,0.2-0.1,0.6,0,0.9c0.1,0.3,0.2,0.5,0.3,0.8c0.1,0.3,0.3,0.5,0.5,0.7l-1.6,0.5
			c-0.2-0.3-0.4-0.6-0.5-0.9c-0.2-0.4-0.3-0.7-0.3-1c-0.2-0.6-0.2-1.1-0.1-1.6c0.1-0.4,0.2-0.8,0.5-1s0.6-0.5,1-0.7
			c0.4-0.2,0.9-0.3,1.4-0.5l5.7-1.4l-0.6-2.3l1.5-0.4l0.6,2.3l3-0.7l0.4,1.7l-3,0.7l0.8,3.1L425.5,224.9z"/>
		<path fill="#FFFFFF" d="M419.8,228.7c-0.4,0.4-0.6,0.9-0.8,1.3c-0.2,0.5-0.2,1-0.1,1.6c0.1,0.3,0.1,0.5,0.2,0.8
			c0.1,0.3,0.3,0.5,0.4,0.7s0.4,0.3,0.6,0.4c0.2,0.1,0.5,0.1,0.8,0.1c0.3-0.1,0.5-0.2,0.7-0.3c0.2-0.2,0.3-0.4,0.4-0.6
			c0.1-0.2,0.1-0.5,0.2-0.8c0-0.3,0-0.6,0-0.9c0-0.5,0-1,0.1-1.5c0-0.5,0.1-0.9,0.3-1.3c0.2-0.4,0.4-0.7,0.7-1s0.7-0.5,1.3-0.6
			c0.5-0.1,1-0.1,1.4,0.1c0.4,0.2,0.8,0.4,1.1,0.7c0.3,0.3,0.6,0.7,0.8,1.2c0.2,0.4,0.4,0.9,0.5,1.4c0.1,0.8,0.1,1.5,0,2.2
			c-0.2,0.7-0.6,1.3-1.2,1.8l-1.3-1.3c0.3-0.3,0.6-0.7,0.7-1.1c0.2-0.4,0.2-0.9,0.1-1.4c0-0.2-0.1-0.5-0.2-0.7s-0.2-0.4-0.4-0.6
			c-0.2-0.2-0.3-0.3-0.6-0.4c-0.2-0.1-0.4-0.1-0.7-0.1c-0.2,0-0.4,0.2-0.5,0.3c-0.1,0.2-0.2,0.4-0.3,0.7c-0.1,0.3-0.1,0.6-0.2,0.9
			c0,0.3,0,0.7,0,1c0,0.5,0,1-0.1,1.4c-0.1,0.4-0.2,0.9-0.4,1.2s-0.4,0.7-0.8,0.9c-0.3,0.3-0.8,0.4-1.3,0.5
			c-0.6,0.1-1.1,0.1-1.6-0.1c-0.5-0.2-0.9-0.4-1.2-0.8c-0.3-0.3-0.6-0.8-0.8-1.2c-0.2-0.5-0.4-1-0.5-1.5c-0.2-0.9-0.2-1.7,0-2.4
			c0.2-0.7,0.6-1.4,1.2-2.1L419.8,228.7z"/>
	</g>
</g>
<g id="center">
	
		<rect x="54.5" y="250.2" fill="#808285" stroke="#FFFFFF" stroke-width="2.21" stroke-miterlimit="10" width="418.4" height="33.6"/>
	<g>
		<path fill="#FFFFFF" d="M103.8,264c-0.3-0.4-0.6-0.7-1.1-0.9c-0.4-0.2-0.9-0.3-1.4-0.3c-0.3,0-0.6,0-0.9,0.1
			c-0.3,0.1-0.5,0.2-0.7,0.3c-0.2,0.1-0.4,0.3-0.5,0.6s-0.2,0.5-0.2,0.8c0,0.5,0.2,0.8,0.5,1.1c0.3,0.3,0.7,0.5,1.2,0.7
			c0.5,0.2,1,0.4,1.6,0.5c0.6,0.2,1.1,0.4,1.6,0.7c0.5,0.3,0.9,0.7,1.2,1.2c0.3,0.5,0.5,1.2,0.5,2c0,0.8-0.1,1.4-0.4,2
			s-0.7,1-1.1,1.4c-0.5,0.4-1,0.7-1.6,0.8c-0.6,0.2-1.3,0.3-2,0.3c-0.9,0-1.7-0.1-2.5-0.4c-0.8-0.3-1.5-0.8-2.1-1.5l1.9-1.8
			c0.3,0.5,0.7,0.8,1.2,1.1s1,0.4,1.6,0.4c0.3,0,0.6,0,0.9-0.1c0.3-0.1,0.6-0.2,0.8-0.4s0.4-0.4,0.6-0.6c0.1-0.2,0.2-0.5,0.2-0.9
			c0-0.5-0.2-0.9-0.5-1.2c-0.3-0.3-0.7-0.5-1.2-0.7c-0.5-0.2-1-0.4-1.6-0.5c-0.6-0.2-1.1-0.4-1.6-0.7s-0.9-0.7-1.2-1.2
			c-0.3-0.5-0.5-1.2-0.5-2c0-0.7,0.1-1.4,0.4-1.9c0.3-0.5,0.7-1,1.2-1.3c0.5-0.4,1-0.6,1.7-0.8c0.6-0.2,1.3-0.3,1.9-0.3
			c0.7,0,1.5,0.1,2.2,0.3c0.7,0.2,1.3,0.6,1.9,1.1L103.8,264z"/>
		<path fill="#FFFFFF" d="M112.4,260.9h9.4v2.3h-6.9v3.5h6.5v2.3h-6.5v3.8h7.2v2.3h-9.7V260.9z"/>
		<path fill="#FFFFFF" d="M128.6,260.9h4.9c0.7,0,1.3,0.1,2,0.2c0.6,0.1,1.2,0.3,1.7,0.7c0.5,0.3,0.9,0.7,1.2,1.2s0.4,1.2,0.4,2
			c0,1-0.3,1.9-0.8,2.6c-0.6,0.7-1.4,1.1-2.4,1.3l3.8,6.3h-3l-3.3-6h-1.8v6h-2.5V260.9z M133.1,266.9c0.4,0,0.7,0,1.1-0.1
			c0.4,0,0.7-0.1,1-0.2c0.3-0.1,0.5-0.3,0.7-0.6c0.2-0.3,0.3-0.6,0.3-1.1c0-0.4-0.1-0.7-0.3-1c-0.2-0.3-0.4-0.4-0.7-0.6
			c-0.3-0.1-0.6-0.2-0.9-0.2s-0.7-0.1-1-0.1h-2.2v3.8H133.1z"/>
		<path fill="#FFFFFF" d="M143.6,260.9h2.9l3.9,10.7l4-10.7h2.7l-5.7,14.2h-2.2L143.6,260.9z"/>
		<path fill="#FFFFFF" d="M162.5,260.9h2.5v14.2h-2.5V260.9z"/>
		<path fill="#FFFFFF" d="M181.8,264.2c-0.5-0.6-1-0.9-1.5-1.1c-0.5-0.2-1-0.3-1.5-0.3c-0.7,0-1.4,0.1-2,0.4
			c-0.6,0.3-1.1,0.6-1.5,1.1s-0.8,1-1,1.6c-0.2,0.6-0.4,1.3-0.4,2c0,0.8,0.1,1.5,0.4,2.1c0.2,0.6,0.6,1.2,1,1.7s0.9,0.8,1.5,1.1
			c0.6,0.3,1.3,0.4,2,0.4c0.6,0,1.1-0.1,1.7-0.4c0.5-0.3,1-0.7,1.5-1.3l2.1,1.5c-0.6,0.9-1.4,1.5-2.3,1.9c-0.9,0.4-1.9,0.6-2.9,0.6
			c-1.1,0-2.1-0.2-3-0.5c-0.9-0.4-1.7-0.9-2.4-1.5c-0.7-0.6-1.2-1.4-1.6-2.3c-0.4-0.9-0.6-1.9-0.6-3c0-1.1,0.2-2.2,0.6-3.1
			c0.4-0.9,0.9-1.7,1.6-2.4c0.7-0.7,1.4-1.2,2.4-1.5c0.9-0.4,1.9-0.5,3-0.5c1,0,1.9,0.2,2.7,0.5c0.8,0.3,1.6,0.9,2.3,1.7
			L181.8,264.2z"/>
		<path fill="#FFFFFF" d="M189.8,260.9h9.4v2.3h-6.9v3.5h6.5v2.3h-6.5v3.8h7.2v2.3h-9.7V260.9z"/>
		<path fill="#FFFFFF" d="M215.2,268.1c0-1.1,0.2-2.2,0.6-3.1c0.4-0.9,0.9-1.7,1.5-2.4s1.4-1.2,2.4-1.5c0.9-0.4,1.9-0.5,3-0.5
			c1.1,0,2.1,0.1,3,0.5c0.9,0.3,1.7,0.8,2.4,1.5s1.2,1.4,1.6,2.4c0.4,0.9,0.6,1.9,0.6,3.1c0,1.1-0.2,2.1-0.6,3
			c-0.4,0.9-0.9,1.7-1.6,2.3s-1.5,1.2-2.4,1.5c-0.9,0.4-1.9,0.6-3,0.6c-1.1,0-2.1-0.2-3-0.5c-0.9-0.4-1.7-0.9-2.4-1.5
			s-1.2-1.4-1.5-2.3C215.4,270.2,215.2,269.2,215.2,268.1z M217.8,267.9c0,0.8,0.1,1.5,0.3,2.1c0.2,0.6,0.6,1.2,1,1.7
			s0.9,0.8,1.5,1.1c0.6,0.3,1.3,0.4,2,0.4c0.7,0,1.4-0.1,2-0.4c0.6-0.3,1.1-0.6,1.5-1.1c0.4-0.5,0.8-1,1-1.7
			c0.2-0.6,0.4-1.3,0.4-2.1c0-0.7-0.1-1.4-0.4-2s-0.6-1.2-1-1.6c-0.4-0.5-0.9-0.8-1.5-1.1c-0.6-0.3-1.3-0.4-2-0.4
			c-0.7,0-1.4,0.1-2,0.4c-0.6,0.3-1.1,0.6-1.5,1.1s-0.8,1-1,1.6S217.8,267.2,217.8,267.9z"/>
		<path fill="#FFFFFF" d="M236.6,260.9h4.9c0.7,0,1.3,0.1,2,0.2c0.6,0.1,1.2,0.3,1.7,0.7s0.9,0.7,1.2,1.2s0.4,1.2,0.4,2
			c0,1-0.3,1.9-0.9,2.6c-0.6,0.7-1.4,1.1-2.4,1.3l3.8,6.3h-3l-3.3-6h-1.8v6h-2.5V260.9z M241.1,266.9c0.4,0,0.7,0,1.1-0.1
			c0.4,0,0.7-0.1,1-0.2c0.3-0.1,0.5-0.3,0.7-0.6c0.2-0.3,0.3-0.6,0.3-1.1c0-0.4-0.1-0.7-0.3-1c-0.2-0.3-0.4-0.4-0.7-0.6
			c-0.3-0.1-0.6-0.2-0.9-0.2c-0.3,0-0.7-0.1-1-0.1h-2.2v3.8H241.1z"/>
		<path fill="#FFFFFF" d="M265.8,274c-1.7,0.9-3.7,1.4-5.9,1.4c-1.1,0-2.1-0.2-3-0.5c-0.9-0.4-1.7-0.9-2.4-1.5s-1.2-1.4-1.5-2.3
			c-0.4-0.9-0.6-1.9-0.6-3c0-1.1,0.2-2.2,0.6-3.1s0.9-1.7,1.5-2.4s1.4-1.2,2.4-1.5c0.9-0.4,1.9-0.5,3-0.5c1.1,0,2.1,0.1,3,0.4
			c0.9,0.3,1.8,0.7,2.5,1.4l-1.9,1.9c-0.5-0.4-1-0.8-1.6-1c-0.6-0.2-1.3-0.4-2-0.4c-0.7,0-1.4,0.1-2,0.4c-0.6,0.3-1.1,0.6-1.5,1.1
			s-0.8,1-1,1.6s-0.3,1.3-0.3,2c0,0.8,0.1,1.5,0.3,2.1c0.2,0.6,0.6,1.2,1,1.7s0.9,0.8,1.5,1.1c0.6,0.3,1.3,0.4,2,0.4
			c0.6,0,1.2-0.1,1.8-0.2s1.1-0.3,1.5-0.6v-3.3h-2.9v-2.3h5.4V274z"/>
		<path fill="#FFFFFF" d="M277.3,260.9h2.2l6.1,14.2h-2.9l-1.3-3.2h-6.1l-1.3,3.2h-2.8L277.3,260.9z M280.5,269.7l-2.2-5.8l-2.2,5.8
			H280.5z"/>
		<path fill="#FFFFFF" d="M291.2,260.9h3.3l6.9,10.5h0v-10.5h2.5v14.2h-3.2l-7-10.9h0v10.9h-2.5V260.9z"/>
		<path fill="#FFFFFF" d="M311.1,260.9h2.5v14.2h-2.5V260.9z"/>
		<path fill="#FFFFFF" d="M319.8,272.8l7.6-9.6h-7.4v-2.3h10.6v2.3l-7.6,9.6h7.7v2.3h-10.8V272.8z"/>
		<path fill="#FFFFFF" d="M341.5,260.9h2.2l6.1,14.2h-2.9l-1.3-3.2h-6.1l-1.3,3.2h-2.8L341.5,260.9z M344.7,269.7l-2.2-5.8l-2.2,5.8
			H344.7z"/>
		<path fill="#FFFFFF" d="M356.4,263.2h-4.3v-2.3h11.2v2.3h-4.3v11.9h-2.5V263.2z"/>
		<path fill="#FFFFFF" d="M368.9,260.9h2.5v14.2h-2.5V260.9z"/>
		<path fill="#FFFFFF" d="M377.8,268.1c0-1.1,0.2-2.2,0.6-3.1s0.9-1.7,1.5-2.4s1.4-1.2,2.4-1.5c0.9-0.4,1.9-0.5,3-0.5
			c1.1,0,2.1,0.1,3,0.5c0.9,0.3,1.7,0.8,2.4,1.5s1.2,1.4,1.6,2.4c0.4,0.9,0.6,1.9,0.6,3.1c0,1.1-0.2,2.1-0.6,3
			c-0.4,0.9-0.9,1.7-1.6,2.3s-1.5,1.2-2.4,1.5c-0.9,0.4-1.9,0.6-3,0.6c-1.1,0-2.1-0.2-3-0.5c-0.9-0.4-1.7-0.9-2.4-1.5
			s-1.2-1.4-1.5-2.3C378,270.2,377.8,269.2,377.8,268.1z M380.4,267.9c0,0.8,0.1,1.5,0.3,2.1c0.2,0.6,0.6,1.2,1,1.7s0.9,0.8,1.5,1.1
			c0.6,0.3,1.3,0.4,2,0.4c0.7,0,1.4-0.1,2-0.4c0.6-0.3,1.1-0.6,1.5-1.1c0.4-0.5,0.8-1,1-1.7c0.2-0.6,0.4-1.3,0.4-2.1
			c0-0.7-0.1-1.4-0.4-2s-0.6-1.2-1-1.6c-0.4-0.5-0.9-0.8-1.5-1.1c-0.6-0.3-1.3-0.4-2-0.4c-0.7,0-1.4,0.1-2,0.4
			c-0.6,0.3-1.1,0.6-1.5,1.1s-0.8,1-1,1.6S380.4,267.2,380.4,267.9z"/>
		<path fill="#FFFFFF" d="M399.2,260.9h3.3l6.9,10.5h0v-10.5h2.5v14.2h-3.2l-7-10.9h0v10.9h-2.5V260.9z"/>
		<path fill="#FFFFFF" d="M426.1,264c-0.3-0.4-0.6-0.7-1.1-0.9c-0.4-0.2-0.9-0.3-1.4-0.3c-0.3,0-0.6,0-0.8,0.1
			c-0.3,0.1-0.5,0.2-0.7,0.3c-0.2,0.1-0.4,0.3-0.5,0.6c-0.1,0.2-0.2,0.5-0.2,0.8c0,0.5,0.2,0.8,0.5,1.1s0.7,0.5,1.2,0.7
			c0.5,0.2,1,0.4,1.6,0.5c0.6,0.2,1.1,0.4,1.6,0.7s0.9,0.7,1.2,1.2c0.3,0.5,0.5,1.2,0.5,2c0,0.8-0.1,1.4-0.4,2
			c-0.3,0.6-0.7,1-1.1,1.4c-0.5,0.4-1,0.7-1.6,0.8c-0.6,0.2-1.3,0.3-2,0.3c-0.9,0-1.7-0.1-2.5-0.4s-1.5-0.8-2.1-1.5l1.9-1.8
			c0.3,0.5,0.7,0.8,1.2,1.1s1,0.4,1.6,0.4c0.3,0,0.6,0,0.9-0.1c0.3-0.1,0.6-0.2,0.8-0.4s0.4-0.4,0.6-0.6c0.1-0.2,0.2-0.5,0.2-0.9
			c0-0.5-0.2-0.9-0.5-1.2c-0.3-0.3-0.7-0.5-1.2-0.7c-0.5-0.2-1-0.4-1.6-0.5c-0.6-0.2-1.1-0.4-1.6-0.7c-0.5-0.3-0.9-0.7-1.2-1.2
			c-0.3-0.5-0.5-1.2-0.5-2c0-0.7,0.2-1.4,0.5-1.9c0.3-0.5,0.7-1,1.2-1.3c0.5-0.4,1-0.6,1.7-0.8s1.3-0.3,1.9-0.3
			c0.7,0,1.5,0.1,2.2,0.3c0.7,0.2,1.3,0.6,1.9,1.1L426.1,264z"/>
	</g>
</g>
<g id="R">
	<g>
		<path fill="#231F20" d="M434.9,399.1c6.4,0,11.7,5,11.7,11.7c0,6.7-5.4,11.7-11.7,11.7c-6.4,0-11.7-5-11.7-11.7
			C423.2,404.1,428.5,399.1,434.9,399.1z M434.9,420.8c5.4,0,9.6-4.4,9.6-10c0-5.7-4.3-10-9.6-10c-5.4,0-9.7,4.4-9.7,10
			C425.2,416.5,429.5,420.8,434.9,420.8z M430.4,403.9h5.2c3.2,0,4.8,1.3,4.8,3.9c0,2.5-1.6,3.5-3.6,3.8l3.9,6.1h-2.2l-3.7-5.9h-2.2
			v5.9h-2.1V403.9z M432.5,410h2.1c1.9,0,3.7-0.1,3.7-2.3c0-1.9-1.6-2.1-3.1-2.1h-2.7V410z"/>
	</g>
</g>
</svg>
