<?xml version="1.0" encoding="utf-8"?>
<!-- Generator: Adobe Illustrator 22.0.1, SVG Export Plug-In . SVG Version: 6.00 Build 0)  -->
<svg version="1.1" id="Layer_1" xmlns="http://www.w3.org/2000/svg" xmlns:xlink="http://www.w3.org/1999/xlink" x="0px" y="0px"
	 viewBox="0 0 1037.1 1037.1" style="enable-background:new 0 0 1037.1 1037.1;" xml:space="preserve">
<style type="text/css">
	.st0{fill:#FFFFFF;}
	.st1{fill:#31313A;}
	.st2{opacity:0.8;fill:#F7931E;}
	.st3{opacity:0.7;fill:#F7931E;}
	.st4{opacity:0.8;fill:#FBB03B;}
</style>
<g>
	<g>
		<polygon class="st0" points="527.2,74.6 100.9,304.3 100.9,513.7 100.9,656.7 100.9,733.3 518.3,963.1 935.7,733.3 935.7,646.5
			935.7,513.7 935.7,294.1 		"/>
		<g>
			<polygon class="st1" points="100.9,656.7 527.2,426.9 935.7,646.5 935.7,733.3 518.3,963.1 100.9,733.3 			"/>
			<polygon class="st2" points="518.3,521 518.3,963.1 100.9,733.3 100.9,304.3 			"/>
			<polygon class="st3" points="935.7,294.1 935.7,733.3 518.3,963.1 518.3,521 			"/>
			<polygon class="st4" points="100.9,304.3 527.2,74.6 935.7,294.1 935.7,513.7 518.3,743.5 100.9,513.7 			"/>
		</g>
	</g>
</g>
</svg>
