<svg width="144" height="24" viewBox="0 0 144 24" fill="none" xmlns="http://www.w3.org/2000/svg">
<path fill-rule="evenodd" clip-rule="evenodd" d="M114.688 12.6129V17.9874H112.439V12.5504C112.439 11.1771 111.435 10.0598 110.2 10.0598C108.966 10.0598 107.961 11.1771 107.961 12.5504V17.9874H105.712V4.49298H107.961V8.50786C108.621 8.1051 109.385 7.87326 110.2 7.87326C112.675 7.87326 114.688 9.99947 114.688 12.6129ZM104.566 13.9359C104.566 14.8757 104.159 15.8344 103.45 16.5663C102.825 17.2115 101.661 17.9806 99.6706 17.9806H99.1986C97.2941 17.9806 95.522 16.9242 94.4457 15.151L96.412 14.0541C97.1284 15.2374 98.3988 15.9471 99.7399 15.91C100.381 15.91 100.978 15.7532 101.42 15.4683C101.968 15.1151 102.257 14.5922 102.257 13.9561C102.257 12.8947 100.853 12.5101 99.0167 12.1176C97.964 11.8875 96.878 11.5959 96.0673 11.0261C95.1965 10.414 94.7732 9.55197 94.7732 8.39091C94.7732 6.51173 96.5384 4.56795 99.4941 4.56789L99.5049 4.56745C101.458 4.56745 103.137 5.3954 104.241 6.90094L102.494 7.95904C101.837 7.06049 100.695 6.53222 99.5003 6.57801C98.895 6.57864 98.332 6.72051 97.9147 6.97759C97.3891 7.30139 97.1113 7.78312 97.1113 8.37074C97.1113 9.4006 98.4219 9.78219 100.274 10.209C101.338 10.4505 102.437 10.753 103.258 11.3265C104.138 11.9416 104.566 12.7951 104.566 13.9359ZM116.137 17.9874H118.386V7.86583H116.137V17.9874ZM124.539 10.1223C125.349 10.1223 126.07 10.5448 126.535 11.2005L122.005 12.8492C122.045 11.3381 123.166 10.1223 124.539 10.1223ZM124.539 15.7433C123.768 15.7433 123.077 15.3596 122.611 14.756L129.289 12.3251C129.004 9.82092 126.984 7.87326 124.539 7.87326C121.901 7.87326 119.754 10.143 119.754 12.9328C119.754 15.7227 121.901 17.9924 124.539 17.9924C126.834 17.9924 128.701 16.6528 129.374 14.595H126.887C126.385 15.3152 125.547 15.7433 124.539 15.7433ZM139.154 15.7433C137.756 15.7433 136.618 14.4825 136.618 12.9328C136.618 11.3831 137.756 10.1223 139.154 10.1223C140.553 10.1223 141.691 11.3831 141.691 12.9328C141.691 14.4825 140.553 15.7433 139.154 15.7433ZM141.691 4.49298V8.77037C140.918 8.19412 140.086 7.87326 139.154 7.87326C136.516 7.87326 134.369 10.143 134.369 12.9328C134.369 15.7227 136.516 17.9924 139.154 17.9924C141.793 17.9924 143.94 15.7227 143.94 12.9328V4.49298H141.691ZM130.755 17.9874H133.004V4.49298H130.755V17.9874ZM79.5527 15.7433C78.154 15.7433 77.0162 14.4825 77.0162 12.9328C77.0162 11.3831 78.154 10.1223 79.5527 10.1223C80.9514 10.1223 82.0893 11.3831 82.0893 12.9328C82.0893 14.4825 80.9514 15.7433 79.5527 15.7433ZM79.5527 7.87326C76.9139 7.87326 74.7671 10.143 74.7671 12.9328C74.7671 15.7227 76.9139 17.9924 79.5527 17.9924C82.1915 17.9924 84.3383 15.7227 84.3383 12.9328C84.3383 10.143 82.1915 7.87326 79.5527 7.87326ZM118.479 5.71064C118.479 6.3831 117.934 6.92824 117.262 6.92824C116.589 6.92824 116.044 6.3831 116.044 5.71064C116.044 5.03812 116.589 4.49298 117.262 4.49298C117.934 4.49298 118.479 5.03812 118.479 5.71064ZM87.7071 7.87495H89.9577V10.124H87.7071V14.2842C87.7071 15.0897 88.3624 15.8074 89.1679 15.8074L89.9577 15.8264V17.994H89.1679C87.1223 17.994 85.458 16.3298 85.458 14.2842V4.50254H87.7071V7.87495ZM51.1633 7.87495H53.414V10.124H51.1633V14.2842C51.1633 15.0897 51.8186 15.8074 52.6241 15.8074L53.414 15.8264V17.994H52.6241C50.5785 17.994 48.9143 16.3298 48.9143 14.2842V4.50254H51.1633V7.87495ZM43.0152 15.745C41.6165 15.745 40.4786 14.4842 40.4786 12.9344C40.4786 11.3847 41.6165 10.124 43.0152 10.124C44.4139 10.124 45.5517 11.3847 45.5517 12.9344C45.5517 14.4842 44.4139 15.745 43.0152 15.745ZM43.0152 7.87495C40.3764 7.87495 38.2296 10.1447 38.2296 12.9344C38.2296 15.7243 40.3764 17.994 43.0152 17.994C45.654 17.994 47.8008 15.7243 47.8008 12.9344C47.8008 10.1447 45.654 7.87495 43.0152 7.87495ZM34.8541 4.49298H37.1031V17.9874H34.8541V12.3648H29.2314V17.9874H26.9824V4.49298H29.2314V10.1157H34.8541V4.49298ZM62.9694 14.8554C62.9694 15.6084 62.629 16.374 62.0354 16.9559C61.5186 17.4624 60.5635 18.0638 58.9437 18.0638C58.9331 18.0638 58.9227 18.0638 58.9121 18.0638C58.8007 18.0717 58.6894 18.0756 58.5787 18.0756C56.9251 18.0756 55.3592 17.1987 54.522 15.778L54.4792 15.7053L56.5131 14.6273L56.5527 14.6971C57.0471 15.5695 57.9853 16.0972 58.9974 16.0709C59.8492 16.0708 60.7066 15.6996 60.7066 14.8702C60.7066 14.269 59.6569 14.0069 58.3889 13.7493C56.7088 13.4004 54.9169 12.8545 54.9169 10.7798C54.9169 9.28278 56.3709 7.73439 58.804 7.73439C60.4024 7.63943 61.9108 8.35593 62.8341 9.65118L62.8857 9.72352L60.9894 10.8143L60.9462 10.7511C60.4676 10.0506 59.6696 9.65093 58.8146 9.68279C58.0105 9.68285 57.2023 10.0175 57.2023 10.7649C57.2023 11.2945 57.963 11.5579 59.4611 11.886C61.1583 12.2517 62.9694 12.8129 62.9694 14.8554ZM68.8802 15.745C67.4815 15.745 66.3436 14.4842 66.3436 12.9344C66.3436 11.3847 67.4815 10.124 68.8802 10.124C70.2788 10.124 71.4167 11.3847 71.4167 12.9344C71.4167 14.4842 70.2788 15.745 68.8802 15.745ZM68.8802 7.87495C66.2414 7.87495 64.0946 10.1447 64.0946 12.9344V21.3743H66.3436V17.0969C67.1166 17.6732 67.9489 17.994 68.8802 17.994C71.5189 17.994 73.6657 15.7243 73.6657 12.9344C73.6657 10.1447 71.5189 7.87495 68.8802 7.87495Z" fill="#312C2C"/>
<path d="M0.374837 6.10352e-05C0.167802 6.10352e-05 0 0.167863 0 0.374898V9.84804C0 17.0303 4.17175 21.7027 10.7792 23.596C11.0792 23.682 11.3982 23.682 11.6982 23.596C18.3057 21.7027 22.4774 17.0303 22.4774 9.84804V0.374898C22.4774 0.167863 22.3096 6.10352e-05 22.1026 6.10352e-05H0.374837Z" fill="#2FA6F8"/>
<path d="M13.5638 4.1946C14.0916 4.57337 14.5661 5.02755 14.9738 5.54377C15.4269 6.11833 15.7833 6.75162 16.0331 7.4262C16.4093 8.44351 16.5337 9.51023 16.4033 10.5974C16.1939 12.3393 15.3313 13.9113 13.975 15.0238C13.9207 15.0683 13.9025 15.1412 13.9259 15.2048C13.9299 15.2156 13.9354 15.2262 13.9418 15.2364C13.9863 15.3057 14.0756 15.3321 14.1503 15.2977C15.169 14.8282 16.04 14.0891 16.6693 13.1605C18.5841 10.3367 17.815 6.47655 14.9539 4.55663C14.5668 4.29674 14.151 4.07934 13.7185 3.91122C13.6414 3.88099 13.5541 3.91247 13.5147 3.98438C13.4756 4.05666 13.4969 4.14675 13.5638 4.1946Z" fill="#5AE5CA"/>
<path d="M18.1844 11.73C17.9756 12.3245 17.6838 12.8894 17.3177 13.4087C16.91 13.9859 16.4233 14.4888 15.8709 14.9032C15.0377 15.5278 14.0935 15.9305 13.0638 16.1009C11.4141 16.3735 9.74919 15.9908 8.37579 15.0238C8.32087 14.9851 8.24934 14.9876 8.19718 15.0266C8.18837 15.0333 8.18012 15.0412 8.17244 15.05C8.12052 15.1101 8.11977 15.2005 8.17081 15.261C8.86707 16.0856 9.77162 16.7001 10.7865 17.0379C13.8728 18.0664 17.2063 16.3112 18.2164 13.1249C18.3531 12.6937 18.4434 12.2471 18.4843 11.7982C18.4918 11.7182 18.4402 11.6452 18.3641 11.6278C18.2876 11.6106 18.2108 11.6547 18.1844 11.73Z" fill="#0F5AC4"/>
<path d="M12.7423 18.0442C12.1186 18.0296 11.4973 17.9261 10.8965 17.737C10.2282 17.5261 9.60598 17.2161 9.04697 16.8153C8.20434 16.2106 7.53669 15.43 7.06189 14.4946C6.30154 12.9957 6.15385 11.2773 6.64551 9.65616C6.66525 9.59125 6.64101 9.52341 6.58841 9.48555C6.57942 9.47912 6.56942 9.47374 6.5588 9.46912C6.48633 9.43807 6.40093 9.46562 6.35951 9.53359C5.79519 10.46 5.49258 11.5208 5.48402 12.6009C5.45728 15.8861 8.12824 18.5381 11.4381 18.5112C11.8861 18.5076 12.3343 18.4547 12.7696 18.3536C12.8473 18.3357 12.9003 18.2633 12.8935 18.1848C12.8863 18.1059 12.8213 18.046 12.7423 18.0442Z" fill="#0B4393"/>
<path d="M5.13603 14.817C4.95936 14.2134 4.86715 13.5844 4.86184 12.9483C4.85647 12.2406 4.95855 11.5461 5.1654 10.8839C5.4777 9.88555 6.00915 9.00031 6.74527 8.25182C7.92482 7.05291 9.49827 6.37364 11.1754 6.33878C11.2425 6.33747 11.299 6.29292 11.3187 6.23057C11.3219 6.21995 11.324 6.20871 11.3251 6.19703C11.3322 6.11769 11.2802 6.04434 11.2035 6.02579C10.1587 5.77365 9.06714 5.81469 8.04714 6.14436C4.94468 7.14605 3.26228 10.5404 4.29802 13.7106C4.43815 14.1396 4.62482 14.5535 4.85297 14.9399C4.89351 15.009 4.97791 15.0372 5.04982 15.0061C5.12185 14.9745 5.15852 14.8933 5.13603 14.817Z" fill="#F0E772"/>
<path d="M5.87657 6.5068C6.39104 6.14839 6.95523 5.86314 7.55272 5.6591C8.21762 5.4327 8.90282 5.3135 9.58965 5.30513C10.6251 5.29289 11.6212 5.52653 12.5509 5.99952C14.0402 6.7575 15.1604 8.05631 15.7052 9.65618C15.727 9.72028 15.7862 9.76057 15.8509 9.75995C15.8619 9.75976 15.8732 9.7582 15.8845 9.75564C15.9614 9.73764 16.0146 9.66474 16.0087 9.58533C15.9271 8.50293 15.5551 7.46744 14.9332 6.59088C13.0425 3.92442 9.33201 3.36997 6.66267 5.35598C6.30139 5.62468 5.96859 5.93342 5.67435 6.2734C5.62168 6.33387 5.62087 6.42377 5.67216 6.48312C5.72383 6.54241 5.81154 6.55228 5.87657 6.5068Z" fill="#F75C64"/>
</svg>
