<svg version="1.1" id="Layer_1" xmlns:x="ns_extend;" xmlns:i="ns_ai;" xmlns:graph="ns_graphs;" xmlns="http://www.w3.org/2000/svg" xmlns:xlink="http://www.w3.org/1999/xlink" x="0px" y="0px" viewBox="0 0 334.8 107" style="enable-background:new 0 0 334.8 107;" xml:space="preserve">
 <style type="text/css">
  .st0{fill:#005151;}
	.st1{fill:#30CEBB;}
 </style>
 <metadata>
  <sfw xmlns="ns_sfw;">
   <slices>
   </slices>
   <sliceSourceBounds bottomLeftOrigin="true" height="107" width="334.8" x="-289.3" y="-359.5">
   </sliceSourceBounds>
  </sfw>
 </metadata>
 <g>
  <path class="st0" d="M212.8,107c-3.1,0-6.2-1.2-8.6-3.6l-48.8-49.9l48.8-49.9c2.4-2.4,5.5-3.6,8.6-3.6c6.8,0,11.9,5.6,11.9,11.9
		c0,3-1.1,6.1-3.4,8.5l-32.4,33.1l32.4,33.1c2.3,2.4,3.4,5.4,3.4,8.5C224.7,101.5,219.6,107,212.8,107z">
  </path>
  <path class="st0" d="M141.7,107c-6.6,0-12-5.4-12-12V12c0-6.6,5.4-12,12-12s12,5.4,12,12v83C153.7,101.6,148.3,107,141.7,107z">
  </path>
  <path class="st0" d="M291.9,107c-31,0-54.8-20.9-54.8-53.4c0-29.2,20.4-53.5,54.8-53.5c9.8,0,20.2,2.5,28.6,7.5
		c3.8,2.2,5.8,6.2,5.8,10.3c0,6.2-5,11.9-11.9,12c-2.1,0-4.2-0.6-6.2-1.7c-4.5-2.5-10-4.5-16.1-4.5c-18.8,0-30.4,12.9-30.4,29.9
		c0,18.2,12.8,29.8,30.4,29.8c6.3,0,13.9-2.3,18.7-5.6v-11h-8c-6.6,0-12-5.4-12-12s5.4-12,12-12h20c6.6,0,12,5.4,12,12v27.5
		c0,3.6-1.5,7-4,9.5C320.7,101.6,306.8,107,291.9,107z">
  </path>
  <circle class="st1" cx="12.7" cy="12.7" r="12.7">
  </circle>
  <circle class="st1" cx="90.2" cy="12.7" r="12.7">
  </circle>
  <path class="st0" d="M51.4,107c-28,0-50.7-22.8-50.7-50.7v-8.1c0-6.6,5.4-12,12-12s12,5.4,12,12v8.4c0,14.8,8.8,26.8,26.8,26.8
		c16.9,0,26.8-12,26.8-26.8v-8.4c0-6.6,5.4-12,12-12s12,5.4,12,12v8.1C102.2,84.2,79.4,107,51.4,107z">
  </path>
 </g>
</svg>