<?xml version="1.0" encoding="UTF-8"?><svg id="Layer_2" xmlns="http://www.w3.org/2000/svg" viewBox="0 0 544.65 146.85"><defs><style>.cls-1{fill:#10052f;}</style></defs><g id="Layer_1-2"><path class="cls-1" d="m97.64,36.17v15.31c-.37,5.84-16.25,8.11-16.25,8.11v-13.16h-10.4c-1.09,0-1.97-.88-1.97-1.97v-10.21c0-1.09.88-1.97,1.97-1.97h22.77c2.14,0,3.88,1.74,3.88,3.88Z"/><path class="cls-1" d="m231.97,58.95v13.54c-4.77,2.67-13.62,4.14-20.44,4.14-4.72,0-9.13-.73-13.17-2.05-21.15-30.62-4.97-49.56-3.67-51-3.08,3.81-4.65,8.74-4.65,14.16,0,12.63,8.49,22.85,24,22.85,5.28,0,10.77-1.23,15.3-3.31,1.22-.56,2.62.32,2.62,1.67Z"/><path class="cls-1" d="m231.97,4.66v14.33c0,1.03-1.14,1.63-2,1.07-4.25-2.73-10.36-4.34-16.55-4.34-8.49,0-14.75,3-18.64,7.77,0,0-.03.03-.08.09-1.3,1.44-17.48,20.37,3.67,51-15.75-5.18-25.72-19.57-25.72-36.1,0-20.86,15.83-38.47,38.79-38.47,7.02,0,15.62,1.63,20.55,4.66Z"/><path class="cls-1" d="m97.64,51.48v12.77c0,3.95-2.48,7.47-6.21,8.78-6.17,2.16-14.1,3.58-20.83,3.58-22.75,0-39.31-16.14-39.31-38.36S48.79,0,71.12,0c6.09,0,14.75,1.14,21.45,3.88.6.24.98.84.98,1.48v12.9c0,1.18-1.23,1.97-2.3,1.45-5.27-2.52-12.08-3.78-17.73-3.78-15.09,0-25.26,9.07-25.26,22.53s9.64,22.22,24.53,22.22c2.83,0,5.81-.31,8.59-1.1,0,0,15.88-2.27,16.25-8.11Z"/><path class="cls-1" d="m138.44,1.47h-28.72v73.37h13.42c1.62,0,2.94-1.31,2.94-2.94v-20.75h9.8s8.44.19,16.77-3.67c7.75-4.71,13.15-12.79,13.15-21.59,0-13.95-11.42-24.43-27.36-24.43Zm-.21,35.95h-12.16v-20.96h12.16c6.61,0,11.01,4.82,11.01,10.48s-4.4,10.48-11.01,10.48Z"/><path class="cls-1" d="m167.79,71.8l-15.14-24.32c-8.33,3.86-16.77,3.67-16.77,3.67h-3.87c.82.02,3.49.25,5.3,2.39l12.77,21.3h16.02c1.56,0,2.51-1.71,1.69-3.04Z"/><path class="cls-1" d="m131.76,51.15h.25c-.16,0-.25,0-.25,0Z"/><path class="cls-1" d="m196.7,95.21c-3.12,15.19,10.27,27.34,10.27,27.34,0,0,2.08-17.96-10.27-27.34Z"/><path class="cls-1" d="m190.39,146.55c.65-15.49,16.59-24.03,16.59-24.03,0,0-2.34,17.93-16.59,24.03Z"/><path class="cls-1" d="m220.58,95.3c-2.55,15.29,11.29,26.93,11.29,26.93,0,0,1.4-18.03-11.29-26.93Z"/><path class="cls-1" d="m216.19,146.85c.07-15.5,15.68-24.64,15.68-24.64,0,0-1.67,18.01-15.68,24.64Z"/><path class="cls-1" d="m124.66,90.76c-5.93,14.33,4.93,28.78,4.93,28.78,0,0,5.43-17.25-4.93-28.78Z"/><path class="cls-1" d="m108.77,140c3.56-15.09,20.83-20.47,20.83-20.47,0,0-5.68,17.17-20.83,20.47Z"/><path class="cls-1" d="m146.93,92.78c-4.41,14.86,7.89,28.12,7.89,28.12,0,0,3.61-17.72-7.89-28.12Z"/><path class="cls-1" d="m136.23,143.4c1.98-15.38,18.59-22.52,18.59-22.52,0,0-3.87,17.66-18.59,22.52Z"/><path class="cls-1" d="m170.78,94.77c-3.54,15.09,9.51,27.61,9.51,27.61,0,0,2.57-17.9-9.51-27.61Z"/><path class="cls-1" d="m163.04,145.92c1.08-15.47,17.25-23.56,17.25-23.56,0,0-2.83,17.86-17.25,23.56Z"/><path class="cls-1" d="m84.39,87.1c-7.65,11.67-.47,26.28-.47,26.28,0,0,7.69-14.34.47-26.28Z"/><path class="cls-1" d="m62.08,127.97c5.68-12.74,21.85-14.6,21.85-14.6,0,0-7.9,14.23-21.85,14.6Z"/><path class="cls-1" d="m101.93,90.25c-5.95,12.62,3.19,26.09,3.19,26.09,0,0,5.63-15.27-3.19-26.09Z"/><path class="cls-1" d="m85.51,133.82c3.86-13.41,19.61-17.5,19.61-17.5,0,0-5.85,15.19-19.61,17.5Z"/><path class="cls-1" d="m25.87,65.24c-7.73-.62-12.94,6.77-12.94,6.77,0,0,9.04-.07,12.94-6.77Z"/><path class="cls-1" d="m12.59,57.41c-3.98,6.65.33,14.6.33,14.6,0,0,3.95-8.13-.33-14.6Z"/><path class="cls-1" d="m0,65.24c7.73-.62,12.94,6.77,12.94,6.77,0,0-9.04-.07-12.94-6.77Z"/><path class="cls-1" d="m198.75,120.71c-95.33,0-140.45-13.42-161.53-24.67-18.05-9.64-22.85-20.08-22.86-24.26h-1.42s1.42.01,1.42.01l-2.85-.04c0,.28.01,6.89,8.28,15.26,16.45,16.66,60.8,36.51,178.68,36.54,0,0,.26-1.08.28-2.85Z"/><path class="cls-1" d="m53.8,79.85c-9.92,7.44-8.34,21.82-8.34,21.82,0,0,10.77-9.66,8.34-21.82Z"/><path class="cls-1" d="m22.79,107.26c8.6-8.93,22.68-5.6,22.68-5.6,0,0-10.91,9.5-22.68,5.6Z"/><path class="cls-1" d="m68.15,85.26c-8.37,9.15-4.16,22.99-4.16,22.99,0,0,8.8-11.48,4.16-22.99Z"/><path class="cls-1" d="m42.74,117.93c6.8-10.37,21.26-9.7,21.26-9.7,0,0-8.96,11.35-21.26,9.7Z"/><path class="cls-1" d="m39.66,75.42c-9.35,5.51-9.38,18.17-9.38,18.17,0,0,10.3-7.35,9.38-18.17Z"/><path class="cls-1" d="m10.03,96.24c8.35-6.93,20.27-2.66,20.27-2.66,0,0-10.41,7.2-20.27,2.66Z"/><path class="cls-1" d="m29.92,70.23c-8.89,2.73-11.43,13.28-11.43,13.28,0,0,10.05-4.08,11.43-13.28Z"/><path class="cls-1" d="m1.07,81.68c8.34-4.11,17.43,1.82,17.43,1.82,0,0-10.11,3.93-17.43-1.82Z"/><rect class="cls-1" x="195.27" y="120.71" width="36.65" height="2.84"/><path class="cls-1" d="m266.28,61.55v-25.37h6.6v25.69c0,9.9-4.4,14.88-13.14,14.88l-1.29-5.44c5.76,0,7.83-1.94,7.83-9.77Z"/><path class="cls-1" d="m300.38,76.82c-11.52,0-20.71-7.51-20.71-20.64s9.19-20.58,20.71-20.58,20.71,7.51,20.71,20.64-9.19,20.58-20.71,20.58Zm0-35.85c-7.7,0-14.04,5.63-14.04,15.21s6.34,15.21,14.04,15.21,14.04-5.44,14.04-15.14-6.34-15.27-14.04-15.27Z"/><path class="cls-1" d="m344.38,76.82c-11.39,0-16.5-7.57-16.5-19.8v-20.84h6.47v20.84c0,9.12,2.65,14.37,9.97,14.37s10.1-5.18,10.1-14.24v-20.97h6.47v20.97c0,12.17-5.05,19.67-16.5,19.67Z"/><path class="cls-1" d="m378.29,59.28h-2.2v17.02h-6.47v-40.12h8.41c9.06,0,15.01,4.27,15.01,11.32,0,4.92-3.43,8.35-6.86,9.38,5.31,2.01,8.8,14.37,16.31,14.37l-1.29,5.44c-12.81,0-13.27-17.41-22.91-17.41Zm.39-18.05h-2.59v13.07h2.78c4.59,0,7.77-2.39,7.77-6.67s-3.3-6.41-7.96-6.41Z"/><path class="cls-1" d="m412.84,49.25v27.05h-6.47v-41.16h.91l27.11,28.02v-26.98h6.47v40.96h-.91l-27.11-27.89Z"/><path class="cls-1" d="m449.92,36.18h20.97v5.24h-14.5v10.1h10.61v5.31h-10.61v14.17h19.67l-1.29,5.31h-24.85v-40.12Z"/><path class="cls-1" d="m504.02,36.18h7.05l-15.47,24.78v15.34h-6.54v-15.08l-15.6-25.04h6.92l11.91,19.61,11.71-19.61Z"/><path class="cls-1" d="m280.52,129.85l-3.42-7.23h-16.37l-3.36,7.23h-5.88l17.09-35.7h.62l17.09,35.7h-5.77Zm-17.93-11.66h12.67l-6.39-13.79-6.28,13.79Z"/><path class="cls-1" d="m313.98,118.3l8.46-23.2h5.77l-13.96,35.7h-.5l-8.74-24.16-8.74,24.16h-.5l-13.96-35.7h5.77l8.46,23.2,8.69-23.93h.56l8.69,23.93Z"/><path class="cls-1" d="m352.76,129.85l-3.42-7.23h-16.37l-3.36,7.23h-5.88l17.09-35.7h.62l17.09,35.7h-5.77Zm-17.93-11.66h12.67l-6.39-13.79-6.28,13.79Z"/><path class="cls-1" d="m370.25,115.11h-1.91v14.74h-5.6v-34.75h7.29c7.85,0,13,3.7,13,9.81,0,4.26-2.97,7.23-5.94,8.13,4.6,1.74,7.62,12.44,14.12,12.44l-1.12,4.71c-11.1,0-11.49-15.08-19.84-15.08Zm.34-15.64h-2.24v11.32h2.41c3.98,0,6.73-2.07,6.73-5.77s-2.86-5.55-6.89-5.55Z"/><path class="cls-1" d="m403.48,129.85h-8.91v-34.75h8.91c14.96,0,21.02,7.79,21.02,17.37s-6.05,17.37-21.02,17.37Zm.56-30.26h-3.87v25.67h3.87c10.14,0,14.91-5.72,14.91-12.83s-4.76-12.83-14.91-12.83Z"/><path class="cls-1" d="m441.48,103.68l-.5-5.72c1.34-1.18,4.76-3.36,9.75-3.36,6.78,0,10.98,4.04,10.98,10.37,0,5.72-3.92,11.77-10.48,19.39h12.11l-1.4,5.49h-21.52v-1.35c14.46-15.69,14.52-20.51,14.52-23.03,0-2.69-1.51-5.21-5.21-5.21-3.08,0-6.17,1.62-8.24,3.42Z"/><path class="cls-1" d="m479.75,130.3c-8.24,0-13.28-6.5-13.28-17.88s5.04-17.82,13.28-17.82,13.28,6.5,13.28,17.88-5.04,17.82-13.28,17.82Zm0-30.1c-3.81,0-6.33,4.54-6.33,12.22s2.52,12.27,6.33,12.27,6.28-4.37,6.28-12.22-2.41-12.27-6.28-12.27Z"/><path class="cls-1" d="m496.74,103.68l-.5-5.72c1.34-1.18,4.76-3.36,9.75-3.36,6.78,0,10.98,4.04,10.98,10.37,0,5.72-3.92,11.77-10.48,19.39h12.11l-1.4,5.49h-21.52v-1.35c14.46-15.69,14.52-20.51,14.52-23.03,0-2.69-1.51-5.21-5.21-5.21-3.08,0-6.17,1.62-8.24,3.42Z"/><path class="cls-1" d="m534.28,107.82c6.61.84,10.37,4.48,10.37,10.65,0,7.06-5.27,11.83-12.72,11.83-4.43,0-8.57-1.68-11.04-3.59l2.8-4.88c1.63,1.23,3.92,2.91,7.73,2.91s6.22-2.97,6.22-6.11c0-4.93-4.2-7.45-11.21-6.39l-.56-.62c.11,0,8.01-11.21,7.9-11.1h-10.54l1.29-5.44h18.61v.84l-8.85,11.88Z"/></g></svg>