<svg class="site-navigation-logo" fill="none" height="24" viewBox="0 0 144 24" width="144" xmlns="http://www.w3.org/2000/svg">
<g clip-path="url(#clip0_209_7492)">
<path class="logo-letter" d="M95.2371 10.1624H93.8793C89.6282 10.1624 86.8884 12.8781 86.8884 17.0812C86.8884 21.2843 89.6282 23.9904 93.8793 23.9904H95.2371C99.4882 23.9904 102.233 21.2747 102.233 17.0716C102.233 12.8685 99.4882 10.1624 95.2371 10.1624ZM99.3203 17.0812C99.3203 19.7009 97.7273 21.2603 95.0692 21.2603H94.0424C91.389 21.2603 89.8057 19.7009 89.8057 17.0812C89.8057 14.4614 91.389 12.9021 94.0424 12.9021H95.0788C97.7369 12.9021 99.3203 14.4662 99.3203 17.0812Z" fill="white"></path>
<path class="logo-letter" d="M125.062 10.1623C124.869 10.148 124.676 10.1754 124.495 10.2427C124.313 10.3099 124.149 10.4155 124.012 10.5521C123.876 10.6888 123.77 10.8533 123.703 11.0344C123.636 11.2155 123.608 11.4091 123.623 11.6018V22.551C123.623 22.9327 123.774 23.2989 124.044 23.5688C124.314 23.8387 124.68 23.9904 125.062 23.9904C125.444 23.9904 125.81 23.8387 126.08 23.5688C126.35 23.2989 126.501 22.9327 126.501 22.551V11.6018C126.515 11.4092 126.487 11.2161 126.419 11.0353C126.352 10.8545 126.246 10.6904 126.11 10.5539C125.973 10.4175 125.809 10.3119 125.628 10.2443C125.448 10.1768 125.254 10.1488 125.062 10.1623Z" fill="white"></path>
<path class="logo-letter" d="M51.9536 12.475C52.0733 12.3235 52.1591 12.1481 52.2051 11.9606C52.2512 11.7731 52.2564 11.5778 52.2205 11.3881C52.1845 11.1984 52.1082 11.0187 51.9968 10.861C51.8854 10.7033 51.7414 10.5714 51.5746 10.4742C51.4236 10.3505 51.2476 10.261 51.0587 10.212C50.8698 10.1629 50.6725 10.1555 50.4804 10.1901C50.2883 10.2248 50.1061 10.3008 49.9462 10.4128C49.7864 10.5248 49.6527 10.6702 49.5546 10.8389L43.3171 19.9552L37.0796 10.8389C36.9824 10.672 36.8505 10.528 36.6928 10.4166C36.5351 10.3052 36.3553 10.2289 36.1656 10.193C35.9759 10.157 35.7807 10.1623 35.5932 10.2083C35.4057 10.2543 35.2303 10.3401 35.0788 10.4598C34.9086 10.5555 34.7612 10.6871 34.6469 10.8454C34.5326 11.0037 34.454 11.1849 34.4166 11.3765C34.3792 11.5682 34.3838 11.7656 34.4302 11.9553C34.4766 12.145 34.5637 12.3223 34.6853 12.475C34.6853 12.475 42.1176 23.3379 42.2231 23.453C42.3507 23.6267 42.5188 23.7664 42.7129 23.8601C42.9069 23.9538 43.121 23.9985 43.3363 23.9904C43.5533 23.9956 43.7684 23.9481 43.9631 23.852C44.1578 23.7559 44.3263 23.6141 44.4542 23.4386C44.555 23.3331 51.9536 12.475 51.9536 12.475Z" fill="white"></path>
<path class="logo-letter" d="M139.763 15.7137H134.649C134.457 15.7387 134.261 15.7199 134.078 15.6586C133.894 15.5973 133.726 15.4952 133.588 15.3599C133.449 15.2245 133.343 15.0596 133.278 14.8774C133.212 14.6952 133.189 14.5004 133.209 14.3079C133.186 14.1147 133.207 13.9187 133.272 13.7351C133.336 13.5516 133.442 13.3854 133.582 13.2494C133.721 13.1134 133.889 13.0114 134.075 12.9511C134.26 12.8909 134.456 12.8741 134.649 12.902H142.143C142.327 12.9128 142.511 12.8841 142.683 12.8179C142.855 12.7518 143.011 12.6496 143.141 12.5184C143.27 12.3871 143.37 12.2298 143.434 12.0568C143.498 11.8838 143.524 11.6992 143.511 11.5154C143.521 11.3331 143.493 11.1506 143.428 10.98C143.363 10.8093 143.262 10.6544 143.133 10.5253C143.004 10.3961 142.849 10.2958 142.679 10.2307C142.508 10.1657 142.325 10.1375 142.143 10.1479H134.466C131.928 10.1479 130.287 11.7745 130.287 14.2935C130.287 16.8125 131.928 18.4342 134.466 18.4342H139.624C139.816 18.4092 140.011 18.428 140.195 18.4893C140.379 18.5506 140.546 18.6528 140.685 18.7881C140.823 18.9234 140.929 19.0884 140.995 19.2706C141.061 19.4528 141.084 19.6475 141.064 19.8401C141.088 20.0334 141.067 20.2299 141.003 20.4139C140.939 20.5979 140.833 20.7646 140.693 20.9008C140.554 21.037 140.385 21.139 140.199 21.1989C140.014 21.2588 139.817 21.2748 139.624 21.2459H131.693C131.509 21.2349 131.325 21.2627 131.153 21.3276C130.981 21.3925 130.824 21.4929 130.693 21.6224C130.562 21.7519 130.46 21.9075 130.394 22.079C130.327 22.2506 130.297 22.4343 130.306 22.6181C130.294 22.8028 130.322 22.9878 130.387 23.1609C130.453 23.3339 130.555 23.4908 130.686 23.6209C130.818 23.751 130.976 23.8514 131.149 23.9151C131.323 23.9789 131.508 24.0046 131.693 23.9904H139.763C142.301 23.9904 143.942 22.3638 143.942 19.8449C143.942 17.3259 142.301 15.7137 139.763 15.7137Z" fill="white"></path>
<path class="logo-letter" d="M70.0808 11.6017V22.551C70.0808 22.9359 70.2337 23.3051 70.5059 23.5773C70.7781 23.8495 71.1472 24.0024 71.5322 24.0024C71.9171 24.0024 72.2863 23.8495 72.5585 23.5773C72.8307 23.3051 72.9836 22.9359 72.9836 22.551V19.2547H78.6261L81.4666 23.4194C81.5726 23.5928 81.7203 23.7368 81.8964 23.8382C82.0724 23.9396 82.2711 23.9953 82.4742 24H82.6133C82.7889 23.9819 82.9587 23.9275 83.1121 23.8401C83.2654 23.7528 83.3989 23.6346 83.5041 23.4929C83.6093 23.3511 83.6838 23.1891 83.7229 23.017C83.762 22.845 83.7649 22.6666 83.7313 22.4934C83.7069 22.2784 83.6239 22.0742 83.4914 21.9032L81.4378 18.9092C82.8772 18.2951 83.7265 16.8556 83.7265 14.9652C83.7265 14.898 83.7265 14.8356 83.7265 14.7733C83.7252 14.7557 83.7252 14.7381 83.7265 14.7205C83.7241 14.6917 83.7241 14.6629 83.7265 14.6341C83.7265 14.5717 83.7265 14.5094 83.7265 14.4422C83.7265 11.8464 82.1623 10.1719 79.7441 10.1719H71.5394C71.346 10.1548 71.1512 10.1798 70.9685 10.2452C70.7857 10.3106 70.6193 10.4149 70.4806 10.5508C70.342 10.6866 70.2345 10.851 70.1655 11.0324C70.0964 11.2138 70.0675 11.4081 70.0808 11.6017ZM72.9836 12.902H79.3507C80.7901 12.902 80.9676 14.1591 80.9724 14.6917C80.9772 15.2243 80.8237 16.3374 79.5858 16.467H72.9836V12.902Z" fill="white"></path>
<path class="logo-letter" d="M67.2739 21.6921C67.2739 21.6921 59.8753 10.8149 59.7601 10.6949C59.6332 10.5229 59.4665 10.3842 59.2743 10.2906C59.0822 10.1971 58.8702 10.1514 58.6565 10.1575C58.4391 10.1529 58.2237 10.2011 58.029 10.298C57.8342 10.395 57.6659 10.5378 57.5386 10.7141C57.4426 10.8197 50.0392 21.6873 50.0392 21.6873C49.8222 22.0054 49.7405 22.3967 49.8121 22.7751C49.8836 23.1535 50.1025 23.4879 50.4206 23.7049C50.7388 23.9219 51.1301 24.0036 51.5084 23.932C51.8868 23.8605 52.2213 23.6416 52.4382 23.3235L53.964 21.1115H63.3347L64.8605 23.3475C65.0774 23.6656 65.4119 23.8845 65.7903 23.956C66.1686 24.0276 66.5599 23.9459 66.878 23.7289C67.1962 23.5119 67.4151 23.1775 67.4866 22.7991C67.5582 22.4207 67.4765 22.0294 67.2595 21.7113L67.2739 21.6921ZM55.629 18.6501L58.6565 14.2167L61.6841 18.6501H55.629Z" fill="white"></path>
<path class="logo-letter" d="M118.551 23.9904C118.357 24.0099 118.161 23.986 117.978 23.9206C117.794 23.8551 117.628 23.7497 117.49 23.6119C117.352 23.4742 117.247 23.3075 117.181 23.1241C117.116 22.9406 117.092 22.7448 117.112 22.551V16.9516C117.112 13.9432 114.981 12.8733 112.985 12.8733H111.939C109.943 12.8733 107.813 13.9432 107.813 16.9516V22.551C107.832 22.7448 107.808 22.9406 107.743 23.1241C107.678 23.3075 107.572 23.4742 107.434 23.6119C107.297 23.7497 107.13 23.8551 106.947 23.9206C106.763 23.986 106.567 24.0099 106.373 23.9904C106.181 24.0056 105.987 23.9787 105.805 23.9118C105.624 23.8448 105.459 23.7393 105.322 23.6025C105.185 23.4656 105.08 23.3008 105.013 23.1193C104.946 22.9378 104.919 22.7439 104.934 22.551V16.9516C104.934 12.8301 107.626 10.1624 111.79 10.1624H113.153C117.318 10.1624 120.01 12.8301 120.01 16.9516V22.551C120.025 22.7456 119.998 22.9413 119.93 23.1243C119.862 23.3073 119.754 23.4732 119.615 23.6104C119.476 23.7475 119.309 23.8526 119.125 23.9182C118.941 23.9839 118.745 24.0085 118.551 23.9904Z" fill="white"></path>
<path class="logo-letter" d="M5.34026 0H0L14.1303 20.7325L16.7933 16.8029L5.34026 0Z" fill="white"></path>
<path class="logo-letter" d="M17.9544 18.5062L15.2915 22.4311L15.6609 22.9732C15.8092 23.228 16.0108 23.4476 16.2519 23.6171C16.4929 23.7866 16.7678 23.902 17.0577 23.9553C17.3476 24.0087 17.6455 23.9987 17.9311 23.926C18.2168 23.8534 18.4833 23.7199 18.7125 23.5346C18.9668 23.3868 19.1863 23.1861 19.3562 22.9462C19.5262 22.7062 19.6427 22.4325 19.6977 22.1436C19.7527 21.8548 19.7451 21.5574 19.6753 21.2718C19.6055 20.9861 19.4752 20.7188 19.2931 20.4878L17.9544 18.5062Z" fill="white"></path>
<path class="logo-letter" d="M15.5602 0H10.2199L19.2259 13.2187L21.8936 9.28908L15.5602 0Z" fill="white"></path>
<path class="logo-letter" d="M29.5226 20.4878L23.0308 10.9924L20.3679 14.9173L25.8808 22.9732C26.2104 23.4562 26.7184 23.7884 27.2929 23.8968C27.8674 24.0052 28.4615 23.881 28.9444 23.5514C29.4273 23.2218 29.7596 22.7139 29.868 22.1394C29.9764 21.5648 29.8522 20.9708 29.5226 20.4878Z" fill="white"></path>
</g>
<defs>
<clipPath id="clip0_209_7492">
<rect fill="white" height="24" width="143.942"></rect>
</clipPath>
</defs>
</svg>