<svg width="183" height="25" viewBox="0 0 183 25" fill="none" xmlns="http://www.w3.org/2000/svg">
<g clip-path="url(#clip0_1438_1411)">
<path d="M0 0.312256L8.47516 23.7648L10.9971 16.4219L5.4591 0.312256H0Z" fill="white"/>
<mask id="mask0_1438_1411" style="mask-type:luminance" maskUnits="userSpaceOnUse" x="10" y="0" width="15" height="25">
<path d="M18.8443 0.312256L12.3078 19.3316H12.2941L10.4687 24.6535H15.5092L24.3034 0.312256H18.8443Z" fill="white"/>
</mask>
<g mask="url(#mask0_1438_1411)">
<path d="M24.3034 0.312256H10.4687V24.6535H24.3034V0.312256Z" fill="url(#paint0_linear_1438_1411)"/>
</g>
<path d="M32.0958 14.3597H42.4547V10.2937H32.0958V4.83463H43.4978V0.312256H26.8803V24.6535H43.8478V20.1311H32.0958V14.3597Z" fill="white"/>
<path d="M65.9964 8.44772C65.9964 3.68516 63.1794 0.312256 56.7115 0.312256H46.8707V24.6535H52.0862V16.5523H56.4679L61.0932 24.6535H66.2401L61.1275 15.8901C64.5004 14.672 65.9964 11.8927 65.9964 8.44772ZM56.54 12.0299H52.0896V4.83463H56.54C59.3913 4.83463 60.6437 6.25859 60.6437 8.45115C60.6437 10.6437 59.3913 12.0334 56.54 12.0334" fill="white"/>
<path d="M77.021 0.312256L68.2233 24.65H73.6824L75.2471 20.0968H85.503L87.0677 24.65H92.5268L83.7325 0.312256H77.021ZM76.5681 16.2366L80.2189 5.63067H80.5312L84.182 16.2366H76.5681Z" fill="white"/>
<path d="M103.936 4.48463C106.44 4.48463 108.42 5.73703 109.117 8.75995H114.195C113.704 2.71068 109.429 0 104.107 0C97.0491 0 92.5988 4.62531 92.5988 12.4828C92.5988 20.3404 97.0491 25 104.039 25C109.429 25 113.704 22.2859 114.192 16.2023H109.113C108.417 19.263 106.437 20.5154 103.932 20.5154C99.6569 20.5154 97.9172 16.9675 97.9172 12.4828C97.9172 7.99822 99.6912 4.48463 103.932 4.48463" fill="white"/>
<path d="M127.893 0C120.869 0 116.278 5.00618 116.278 12.4828C116.278 19.9595 120.869 25 127.893 25C134.916 25 139.507 19.9218 139.507 12.4828C139.507 5.04392 134.916 0 127.893 0ZM127.893 20.5154C123.895 20.5154 121.634 17.3175 121.634 12.4828C121.634 7.64823 123.895 4.48463 127.893 4.48463C131.89 4.48463 134.151 7.61392 134.151 12.4828C134.151 17.3518 131.89 20.5154 127.893 20.5154Z" fill="white"/>
<path d="M151.4 0.312256H142.187V24.65H151.4C158.979 24.65 162.908 20.3026 162.908 12.4794C162.908 4.6562 158.979 0.312256 151.4 0.312256ZM150.878 20.1311H147.402V4.83463H150.878C155.85 4.83463 157.59 7.13013 157.59 12.4829C157.59 17.8356 155.85 20.1311 150.878 20.1311Z" fill="white"/>
<path d="M170.8 20.1311V14.3597H181.163V10.2937H170.8V4.83463H182.206V0.312256H165.585V24.6535H182.556V20.1311H170.8Z" fill="white"/>
</g>
<defs>
<linearGradient id="paint0_linear_1438_1411" x1="15.3969" y1="-6.31621" x2="15.3969" y2="41.625" gradientUnits="userSpaceOnUse">
<stop stop-color="#00B9FF"/>
<stop offset="1" stop-color="#0065DD"/>
</linearGradient>
<clipPath id="clip0_1438_1411">
<rect width="182.556" height="25" fill="white"/>
</clipPath>
</defs>
</svg>
