<?xml version="1.0" encoding="UTF-8" standalone="no"?>
<svg
   width="160"
   height="32"
   viewBox="0 0 160 32"
   fill="none"
   version="1.1"
   id="svg3"
   sodipodi:docname="NordLayer Logo.svg"
   inkscape:version="1.4 (86a8ad7, 2024-10-11)"
   inkscape:export-filename="NordLayer Logo .png"
   inkscape:export-xdpi="12960"
   inkscape:export-ydpi="12960"
   xmlns:inkscape="http://www.inkscape.org/namespaces/inkscape"
   xmlns:sodipodi="http://sodipodi.sourceforge.net/DTD/sodipodi-0.dtd"
   xmlns="http://www.w3.org/2000/svg"
   xmlns:svg="http://www.w3.org/2000/svg">
  <defs
     id="defs3" />
  <sodipodi:namedview
     id="namedview3"
     pagecolor="#ffffff"
     bordercolor="#000000"
     borderopacity="0.25"
     inkscape:showpageshadow="2"
     inkscape:pageopacity="0.0"
     inkscape:pagecheckerboard="0"
     inkscape:deskcolor="#d1d1d1"
     inkscape:zoom="9.4310367"
     inkscape:cx="77.244954"
     inkscape:cy="25.182809"
     inkscape:window-width="2240"
     inkscape:window-height="1294"
     inkscape:window-x="-11"
     inkscape:window-y="-11"
     inkscape:window-maximized="1"
     inkscape:current-layer="svg3" />
  <path
     fill-rule="evenodd"
     clip-rule="evenodd"
     d="M3.82704 32C1.41963 28.6759 0 24.586 0 20.1636C0 9.02768 9.00203 0 20.1067 0C31.2114 0 40.2134 9.02738 40.2134 20.1636C40.2134 24.586 38.7938 28.6759 36.3864 32L26.729 16.2735L25.7964 17.8525L26.7426 22.2441L20.1067 10.8574L16.0017 17.8082L16.9576 22.2438L13.4793 16.2823L3.82704 32Z"
     fill="#B1EB21"
     id="path1" />
  <path
     fill-rule="evenodd"
     clip-rule="evenodd"
     d="M54.932 24.6225H51.7627V9.10094H55.4271L62.1618 19.2305V9.10094H65.3311V24.6225H62.063L54.932 13.9178V24.6225ZM68.4787 15.4046C69.6078 14.3341 70.9943 13.7988 72.5988 13.7988C74.2033 13.7988 75.57 14.3341 76.6791 15.3847C77.7882 16.4354 78.343 17.7239 78.343 19.2899C78.343 20.8758 77.7882 22.2038 76.6592 23.2743C75.5302 24.325 74.1636 24.8603 72.559 24.8603C70.9349 24.8603 69.568 24.3449 68.4589 23.2942C67.3497 22.2436 66.795 20.9352 66.795 19.3493C66.7953 17.7835 67.3497 16.4553 68.4787 15.4046ZM70.7172 21.2725C71.2123 21.768 71.8462 22.0257 72.5792 22.0257C74.0648 22.0257 75.1739 20.8957 75.1739 19.3098C75.1739 18.5367 74.9165 17.8824 74.4214 17.3869C73.9263 16.8715 73.2923 16.6138 72.5593 16.6138C71.8263 16.6138 71.2126 16.8715 70.7172 17.3869C70.2221 17.8824 69.9646 18.5367 69.9646 19.3098C69.9643 20.1028 70.2218 20.7571 70.7172 21.2725ZM82.8997 15.6623C83.3562 14.6906 84.485 13.9172 85.8907 13.9172C86.0687 13.9172 86.2205 13.9272 86.3473 13.9534V17.0276C86.1609 17.0011 85.9714 16.9897 85.7721 16.9897C83.7715 16.9897 82.8997 18.2399 82.8997 20.1432V24.6231H79.8099V14.0378H82.8801V15.6623H82.8997ZM153.544 13.9172C152.138 13.9172 151.009 14.6906 150.553 15.6623H150.533V14.0378H147.463V24.6231H150.553V20.1432C150.553 18.2399 151.424 16.9897 153.425 16.9897C153.624 16.9897 153.814 17.0011 154 17.0276V13.9534C153.873 13.9272 153.722 13.9172 153.544 13.9172ZM95.2328 23.2746H95.2725V24.6225H98.2636V9.10094H95.1933V15.2464H95.1536C94.3612 14.3148 93.3114 13.8389 91.9842 13.8389C90.5384 13.8389 89.3302 14.394 88.3596 15.524C87.3893 16.634 86.9138 17.9026 86.9138 19.3101C86.9138 20.7969 87.3893 22.1052 88.3201 23.1954C89.251 24.2855 90.4592 24.8208 91.9448 24.8208C93.4304 24.8208 94.5395 24.3054 95.2328 23.2746ZM90.0433 19.3098C90.0433 17.7437 91.1723 16.6337 92.6579 16.6337C94.1435 16.6337 95.2725 17.7437 95.2725 19.3098C95.2725 20.1025 95.015 20.7568 94.5199 21.2722C94.0245 21.7677 93.3909 22.0254 92.6579 22.0254C91.9249 22.0254 91.291 21.7677 90.7959 21.2722C90.3008 20.7568 90.0433 20.1028 90.0433 19.3098ZM103.935 9.10094V21.57H110.57V24.6228H100.746V9.10094H103.935ZM111.739 21.6688C111.739 22.6206 112.076 23.3937 112.769 23.9684C113.462 24.5432 114.314 24.8208 115.304 24.8205C116.71 24.8205 117.76 24.3051 118.473 23.2942L118.513 23.3141V24.6228H121.365V18.0611C121.365 15.2859 119.563 13.7991 116.77 13.7991C114.453 13.7991 112.828 14.6315 111.917 16.3166L114.274 17.7241C114.809 16.7726 115.582 16.2967 116.631 16.2967C117.741 16.2967 118.335 16.8715 118.335 17.6051C118.335 18.1205 118.058 18.3782 117.503 18.3782H116.453C115.264 18.3782 114.274 18.5566 113.304 19.0126C112.353 19.4686 111.739 20.3803 111.739 21.6293V21.6688ZM118.315 20.2812V20.519C118.315 21.6887 117.523 22.5609 116.196 22.5609C115.403 22.5609 114.849 22.2041 114.849 21.4904C114.849 20.6974 115.562 20.2812 116.453 20.2812H118.315ZM122.397 14.0369H125.804L128.439 20.0829L130.796 14.0369H133.985L127.567 29.836H124.259L126.854 23.4926L122.397 14.0369ZM140.254 22.2635C138.927 22.2635 137.817 21.4705 137.639 20.182H145.324C145.344 19.9442 145.364 19.5675 145.364 19.072C145.364 17.5059 144.869 16.2175 143.898 15.2461C142.927 14.2747 141.66 13.7792 140.095 13.7792C138.57 13.7792 137.243 14.3145 136.134 15.4046C135.044 16.4948 134.49 17.7835 134.49 19.3098C134.49 20.9352 135.044 22.2635 136.154 23.3141C137.283 24.3449 138.649 24.8603 140.293 24.8603C142.452 24.8603 143.958 24.0676 144.849 22.4618L142.611 20.9949C142.135 21.768 141.185 22.2635 140.254 22.2635ZM140.016 16.2967C141.422 16.2967 142.195 17.2088 142.274 18.1404H137.718C137.778 17.7242 138.015 17.3076 138.431 16.9113C138.847 16.4951 139.382 16.2967 140.016 16.2967Z"
     fill="#F2FFFF"
     id="path2"
     style="fill:#000000;fill-opacity:1" />
  <path
     fill-rule="evenodd"
     clip-rule="evenodd"
     d="M157.512 13.129C157.241 13.1293 156.973 13.0761 156.722 12.9724C156.472 12.8686 156.245 12.7165 156.053 12.5247C155.862 12.3329 155.71 12.1052 155.607 11.8546C155.504 11.604 155.451 11.3355 155.452 11.0645C155.452 10.517 155.669 9.99185 156.056 9.60468C156.444 9.21751 156.969 9 157.516 9C158.064 9 158.589 9.21751 158.976 9.60468C159.363 9.99185 159.581 10.517 159.581 11.0645C159.581 11.336 159.527 11.6048 159.423 11.8555C159.319 12.1063 159.167 12.334 158.975 12.5258C158.782 12.7176 158.554 12.8696 158.303 12.9731C158.052 13.0766 157.784 13.1296 157.512 13.129ZM157.512 9.37574C156.587 9.37574 155.843 10.1262 155.843 11.0645C155.843 12.0039 156.587 12.7533 157.512 12.7533C158.431 12.7533 159.189 12.0028 159.189 11.0645C159.189 10.1252 158.43 9.37574 157.512 9.37574ZM157.204 11.3948V12.2434H156.715V9.88568H157.648C158.107 9.88568 158.491 10.1262 158.491 10.6289C158.498 10.7752 158.458 10.9199 158.376 11.0417C158.295 11.1635 158.176 11.2558 158.038 11.305L158.528 12.2434H157.994L157.565 11.3948H157.203H157.204ZM157.994 10.6444C157.994 10.4111 157.798 10.3512 157.61 10.3512H157.204V10.9365H157.617C157.798 10.9365 157.994 10.8622 157.994 10.6444Z"
     fill="#F2FFFF"
     id="path3"
     style="fill:#000000" />
</svg>
