<svg viewBox="0 0 181 36" fill="none" xmlns="http://www.w3.org/2000/svg"><path d="M130.216 5.37939H126.711V24.7497H130.216V20.0577V5.37939ZM161.37 19.6614C161.032 21.0722 159.746 21.9915 158.091 21.9915C155.647 21.9915 154.313 20.1369 154.313 17.6641C154.313 15.1913 155.615 13.3367 158.042 13.3367C159.698 13.3367 161.081 14.3512 161.338 15.7461L164.665 14.906C163.974 12.132 161.241 10.3567 157.946 10.3567C153.477 10.3567 150.664 13.6062 150.664 17.6483C150.664 21.6904 153.477 24.9399 157.946 24.9399C161.306 24.9399 163.91 23.117 164.698 20.4857L161.37 19.6614ZM177.526 20.026C177.156 21.3733 175.983 22.1025 174.198 22.1025C171.98 22.1025 170.501 20.6442 170.244 18.3775H180.821C180.854 18.0921 180.886 17.68 180.886 17.2045C180.886 13.844 178.715 10.3884 173.909 10.3884C169.215 10.3884 166.884 13.8915 166.884 17.6324C166.884 21.3416 169.504 24.9874 174.198 24.9874C177.397 24.9874 179.889 23.4023 180.741 20.8661L177.526 20.026ZM173.909 12.9563C175.983 12.9563 177.237 14.3037 177.381 16.0949H170.324C170.694 13.9708 171.948 12.9563 173.909 12.9563ZM109.543 29.9648H113.015V23.1962C113.819 24.29 115.346 24.9716 117.082 24.9716C121.294 24.9716 123.994 21.9915 123.994 17.68C123.994 13.3526 121.454 10.3884 117.339 10.3884C115.426 10.3884 113.867 11.181 113.015 12.3857L112.356 10.6103H109.543V29.9648ZM116.68 21.9915C114.317 21.9915 112.774 20.2796 112.774 17.6641C112.774 15.0487 114.317 13.3367 116.68 13.3367C118.979 13.3367 120.522 15.0487 120.522 17.6641C120.522 20.2796 118.979 21.9915 116.68 21.9915ZM140.15 24.9716C141.951 24.9716 143.59 24.2107 144.282 23.0853L144.941 24.7338H147.77V10.5945H144.941L144.282 12.1955C143.462 11.1017 141.886 10.3726 140.102 10.3726C135.826 10.3726 133.334 13.3526 133.334 17.6641C133.334 21.9915 135.826 24.9716 140.15 24.9716ZM140.649 21.9915C138.35 21.9915 136.807 20.2796 136.807 17.6641C136.807 15.0487 138.35 13.3367 140.649 13.3367C143.012 13.3367 144.555 15.0487 144.555 17.6641C144.555 20.2796 142.996 21.9915 140.649 21.9915ZM49.0021 23.6242L52.0082 15.223L54.9661 23.5925C55.6091 25.4313 58.2455 25.4471 58.9207 23.6242L63.7273 10.5945H60.255L56.9113 20.454L54.0016 11.815C53.3586 9.89701 50.6097 9.89701 49.9666 11.815L47.057 20.454L43.7454 10.5945H40.257L45.1279 23.6559C45.787 25.4313 48.3591 25.4154 49.0021 23.6242ZM71.9419 24.9557C76.2983 24.9557 79.4331 21.8647 79.4331 17.6641C79.4331 13.4477 76.2983 10.3726 71.9419 10.3726C67.5533 10.3726 64.4346 13.4636 64.4346 17.6641C64.4346 21.8647 67.5533 24.9557 71.9419 24.9557ZM71.9419 21.9757C69.5466 21.9757 67.9551 20.2003 67.9551 17.6483C67.9551 15.0962 69.5466 13.3209 71.9419 13.3209C74.305 13.3209 75.8964 15.0962 75.8964 17.6483C75.8964 20.2162 74.305 21.9757 71.9419 21.9757ZM90.9592 13.733V10.4518C90.6216 10.4043 90.268 10.3884 89.9143 10.3884C88.0013 10.3884 86.442 11.181 85.59 12.3857L84.9309 10.6103H82.1177V24.7497H85.59V17.68C85.59 16.1583 86.008 14.8902 87.0529 14.1452C87.937 13.4953 89.2231 13.2733 90.9592 13.733ZM97.0358 5.37939H93.5313V24.7497H97.0358V20.0577V5.37939ZM106.81 10.5945H102.759L98.9648 15.6193C98.0324 16.8399 98.0646 18.536 99.013 19.7407L103 24.7497H107.292L101.296 17.569L106.81 10.5945Z" fill="#4526CE"></path><path d="M33.1882 15.5233C33.1882 6.94396 26.2313 0 17.6649 0C15.2897 0 12.9664 0.467256 10.7988 1.40177C8.68319 2.29734 6.80118 3.56932 5.17876 5.19174C3.55634 6.80118 2.28438 8.69617 1.3888 10.7988C0.467269 12.9794 0 15.2897 0 17.6779C0 20.0661 0.467269 22.3764 1.3888 24.5569C2.28438 26.6596 3.55634 28.5416 5.17876 30.164C6.80118 31.7864 8.69617 33.0584 10.7988 33.954C12.9664 34.8755 15.2897 35.3428 17.6779 35.3428C19.9752 35.3428 22.1688 34.9015 24.1806 34.1097L22.8437 30.7351C21.2472 31.3711 19.508 31.7215 17.6779 31.7215C13.9269 31.7215 10.3965 30.2549 7.74869 27.6071C5.1009 24.9593 3.63421 21.4289 3.63421 17.6779C3.63421 13.9268 5.1009 10.3965 7.74869 7.74867C10.4095 5.10089 13.9269 3.63422 17.6779 3.63422C24.2454 3.63422 29.567 8.95576 29.567 15.5233C29.567 17.9375 28.8401 20.1959 27.5941 22.0779L24.505 14.472C24.0507 13.3558 23.5056 11.6814 21.4549 11.6814C19.4041 11.6814 18.859 13.3687 18.4177 14.472L15.5752 21.4938L11.7593 11.8631H7.74869L12.4991 23.5705C12.9794 24.7516 13.5115 26.3611 15.5752 26.3611C17.6389 26.3611 18.1581 24.7516 18.6384 23.5705L21.4549 16.6136L24.2844 23.5705C24.8555 25.0112 25.4655 26.3611 27.3475 26.3611C28.6844 26.3611 29.528 25.5044 29.9953 24.9463C31.9941 22.3375 33.1882 19.0667 33.1882 15.5233Z" fill="#4526CE"></path></svg>