<svg width="529" height="128" viewBox="0 0 529 128" fill="none" xmlns="http://www.w3.org/2000/svg">
<path d="M197.688 25.2063C173.836 25.2063 156.515 42.239 156.515 65.705V66.5861C156.515 90.3684 173.446 106.982 197.688 106.982C221.929 106.982 238.633 90.2365 238.633 66.2583V65.3771C238.633 41.7267 221.794 25.2063 197.688 25.2063ZM173.333 65.5923C173.333 48.5903 182.666 38.0305 197.688 38.0305C212.709 38.0305 221.938 48.8054 221.938 65.4796V66.3607C221.938 83.168 212.513 94.025 197.914 94.025C183.314 94.025 173.333 82.6967 173.333 66.4619V65.5807V65.5923Z" fill="white"/>
<path d="M313.462 22.1644C310.792 21.3345 308.698 21.0374 305.432 21.0374C292.577 21.0374 285.205 28.33 285.205 41.0414V47.3402H262.751V40.3857C262.751 33.9128 266.612 32.55 269.856 32.55C272.371 32.55 274.395 33.1546 275.698 33.6156C275.883 33.6873 276.098 33.6566 276.263 33.5439C276.427 33.4312 276.53 33.2468 276.53 33.0419V22.7382C276.53 22.4718 276.355 22.2361 276.099 22.1542C273.429 21.3345 271.356 21.0374 268.173 21.0374C255.134 21.0374 247.956 28.1455 247.956 41.0414V105.262C247.956 105.6 248.234 105.867 248.583 105.867H262.136C262.475 105.867 262.763 105.59 262.763 105.262V58.5365H285.217V105.274C285.217 105.612 285.494 105.878 285.843 105.878H299.396C299.735 105.878 300.023 105.602 300.023 105.274V58.5365H312.734C313.073 58.5365 313.36 58.2599 313.36 57.932V47.9562C313.36 47.6181 313.083 47.3517 312.734 47.3517H300.023V40.5099C300.023 34.037 303.884 32.6743 307.128 32.6743C309.797 32.6743 311.841 33.1968 313.083 33.6272C313.278 33.6989 313.483 33.6681 313.648 33.5554C313.812 33.4427 313.915 33.2583 313.915 33.0534V22.7395C313.915 22.4731 313.74 22.2374 313.483 22.1554L313.463 22.1657L313.462 22.1644Z" fill="white"/>
<path d="M353.359 58.0845C339.631 56.1378 337.312 53.1472 337.312 47.1764C337.312 41.2055 342.23 37.4875 350.464 37.4875C359.478 37.4875 363.914 40.8469 365.311 48.7133C365.362 49.0104 365.619 49.2153 365.927 49.2153H379.593C379.768 49.2153 379.942 49.1436 380.055 49.0104C380.168 48.8874 380.23 48.7132 380.209 48.5391C378.619 33.3391 368.341 25.3088 350.465 25.3088C333.678 25.3088 321.953 34.7927 321.953 48.3854C321.953 61.978 330.012 69.1669 350.701 71.8923C364.542 74.1055 366.872 77.219 366.872 83.3435C366.872 90.1853 361.041 94.7947 352.376 94.7947C338.833 94.7947 336.101 88.0964 335.178 80.8653C335.137 80.5579 334.87 80.3325 334.561 80.3325H320.218C320.043 80.3325 319.879 80.4042 319.766 80.5272C319.653 80.6501 319.591 80.814 319.601 80.9882C320.494 92.8493 326.912 106.984 352.374 106.984C369.807 106.984 382.456 96.5366 382.456 82.1563C382.456 65.3695 371.326 60.5039 353.359 58.0961V58.0845Z" fill="white"/>
<path d="M440.097 53.0857C435.139 48.5378 428.322 46.1415 420.374 46.1415C402.858 46.1415 390.63 58.5558 390.63 76.3468V77.2279C390.63 95.0291 402.808 106.993 420.939 106.993C436.494 106.993 446.514 100.018 448.444 87.8492C448.475 87.675 448.424 87.4906 448.3 87.3574C448.177 87.2242 448.013 87.1422 447.828 87.1422H434.717C434.419 87.1422 434.162 87.3574 434.102 87.6443C433.116 93.1246 428.793 95.9103 421.268 95.9103C411.914 95.9103 406.421 90.3083 405.785 80.1365H448.035C448.374 80.1365 448.661 79.8599 448.661 79.532V75.7013C448.661 65.9202 445.776 58.3202 440.087 53.1062L440.097 53.0857ZM406.092 70.0365C407.581 61.75 412.776 57.0074 420.374 57.0074C428.578 57.0074 433.136 61.3914 433.927 70.0365H406.092Z" fill="white"/>
<path d="M515.706 83.4855C515.582 83.3625 515.418 83.2908 515.254 83.2908H502.82C502.502 83.2908 502.235 83.5265 502.204 83.8441C501.516 90.9625 496.218 95.5719 488.713 95.5719C478.784 95.5719 473.096 88.8429 473.096 77.115V76.2339C473.096 65.1515 479.092 57.9921 488.384 57.9921C495.89 57.9921 500.211 61.4642 501.208 68.3162C501.249 68.6134 501.516 68.8375 501.824 68.8375H514.935C515.11 68.8375 515.274 68.7658 515.397 68.6326C515.51 68.5096 515.572 68.3355 515.552 68.1613C514.155 54.1601 504.176 46.1298 488.159 46.1298C470.663 46.1298 457.963 58.8822 457.963 76.4375V77.3187C457.963 95.0596 470.099 106.971 488.159 106.971C503.93 106.971 514.813 97.926 515.891 83.935C515.901 83.7711 515.839 83.5969 515.726 83.474L515.706 83.4842V83.4855Z" fill="white"/>
<path fill-rule="evenodd" clip-rule="evenodd" d="M68.3746 59.3025C68.3746 72.429 69.3273 85.5567 71.2133 98.5653L75.2628 126.542C71.6306 127.176 67.9188 127.532 64.1082 127.532C60.2976 127.532 56.5858 127.176 52.9536 126.542L57.003 98.5653C58.8891 85.558 59.8418 72.4495 59.8418 59.3025V0.65686C61.2515 0.558242 62.66 0.498047 64.1095 0.498047C65.559 0.498047 66.9675 0.556961 68.3772 0.65686V59.3038L68.3746 59.3025ZM25.5819 114.563L42.1559 82.4291C43.4064 79.9931 44.0612 77.3009 44.0612 74.5883V3.74476C18.7348 12.1401 0.454529 35.939 0.454529 64.0144C0.454529 84.6461 10.3188 102.961 25.5819 114.563ZM84.1937 74.5883C84.1937 77.3202 84.8485 80.0136 86.099 82.4291L102.672 114.563C117.935 102.961 127.799 84.6461 127.799 64.0144C127.799 35.939 109.519 12.1196 84.1924 3.74476V74.5883H84.1937Z" fill="url(#paint0_linear_4_9115)"/>
<path d="M524.915 57.3475L522.021 50.8134H523.192L525.217 55.6075L527.241 50.8134H528.413L525.518 57.3475H524.915ZM521.807 57.3475V50.8134H522.944V57.3475H521.807ZM527.489 57.3475V50.8134H528.626V57.3475H527.489ZM517.546 57.3475V51.3816H518.682V57.3475H517.546ZM515.557 51.8077V50.8134H520.671V51.8077H515.557Z" fill="white"/>
<defs>
<linearGradient id="paint0_linear_4_9115" x1="64.1268" y1="0.498047" x2="64.1268" y2="127.532" gradientUnits="userSpaceOnUse">
<stop stop-color="#00BFCB"/>
<stop offset="1" stop-color="#6619D0"/>
</linearGradient>
</defs>
</svg>
