<svg xmlns="http://www.w3.org/2000/svg" xmlns:xlink="http://www.w3.org/1999/xlink" id="Layer_1" x="0px" y="0px" viewBox="0 0 1200 234.1" style="enable-background:new 0 0 1200 234.1;" xml:space="preserve"><style type="text/css">	.st0{fill-rule:evenodd;clip-rule:evenodd;fill:url(#SVGID_1_);}	.st1{fill-rule:evenodd;clip-rule:evenodd;fill:url(#SVGID_00000134969705121338439820000014614726920601416833_);}	.st2{fill-rule:evenodd;clip-rule:evenodd;fill:url(#SVGID_00000106835847598835154650000010811521787353321637_);}	.st3{fill-rule:evenodd;clip-rule:evenodd;fill:url(#SVGID_00000083048221687088061270000010075946866847670405_);}	.st4{fill-rule:evenodd;clip-rule:evenodd;fill:#303D45;}	.st5{fill:#303D45;}</style><g>			<linearGradient id="SVGID_1_" gradientUnits="userSpaceOnUse" x1="91.9506" y1="221.2879" x2="91.9506" y2="17.805" gradientTransform="matrix(1 0 0 -1 0 236.5764)">		<stop offset="0" style="stop-color:#28D13E"></stop>		<stop offset="0.2972" style="stop-color:#4DDF95"></stop>		<stop offset="0.6024" style="stop-color:#16ABD8"></stop>		<stop offset="1" style="stop-color:#1671D8"></stop>		<stop offset="1" style="stop-color:#1671D8"></stop>		<stop offset="1" style="stop-color:#1671D8"></stop>	</linearGradient>	<path class="st0" d="M50.3,82.4c0-1.5-0.1-3.1-0.1-4.7c-0.1-43.3,31.6-56.6,52.9-60.6c-3.6-1.2-7.3-1.8-11.1-1.8  c-3.8,0-7.4,0.6-10.9,1.7c-3.1,1-6.1,2.4-8.9,4.3c-9,6-27,16.5-46.6,19.9c-11.6,2-20,11.9-20,23.5v48c0,15.1,4.1,29.9,12.2,44  c9.5,8.5,41.4,33.2,69.9,12.6L88,169c0.1-0.1,0.2-0.1,0.3-0.2c0.9-0.7,1.8-1.4,2.7-2.1C87,164.2,52.2,140.5,50.3,82.4L50.3,82.4z   M170.2,139.5c0,4.7-0.8,9.5-2.7,14.4c7.1-13.2,10.7-27.1,10.7-41.3v-48c0-11.2-7.8-20.8-18.8-23.2l-1.2-0.2  c-19.5-3.5-37.6-14-46.6-19.9c-2.7-1.8-5.6-3.2-8.6-4.2c-21.3,4-53,17.3-52.9,60.6c0,1.6,0,3.2,0.1,4.7l43-16.6l39.4,17.6  c0,0,0,0,0,0c-2.1,29.7-11.4,59.4-41.6,83.3c-0.9,0.7-1.8,1.4-2.7,2.1c-0.2,0.1-0.3,0.2-0.5,0.3l-0.1,0  c-28.4,20.6-60.4-4.1-69.9-12.6c0.4,0.7,0.8,1.3,1.1,2c1.6,2.7,3.4,5.3,5.3,7.9c6.3,8.6,14.1,16.8,23.3,24.6  c19.9,16.8,39.7,25.6,41,26.2l0,0l3.3,1.4l3.3-1.4l0,0c0.9-0.4,20.9-9.3,41.1-26.3c12-10.1,21.5-20.9,28.5-32.3l0-0.1  c0,0,0-0.1,0.1-0.1c0.9-1.5,1.8-3.1,2.6-4.6C169.4,149.1,170.2,144.3,170.2,139.5z"></path>			<linearGradient id="SVGID_00000106833499367162111130000017261867933616904364_" gradientUnits="userSpaceOnUse" x1="148.087" y1="200.8926" x2="62.9692" y2="17.1104" gradientTransform="matrix(1 0 0 -1 0 236.5764)">		<stop offset="0" style="stop-color:#0F6078"></stop>		<stop offset="1" style="stop-color:#00FFFF;stop-opacity:1.000000e-02"></stop>	</linearGradient>	<path style="fill-rule:evenodd;clip-rule:evenodd;fill:url(#SVGID_00000106833499367162111130000017261867933616904364_);" d="  M132.6,83.5c-2.1,29.7-11.4,59.4-41.6,83.3c-0.9,0.7-1.8,1.4-2.7,2.1c-0.2,0.1-0.4,0.3-0.5,0.4c-28.4,20.6-60.4-4.1-69.9-12.6  c0.4,0.7,0.8,1.3,1.1,2c1.6,2.7,3.4,5.3,5.3,7.9c6.3,8.6,14.1,16.8,23.3,24.6c20.2,17,40.2,25.9,41.1,26.3l3.3,1.4l3.3-1.4  c0.8-0.4,20.9-9.2,41.1-26.3c12-10.1,21.5-20.9,28.5-32.3c0-0.1,0.1-0.1,0.1-0.2c0.9-1.5,1.8-3.1,2.6-4.6c1.8-4.8,2.7-9.5,2.7-14.2  C170.4,108.1,132.6,83.5,132.6,83.5"></path>			<linearGradient id="SVGID_00000020380187896298317520000017844209254961797275_" gradientUnits="userSpaceOnUse" x1="54.368" y1="221.2879" x2="54.368" y2="18.5851" gradientTransform="matrix(1 0 0 -1 0 236.5764)">		<stop offset="0" style="stop-color:#28D13E"></stop>		<stop offset="1" style="stop-color:#1671D8"></stop>	</linearGradient>	<path style="fill-rule:evenodd;clip-rule:evenodd;fill:url(#SVGID_00000020380187896298317520000017844209254961797275_);" d="  M50.3,82.4c0-1.5-0.1-3.1-0.1-4.7c-0.1-43.3,31.6-56.6,52.9-60.6c-3.6-1.2-7.3-1.8-11.1-1.8c-3.8,0-7.4,0.6-10.9,1.7  c-3.1,1-6.1,2.4-8.9,4.3c-9,6-27,16.5-46.6,19.9c-11.6,2-20,11.9-20,23.5v48c0,15.1,4.1,29.9,12.2,44c9.5,8.5,41.4,33.2,69.9,12.6  c0.2-0.1,0.4-0.3,0.5-0.4c0.9-0.7,1.8-1.4,2.7-2.1C87,164.2,52.2,140.5,50.3,82.4L50.3,82.4z"></path>			<linearGradient id="SVGID_00000067219074419511502210000006131435232905478579_" gradientUnits="userSpaceOnUse" x1="86.4823" y1="199.6118" x2="176.8033" y2="95.0059" gradientTransform="matrix(1 0 0 -1 0 236.5764)">		<stop offset="0" style="stop-color:#23A635"></stop>		<stop offset="1" style="stop-color:#1671D8;stop-opacity:1.000000e-02"></stop>	</linearGradient>	<path style="fill-rule:evenodd;clip-rule:evenodd;fill:url(#SVGID_00000067219074419511502210000006131435232905478579_);" d="  M159.5,41.4l-1.2-0.2c-19.5-3.5-37.6-14-46.6-19.9c-2.7-1.8-5.6-3.2-8.6-4.2c-21.3,4-53,17.3-52.9,60.6c0,1.6,0,3.2,0.1,4.7  l43-16.6l39.4,17.6l0,0h0c0,0,37.8,24.7,37.6,56.3c0,4.6-0.8,9.3-2.7,14.2c7.1-13.2,10.7-27.1,10.7-41.3v-48  C178.3,53.5,170.4,43.9,159.5,41.4"></path>	<path class="st4" d="M710.5,67.7c-6.7-3.3-14.1-4.9-21.6-4.8c-35.7,0-53.6,20.4-53.6,61.1c0,20.5,4.7,35.9,14.1,46.1  c9.4,10.2,22.9,15.3,40.5,15.3c15.8,0,28.5-4.3,38-12.9c9.5-8.6,14.3-21,14.3-37.3V8.9c0-4.5-3.8-8.2-8.5-8.2  c-4.7,0-8.5,3.7-8.5,8.2v70.5C721.3,74.4,716.3,70.4,710.5,67.7z M725.1,100.1v35.1c0,11.7-3.2,20.6-9.6,26.5  c-6.4,5.9-14.9,8.9-25.6,8.9c-25.1,0-37.6-15.5-37.6-46.6c0-30.9,12.5-46.4,37.6-46.4c4.5,0,9,0.8,13.2,2.4c3.6,1.3,7,3.1,10,5.4  c2.6,2,4.8,4.3,6.8,6.9c1.4,1.7,2.7,3.5,3.9,5.4C724.3,98.6,724.8,99.4,725.1,100.1z"></path>	<path class="st4" d="M515.4,66.9c2.4-2.4,6.1-3.1,9.3-1.8c3.2,1.3,5.3,4.2,5.3,7.5v8.2c3.4-5.3,8.3-9.6,14-12.5  c6.8-3.6,14.5-5.5,22.3-5.4c17.8,0,31.5,5.1,41.2,15.3c9.7,10.2,14.5,25.5,14.5,45.9c0,20.4-4.8,35.7-14.5,46  c-9.7,10.3-23.4,15.4-41.2,15.4c-7.7,0.2-15.3-1.7-22-5.2c-5.8-3-10.7-7.3-14.3-12.6v57.6c0,4.5-3.8,8.2-8.5,8.2  c-4.7,0-8.5-3.7-8.5-8.2V72.6C512.8,70.5,513.7,68.4,515.4,66.9z M539.5,89.1c-6.8,7.6-10.1,19.3-10.1,35c0,15.7,3.4,27.3,10.1,35  c6.5,7.6,16.3,11.9,26.6,11.6c25.6,0,38.4-15.5,38.4-46.6c0-30.9-13-46.4-38.9-46.4C555.5,77.4,545.9,81.7,539.5,89.1L539.5,89.1z"></path>	<path class="st4" d="M287.5,91.2c7.7-8.6,19.1-13.3,30.9-13c9.9,0,17.6,2.5,23.2,7.5c5.5,5,8.3,11.8,8.3,20.5v6.8h-37.6  c-14.4,0-25.8,3.2-34.1,9.5c-8.4,6.4-12.5,15.2-12.5,26.4c0,11.6,4.1,20.5,12.4,26.9c8.3,6.4,19.5,9.5,33.7,9.5  c7.9,0.1,15.8-1.5,22.9-4.8c6.5-2.8,11.8-7.5,15.2-13.5v9.2c-0.3,3,1.1,6,3.9,7.6c2.7,1.6,6.1,1.6,8.8,0c2.7-1.6,4.2-4.6,3.9-7.6  v-70.1c0-13.2-4.2-23.8-12.5-31.6c-8.4-7.8-20.2-11.7-35.5-11.7c-20.6,0-35.4,6.7-44.3,20.1c-0.9,1.3-1.3,2.8-1.3,4.3  c0,4.1,3.5,7.4,7.7,7.4C283.2,94.5,285.8,93.3,287.5,91.2z M339.1,162c-7.2,5.8-16.3,8.9-25.7,8.7h-0.1c-20.3,0-30.4-7.2-30.4-21.7  c0-7.1,2.6-12.5,7.9-16.2c5.2-3.7,12.4-5.5,21.5-5.5h37.7v10.7C349.9,148.3,346.3,156.2,339.1,162z"></path>	<path class="st4" d="M399.5,65.1c-3.2-1.3-6.8-0.6-9.3,1.7c-1.6,1.5-2.5,3.6-2.5,5.8v152.6c0,4.5,3.8,8.2,8.5,8.2s8.5-3.7,8.5-8.2  v-57.6c3.6,5.3,8.5,9.6,14.3,12.6c6.7,3.6,14.3,5.4,22,5.2c17.8,0,31.5-5.1,41.2-15.4c9.7-10.3,14.5-25.6,14.5-46  c0-20.4-4.8-35.7-14.5-45.9c-9.7-10.2-23.5-15.3-41.2-15.3c-7.8-0.1-15.5,1.7-22.3,5.4c-5.7,2.9-10.6,7.2-14,12.5v-8.2  C404.8,69.3,402.7,66.4,399.5,65.1z M404.3,124.1c0-15.7,3.4-27.3,10.1-35h0c6.4-7.5,16-11.7,26.1-11.5c26,0,38.9,15.5,38.9,46.4  c0,31.1-12.8,46.6-38.4,46.6c-10.3,0.3-20.1-4-26.6-11.6C407.6,151.4,404.3,139.8,404.3,124.1z"></path>	<path class="st4" d="M772.9,78.2c9.8-10.2,23.5-15.3,41.3-15.3c17.8,0,31.6,5.1,41.3,15.3c9.8,10.2,14.7,25.5,14.7,45.9  c0,20.4-4.9,35.7-14.7,46c-9.8,10.3-23.6,15.4-41.3,15.4c-17.6,0-31.3-5.1-41.2-15.4c-9.9-10.3-14.8-25.6-14.9-46  C758.2,103.7,763.1,88.4,772.9,78.2z M814.3,170.7c25.7,0,38.5-15.5,38.5-46.6c0-30.9-12.9-46.4-38.7-46.4  c-25.8,0-38.6,15.5-38.6,46.4C775.6,155.2,788.4,170.7,814.3,170.7L814.3,170.7z"></path>	<path class="st5" d="M1019.3,62.9c33.6,0,50.4,15,50.4,45.1v68c0.1,2.2-0.8,4.3-2.5,5.9c-3.4,3.1-8.6,3.1-12,0  c-1.7-1.5-2.6-3.7-2.5-5.9v-64.7c0-10.9-2.5-19.2-7.5-25.1s-13.6-8.8-25.9-8.8c-11.2,0-19.6,2.6-25.1,7.9  c-5.5,5.3-8.3,12.8-8.3,22.5v68c0.1,2.2-0.8,4.3-2.5,5.9c-3.4,3.1-8.6,3.1-12,0c-1.7-1.5-2.6-3.7-2.5-5.9v-64.6  c0-11-2.4-19.5-7.2-25.2c-4.8-5.8-13.3-8.7-25.6-8.7c-21.9,0-32.8,11.9-32.8,35.7v62.9c0.1,2.2-0.9,4.3-2.5,5.9  c-3.4,3.1-8.6,3.1-12,0c-1.7-1.5-2.6-3.7-2.5-5.9V72.6c-0.1-2.2,0.8-4.3,2.5-5.9c3.4-3.1,8.6-3.1,12,0c1.7,1.5,2.6,3.7,2.5,5.9v8.2  c2.8-5.4,7.4-9.9,13.1-12.7c6.6-3.5,14.1-5.3,21.6-5.1c20.8,0,34.9,5.9,42.4,17.8C988.4,68.9,1001.4,62.9,1019.3,62.9z"></path>	<path class="st4" d="M1088.4,124.1c0-19.5,4.8-34.6,14.4-45.2c9.6-10.6,23.1-15.9,40.5-15.9c7.4-0.1,14.7,1.1,21.6,3.6  c5.5,2,10.6,5,14.8,8.9c3.7,3.6,6.6,7.8,8.8,12.4c2,4.1,3.6,8.5,4.5,13c0.8,3.9,1.2,7.9,1.2,11.8c0,2-0.1,3.9-0.3,5.9  c-0.2,1.6-0.6,3.2-1.1,4.8c-0.4,1.7-1.6,3.3-3.2,4.2c-1.9,1-4,1.5-6.1,1.4h-77.9c0,12.7,3.6,22.8,10.8,30.3  c7.2,7.5,17,11.2,29.5,11.2c11.2,0,21.9-3.7,32-11c1.4-1,3.1-1.5,4.8-1.6c4.3,0,7.7,3.3,7.7,7.4c-0.1,2.3-1.2,4.4-2.9,5.9  c-10,9.5-23.9,14.3-41.6,14.3c-18.3,0-32.5-5.1-42.5-15.2C1093.5,160.1,1088.5,144.7,1088.4,124.1z M1177.5,114.7  c0-24.6-11.4-36.9-34.1-36.9c-11.4,0-20.3,3.3-26.6,9.8c-6.4,6.5-10,15.6-11,27.1L1177.5,114.7z"></path></g></svg>