<svg version="1.1" id="Layer_1" xmlns:x="ns_extend;" xmlns:i="ns_ai;" xmlns:graph="ns_graphs;" xmlns="http://www.w3.org/2000/svg" xmlns:xlink="http://www.w3.org/1999/xlink" x="0px" y="0px" viewBox="0 0 597.4 130" style="enable-background:new 0 0 597.4 130;" xml:space="preserve">
 <style type="text/css">
  .st0{fill:#5A2A82;}
 </style>
 <metadata>
  <x:xmpmeta xmlns:x="adobe:ns:meta/">
   <rdf:RDF xmlns:rdf="http://www.w3.org/1999/02/22-rdf-syntax-ns#">
    <rdf:Description rdf:about="" xmlns:dc="http://purl.org/dc/elements/1.1/" xmlns:illustrator="http://ns.adobe.com/illustrator/1.0/" xmlns:lr="http://ns.adobe.com/lightroom/1.0/" xmlns:stEvt="http://ns.adobe.com/xap/1.0/sType/ResourceEvent#" xmlns:xmp="http://ns.adobe.com/xap/1.0/" xmlns:xmpGImg="http://ns.adobe.com/xap/1.0/g/img/" xmlns:xmpMM="http://ns.adobe.com/xap/1.0/mm/">
     <xmp:MetadataDate>
      2018-10-08T22:17:20-07:00
     </xmp:MetadataDate>
     <xmp:CreateDate>
      2018-10-01T09:55:47-07:00
     </xmp:CreateDate>
     <xmp:Thumbnails>
      <rdf:Alt>
       <rdf:li>
        <rdf:Description>
         <xmpGImg:width>
          256
         </xmpGImg:width>
         <xmpGImg:height>
          84
         </xmpGImg:height>
         <xmpGImg:format>
          JPEG
         </xmpGImg:format>
         <xmpGImg:image>
          /9j/4AAQSkZJRgABAgEBjwGPAAD/7QAsUGhvdG9zaG9wIDMuMAA4QklNA+0AAAAAABABj///AAEA
AQGP//8AAQAB/+4ADkFkb2JlAGTAAAAAAf/bAIQABgQEBAUEBgUFBgkGBQYJCwgGBggLDAoKCwoK
DBAMDAwMDAwQDA4PEA8ODBMTFBQTExwbGxscHx8fHx8fHx8fHwEHBwcNDA0YEBAYGhURFRofHx8f
Hx8fHx8fHx8fHx8fHx8fHx8fHx8fHx8fHx8fHx8fHx8fHx8fHx8fHx8fHx8f/8AAEQgAVAEAAwER
AAIRAQMRAf/EAaIAAAAHAQEBAQEAAAAAAAAAAAQFAwIGAQAHCAkKCwEAAgIDAQEBAQEAAAAAAAAA
AQACAwQFBgcICQoLEAACAQMDAgQCBgcDBAIGAnMBAgMRBAAFIRIxQVEGE2EicYEUMpGhBxWxQiPB
UtHhMxZi8CRygvElQzRTkqKyY3PCNUQnk6OzNhdUZHTD0uIIJoMJChgZhJRFRqS0VtNVKBry4/PE
1OT0ZXWFlaW1xdXl9WZ2hpamtsbW5vY3R1dnd4eXp7fH1+f3OEhYaHiImKi4yNjo+Ck5SVlpeYmZ
qbnJ2en5KjpKWmp6ipqqusra6voRAAICAQIDBQUEBQYECAMDbQEAAhEDBCESMUEFURNhIgZxgZEy
obHwFMHR4SNCFVJicvEzJDRDghaSUyWiY7LCB3PSNeJEgxdUkwgJChgZJjZFGidkdFU38qOzwygp
0+PzhJSktMTU5PRldYWVpbXF1eX1RlZmdoaWprbG1ub2R1dnd4eXp7fH1+f3OEhYaHiImKi4yNjo
+DlJWWl5iZmpucnZ6fkqOkpaanqKmqq6ytrq+v/aAAwDAQACEQMRAD8AKvzC/NTzV5j1m8Rb+a10
hJXjtbGB2jT0lYhTIFpzYjc8vooM3uDTRgBtu5MYAM28u/8AONr6voVlql7r5guL+BLn0kt/VCLK
odQXaRCxod9v65jT1/DIgDkwOV5xqM/mryH5ovdLstWngudPl9P1beRlR1oGUlKlSCpB4tXMuIjk
iCRzbBRDO/zSu9S8z/lt5V89P+6u2MtlqAiJVWIkdUegOw5Qt/wWY2nAhklBhDYkN/8AONnmia38
13mi3ErPFqlvzhDHl++tqsKV6VjZ/ux1+P0g9y5Rs+k81LQ+P/ze81T6z+YOrTwXDfVbaT6nbBGP
Hhb/AAEinZnDN9Ob3TY+HGHJgKDL9U0e50j/AJx2tLmR3F3ql9FeyMSQwSTksQrWtDGit9OURkJZ
67gxBuTAPIHl2883eabXQv0lJZfWVlb6zRpePpRtJ9jnHWvGn2syc0xCPFVs5Gg9Zb/nGO9oePm6
QnsDaMBX/pJOYX8oD+b9v7GrxfJ5h5jTzr+X/mebSU1meO4tgjpNbTyKjo68lJUkeO6kZmY+DLG6
bBRD6J/Kzz5ea/8Al62uasOd1YGaO8kQBfU9BRJzCigBKMK9q5qtRhEcnCOrTONF85ebfzO85ea7
+Vri+mhs5XpBpsEjRwKpPwqVUgOd/tNvm2xaeEBybhAB6fpv/OLwkskk1TXWS+kUNLHDCGRHPUc2
er08aDMOXaG+w2YHK8/89+UfMf5Za7bw2erymO5Qz2l5bM9ux4txZXVWNGHzO2ZOHLHNHcM4kSe2
/kT+YerebtFvrfV2E2o6U8StdABTLFMG4FgAByBjYEjrtmv1mAQIrkWrJGnzDeXl59cn/fyf3j/t
t/MffNwAKbwHtmm/844Xt9pdrfL5rkQ3UEcwiNqxCmRA3Hl9Y7V60zXS1wBrh/Hyajk8nnHmJPOn
5f8AmefSU1meO4tgjpNbTSLG6OvJTxJHjuCMy8fBljdMxUg9bP5x6+PyWXzCOB1763+izc8Rx9Sn
P1uFONfT7dOW/TbMH8rHxuH+Hm18Hqp5H5W0zzD+Y3m6DS7/AFeZ5bgPJNd3LPNwSNeR4oWFelAK
gZnZJRxRsBsJEQzfz1/zj7H5a8s3eu2WtPcPYKskkMkITkOQUlXVzQitemY+HW8cuEjmxjks0kX5
QfmR5n0vzbpWlPfS3Wlahcx2ktnO7SIvruEV4+VeBVmB2698s1WCJiTW4TOIpIPzH0q88ved9X0t
ZJEgjuGktV5tT0Jv3kQrXsjAZbgkJQBTHcPpn8nfMf6e/L3Srh25XNqn1K5ruedv8AJPiycW+nNR
qocOQtExRVfza8x/oD8v9WvFbjcTRG0tetfUuP3dRTuqkt9GDTQ4pgLAWXy55B0u98w+ctJ0j1ZG
iuLhTcDk39zH+8l7/wC+1ObnNIRgS5Etgnv5p/md5p1vzJqVkl7NaaRaXElvb2ULGNSsTlOUnE/G
zca7k07ZVp9PGMQa3YwgAGWeUv8AnHJda8uWOsX+tvBPqUCXUcMUIcIsy805OzgseLAnYeHvlOXX
cMiAOTE5KLznX7XzF+X/AJuvdIstVmiubB143Vs7wh1kjWRCVB7o4qpr4b5lQMcsASObYKIe96R5
81/Wvyr0nUGmW11fVL2HSZtRUACP1Lj0WuAv2Q3Dp25HNbLDGOUjoBbSY0WE2upeYNM1DUtSsZ54
X0q2nv5J7mWY/WxBetbLE/q3EwuFmVCrN6alHpSm1cgxiQAeu32e7ZlQeQ+YNOu9M1y/sLtDHcW1
xJHIjChqrHf5HqMzoSBiCG0HZ9fflhr+l615H0iWwmWU21rDa3UYPxRzQxqjo46jcVHiN80WogYz
NuNIUWD+c/8AnHn/ABL5nv8AXP0/9U+vOJPq/wBU9ThRAtOfrpX7PhmTi13BERrl5s45KDILn8sx
a/k9c+SxOdQmgt53tpxH6Zeb1nuogE5SU+MhftZUNReXj5MeL1W+XvKmuS6D5l03WErWxuI5XA6s
gb94v+ySozcZIcUSO9yCLD7E85eZYNE8malr0bhlgtTJauNw0kgCwfQzuuaLFj4piLigWafG+g6T
c65r1jpcRJn1C4jh5ncj1GALH5A1Ob6cuGJPc5RNB9I/85B2sFp+V0drbrwgt7m1iiQdFRFZVH0A
ZqdEbyW0Y+byH8gP/Jo6X/xjuf8AqHfM7W/3ZbMnJ9aZpHHfKP8AzkN/5My7/wCYe3/5N5utD/du
Rj5PRfyR/wDJM67/AMZL7/qGTMXV/wB8Pgwn9T52sv8AeyD/AIyJ/wASGbU8m4vvLOacR88/85S/
8dTQP+MFx/xNM2nZ3It2JFf84rf9NR/0Y/8AYxg7R/h+P6Fy9HhN7/vZP/xkf/iRzZDk2h9weWP+
Ub0n/mDt/wDk0uc7k+o+9xTzfMf/ADkN/wCTMu/+Ye3/AOTebfQ/3bfj5Im00+8vP+ceLl7aMyCz
1w3Fxx3KxCFULfIFxXAZAZ/81f4kk/JjzBpuhfmFp95qUogs5BJbyTsaLGZUKqzE9F5Uqe3XLNXA
yxkBMxYfU3m/y+vmbyvfaMtyLZdQiCLdBfVCjkG5BeScun82abFPgkD3OODReW+X/wDnGv8ARGva
bq3+I/X/AEddQXfo/UuHP0JFk48vXbjy40rQ5mT1/FEjh5+f7Gw5bCTf85P+XRHf6T5hiXa4RrK5
IH7UZMkRPuysw/2OWdnz2MU4j0b/AOcYPMRS91by9K/wTIt9bKTT40IjloO5ZWT/AIHHtCGwkuUd
Vb/nKDzETJpHl2J9lDX90tepNYofupJ9+Ds+HOXwXEOqD/5xi8vCfWNU1+QfDZxLaW9f9+THk5H+
qiU/2WS7QnsIrlPR5d570680/wA561a3cZimW9nbiRSqvIWRhXsykEZmYZAwBHc2ROz6o/KHzJpm
teQtIWzlVp9OtYLK8gDAvHJAgj+IdQH4cl9s02pxmMzfVx5iixXz5+QH+K/Nd9r/AOnvqX130v8A
Rvqnq8fShSL7frR1r6dfs5dh1vBERr7WUclCmXeVPy40/RvI/wDhHUZhqtm7SGZyhg5CR/UFAruV
KmlCGrXfKMmcynxjZiZWbWQflZoQmsWvru71O301nezs7s25iVpH9VixihikkrIAx9R2qdzXCdRL
eqFrxIH80vyj0rzpam6hK2evwpS3vKfDIB0jmA6r4N1X36ZLT6k4zX8KYTp86aVq/nT8tPNUihXs
76AhLuzl3hnjrWhA2ZG/ZdfoObWUYZo+TcQJB9Qfl/8AmPoPnXTfrFi3o30IH13T5CPUiY9x/MhP
Rh9NDtmmzYJYzvyaJRIZXlLF8Z/mp5d/w/5+1ewVOFu0xuLUDoIrj94oH+ry4/Rm/wBNPigC5UDY
ZX5z893N7+THlXR35LPOzpOx25Qae3pRfNWJXf8AmQ5Riw1mkfxuwjH1Ff8A843eXTqHnSbV5FrB
o8BZW7evcAxoD/sPUP0Y6+dQrvXKdnp3/ORv/kuG/wCYyD/jbMPQ/wB58GGPm8b/ACA/8mjpf/GO
5/6h3zP1v92WzJyfWmaRx3yj/wA5Df8AkzLv/mHt/wDk3m60P925GPk9F/JH/wAkzrv/ABkvv+oZ
MxdX/fD4MJ/U+drL/eyD/jIn/Ehm1PJuL7yzmnEfPP8AzlL/AMdTQP8AjBcf8TTNp2dyLdiRX/OK
3/TUf9GP/Yxg7R/h+P6Fy9HhN7/vZP8A8ZH/AOJHNkOTaH0TpP8Azkj5JstGs7N7DUnntreKFqR2
/AvGgU0Pr1pUeGaqWgmSTYaTiLxj8wPNcnnXzhcatb2jwi4EcNtag+pJSNQorxG7N1oMz8GPw4Vb
bEUH0d+SPlTUNC/L9LLV7f0ri9mluJbSVfiRJAqBJFI6lUqQfHNVq8glOw0TNl5r+bv5FSaaJ9f8
qxNLp4rJeaYoLPAOpeLu0fivVfl0y9NrL9Mufezhk6FKvym/O288tNFo+us91oBIWKX7UtrX+Xu0
fivb9nwM9TpBPeP1JnC+T6asL+y1CzhvbKZLi0uFEkM8ZDKynoQRmoIINFoYh+cvl39O/l3qsCJz
uLRBe2/iGt/januY+S/Tl+lnw5AygaL5n/KzV7nSvzC0K5gDMz3SW7ooqWS4PouKd9nzb6iPFjIc
iY2d+aPmIeYPPmr6gj87f1jBant6UA9NCPZuPL6cdPDhgAsBQfSn5J+Xf0J+XWmI6FLi/Bv7gH+a
ehT/AJJBBmp1c+LIfLZombK/8y/ys0bztYcmpaazApFpqCrv/wAY5QPtofvXt3BGn1BxnyRGdPmq
Kbzt+Wfms7NY6lb7Oh+KCeI+P7Mkbfh7MM25EM0e8N+0g+mfy3/NDRPO1hWAi11aFa3mnOasvQc4
z+3HU9e3fNRn05xnyaJRpmeY7F2KuxViv5gflzoXnTTPq18no3sQP1LUEA9WJvD/ACkJ+0v6jvl2
HPLGdmUZEPlG5j8yeRPN80MU5tNY0qUp60R+EgioIqPiSRCDRhuDvm7HDkh5FyNiH1r+Xnmz/Ffl
DT9baMQzzqyXMS14rLExR+Nf2SV5D2OaPPj4JkOPIUXk3/OTnll3m0bX7eMs8hOnTlR1apkgHzNZ
Mzuz8nOPxbMR6PKvzCeOHXU0aFuVvoNvFpi06GWEFrltv5rl5Dmbg+m/52/4+DZHk+gv+cePLo0v
yCl/InG51eZ7hievpIfTiHy+EsP9bNXrp3Ou5pyHdr/nI3/yXDf8xkH/ABtjof7z4Lj5vG/yA/8A
Jo6X/wAY7n/qHfM/W/3ZbMnJ9aZpHHfKP/OQ3/kzLv8A5h7f/k3m60P925GPk9F/JH/yTOu/8ZL7
/qGTMXV/3w+DCf1Pnay/3sg/4yJ/xIZtTybi+8s5pxHzz/zlL/x1NA/4wXH/ABNM2nZ3It2JFf8A
OK3/AE1H/Rj/ANjGDtH+H4/oXL0eE3v+9k//ABkf/iRzZDk2h9k+XPJ/lKTy9pckmiWDyPaQM7ta
wlixiUkkldyc0E8suI7lxiSn1jo+kWBrY2NvaEin7iJI9vD4QMrMieZY2i8irsVeEfnj+TunpYXf
m3QUW2lg/e6nYqAsbqSA0sYGysOrDoevXrstJqjfDJtxz6FhH5J/mLqnl3zLZ6PJKZNE1S4SCa3c
/DFLMQizIT9mjEcvEfRmRq8AlEnqGc42H1ayqylWAZWFGU7gg9jmlcd8lweX5PKXnTzPcSLSPyvF
PJZs2xMtzSGxYDff9+sv+xzdmfHCI/nfguRdgMT8o6DJr/mbTNGjB/024SNyOqx1rI3+xQE5flnw
xJZyNB9vxRxxRpFGoSNAFRFFAFAoABnOuIuxVjvnjyHoPnHSTYapHSRKm0vEA9WFzTdCexp8SnY/
cctw5pYzYZRkQ+Sta0zX/InnCazS5MGp6ZKGhu4DSqsoZHFezIwqp+RzeQlHJC+hcgEEPqv8rvOM
3m3ybZ6tcoEvatBeBRRTLEaFl9mFG9umaXUYuCZDjyFFlmUMXwb9dvP9/wAn/Bt/XOloOXT7n0hw
+k2Tq3JWgiIYGoIKDeuc5LmXEL5O/PSSOT81NdaNgyg2ykg1+JbWJWH0EUzd6P8Auh+Ork4+T3T/
AJx8B/5VjY+89zT/AJGnNbrf7wtOTmyfz+2kweVrvUtTiWaLSeOowI3Q3FswkhH+ycBT7HKcNmVD
rsxjzfGtjaXutazBaR1kvdRuFjUn9qSZ6VP0tm/JERfQOVyfcWl6fb6bplpp1uKW9nDHbxD/ACIl
CL+AznJSs24hecf85G/+S4b/AJjIP+Nsy9D/AHnwbMfN43+QH/k0dL/4x3P/AFDvmfrf7stmTk+t
M0jjvlH/AJyG/wDJmXf/ADD2/wDybzdaH+7cjHyei/kepb8mtcVRVjLfAAdSfqyZi6v+9HwYZPqf
OtqypdQsxoqupJ8ACM2p5Nz7yR0kRXRg6OAyspqCDuCCM5pxHzt/zlHPC2t6HArgzR20zuncK7gK
T8+Bza9njYt2JH/84rqwXzO1DxJsQD2qPrFf15HtH+H4/oXL0eEXv+9k/wDxkf8A4kc2Q5NofcHl
j/lG9J/5g7f/AJNLnO5PqPvcU80yyCHjf/OTks0flfSWjdkrfEEqSP8AdLeGZ/Z49R9zbi5sJ/5x
qvXPn27jnnJ9TTJliV2J5MJ4WoAT14qTmRrx6B72WXk9v/NZ0T8ufMJdgoNlIoJNN2FAPpJpmv03
94Pe1Q5vkjyhG8nmzRI0HJ3v7VVUdSTMoAzd5fpPucmXJ9xZzriPn3/nJa40+yuLaztFC32sGO61
Rh1ZLNWitvv9WT/gRm00AJ3PIcvi3Ykt/wCcZ/Lv1vzRfa5ItY9LgEcJ/wCLrmq1HjSNXB+eS186
iI96cp2fSmalofCd7eXgvJx68gpI+3Jv5j750gApywH2x5WlWXyxpEisHV7K3YODUGsS71znsn1H
3uKeb5e/Px0b80dV4sG4pbK1DWhFumxzcaL+7Dfj5PZf+ccv/JcL/wAxk/8AxrmBrv7z4NeTm9Qz
Da3iPnL/AJxrtL+/mvvLmoLYidi7WFwhaJWY1PpyJ8Sr/klT882OLXkCpC22OXvS+y/Jv87tOtVs
tP8ANkNvZx1EUMd7eoqg/wAqiGi/RkjqsJNmP2BPHHuWaR/zjFqU136/mLXEKM3OZbRXkkkJNW/e
zBKE+JU4y7QFekKcvc900TRdO0TSrbStNhEFlaJ6cMY3oK1JJPUsSST3Oa6czI2ebUTby3/nJXzE
bLylaaLE9JdWn5SgHrBbUdgf+ejJ92Zmghcr7meIbvNf+cefLo1Tz8l9IoMGkQvcmvQyt+7jHzBY
sP8AVzM106hXe2ZDs+qc0rjsR/NHyXeecfKx0a0uI7WYzxzerKGK0jrUfDv3y/T5RjlZZRlRYN+W
35Fa15T832muXWpW1xDbrKrRRLIGPqRMgpyFNuWZOfWCcOEBnLJYez5r2p43+Zv5Haz5u82Ta1aa
lbW0MsUUYilVywMa8SfhFMz9PqxCNENsclBmX5U+Rr3yX5Zk0i8uY7qV7qS4EkIYLR0RafFvX4Mx
9TmGSVhhOVlhXnH/AJxs0nUr2a+8v3/6MaYl2sZY/UgDE1PpspVo19qN7UGZOLXkCpC2ccvelNn+
TX51aZbraaX5tigs0FEhS8vI1X2VFiYD6MmdVhO5j9gTxx7lGL/nGvzRqN+115g8xRSPIazToJrq
Z/m03p/eScP5+IFRivijoHsvkvyVonlDRl0vSUbgW9SeeQ8pZZCAObkADoKAAUGYGXKZmy1SlbxK
f/nGLzJJPJINYswHYsBxl7mvhmwHaEe4tvih9A6TZvZaVZ2TsHe2gihZx0JjQKSPuzWSNklpKKyK
pJ5x8oaP5s0OXR9VVjA7CSOWM0kilWoWRCQRUVI3HTLMWUwlYSDTxW4/5xo8z2N8tzoXmCENEeUE
8gltpkPajRerQ+4ObAa+JHqDb4o6quofkj+cGsQi11rzTDdWgIb0pLq7mWo78HiVajtgjq8UdxH7
l44joyz8vfyD0XyxqUOr6heNqmp2/wAVsOHpQRP/ADBasXYfskn3pXpTn1hmKAoMZZLeqZhNb48/
OPzENe/MPVbiNudtauLK2INRwt/gYg+DScm+nN9pYcOMOTAUHv35CeXf0P8Al3aTSJxudVdr6Qkb
8HosW/h6aKw+eavWT4sh8mnIbL0XMVg8b88/846adrOp3GqaFfjTZrpzLNZypzgMjGrFCpDICd6U
PtQbZn4dcYipC22OSkksPyV/ObSrYWelea4bWzG4hivLyJVJ68VWIgfRlh1eGW5j9gTxx7mtM/5x
j1S4vDceYNeRg7c5vqyPLLISatWSXhQnxKtjLtAAekKcvc9w8v6Bpfl/R7bSNLi9GytV4xrWpJJ5
MzE9WZiSc185mRstRNphkEOxV2KuxV2KvlX8/tXudY/MCeCFJJLXSoktIyFPEuPjlI2/nfj9GbrR
REYe9yMYoPUv+ccPLb6b5Mn1SaMx3Gr3BYctj6NvWNNuv2/UOYWuyXOu5ryHd6xmE1uxV2KuxV2K
uxV2KuxV2KuxV2KuxV2KuxV2KuxV2KpN5011tB8qapqyAma0t3aBQOVZmHGIU/4yMMsxQ4pAJAsv
jXRPL+p6zrllpqRSCa/uEh9Rlbb1GALknwrU5vpzEYk9zkk0H29aWsFpaQ2kC8ILeNYok8EQBVH3
DOeJs24qrgV2KuxV2KuxV2KuxV2KuxV2KuxV2KuxV2KuxV2KuxV2KuxV2KuxV2KuxV2KuxV2KuxV
2KuxV2KuxV2KuxV2KuxV2KuxV2KsC1zUdV1fzw3lmHVW0azt7dZy8NFnuJGoeKOfAN0HgevYqjNH
svNei+Z4bCS7uNX0K7iZmurkcnglUEgGTuG40+n7wqY61dLJ5k0fTYtTks7ir3MlpHGWFxEg+y71
AQfCfGuKoXzNqV+PNnlvSLKdohcSS3F6qGnKGFQwVvZqMMVRevXIfXtE02LU5LK4kle4NtHGXFxH
COTI71ARTQ9a1xVGa95l0bQbZZ9TuBCJDxijALSOfBUWpOKqHl7zhoWvtLHp8zfWIKGa3lRo5FB2
rxbqPliq7zB5u0LQPTXUZ+M839zbRqZJX+SrXb3O2KrvL3mnRfMEMkumz+oYSFnidSkkZNaclbxp
1xVQ1nzv5b0a/NjqFyYrkRCcIEZ6qzcFUcQasT28N+mKq3l3zVovmCOZ9NlZ2tmCzxOjI6Fq8ahh
34nFU3xVhHnzz/Fot5Z6daSmO8a4iN4xiLqtswJfjtu3TYYqya78xaRZ6PHrF5cC3sJESRHkBDES
LyUcKcuRH7NK4ql2h+f/AC1rN8LG0ndLtgWihmjaMyKBWqVFDtv44qyLFUj8763daJ5XvtStFDXM
KqIqioUyOqciP8nlXFWMR+XfNMuhDWtO81XV5qRh+sxxIVe2kcLy9JY/s7n4R+rCrNNGvLyfRra7
1KL6pdtEGu4m+EI4Hxdeg2rgVIn/ADT8lpdm3N4xjVuBuxE5g5eHMD8emNKn+q6xYaXpkmpXbkWk
QUs6AuSHYKtAta1LDFWFfl5rl35j1e91O41K5JjZ/S0tV42yQMeMZJpRm2wqqn8ybWXzxb6Xbysd
M4GGX9yxZ7tpDGqg0qF6Hl0xVl0+uadDrNvo8jkX11G0sCcTxKpXl8XSvw4FU7PzJo95rN3o9tNz
vrFQ1wgBoAaDZuhoWANMVX6Tr2m6sty9jIZIrSVoJZSpVC6fa4sdmA8RiqSSfmh5NjuDEbt2iD+m
10sUjQBvD1AtPpG2Ksh1DU7LT9Om1G5k42kCGV5B8Xwjwp1riqW6P508v6xffUdNna4nEPrycUYK
i/DszEAcvjGwxVCah+ZPlGxvHtJbtneJuFxJFG8kcZ/ynUEfdXFUTqekS6wsd5p2sTWkcqxvHJbu
7IyBXqQocJ8fNTWn7Pviqb2NvJb2VvbyzNcSwxJHJO1eUjKoBc1LGrEV64qwuKbyn52a9t9cso7T
UtLne2CNMVnCKdnDgRHiWr8O4H04VUfI00tl5x1XQbLUZdS0O2t1lieV/V9GXko9JXG37TdPDxxV
HaZyv/zQ1a6PxRaTZQ2aHsHnPqn6ftDArrH/AHIfmnqM5HKPR7CK2U9hJOfU+/iWGKutgb/81byQ
7x6Np8cK+0twfUr/AMAxGKoYPZS/mxcnU2RfqVjGdLWYgKCxBd0rtyFWxVO9Hv8AyvqfmXULrTY/
V1O0iW2u75AfTKMeQQNXixqnWnbriqR+V5rFvPXmi71J0j1GCSOK29ZlUrbBSAU5U2YAVp/HCq/y
fJBqfnnzDrdgK6YVitUmUUSaZAC7Dxpx6+BxVd5XtrfUvPvmTWpUDtZSR2FoxFeBjTjKRXvVfxOB
VXyD/pWteatWUAQ3N+LaMjYMLVSvL6edcVZnirCNWniufzS0i2lkVYtMsprqjkAepOTFQV6n7JxV
T82tbzfmB5btdTIGmKk00Qk2ie5UHiGrtVaLT5++FVvmS6stY8+eXLDT3We606SS6vZoiD6UQCkK
zCv2iOny8cVZ7gVjnm/zJaaRJp1pqFok+m6rK1tdTytxjiBApzUqwYMCepHTFWHecNC8t+W9ObWv
LWovp2oh0NvbQTmSOarAFeBLEihr4e2FWRfmJd6iPy6uZuJiuJooBdhOqLI6CUD7+J9sCobzdfeW
bL8vW02waGaO6gSDTbWLizyO5HFwq9Wr8RPj74VTHWZZtC/LSRZtri102O2Y1rSVo1hG/wDrtgVM
vJ+n/o/ytpdpSjR20ZkHT43HN/8AhmOKpB5JngvfN3mrUmdWla5SzhFRX07ZShKjwNBiqG/MbU00
LzFoGvFC/ox30RUCvJ2h/cqfYu2+FWLNHqflfVRBEGk8wa7pIUtUljfXV58RJ7FI+/iuKs71JbTy
V+XskSQC6W2hETxmoWWSdgjsxG4BZyfltgVhXmf9NweWbTSDqWmx2+oyRQwaTp0YYUdw/L1HZm4h
up7n54VZf+ZgNv5Ni0i1+1fT22nwV3P2gw/COmBU31SzTQ/Jt9Bo8fom0spTb8NmDJGfjqBu+1a9
zirznSv0tYeRlePXdMg0ieE+vA0POYtMKOj0BZnq3H+zCr0jyTpz6d5V020eX1ikPIScWWqyEuo4
t8QorAUOBU7xVhXm/wD5Vd+kP+di+rfpCg509T1abcfU9Dfp05dsKp15T/wn+jv+da+r/VKj1PQ+
1ypt6lfj5U/m3wKr6R/h/wCv6n+jPT+u+sP0nwry9Whpzr9PTFXaV+gP0jqf6O9P696i/pTjXl6l
Dx519q0pirtL/wAP/pTVP0fw/SPOP9KceXPlQ+nzr7VpTFUq86f4ArB/ij0PVofQ58/V417el8fG
v0YqmXlb/DP6KX/Dno/o/kf7j+fvzr8XKlPtb4qk3nD/AJVr9cT/ABJ9W+u8RSvP1ePbl6XxU8OW
Ksj0X9Efoy3/AEP6X6O4/wCj+hT06d6U716969cVUNA/QHpXn6G9P0/rUn1z06/707epyr+10xVr
y3/h/wDR7foL0/qXqvz9KtPV/bry3riqa4qxvWv8Df4j0/8ASn1f9O8o/qPLl6vLkfS+zt9v7PLv
iqJ82f4T/Ro/xL6H1Pl+79f7XL/iunx1/wBXFVHyb/gr6pN/hf0PS5D6x6VfUrvx58/3lOtK/Rir
IcVS7X/0D+jJf056H6O/3Z9Zpwr2pX9rwpv4YqxHy7/yp/8ASsX6I+rfpDkPQ9T1q8+3D1/h5eFN
8Ks6u/qv1Wb636f1Xg3r+rT0+FPi58vh4061wKwzy3/yqj9Mr+hPqv6T39L+8rX/AIr9T4a/6u+K
sk8yfoD9Eyfp70/0byT1fVrw5chwrT/KxVNMVY3pX+Bv8UXv6N+r/wCIKP8AXfT5c/tj1K/s8uf2
qb+OKozzD/hfnYfp30eXrr9Q9f8A39tSn4ddsVavP8L/AOJbL636P6f9JvqPOvqen8VePb+bFUbr
H6K/Rlz+lvS/R3A/WfXp6fH3r79PfFWCxf8AKlP0fNw+qfV+SepX1fVrU8acv3tPGm3jhVmGrf4c
9XS/0j6XL10/RXKvH1/2OHH4a+GBU2NKGvTvirAov+VO/pv4PqH1/maVr6POvav7itemFWe4Fdir
/9k=
         </xmpGImg:image>
        </rdf:Description>
       </rdf:li>
      </rdf:Alt>
     </xmp:Thumbnails>
     <xmpMM:InstanceID>
      xmp.iid:6bd2a517-079e-4f40-9daf-d7c08dfd066d
     </xmpMM:InstanceID>
     <xmpMM:DocumentID>
      xmp.did:0fa68a7b-70db-4389-8e12-ae7266ecd681
     </xmpMM:DocumentID>
     <xmpMM:OriginalDocumentID>
      xmp.did:0fa68a7b-70db-4389-8e12-ae7266ecd681
     </xmpMM:OriginalDocumentID>
     <xmpMM:History>
      <rdf:Seq>
       <rdf:li>
        <rdf:Description>
         <stEvt:action>
          saved
         </stEvt:action>
         <stEvt:instanceID>
          xmp.iid:0fa68a7b-70db-4389-8e12-ae7266ecd681
         </stEvt:instanceID>
         <stEvt:when>
          2018-10-08T22:15:27-07:00
         </stEvt:when>
         <stEvt:softwareAgent>
          Adobe Bridge CC 2018 (Macintosh)
         </stEvt:softwareAgent>
         <stEvt:changed>
          /metadata
         </stEvt:changed>
        </rdf:Description>
       </rdf:li>
       <rdf:li>
        <rdf:Description>
         <stEvt:action>
          saved
         </stEvt:action>
         <stEvt:instanceID>
          xmp.iid:6bd2a517-079e-4f40-9daf-d7c08dfd066d
         </stEvt:instanceID>
         <stEvt:when>
          2018-10-08T22:17:20-07:00
         </stEvt:when>
         <stEvt:softwareAgent>
          Adobe Bridge CC 2018 (Macintosh)
         </stEvt:softwareAgent>
         <stEvt:changed>
          /metadata
         </stEvt:changed>
        </rdf:Description>
       </rdf:li>
      </rdf:Seq>
     </xmpMM:History>
     <illustrator:StartupProfile>
      Print
     </illustrator:StartupProfile>
     <illustrator:Type>
      Document
     </illustrator:Type>
     <dc:title>
      <rdf:Alt>
       <rdf:li>
        synopsys-logo-color
       </rdf:li>
      </rdf:Alt>
     </dc:title>
     <dc:description>
      <rdf:Alt>
       <rdf:li>
        Synopsys, Logo, Color, Purple
       </rdf:li>
      </rdf:Alt>
     </dc:description>
     <lr:hierarchicalSubject>
      <rdf:Bag>
       <rdf:li>
        Logo type|Synopsys logo
       </rdf:li>
       <rdf:li>
        Logo type|Color
       </rdf:li>
      </rdf:Bag>
     </lr:hierarchicalSubject>
    </rdf:Description>
   </rdf:RDF>
  </x:xmpmeta>
  <sfw xmlns="ns_sfw;">
   <slices>
   </slices>
   <sliceSourceBounds bottomLeftOrigin="true" height="130" width="597.4" x="-321.1" y="0">
   </sliceSourceBounds>
  </sfw>
 </metadata>
 <desc>
  Synopsys, Logo, Color, Purple
 </desc>
 <g id="Layer_2_1_">
  <g id="Layer_1-2">
   <path class="st0" d="M41.6,15.1c0-4-2-7-10.8-7s-10.8,3-10.8,7v10.8c0,3.6,1.5,7,4.3,9.3L54,60.9c4.1,2.9,6.6,7.6,6.9,12.6v16.3
			c0,9.7-11.4,15.1-30.3,15.1C10,104.8,0,100.1,0,89.7v-14h18.8v13.5c0,4.9,3.7,7.7,12,7.7c7.7,0,11.4-2.8,11.4-7.7V74.7
			c0-3.6-1.4-6.3-5.4-9.8L9.1,40.8c-5.1-4.3-8-7.8-8-13.1V15.3C1.1,5.2,11.7,0.2,30.8,0.2c21.1,0,29.6,5,29.6,14.4v13.1H41.6
			L41.6,15.1z">
   </path>
   <path class="st0" d="M223,17.3C223,7.2,230.6,0,256,0s33,7.3,33,17.3v69.9c0,10.1-7.7,17.3-33.1,17.3c-25.4,0-33.1-7.3-33.1-17.3
			L223,17.3z M241.8,86.8c0,5.7,2.3,9.7,14.2,9.7s14.2-3.9,14.2-9.6V17.7c0-5.7-2.2-9.7-14.2-9.7c-12.1,0-14.3,4-14.3,9.7V86.8z">
   </path>
   <path class="st0" d="M299.5,0.8h29.9c24.2,0,31.3,4,31.3,15.7v25.2c0,11.7-7.1,15.7-31.3,15.7h-11.1v46.4h-18.8V0.8z M327.4,49.4
			c8.5,0,14.5-1.1,14.5-6.5V15.2c0-5.3-6-6.5-14.5-6.5h-9.1v40.7L327.4,49.4z">
   </path>
   <path class="st0" d="M407.7,15c0-4-2-7-10.8-7s-10.8,3-10.8,7v10.8c0,3.6,1.6,7,4.3,9.3l29.9,25.6c4,3,6.5,7.6,6.8,12.5v16.2
			c0,9.7-11.4,15.1-30.3,15.1c-20.8,0-30.8-4.7-30.8-15.1V75.4h18.7v13.5c0,4.8,3.7,7.7,12,7.7c7.7,0,11.4-2.9,11.4-7.7V74.5
			c0-3.5-1.4-6.3-5.4-9.8l-27.6-24.1c-5.1-4.3-8-7.8-8-13.1V15.1C367.2,5,377.8,0,396.9,0c21.1,0,29.6,5,29.6,14.4v13.1h-18.8V15z">
   </path>
   <path class="st0" d="M546.5,15c0-4-2-7-10.8-7c-8.8,0-10.8,3-10.8,7v10.8c0,3.6,1.6,7,4.3,9.3l29.9,25.6c4,3,6.5,7.6,6.8,12.5
			v16.2c0,9.7-11.4,15.1-30.3,15.1c-20.8,0-30.8-4.7-30.8-15.1V75.4h18.8v13.5c0,4.8,3.7,7.7,12,7.7c7.7,0,11.4-2.9,11.4-7.7V74.5
			c0-3.5-1.4-6.3-5.4-9.8L514,40.6c-5.1-4.3-8-7.8-8-13.1V15.1C506,5,516.5,0,535.6,0c21.1,0,29.6,5,29.6,14.4v13.1h-18.8V15z">
   </path>
   <polygon class="st0" points="119.2,0.9 138,0.9 96.8,130 78,130 		">
   </polygon>
   <polygon class="st0" points="89.5,81.1 64,1.1 82.8,1.1 98.9,51.5 		">
   </polygon>
   <polygon class="st0" points="485,0.9 503.9,0.9 462.7,130 443.8,130 		">
   </polygon>
   <polygon class="st0" points="455.4,80.8 430,0.9 448.8,0.9 464.8,51.3 		">
   </polygon>
   <path class="st0" d="M211.4,103.8L211.4,103.8V16.5c0-11.7-7.1-15.7-31.3-15.7h-36.1v102.9h18.8V8.9h15.5c8.6,0,14.5,1.1,14.5,6.5
			v88.4H211.4z">
   </path>
   <path class="st0" d="M573.1,13.6c-0.1-6.7,5.3-12.2,12-12.2c6.7-0.1,12.2,5.3,12.2,12s-5.3,12.2-12,12.2c0,0,0,0-0.1,0
			c-6.6,0.1-12.1-5.1-12.2-11.7C573.1,13.7,573.1,13.7,573.1,13.6z M585.3,23.6c5.3,0,9.7-4.3,9.7-9.6c0-0.1,0-0.2,0-0.4
			c0-5.4-4.4-9.7-9.7-9.7c-5.4,0-9.7,4.4-9.7,9.7c-0.2,5.3,4,9.8,9.4,10C585,23.6,585.2,23.6,585.3,23.6z M582.8,20.5h-2.2V6.7h5.3
			c3.3,0,4.9,1.2,4.9,3.9c0.1,2-1.4,3.7-3.4,3.8c-0.1,0-0.1,0-0.2,0l3.9,6.1h-2.3l-3.7-6h-2.4L582.8,20.5z M585.3,12.7
			c1.8,0,3.4-0.1,3.4-2.2c0-1.7-1.6-2-3-2h-2.9v4.3L585.3,12.7z">
   </path>
  </g>
 </g>
</svg>