<svg id="Layer_1" data-name="Layer 1" xmlns="http://www.w3.org/2000/svg" viewBox="0 0 198.39 64"><path d="M.4,37.4,26.6,63.6A32,32,0,0,1,.4,37.4Z" style="fill:#5e6ad2"/><path d="M0,30.29,33.71,64a32.11,32.11,0,0,0,5.85-.86L.86,24.44A32.11,32.11,0,0,0,0,30.29Z" style="fill:#5e6ad2"/><path d="M2.54,19.4,44.6,61.46A31.22,31.22,0,0,0,49,59.15L4.85,15A31.22,31.22,0,0,0,2.54,19.4Z" style="fill:#5e6ad2"/><path d="M7.7,11.14A32,32,0,1,1,52.86,56.31Z" style="fill:#5e6ad2"/><path d="M73,47H92.42V41.05h-13V13H73Zm23.61,0h6.33V21.52H96.56ZM99.74,18.5a3.57,3.57,0,1,0-3.41-3.58A3.52,3.52,0,0,0,99.74,18.5Zm14.55,13.75c0-3.28,1.77-5.2,4.32-5.2s4.08,1.86,4.06,5V47H129V30.76c0-5.93-3.12-9.58-7.87-9.58A6.92,6.92,0,0,0,114.26,26H114V21.52h-6V47h6.33Zm30.16,15.22c5.66,0,9.44-3.07,10.34-7.79L149,39.25a4.3,4.3,0,0,1-4.39,3c-3.16,0-5.17-2.34-5.17-6.13v0h15.54V34.11c0-8.65-4.69-12.93-10.72-12.93-6.72,0-11.07,5.32-11.07,13.18C133.14,42.43,137.43,47.47,144.45,47.47Zm-5.06-15.8c.12-2.9,2.11-5.22,4.92-5.22S149,28.64,149,31.67Zm26.27,15.78a6.89,6.89,0,0,0,6.67-4h.18V47h6V29.8c0-6.06-4.65-8.62-9.58-8.62-5.62,0-9.17,2.92-10,7.56l5.85.53a3.85,3.85,0,0,1,4-2.93,3,3,0,0,1,3.39,3.33c0,1.67-1.56,1.92-5.52,2.35-4.52.47-8.58,2.16-8.58,7.84C158.08,44.9,161.31,47.45,165.66,47.45Zm1.81-4.87c-1.94,0-3.34-1-3.34-2.95s1.47-3,3.7-3.32c1.38-.21,3.64-.58,4.4-1.14v2.7A4.6,4.6,0,0,1,167.47,42.58ZM183.42,47h6.33V32.57c0-3.12,2-5.25,4.59-5.25a4.31,4.31,0,0,1,2.15.59l1.9-5.83a5.56,5.56,0,0,0-3.12-.93c-2.57,0-4.64,1.66-5.48,4.81h-.23V21.52h-6.14Z"/></svg>