<?xml version="1.0" encoding="UTF-8"?>
<svg height="300.19" viewBox="0,0,850.394,300.186" width="850.39" xmlns="http://www.w3.org/2000/svg" xmlns:xlink="http://www.w3.org/1999/xlink">
 <clipPath id="a">
  <path d="m0 792h612v-792h-612z"/>
 </clipPath>
 <title>Puppet logo</title>
 <metadata/>
 <g clip-path="url(#a)" transform="matrix(10.7039 0 0 -10.6064 -416.69 8243.21)">
  <path d="m0 0h-3.068v13.807h3.068v-.883c.384.541 1.374 1.06 2.457 1.06 2.934 0 4.568-2.437 4.568-5.281 0-2.843-1.617-5.258-4.55-5.258-1.084 0-2.091.519-2.475 1.061zm0 7.056c.384-.7 1.012-1.174 1.825-1.174 1.512 0 2.379 1.219 2.379 2.821 0 1.625-.849 2.844-2.361 2.844-.835 0-1.459-.497-1.843-1.174z" fill="#040404" transform="translate(60.69 749.19)"/>
  <path d="m0 0h-3.068v.761c-.384-.632-1.477-1.151-2.651-1.151-2.257 0-3.486 1.489-3.486 3.723v6.639h2.685v-6.074c0-1.061.53-1.783 1.636-1.783.857 0 1.816.519 1.816 1.399v6.458h3.068z" fill="#040404" transform="translate(77.95 753.03)"/>
  <path d="m0 0h-2.685v13.807h2.685v-.883c.384.541 1.411 1.06 2.494 1.06 2.934 0 4.587-2.437 4.587-5.281 0-2.843-1.645-5.258-4.579-5.258-1.083 0-2.118.519-2.502 1.061zm0 7.056c.384-.7 1.05-1.174 1.862-1.174 1.512 0 2.398 1.219 2.398 2.821 0 1.625-.877 2.844-2.389 2.844-.835 0-1.487-.497-1.871-1.174z" fill="#040404" transform="translate(82.56 749.19)"/>
  <path d="m0 0h-2.685v13.807h2.685v-.883c.384.541 1.424 1.06 2.507 1.06 2.934 0 4.594-2.437 4.594-5.281 0-2.843-1.655-5.258-4.589-5.258-1.083 0-2.128.519-2.512 1.061zm0 7.056c.384-.7 1.063-1.174 1.875-1.174 1.512 0 2.405 1.219 2.405 2.821 0 1.625-.887 2.844-2.399 2.844-.835 0-1.497-.497-1.881-1.174z" fill="#040404" transform="translate(93.68 749.19)"/>
  <path d="m0 0c-.361-1.918-1.941-3.49-4.469-3.49-2.933 0-4.896 2.16-4.896 5.274 0 3.047 2.059 5.289 4.88 5.289 2.957 0 4.61-2.046 4.61-5.002v-.92h-6.782c.09-1.534.948-2.415 2.188-2.415.949 0 1.648.497 1.874 1.264zm-6.59 3.068h3.904c-.022.767-.654 1.896-1.805 1.896-1.083 0-1.851-.745-2.099-1.896" fill="#040404" transform="translate(110.81 756.1)"/>
  <path d="m0 0h-1.534v2.301h1.534v2.685h2.685v-2.685h2.301v-2.301h-2.301v-4.427c0-.79.394-1.151 1.116-1.151.429 0 .801.135 1.185.338v-2.482c-.384-.203-.981-.316-1.726-.316-2.053 0-3.26 1.015-3.26 3.25z" fill="#040404" transform="translate(112.85 760.7)"/>
  <path d="m53.407 769.136h-6.136v-6.136h6.136z" fill="#ffa61a"/>
  <path d="m43.819 757.631h-1.918v1.918h1.918zm2.301 4.218h-6.52v-6.52h6.52z" fill="#ffa61a"/>
  <path d="m0 0-3.874 3.874 1.496 1.496 3.874-3.874z" fill="#ffa61a" transform="translate(47.4 767.58)"/>
  <path d="m0 0-1.496 1.496 3.066 3.066 1.496-1.496z" fill="#ffa61a" transform="translate(46.06 760.36)"/>
  <path d="m43.819 772.588h-1.918v1.918h1.918zm2.301 4.219h-6.52v-6.52h6.52z" fill="#ffa61a"/>
 </g>
</svg>
