<?xml version="1.0" encoding="UTF-8"?>
<svg width="132px" height="48px" viewBox="0 0 132 48" version="1.1" xmlns="http://www.w3.org/2000/svg" xmlns:xlink="http://www.w3.org/1999/xlink">
    <!-- Generator: Sketch 55.2 (78181) - https://sketchapp.com -->
    <title>Group 12</title>
    <desc>Created with Sketch.</desc>
    <g id="Page-1" stroke="none" stroke-width="1" fill="none" fill-rule="evenodd">
        <g id="front-page-jun-7-copy" transform="translate(-825.000000, -19.000000)">
            <g id="Group-12" transform="translate(825.000000, 19.000000)">
                <path d="M22.7222622,0.872081929 C23.4747313,0.120395506 24.572312,-0.17389682 25.5985853,0.101485156 L37.7952825,3.36982403 C38.8219498,3.64559997 39.6252402,4.44771399 39.9006202,5.47517636 L47.898461,35.3228005 C48.173841,36.3510508 47.8799447,37.4466692 47.1278695,38.2003254 L38.1994885,47.1275866 C37.4474133,47.8804549 36.3502266,48.1735654 35.3223775,47.8985774 L5.47496067,39.9002871 C4.4478994,39.6252991 3.64460906,38.8220032 3.37041089,37.7953288 L0.101306793,25.5985468 C-0.173679307,24.5706905 0.120217012,23.4746781 0.87268614,22.7229917 L22.7222622,0.872081929 Z M24.9987234,29 L30.9987234,39 L38.9987234,39 L31.4987234,27 L38.9987234,16 L30.9987234,16 L25.9987234,24 L23.9987234,24 L23.9987234,16 L12.9987234,16 L12.9987234,18 L16.9987234,20 L16.9987234,39 L23.9987234,39 L23.9987234,31 L20.9987234,29 L24.9987234,29 Z" id="Combined-Shape" fill="#5F3CDB"></path>
                <g id="kolide-logo" transform="translate(62.000000, 19.000000)" fill="#202532">
                    <path d="M64,14.0014171 C60,14.0014171 58,13.0680838 58,11.2014171 L58,2.80067108 C58,0.934004411 60,0.00141714748 64,0.00141714748 L69.0003899,0.00141714748 C69.6670565,0.00141714748 70,0.311782189 70,0.934004411 L70,1.86808381 C70,2.49030604 69.6670565,3 69.0003899,3 L64,3 C62,3 60.9996101,3.11178219 60.9996101,3.73475048 L60.9996101,4.66733774 C60.9996101,5.29030604 61.3333333,5.5 62,5.5 L64,5.5 C64.6666667,5.5 65.0003899,5.91178219 65.0003899,6.53475048 L65.0003899,7.46808381 C65.0003899,8.09030604 64.6666667,8.40141715 64,8.40141715 L62,8.5 C61.3333333,8.5 60.9996101,8.71252826 60.9996101,9.33475048 L60.9996101,10.2680838 C60.9996101,10.890306 62,11 64,11 L69.0003899,11 C69.6670565,11 70,11.5132743 70,12.1347505 L70,13.0680838 C70,13.690306 69.6670565,14.0014171 69.0003899,14.0014171 L64,14.0014171 Z M49.9992203,0.00149173419 C53.9992203,0.00149173419 56,0.934078998 56,2.80074566 L56,11.2014917 C56,13.0681584 54,14.0014917 49.9992203,14.0014917 L44.9996101,14.0014917 C44.3337232,14.0014917 44,13.6903806 44,13.0689045 L44,0.934078998 C44,0.311856775 44.3337232,0.00149173419 44.9996101,0.00149173419 L49.9992203,0.00149173419 Z M53,10.1011317 L53,3.89814981 C53,3.29890426 52.0005198,3 50,3 L47.9994802,3 C47.3336798,3 47,3.29890426 47,3.89814981 L47,10.1011317 C47,10.7003772 47.3336798,11 47.9994802,11 L50,11 C52.0005198,11 53,10.7003772 53,10.1011317 Z M39.9997401,14.0014171 C39.3329867,14.0014171 39,13.690306 39,13.0680838 L39,0.934004411 C39,0.311782189 39.3329867,0.00141714748 39.9997401,0.00141714748 L41.0002599,0.00141714748 C41.6662334,0.00141714748 42,0.311782189 42,0.934004411 L42,13.0680838 C42,13.690306 41.6662334,14.0006711 41.0002599,14.0006711 L39.9997401,14.0006711 L39.9997401,14.0014171 Z M30.9994802,0.932587264 L30.9994802,10.2666667 C30.9994802,10.8888889 31.9998267,11.2 33.9997401,11.2 L36.0004332,11.2 C36.6662913,11.2 37,11.5111111 37,12.1333333 L37,13.0666667 C37,13.689635 36.6662913,14 36.0004332,14 L33.9997401,14 C29.9999134,14 28,13.0666667 28,11.2 L28,0.932587264 C28,0.310365041 28.3337087,9.76996262e-15 29.0003465,9.76996262e-15 L29.9999134,9.76996262e-15 C30.6665512,9.76996262e-15 31.0002599,0.311111111 31.0002599,0.932587264 L30.9994802,0.932587264 Z M19.9991003,0 C23.9991003,0 25.99988,0.933979858 25.99988,2.80119358 L25.99988,11.2002984 C25.99988,13.0667661 23.99988,14 19.9991003,14 C15.9991003,14 13.99988,13.0675121 13.99988,11.2002984 L13.99988,2.80119358 C13.99988,0.933979858 15.9991003,0 19.9991003,0 Z M22.99988,10 L22.99988,4 C22.99988,3.40740741 22.0002699,3 19.9994901,3 C17.9994901,3.05897504 16.99988,3.46709299 16.99988,4 L16.99988,10 C16.99988,10.5925926 17.9994901,11 19.9994901,11 C22.0002699,11 22.99988,10.5925926 22.99988,10 Z M12.157053,11.6907955 L12.1562995,11.6907955 C12.6144068,12.1263819 12.6144068,12.5649517 12.1562995,13.0072509 L11.4804406,13.668835 C11.0230868,14.1103883 10.5649795,14.1103883 10.1076256,13.668835 L9.25470218,12.8461436 L5.143792,8.88335171 C4.82055511,8.573071 4.38580526,8.4007757 3.92920489,8.4007757 L3.86516029,8.4007757 C3.22094691,8.4007757 2.89846348,8.71105641 2.89846348,9.33385544 L2.89846348,13.0661744 C2.89846348,13.6882276 2.57673353,13.9992541 1.93252014,13.9992541 L0.965823339,13.9992541 C0.322363424,13.9992541 -0.000119999997,13.6882276 -0.000119999997,13.0661744 L-0.000119999997,0.935391927 C-0.000119999997,0.313338768 0.322363424,0.002312188 0.965823339,0.002312188 L1.93252014,0.002312188 C2.57673353,0.002312188 2.89921695,0.313338768 2.89921695,0.935391927 L2.89921695,4.66845675 C2.89921695,5.29125577 3.22094691,5.60153649 3.86516029,5.60153649 L3.90735438,5.60153649 C4.36169435,5.60228235 4.79870459,5.42774945 5.12495535,5.11448527 L10.066185,0.341681717 C10.5167576,-0.0998716043 10.9718511,-0.0998716043 11.4292049,0.341681717 L12.1148589,0.995807161 C12.5654315,1.43213941 12.5676919,1.8677258 12.1284213,2.30331218 C12.124654,2.30704152 12.1239005,2.31151672 12.1201332,2.31599192 L12.1148589,2.32046713 L7.28363527,6.98511995 L12.157053,11.6907955 Z" id="Combined-Shape"></path>
                </g>
            </g>
        </g>
    </g>
</svg>