<?xml version="1.0" encoding="utf-8"?>
<!-- Generator: Adobe Illustrator 25.0.1, SVG Export Plug-In . SVG Version: 6.00 Build 0)  -->
<svg version="1.1" id="Layer_1" xmlns="http://www.w3.org/2000/svg" xmlns:xlink="http://www.w3.org/1999/xlink" x="0px" y="0px"
	 viewBox="0 0 390 96.7" style="enable-background:new 0 0 390 96.7;" xml:space="preserve">
<style type="text/css">
	.st0{fill:#333333;}
	.st1{fill:#3C414C;}
	.st2{fill:#37ACE2;}
	.st3{fill:#010101;}
	.st4{fill:#FFFFFF;}
	.st5{fill:#292929;}
	.st6{fill:#00AFF0;}
</style>
<g>
	<g>
		<path class="st3" d="M116.9,68.4h-12.4V37h12.4c4.5,0,8.1,1.3,11,3.9c1.5,1.4,2.7,3.1,3.5,5.1c0.8,2,1.2,4.2,1.2,6.7
			c0,2.5-0.4,4.7-1.2,6.7c-0.8,2-1.9,3.7-3.5,5.1c-1.4,1.3-3,2.3-4.9,2.9C121.2,68.1,119.2,68.4,116.9,68.4z M110.6,63.1h6.4
			c1.1,0,2.2-0.1,3.4-0.4c1.1-0.3,2.2-0.8,3.1-1.5c0.9-0.8,1.7-1.8,2.3-3.2c0.6-1.3,0.9-3.1,0.9-5.3c0-2.2-0.3-3.9-0.9-5.3
			c-0.6-1.4-1.4-2.4-2.3-3.2c-0.9-0.7-2-1.2-3.1-1.5c-1.1-0.3-2.3-0.4-3.3-0.4h-6.4V63.1z"/>
		<path class="st3" d="M146.1,42.3v7.8h15.2v5.4h-15.2V63h17.1v5.4h-23.1V37h23.1v5.3H146.1z"/>
		<path class="st3" d="M199.8,37.1l-14.9,31.3h-0.3l-14.9-31.3h6.6l8.4,18.1l8.4-18.1H199.8z"/>
		<path class="st2" d="M204.1,64.3l3.3-4.8c1.6,1.1,3.2,2,4.9,2.8c1.7,0.8,3.4,1.2,5.2,1.2c1,0,1.8-0.1,2.6-0.4
			c0.7-0.2,1.4-0.6,1.9-0.9c0.5-0.4,0.9-0.8,1.2-1.3c0.3-0.5,0.4-1,0.4-1.5c0-0.6-0.2-1.2-0.6-1.6c-0.4-0.4-0.9-0.8-1.5-1.1
			s-1.4-0.5-2.3-0.7c-0.9-0.2-1.8-0.4-2.7-0.6c-0.6-0.1-1.4-0.2-2.2-0.4c-0.8-0.2-1.7-0.4-2.6-0.6c-0.9-0.3-1.8-0.6-2.6-1.1
			c-0.9-0.4-1.6-1-2.3-1.7c-0.7-0.7-1.2-1.5-1.7-2.4c-0.4-0.9-0.6-2-0.6-3.3c0-1.8,0.4-3.3,1.1-4.6c0.7-1.2,1.7-2.2,2.8-2.9
			s2.4-1.2,3.9-1.5c1.4-0.3,2.8-0.4,4.1-0.4c1.3,0,2.5,0.1,3.5,0.3c1,0.2,2,0.4,2.9,0.7s1.7,0.7,2.6,1.2c0.8,0.5,1.7,1.1,2.7,1.8
			l-3.3,4.7c-1.5-1-2.9-1.8-4.3-2.4c-1.4-0.5-2.8-0.8-4.3-0.8c-0.5,0-1.1,0.1-1.8,0.2c-0.7,0.1-1.3,0.3-1.9,0.6
			c-0.6,0.3-1.1,0.7-1.5,1.1c-0.4,0.4-0.6,1-0.6,1.6c0,0.6,0.2,1.2,0.7,1.6c0.5,0.4,1,0.8,1.8,1.1s1.5,0.5,2.4,0.7
			c0.9,0.2,1.7,0.4,2.5,0.6c0.6,0.1,1.3,0.3,2.1,0.4c0.8,0.1,1.7,0.3,2.5,0.6c0.9,0.3,1.7,0.6,2.6,1c0.9,0.4,1.6,1,2.3,1.7
			c0.7,0.7,1.2,1.5,1.6,2.5c0.4,1,0.6,2.2,0.6,3.6c0,1.6-0.3,3-0.9,4.2c-0.6,1.2-1.4,2.2-2.4,3c-1.1,0.8-2.3,1.4-3.8,1.8
			c-1.5,0.4-3.1,0.6-4.8,0.6c-1.6,0-3.1-0.1-4.3-0.4c-1.2-0.2-2.4-0.6-3.4-1c-1-0.4-2-0.9-2.9-1.5C206,65.6,205.1,65,204.1,64.3z"/>
		<path class="st2" d="M251.1,68.9c-2,0-3.9-0.3-5.5-0.9c-1.7-0.6-3.1-1.5-4.2-2.7s-2.1-2.5-2.7-4.2c-0.6-1.6-1-3.4-1-5.4V37.1h6
			v18.6c0,1.6,0.3,2.9,0.8,3.9s1.2,1.8,1.9,2.4c0.8,0.6,1.6,1,2.4,1.2s1.7,0.3,2.3,0.3c0.7,0,1.5-0.1,2.3-0.3
			c0.9-0.2,1.7-0.6,2.4-1.2c0.8-0.6,1.4-1.4,1.9-2.4s0.8-2.3,0.8-3.9V37.1h6v18.7c0,2-0.3,3.8-0.9,5.4c-0.6,1.6-1.5,3-2.7,4.2
			c-1.2,1.1-2.6,2-4.2,2.7C255,68.6,253.2,68.9,251.1,68.9z"/>
		<path class="st2" d="M288.6,37c1.5,0,3,0.3,4.3,0.9s2.5,1.4,3.5,2.4s1.8,2.2,2.4,3.5c0.6,1.4,0.9,2.8,0.9,4.3c0,1.5-0.3,3-0.8,4.3
			s-1.3,2.5-2.3,3.4s-2.3,1.8-3.8,2.3c-1.5,0.6-3.3,0.8-5.3,0.8h-7v9.3h-6V37H288.6z M288.6,53.7c0.9,0,1.7-0.2,2.3-0.5
			s1.2-0.7,1.6-1.2c0.4-0.5,0.7-1.1,0.9-1.8c0.2-0.7,0.3-1.3,0.3-2.1s-0.1-1.4-0.4-2.1c-0.3-0.7-0.6-1.3-1.1-1.9s-1.1-1-1.8-1.3
			c-0.7-0.3-1.5-0.5-2.5-0.5h-7.3v11.3L288.6,53.7L288.6,53.7z"/>
		<path class="st2" d="M320.8,37c1.5,0,3,0.3,4.3,0.9s2.5,1.4,3.5,2.4c1,1,1.8,2.2,2.4,3.5c0.6,1.4,0.9,2.8,0.9,4.3
			c0,1.5-0.3,3-0.8,4.3s-1.3,2.5-2.3,3.4s-2.3,1.8-3.8,2.3c-1.5,0.6-3.3,0.8-5.3,0.8h-7v9.3h-6V37H320.8z M320.8,53.7
			c0.9,0,1.7-0.2,2.3-0.5c0.7-0.3,1.2-0.7,1.6-1.2c0.4-0.5,0.7-1.1,0.9-1.8c0.2-0.7,0.3-1.3,0.3-2.1s-0.1-1.4-0.4-2.1
			c-0.3-0.7-0.6-1.3-1.1-1.9s-1.1-1-1.8-1.3c-0.7-0.3-1.5-0.5-2.5-0.5h-7.3v11.3L320.8,53.7L320.8,53.7z"/>
		<path class="st2" d="M361.7,63.1v5.3h-22.6V37h6v26H361.7z"/>
		<path class="st2" d="M390,37.1c-0.8,1.3-1.7,2.8-2.8,4.5c-1,1.7-2.1,3.4-3.2,5.2s-2.2,3.5-3.2,5.2c-1.1,1.7-2,3.2-2.8,4.6v11.9h-6
			V56.5c-1.9-3.3-3.8-6.5-5.9-9.7s-4.1-6.5-5.9-9.7h7c1.3,2.1,2.6,4.4,3.9,6.6c1.3,2.3,2.7,4.5,3.9,6.6c0.6-1,1.3-2.1,2-3.2
			c0.7-1.1,1.4-2.3,2.1-3.4s1.4-2.3,2-3.4c0.7-1.1,1.3-2.2,1.9-3.2L390,37.1L390,37.1z"/>
	</g>
	<g>
		<polygon class="st0" points="11.8,50.8 35.5,37.1 25.4,31.3 1.7,44.9 		"/>
		<polygon class="st0" points="23.7,59.6 37.2,51.8 37.2,40.1 13.5,53.7 13.5,96.7 35.5,84 23.7,77.2 		"/>
		<polygon class="st1" points="50.8,88.9 50.8,77.2 27.1,63.5 27.1,75.2 		"/>
		<polygon class="st0" points="0,47.9 0,90.8 10.1,96.7 10.1,53.7 		"/>
		<polygon class="st1" points="89.7,52.7 67.7,40.1 67.7,53.7 52.5,62.5 38.9,54.7 28.8,60.6 52.5,74.2 		"/>
		<polygon class="st2" points="54.1,30.3 54.1,57.6 64.3,51.8 64.3,24.4 		"/>
		<polygon class="st1" points="54.1,77.2 54.1,88.9 91.4,67.4 91.4,55.7 		"/>
		<polygon class="st2" points="15.2,5.9 52.5,27.4 62.6,21.5 25.4,0 		"/>
		<polygon class="st2" points="13.5,34.2 25.4,27.4 40.6,36.1 40.6,51.8 50.8,57.6 50.8,30.3 13.5,8.8 		"/>
	</g>
</g>
</svg>
