<svg xmlns="http://www.w3.org/2000/svg" height="38" id="a" role="img" title="Resolver" viewBox="0 0 130 38" width="130"><path d="M15.77 25.15h5.1l-5.25-9.19c2.55-1.44 4.02-3.99 4.02-7.29 0-5.34-3.8-8.68-9.89-8.68H0v25.1h4.66V14.45l6.67 2.43 4.43 8.27zM4.65 4.03h5.1c3.06 0 4.91 1.53 4.91 4.66 0 2.37-1.07 3.83-2.93 4.39l-7.08-2.55-.01-6.5zm69.81 21.1V2.34h4.23v22.79h-4.23zm-18.63-8.11c0 5.63 4.04 8.34 8.33 8.34s8.33-2.71 8.33-8.34-4.04-8.3-8.33-8.33-8.33 2.7-8.33 8.33zm4.25 0c0-3.06 1.41-5.01 4.08-4.98v-.02c2.67.03 4.08 1.94 4.08 5.01s-1.43 4.98-4.08 4.98-4.08-1.92-4.08-4.98zm36.86-8.17l-6.09 16.28h-4.34L80.42 8.85h4.72l3.57 11.17 3.55-11.17h4.68zM31.65 21.44c.71-.36 1.33-.89 1.78-1.55l3.43 1.26c-1.33 2.61-3.89 4.18-7.51 4.21-4.26 0-8.18-2.75-8.18-8.38s3.98-8.36 8.21-8.33 8.24 2.72 8.24 8.33c0 .44-.03.87-.1 1.3H25.47c.39 2.9 2.25 3.68 3.88 3.65.8.04 1.59-.13 2.31-.49zm1.5-6.17c-.52-2.34-2.19-3.22-3.81-3.26-1.59-.03-3.26.88-3.81 3.26h7.62zm92.27-6.67c-2.41.11-4.05 1.11-5.03 3.25l-1.11-2.98h-4.45l1.33 3.57v12.73h4.23v-5.24c0-5.96 1.82-7.59 5.57-7.59.3 0 .58 0 .86.04l-1.4-3.79zM130 23.09c0 1.45-1.18 2.63-2.63 2.63s-2.63-1.18-2.63-2.63 1.18-2.63 2.63-2.63 2.63 1.18 2.63 2.63zm-20.49-3.27c-.44.68-1.06 1.23-1.78 1.61-.72.37-1.53.55-2.34.52-1.63.03-3.49-.75-3.87-3.65h12.01c.07-.43.1-.87.1-1.3 0-5.61-4.01-8.3-8.24-8.33s-8.21 2.71-8.21 8.33 3.94 8.36 8.22 8.36c3.64-.03 6.22-1.62 7.55-4.28l-3.43-1.26zm-4.13-7.81c1.63.04 3.29.91 3.81 3.26h-7.62c.56-2.38 2.22-3.29 3.82-3.26h-.01zm-59.03-.07c-2.07.03-2.52 1.02-2.52 1.64 0 1.57 1.81 1.65 3.92 1.74 2.96.13 6.52.28 6.52 4.61 0 4.98-5.73 5.4-7.52 5.4-1.64 0-6.9-.25-7.63-4.82l4.35-.44c.57 1.35 1.66 1.82 3.01 1.86 2.42.07 3.3-.74 3.51-1.53.04-.17.06-.34.06-.51 0-1.6-1.84-1.68-3.97-1.78-2.95-.14-6.48-.3-6.48-4.53 0-4.54 5.22-4.96 7-4.95 1.78.01 4.48.52 5.81 1.85.71.69 1.19 1.58 1.38 2.55l-3.97.67c-.35-1.15-1.04-1.8-3.47-1.77z" fill="#46a095" fill-rule="evenodd"></path><path d="M54.28 37.02l-.61-1.41h-2.94l-.61 1.41h-1.11l2.73-6.03h.9l2.73 6.03h-1.1zm-3.18-2.27h2.21l-1.1-2.57-1.1 2.57zm12.49 2.27h-1.34l-2.8-2.81v2.81h-1.1v-6.03h1.1v2.7l2.69-2.7h1.32l-2.92 2.9 3.06 3.13zm5.46 0h-1.2l-1.04-1.93c-.1-.18-.22-.31-.36-.38s-.32-.11-.54-.11h-.84v2.42h-1.09v-6.03h2.67c.68 0 1.2.15 1.56.46s.53.75.53 1.32c0 .46-.13.84-.39 1.14-.26.3-.63.5-1.1.59.32.08.58.31.77.68l1.01 1.85zm-1.63-3.51c.19-.16.29-.4.29-.72s-.1-.57-.29-.72-.5-.23-.92-.23h-1.44v1.91h1.44c.42 0 .72-.08.92-.23zm3.63 3.21c-.43-.25-.76-.61-1-1.08-.23-.47-.35-1.02-.35-1.64s.11-1.17.35-1.64c.23-.47.56-.82 1-1.07.43-.25.95-.38 1.53-.38s1.1.13 1.53.38.76.61.99 1.07c.23.47.35 1.01.35 1.64s-.12 1.17-.35 1.64c-.23.47-.57.83-1 1.08-.43.25-.94.38-1.52.38s-1.1-.13-1.53-.38zm2.83-1.08c.31-.38.47-.93.47-1.64s-.16-1.26-.47-1.64c-.31-.38-.74-.57-1.3-.57s-.99.19-1.31.57-.47.93-.47 1.64.16 1.26.47 1.64c.31.38.75.57 1.31.57s.99-.19 1.3-.57zm2.68 1.38v-6.03h1.1v5.13h2.82v.91h-3.92zm4.76 0v-6.03h1.1v5.13h2.82v.91h-3.92zm11.59-2.59c.19.26.29.57.29.94 0 .51-.18.92-.55 1.21-.37.29-.87.44-1.52.44h-2.74v-6.03h2.65c.63 0 1.12.14 1.48.41.36.28.53.66.53 1.16 0 .32-.08.6-.25.83s-.4.41-.7.51c.35.1.62.28.81.53zm-3.44-.91h1.4c.76 0 1.14-.28 1.14-.85 0-.29-.1-.5-.28-.63s-.47-.2-.86-.2h-1.4v1.69zm2.41 2.43c.18-.14.28-.37.28-.67s-.09-.53-.28-.68-.47-.22-.87-.22h-1.54v1.78h1.54c.4 0 .69-.07.87-.22zm2.96.5c-.43-.43-.64-1.05-.64-1.88v-3.59h1.08v3.65c0 .52.12.91.37 1.18s.61.4 1.08.4.83-.13 1.07-.4c.25-.27.37-.66.37-1.17v-3.65h1.08v3.59c0 .81-.21 1.44-.64 1.87-.43.43-1.05.65-1.88.65s-1.46-.22-1.88-.64zm6.41.45c-.41-.13-.75-.3-1.03-.53l.37-.8c.29.22.6.38.92.49.32.1.67.16 1.05.16.42 0 .74-.07.96-.22.23-.14.34-.35.34-.61 0-.23-.1-.4-.31-.52s-.56-.23-1.04-.34c-.5-.11-.91-.23-1.22-.38s-.55-.32-.71-.55-.24-.5-.24-.85.1-.67.29-.95c.19-.28.47-.5.82-.65.35-.16.76-.23 1.22-.23.42 0 .83.07 1.21.19s.7.31.94.53l-.37.8c-.54-.43-1.13-.64-1.78-.64-.39 0-.7.08-.92.23-.23.16-.34.38-.34.65 0 .23.1.41.3.54.2.13.54.24 1.02.35.51.11.92.24 1.24.38.32.14.56.32.73.53.17.22.25.49.25.82 0 .36-.1.68-.29.95-.19.27-.47.48-.83.62s-.79.22-1.28.22c-.46 0-.9-.06-1.3-.19zm4.72.12v-6.03h1.1v6.03h-1.1zm6.46-6.04h1.04v6.03h-.83l-3.24-4.21v4.21h-1.03v-6.03h.82l3.24 4.2v-4.2zm2.34 6.04v-6.03h4.04v.87h-2.96v1.66h2.79v.86h-2.79v1.76h2.96v.87h-4.04zm5.7-.12c-.41-.13-.75-.3-1.03-.53l.37-.8c.29.22.6.38.92.49.32.1.67.16 1.05.16.42 0 .74-.07.96-.22.23-.14.34-.35.34-.61 0-.23-.1-.4-.31-.52s-.56-.23-1.04-.34c-.5-.11-.91-.23-1.22-.38s-.55-.32-.71-.55-.24-.5-.24-.85.1-.67.29-.95c.19-.28.47-.5.82-.65.35-.16.76-.23 1.22-.23.42 0 .83.07 1.21.19s.7.31.94.53l-.37.8c-.54-.43-1.13-.64-1.78-.64-.39 0-.7.08-.92.23-.23.16-.34.38-.34.65 0 .23.1.41.3.54.2.13.54.24 1.02.35.51.11.92.24 1.24.38.32.14.56.32.73.53.17.22.25.49.25.82 0 .36-.1.68-.29.95-.19.27-.47.48-.83.62s-.79.22-1.28.22c-.46 0-.9-.06-1.3-.19zm5.46 0c-.41-.13-.75-.3-1.03-.53l.37-.8c.29.22.6.38.92.49.32.1.67.16 1.05.16.42 0 .74-.07.96-.22.23-.14.34-.35.34-.61 0-.23-.1-.4-.31-.52s-.56-.23-1.04-.34c-.5-.11-.91-.23-1.22-.38s-.55-.32-.71-.55-.24-.5-.24-.85.1-.67.29-.95c.19-.28.47-.5.82-.65.35-.16.76-.23 1.22-.23.42 0 .83.07 1.21.19s.7.31.94.53l-.37.8c-.54-.43-1.13-.64-1.78-.64-.39 0-.7.08-.92.23-.23.16-.34.38-.34.65 0 .23.1.41.3.54.2.13.54.24 1.02.35.51.11.92.24 1.24.38.32.14.56.32.73.53.17.22.25.49.25.82 0 .36-.1.68-.29.95-.19.27-.47.48-.83.62s-.79.22-1.28.22c-.46 0-.9-.06-1.3-.19z" fill="#333"></path></svg>