<?xml version="1.0" encoding="UTF-8"?>
<svg width="910px" height="240px" viewBox="0 0 91 24" version="1.1" xmlns="http://www.w3.org/2000/svg" xmlns:xlink="http://www.w3.org/1999/xlink">
    <title>Checkr Logo</title>
    <desc>Checkr Logo (Blue)</desc>
    <g stroke="none" stroke-width="1" fill="none" fill-rule="evenodd">
        <g fill="#043F93">
            <path d="M17.5605749,17.5968247 C17.4850495,17.559293 17.3611371,17.5617181 17.2613604,17.6949846 C16.6478033,18.5134072 14.4207284,21.1838184 11.521085,21.1838184 C6.95445558,21.1838184 3.88620812,17.3515405 3.88620812,11.6477575 C3.88620812,6.60915216 6.58641371,2.95206079 10.3176447,2.95206079 L10.3192614,2.95206079 C10.9213858,2.95206079 11.5157728,3.14861155 11.9935228,3.50545165 L15.8648338,6.39747322 C15.960453,6.46907221 16.0862132,6.4801585 16.1929188,6.42657475 C16.2981231,6.37379937 16.363486,6.26847957 16.363486,6.15184251 L16.363486,2.84258363 C16.363486,2.72352145 16.2941967,2.61404429 16.1870292,2.56346307 C14.8272259,1.92438439 13.0839061,1.57239454 11.2783414,1.57239454 C4.6377665,1.57239454 0,6.26963439 0,12.9949732 C0,19.1280037 4.09199746,23.5793819 9.72995558,23.5793819 C14.3075558,23.5793819 17.0293566,20.110642 17.6698211,17.9242169 C17.7178617,17.7598857 17.6496117,17.6415164 17.5605749,17.5968247" id="Fill-1"></path>
            <path d="M33.1210206,21.8333598 C33.0943442,21.8043737 33.0796779,21.7671885 33.0796779,21.72804 L33.0796779,11.4623623 C33.0796779,9.10329124 31.3290827,7.49670241 28.7238036,7.46448287 C26.5555091,7.43988515 24.6543251,8.84310977 23.7390129,9.51856536 C23.6162553,9.60910343 23.5103581,9.6872849 23.4229381,9.74814404 C23.4063086,9.75980774 23.3907185,9.75368718 23.3847135,9.75068464 C23.3788239,9.74756662 23.364966,9.73821256 23.364966,9.71777221 L23.364966,0.331722716 C23.364966,0.235410533 23.3207363,0.146258249 23.2437096,0.0873623096 C23.1651817,0.0276579949 23.0657515,0.00814149746 22.9783315,0.032623731 C22.9457655,0.0377049492 19.7096069,0.549868655 18.6484406,0.786722716 C18.5297249,0.813168147 18.4395332,0.916062817 18.4239431,1.04263135 C18.4081221,1.171625 18.473485,1.28953236 18.5870041,1.34588769 C18.6237274,1.37013896 19.4891513,1.9431618 19.7521043,2.08635977 C19.8455294,2.13728744 19.903617,2.23510089 19.903617,2.34169099 L19.903617,21.7251529 C19.903617,21.7671885 19.8866411,21.8069143 19.8651614,21.8289714 L18.7307794,22.6249905 C18.6388556,22.7139118 18.6111398,22.842328 18.6589495,22.9604664 C18.7073365,23.080106 18.8181995,23.1542456 18.948348,23.1542456 L24.3200041,23.1542456 C24.450268,23.1542456 24.5612464,23.080106 24.6096335,22.9603509 C24.6572122,22.842328 24.6297274,22.7139118 24.5286805,22.6175996 L23.4126602,21.8364778 C23.3818264,21.8069143 23.364966,21.7673039 23.364966,21.7251529 L23.364966,11.3297887 C23.364966,11.2844042 23.3854063,11.2399435 23.4198201,11.210611 C24.4330612,10.3488826 25.4040358,9.86224048 26.3882909,9.72296891 C27.1920472,9.60910343 28.009084,9.85230901 28.6286462,10.3902253 C29.2575624,10.9364562 29.6182135,11.7231212 29.6182135,12.5485882 L29.6182135,21.7265387 C29.6182135,21.7681123 29.6016995,21.8071453 29.5807972,21.8293179 L28.4344051,22.6573255 C28.3439825,22.7465933 28.3175371,22.874894 28.3654622,22.9918775 C28.4143112,23.1108242 28.5250586,23.1843864 28.6545142,23.1843864 L34.0212046,23.1843864 C34.1498518,23.1843864 34.2603683,23.1111707 34.3094482,22.9934943 C34.3578353,22.8772037 34.3325447,22.7493648 34.2347312,22.6517824 L33.1210206,21.8333598 Z" id="Fill-3"></path>
            <path d="M37.9120666,13.0180235 C38.2104727,10.2581136 39.6371402,8.61029759 41.7285235,8.61029759 C43.6208154,8.61029759 44.7241326,9.92298414 45.4180654,12.9993154 C45.4282278,13.0444689 45.4171415,13.0914702 45.387809,13.128078 C45.3573217,13.1664181 45.3112443,13.1884753 45.2618179,13.1884753 L38.0713166,13.1884753 C38.0251237,13.1884753 37.9810095,13.1688433 37.9502912,13.134776 C37.9210742,13.1020945 37.9074473,13.0607519 37.9120666,13.0180235 M48.7283636,17.9382595 C48.6060679,17.8738204 48.4599829,17.9092735 48.3723319,18.0242938 C47.5368179,19.1253014 45.7991567,20.9722088 43.5499093,20.9722088 C40.2381098,20.9722088 38.0061846,18.4156631 37.864026,14.4591263 C37.8625247,14.4178991 37.8778839,14.3785197 37.9071009,14.3482633 C37.9375882,14.3167367 37.9802011,14.298606 38.0243154,14.298606 L48.5159918,14.298606 C48.6106872,14.298606 48.6992621,14.2566859 48.7590819,14.1835857 C48.8176313,14.1118712 48.8406123,14.0192544 48.8225971,13.9295247 C47.9532468,9.6645349 45.7417621,7.4103217 42.4267291,7.4103217 C38.1949981,7.4103217 35.0038775,11.0211047 35.0038775,15.8092291 C35.0038775,20.4568115 37.9259245,23.5793357 42.2748699,23.5793357 C45.3225615,23.5793357 47.7202037,21.6431605 48.8529689,18.2672684 C48.9048204,18.1129841 48.8275628,17.9910349 48.7283636,17.9382595" id="Fill-5"></path>
            <path d="M63.22501,18.5635381 C63.127543,18.5144581 62.9896572,18.5246206 62.8988882,18.6561548 L62.8392994,18.7429975 C62.1848615,19.6965343 61.2884885,21.0022919 58.9639466,21.0022919 C55.6833273,21.0022919 53.3023146,18.239033 53.3023146,14.4319302 C53.3023146,11.1843388 55.0556813,8.64026523 57.294189,8.64026523 C57.4342689,8.64026523 57.5759656,8.6482335 57.7153527,8.66393909 C57.9972448,8.69558122 58.268628,8.80413452 58.499939,8.97770431 L61.879411,11.5143871 C61.9749148,11.5861015 62.1010214,11.5975343 62.2080735,11.5439505 C62.3138552,11.4911751 62.3794491,11.3856244 62.3794491,11.2686409 L62.3794491,8.46981345 C62.3794491,8.35098223 62.3108527,8.24185152 62.20484,8.19161675 C61.1747385,7.70243401 59.7588108,7.41037944 58.4176001,7.41037944 C53.725326,7.41037944 50.4481712,10.8763477 50.4481712,15.8390812 C50.4481712,20.468764 53.211661,23.5793934 57.3244453,23.5793934 C61.3107765,23.5793934 62.6760075,20.9126777 63.3560824,18.9066358 C63.4111674,18.7438058 63.3268654,18.6144657 63.22501,18.5635381" id="Fill-7"></path>
            <path d="M90.690831,7.75338477 C90.3791444,7.60325787 90.0093703,7.46444822 89.4193716,7.46444822 C88.2898398,7.46444822 86.8770302,8.3225967 85.2200911,10.0151043 C85.2091203,10.0266525 85.1968792,10.0241119 85.1900657,10.0215713 C85.1837142,10.0191462 85.1729744,10.0126792 85.172397,9.99755102 L85.0831292,7.82163477 C85.0766622,7.7291335 85.0293145,7.64517792 84.9527497,7.59159416 C84.8751457,7.53685558 84.7780251,7.52045711 84.6865632,7.54644061 L80.6059985,8.69987716 C80.495251,8.73117284 80.4136051,8.81616777 80.3877371,8.92726168 C80.3619845,9.03743173 80.3972066,9.14864112 80.4818551,9.22474391 L81.8236431,10.4318797 C81.8563246,10.4614431 81.8751482,10.5033632 81.8751482,10.5470155 L81.8751482,21.7551437 C81.8751482,21.7970637 81.8582878,21.8369051 81.8326508,21.8619647 L80.8538234,22.6552122 C80.762015,22.7437871 80.7345302,22.8722033 80.7821089,22.9903416 C80.8303805,23.1099812 80.9414744,23.1844673 81.0716228,23.1844673 L86.2268652,23.1844673 C86.3578221,23.1844673 86.472265,23.1059393 86.5184579,22.984683 C86.5641888,22.8650434 86.5315074,22.7323543 86.430114,22.6423937 L85.3885797,21.8649673 C85.3555518,21.8357503 85.3364972,21.7935992 85.3364972,21.749485 L85.3363817,12.0228784 C85.3363817,11.8901893 85.3691787,11.7596944 85.4313081,11.645598 C85.6677003,11.2112693 86.0425556,10.8025777 86.5155708,10.4636373 C86.988586,10.1245815 87.4636799,9.83194949 88.0655734,9.97445457 C88.5202269,10.0819685 89.4468563,10.7742845 90.0003627,11.1879419 C90.2007244,11.3376069 90.3590505,11.4558607 90.4447383,11.5096754 C90.5426673,11.5712274 90.6614985,11.5745764 90.7632383,11.518452 C90.8628995,11.4632515 90.9226038,11.362782 90.9226038,11.2497249 L90.9226038,8.1210802 C90.9226038,7.96298503 90.833798,7.8220967 90.690831,7.75338477" id="Fill-9"></path>
            <path d="M72.1464629,13.4281933 C72.1200175,13.3915854 72.1873437,13.3247212 72.2659871,13.2527758 L77.654619,8.31325419 C77.7508157,8.22548769 77.7696393,8.0811349 77.6906495,7.96842424 C77.6406457,7.8971717 77.5549579,7.85940901 77.4679997,7.85940901 L73.5705898,7.85940901 C73.4772802,7.85940901 73.3847789,7.89543947 73.3244972,7.96669201 C73.2273766,8.08159683 73.2257599,8.23911459 73.3117942,8.35286459 L74.3315023,9.70077322 C74.3796584,9.76428845 74.3716901,9.85309429 74.3129096,9.90737094 L68.6443487,15.1451831 L68.6443487,9.94594201 L68.6449261,9.94686586 L68.6449261,0.309296066 C68.6449261,0.212868401 68.6006964,0.123831599 68.5235543,0.0650511421 C68.4452574,0.00523134518 68.3457117,-0.0139387056 68.2584071,0.0101970812 C68.2258411,0.0153937817 64.9896825,0.527442005 63.9282853,0.764296066 C63.8095695,0.79085698 63.7197244,0.895252919 63.7049426,1.02401561 C63.6898145,1.1540486 63.7556393,1.27080114 63.8669642,1.32357652 C63.901147,1.34609556 64.7075594,1.87962348 65.0304477,2.05192297 C65.1247967,2.10215774 65.1835772,2.20031764 65.1835772,2.30806256 L65.1835772,2.76583414 L65.1829997,2.76548769 L65.1829997,21.6725854 C65.1829997,21.7134661 65.1660239,21.7536539 65.1453525,21.7751336 L63.9990759,22.6032567 C63.9035721,22.6976057 63.8795518,22.8351451 63.9392561,22.9575562 C63.9924934,23.0666869 64.1095924,23.1303176 64.2311952,23.1303176 L69.5993868,23.1303176 C69.7296508,23.1303176 69.8406292,23.0559471 69.8890162,22.9363075 C69.9365949,22.8182846 69.9091102,22.6897529 69.8079477,22.5934407 L68.6919274,21.8125499 C68.6612091,21.7827555 68.6443487,21.7431451 68.6443487,21.700994 L68.6443487,16.6860626 C68.6443487,16.6437961 68.6614401,16.6033773 68.6919274,16.5740448 L69.7878538,15.5172669 C69.8216901,15.4848164 69.8668437,15.467725 69.9152307,15.4731527 C69.9621165,15.477541 70.004383,15.5017923 70.0317523,15.5408253 C70.063048,15.5835537 73.1393792,19.8102034 74.6871876,21.9156755 C74.7127091,21.9504357 74.7062421,21.9983608 74.6730987,22.0258456 L73.9148424,22.6551082 C73.8179528,22.7488798 73.7926622,22.8868811 73.8519046,23.0099852 C73.9047954,23.1200397 74.0224718,23.1843633 74.1447675,23.1843633 L79.1469959,23.1843633 C79.3062459,23.1843633 79.3687218,23.1142656 79.3930886,23.0553697 C79.4509452,22.9160981 79.3378881,22.7277466 79.2508145,22.6387098 C79.0773602,22.4136349 72.2430061,13.556725 72.1464629,13.4281933" id="Fill-11"></path>
        </g>
    </g>
</svg>
