<svg class="logo__Glyph-fmka9m-0 bTAskz" viewBox="0 0 171 30" fill="none" xmlns="http://www.w3.org/2000/svg"><g fill="none" fill-rule="evenodd"><path d="M20.0659 11.7784C20.5816 11.1319 21.9513 9.41467 22.4273 7.42787C22.7786 5.9617 22.7615 4.19327 22.6849 2.96804C22.653 2.45695 22.3853 2.00631 21.9504 1.73384C21.5127 1.45935 20.9639 1.43274 20.4827 1.62133C19.6784 1.93689 18.4813 2.49629 17.247 3.39583C15.634 4.57131 14.733 6.45919 14.3052 7.61414C14.1631 7.99796 13.7979 8.25336 13.3874 8.25336H10.8763C10.4459 8.25336 10.0633 7.98437 9.91302 7.58203C9.48053 6.42448 8.58162 4.56032 6.98307 3.39583C5.74855 2.496 4.55145 1.9366 3.7471 1.62133C3.26617 1.43274 2.71737 1.45935 2.27995 1.73384C1.84514 2.00631 1.57712 2.45695 1.54522 2.96804C1.46893 4.19327 1.45153 5.9617 1.8028 7.42787C2.2814 9.42422 3.71346 11.1764 4.25269 11.8359C4.26719 11.8539 4.27966 11.8689 4.29243 11.8848L3.78539 23.6616C3.72941 24.9013 4.17205 26.0779 5.0318 26.9749C5.89156 27.8718 7.05037 28.3658 8.29475 28.3658H15.7747C17.0188 28.3658 18.1773 27.8721 19.037 26.9757C19.8968 26.0791 20.3397 24.903 20.284 23.6636L19.7924 12.1156C19.8596 12.0627 19.9168 11.9953 19.9571 11.9152C19.9829 11.8816 20.0201 11.8359 20.0659 11.7784Z" stroke="hsl(0,0%,100%)" stroke-width="3" fill="hsl(236,5%,7%)"></path><path d="M20.0659 11.7784C20.5816 11.1319 21.9513 9.41467 22.4273 7.42787C22.7786 5.9617 22.7615 4.19327 22.6849 2.96804C22.653 2.45695 22.3853 2.00631 21.9504 1.73384C21.5127 1.45935 20.9639 1.43274 20.4827 1.62133C19.6784 1.93689 18.4813 2.49629 17.247 3.39583C15.634 4.57131 14.733 6.45919 14.3052 7.61414C14.1631 7.99796 13.7979 8.25336 13.3874 8.25336H10.8763C10.4459 8.25336 10.0633 7.98437 9.91302 7.58203C9.48053 6.42448 8.58162 4.56032 6.98307 3.39583C5.74855 2.496 4.55145 1.9366 3.7471 1.62133C3.26617 1.43274 2.71737 1.45935 2.27995 1.73384C1.84514 2.00631 1.57712 2.45695 1.54522 2.96804C1.46893 4.19327 1.45153 5.9617 1.8028 7.42787C2.2814 9.42422 3.71346 11.1764 4.25269 11.8359C4.26719 11.8539 4.27966 11.8689 4.29243 11.8848L3.78539 23.6616C3.72941 24.9013 4.17205 26.0779 5.0318 26.9749C5.89156 27.8718 7.05037 28.3658 8.29475 28.3658H15.7747C17.0188 28.3658 18.1773 27.8721 19.037 26.9757C19.8968 26.0791 20.3397 24.903 20.284 23.6636L19.7924 12.1156C19.8596 12.0627 19.9168 11.9953 19.9571 11.9152C19.9829 11.8816 20.0201 11.8359 20.0659 11.7784Z" stroke="hsl(236,5%,7%)" stroke-width="0.5" fill="hsl(236,5%,7%)"></path><path d="M2.34086 5.17142C1.83159 -1.75725 9.21983 6.46022 12.3566 11.7377C14.1553 14.7638 12.9969 16.0356 13.1057 16.1759C13.841 17.1233 15.5115 14.0016 16.221 14.3979C18.4837 15.6618 19.4424 18.7253 19.3535 21.9016C19.2488 25.6458 18.7707 27.6657 14.928 27.9139C12.7406 28.0551 7.07355 28.0985 5.74855 26.3665C3.75195 23.7566 5.43215 12.5601 5.42409 12.3236C5.32607 9.44607 4.99695 13.1643 4.9256 13.9067C4.85426 14.6492 5.04215 11.4258 2.4425 6.5256L2.34086 5.17142Z" fill="hsl(0,0%,100%)"></path><path d="M22.4303 7.42879C21.9542 9.4159 20.5844 11.1334 20.0685 11.78L20.0256 11.8337C19.9992 11.8667 19.9769 11.8944 19.9598 11.9168C19.9194 11.9969 19.8623 12.0643 19.795 12.1173L20.2867 23.6671C20.3424 24.9067 19.8994 26.0829 19.0395 26.9797C18.1797 27.8762 17.021 28.37 15.7767 28.37H8.29572C7.05116 28.37 5.89218 27.8759 5.03231 26.9788C4.17243 26.0817 3.72973 24.9049 3.78572 23.665L4.29283 11.8864L4.27134 11.86L4.25308 11.8375C3.71377 11.178 2.28151 9.42545 1.80284 7.42879C1.45152 5.96239 1.46893 4.19369 1.54522 2.96827C1.57714 2.4571 1.84519 2.00639 2.28006 1.73388C2.71755 1.45935 3.26643 1.43273 3.74742 1.62135C4.55189 1.93667 5.74916 2.49615 6.98386 3.39612C8.58263 4.56079 9.48168 6.42525 9.91423 7.58298C10.0645 7.98538 10.4472 8.25441 10.8777 8.25441H13.3891C13.7996 8.25441 14.1649 7.99897 14.307 7.61509C14.7349 6.45997 15.636 4.57179 17.2493 3.39612C18.4837 2.49644 19.681 1.93696 20.4854 1.62135C20.9667 1.43273 21.5156 1.45935 21.9534 1.73388C22.3882 2.00639 22.656 2.4571 22.6879 2.96827C22.7645 4.19369 22.7816 5.96239 22.4303 7.42879ZM18.1266 26.1923C17.4851 26.8382 16.5893 27.1686 15.6775 27.1686H12.719V26.0187C12.719 25.6484 13.0201 25.3481 13.3914 25.3481H13.5255C14.0503 25.3481 14.5344 25.0678 14.7944 24.6136L15.5147 23.3555C15.8335 22.7986 15.4303 22.1058 14.7868 22.1058H9.44627C8.8031 22.1058 8.39985 22.7986 8.71868 23.3555L9.43872 24.6136C9.69866 25.0678 10.1831 25.3481 10.7077 25.3481H10.8417C11.213 25.3481 11.5141 25.6484 11.5141 26.0187V27.1686H8.39463C7.48282 27.1686 6.58668 26.838 5.94497 26.1917C5.28729 25.5286 4.94729 24.648 4.98935 23.7194L5.50546 11.745C5.50577 11.7391 5.50521 11.7333 5.50464 11.7274L5.50464 11.7274C5.50418 11.7226 5.50371 11.7178 5.50371 11.7129C5.50429 11.6888 5.50202 11.6661 5.49972 11.6432L5.49965 11.6426C5.49922 11.6392 5.49915 11.6358 5.49907 11.6324C5.499 11.629 5.49893 11.6256 5.49849 11.6223C5.47615 11.4499 5.38303 11.3252 5.34416 11.2743C5.31021 11.2298 5.25654 11.1638 5.18692 11.0785C4.69519 10.477 3.38913 8.87901 2.97456 7.14965C2.65777 5.82761 2.67633 4.18677 2.7477 3.04264C2.75785 2.87861 2.85881 2.79067 2.91828 2.75277C3.01982 2.68797 3.14282 2.67611 3.25655 2.72008C3.99342 3.00532 5.11526 3.52228 6.27308 4.36613C7.44975 5.22357 8.19794 6.59046 8.62149 7.59862C8.74885 7.90179 8.53417 8.23476 8.2107 8.25357C7.90087 8.27179 7.60641 8.45607 7.56028 8.76213C7.504 9.13503 7.79237 9.45585 8.15587 9.45585H9.82428C9.82429 9.4559 9.82487 9.45595 9.826 9.45601C9.82718 9.45608 9.82897 9.45615 9.83134 9.45626C9.92892 9.46053 11.0047 9.5076 11.0047 10.4866C11.0047 10.9226 11.0281 11.2061 11.0711 11.7277L11.0842 11.8873C11.2655 14.1012 12.0799 16.2758 13.5316 17.9869C14.7155 19.3824 16.1219 19.9121 17.9023 19.9121C18.5266 19.9121 18.9071 20.7901 18.9548 21.6467C19.0025 22.5033 19.083 23.7209 19.083 23.7209C19.1248 24.6495 18.7845 25.5298 18.1266 26.1923ZM8.43948 14.7238C7.90535 14.7238 7.47265 15.1569 7.47265 15.6907C7.47265 16.2248 7.90535 16.6578 8.43948 16.6578C8.97361 16.6578 9.40662 16.2248 9.40662 15.6907C9.40662 15.1569 8.97361 14.7238 8.43948 14.7238ZM16.8639 15.6907C16.8639 15.1569 16.4308 14.7238 15.8967 14.7238C15.3629 14.7238 14.9299 15.1569 14.9299 15.6907C14.9299 16.2248 15.3629 16.6578 15.8967 16.6578C16.4308 16.6578 16.8639 16.2248 16.8639 15.6907Z" fill="hsl(236,5%,7%)"></path><path d="M31.483 9.366c0-1.741908.5220436-3.080238 1.5706164-3.9953562C34.0923509 4.464112 35.4738813 4.013 37.187 4.013h1.978v2.444h-1.519c-1.0385206 0-1.8276769.2630521-2.3802436.7826298C34.721637 7.7512644 34.44 8.663432 34.44 9.987v.776h4.725v2.417H34.44v11.583h-2.957V13.18H28v-2.417h3.483V9.366zm20.205 12.98v2.417h-9.437v-2.417h3.051V6.43h-3.051V4.013h6.008v18.333h3.429zm6.0785913-.7725881C58.2770089 22.2896429 58.983723 22.643 59.912 22.643c1.255643 0 2.1987331-.5956358 2.858177-1.8130708l.1219826-.2251987 2.4805483 1.422181-.1504958.2229567c-.5064475.7502926-1.2071442 1.4042763-2.0997124 1.9621314C62.216674 24.7781406 61.1268178 25.06 59.858 25.06c-1.1257801 0-2.1390293-.2780544-3.0343964-.8341245-.8975714-.5574391-1.6086589-1.3909655-2.1324601-2.4946894C54.1700388 20.6331439 53.911 19.3009445 53.911 17.736c0-1.5475901.2638382-2.8714097.7943878-3.9697406.533425-1.1042832 1.2634434-1.9379172 2.188667-2.4949396C57.8154909 10.7165777 58.8411169 10.439 59.966 10.439c1.7117561 0 3.0752929.6176299 4.0689853 1.8479157C65.0189109 13.5051093 65.508 15.1354064 65.508 17.169c0 .2588318-.0182132.659522-.0545537 1.2046298l-.015558.2333702h-8.5780222c.1084076 1.2850429.4128122 2.2733404.9067252 2.9664119zm4.2407584-7.6082714C61.5399143 13.2024828 60.8692516 12.829 59.966 12.829c-.8085973 0-1.4873111.3189137-2.0525568.9672838-.5328016.6111548-.8664615 1.5065499-.9941069 2.6907162h5.7701034c-.0055335-.9503774-.2331497-1.7893778-.68209-2.5218595zm10.1592416 7.6082714C72.6770088 22.2896429 73.383723 22.643 74.312 22.643c1.255643 0 2.198733-.5956358 2.858177-1.8130708l.1219826-.2251987 2.4805483 1.422181-.1504958.2229567c-.5064475.7502926-1.2071443 1.4042763-2.0997124 1.9621314C76.616674 24.7781406 75.5268178 25.06 74.258 25.06c-1.1257801 0-2.1390293-.2780544-3.0343964-.8341245-.8975714-.5574391-1.6086589-1.3909655-2.1324601-2.4946894C68.5700387 20.6331439 68.311 19.3009445 68.311 17.736c0-1.5475901.2638381-2.8714097.7943878-3.9697406.533425-1.1042832 1.2634434-1.9379172 2.188667-2.4949396C72.2154909 10.7165777 73.2411169 10.439 74.366 10.439c1.7117561 0 3.0752929.6176299 4.0689853 1.8479157C79.4189109 13.5051093 79.908 15.1354064 79.908 17.169c0 .2588318-.0182132.659522-.0545537 1.2046298l-.0155581.2333702H71.259866c.1084077 1.2850429.4128123 2.2733404.9067253 2.9664119zm4.2407584-7.6082714C75.9399143 13.2024828 75.2692516 12.829 74.366 12.829c-.8085973 0-1.4873111.3189137-2.0525568.9672838-.5328016.6111548-.8664615 1.5065499-.9941069 2.6907162h5.7701034c-.0055335-.9503774-.2331497-1.7893778-.68209-2.5218595zM88.692 22.346h5.157v2.417h-8.141V13.18h-3.807v-2.417h3.807v-4.59h2.984v4.59h5.157v2.417h-5.157v9.166zm13.874892 2.714c-1.323022 0-2.480504-.1752363-3.4721659-.5274155-.9958435-.353664-1.7791071-.8133037-2.3476112-1.3818078L96.551 22.9546618l2.2666155-1.839572.1584819.1835052c.3122705.3615764.7908745.668051 1.4389206.9153318.654246.2496464 1.398157.3750732 2.232874.3750732 1.966343 0 2.882-.6078064 2.882-1.829 0-.5146218-.26018-.9048913-.811827-1.1964763-.608989-.321894-1.435845-.6077752-2.484648-.856716-1.461692-.3836941-2.6894831-.8738943-3.6834409-1.4721097-1.0485876-.6310944-1.5790845-1.608584-1.5790845-2.900698 0-.8570837.2954056-1.5906742.8817684-2.1868097.569597-.5790903 1.2978735-1.0094355 2.181222-1.2913551.870915-.2779519 1.787545-.4168352 2.74901-.4168352 1.236731 0 2.325933.190031 3.266532.5718584.949186.385313 1.621438.8477844 2.012901 1.3958321l.1371.1919403-2.201546 1.7743803-.153214-.220245c-.259149-.3725265-.662362-.676994-1.215411-.9116207-.562202-.23851-1.186015-.3581454-1.873362-.3581454-.813075 0-1.508001.1286898-2.08609.3837295-.523081.230771-.7689104.5922842-.7689104 1.1212705 0 .4977192.2382494.864256.7433744 1.1284754.564709.2953862 1.352191.5681453 2.363366.8165254.980615.2542334 1.826456.5179903 2.538004.7916628.735066.2827177 1.394594.7161219 1.977032 1.2985597.606428.6064281.910224 1.3904157.910201 2.3401548-.019121 1.4149663-.605975 2.5013736-1.748915 3.2313183-1.113768.7113139-2.487807 1.0653036-4.117062 1.0653036zM123.035 11.38c.835065-.626299 1.769632-.941 2.796-.941 1.378862 0 2.375786.4861845 2.955255 1.4585146.559124.9381917.831745 2.458398.831745 4.5694854v8.296h-2.957v-7.918c0-1.4610171-.139865-2.4925206-.409369-3.0820601-.244807-.5355155-.711444-.7989399-1.446631-.7989399-.508586 0-.987664.1474085-1.442585.4451754-.462086.3024559-.840231.7058112-1.13597 1.2127924-.294263.504451-.44884 1.0308463-.465445 1.5750322v8.566h-2.957v-7.918c0-1.4619116-.135617-2.4943519-.397087-3.0847685-.236377-.5337539-.697588-.7962315-1.431913-.7962315-.723094 0-1.375992.2915458-1.969723.8852767-.600447.600447-.948414 1.2921875-1.047277 2.0507233v8.863h-2.957v-14h2.752391l.126141 1.9551963c.394816-.5596062.879904-1.0392925 1.454414-1.4380702.806488-.5597973 1.688621-.8411261 2.640054-.8411261 1.067677 0 1.903323.2769291 2.494187.8382501.458347.4354298.792328 1.0498054 1.005835 1.8399048.402708-.6794044.92338-1.2589562 1.560978-1.7371549zm14.412-4.046c-.475139 0-.871354-.1592628-1.202366-.4823935-.329507-.3216615-.491634-.7115391-.491634-1.1846065 0-.4730674.162127-.862945.491634-1.1846064C136.575646 4.1592627 136.971861 4 137.447 4c.456523 0 .843908.158828 1.175366.4823936.329507.3216614.491634.711539.491634 1.1846064s-.162127.862945-.491634 1.1846065c-.331458.3235654-.718843.4823935-1.175366.4823935zm4.894 15.012v2.417h-10.085v-2.417h3.699V13.18h-3.699v-2.417h6.683v11.583h3.402zm7.801 0h5.157v2.417h-8.141V13.18h-3.807v-2.417h3.807v-4.59h2.984v4.59h5.157v2.417h-5.157v9.166zm13.33001-11.1074502c.780296-.5328856 1.675526-.7995498 2.67899-.7995498.949082 0 1.702022.197888 2.253685.6017843.554898.4062646.948803 1.062773 1.187416 1.95996.231445.8702305.345899 2.0513998.345899 3.5472557v8.215h-2.957v-7.675c0-1.0486776-.053129-1.8721732-.158196-2.4675537-.100154-.5675381-.283341-.9868337-.543201-1.2624431-.245496-.2603738-.61584-.3940032-1.127603-.3940032-.670867 0-1.299283.2751886-1.893919.8363243-.603169.5691873-.987053 1.2314926-1.150081 1.9376757v9.025h-2.957V4.013h2.957v8.5509229c.378945-.5211592.833817-.9632904 1.36401-1.3253731z" fill="hsl(236,5%,7%)" fill-rule="nonzero"></path></g></svg>