<?xml version="1.0" encoding="utf-8"?>
<!-- Generator: Adobe Illustrator 25.4.1, SVG Export Plug-In . SVG Version: 6.00 Build 0)  -->
<svg version="1.1" id="Ivanti_logo" xmlns="http://www.w3.org/2000/svg" xmlns:xlink="http://www.w3.org/1999/xlink" x="0px"
	 y="0px" viewBox="0 0 632 269" style="enable-background:new 0 0 632 269;" xml:space="preserve">
<style type="text/css">
	.st0{fill:#FF1515;}
</style>
<path class="st0" d="M60.4,117.5h30.5v104.3H60.4V117.5z"/>
<path class="st0" d="M60.4,60.3h30.5v30.5H60.4V60.3z"/>
<path class="st0" d="M185.3,117.5l-23.9,70.7l-23.5-70.7h-32.8l38.2,104.3h33.8l37.6-104.3H185.3z"/>
<path class="st0" d="M308.7,153.6c0-4.7-0.2-17.1-7.2-25.6c-10.3-12-28.5-13.4-37.1-13.4c-9.9,0-22.1,1.7-31.6,8.5
	c-10.9,7.8-11.6,19-11.8,24.5h30c-0.2-3.3,0.6-6.5,2.3-9.3c2.7-3.7,7-5.9,11.6-5.8c2.9,0,10.9,1,13.6,8.7c1.2,3.7,1.4,7,1.4,13.8
	c-10.1,0-28.5,0-41.2,5.8c-19.2,8.9-22.1,24.1-22.1,32.4c-0.1,8.5,3.1,16.8,9.1,22.9c4.1,3.9,10.9,8.2,26,8.2
	c5.8,0,19.6,0,31.1-16.7c-0.1,4.8,0.3,9.5,1,14.2h27.6c-1.7-8.7-2.6-17.5-2.5-26.4L308.7,153.6z M274.1,198.6c-3.3,3.8-8,6-13,6
	c-10.1,0-14.9-7.8-14.9-14.9c0-12.4,14-18.6,33.6-16.9C279.9,184,279.4,192,274.1,198.6L274.1,198.6z"/>
<path class="st0" d="M422.1,134.4c-2.7-7.2-11.3-19.6-31.8-19.6c-22.7,0-30.9,13.4-33.8,18.1l-0.8-15.5h-29.3
	c0.6,7.2,0.6,18.4,0.6,18.8v85.6h30.7v-61c0-8,1.9-13.2,3.7-15.9c3.6-5.2,9.6-8.2,15.9-8.1c6.3-0.2,12.1,3.2,14.9,8.9
	c1.6,3.3,1.6,7,1.6,11.3v64.8H425v-56.3C425,146.2,424.3,140.8,422.1,134.4L422.1,134.4z"/>
<path class="st0" d="M486.1,91.2l-30.3,8.3v18h-20v20.2h20v57.9c0,8.7,0,28.1,30.7,28.1c8-0.1,16-1.2,23.7-3.3v-20
	c-3.4,0.4-6.9,0.6-10.3,0.6c-13.6,0-13.6-6-13.8-15.5v-47.9h24.8v-20.2h-24.8L486.1,91.2L486.1,91.2z"/>
<path class="st0" d="M527.1,117.5h30.5v104.3h-30.5V117.5z"/>
<path class="st0" d="M527.1,70.5h20.3v20.3h-20.3V70.5z"/>
<path class="st0" d="M557.7,60.3v30.5H578V40h-50.9v20.4L557.7,60.3z"/>
</svg>
