<svg fill="none" height="100%" viewBox="0 0 36 36" width="100%" xmlns="http://www.w3.org/2000/svg">
<path d="M28.5 0H7.5C3.35786 0 0 3.35786 0 7.5V28.5C0 32.6421 3.35786 36 7.5 36H28.5C32.6421 36 36 32.6421 36 28.5V7.5C36 3.35786 32.6421 0 28.5 0Z" fill="url(#paint0_linear_5894_17206)"></path>
<path clip-rule="evenodd" d="M23.0071 8.38605C24.9678 6.99339 29.019 6.23796 32.0712 9.79892C32.4633 10.2564 32.549 10.9662 32.0082 11.3454C32.0004 11.3509 31.9925 11.3563 31.9845 11.3615C32.3195 11.9078 32.7204 12.7231 32.8288 13.8072C32.8779 14.2982 32.6401 14.7752 32.1471 14.9104C32.0788 15.7118 31.8785 17.2867 30.5924 18.6254C30.0334 19.2071 29.5035 19.6088 29.0371 19.8837C28.6556 20.1085 28.5523 20.2764 28.5369 20.7048C28.4734 22.4717 27.8796 24.3355 26.7363 25.6764C25.3039 27.3564 22.7693 28.2704 19.9428 28.6511C17.1111 29.0325 14.0169 28.6441 11.9069 26.9774C10.5113 25.875 9.68659 24.38 9.28024 22.8051C9.16806 22.3703 9.02327 22.2316 8.57995 22.0979C8.00814 21.9254 7.30249 21.6032 6.5073 21.0256C5.00535 19.9346 4.53065 18.4197 4.32213 17.6428C2.73067 17.4984 3.51532 14.9937 3.85677 14.1208C3.2369 13.8553 3.18551 13.1262 3.49585 12.5983C5.87275 8.55512 9.99383 8.58443 12.1693 9.60975C13.04 10.0201 13.8256 10.5096 14.4643 11.1955C15.5537 12.3654 16.4702 10.2179 17.3974 9.78516C18.5271 9.25797 18.1341 10.0919 18.2259 10.3877C18.3098 10.1877 19.8828 9.40859 19.8075 10.1617C19.7604 10.6327 19.7805 10.9356 20.0835 11.0705C20.4415 11.2299 20.6869 10.97 20.8413 10.6862C21.3652 9.72303 22.1131 9.02104 23.0071 8.38605ZM14.2752 17.6356C15.0808 17.3812 15.7518 17.99 15.8542 18.7795C15.9565 19.569 15.6125 20.1169 15.0163 20.278C14.4202 20.4391 13.7596 19.8752 13.6307 19.3274C13.5826 19.1228 13.5479 18.8707 13.5653 18.6217C13.5744 18.4913 13.7645 18.4469 13.8952 18.4469C14.1268 18.4469 14.2913 18.2078 14.2143 17.9934C14.1702 17.8705 14.1507 17.6749 14.2752 17.6356ZM25.0284 16.8043C24.8864 16.0209 24.1855 15.4467 23.3937 15.7414C23.2714 15.7869 23.3007 15.9814 23.351 16.1019C23.4387 16.3121 23.2865 16.5592 23.0552 16.5708C22.9247 16.5774 22.737 16.6314 22.7345 16.7621C22.7297 17.0116 22.777 17.2617 22.8354 17.4635C22.9918 18.0042 23.68 18.5341 24.2672 18.3431C24.8545 18.1521 25.1705 17.5876 25.0284 16.8043ZM18.1393 22.8532C17.8467 22.4619 17.6591 21.9837 17.624 21.456L17.4768 19.2486C17.3946 18.0144 18.2392 16.9102 19.4519 16.6664C20.774 16.4007 22.0644 17.246 22.3489 18.5642L22.8156 20.7267C22.9654 21.4207 22.8264 22.107 22.4817 22.6638C22.5388 23.7996 21.6486 24.8394 20.4238 24.8614C19.243 24.8827 18.2643 23.9952 18.1393 22.8532ZM7.44595 16.7114C7.17764 15.2128 8.17499 13.7804 9.67359 13.5121C10.3346 13.3938 10.9827 13.5217 11.5237 13.8302C11.6801 13.9194 11.6979 14.1299 11.5787 14.2649C10.6098 15.3615 9.76332 16.7768 9.37162 18.5092C9.33145 18.6868 9.14743 18.7966 8.98279 18.7187C8.20418 18.3504 7.60931 17.6238 7.44595 16.7114ZM28.7252 15.1463C29.1192 13.6758 28.2465 12.1642 26.776 11.7702C25.8806 11.5303 24.9701 11.7599 24.3058 12.3082C24.1654 12.4241 24.1866 12.6374 24.3303 12.7492C25.7319 13.8401 26.6533 15.2077 27.2342 16.5509C27.3057 16.7162 27.5038 16.7895 27.651 16.6859C28.1602 16.3272 28.5514 15.7949 28.7252 15.1463Z" fill="white" fill-rule="evenodd"></path>
<path d="M18.1394 22.8606C18.7045 23.6164 19.6618 24.0475 20.67 23.883C21.4537 23.7552 22.0964 23.2946 22.4819 22.6719C22.5398 23.8081 21.6493 24.8487 20.4241 24.8707C19.2427 24.892 18.2635 24.0035 18.1394 22.8606Z" fill="white" fill-opacity="0.4"></path>
<defs>
<linearGradient gradientUnits="userSpaceOnUse" id="paint0_linear_5894_17206" x1="0" x2="36" y1="0" y2="36">
<stop stop-color="#575757"></stop>
<stop offset="1"></stop>
</linearGradient>
</defs>
</svg>