<svg width="135" height="45" viewBox="0 0 135 45" fill="none" xmlns="http://www.w3.org/2000/svg">
<g clip-path="url(#clip0_4534_8300)">
<path d="M52.6614 23.1293C52.6642 21.8446 52.2696 20.5904 51.5317 19.5387C50.7939 18.487 49.7488 17.6892 48.5398 17.2547C48.7876 15.9602 48.7471 14.627 48.4209 13.35C48.0948 12.073 47.4911 10.8836 46.6529 9.86649C45.8147 8.84939 44.7625 8.02959 43.5713 7.46548C42.3802 6.90137 41.0793 6.60681 39.7613 6.60279C38.345 6.6011 36.9486 6.93636 35.6875 7.58089C34.4263 8.22542 33.3366 9.16072 32.5083 10.3096C31.8056 9.76675 30.9647 9.43179 30.0812 9.34268C29.1977 9.25357 28.3069 9.41389 27.5098 9.80543C26.7128 10.197 26.0415 10.8041 25.5721 11.5578C25.1026 12.3116 24.8538 13.1818 24.8539 14.0698C24.8559 14.6358 24.9555 15.1971 25.1483 15.7292C23.9351 16.1632 22.8855 16.9613 22.143 18.0143C21.4004 19.0673 21.0011 20.324 20.9996 21.6125C20.9982 22.901 21.3946 24.1585 22.1348 25.2133C22.8749 26.268 23.9227 27.0684 25.135 27.5052C24.7455 29.5031 25.0511 31.5741 26.0009 33.3745C26.9508 35.1748 28.4878 36.5961 30.3568 37.4025C32.2258 38.2088 34.3143 38.3517 36.2757 37.8074C38.2372 37.2631 39.9534 36.0644 41.1396 34.4102C41.9654 35.0666 42.9886 35.4249 44.0435 35.4272C45.3033 35.4269 46.5114 34.9263 47.4022 34.0354C48.293 33.1446 48.7937 31.9365 48.794 30.6767C48.792 30.1108 48.6924 29.5494 48.4996 29.0173C49.7125 28.5797 50.7618 27.7805 51.5061 26.7276C52.2503 25.6746 52.6535 24.4187 52.6614 23.1293Z" fill="white"/>
<path d="M33.4451 20.185L40.3769 23.3431L47.3622 17.2143C47.4654 16.7079 47.5147 16.1921 47.5094 15.6753C47.5105 14.0072 46.9774 12.3825 45.9882 11.0394C44.9989 9.6962 43.6055 8.70515 42.0121 8.21142C40.4187 7.71769 38.7091 7.74723 37.1337 8.29572C35.5583 8.84421 34.2 9.8828 33.2577 11.2593L32.0935 17.2945L33.4451 20.185Z" fill="#9B95AD"/>
<path d="M26.2724 27.5182C26.1691 28.0336 26.1198 28.5583 26.1252 29.0839C26.1272 30.7589 26.6657 32.3893 27.6618 33.736C28.658 35.0827 30.0592 36.0749 31.6603 36.5672C33.2614 37.0595 34.9781 37.026 36.5587 36.4716C38.1394 35.9172 39.5009 34.871 40.4437 33.4865L41.5945 27.478L40.0556 24.534L33.0971 21.3625L26.2724 27.5182Z" fill="#9B95AD"/>
<path d="M26.2323 15.5283L30.9828 16.6523L32.0266 11.2595C31.3822 10.7661 30.595 10.4952 29.7834 10.4877C28.9718 10.4802 28.1798 10.7364 27.5263 11.2178C26.8729 11.6992 26.3934 12.3798 26.1601 13.1571C25.9267 13.9345 25.952 14.7666 26.2323 15.5283Z" fill="#9B95AD"/>
<path d="M25.8174 16.6655C24.7896 17.0028 23.8916 17.6504 23.247 18.5191C22.6024 19.3877 22.2429 20.4349 22.2179 21.5163C22.193 22.5978 22.5039 23.6604 23.1077 24.5579C23.7116 25.4553 24.5788 26.1436 25.5899 26.5279L32.2541 20.5061L31.0363 17.8967L25.8174 16.6655Z" fill="#9B95AD"/>
<path d="M41.6482 33.4864C42.293 33.9738 43.0782 34.2397 43.8866 34.2442C44.6949 34.2487 45.483 33.9917 46.1333 33.5115C46.7836 33.0313 47.2611 32.3537 47.4947 31.5799C47.7282 30.806 47.7052 29.9774 47.4291 29.2176L42.692 28.1069L41.6482 33.4864Z" fill="#9B95AD"/>
<path d="M42.6117 26.8624L47.8306 28.0802C48.8584 27.7429 49.7564 27.0953 50.4011 26.2266C51.0457 25.358 51.4052 24.3108 51.4301 23.2294C51.4551 22.1479 51.1442 21.0853 50.5403 20.1878C49.9365 19.2904 49.0693 18.6021 48.0581 18.2178L41.2334 24.1994L42.6117 26.8624Z" fill="#9B95AD"/>
<path d="M65.2671 28.7493L65.896 28.6824L65.9362 29.967C64.527 30.177 63.1054 30.2933 61.6808 30.315C60.1151 30.315 59.0044 29.86 58.3487 28.95C57.693 28.0401 57.3718 26.6216 57.3718 24.708C57.3718 20.8808 58.8929 18.9672 61.935 18.9672C63.407 18.9672 64.5043 19.382 65.227 20.1983C65.9496 21.0146 66.3109 22.3126 66.3109 24.0657L66.2172 25.3102H59.0178C59.0178 26.5145 59.2319 27.4111 59.6735 27.9865C60.1151 28.562 60.8645 28.8564 61.9484 28.8564C63.0558 28.8804 64.1636 28.8447 65.2671 28.7493ZM64.6783 24.0255C64.6783 22.6873 64.4642 21.7372 64.036 21.1886C63.6078 20.6399 62.9119 20.3589 61.9484 20.3589C60.9849 20.3589 60.2489 20.6533 59.7672 21.2287C59.2854 21.8041 59.0312 22.7409 59.0178 24.0255H64.6783ZM68.5858 30.1142V14.4575H70.2184V30.1142H68.5858ZM80.5358 22.5V27.8661C80.5358 28.4148 81.8873 28.5218 81.8873 28.5218L81.807 29.967C80.6562 29.967 79.7061 30.0607 79.1307 29.5121C77.8957 30.057 76.5596 30.3352 75.2098 30.3284C74.2062 30.3284 73.4434 30.0473 72.9215 29.4719C72.3996 28.8965 72.132 28.0936 72.132 27.023C72.132 25.9525 72.3996 25.1764 72.9349 24.6812C73.4702 24.1861 74.3132 23.8649 75.464 23.7579L78.8898 23.4367V22.5C78.8898 21.764 78.7292 21.2287 78.408 20.9076C78.0869 20.5864 77.6453 20.4258 77.0966 20.4258H72.8011V18.9806H76.9896C78.2207 18.9806 79.1173 19.2616 79.6793 19.837C80.2414 20.4124 80.5358 21.2956 80.5358 22.5ZM73.8181 26.9428C73.8181 28.2809 74.3667 28.95 75.4774 28.95C76.4709 28.9521 77.4575 28.7847 78.3947 28.4549L78.8898 28.2809V24.6812L75.6648 24.989C75.0091 25.0425 74.5407 25.2299 74.2463 25.551C73.9519 25.8722 73.8181 26.3406 73.8181 26.9428ZM86.9189 20.4392C85.3398 20.4392 84.5369 20.9878 84.5369 22.0985C84.5369 22.607 84.7243 22.9684 85.0856 23.1825C85.4469 23.3966 86.2766 23.6107 87.5746 23.8382C88.8726 24.0657 89.7826 24.3734 90.3179 24.7883C90.8531 25.2031 91.1208 25.9525 91.1208 27.0766C91.1208 28.2006 90.7595 29.0169 90.0368 29.5388C89.3142 30.0607 88.2704 30.3284 86.8787 30.3284C85.9822 30.3284 82.9712 29.9938 82.9712 29.9938L83.0649 28.5753C84.7912 28.7359 86.0491 28.8697 86.8921 28.8697C87.7352 28.8697 88.3775 28.7359 88.8191 28.4683C89.2607 28.2006 89.4882 27.7457 89.4882 27.1167C89.4882 26.4878 89.3008 26.0596 88.9262 25.8321C88.5515 25.6046 87.7218 25.3905 86.4371 25.1897C85.1525 24.989 84.2425 24.6946 83.7072 24.2932C83.172 23.8917 82.9043 23.1691 82.9043 22.1119C82.9043 21.0548 83.279 20.2652 84.0284 19.7567C84.7778 19.2482 85.7145 18.994 86.8252 18.994C87.7084 18.994 90.7862 19.2214 90.7862 19.2214V20.6533C89.167 20.5596 87.8422 20.4392 86.9189 20.4392ZM99.016 20.6265H95.5502V25.8454C95.5502 27.09 95.6438 27.9196 95.8178 28.3077C95.9918 28.6958 96.4334 28.8965 97.1158 28.8965L99.0562 28.7627L99.1632 30.1142C98.4299 30.2501 97.6873 30.3307 96.9419 30.3551C95.8044 30.3551 95.0283 30.0741 94.5867 29.5254C94.1451 28.9768 93.931 27.9196 93.931 26.3673V20.6265H92.3787V19.2081H93.931V15.8626H95.5502V19.1947H99.016V20.6265ZM101.291 16.7324V14.8456H102.924V16.7458L101.291 16.7324ZM101.291 30.1142V19.2081H102.924V30.1142H101.291ZM110.016 18.9806C110.498 18.9806 111.314 19.0742 112.465 19.2482L112.987 19.3151L112.92 20.6399C112.067 20.529 111.21 20.462 110.35 20.4392C109.119 20.4392 108.276 20.7336 107.835 21.3224C107.393 21.9112 107.166 23.0085 107.166 24.6009C107.166 26.1934 107.366 27.3041 107.781 27.933C108.196 28.562 109.052 28.8697 110.364 28.8697L112.933 28.669L113 30.0206C111.648 30.2213 110.631 30.3284 109.962 30.3284C108.263 30.3284 107.085 29.8868 106.443 29.0169C105.801 28.1471 105.466 26.6751 105.466 24.6009C105.466 22.5268 105.814 21.0681 106.51 20.2385C107.206 19.4088 108.383 18.9806 110.016 18.9806Z" fill="#9B95AD"/>
</g>
<defs>
<clipPath id="clip0_4534_8300">
<rect width="92" height="31.5376" fill="white" transform="translate(21 6.59741)"/>
</clipPath>
</defs>
</svg>
