<svg id="Layer_1" data-name="Layer 1" xmlns="http://www.w3.org/2000/svg" viewBox="0 0 377.91 47.34"><defs><style>.cls-1{fill:#00aff0;}.cls-2{fill:#292929;}</style></defs><polygon class="cls-1" points="54.22 47.34 84.9 47.34 84.9 39.46 62.77 39.46 62.77 27.06 83.83 27.06 83.83 19.15 62.77 19.15 62.77 7.88 84.9 7.88 84.9 0 54.22 0 54.22 47.34"/><polygon class="cls-1" points="8.55 17.21 36.16 47.34 40.47 47.34 40.47 0 31.92 0 31.92 30.19 4.2 0 0 0 0 47.34 8.55 47.34 8.55 17.21"/><polygon class="cls-1" points="148.12 47.34 178.79 47.34 178.79 39.46 156.66 39.46 156.66 27.06 177.72 27.06 177.72 19.15 156.66 19.15 156.66 7.88 178.79 7.88 178.79 0 148.12 0 148.12 47.34"/><polygon class="cls-1" points="138.35 0 129.04 0 115.84 27.41 102.77 0 93.46 0 115.83 47.34 138.35 0"/><path class="cls-1" d="M220.24,35.88c-1.28-2-2.57-4-3.88-6,.47-.19.93-.4,1.4-.64A13.19,13.19,0,0,0,221.65,26a16.63,16.63,0,0,0,3.77-10.79A15.24,15.24,0,0,0,223.19,7a14.33,14.33,0,0,0-5.82-5.31,14.16,14.16,0,0,0-4.2-1.35A27,27,0,0,0,208.81,0H191.35V47.34h8.55V30.91H207q2.31,3.68,4.61,7.3,2.59,4.11,5.2,8.2l.6.93h10.16l-2-3.1Q222.9,40,220.24,35.88Zm-20.34-28h8.91a14.87,14.87,0,0,1,2.74.24,7,7,0,0,1,2,.69A6.08,6.08,0,0,1,216,11.24a8.42,8.42,0,0,1,.91,4.13,10.43,10.43,0,0,1-.33,2.61,9,9,0,0,1-.88,2.23,6.36,6.36,0,0,1-1.23,1.59,3.29,3.29,0,0,1-1.28.76,9.36,9.36,0,0,1-2.07.4c-.74.05-1.54.07-2.4.07H199.9Z"/><polygon class="cls-2" points="237.14 47.34 245.69 47.34 245.69 27.12 265.27 27.12 265.27 19.23 245.69 19.23 245.69 7.88 267.82 7.88 267.82 0 237.14 0 237.14 47.34"/><polygon class="cls-2" points="273.01 47.34 282.33 47.34 295.52 19.93 308.59 47.34 317.9 47.34 295.54 0 273.01 47.34"/><rect class="cls-2" x="327.6" width="8.55" height="47.34"/><polygon class="cls-2" points="358.45 39.46 358.45 0 349.9 0 349.9 47.34 377.92 47.34 377.92 39.46 358.45 39.46"/></svg>