<?xml version="1.0" encoding="UTF-8"?> <svg xmlns="http://www.w3.org/2000/svg" width="322" height="84" viewBox="0 0 322 84"><g fill="none" fill-rule="evenodd"><path d="M194 20v44.3h-7.24l-.51-4.3c-2.42 3.73-6.3 5-10.1 5-9.22 0-16.15-6.08-16.15-16.35 0-10.78 6.8-16.35 15.95-16.35 3.3 0 8.45 1.77 10.3 5V20H194Zm-59-10 25 55h-9.33l-3.82-8.44h-23.7L119.26 65H110l25-55Zm41.65 29.52c-4.96 0-8.9 3.49-8.9 9.13 0 5.45 3.94 9.19 8.9 9.19 4.9 0 9.09-3.55 9.09-9.2 0-5.44-4.2-9.12-9.09-9.12ZM135 29.65l-8.42 19.05h16.84L135 29.65Zm70.75 19c0 5.45 3.94 9.19 8.9 9.19 4.9 0 9.09-3.55 9.09-9.2 0-5.44-4.2-9.12-9.09-9.12-4.96 0-8.9 3.49-8.9 9.13ZM232 64.3h-7.24l-.51-4.3c-2.42 3.73-6.3 5-10.1 5-9.22 0-16.15-6.08-16.15-16.35 0-10.78 6.8-16.35 15.95-16.35 3.3 0 8.45 1.77 10.3 5V20H232v44.3Zm6.76.7h8.48V33.31h-8.48V65ZM243 20c2.5 0 5 1.47 5 4.54 0 3.01-2.5 4.55-5 4.55s-5-1.54-5-4.55c0-3.07 2.5-4.54 5-4.54Zm16.76 27.22c0 5.58 3.72 8.89 8.27 8.89 4.5 0 8.21-3.38 8.21-8.9 0-5.5-3.72-9-8.2-9-4.56 0-8.28 3.43-8.28 9m24.24 0c0 3.96-1.47 9.54-6.67 11.94 5.26 2.66 6.54 6.5 6.54 10.58 0 8.82-6.67 14.27-15.84 14.27S252 78.36 252 69.73h7.76c0 4.15 3.78 6.87 8.27 6.87 4.5 0 8.02-2.46 8.02-6.87s-4.1-6.42-8.02-6.42c-9.87 0-16.03-6.1-16.03-16.1 0-9.98 7.18-16.21 16.03-16.21 8.79 0 15.97 6.23 15.97 16.22M312.17 32l-6.52 11.34L308 51.4 296.83 32H288l12.09 21.01L288.03 74h8.83L321 32h-8.83Z" fill="#232426"></path><path d="M66.78.09 21.14 4.24l46.7 62.6-7.5-6.35H38.9l9.68-9.95-8.18-6.92L1 74.09h89.35l4.83-36.1L66.78.09ZM45.21 14.44l17.98-5.7L85.57 38.6 78.4 58.7 45.2 14.44Z" fill="#2ABFD0"></path></g></svg> 