<?xml version="1.0" encoding="utf-8"?>
<!-- Generator: Adobe Illustrator 27.6.1, SVG Export Plug-In . SVG Version: 6.00 Build 0)  -->
<svg version="1.1" id="Layer_1" xmlns="http://www.w3.org/2000/svg" xmlns:xlink="http://www.w3.org/1999/xlink" x="0px" y="0px"
	 viewBox="0 0 512 512" style="enable-background:new 0 0 512 512;" xml:space="preserve">
<style type="text/css">
	.st0{fill:#99CCEE;}
	.st1{fill:#FFFFFF;}
	.st2{display:none;}
</style>
<g>
	<g id="Layer_1_00000147928429701681857940000004916360927760824201_">
		<g>
			<rect class="st0" width="512" height="512"/>
			<path class="st1" d="M96.34,301.34c7.91-8.86,13.55-19.8,16-31.89c6.31,31.23,33.91,54.75,67.01,54.75
				c33.1,0,60.7-23.52,67.01-54.76v54.76h22.66v-81.77l45.71,45.71l45.51-45.71v81.77h23.05v-54.76
				c6.31,31.24,33.91,54.76,67.01,54.76c27.2,0,50.68-15.88,61.7-38.87v-58.99c-11.01-22.99-34.5-38.87-61.7-38.87
				c-33.1,0-60.7,23.52-67.01,54.76v-54.76l-68.56,68.37l-68.37-68.37v54.76c-6.31-31.24-33.91-54.76-67.01-54.76
				c-33.1,0-60.7,23.52-67.01,54.75c-2.45-12.09-8.08-23.03-15.99-31.89c-12.52-14.02-30.73-22.86-51.01-22.86H0V324.2h45.33
				C65.6,324.2,83.82,315.37,96.34,301.34z M450.3,210.21c25.19,0,45.62,20.42,45.62,45.62c0,25.2-20.43,45.62-45.62,45.62
				c-25.2,0-45.62-20.42-45.62-45.62C404.68,230.63,425.11,210.21,450.3,210.21z M179.34,210.21c25.2,0,45.62,20.42,45.62,45.62
				c0,25.2-20.43,45.62-45.62,45.62c-25.2,0-45.62-20.42-45.62-45.62C133.72,230.63,154.15,210.21,179.34,210.21z M22.66,210.32
				h25.65c23.8,1.54,42.63,21.32,42.63,45.51c0,24.2-18.84,43.98-42.65,45.51H22.66V210.32z"/>
		</g>
	</g>
	<g id="Layer_2_00000060017204849513456020000010559402940256899210_" class="st2">
	</g>
</g>
</svg>
