<svg width="409" height="77" viewBox="0 0 409 77" fill="none" xmlns="http://www.w3.org/2000/svg">
<path fill-rule="evenodd" clip-rule="evenodd" d="M13.7898 13.5421C17.4814 13.5421 20.4741 10.5495 20.4741 6.85783C20.4741 5.08505 19.7699 3.38488 18.5163 2.13133C17.2628 0.877785 15.5626 0.173551 13.7898 0.173553C10.0982 0.173553 7.10554 3.16621 7.10554 6.85783C7.10554 10.5495 10.0982 13.5421 13.7898 13.5421ZM249.637 3.62427H262.036V62.1496H249.637V3.62427ZM195.848 40.6353C195.848 25.7766 190.467 17.7541 180.987 17.7541C174.058 17.7541 169.318 22.3124 167.04 29.8788H166.22V18.9391H153.821V76.0065H166.22V50.846H166.948C169.136 58.4124 173.786 63.4256 180.987 63.4256C190.285 63.4257 195.848 55.4953 195.848 40.6353ZM98.7552 28.9667C93.4691 28.9667 90.0947 32.705 90.0947 38.0833V62.1496H77.6958V18.9391H89.8205V30.5169H90.7327C93.195 22.1293 98.3913 17.7541 105.228 17.7541C112.886 17.7541 116.622 22.5853 117.17 30.6988H118.172C120.542 22.2214 125.465 17.7541 132.577 17.7541C141.054 17.7541 145.338 23.4975 145.338 32.887V62.1496H132.849V36.3512C132.849 31.9748 130.845 28.9667 126.287 28.9667C120.998 28.9667 117.716 32.705 117.716 38.0833V62.1496H105.32V36.3512C105.32 31.9748 103.221 28.9667 98.7552 28.9667ZM56.8183 62.1496H68.9431V18.9391H56.4545V43.0055C56.4545 48.4759 53.1722 52.213 47.8861 52.213C43.3278 52.213 41.3216 49.2049 41.3216 44.7376V18.9391H28.9227V48.2018C28.9227 57.5913 33.1171 63.4257 41.3216 63.4257C48.1578 63.4257 53.4463 59.0505 55.9062 50.6629H56.8184L56.8183 62.1496ZM19.988 59.6885V19.0301H7.59158V61.3296C7.59158 64.1546 6.67944 66.0699 3.85325 66.0699C2.87406 66.0695 1.89704 65.9777 0.934898 65.7958L0.389038 76.4625C1.71551 76.678 3.05552 76.7996 4.39911 76.8264C15.796 76.8264 19.988 70.1721 19.988 59.6885ZM166.22 42.4584C166.22 48.4759 169.684 52.486 174.97 52.486C180.987 52.486 183.631 48.5669 183.631 40.6353C183.631 32.705 180.987 28.9667 175.062 28.9667C169.592 28.9667 166.22 32.8869 166.22 39.0852V42.4584ZM230.946 36.5331L242.433 34.3449C240.882 23.8613 235.414 17.7541 222.559 17.7541C208.795 17.7541 200.408 26.4146 200.408 41.0914C200.408 55.8592 208.977 63.4257 222.652 63.4257C234.958 63.4257 241.067 57.1352 242.525 47.1077L231.13 44.3737C230.218 48.8398 228.12 52.5781 222.559 52.5781C216.179 52.5781 213.079 48.1108 213.079 40.4534C213.079 32.2489 216.635 28.6027 222.377 28.6027C227.848 28.6028 229.852 31.8838 230.946 36.5331ZM291.208 63.4257C304.973 63.4257 313.359 54.7651 313.359 40.5444C313.359 26.1405 304.699 17.7541 291.208 17.7541C277.443 17.7541 268.873 26.1405 268.873 40.5444C268.873 54.7651 277.169 63.4257 291.208 63.4257ZM300.963 40.4534C300.963 32.6128 297.954 28.1467 291.116 28.1467C284.28 28.1467 281.271 32.6128 281.271 40.4534C281.271 48.2927 284.098 52.851 291.116 52.851C298.044 52.851 300.963 48.2927 300.963 40.4534ZM347.73 62.1496H359.854V18.9391H347.366V43.0055C347.366 48.4759 344.083 52.213 338.797 52.213C334.239 52.213 332.233 49.2049 332.233 44.7376V18.9391H319.834V48.2018C319.834 57.5913 324.028 63.4257 332.233 63.4257C339.069 63.4257 344.357 59.0505 346.817 50.6629H347.729L347.73 62.1496ZM408.538 62.1496H396.141V50.846H395.411C393.223 58.4125 388.482 63.4257 381.28 63.4257C371.981 63.4257 366.513 55.4953 366.513 40.9095C366.513 25.8675 371.981 17.7541 381.464 17.7541C388.39 17.7541 393.041 22.3124 395.319 29.8788H396.141V3.62427H408.538V62.1496ZM387.388 52.486C381.28 52.486 378.638 48.6579 378.638 40.9095C378.638 32.796 381.372 28.9667 387.299 28.9667C392.767 28.9667 396.141 32.9779 396.141 39.2683V42.6416C396.141 48.6579 392.585 52.486 387.388 52.486Z" fill="black"/>
</svg>