<svg version="1.1" id="Layer_1" xmlns:x="ns_extend;" xmlns:i="ns_ai;" xmlns:graph="ns_graphs;" xmlns="http://www.w3.org/2000/svg" xmlns:xlink="http://www.w3.org/1999/xlink" x="0px" y="0px" viewBox="0 0 360.2 68" style="enable-background:new 0 0 360.2 68;" xml:space="preserve">
 <style type="text/css">
  .st0{fill:#00AF9A;}
	.st1{fill:#1D252C;}
 </style>
 <metadata>
  <sfw xmlns="ns_sfw;">
   <slices>
   </slices>
   <sliceSourceBounds bottomLeftOrigin="true" height="68" width="360.2" x="-90" y="-17">
   </sliceSourceBounds>
  </sfw>
 </metadata>
 <g>
  <g>
   <path class="st0" d="M16,22h12v12H16V22z">
   </path>
   <g>
    <path class="st1" d="M36,0H0v22h11.2V10.6H36V0z">
    </path>
    <path class="st1" d="M0,34h11.2v20H0V34z">
    </path>
   </g>
  </g>
  <g transform="translate(16)">
   <path class="st1" d="M268.6,0.4H279V10h-10.4V0.4z">
   </path>
   <path class="st1" d="M86.2,23c-4.2-0.4-7.6,0-10,2.4c-2.2,2.2-2.6,5.6-2.6,8.8V54H63.2V14H73v3.8c3.2-4,8.2-5.6,13-4.8v10H86.2z">
   </path>
   <path class="st1" d="M127.6,40.4C125.2,49.6,118,55,108.2,55C96,55,87.4,45.6,87.4,34s8.6-21.2,20.8-21.2c9.6,0,17,5.4,19.4,14.6
			h-11c-1.4-2.8-4.6-5-8.4-5c-5.8,0-10.4,5.4-10.4,11.8s4.6,11.6,10.4,11.6c3.8,0,7.2-2.4,8.4-5.2h11V40.4z">
   </path>
   <path class="st1" d="M151.8,12.8c-11.4,0-20.6,9.6-20.6,21.2s9.2,21,20.6,21c9.6,0,16.4-5,19-12.6h-11.4c-1.8,2.4-4.8,3.6-7.8,3.6
			c-4.8,0-8.8-3-10-8H172C173.4,22,163.6,12.8,151.8,12.8z M141.8,29.4c1.4-4.6,5.2-7.6,10-7.6c5,0,8.8,3,10,7.6H141.8z">
   </path>
   <path class="st1" d="M268.6,14H279v40h-10.4V14z">
   </path>
   <path class="st1" d="M320.8,54h-10.4V30.4c0-2.4-0.8-8-7.4-8c-4.6,0-7.8,3.4-7.8,8V54h-10.4V14h9.8v3.8c2.6-3,6-5,10.4-5
			c9.4,0,15.8,7.2,15.8,17.8V54z">
   </path>
   <path class="st1" d="M344,54c-11.8,1.2-18-5.8-18-16.8V4h10.4v9.8h7.8V23h-7.8v14.2c0,5.6,2.6,7.8,7.8,7.4V54H344z">
   </path>
   <path class="st1" d="M37.4,12.8c-11.6,0-21,9.4-21,21s9.4,21,21,21s21-9.4,21-21S49,12.8,37.4,12.8 M37.4,45.4
			c-6.2,0-11.2-5.2-11.2-11.6s5-11.6,11.2-11.6s11.2,5.2,11.2,11.6S43.6,45.4,37.4,45.4">
   </path>
   <path class="st1" d="M243.2,12.8c-11.6,0-21,9.4-21,21s9.4,21,21,21s21-9.4,21-21C264.4,22.2,255,12.8,243.2,12.8 M243.2,45.4
			c-6.2,0-11.2-5.2-11.2-11.6s5-11.6,11.2-11.6s11.2,5.2,11.2,11.6S249.6,45.4,243.2,45.4">
   </path>
   <path class="st1" d="M186.8,18c3.2-3.2,7.4-5.2,12.2-5.2c10.6,0,19.2,9,19.2,21s-8.6,21-19.2,21c-4.6,0-8.8-1.8-11.8-4.8v18h-10.4
			V14h10V18z M197.6,22.4c-5.8,0-10.4,5-10.4,11.4s4.6,11.4,10.4,11.4s10.4-5,10.4-11.4C207.8,27.2,203.2,22.4,197.6,22.4z">
   </path>
  </g>
 </g>
</svg>