<svg fill="none" height="54" width="180" xmlns="http://www.w3.org/2000/svg">
<link id="dark-mode-custom-link" rel="stylesheet" type="text/css" xmlns=""/>
<link id="dark-mode-general-link" rel="stylesheet" type="text/css" xmlns=""/>
<style id="dark-mode-custom-style" lang="en" type="text/css" xmlns=""></style>
<style id="dark-mode-native-style" lang="en" type="text/css" xmlns=""></style>
<style id="dark-mode-native-sheet" lang="en" type="text/css" xmlns=""></style>
<script xmlns=""></script>
<g clip-path="url(#clip0_673_15046)">
<path class="logo__mainBlock" d="M0 0h163.446C172.586 0 180 7.382 180 16.483v21.034C180 46.618 172.586 54 163.446 54H0V0z" fill="#131A3A"></path>
<path class="logo__icon" d="M42.226 27.973l-15.823 8.862m15.823-8.862l-15.87-8.827m15.87 8.827v-5.9l-10.544-5.901-5.327 2.986m15.871 8.815v5.9l-10.544 5.9-5.279-2.95m0 .012l-.06-17.689-5.218 2.926v11.813l5.278 2.95z" stroke="#FF2210" stroke-linejoin="round" stroke-width="1.551"></path>
<path class="logo__text" d="M60.16 36.67c3.167 0 5.35-1.768 5.35-5.34v-.298H63.7v.299c0 2.496-1.428 3.643-3.54 3.643-2.11 0-3.526-1.183-3.526-3.655v-6.88l8.11.012v-1.673l-8.098-.012v-4.801h-1.86l-.023 13.354c0 3.559 2.183 5.35 5.386 5.363l.012-.012zm14.238.037c2.676 0 4.955-1.278 5.939-3.691v3.344h1.715v-6.688c.024-4.276-2.999-7.215-7.342-7.227-4.342-.012-7.413 2.974-7.413 7.203 0 4.228 3.239 7.059 7.114 7.059h-.013zm.276-1.708c-3.287 0-5.506-2.317-5.494-5.447.012-3.13 2.243-5.422 5.518-5.422s5.507 2.317 5.495 5.446C80.18 32.706 77.949 35 74.674 35zm17.456 1.743c4.367 0 7.438-2.998 7.45-7.167.012-4.168-3.071-7.083-7.114-7.095-2.615 0-4.762 1.195-5.794 3.25l.024-8.828h-1.86l-.023 12.613c0 4.36 3.07 7.215 7.33 7.227h-.013zm.036-1.696c-3.31 0-5.506-2.318-5.494-5.447.012-3.13 2.207-5.423 5.518-5.423 3.31 0 5.506 2.318 5.494 5.447-.012 3.13-2.243 5.423-5.518 5.423zm9.584 1.361h1.859l.012-7.071c0-3.345 1.956-5.124 4.943-5.112 2.987.012 4.918 1.791 4.918 5.136v7.07h1.847v-7.07c.024-4.503-2.699-6.832-6.753-6.844-4.055-.012-6.79 2.317-6.802 6.808v7.07l-.024.013zm17.779-16.151c.804 0 1.416-.597 1.428-1.398.012-.8-.612-1.397-1.416-1.397-.804 0-1.416.597-1.428 1.397-.012.8.612 1.398 1.416 1.398zm-.948 16.184h1.86l.024-13.544h-1.86l-.024 13.544zm5.099.014h1.859l.012-7.071c0-3.345 1.955-5.124 4.93-5.112 2.975.011 4.919 1.791 4.919 5.136v7.07h1.847v-7.07c.024-4.503-2.699-6.832-6.766-6.845-4.066-.011-6.789 2.318-6.801 6.809v7.083zm23.139.405c3.203 0 5.71-1.637 6.766-4.12h-2.027c-.9 1.552-2.568 2.424-4.739 2.424-3.083 0-5.23-2.019-5.47-4.838l12.824.024v-.597c0-4.109-2.987-7.13-7.33-7.143-4.342-.012-7.413 2.998-7.413 7.12 0 4.12 3.047 7.13 7.389 7.142v-.012zm-5.398-8.194c.42-2.663 2.567-4.383 5.434-4.371 2.867.011 4.955 1.66 5.386 4.395l-10.82-.024z" fill="#fff"></path>
</g>
<defs>
<clipPath id="clip0_673_15046">
<path d="M0 0h180v54H0z" fill="#fff"></path>
</clipPath>
</defs>
<script xmlns=""></script>
</svg>