<?xml version="1.0" encoding="utf-8"?>
<!-- Generator: Adobe Illustrator 23.1.0, SVG Export Plug-In . SVG Version: 6.00 Build 0)  -->
<svg version="1.1" id="Layer_1" xmlns="http://www.w3.org/2000/svg" xmlns:xlink="http://www.w3.org/1999/xlink" x="0px" y="0px"
	 viewBox="0 0 1920 506" style="enable-background:new 0 0 1920 506;" xml:space="preserve">
<g>
	<path class="st0" fill="black" d="M1812.36,154.37c-27.28-26.86-59.9-40.3-98.26-40.3c-38.36,0-71.18,13.44-98.27,40.3
		c-27.28,27.03-40.84,59.39-40.84,97.4c0,38.02,13.56,70.55,40.84,97.42c27.09,27.05,59.91,40.48,98.27,40.48
		c38.36,0,70.98-13.44,98.26-40.48c27.1-26.86,40.64-59.4,40.64-97.42C1853,213.76,1839.46,181.4,1812.36,154.37 M1777.64,314.95
		c-17.55,17.4-38.74,26.09-63.54,26.09c-24.8,0-45.99-8.69-63.75-26.09c-17.54-17.59-26.32-38.59-26.32-63.18
		c0-24.59,8.78-45.59,26.32-62.99c17.76-17.4,38.94-26.11,63.75-26.11c24.81,0,45.99,8.71,63.54,26.11
		c17.55,17.4,26.32,38.4,26.32,62.99C1803.96,276.36,1795.19,297.36,1777.64,314.95"/>
	<path class="st1" fill="black" d="M1326.94,117.03l0.05,24.41c0.03,6.54,2.51,12.16,7.31,16.84c4.83,4.71,10.59,7.15,17.56,7.15h32.84v125.6
		c0,13.77-5.21,25.65-15.64,35.46c-10.23,9.8-22.39,14.71-36.48,14.71c-14.85,0-27.41-5.28-37.63-15.85
		c-4.83-4.9-10.6-7.35-17.36-7.54c-6.76-0.19-12.74,1.9-17.77,6.6c-4.83,4.53-7.52,10.18-7.72,16.96c-0.2,6.6,2.11,12.45,6.75,17.36
		c20.08,20.55,44.59,30.92,73.73,30.92c27.79,0,51.54-9.62,71.41-28.85c19.88-19.05,29.92-42.25,30.31-69.4V117.03H1326.94z"/>
	<path class="st1" fill="black" d="M923.85,124.25c-4.95-4.74-10.91-7.21-17.86-7.21c-0.03,0-25.6,0-25.6,0v245.16c0,6.84,2.58,12.53,7.53,17.29
		c4.96,4.73,10.88,7.19,17.98,7.21l25.51,0.01V141.55C931.41,134.7,928.83,129,923.85,124.25z"/>
	<path class="st1" fill="black" d="M1528.78,124.25c-4.95-4.74-10.91-7.21-17.86-7.21c-0.03,0-25.6,0-25.6,0v245.16c0,6.84,2.58,12.53,7.53,17.29
		c4.96,4.73,10.88,7.19,17.98,7.21l25.51,0.01V141.55C1536.34,134.7,1533.76,129,1528.78,124.25z"/>
	<path class="st1" fill="black" d="M808.6,117.05c-6.65,0-12.53,2.26-17.28,7.03c-4.74,4.75-7.2,10.63-7.2,17.29v151.46L650.45,126.17
		c-3.24-4-7.41-6.86-12.34-8.18c-2.48-0.64-4.91-0.96-7.3-0.94l-23.85-0.02V386.7l24.5-0.01c6.65,0,12.34-2.47,17.08-7.22
		c4.75-4.75,7.22-10.45,7.22-17.29V210.91l133.87,166.66c3.21,3.99,7.2,6.83,12.33,8.17c2.49,0.68,4.99,1.01,7.48,0.95v0h23.47
		V117.05H808.6z"/>
	<path class="st1" fill="black" d="M1184.06,117.05c-6.65,0-12.53,2.26-17.28,7.03c-4.74,4.75-7.2,10.63-7.2,17.29v151.46l-133.66-166.65
		c-3.24-4-7.41-6.86-12.34-8.18c-2.48-0.64-4.91-0.96-7.3-0.94l-23.85-0.02V386.7l24.5-0.01c6.65,0,12.34-2.47,17.08-7.22
		c4.75-4.75,7.22-10.45,7.22-17.29V210.91l133.87,166.66c3.21,3.99,7.2,6.83,12.33,8.17c2.49,0.68,4.99,1.01,7.48,0.95v0h23.47
		V117.05H1184.06z"/>
</g>
<g>
	<rect x="66.59" y="50.59" class="st2" fill="#F0483E" width="405.54" height="405.54"/>
	<path class="st1" fill="white" d="M361.83,169.57c-2.18-1.59-4.96-2.08-7.6-1.46c-26.28,6.14-55.31,9.64-85.89,9.64
		c-29.98,0-58.52-3.4-84.39-9.39c-2.65-0.61-5.45-0.12-7.63,1.5c-27.76,20.55-45.28,50.06-45.28,83.01
		c0,32.82,17.51,62.31,45.28,82.88c2.19,1.62,4.98,2.12,7.63,1.5c25.87-5.99,54.41-9.36,84.39-9.36c30.58,0,59.61,3.54,85.9,9.67
		c2.63,0.61,5.4,0.13,7.58-1.46c28.09-20.46,45.85-50.24,45.85-83.23C407.67,219.71,389.91,190.06,361.83,169.57z M376.47,251.4H353
		v4.26c0,12.61-10.06,22.82-22.33,22.82c-12.3,0-22.24-10.21-22.24-22.82v-4.26l-24.4,0.01c-1.02,0-1.99,0.41-2.7,1.14l-10.58,10.85
		c-0.74,0.76-1.95,0.76-2.69,0l-10.66-10.86c-0.71-0.72-1.68-1.13-2.69-1.13l-24.45,0v4.26c0,12.61-9.97,22.82-22.27,22.82
		c-12.22,0-22.26-10.21-22.26-22.82v-4.26h-23.62c-6.36,0-11.73-5.46-11.73-12.1c0-6.73,5.37-12.18,11.73-12.18h214.36
		c6.61,0,11.85,5.45,11.85,12.18C388.32,245.95,383.08,251.4,376.47,251.4z"/>
</g>
</svg>
