<svg xmlns="http://www.w3.org/2000/svg" viewBox="0 0 286.17 62.62">
  <title>Paycom Logo</title>
  <g id="Layer_2" data-name="Layer 2">
    <g id="Layer_2-2" data-name="Layer 2">
      <path style="fill:#00833e" d="M4,0A4,4,0,0,0,0,4V58.62a4,4,0,0,0,4,4h8.43a4,4,0,0,0,4-4V20.44a4,4,0,0,1,4-4H42.18a4,4,0,0,1,4,4V42.13a4,4,0,0,1-4,4H29.66a4,4,0,0,0-4,4v8.43a4,4,0,0,0,4,4h29a4,4,0,0,0,4-4V4a4,4,0,0,0-4-4Z"/>
      <path style="fill:#0a0203" d="M76.56,26.6H82v3.47h.12c1.51-1.83,5-4.05,10.43-4.05,8.91,0,13.25,5.84,13.25,12.44s-3.91,13.31-13.19,13.31c-5.42,0-8.5-1.69-10.25-4h-.11v13.5H76.56Zm14.76,3.09c-6.14,0-9.09,4.67-9.09,9.25,0,4.1,2.65,9.16,9,9.16,6.09,0,8.62-5.44,8.5-9.3C99.88,34.36,97.47,29.69,91.32,29.69Z"/>
      <path style="fill:#0a0203" d="M112.83,28.34A23.34,23.34,0,0,1,123,26c8.8,0,12.36,3.48,12.36,10.18V46.37a33.56,33.56,0,0,0,.23,4.82h-5.3V48h-.12c-1.32,1.5-4.33,3.77-9.51,3.77-6.63,0-11.27-2.32-11.27-7.67,0-6.17,8.43-8.1,14.28-8.1,2.23,0,3.79,0,6,.1,0-4.24-1.93-6.41-7.59-6.41a16.88,16.88,0,0,0-8.92,2.5Zm16.81,11.13c-1.2,0-2.41-.09-3.61-.09-3.08,0-10.67.38-10.67,4.72,0,2.6,3.14,4,5.73,4,5.6,0,8.55-2.79,8.55-6.46Z"/>
      <path style="fill:#0a0203" d="M140.61,57.84a10.76,10.76,0,0,0,2.65.38c5.06,0,6.75-5.59,6.75-6.07a11.47,11.47,0,0,0-1.09-2.6L138.5,26.6h6.21L153,46.94h.12l8.44-20.34h5.72L155.91,51.72c-2.11,4.72-4.33,10.17-11.8,10.17a23.48,23.48,0,0,1-3.86-.34Z"/>
      <path style="fill:#0a0203" d="M190.56,30.75a19.78,19.78,0,0,0-6.15-1.06c-6.33,0-9.88,4.53-9.88,9.21,0,4.38,3,9.2,10.24,9.2a14.07,14.07,0,0,0,6.09-1.4l.42,4a21.12,21.12,0,0,1-7.11,1c-9.28,0-15.67-5.84-15.67-12.87,0-7.48,6.27-12.88,15.67-12.88A26,26,0,0,1,191,27Z"/>
      <path style="fill:#0a0203" d="M209.42,26c9.34,0,15.6,5.4,15.6,12.88,0,7-6.38,12.87-15.6,12.87s-15.67-5.84-15.67-12.87C193.75,31.42,200,26,209.42,26Zm0,22.08c6.62,0,9.58-4.82,9.58-9.2a9.62,9.62,0,0,0-19.22,0C199.78,43.28,202.73,48.1,209.42,48.1Z"/>
      <path style="fill:#0a0203" d="M230.57,26.6h5.3v3.57H236c2.17-2.84,5.24-4.15,9.76-4.15,3.55,0,7.11,1.45,8.73,4.78C256.59,27.28,261.23,26,264,26c7.84,0,10.67,4.05,10.67,9.4V51.19H269V36.53c0-3-.9-6.84-5.48-6.84-5.78,0-8.07,4.53-8.07,9.11V51.19h-5.66V36.53c0-3-.91-6.84-5.49-6.84-5.78,0-8.07,4.53-8.07,9.11V51.19h-5.66Z"/>
      <path style="fill:#0a0203" d="M277.83,30.87A4.17,4.17,0,1,1,282,35,4.17,4.17,0,0,1,277.83,30.87Zm7.32,0a3.16,3.16,0,1,0-6.3,0,3.16,3.16,0,1,0,6.3,0Zm-4.75-2.38h1.75c1.13,0,1.75.4,1.75,1.39a1.18,1.18,0,0,1-1.24,1.27l1.27,2.07H283l-1.22-2h-.53v2h-.88Zm.88,2h.77c.52,0,1-.07,1-.71s-.51-.65-1-.65h-.78Z"/>
    </g>
  </g>
</svg>