<?xml version="1.0" encoding="UTF-8"?> <svg xmlns="http://www.w3.org/2000/svg" id="af63d2f5-2b98-43f2-bb09-729d417a61ff" data-name="Layer 1" viewBox="0 0 656 136"><defs><style>.efdc8162-9f5f-46db-9791-517540d70fb6{fill:#5787ff;}</style></defs><g id="f3ca4a52-2eeb-4ebb-a2da-71e659aab12a" data-name="Miradore"><path class="efdc8162-9f5f-46db-9791-517540d70fb6" d="M168.5,67.907q0,20.054,0,40.107c0,11.309-8.737,21.222-19.621,22.272-12.221,1.179-22.71-6.265-25.065-17.83a21.76,21.76,0,0,1-.439-4.364q.029-40.278.016-80.554c0-11.255,9-21.219,19.995-22.158,12.192-1.041,22.69,6.689,24.784,18.215a22.424,22.424,0,0,1,.332,4.035Q168.5,47.768,168.5,67.907Z"></path><path class="efdc8162-9f5f-46db-9791-517540d70fb6" d="M54.648,67.994q0,20.054,0,40.108c0,11.254-8.919,21.152-19.719,22.22-14.121,1.4-23.595-8.647-25.1-18.616a23.5,23.5,0,0,1-.292-3.53q.008-40.362.005-80.724c0-11.139,8.926-21.027,19.9-22.066C41.535,4.242,52.2,12.035,54.293,23.514a23.282,23.282,0,0,1,.357,4.2Q54.646,47.855,54.648,67.994Z"></path><path class="efdc8162-9f5f-46db-9791-517540d70fb6" d="M111.574,68.067q0,19.884,0,39.77c0,11.592-8.937,21.511-19.956,22.507-14.042,1.269-23.629-8.9-24.914-19.049a26.557,26.557,0,0,1-.242-3.364q0-40.11,0-80.218c0-11.424,8.907-21.374,19.985-22.332,12.269-1.061,22.641,6.636,24.812,18.372a21.144,21.144,0,0,1,.313,3.867Q111.576,47.843,111.574,68.067Z"></path><path class="efdc8162-9f5f-46db-9791-517540d70fb6" d="M279.283,44.536q-3.23,6.66-6.46,13.321c-3.31,6.848-6.649,13.682-9.9,20.558a5.743,5.743,0,0,1-6.015,3.7c-1.463-.086-2.938-.062-4.4,0a5.626,5.626,0,0,1-5.746-3.582q-7.982-16.7-16.064-33.348c-.093-.193-.217-.371-.522-.889-.04.9-.087,1.471-.087,2.039q-.006,32.834,0,65.665c0,2.916-.682,3.608-3.566,3.618-1.185,0-2.371.011-3.557,0-2.567-.027-3.335-.789-3.336-3.337q-.006-20.309,0-40.616,0-18.956,0-37.909c0-3.206,1.161-4.35,4.395-4.353,2.033,0,4.074.115,6.1-.03,2.371-.171,3.727.818,4.735,2.94,6.071,12.772,12.233,25.5,18.378,38.238.352.728.508,1.773,1.569,1.78s1.252-1,1.609-1.741c6.136-12.741,12.3-25.471,18.366-38.243,1-2.112,2.349-3.124,4.724-2.975,2.25.142,4.516.013,6.774.036a3.508,3.508,0,0,1,3.785,3.646c.02.338,0,.677,0,1.016q0,38.84,0,77.679c0,3.2-.668,3.868-3.859,3.871-1.129,0-2.259.014-3.388,0-2.458-.037-3.212-.8-3.212-3.274q0-32.918,0-65.833V44.645Z"></path><path class="efdc8162-9f5f-46db-9791-517540d70fb6" d="M482.229,71.33q0,19.875,0,39.75c0,2.52-.248,2.881-2.781,3.346-8.282,1.521-16.634,2.593-25.042,1.644-10.867-1.226-17.546-6.812-19.928-17.488-2.388-10.7-2.565-21.634.564-32.261,2.753-9.348,10.391-14.82,20.163-15.252a74.57,74.57,0,0,1,15.514.82c1.189.2,1.318-.14,1.313-1.14-.028-6.484-.017-12.969-.013-19.453,0-2.333.57-2.905,2.868-2.914,1.411-.006,2.822,0,4.233,0,2.594,0,3.107.529,3.109,3.2q0,3.215,0,6.428ZM472.018,83.687c0-7.1-.011-14.2.012-21.306,0-1-.05-1.729-1.334-1.846a106.068,106.068,0,0,0-12.992-.6c-7.72.242-12.072,3.626-13.453,11.2a68.907,68.907,0,0,0,.18,26.016c1.233,6.14,5.5,9.652,11.566,10.07a106.121,106.121,0,0,0,14.523-.444c1.278-.086,1.533-.6,1.524-1.785C471.991,97.891,472.018,90.789,472.018,83.687Z"></path><path class="efdc8162-9f5f-46db-9791-517540d70fb6" d="M628.778,86.948c-6.039,0-12.08.051-18.118-.037-1.462-.022-1.783.436-1.735,1.8a37.036,37.036,0,0,0,.95,8.03c1.725,6.674,6.047,10.238,12.956,10.5a143.881,143.881,0,0,0,22.45-1.092c2.211-.263,2.911.313,2.937,2.5.065,5.525.115,5.382-5.134,6.224a89.963,89.963,0,0,1-22.562,1.216c-11.076-1.014-18.7-7.806-21.015-18.8a26.577,26.577,0,0,1-.727-5.856c.1-6.476-.413-12.964.339-19.428,1.4-12.011,10.622-20.5,22.748-20.961,4.364-.166,8.7-.039,12.857,1.467,8.322,3.016,12.747,9.262,14.549,17.662,1.029,4.8.629,9.655.66,14.493.011,1.615-.853,2.272-2.7,2.276C641.084,86.956,634.931,86.947,628.778,86.948ZM624.56,59.88c-3.94.158-7.851.777-10.913,3.841-4.044,4.046-4.607,9.214-4.692,14.539-.015.993.672.853,1.277.854,9.37,0,18.74-.012,28.11.021,1.055,0,1.472-.372,1.328-1.378-.286-2.007-.162-4.047-.563-6.05C638.1,66.676,636,62.531,630.69,60.834A23.225,23.225,0,0,0,624.56,59.88Z"></path><path class="efdc8162-9f5f-46db-9791-517540d70fb6" d="M409.327,110.842a45.531,45.531,0,0,1-11.095,4.7,27.406,27.406,0,0,1-11.908.365c-8.015-1.546-12.849-6.945-13.476-15.148a32.919,32.919,0,0,1,.39-10.1c1.475-6.271,5.806-9.7,11.7-11.461A46.169,46.169,0,0,1,398.3,77.421c3.161,0,6.322,0,9.484,0,.7,0,1.395.068,1.361-.981-.094-2.867.2-5.745-.367-8.6-.99-4.993-3.781-7.625-8.867-7.948a118.373,118.373,0,0,0-17.408.444c-1.292.109-2.588.17-3.882.246-1.469.086-2.231-.537-2.17-2.081a34.194,34.194,0,0,0-.006-3.551A2.039,2.039,0,0,1,378.3,52.56c8.76-1.491,17.586-2.517,26.393-.786,8.659,1.7,13.59,7.579,14.547,16.409a56.353,56.353,0,0,1,.3,6.073q.014,18.865,0,37.731c0,2.9-.708,3.614-3.57,3.626-1.073,0-2.146.009-3.218,0-2.56-.024-3.288-.759-3.336-3.333C409.41,111.891,409.37,111.5,409.327,110.842Zm-.182-16.778c0-2.48-.1-4.966.036-7.439.085-1.556-.48-1.9-1.923-1.848-2.761.107-5.529.022-8.294.034a32.366,32.366,0,0,0-9.363,1.131c-3.691,1.121-5.928,3.466-6.425,7.414a25.505,25.505,0,0,0,.145,7.734,7.4,7.4,0,0,0,5.935,6.389,16.953,16.953,0,0,0,3.008.428c5.822.3,11.1-1.525,16.16-4.186.7-.368.726-.9.724-1.539C409.14,99.476,409.145,96.77,409.145,94.064Z"></path><path class="efdc8162-9f5f-46db-9791-517540d70fb6" d="M547.571,83.731a53.806,53.806,0,0,1-1.3,14.587c-2.877,11-11.493,17.787-22.881,18.045-5.081.115-10.037-.406-14.624-2.76-6.953-3.569-10.833-9.541-12.051-17-1.513-9.262-1.76-18.639.45-27.853C499.7,58.2,508.137,51.5,518.976,51.055a33.5,33.5,0,0,1,12.043,1.228c8.795,2.9,13.546,9.284,15.565,18A55.442,55.442,0,0,1,547.571,83.731Zm-10.418-1.023a72.346,72.346,0,0,0-.332-8.877c-1.705-11.633-9.972-15.346-19.387-13.4-6.06,1.254-9.815,5.786-10.783,12.616-.913,6.447-.513,12.941-.28,19.414a18.527,18.527,0,0,0,1.321,5.742c2.322,6.229,7.132,9.216,14.655,9.1,6.685-.107,11.3-3.5,13.487-9.8C537.41,92.972,537.162,88.291,537.153,82.708Z"></path><path class="efdc8162-9f5f-46db-9791-517540d70fb6" d="M571.088,56.367a32.486,32.486,0,0,1,10.355-4.76,26.32,26.32,0,0,1,6.21-.6,1.976,1.976,0,0,1,2.209,2.187q.054,2.028,0,4.06c-.047,1.972-.657,2.6-2.712,2.593a29.525,29.525,0,0,0-14.334,4,2.449,2.449,0,0,0-1.456,2.51q.063,22.758.027,45.514c0,3.092-.657,3.738-3.8,3.741-1.3,0-2.6.053-3.895-.026a2.35,2.35,0,0,1-2.552-2.694q-.017-29.271,0-58.542c0-1.817.78-2.563,2.576-2.6,1.411-.03,2.823-.011,4.234-.006,2.353.009,3.016.662,3.053,2.981C571.015,55.16,571.049,55.6,571.088,56.367Z"></path><path class="efdc8162-9f5f-46db-9791-517540d70fb6" d="M345.334,56.3a53.955,53.955,0,0,1,6.484-3.448,24.143,24.143,0,0,1,9.9-1.832c1.8.069,2.272.535,2.294,2.354.014,1.241.006,2.481,0,3.722-.008,2.154-.53,2.765-2.659,2.757a29.531,29.531,0,0,0-14.324,4.015,2.3,2.3,0,0,0-1.383,2.362q.055,22.833.024,45.668c0,2.993-.592,3.595-3.525,3.6-1.411,0-2.822.026-4.232-.008-1.715-.042-2.421-.763-2.512-2.494-.018-.338-.006-.677-.006-1.015q0-28.332,0-56.663c0-3.135.452-3.573,3.65-3.574,1.072,0,2.144-.005,3.217,0,2.235.013,3.013.786,3.068,3.045C345.342,55.178,345.334,55.57,345.334,56.3Z"></path><path class="efdc8162-9f5f-46db-9791-517540d70fb6" d="M308.016,83.546q0-14.2,0-28.4c0-2.747.645-3.4,3.351-3.4,1.3,0,2.6-.009,3.892,0,2.251.018,3,.773,3.008,3.072q.015,9.045,0,18.09,0,19.529,0,39.056c0,3.026-.507,3.53-3.534,3.534-1.3,0-2.595.016-3.892,0-2.135-.034-2.822-.716-2.824-2.863Q308.007,98.086,308.016,83.546Z"></path><path class="efdc8162-9f5f-46db-9791-517540d70fb6" d="M318.519,34.811c0,1.464.062,2.932-.018,4.392a2.291,2.291,0,0,1-2.472,2.419c-1.86.023-3.722.035-5.581,0a2.3,2.3,0,0,1-2.58-2.48q-.126-4.473,0-8.953a2.3,2.3,0,0,1,2.561-2.511c1.859-.048,3.722-.05,5.58.008a2.341,2.341,0,0,1,2.5,2.566C318.555,31.768,318.52,33.29,318.519,34.811Z"></path></g></svg> 