<?xml version="1.0" encoding="utf-8"?><svg xmlns="http://www.w3.org/2000/svg" viewBox="0 0 165 28"><path fill-rule="evenodd" clip-rule="evenodd" d="M26.3225 27.0935C25.9337 27.0935 25.5478 27.0274 25.181 26.8982L15.6868 23.7638C15.3388 23.6488 14.9631 23.6488 14.6151 23.7638L5.12095 26.8982C4.75431 27.0274 4.36824 27.0935 3.97937 27.0935C1.3477 27.0935 -0.297054 24.2447 1.01878 21.9657L12.1903 2.61589C13.5061 0.336857 16.7956 0.336857 18.1115 2.61589L29.2831 21.9657C30.599 24.2447 28.9542 27.0935 26.3225 27.0935ZM41.7757 18.2261C41.7757 18.54 41.9447 18.7816 42.1139 18.9023V18.903C43.4666 19.869 45.2782 20.473 46.9206 20.473C49.4085 20.473 51.3651 19.0962 51.3651 16.729V16.6808C51.3651 14.4344 49.2878 13.6856 47.3555 13.1058L47.3069 13.0911C45.6591 12.5896 44.143 12.1282 44.143 10.9561V10.9078C44.143 9.86921 45.085 9.09625 46.5585 9.09625C47.6213 9.09625 48.7565 9.45843 49.8193 10.0624C49.916 10.1107 50.0609 10.1589 50.2299 10.1589C50.6888 10.1589 51.0511 9.79674 51.0511 9.36192C51.0511 8.99956 50.8337 8.73389 50.5923 8.58895C49.3845 7.93672 47.9352 7.5261 46.6067 7.5261C44.1429 7.5261 42.3555 8.95114 42.3555 11.1009V11.1491C42.3555 13.4438 44.5294 14.1201 46.4858 14.6757C48.1283 15.1345 49.6017 15.6176 49.6017 16.8737V16.9219C49.6017 18.1295 48.5148 18.9025 47.0172 18.9025C45.6644 18.9025 44.3359 18.4435 43.0558 17.574C42.9351 17.4773 42.7659 17.429 42.597 17.429C42.1381 17.429 41.7757 17.7912 41.7757 18.2261ZM55.4707 8.56424C55.4707 8.0329 55.8813 7.62228 56.3886 7.62228C56.9199 7.62228 57.3305 8.0329 57.3305 8.56424V10.2551C58.3449 8.75744 59.8184 7.47734 62.1131 7.47734C65.1083 7.47734 68.0792 9.84449 68.0792 13.9508V13.999C68.0792 18.0811 65.1323 20.4965 62.1131 20.4965C59.7942 20.4965 58.2967 19.2405 57.3305 17.8395V23.2743C57.3305 23.8056 56.9441 24.2162 56.4126 24.2162C55.8811 24.2162 55.4707 23.8056 55.4707 23.2743V8.56424ZM66.171 14.0231V13.9748C66.171 11.0279 64.1421 9.144 61.7749 9.144C59.4561 9.144 57.2581 11.1005 57.2581 13.9508V13.999C57.2581 16.8975 59.4561 18.8299 61.7749 18.8299C64.1905 18.8299 66.171 17.0425 66.171 14.0231ZM71.2187 16.5594V16.6077C71.2187 19.168 73.5618 20.4964 75.8805 20.4964C78.0787 20.4964 79.5277 19.4819 80.3974 18.3466V19.4819C80.3974 19.965 80.7596 20.3514 81.2911 20.3514C81.7984 20.3514 82.1848 19.965 82.1848 19.4335V12.5979C82.1848 11.0035 81.7501 9.79592 80.9047 8.95048C79.9868 8.03274 78.6344 7.57371 76.871 7.57371C75.2767 7.57371 74.0206 7.8878 72.7888 8.41914C72.5472 8.51582 72.2815 8.80571 72.2815 9.19211C72.2815 9.62693 72.6679 9.98928 73.1027 9.98928C73.1992 9.98928 73.3201 9.96507 73.4409 9.91681C74.3586 9.5062 75.4215 9.21632 76.6775 9.21632C79.0204 9.21632 80.3972 10.3757 80.3972 12.6221V13.0569C79.2861 12.743 78.151 12.5256 76.5568 12.5256C73.3926 12.5256 71.2187 13.9266 71.2187 16.5594ZM80.4214 14.4337V15.6415H80.4213C80.4213 17.6221 78.5374 19.0231 76.2427 19.0231C74.5518 19.0231 73.1026 18.1052 73.1026 16.5352V16.4869C73.1026 14.9168 74.407 13.9024 76.75 13.9024C78.2719 13.9024 79.5035 14.168 80.4214 14.4337ZM86.0249 14.0473V13.999C86.0249 10.4725 88.7785 7.47734 92.4259 7.47734C94.503 7.47734 95.904 8.27435 97.0151 9.28894C97.16 9.40967 97.305 9.65129 97.305 9.94101C97.305 10.4483 96.8944 10.8347 96.4113 10.8347C96.1698 10.8347 95.9524 10.738 95.8075 10.6173C94.9138 9.79607 93.8994 9.11962 92.4017 9.11962C89.8655 9.11962 87.9332 11.2694 87.9332 13.9506V13.9989C87.9332 16.7042 89.9138 18.8539 92.5226 18.8539C93.9476 18.8539 95.0828 18.2018 96.0008 17.3322C96.1216 17.2115 96.2907 17.0907 96.5322 17.0907C96.9912 17.0907 97.3776 17.5013 97.3776 17.9362C97.3776 18.1536 97.2811 18.371 97.1362 18.5159C95.9526 19.6995 94.5275 20.5207 92.4261 20.5207C88.7787 20.5207 86.0249 17.5496 86.0249 14.0473ZM100.469 14.0231C100.469 17.8879 103.271 20.5207 106.701 20.5207L106.701 20.5209C108.827 20.5209 110.228 19.7721 111.411 18.6368C111.604 18.4677 111.701 18.2503 111.701 18.0328C111.701 17.5982 111.339 17.2358 110.88 17.2358C110.662 17.2358 110.493 17.3325 110.348 17.4532C109.43 18.2987 108.295 18.9025 106.749 18.9025C104.527 18.9025 102.619 17.3808 102.353 14.6755H111.387C111.846 14.6755 112.256 14.3131 112.256 13.8058C112.256 10.4967 110.155 7.47734 106.459 7.47734C103.005 7.47734 100.469 10.3758 100.469 13.9748V14.0231ZM106.411 9.04732C108.899 9.04732 110.203 11.0281 110.396 13.2985H102.353C102.595 10.8589 104.237 9.04732 106.411 9.04732ZM115.517 18.9023C115.348 18.7816 115.179 18.54 115.179 18.2261C115.179 17.7912 115.541 17.429 116 17.429C116.169 17.429 116.338 17.4773 116.459 17.574C117.739 18.4435 119.067 18.9025 120.42 18.9025C121.918 18.9025 123.004 18.1295 123.004 16.9219V16.8737C123.004 15.6176 121.531 15.1345 119.889 14.6757C117.932 14.1201 115.758 13.4438 115.758 11.1491V11.1009C115.758 8.95114 117.546 7.5261 120.009 7.5261C121.338 7.5261 122.787 7.93672 123.995 8.58895C124.236 8.73389 124.454 8.99956 124.454 9.36192C124.454 9.79674 124.091 10.1589 123.632 10.1589C123.463 10.1589 123.318 10.1107 123.222 10.0624C122.159 9.45843 121.024 9.09625 119.961 9.09625C118.487 9.09625 117.545 9.86921 117.545 10.9078V10.9561C117.545 12.1282 119.062 12.5896 120.71 13.0911L120.758 13.1058C122.69 13.6856 124.768 14.4344 124.768 16.6808V16.729C124.768 19.0962 122.811 20.473 120.323 20.473C118.681 20.473 116.869 19.869 115.516 18.903L115.517 18.9023ZM129.792 2.47738C129.284 2.47738 128.874 2.91204 128.874 3.41933V19.4096C128.874 19.941 129.284 20.3516 129.816 20.3516C130.347 20.3516 130.734 19.941 130.734 19.4096V13.0811C130.734 10.738 132.328 9.16806 134.477 9.16806C136.676 9.16806 137.932 10.6173 137.932 12.9362V19.4096C137.932 19.941 138.342 20.3516 138.874 20.3516C139.381 20.3516 139.792 19.941 139.792 19.4096V12.4773C139.792 9.50637 138.028 7.47735 135.009 7.47735C132.859 7.47735 131.555 8.56425 130.734 9.91698V3.41933C130.734 2.9122 130.323 2.47738 129.792 2.47738ZM144.405 3.82995C144.405 3.22613 144.888 2.83957 145.491 2.83957C146.119 2.83957 146.603 3.22597 146.603 3.82995V4.14387C146.603 4.72364 146.119 5.13425 145.491 5.13425C144.887 5.13425 144.405 4.72364 144.405 4.14387V3.82995ZM144.574 8.56425C144.574 8.05696 144.984 7.6223 145.491 7.6223C146.023 7.6223 146.433 8.03291 146.433 8.56425V19.4096C146.433 19.941 146.047 20.3516 145.516 20.3516C144.984 20.3516 144.574 19.941 144.574 19.4096V8.56425ZM152.327 7.62228C151.819 7.62228 151.409 8.0329 151.409 8.56424L151.409 23.2743C151.409 23.8056 151.819 24.2162 152.351 24.2162C152.882 24.2162 153.269 23.8056 153.269 23.2743V17.8395C154.235 19.2405 155.732 20.4965 158.051 20.4965C161.07 20.4965 164.017 18.0811 164.017 13.999V13.9508C164.017 9.84449 161.046 7.47734 158.051 7.47734C155.757 7.47734 154.283 8.75744 153.269 10.2551V8.56424C153.269 8.0329 152.858 7.62228 152.327 7.62228ZM162.109 13.9748V14.0231C162.109 17.0425 160.129 18.8299 157.713 18.8299C155.394 18.8299 153.196 16.8975 153.196 13.999V13.9508C153.196 11.1005 155.394 9.144 157.713 9.144C160.08 9.144 162.109 11.0279 162.109 13.9748Z" fill="white"/></svg>