<?xml version="1.0" encoding="utf-8"?>
<!-- Generator: Adobe Illustrator 22.0.1, SVG Export Plug-In . SVG Version: 6.00 Build 0)  -->
<svg version="1.1" xmlns="http://www.w3.org/2000/svg" xmlns:xlink="http://www.w3.org/1999/xlink" x="0px" y="0px"
	 viewBox="0 0 599 187" style="enable-background:new 0 0 599 187;" xml:space="preserve">
<style type="text/css">
	.st0{fill:#0595DB;}
	.st1{fill:#333333;}
	.st2{fill:#FFFFFF;}
</style>
  <title>Mendix Logo</title>
<g id="Layer_1">
</g>
<g id="Layer_2">
	<path class="st0" d="M161.5,186.1l-135.8,0C12.1,186.1,1,175,1,161.4L1,25.6C1,12,12.1,0.9,25.7,0.9l135.8,0
		c13.6,0,24.7,11.1,24.7,24.7l0,135.8C186.3,175,175.1,186.1,161.5,186.1z"/>
	<g>
		<polygon class="st1" points="598,60 578.1,60 570.6,75.1 563.1,60 543.2,60 560.2,93.5 543.2,127 563.1,127 570.6,111.9 
			578.1,127 598,127 581,93.5 		"/>
	</g>
	<path class="st1" d="M355.6,109.5c-0.1,2.8-2.3,5.1-5.1,6c-0.1,0-0.2,0-0.3,0.1c-0.7,0.2-1.4,0.3-2.1,0.3c-4,0-6.9-1.9-7.5-6.3
		c-0.6-4.5-0.6-12.9-0.6-12.9l35.4,0c0-5.2,0.4-10-0.1-14.5c-0.5-4.4-1.7-8.3-3.5-11.5c-1.9-3.2-4.7-5.8-8.4-7.7
		c-3.7-1.9-8.8-2.8-15.1-2.8c-6.2,0-11.2,0.9-14.8,2.6c-3.7,1.8-6.4,4.1-8.3,7.1c-1.9,3-3.1,6.5-3.6,10.4c-0.5,4-0.8,8.2-0.8,12.6
		c0,5,0.3,9.7,0.9,13.9c0.6,4.2,1.8,7.9,3.7,10.9c1.9,3,4.7,5.4,8.3,7.1c3.6,1.7,8.5,2.6,14.6,2.6c4.4,0,8.3-0.6,11.6-1.7
		c3.3-1.1,6.1-2.6,8.3-4.6c4.5-3.9,7.2-8.9,7.2-14.3h-19.8C355.6,106.7,355.7,107.6,355.6,109.5z M340.7,78.5c0.4-4,3.4-7.2,7.5-7.2
		c4.1,0,7.1,2.6,7.5,7.2c0.3,4.1,0.2,4.5,0.1,8h-15.6C340.4,81.3,340.4,81.4,340.7,78.5z"/>
	<path class="st1" d="M310.2,68.2c-1-1.7-2.3-3.2-3.9-4.4c-1.6-1.2-3.5-2.1-5.6-2.8c-2.2-0.6-4.4-1-6.8-1c-4.1,0-7.7,0.7-10.6,2
		c-2.9,1.3-5.5,3.4-7.9,6.2c-1.6-2.6-3.8-4.6-6.5-6c-2.7-1.4-5.9-2.2-9.4-2.2c-3.8,0-7,0.6-9.7,1.7c-2.7,1.2-5.1,3.2-7,6.1h-0.3
		l0-7.8l-19.9,0l0,66.9h19.9l0-44.6c0-0.1,0-0.3,0-0.4v-3.2h0c0-4,3.4-7.2,7.5-7.2s7.4,3.2,7.5,7.2h0v3.3h0c0,0.1,0,0.2,0,0.3
		l0,44.6l19.4,0h0.4l0-33.8V83v-0.8v-2.8v-0.5h0c0-4,3.4-7.2,7.5-7.2c4.1,0,7.4,3.2,7.5,7.2h0v3.3l0,44.8h19.9l0-33.8V83V78l0-2.9
		C312.1,72.9,311.2,70,310.2,68.2z"/>
	<path class="st2" d="M166.6,60h-19.9l-7.5,15.1L131.7,60h-19.9l17,33.5l-15.4,30.3V93.3V83V78v-2.9c0-2.2-0.9-5.2-1.9-6.9
		c-1-1.7-2.3-3.2-3.9-4.4c-1.6-1.2-3.5-2.1-5.6-2.8c-2.2-0.6-4.4-1-6.8-1c-4.1,0-7.7,0.7-10.6,2c-2.9,1.3-5.5,3.4-7.9,6.2
		c-1.6-2.6-3.8-4.6-6.5-6c-2.7-1.5-5.9-2.2-9.4-2.2c-3.8,0-7,0.6-9.7,1.7c-2.7,1.2-5.1,3.2-7,6.1h-0.3v-7.8H23.9V127h19.9V82.4
		c0-0.1,0-0.3,0-0.4v-3.2h0c0-4,3.4-7.2,7.5-7.2s7.4,3.2,7.5,7.2h0v3.3h0c0,0.1,0,0.2,0,0.3V127h19.4h0.4V93.3V83v-0.8v-2.8v-0.5h0
		c0-4,3.4-7.2,7.5-7.2s7.4,3.2,7.5,7.2h0v3.3l0,44.8h18.2v0h19.9l7.5-15.1l7.5,15.1h19.9l-17-33.5L166.6,60z"/>
	<path class="st1" d="M437.7,68.2c-1-1.7-2.3-3.2-3.9-4.4c-1.6-1.2-3.5-2.1-5.6-2.8c-2.2-0.6-4.4-1-6.8-1c-3.9,0-7.1,0.6-9.7,1.8
		c-2.8,1.2-5.2,3.2-7,6h-0.3v-7.8h-19.9l0,66.9l19.9,0l0-45.5c0-0.2,0-0.4,0-0.6v-2h0c0-4,3.4-7.2,7.5-7.2c4.1,0,7.4,3.2,7.5,7.2h0
		v2.6v0.7l0,44.8h19.9l0-52.8C439.2,72,438.7,70,437.7,68.2z"/>
	<g>
		<path class="st1" d="M502.8,50.2c0-9.3-7.8-17-17.8-17.9c-0.7-0.1-1.3-0.1-2-0.1v1.5v16.8v14.6c-1.7-1.8-3.5-3.1-5.5-3.9
			c-2.7-1.1-5.8-1.7-9.5-1.7c-5.1,0-9.1,1.1-11.8,3.4c-2.8,2.3-4.7,5.1-6,8.6c-1.2,3.4-1.9,7.2-2,11.2c-0.1,3.2-0.2,6.1-0.2,8.8h0
			c0,0.7,0,1.4,0,2.1c0,3.4,0.1,7.2,0.2,11.3c0.2,4.1,0.8,7.9,2,11.4c1.2,3.5,3.2,6.5,6,8.8c2.8,2.4,6.9,3.6,12.2,3.6
			c4,0,7.4-0.6,10.2-1.9c1.6-0.7,3-1.7,4.3-3.1l0,3.4h3.1h16.8l0-52.7l0-16.1v-7.7h0C502.8,50.4,502.8,50.3,502.8,50.2z M483,81.9
			v25.2v0.9v0.5l0,2.1c-0.2,2.9-2.2,5.3-5,6.2c-0.7,0.3-1.4,0.4-2.2,0.4c0,0-0.1,0-0.1,0c0,0-0.1,0-0.1,0c0,0-9.4,1.8-9.4-23.1
			c0-11.9,2.2-17.7,4.4-20.5c0.2-0.3,0.5-0.6,0.7-0.9c0.4-0.4,0.8-0.7,1.2-0.8c1.7-1.1,3.1-0.8,3.1-0.8c1.3,0,2.5,0.4,3.6,1
			c0.1,0,0.1,0.1,0.2,0.1c2.2,1.3,3.7,3.7,3.7,6.5c0,0.3,0,0.5,0,0.8V81.9z"/>
	</g>
	<g>
		<path class="st1" d="M534.8,80.8l0,46.2l-19.9,0l0-67h19.9v6.8V80.8z"/>
		<path class="st1" d="M531.7,50.2h-13.6c-1.7,0-3.1-1.4-3.1-3.1V35.3c0-1.7,1.4-3.1,3.1-3.1l13.6,0c1.7,0,3.1,1.4,3.1,3.1v11.8
			C534.8,48.8,533.4,50.2,531.7,50.2z"/>
	</g>
</g>
</svg>
