<svg version="1.1" id="Layer_1" xmlns="http://www.w3.org/2000/svg" xmlns:xlink="http://www.w3.org/1999/xlink" x="0px" y="0px" viewBox="0 0 1061.54 298.63" style="enable-background:new 0 0 1061.54 298.63;" xml:space="preserve">
				<g>
					<path class="st0" d="M1030.03,98.04c1.48,0.83,2.64,1.96,3.48,3.39c0.84,1.42,1.27,2.98,1.27,4.67c0,1.69-0.42,3.24-1.27,4.66
		c-0.84,1.41-2.01,2.53-3.48,3.35c-1.48,0.82-3.11,1.23-4.9,1.23c-1.74,0-3.35-0.41-4.81-1.23c-1.47-0.82-2.62-1.94-3.47-3.35
		c-0.85-1.41-1.27-2.96-1.27-4.66c0-1.69,0.42-3.25,1.27-4.67c0.84-1.42,2-2.55,3.47-3.39c1.46-0.83,3.07-1.25,4.81-1.25
		C1026.92,96.79,1028.55,97.2,1030.03,98.04z M1029.04,112.6c1.15-0.64,2.05-1.53,2.69-2.66c0.65-1.14,0.97-2.41,0.97-3.84
		c0-1.42-0.32-2.71-0.97-3.86c-0.64-1.15-1.54-2.05-2.69-2.7c-1.15-0.65-2.46-0.98-3.92-0.98c-1.42,0-2.69,0.33-3.83,0.98
		c-1.14,0.65-2.03,1.55-2.67,2.7c-0.65,1.15-0.97,2.43-0.97,3.86c0,1.43,0.32,2.7,0.97,3.84c0.64,1.13,1.53,2.02,2.67,2.66
		c1.14,0.64,2.41,0.96,3.83,0.96C1026.59,113.56,1027.89,113.24,1029.04,112.6z M1028.57,105.75c-0.46,0.47-1.05,0.81-1.78,1.03
		l2.8,4.17h-2.54l-2.31-3.84h-0.91v3.84h-2.16v-10h2.95c3.08,0,4.62,1.01,4.62,3.04C1029.25,104.7,1029.03,105.28,1028.57,105.75z
		 M1023.84,105.52h1.14c1.37,0,2.05-0.51,2.05-1.52c0-0.51-0.17-0.87-0.51-1.1c-0.34-0.23-0.88-0.34-1.61-0.34h-1.06V105.52z"></path>
					<path class="st0" d="M350.59,128.19c-0.62,0.6-1.37,0.89-2.25,0.89h-26.98c-0.88,0-1.32,0.42-1.32,1.27v61.31
		c0,6.45,1.46,11.11,4.36,13.99c2.91,2.89,7.54,4.32,13.89,4.32h7.94c0.88,0,1.63,0.3,2.25,0.89c0.62,0.6,0.93,1.32,0.93,2.16v19.08
		c0,1.87-1.06,2.97-3.17,3.31l-13.76,0.25c-13.93,0-24.34-2.29-31.21-6.87s-10.41-13.23-10.58-25.95v-72.5
		c0-0.85-0.44-1.27-1.32-1.27h-15.08c-0.88,0-1.63-0.29-2.25-0.89c-0.62-0.59-0.93-1.31-0.93-2.16v-17.81
		c0-0.85,0.31-1.57,0.93-2.16c0.62-0.59,1.36-0.89,2.25-0.89h15.08c0.88,0,1.32-0.42,1.32-1.27V74.13c0-0.85,0.31-1.57,0.93-2.16
		c0.62-0.59,1.36-0.89,2.25-0.89h23.01c0.88,0,1.63,0.3,2.25,0.89c0.62,0.6,0.93,1.32,0.93,2.16v29.76c0,0.85,0.44,1.27,1.32,1.27
		h26.98c0.88,0,1.63,0.3,2.25,0.89c0.62,0.6,0.93,1.32,0.93,2.16v17.81C351.51,126.88,351.2,127.6,350.59,128.19z"></path>
					<path class="st0" d="M471.92,169.79l-0.26,7.89c0,2.04-1.06,3.05-3.17,3.05h-82.8c-0.88,0-1.32,0.43-1.32,1.27
		c0.53,5.6,1.32,9.41,2.38,11.45c4.23,12.21,14.55,18.4,30.95,18.57c11.99,0,21.51-4.75,28.57-14.25c0.7-1.02,1.59-1.53,2.65-1.53
		c0.7,0,1.32,0.25,1.85,0.76l16.4,12.97c1.59,1.19,1.85,2.54,0.79,4.07c-5.47,7.46-12.74,13.23-21.82,17.3
		c-9.08,4.07-19.18,6.11-30.29,6.11c-13.76,0-25.44-2.97-35.05-8.9c-9.61-5.93-16.62-14.25-21.03-24.93
		c-4.06-9.16-6.08-21.88-6.08-38.16c0-9.83,1.06-17.81,3.17-23.91c3.53-11.87,10.18-21.24,19.97-28.11
		c9.79-6.87,21.56-10.3,35.31-10.3c34.74,0,54.31,17.47,58.72,52.41C471.57,159.78,471.92,164.53,471.92,169.79z M395.87,133.28
		c-4.32,3.14-7.37,7.5-9.13,13.1c-1.06,2.89-1.77,6.61-2.12,11.19c-0.36,0.85,0,1.27,1.06,1.27h53.7c0.88,0,1.32-0.42,1.32-1.27
		c-0.36-4.24-0.88-7.46-1.59-9.67c-1.59-6.11-4.72-10.85-9.39-14.25c-4.67-3.39-10.54-5.09-17.59-5.09
		C405.61,128.57,400.19,130.14,395.87,133.28z"></path>
					<path class="st0" d="M582.6,115.34c8.55,8.14,12.83,19.25,12.83,33.33v83.44c0,0.85-0.31,1.57-0.93,2.16
		c-0.62,0.6-1.37,0.89-2.25,0.89h-24.34c-0.88,0-1.63-0.29-2.25-0.89c-0.62-0.59-0.93-1.31-0.93-2.16v-77.34
		c0-7.8-2.29-14.12-6.88-18.95c-4.59-4.83-10.67-7.25-18.25-7.25c-7.58,0-13.71,2.38-18.38,7.12c-4.67,4.75-7.01,11.03-7.01,18.83
		v77.59c0,0.85-0.31,1.57-0.93,2.16c-0.62,0.6-1.37,0.89-2.25,0.89h-24.34c-0.88,0-1.63-0.29-2.25-0.89
		c-0.62-0.59-0.93-1.31-0.93-2.16V108.22c0-0.85,0.31-1.57,0.93-2.16c0.62-0.59,1.36-0.89,2.25-0.89h24.34
		c0.88,0,1.63,0.3,2.25,0.89c0.62,0.6,0.93,1.32,0.93,2.16v8.14c0,0.51,0.17,0.85,0.53,1.02c0.35,0.17,0.62,0,0.79-0.51
		c7.23-9.16,18.16-13.74,32.8-13.74C562.62,103.13,574.04,107.2,582.6,115.34z"></path>
					<path class="st0" d="M696.02,108.73c8.46,3.73,14.99,8.86,19.57,15.39c4.58,6.53,6.88,13.95,6.88,22.26v85.73
		c0,0.85-0.31,1.57-0.93,2.16c-0.62,0.6-1.37,0.89-2.25,0.89h-24.34c-0.88,0-1.63-0.29-2.25-0.89c-0.62-0.59-0.93-1.31-0.93-2.16
		v-8.14c0-0.51-0.18-0.8-0.53-0.89c-0.36-0.08-0.71,0.04-1.06,0.38c-8.64,9.16-21.16,13.74-37.56,13.74
		c-13.23,0-24.12-3.22-32.67-9.67c-8.56-6.44-12.83-16.03-12.83-28.75c0-13.23,4.8-23.53,14.42-30.91
		c9.61-7.38,23.15-11.07,40.6-11.07h28.3c0.88,0,1.32-0.42,1.32-1.27v-6.11c0-6.61-2.03-11.74-6.08-15.39
		c-4.06-3.65-10.14-5.47-18.25-5.47c-6.7,0-12.13,1.14-16.27,3.43c-4.15,2.29-6.75,5.47-7.8,9.54c-0.53,2.04-1.77,2.89-3.7,2.54
		l-25.66-3.05c-0.88-0.17-1.63-0.46-2.25-0.89c-0.62-0.42-0.84-0.97-0.66-1.65c1.41-10.34,7.18-18.83,17.33-25.44
		c10.14-6.61,22.88-9.92,38.22-9.92C677.77,103.13,687.56,105,696.02,108.73z M681.53,207.18c6.17-4.41,9.26-10.01,9.26-16.79
		v-11.96c0-0.85-0.44-1.27-1.32-1.27h-22.22c-9.35,0-16.71,1.7-22.09,5.09c-5.38,3.39-8.07,8.23-8.07,14.5
		c0,5.43,2.07,9.63,6.22,12.59c4.14,2.97,9.48,4.45,16,4.45C667.95,213.8,675.36,211.6,681.53,207.18z"></path>
					<path class="st0" d="M852.89,169.79c0,12.04-1.68,22.64-5.03,31.8c-3.88,11.19-10.14,19.93-18.78,26.2
		c-8.64,6.28-19.22,9.41-31.74,9.41c-12.35,0-22.48-4.49-30.42-13.48c-0.36-0.51-0.71-0.68-1.06-0.51
		c-0.36,0.17-0.53,0.51-0.53,1.02v7.89c0,0.85-0.31,1.57-0.93,2.16c-0.62,0.6-1.37,0.89-2.25,0.89h-24.34
		c-0.88,0-1.63-0.29-2.25-0.89c-0.62-0.59-0.93-1.31-0.93-2.16V60.14c0-0.85,0.31-1.57,0.93-2.16c0.62-0.59,1.36-0.89,2.25-0.89
		h24.34c0.88,0,1.63,0.3,2.25,0.89c0.62,0.6,0.93,1.32,0.93,2.16v55.2c0,0.51,0.17,0.85,0.53,1.02c0.35,0.17,0.7,0.09,1.06-0.25
		c7.58-8.65,17.63-12.97,30.16-12.97c13.05,0,23.85,3.14,32.4,9.41c8.55,6.28,14.86,15.01,18.91,26.2
		C851.39,148.25,852.89,158.59,852.89,169.79z M821.41,170.29c0-13.23-2.65-23.57-7.94-31.04c-4.76-7.12-11.82-10.68-21.16-10.68
		c-8.64,0-15.26,3.73-19.84,11.19c-4.41,6.96-6.61,17.04-6.61,30.27c0,13.06,2.03,22.9,6.08,29.51
		c4.58,8.14,11.46,12.21,20.63,12.21c4.93,0,9.34-1.06,13.23-3.18c3.88-2.12,6.96-5.13,9.26-9.03
		C819.29,192.43,821.41,182.68,821.41,170.29z"></path>
					<path class="st0" d="M865.56,234.47c-0.62-0.59-0.93-1.31-0.93-2.16V60.34c0-0.85,0.31-1.57,0.93-2.16
		c0.62-0.59,1.36-0.89,2.25-0.89h24.34c0.88,0,1.63,0.3,2.25,0.89c0.62,0.6,0.93,1.32,0.93,2.16v171.97c0,0.85-0.31,1.57-0.93,2.16
		c-0.62,0.6-1.37,0.89-2.25,0.89H867.8C866.92,235.36,866.17,235.07,865.56,234.47z"></path>
					<path class="st0" d="M1025.42,169.59l-0.26,7.89c0,2.04-1.06,3.05-3.17,3.05h-82.8c-0.88,0-1.32,0.43-1.32,1.27
		c0.53,5.6,1.32,9.41,2.38,11.45c4.23,12.21,14.55,18.4,30.95,18.57c11.99,0,21.51-4.75,28.57-14.25c0.7-1.02,1.59-1.53,2.64-1.53
		c0.7,0,1.32,0.25,1.85,0.76l16.4,12.97c1.59,1.19,1.85,2.54,0.79,4.07c-5.47,7.46-12.74,13.23-21.82,17.3
		c-9.08,4.07-19.18,6.11-30.29,6.11c-13.75,0-25.44-2.97-35.05-8.9c-9.61-5.93-16.62-14.25-21.03-24.93
		c-4.06-9.16-6.08-21.88-6.08-38.16c0-9.83,1.06-17.81,3.17-23.91c3.53-11.87,10.18-21.24,19.97-28.11
		c9.79-6.87,21.56-10.3,35.31-10.3c34.74,0,54.31,17.47,58.72,52.41C1025.06,159.59,1025.42,164.34,1025.42,169.59z M949.37,133.08
		c-4.32,3.14-7.37,7.5-9.13,13.1c-1.06,2.89-1.76,6.61-2.12,11.19c-0.36,0.85,0,1.27,1.06,1.27h53.7c0.88,0,1.32-0.42,1.32-1.27
		c-0.36-4.24-0.88-7.46-1.59-9.67c-1.59-6.11-4.72-10.85-9.39-14.25c-4.67-3.39-10.54-5.09-17.59-5.09
		C959.11,128.38,953.69,129.95,949.37,133.08z"></path>
					<path class="st0" d="M255.2,161.59l-30.59-90.84c-2.21-6.56-7.81-11.47-14.61-12.79l-95.48-18.63c-6.66-1.3-13.6,1.04-18.11,6.1
		l-64.76,72.58c-4.61,5.17-6.1,12.46-3.89,19.02l30.59,90.84c2.21,6.57,7.81,11.47,14.61,12.79l95.48,18.63
		c1.22,0.24,2.44,0.35,3.66,0.35c5.45,0,10.76-2.32,14.45-6.45l64.76-72.58C255.92,175.45,257.41,168.16,255.2,161.59z M218.24,72.9
		l20.12,59.74L195.6,65.18c-0.92-1.46-2.05-2.74-3.32-3.83l16.45,3.21C213.15,65.42,216.8,68.62,218.24,72.9z M186.72,230.45
		l-37.27,1.89l60.29-34.9c0.09-0.05,0.18-0.11,0.27-0.17l-14.51,27.57C193.78,228.12,190.41,230.27,186.72,230.45z M93.05,229.86
		l-21.06-33.22c0.4,0.29,0.81,0.56,1.24,0.81L134,232.63c0.28,0.16,0.57,0.32,0.86,0.46l-32.39,1.64
		C98.68,234.91,95.07,233.05,93.05,229.86z M96.24,68.18l37.27-1.89l-60.28,34.9c-0.09,0.05-0.18,0.11-0.27,0.17l14.51-27.57
		C89.19,70.51,92.55,68.37,96.24,68.18z M189.92,68.78l21.06,33.22c-0.4-0.29-0.81-0.56-1.24-0.81l-60.77-35.17
		c-0.28-0.16-0.57-0.32-0.86-0.46l32.39-1.64C184.27,63.7,187.89,65.58,189.92,68.78z M210.47,184.52c0,2.92-1.57,5.65-4.1,7.12
		l-60.77,35.17c-2.54,1.47-5.7,1.47-8.24,0L76.6,191.63c-2.53-1.47-4.1-4.19-4.1-7.12v-70.4c0-2.92,1.57-5.65,4.1-7.12l60.77-35.17
		c1.27-0.74,2.69-1.1,4.12-1.1c1.42,0,2.85,0.37,4.12,1.1L206.37,107c2.53,1.46,4.1,4.19,4.1,7.12V184.52z M66.03,187.23
		l-17.65-27.85c-2.01-3.17-2.17-7.21-0.42-10.53L65.77,115v69.51C65.77,185.44,65.86,186.34,66.03,187.23z M216.94,111.4
		l17.65,27.85c2.01,3.17,2.17,7.21,0.42,10.53l-17.82,33.85v-69.51C217.19,113.2,217.1,112.29,216.94,111.4z M101.44,49.91
		c2.41-2.7,5.87-4.21,9.42-4.21c0.79,0,1.59,0.08,2.39,0.23l59.61,11.63l-76.95,3.9c-2.13,0.11-4.18,0.62-6.08,1.46L101.44,49.91z
		 M36.67,122.49L79.5,74.5l-37.49,71.23c-1.13,2.14-1.76,4.47-1.93,6.82l-5.94-17.65C32.69,130.61,33.67,125.86,36.67,122.49z
		 M64.72,225.73l-20.12-59.74l42.76,67.46c0.92,1.45,2.05,2.74,3.32,3.83l-16.44-3.21C69.81,233.21,66.17,230.01,64.72,225.73z
		 M181.53,248.73c-2.94,3.3-7.47,4.83-11.81,3.98l-59.61-11.63l76.95-3.9c2.13-0.11,4.18-0.62,6.08-1.46L181.53,248.73z
		 M246.29,176.14l-42.82,48l37.49-71.23c1.13-2.14,1.76-4.47,1.93-6.82l5.94,17.65C250.27,168.02,249.3,172.77,246.29,176.14z"></path></g>
			</svg>