<svg xmlns="http://www.w3.org/2000/svg" xmlns:xlink="http://www.w3.org/1999/xlink" id="logo-full" x="0px" y="0px" viewBox="0 0 500 265" style="enable-background:new 0 0 500 265;" xml:space="preserve"><style xmlns="http://www.w3.org/2000/svg">.st0{fill:#0c77bd;}</style><g> <path class="st0" d="M342.3,45.2c0,0,17-10,44.3-19.8c14.6-5.2,29.2-7.8,39.6-9.1c-5.8-1.7-11.3-3.2-15.4-4.3 c-13-3.6-31.8-8-47.6-10.4c-0.7,3.8-2.6,9.9-7.1,18.7C349.9,32.3,342.3,45.2,342.3,45.2z"></path> <g> <path class="st1" d="M0,117h22.5v48.3L63.1,117h27.7L44.6,170l48.1,59.3H63.3l-40.4-52.1h-0.3v52.1H0V117z"></path> <path class="st1" d="M101.4,150.8c8.4-3.9,19.6-6.3,28.8-6.3c25.3,0,35.7,10.5,35.7,34.9V190c0,8.4,0.2,14.6,0.3,20.7 c0.2,6.3,0.5,12.1,1,18.5h-19c-0.8-4.3-0.8-9.8-1-12.4h-0.3c-5,9.2-15.8,14.3-25.6,14.3c-14.6,0-29-8.8-29-24.6 c0-12.4,6-19.6,14.2-23.6c8.2-4,18.8-4.8,27.8-4.8h11.9c0-13.4-6-17.9-18.7-17.9c-9.2,0-18.3,3.5-25.6,9L101.4,150.8z M126.7,215.5c6.6,0,11.7-2.9,15.1-7.4c3.5-4.7,4.5-10.6,4.5-17.1H137c-9.7,0-24,1.6-24,14.3C113,212.4,118.9,215.5,126.7,215.5z"></path> <path class="st1" d="M230,163.8c-6.6-2.2-11.4-3.5-19.3-3.5c-5.8,0-12.7,2.1-12.7,9.2c0,13.2,37.5,4.8,37.5,34.7 c0,19.3-17.2,27-34.8,27c-8.2,0-16.6-1.5-24.5-3.5l1.3-17.7c6.8,3.4,13.8,5.5,21.3,5.5c5.5,0,14.2-2.1,14.2-10.1 c0-16.2-37.5-5.2-37.5-35.1c0-17.9,15.6-25.7,32.5-25.7c10.1,0,16.7,1.6,23.5,3.1L230,163.8z"></path> <path class="st1" d="M313.4,224.6c-7.9,4.3-16.9,6.6-28.5,6.6c-27.4,0-43.3-15.8-43.3-42.9c0-24,12.7-43.8,38.5-43.8 c30.7,0,39.4,21.1,39.4,50h-57.3c1,13.3,10.3,20.9,23.7,20.9c10.5,0,19.5-3.9,27.5-8.4L313.4,224.6L313.4,224.6z M298.9,179.8 c-0.6-10.5-5.5-19.5-17.5-19.5c-12.1,0-18.2,8.4-19.2,19.5H298.9z"></path> <path class="st1" d="M362.6,206.9h0.3l19.9-60.5h21.9l-31.1,82.2c-6.9,18.3-11.9,36.3-34.4,36.3c-5.1,0-10.3-0.8-15.3-2.2 l1.4-15.9c2.7,1,5.8,1.4,11.1,1.4c8.7,0,14-5.9,14-14.8l-31.7-87h23.8L362.6,206.9z"></path> <path class="st1" d="M410.3,150.8c8.4-3.9,19.6-6.3,28.8-6.3c25.3,0,35.7,10.5,35.7,34.9V190c0,8.4,0.2,14.6,0.3,20.7 c0.2,6.3,0.5,12.1,1,18.5h-19c-0.8-4.3-0.8-9.8-1-12.4h-0.3c-5,9.2-15.8,14.3-25.6,14.3c-14.7,0-29-8.8-29-24.6 c0-12.4,6-19.6,14.2-23.6c8.2-4,18.8-4.8,27.8-4.8h11.9c0-13.4-6-17.9-18.7-17.9c-9.2,0-18.4,3.5-25.6,9L410.3,150.8z M435.5,215.5c6.6,0,11.7-2.9,15.1-7.4c3.5-4.7,4.5-10.6,4.5-17.1h-9.3c-9.7,0-24,1.6-24,14.3 C421.8,212.4,427.8,215.5,435.5,215.5z"></path> </g> <path class="st0" d="M334.7,59.2c-3.1,0.9-13.4,27.5-18.7,42.2c9.7,6.7,19.7,12.7,29,16.7c18.7,8.2,24.5,4.8,36.1-0.4 c8.3-3.7,21.3-12.5,32.7-20.8c-13.9-9.1-31.3-20.1-41.3-24.8C353.8,63.2,339.2,57.8,334.7,59.2z"></path> <path class="st0" d="M350.7,0.2c-14.3-1-16.5,2.3-19.3,4.2c-7.3,4-37.8,22.2-52.5,35c-14,12.2-11.6,19.8-5.1,27.4 c5.3,6.2,14.5,13.5,28.9,24.8c0.7,0.5,1.3,1,2,1.5c5.8-12.8,18.3-40.6,24.5-53.6C336.4,24.3,346.3,7.5,350.7,0.2z"></path> <path class="st0" d="M475.7,32.2c-5-2.6-9.4-4-13.3-5.3c-2-0.6-7.1-2.1-13.5-4c-11.4,1.5-30.3,4.3-48.6,8.7 c-19,4.5-50.8,20-50.8,20s40.3,13,78,34.9c1.3-1,2.4-1.9,3.5-2.8c11.7-9.6,41.4-34.3,47.8-45C480.2,36,478.9,33.8,475.7,32.2z"></path> <g> <path class="st2" d="M476.2,148.1c0-6.5,5.3-11.9,11.9-11.9s11.9,5.3,11.9,11.9c0,6.6-5.3,11.9-11.9,11.9S476.2,154.7,476.2,148.1 z M497.1,148.1c0-5.6-4-9.6-9-9.6c-5,0-9,4-9,9.6c0,5.6,4,9.6,9,9.6C493.1,157.7,497.1,153.7,497.1,148.1z M483.5,141.3h5 c3.2,0,5,1.1,5,3.9c0,2.3-1.3,3.4-3.5,3.6l3.6,5.9H491l-3.5-5.8H486v5.8h-2.5V141.3z M486,147.1h2.2c1.5,0,2.8-0.2,2.8-2 c0-1.6-1.5-1.8-2.7-1.8H486V147.1z"></path> </g> </g> </svg>