<svg version="1.1" id="Layer_1" xmlns:x="ns_extend;" xmlns:i="ns_ai;" xmlns:graph="ns_graphs;" xmlns="http://www.w3.org/2000/svg" xmlns:xlink="http://www.w3.org/1999/xlink" x="0px" y="0px" viewBox="0 0 234.1 77" style="enable-background:new 0 0 234.1 77;" xml:space="preserve">
 <style type="text/css">
  .st0{fill:#00347B;}
	.st1{fill:#003465;}
	.st2{fill:#0095FF;}
 </style>
 <metadata>
  <sfw xmlns="ns_sfw;">
   <slices>
   </slices>
   <sliceSourceBounds bottomLeftOrigin="true" height="77" width="234.1" x="-254.7" y="-206.5">
   </sliceSourceBounds>
  </sfw>
 </metadata>
 <g>
  <polygon class="st0" points="89.9,0.3 103.5,0.3 103.5,1.7 97.5,1.7 97.5,17.3 95.9,17.3 95.9,1.7 89.9,1.7 	">
  </polygon>
  <polygon class="st0" points="105,0.3 106.7,0.3 106.7,7.7 116.8,7.7 116.8,0.3 118.4,0.3 118.4,17.3 116.8,17.3 116.8,9.1 
		106.7,9.1 106.7,17.3 105,17.3 	">
  </polygon>
  <polygon class="st0" points="121.9,0.3 133.6,0.3 133.6,1.7 123.5,1.7 123.5,7.8 133,7.8 133,9.2 123.5,9.2 123.5,15.9 133.7,15.9 
		133.7,17.3 121.8,17.3 	">
  </polygon>
  <polygon class="st0" points="89.9,59.6 100.8,59.6 100.8,61 91.6,61 91.6,67.1 99.7,67.1 99.7,68.5 91.6,68.5 91.6,76.6 89.9,76.6 
			">
  </polygon>
  <path class="st0" d="M109.9,75.6c4.5,0,6.4-3.8,6.4-7.5s-1.9-7.5-6.4-7.5c-4.5,0-6.4,3.8-6.4,7.5S105.4,75.6,109.9,75.6
		 M109.9,59.3c5.3,0,8,4.2,8,8.9s-2.7,8.9-8,8.9c-5.4,0-8.1-4.2-8.1-8.9S104.5,59.3,109.9,59.3">
  </path>
  <path class="st0" d="M120.3,59.6h1.6v10.6c0,3.9,1.8,5.5,5,5.5c3.2,0,5-1.5,5-5.5V59.6h1.6v10.9c0,3.5-1.9,6.5-6.6,6.5
		c-4.7,0-6.6-3-6.6-6.5V59.6z">
  </path>
  <polygon class="st0" points="136.8,59.6 138.6,59.6 148.5,74 148.5,74 148.5,59.6 150.2,59.6 150.2,76.6 148.4,76.6 138.4,62.2 
		138.4,62.2 138.4,76.6 136.8,76.6 	">
  </polygon>
  <path class="st0" d="M155.2,75.3h3.5c4.9,0,7-2,7-7.1s-2.1-7.1-7-7.1h-3.5V75.3z M153.6,59.6h5.9c5.2,0.1,7.8,2.9,7.8,8.5
		c0,5.6-2.7,8.4-7.8,8.5h-5.9V59.6z">
  </path>
  <path class="st0" d="M172.4,70h6.7l-3.3-8.7L172.4,70z M174.9,59.6h1.8l6.7,17h-1.7l-2.1-5.3h-7.7l-2.1,5.3H168L174.9,59.6z">
  </path>
  <polygon class="st0" points="181.5,59.6 195,59.6 195,61 189.1,61 189.1,76.6 187.5,76.6 187.5,61 181.5,61 	">
  </polygon>
  <rect x="196.8" y="59.6" class="st0" width="1.6" height="17">
  </rect>
  <path class="st0" d="M209.1,75.6c4.5,0,6.4-3.8,6.4-7.5s-1.9-7.5-6.4-7.5c-4.5,0-6.4,3.8-6.4,7.5S204.5,75.6,209.1,75.6
		 M209.1,59.3c5.3,0,8,4.2,8,8.9s-2.7,8.9-8,8.9c-5.4,0-8.1-4.2-8.1-8.9S203.7,59.3,209.1,59.3">
  </path>
  <polygon class="st1" points="219.6,59.6 221.4,59.6 231.3,74 231.4,74 231.4,59.6 233,59.6 233,76.6 231.2,76.6 221.2,62.2 
		221.2,62.2 221.2,76.6 219.6,76.6 	">
  </polygon>
  <polygon class="st0" points="89.9,22.4 99.3,22.4 99.3,45.1 112.8,45.1 112.8,52.9 89.9,52.9 	">
  </polygon>
  <rect x="119" y="22.4" class="st0" width="9.4" height="30.5">
  </rect>
  <polygon class="st0" points="135.4,22.4 145,22.4 153.8,38.7 153.9,38.7 153.9,22.4 162.8,22.4 162.8,52.9 153.7,52.9 144.3,36.2 
		144.2,36.2 144.2,52.9 135.4,52.9 	">
  </polygon>
  <path class="st0" d="M197.5,41.1c0,8.5-4.5,12.5-13.9,12.5c-9.4,0-13.9-4-13.9-12.5V22.4h9.4V39c0,3.1,0,7,4.6,7
		c4.4,0,4.4-3.9,4.4-7V22.4h9.4L197.5,41.1L197.5,41.1z">
  </path>
  <polygon class="st0" points="212.5,36.7 202.4,22.4 213.4,22.4 218.1,30.7 222.6,22.4 233,22.4 223.2,36.8 234.1,52.9 222.8,52.9 
		217.6,43.8 212.2,52.9 201.5,52.9 	">
  </polygon>
  <polygon class="st2" points="15.4,61.3 15.4,30.7 0,30.7 0,76.6 46,76.6 46,61.3 	">
  </polygon>
  <polygon class="st0" points="76.6,0 0,0 0,23 15.3,23 15.3,15.4 61.3,15.4 61.3,61.3 53.7,61.3 53.7,76.6 76.6,76.6 	">
  </polygon>
 </g>
</svg>