<?xml version="1.0" encoding="UTF-8"?>
<svg xmlns="http://www.w3.org/2000/svg" xmlns:xlink="http://www.w3.org/1999/xlink" version="1.1" id="Ebene_1" x="0px" y="0px" viewBox="0 0 445 379" style="enable-background:new 0 0 445 379;" xml:space="preserve"> <style type="text/css"> .st0{fill:#11AB51;} .st1{fill:#87D050;} .st2{fill:#171717;} .st3{fill:#FFFFFF;} .st4{fill:#49BE7A;} </style> <g> <g id="Gb_logo_vertikal"> <g id="Gb_New_logo_vertikal_rgb" transform="translate(-28.2 -26.6)"> <g id="Group_8"> <path id="Path_82" class="st0" d="M373.7,200.1L373.7,200.1v0.2l0,0c-0.9,6.1-4.3,11.5-11.2,12.3c-5.8,0-8.9-5-5.6-9.1 c1.2-1.4,1.9-5.5,1.7-9c-0.2-3.4,0.4-6.7,1.9-9.8c0.1-0.3,0.3-0.5,0.5-0.8c6.4-7,11.9,0.7,12.9,9.8 C374,195.8,374,198,373.7,200.1z"></path> <path id="Path_83" class="st0" d="M358.8,171.5c-1.7,1.3-3.2,2.8-4.5,4.5c-1.9,2.4-0.8,1.5-8-1.8c-6.5-0.4-9.1-4.6-6.4-14.4 c0.3-1.1,0.6-2,0.8-2.8c2.4-6.4,4.8-4.6,9.7-2.1c2.4,1.3,4.9,2.3,7.5,3.1C362.5,159.4,363.1,168.9,358.8,171.5z"></path> <path id="Path_84" class="st0" d="M296.6,270.2c-22.9,15.1-51.6,44.1-80.8,38.3c-6.1-2.4-8-5.7-4.1-6.3c0.5-0.1,0.9-0.1,1.4-0.1 c17.2-8.2,61.2-42.8,79.6-56.5c5-4.6,8.6-6.9,8.6-16.2c0-12.1-6.5-25.4-12.3-25.4c-2.4,0-2.9-1.1-1.8-3.7 c1.9-4.7,2.8-7.6,2.4-9.9c-0.3-2.3-1.8-4-4.4-6.6c-7.2-6.5-8.1-21.7-1.7-27.4c4.5-4,26.1-12,32.4-12c4.7,0,7.6,7.8,5.6,15.6 c-1.1,4.3,0.3,5.9,8.8,10.9c5,2.9,9.8,6.1,14.2,9.8C366.1,214.5,323.6,251.4,296.6,270.2z"></path> <path id="Path_85" class="st0" d="M337.3,142.4c-0.8,0.6-1.5,1.4-2,2.3c-1.6,2.4-2.5,5.1-2.7,7.9c-0.5,10.9-2.6,9.8-3.7-1.8 c-0.5-6-1.5-11.4-2.2-11.9s-6.6-1.7-13.2-2.4c-11.4-1.2-12.8-0.8-24.3,7.1c-20.4,13.8-23.9,23.7-13,37.8 c3.2,4.1,5.8,8.9,5.8,10.8c0,2.9-7.6,8.6-20.5,15.3c-15.1,11.9-20.5,33.5-42.4,37c-8.7,2.9-18,6.4-20.7,7.7 c-10.3,7.7-13.4,18.7-20.7,28.2c-20.9,13.8-47.5-3.5-57.8-30.8c-0.7-1.9-1.3-3.7-1.9-5.6c34.7-82.2,76.6-121.3,146-169.1 c0.7,0-0.8,8.6-2.6,12.1c-0.3,0.8-0.7,1.4-1,2.1l0,0c-2.1,5.1-1.3,8.5,2.2,8.5c0.3,0,0.5,0,0.8-0.1c4.3-1.2,6.8-12.9,11.4-50.6 c0.9-7.4,1.2-8.8,3.6-6.9c0.4,0.3,1,0.8,1.6,1.3c5.5,5.6,7.6,13.1,12.5,19.3c10.9,16.4,13.3,23.8,13.3,42.5 c0,14.2,2.3,20.7,6,17c0.8-0.7,1.5-5.8,1.8-11.4c0.3-6.8-0.7-17.2,1.3-17.2c0.9,0,2.5,1.6,4.4,4c5.9,7.7,14.5,24.2,14.5,28.8 c0,2.7,1.9,7.1,4,9.8C341.6,138.8,341.6,139,337.3,142.4z"></path> <path id="Path_86" class="st0" d="M244.7,84.7c-2,0-1.9-10.3,0.2-28.8l1.4-12.8l4.7,9.8c2.6,5.4,6.2,11,8.2,12.6 C263.7,72.8,250.2,80.5,244.7,84.7z"></path> </g> <path id="Path_87" class="st1" d="M213.9,107.4c-1.1,0.8-2.1,1.8-3.2,2.6c0.8-0.8,1.5-1.4,2.7-2.4 C213.5,107.5,213.7,107.4,213.9,107.4z"></path> <path id="Path_88" class="st2" d="M154,220c-2.9-2.8-6.1-4.5-7.4-3.6c-2.6,1.7-7.2,14.3-7.2,19.9c0,4.3,2.3,5.1,5.5,2.1 c1.2-1.1,4.5-2.3,7.5-2.7C159.8,234.7,160.7,226.6,154,220z M234,127.3c-2.4,0-6.6-1.1-6.6-3.7c0-7.5-1.2-7.1-9,2 c-4.3,4.9-7.7,9.7-7.7,10.6c0,1-2.9,7.9-6.5,15.3c-6.5,13.4-8,20.5-5,23.5c0.9,0.8,2.9-0.1,4.4-2.1c13.9-9.8,28.8,12.2,43.7-26.6 C247.3,136.3,241,127.3,234,127.3z M216.4,167.6c-8.2,0-10.3-2.3-8.9-6.7c3.5-11.4,13.3-26.1,17.8-26.8 c8.2-1.2,13.5-3.2,16.6,7.8C244.9,152.9,230.7,167.5,216.4,167.6z M234,127.3c-2.4,0-6.6-1.1-6.6-3.7c0-7.5-1.2-7.1-9,2 c-4.3,4.9-7.7,9.7-7.7,10.6c0,1-2.9,7.9-6.5,15.3c-6.5,13.4-8,20.5-5,23.5c0.9,0.8,2.9-0.1,4.4-2.1c13.9-9.8,28.8,12.2,43.7-26.6 C247.3,136.3,241,127.3,234,127.3z M216.4,167.6c-8.2,0-10.3-2.3-8.9-6.7c3.5-11.4,13.3-26.1,17.8-26.8 c8.2-1.2,13.5-3.2,16.6,7.8C244.9,152.9,230.7,167.5,216.4,167.6z M154,220c-2.9-2.8-6.1-4.5-7.4-3.6c-2.6,1.7-7.2,14.3-7.2,19.9 c0,4.3,2.3,5.1,5.5,2.1c1.2-1.1,4.5-2.3,7.5-2.7C159.8,234.7,160.7,226.6,154,220z M154,220c-2.9-2.8-6.1-4.5-7.4-3.6 c-2.6,1.7-7.2,14.3-7.2,19.9c0,4.3,2.3,5.1,5.5,2.1c1.2-1.1,4.5-2.3,7.5-2.7C159.8,234.7,160.7,226.6,154,220z M234,127.3 c-2.4,0-6.6-1.1-6.6-3.7c0-7.5-1.2-7.1-9,2c-4.3,4.9-7.7,9.7-7.7,10.6c0,1-2.9,7.9-6.5,15.3c-6.5,13.4-8,20.5-5,23.5 c0.9,0.8,2.9-0.1,4.4-2.1c13.9-9.8,28.8,12.2,43.7-26.6C247.3,136.3,241,127.3,234,127.3z M216.4,167.6c-8.2,0-10.3-2.3-8.9-6.7 c3.5-11.4,13.3-26.1,17.8-26.8c8.2-1.2,13.5-3.2,16.6,7.8C244.9,152.9,230.7,167.5,216.4,167.6z M234,127.3 c-2.4,0-6.6-1.1-6.6-3.7c0-7.5-1.2-7.1-9,2c-4.3,4.9-7.7,9.7-7.7,10.6c0,1-2.9,7.9-6.5,15.3c-6.5,13.4-8,20.5-5,23.5 c0.9,0.8,2.9-0.1,4.4-2.1c13.9-9.8,28.8,12.2,43.7-26.6C247.3,136.3,241,127.3,234,127.3z M216.4,167.6c-8.2,0-10.3-2.3-8.9-6.7 c3.5-11.4,13.3-26.1,17.8-26.8c8.2-1.2,13.5-3.2,16.6,7.8C244.9,152.9,230.7,167.5,216.4,167.6z M154,220 c-2.9-2.8-6.1-4.5-7.4-3.6c-2.6,1.7-7.2,14.3-7.2,19.9c0,4.3,2.3,5.1,5.5,2.1c1.2-1.1,4.5-2.3,7.5-2.7 C159.8,234.7,160.7,226.6,154,220z M154,220c-2.9-2.8-6.1-4.5-7.4-3.6c-2.6,1.7-7.2,14.3-7.2,19.9c0,4.3,2.3,5.1,5.5,2.1 c1.2-1.1,4.5-2.3,7.5-2.7C159.8,234.7,160.7,226.6,154,220z M234,127.3c-2.4,0-6.6-1.1-6.6-3.7c0-7.5-1.2-7.1-9,2 c-4.3,4.9-7.7,9.7-7.7,10.6c0,1-2.9,7.9-6.5,15.3c-6.5,13.4-8,20.5-5,23.5c0.9,0.8,2.9-0.1,4.4-2.1c13.9-9.8,28.8,12.2,43.7-26.6 C247.3,136.3,241,127.3,234,127.3z M216.4,167.6c-8.2,0-10.3-2.3-8.9-6.7c3.5-11.4,13.3-26.1,17.8-26.8 c8.2-1.2,13.5-3.2,16.6,7.8C244.9,152.9,230.7,167.5,216.4,167.6z M234,127.3c-2.4,0-6.6-1.1-6.6-3.7c0-7.5-1.2-7.1-9,2 c-4.3,4.9-7.7,9.7-7.7,10.6c0,1-2.9,7.9-6.5,15.3c-6.5,13.4-8,20.5-5,23.5c0.9,0.8,2.9-0.1,4.4-2.1c13.9-9.8,28.8,12.2,43.7-26.6 C247.3,136.3,241,127.3,234,127.3z M216.4,167.6c-8.2,0-10.3-2.3-8.9-6.7c3.5-11.4,13.3-26.1,17.8-26.8 c8.2-1.2,13.5-3.2,16.6,7.8C244.9,152.9,230.7,167.5,216.4,167.6z M154,220c-2.9-2.8-6.1-4.5-7.4-3.6c-2.6,1.7-7.2,14.3-7.2,19.9 c0,4.3,2.3,5.1,5.5,2.1c1.2-1.1,4.5-2.3,7.5-2.7C159.8,234.7,160.7,226.6,154,220z M154,220c-2.9-2.8-6.1-4.5-7.4-3.6 c-2.6,1.7-7.2,14.3-7.2,19.9c0,4.3,2.3,5.1,5.5,2.1c1.2-1.1,4.5-2.3,7.5-2.7C159.8,234.7,160.7,226.6,154,220z M234,127.3 c-2.4,0-6.6-1.1-6.6-3.7c0-7.5-1.2-7.1-9,2c-4.3,4.9-7.7,9.7-7.7,10.6c0,1-2.9,7.9-6.5,15.3c-6.5,13.4-8,20.5-5,23.5 c0.9,0.8,2.9-0.1,4.4-2.1c13.9-9.8,28.8,12.2,43.7-26.6C247.3,136.3,241,127.3,234,127.3z M216.4,167.6c-8.2,0-10.3-2.3-8.9-6.7 c3.5-11.4,13.3-26.1,17.8-26.8c8.2-1.2,13.5-3.2,16.6,7.8C244.9,152.9,230.7,167.5,216.4,167.6z M234,127.3 c-2.4,0-6.6-1.1-6.6-3.7c0-7.5-1.2-7.1-9,2c-4.3,4.9-7.7,9.7-7.7,10.6c0,1-2.9,7.9-6.5,15.3c-6.5,13.4-8,20.5-5,23.5 c0.9,0.8,2.9-0.1,4.4-2.1c13.9-9.8,28.8,12.2,43.7-26.6C247.3,136.3,241,127.3,234,127.3z M216.4,167.6c-8.2,0-10.3-2.3-8.9-6.7 c3.5-11.4,13.3-26.1,17.8-26.8c8.2-1.2,13.5-3.2,16.6,7.8C244.9,152.9,230.7,167.5,216.4,167.6z M154,220 c-2.9-2.8-6.1-4.5-7.4-3.6c-2.6,1.7-7.2,14.3-7.2,19.9c0,4.3,2.3,5.1,5.5,2.1c1.2-1.1,4.5-2.3,7.5-2.7 C159.8,234.7,160.7,226.6,154,220z M154,220c-2.9-2.8-6.1-4.5-7.4-3.6c-2.6,1.7-7.2,14.3-7.2,19.9c0,4.3,2.3,5.1,5.5,2.1 c1.2-1.1,4.5-2.3,7.5-2.7C159.8,234.7,160.7,226.6,154,220z M234,127.3c-2.4,0-6.6-1.1-6.6-3.7c0-7.5-1.2-7.1-9,2 c-4.3,4.9-7.7,9.7-7.7,10.6c0,1-2.9,7.9-6.5,15.3c-6.5,13.4-8,20.5-5,23.5c0.9,0.8,2.9-0.1,4.4-2.1c13.9-9.8,28.8,12.2,43.7-26.6 C247.3,136.3,241,127.3,234,127.3z M216.4,167.6c-8.2,0-10.3-2.3-8.9-6.7c3.5-11.4,13.3-26.1,17.8-26.8 c8.2-1.2,13.5-3.2,16.6,7.8C244.9,152.9,230.7,167.5,216.4,167.6z M234,127.3c-2.4,0-6.6-1.1-6.6-3.7c0-7.5-1.2-7.1-9,2 c-4.3,4.9-7.7,9.7-7.7,10.6c0,1-2.9,7.9-6.5,15.3c-6.5,13.4-8,20.5-5,23.5c0.9,0.8,2.9-0.1,4.4-2.1c13.9-9.8,28.8,12.2,43.7-26.6 C247.3,136.3,241,127.3,234,127.3z M216.4,167.6c-8.2,0-10.3-2.3-8.9-6.7c3.5-11.4,13.3-26.1,17.8-26.8 c8.2-1.2,13.5-3.2,16.6,7.8C244.9,152.9,230.7,167.5,216.4,167.6z M154,220c-2.9-2.8-6.1-4.5-7.4-3.6c-2.6,1.7-7.2,14.3-7.2,19.9 c0,4.3,2.3,5.1,5.5,2.1c1.2-1.1,4.5-2.3,7.5-2.7C159.8,234.7,160.7,226.6,154,220z M154,220c-2.9-2.8-6.1-4.5-7.4-3.6 c-2.6,1.7-7.2,14.3-7.2,19.9c0,4.3,2.3,5.1,5.5,2.1c1.2-1.1,4.5-2.3,7.5-2.7C159.8,234.7,160.7,226.6,154,220z M234,127.3 c-2.4,0-6.6-1.1-6.6-3.7c0-7.5-1.2-7.1-9,2c-4.3,4.9-7.7,9.7-7.7,10.6c0,1-2.9,7.9-6.5,15.3c-6.5,13.4-8,20.5-5,23.5 c0.9,0.8,2.9-0.1,4.4-2.1c13.9-9.8,28.8,12.2,43.7-26.6C247.3,136.3,241,127.3,234,127.3z M216.4,167.6c-8.2,0-10.3-2.3-8.9-6.7 c3.5-11.4,13.3-26.1,17.8-26.8c8.2-1.2,13.5-3.2,16.6,7.8C244.9,152.9,230.7,167.5,216.4,167.6z M271.1,37l0.3-0.6 C271.3,36.4,271.2,36.6,271.1,37z M154,220c-2.9-2.8-6.1-4.5-7.4-3.6c-2.6,1.7-7.2,14.3-7.2,19.9c0,4.3,2.3,5.1,5.5,2.1 c1.2-1.1,4.5-2.3,7.5-2.7C159.8,234.7,160.7,226.6,154,220z M234,127.3c-2.4,0-6.6-1.1-6.6-3.7c0-7.5-1.2-7.1-9,2 c-4.3,4.9-7.7,9.7-7.7,10.6c0,1-2.9,7.9-6.5,15.3c-6.5,13.4-8,20.5-5,23.5c0.9,0.8,2.9-0.1,4.4-2.1c13.9-9.8,28.8,12.2,43.7-26.6 C247.3,136.3,241,127.3,234,127.3z M216.4,167.6c-8.2,0-10.3-2.3-8.9-6.7c3.5-11.4,13.3-26.1,17.8-26.8 c8.2-1.2,13.5-3.2,16.6,7.8C244.9,152.9,230.7,167.5,216.4,167.6z M234,127.3c-2.4,0-6.6-1.1-6.6-3.7c0-7.5-1.2-7.1-9,2 c-4.3,4.9-7.7,9.7-7.7,10.6c0,1-2.9,7.9-6.5,15.3c-6.5,13.4-8,20.5-5,23.5c0.9,0.8,2.9-0.1,4.4-2.1c13.9-9.8,28.8,12.2,43.7-26.6 C247.3,136.3,241,127.3,234,127.3z M216.4,167.6c-8.2,0-10.3-2.3-8.9-6.7c3.5-11.4,13.3-26.1,17.8-26.8 c8.2-1.2,13.5-3.2,16.6,7.8C244.9,152.9,230.7,167.5,216.4,167.6z M154,220c-2.9-2.8-6.1-4.5-7.4-3.6c-2.6,1.7-7.2,14.3-7.2,19.9 c0,4.3,2.3,5.1,5.5,2.1c1.2-1.1,4.5-2.3,7.5-2.7C159.8,234.7,160.7,226.6,154,220z M154,220c-2.9-2.8-6.1-4.5-7.4-3.6 c-2.6,1.7-7.2,14.3-7.2,19.9c0,4.3,2.3,5.1,5.5,2.1c1.2-1.1,4.5-2.3,7.5-2.7C159.8,234.7,160.7,226.6,154,220z M234,127.3 c-2.4,0-6.6-1.1-6.6-3.7c0-7.5-1.2-7.1-9,2c-4.3,4.9-7.7,9.7-7.7,10.6c0,1-2.9,7.9-6.5,15.3c-6.5,13.4-8,20.5-5,23.5 c0.9,0.8,2.9-0.1,4.4-2.1c13.9-9.8,28.8,12.2,43.7-26.6C247.3,136.3,241,127.3,234,127.3z M216.4,167.6c-8.2,0-10.3-2.3-8.9-6.7 c3.5-11.4,13.3-26.1,17.8-26.8c8.2-1.2,13.5-3.2,16.6,7.8C244.9,152.9,230.7,167.5,216.4,167.6z M234,127.3 c-2.4,0-6.6-1.1-6.6-3.7c0-7.5-1.2-7.1-9,2c-4.3,4.9-7.7,9.7-7.7,10.6c0,1-2.9,7.9-6.5,15.3c-6.5,13.4-8,20.5-5,23.5 c0.9,0.8,2.9-0.1,4.4-2.1c13.9-9.8,28.8,12.2,43.7-26.6C247.3,136.3,241,127.3,234,127.3z M216.4,167.6c-8.2,0-10.3-2.3-8.9-6.7 c3.5-11.4,13.3-26.1,17.8-26.8c8.2-1.2,13.5-3.2,16.6,7.8C244.9,152.9,230.7,167.5,216.4,167.6z M154,220 c-2.9-2.8-6.1-4.5-7.4-3.6c-2.6,1.7-7.2,14.3-7.2,19.9c0,4.3,2.3,5.1,5.5,2.1c1.2-1.1,4.5-2.3,7.5-2.7 C159.8,234.7,160.7,226.6,154,220z M154,220c-2.9-2.8-6.1-4.5-7.4-3.6c-2.6,1.7-7.2,14.3-7.2,19.9c0,4.3,2.3,5.1,5.5,2.1 c1.2-1.1,4.5-2.3,7.5-2.7C159.8,234.7,160.7,226.6,154,220z M234,127.3c-2.4,0-6.6-1.1-6.6-3.7c0-7.5-1.2-7.1-9,2 c-4.3,4.9-7.7,9.7-7.7,10.6c0,1-2.9,7.9-6.5,15.3c-6.5,13.4-8,20.5-5,23.5c0.9,0.8,2.9-0.1,4.4-2.1c13.9-9.8,28.8,12.2,43.7-26.6 C247.3,136.3,241,127.3,234,127.3z M216.4,167.6c-8.2,0-10.3-2.3-8.9-6.7c3.5-11.4,13.3-26.1,17.8-26.8 c8.2-1.2,13.5-3.2,16.6,7.8C244.9,152.9,230.7,167.5,216.4,167.6z M234,127.3c-2.4,0-6.6-1.1-6.6-3.7c0-7.5-1.2-7.1-9,2 c-4.3,4.9-7.7,9.7-7.7,10.6c0,1-2.9,7.9-6.5,15.3c-6.5,13.4-8,20.5-5,23.5c0.9,0.8,2.9-0.1,4.4-2.1c13.9-9.8,28.8,12.2,43.7-26.6 C247.3,136.3,241,127.3,234,127.3z M216.4,167.6c-8.2,0-10.3-2.3-8.9-6.7c3.5-11.4,13.3-26.1,17.8-26.8 c8.2-1.2,13.5-3.2,16.6,7.8C244.9,152.9,230.7,167.5,216.4,167.6z M154,220c-2.9-2.8-6.1-4.5-7.4-3.6c-2.6,1.7-7.2,14.3-7.2,19.9 c0,4.3,2.3,5.1,5.5,2.1c1.2-1.1,4.5-2.3,7.5-2.7C159.8,234.7,160.7,226.6,154,220z M154,220c-2.9-2.8-6.1-4.5-7.4-3.6 c-2.6,1.7-7.2,14.3-7.2,19.9c0,4.3,2.3,5.1,5.5,2.1c1.2-1.1,4.5-2.3,7.5-2.7C159.8,234.7,160.7,226.6,154,220z M234,127.3 c-2.4,0-6.6-1.1-6.6-3.7c0-7.5-1.2-7.1-9,2c-4.3,4.9-7.7,9.7-7.7,10.6c0,1-2.9,7.9-6.5,15.3c-6.5,13.4-8,20.5-5,23.5 c0.9,0.8,2.9-0.1,4.4-2.1c13.9-9.8,28.8,12.2,43.7-26.6C247.3,136.3,241,127.3,234,127.3z M216.4,167.6c-8.2,0-10.3-2.3-8.9-6.7 c3.5-11.4,13.3-26.1,17.8-26.8c8.2-1.2,13.5-3.2,16.6,7.8C244.9,152.9,230.7,167.5,216.4,167.6z M234,127.3 c-2.4,0-6.6-1.1-6.6-3.7c0-7.5-1.2-7.1-9,2c-4.3,4.9-7.7,9.7-7.7,10.6c0,1-2.9,7.9-6.5,15.3c-6.5,13.4-8,20.5-5,23.5 c0.9,0.8,2.9-0.1,4.4-2.1c13.9-9.8,28.8,12.2,43.7-26.6C247.3,136.3,241,127.3,234,127.3z M216.4,167.6c-8.2,0-10.3-2.3-8.9-6.7 c3.5-11.4,13.3-26.1,17.8-26.8c8.2-1.2,13.5-3.2,16.6,7.8C244.9,152.9,230.7,167.5,216.4,167.6z M154,220 c-2.9-2.8-6.1-4.5-7.4-3.6c-2.6,1.7-7.2,14.3-7.2,19.9c0,4.3,2.3,5.1,5.5,2.1c1.2-1.1,4.5-2.3,7.5-2.7 C159.8,234.7,160.7,226.6,154,220z M154,220c-2.9-2.8-6.1-4.5-7.4-3.6c-2.6,1.7-7.2,14.3-7.2,19.9c0,4.3,2.3,5.1,5.5,2.1 c1.2-1.1,4.5-2.3,7.5-2.7C159.8,234.7,160.7,226.6,154,220z M234,127.3c-2.4,0-6.6-1.1-6.6-3.7c0-7.5-1.2-7.1-9,2 c-4.3,4.9-7.7,9.7-7.7,10.6c0,1-2.9,7.9-6.5,15.3c-6.5,13.4-8,20.5-5,23.5c0.9,0.8,2.9-0.1,4.4-2.1c13.9-9.8,28.8,12.2,43.7-26.6 C247.3,136.3,241,127.3,234,127.3z M216.4,167.6c-8.2,0-10.3-2.3-8.9-6.7c3.5-11.4,13.3-26.1,17.8-26.8 c8.2-1.2,13.5-3.2,16.6,7.8C244.9,152.9,230.7,167.5,216.4,167.6z M234,127.3c-2.4,0-6.6-1.1-6.6-3.7c0-7.5-1.2-7.1-9,2 c-4.3,4.9-7.7,9.7-7.7,10.6c0,1-2.9,7.9-6.5,15.3c-6.5,13.4-8,20.5-5,23.5c0.9,0.8,2.9-0.1,4.4-2.1c13.9-9.8,28.8,12.2,43.7-26.6 C247.3,136.3,241,127.3,234,127.3z M216.4,167.6c-8.2,0-10.3-2.3-8.9-6.7c3.5-11.4,13.3-26.1,17.8-26.8 c8.2-1.2,13.5-3.2,16.6,7.8C244.9,152.9,230.7,167.5,216.4,167.6z M154,220c-2.9-2.8-6.1-4.5-7.4-3.6c-2.6,1.7-7.2,14.3-7.2,19.9 c0,4.3,2.3,5.1,5.5,2.1c1.2-1.1,4.5-2.3,7.5-2.7C159.8,234.7,160.7,226.6,154,220z M154,220c-2.9-2.8-6.1-4.5-7.4-3.6 c-2.6,1.7-7.2,14.3-7.2,19.9c0,4.3,2.3,5.1,5.5,2.1c1.2-1.1,4.5-2.3,7.5-2.7C159.8,234.7,160.7,226.6,154,220z M234,127.3 c-2.4,0-6.6-1.1-6.6-3.7c0-7.5-1.2-7.1-9,2c-4.3,4.9-7.7,9.7-7.7,10.6c0,1-2.9,7.9-6.5,15.3c-6.5,13.4-8,20.5-5,23.5 c0.9,0.8,2.9-0.1,4.4-2.1c13.9-9.8,28.8,12.2,43.7-26.6C247.3,136.3,241,127.3,234,127.3z M216.4,167.6c-8.2,0-10.3-2.3-8.9-6.7 c3.5-11.4,13.3-26.1,17.8-26.8c8.2-1.2,13.5-3.2,16.6,7.8C244.9,152.9,230.7,167.5,216.4,167.6z M234,127.3 c-2.4,0-6.6-1.1-6.6-3.7c0-7.5-1.2-7.1-9,2c-4.3,4.9-7.7,9.7-7.7,10.6c0,1-2.9,7.9-6.5,15.3c-6.5,13.4-8,20.5-5,23.5 c0.9,0.8,2.9-0.1,4.4-2.1c13.9-9.8,28.8,12.2,43.7-26.6C247.3,136.3,241,127.3,234,127.3z M216.4,167.6c-8.2,0-10.3-2.3-8.9-6.7 c3.5-11.4,13.3-26.1,17.8-26.8c8.2-1.2,13.5-3.2,16.6,7.8C244.9,152.9,230.7,167.5,216.4,167.6z M154,220 c-2.9-2.8-6.1-4.5-7.4-3.6c-2.6,1.7-7.2,14.3-7.2,19.9c0,4.3,2.3,5.1,5.5,2.1c1.2-1.1,4.5-2.3,7.5-2.7 C159.8,234.7,160.7,226.6,154,220z M234,127.3c-2.4,0-6.6-1.1-6.6-3.7c0-7.5-1.2-7.1-9,2c-4.3,4.9-7.7,9.7-7.7,10.6 c0,1-2.9,7.9-6.5,15.3c-6.5,13.4-8,20.5-5,23.5c0.9,0.8,2.9-0.1,4.4-2.1c13.9-9.8,28.8,12.2,43.7-26.6 C247.3,136.3,241,127.3,234,127.3z M216.4,167.6c-8.2,0-10.3-2.3-8.9-6.7c3.5-11.4,13.3-26.1,17.8-26.8 c8.2-1.2,13.5-3.2,16.6,7.8C244.9,152.9,230.7,167.5,216.4,167.6z M154,220c-2.9-2.8-6.1-4.5-7.4-3.6c-2.6,1.7-7.2,14.3-7.2,19.9 c0,4.3,2.3,5.1,5.5,2.1c1.2-1.1,4.5-2.3,7.5-2.7C159.8,234.7,160.7,226.6,154,220z M154,220c-2.9-2.8-6.1-4.5-7.4-3.6 c-2.6,1.7-7.2,14.3-7.2,19.9c0,4.3,2.3,5.1,5.5,2.1c1.2-1.1,4.5-2.3,7.5-2.7C159.8,234.7,160.7,226.6,154,220z M234,127.3 c-2.4,0-6.6-1.1-6.6-3.7c0-7.5-1.2-7.1-9,2c-4.3,4.9-7.7,9.7-7.7,10.6c0,1-2.9,7.9-6.5,15.3c-6.5,13.4-8,20.5-5,23.5 c0.9,0.8,2.9-0.1,4.4-2.1c13.9-9.8,28.8,12.2,43.7-26.6C247.3,136.3,241,127.3,234,127.3z M216.4,167.6c-8.2,0-10.3-2.3-8.9-6.7 c3.5-11.4,13.3-26.1,17.8-26.8c8.2-1.2,13.5-3.2,16.6,7.8C244.9,152.9,230.7,167.5,216.4,167.6z"></path> <path id="Path_89" class="st3" d="M216.4,167.6c-8.2,0-10.3-2.3-8.9-6.7c3.5-11.4,13.3-26.1,17.8-26.8c8.2-1.2,13.5-3.2,16.6,7.8 C244.9,152.9,230.7,167.5,216.4,167.6z"></path> <path id="Path_90" class="st2" d="M369.2,165.7v-13.9l-8.9,0.6c-8.3,0.5-9.2,0.1-11.4-6.1c-1.3-3.5-2.1-7.2-2.4-10.9 c0-2.3-2.4-7-5.3-10.4c-3.3-4.2-5.9-9-7.5-14.2c-2.7-9.6-14-27.8-18.4-29.4c-14.7-16.2-18.4-43.9-41-51.4 c-5.6,0-5.3-2.9-5.3,11.9s-2.4,15.2-6.5,11.2c-2.9-3-5.6-6.2-7.9-9.7C251.8,39,246,31,241,31.5l-0.3,7.9l-3,25.2 c-0.5,23.3,1.6,24.1-14.1,35.1c-3.3,2.5-6.6,5-9.8,7.7l0,0c-1.1,0.8-2.1,1.8-3.2,2.6l-0.1,0.1c-42.1,35-76.7,78.9-94.8,131.2 c-2.8,26.5,24,52.4,50,51.4c4.9-0.8,11.6-3.3,14.9-5.6c10.9-7.4,21.4,13.9,28.5,21.1c5.2,6.6,6.2,5.2,26.6,4.3 c32.1-7.7,85.6-44.8,105.2-73.6c7.2-10.9,14.1-19.8,15.4-19.8C366.6,230,401.5,187,369.2,165.7z M271.4,36.4l-0.3,0.6 C271.2,36.6,271.3,36.4,271.4,36.4z M244.9,56l1.4-12.8L251,53c2.6,5.4,6.2,11,8.2,12.6c4.5,7.2-9,15-14.5,19.2 C242.7,84.7,242.8,74.5,244.9,56z M177.6,280.3c-20.9,13.8-47.5-3.5-57.8-30.8c-0.7-1.9-1.3-3.7-1.9-5.6 c34.7-82.2,76.6-121.3,146-169.1c0.7,0-0.8,8.6-2.6,12.1c-0.3,0.8-0.7,1.4-1,2.1l0,0c-2.1,5.1-1.3,8.5,2.2,8.5 c0.3,0,0.5,0,0.8-0.1c4.3-1.2,6.8-12.9,11.4-50.6c0.9-7.4,1.2-8.8,3.6-6.9c0.4,0.3,1,0.8,1.6,1.3c5.5,5.6,7.6,13.1,12.5,19.3 c10.9,16.4,13.3,23.8,13.3,42.5c0,14.2,2.3,20.7,6,17c0.8-0.7,1.5-5.8,1.8-11.4c0.3-6.8-0.7-17.2,1.3-17.2c0.9,0,2.5,1.6,4.4,4 c5.9,7.7,14.5,24.2,14.5,28.8c0,2.7,1.9,7.1,4,9.8c4,4.8,4,5-0.3,8.4c-0.8,0.6-1.5,1.4-2,2.3c-1.6,2.4-2.5,5.1-2.7,7.9 c-0.5,10.9-2.6,9.8-3.7-1.8c-0.5-6-1.5-11.4-2.2-11.9s-6.6-1.7-13.2-2.4c-11.4-1.2-12.8-0.8-24.3,7.1 c-20.4,13.8-23.9,23.7-13,37.8c3.2,4.1,5.8,8.9,5.8,10.8c0,2.9-7.6,8.6-20.5,15.3c-15.1,11.9-20.5,33.5-42.4,37 c-8.7,2.9-18,6.4-20.7,7.7C187.9,259.9,184.9,270.8,177.6,280.3z M193.9,281.6l-4.5-6.5l5.4-8.9c4.5-6.6,10.9-11.7,18.7-12.8 c3.8-0.3,13.2-3.6,20.8-7.4c11.9-6,14.6-8.4,19.6-18.1c8.4-16.2,23.7-23.7,33.6-16.4c4,2.9,3.9,3.1-2.4,3.2 c-8.2,0.1-11.8,3.4-11.8,11.1c0,4.6-1,6-4.5,6c-3,0-5.3,2-6.9,6.2c-1.4,3.8-4.5,6.8-7.7,7.6c-2.9,0.7-8.7,3.6-13,6.5 s-10.9,5.2-14.6,5.2c-5.2,0-8.7,2.1-15.6,9.5c-9.5,10.2-12.1,15.4-4,8.2c6.9-6.2,13.4-9.2,20.2-9.2c3.6-0.1,7-1.3,9.8-3.5 c2.2-1.9,9.1-5.2,15.3-7.2c8.7-2.9,12-5.1,14.4-10.2c2-4.5,4.8-6.7,8.6-7.2c4.8-0.6,5.7-1.9,6.3-8.7c0.7-7.4,1.3-8,7.3-8 c6.4,0,6.6,0.3,5.5,8.2c-0.8,5.6-3.5,10.6-8.4,15.5c-17.5,15.1-38.5,24.8-55.5,40C211.8,297.2,204.2,296.5,193.9,281.6 L193.9,281.6z M296.6,270.2c-22.9,15.1-51.6,44.1-80.8,38.3c-6.1-2.4-8-5.7-4.1-6.3c0.5-0.1,0.9-0.1,1.4-0.1 c17.2-8.2,61.2-42.8,79.6-56.5c5-4.6,8.6-6.9,8.6-16.2c0-12.1-6.5-25.4-12.3-25.4c-2.4,0-2.9-1.1-1.8-3.7 c1.9-4.7,2.8-7.6,2.4-9.9c-0.3-2.3-1.8-4-4.4-6.6c-7.2-6.5-8.1-21.7-1.7-27.4c4.5-4,26.1-12,32.4-12c4.7,0,7.6,7.8,5.6,15.6 c-1.1,4.3,0.3,5.9,8.8,10.9c5,2.9,9.8,6.1,14.2,9.8C366.1,214.5,323.6,251.4,296.6,270.2L296.6,270.2z M354.4,175.9 c-1.9,2.4-0.8,1.5-8-1.8c-6.5-0.4-9.1-4.6-6.4-14.4c0.3-1.1,0.6-2,0.8-2.8c2.4-6.4,4.8-4.6,9.7-2.1c2.4,1.3,4.9,2.3,7.5,3.1 c4.5,1.4,5.1,10.9,0.8,13.5C357.2,172.8,355.7,174.3,354.4,175.9L354.4,175.9z M373.7,200.1L373.7,200.1v0.2l0,0 c-0.9,6.1-4.3,11.5-11.2,12.3c-5.8,0-8.9-5-5.6-9.1c1.2-1.4,1.9-5.5,1.7-9c-0.2-3.4,0.4-6.7,1.9-9.8c0.1-0.3,0.3-0.5,0.5-0.8 c6.4-7,11.9,0.7,12.9,9.8C374,195.8,374,198,373.7,200.1L373.7,200.1z"></path> <path id="Path_91" class="st3" d="M294.3,229.3c-0.8,5.6-3.5,10.6-8.4,15.5c-17.5,15.1-38.5,24.8-55.5,40 c-18.5,12.4-26.2,11.7-36.4-3.2l-4.5-6.5l5.4-8.9c4.5-6.6,10.9-11.7,18.7-12.8c3.8-0.3,13.2-3.6,20.8-7.4 c11.9-6,14.6-8.4,19.6-18.1c8.4-16.2,23.7-23.7,33.6-16.4c4,2.9,3.9,3.1-2.4,3.2c-8.2,0.1-11.8,3.4-11.8,11.1c0,4.6-1,6-4.5,6 c-3,0-5.3,2-6.9,6.2c-1.4,3.8-4.5,6.8-7.7,7.6c-2.9,0.7-8.7,3.6-13,6.5s-10.9,5.2-14.6,5.2c-5.2,0-8.7,2.1-15.6,9.5 c-9.5,10.2-12.1,15.4-4,8.2c6.9-6.2,13.4-9.2,20.2-9.2c3.6-0.1,7-1.3,9.8-3.5c2.2-1.9,9.1-5.2,15.3-7.2c8.7-2.9,12-5.1,14.4-10.2 c2-4.5,4.8-6.7,8.6-7.2c4.8-0.6,5.7-1.9,6.3-8.7c0.7-7.4,1.3-8,7.3-8C295.2,221,295.4,221.3,294.3,229.3z"></path> <g id="Group_9"> <path id="Path_92" class="st4" d="M373.9,193.7c-0.6-0.2-1.2-0.5-1.8-0.9c-1-1.1-2.1-2-3.4-2.7c-1.6-0.8-2.4-1.4-4.2-2.3 c-1.5-0.9-2.8-1.9-4-3.1c0.1-0.3,0.3-0.5,0.5-0.8C367.3,176.9,372.9,184.5,373.9,193.7z"></path> <path id="Path_93" class="st4" d="M358.8,171.5c-1.7,1.3-3.2,2.8-4.5,4.5c-1.3-1.3-1.8-3.2-3-4.5c-1.8-1.9-3.4-4.1-4.6-6.5 c-0.7-1.5-1.7-2.9-2.7-4.2c-1.1-1.2-2.2-2.5-3.2-3.8c2.4-6.4,4.8-4.6,9.7-2.1c2.4,1.3,4.9,2.3,7.5,3.1 C362.5,159.4,363.1,168.9,358.8,171.5z"></path> <path id="Path_94" class="st4" d="M337.3,142.4c-0.8,0.6-1.5,1.4-2,2.3c-0.9-1.1-1.6-2.3-2-3.7c-0.6-2.2-1.9-3.7-2.4-5.7 c-0.4-2-1.1-3.9-1.9-5.7c-0.8-1.5-1.3-5.1-2.4-6.5c-1.5-1.9-1.3-3.7-2.4-5.7c-0.9-1.7-1.7-3.5-2.3-5.3c-0.5-1.8-0.4-4.2-1.2-5.7 c-0.8-1.4-0.8-3.3-1.2-5c-0.4-1.9-0.5-3.9-0.5-5.9c5.9,7.7,14.5,24.2,14.5,28.8c0,2.7,1.9,7.1,4,9.8 C341.6,138.8,341.6,139,337.3,142.4z"></path> <path id="Path_95" class="st4" d="M261.3,87c-0.3,0.8-0.7,1.4-1,2.1l0,0c-0.2,0.1-0.3,0.2-0.4,0.3c-1.5,0.8-4.7,2.4-6.1,3.8 c-1.9,1.9-4.2,3.4-6.6,4.5c-2.9,1.4-5.7,2.2-8.5,4.2c-2,1.5-4.9,2.5-6.6,4.2c-1.6,1.6-3.3,2-5.4,3c-1.7,0.8-3.4,1.7-5,2.7 c-1.5,1.2-3.4,1.7-5.4,2.7c-1.4,0.9-2.5,2-3.4,3.4s-1.7,2.9-2.4,4.5c-0.6,2.2-2,2.4-3.1,4.5c-0.9,1.9-2.2,2.9-3.4,4.5 c-1.1,1.7-2.6,3.3-4.2,4.5c-1.9,1.4-3.7,2.9-5.4,4.5c-1.6,1.3-2.9,2.8-3.9,4.5c-1.3,2.7-4.1,5.1-6.1,7.6 c-4.1,4.9-9.1,11.1-12.4,16.7s-7.8,10.9-11.2,16.7c-2.4,4.1-4.6,8.5-7.7,12.2c-2.9,3.4-5,7.9-8.1,11c-2.3,2.5-4.2,5.3-5.8,8.3 c-1.3,2.5-4,4.9-4.6,7.6c-0.5,2.1-1.7,3.5-3,5.3c-1.4,1.9-2.6,4.9-3.9,6.1c-1.3,1.1-2.3,2.4-3.1,3.8c-0.8,1.5-1.9,2.4-2.7,4.2 c-0.6,1.5-1.7,3.4-2.1,4.8c-0.7-1.9-1.3-3.7-1.9-5.6c34.7-82.2,76.6-121.3,146-169.1C264.6,74.9,263.2,83.5,261.3,87z"></path> <path id="Path_96" class="st4" d="M278.3,41.9v9.2c0,2.5-0.5,5.6-0.5,7.5c0,2.9-1.1,5.6-1.1,8.1v8.1c0,2.4,0.6,5.7,0,8.1 c-0.5,1.8,0,5.6-0.6,8.1c-0.8,3.1-0.8,5.9-4.9,5.9c-2.4,0-6.9,2.1-8,0.8c4.3-1.2,6.8-12.9,11.4-50.6c0.9-7.4,1.2-8.8,3.6-6.9 C278.3,40.8,278.3,41.3,278.3,41.9z"></path> </g> <g id="Group_10"> <path id="Path_97" class="st2" d="M76,404.4h-9.9l-1.2-6.1c-4.6,4.6-10.9,7.2-17.4,7.2c-13.5,0-19.3-9.4-19.3-31.6 c0-23.9,7.2-31.2,27.1-31.2c7.1,0,12.9,0.5,18.6,2.1l-1.1,9.9c-6-0.3-11.9-0.4-17.1-0.4c-10.1,0-13.4,2.6-13.4,20.1 c0,15,2.4,19.7,9.9,19.7c3.8-0.1,7.6-1.1,10.9-3.1v-21.5H76V404.4z"></path> <path id="Path_98" class="st2" d="M115.8,372h-3.5c-3.7,0-7.5,1.1-13.3,3v29.5H86v-43.2h10.1l1.1,6.3c5.8-4.9,12-7.6,17.5-7.6 h2.3L115.8,372z"></path> <path id="Path_99" class="st2" d="M134.6,387.2c0.8,6.5,3.7,8,10.3,8c4,0,10.3-0.4,16.1-1l1.2,8.1c-5.1,2.5-12.8,3.3-18.8,3.3 c-16.4,0-22.5-6.7-22.5-22.6c0-17.1,6.3-22.9,22-22.9c14.7,0,20.4,5.2,20.5,15c0,7.9-3.8,12.1-13.2,12.1H134.6z M146.7,379.3 c3.5,0,4-2,4-4.5c0-4-1.8-5.5-7.4-5.5c-6.5,0-8.6,1.8-9,9.9L146.7,379.3z"></path> <path id="Path_100" class="st2" d="M183.7,387.2c0.8,6.5,3.7,8,10.3,8c4,0,10.3-0.4,16.1-1l1.2,8.1c-5.1,2.5-12.8,3.3-18.8,3.3 c-16.4,0-22.5-6.7-22.5-22.6c0-17.1,6.3-22.9,22-22.9c14.7,0,20.4,5.2,20.5,15c0,7.9-3.8,12.1-13.2,12.1H183.7z M195.7,379.3 c3.5,0,4-2,4-4.5c0-4-1.8-5.5-7.4-5.5c-6.5,0-8.6,1.8-9,9.9L195.7,379.3z"></path> <path id="Path_101" class="st2" d="M232.3,367.6c6.1-4.9,12.4-7.7,18.5-7.7c7.9,0,12.1,4.2,12.1,12.1v32.5H250V376 c0-4-1.1-5.1-4.2-5.1c-3.5,0-7,1.4-12.1,4v29.6h-13v-43.2h10.6L232.3,367.6z"></path> <path id="Path_102" class="st2" d="M286.2,356.8c0.1,3.4-0.3,6.9-1.1,10.2c4.1-4.2,9.7-7,15.3-7c11.2,0,15.8,6.4,15.8,22.4 c0,13.3-3.9,23-21.1,23c-6.2,0-16.6-1.1-22-3.3V343h13.1L286.2,356.8L286.2,356.8z M286.2,395.1c2.9,0.6,5.8,0.9,8.8,0.8 c5.9-0.2,8.1-3.1,8.1-13.4c0-9.4-1.3-12.2-7.7-12.2c-3.4,0-6,1.6-9.2,3.7L286.2,395.1L286.2,395.1z"></path> <path id="Path_103" class="st2" d="M367.9,382.9c0,16.5-6.1,22.7-22.2,22.7c-16.2,0-22.3-6.2-22.3-22.7 c0-16.6,6.1-22.9,22.3-22.9S367.9,366.2,367.9,382.9z M337,382.9c0,10.4,1.8,13,8.7,13c6.7,0,8.6-2.6,8.6-13 c0-10.6-1.9-13.2-8.6-13.2C338.8,369.8,337,372.4,337,382.9z"></path> <path id="Path_104" class="st2" d="M388.3,367.6c6.1-4.9,12.4-7.7,18.5-7.7c7.9,0,12.1,4.2,12.1,12.1v32.5H406V376 c0-4-1.1-5.1-4.2-5.1c-3.5,0-7,1.4-12.1,4v29.6h-13v-43.2h10.6L388.3,367.6z"></path> <path id="Path_105" class="st2" d="M441.2,387.2c0.8,6.5,3.7,8,10.3,8c4,0,10.3-0.4,16.1-1l1.2,8.1c-5.1,2.5-12.8,3.3-18.8,3.3 c-16.4,0-22.5-6.7-22.5-22.6c0-17.1,6.3-22.9,22-22.9c14.7,0,20.4,5.2,20.5,15c0,7.9-3.8,12.1-13.2,12.1H441.2z M453.2,379.3 c3.5,0,4-2,4-4.5c0-4-1.8-5.5-7.4-5.5c-6.5,0-8.6,1.8-9,9.9L453.2,379.3z"></path> </g> </g> </g> </g> </svg>
