<svg width="184" height="100" viewBox="0 0 184 100" fill="none" xmlns="http://www.w3.org/2000/svg">
<g clip-path="url(#clip0_4644_110437)">
<path d="M22.0005 41.2021H25.3241V42.731C24.9265 42.9578 24.6213 43.249 24.4001 43.6046C24.0389 44.1786 23.7925 44.8562 23.6665 45.6402L23.5405 46.4102C23.4985 46.6538 23.4089 46.847 23.2689 46.9842C23.1289 47.1214 22.9553 47.1914 22.7453 47.1914C22.5353 47.1914 22.3477 47.1158 22.2077 46.9646C22.0677 46.8134 22.0005 46.6146 22.0005 46.371V41.2021ZM31.9629 41.2021V56.0563C31.9629 56.3839 32.0273 56.6219 32.1533 56.7647C32.2205 56.8487 32.2849 56.9019 32.3437 56.9215C32.4025 56.9439 32.5957 56.9943 32.9261 57.0783C33.3293 57.1707 33.5337 57.4031 33.5337 57.7727C33.5337 57.9911 33.4245 58.1703 33.2061 58.3047C33.0465 58.4055 32.7777 58.4559 32.3969 58.4559H25.9205C25.5509 58.4559 25.2681 58.3999 25.0805 58.2851C24.8901 58.1703 24.7949 57.9995 24.7949 57.7727C24.7949 57.4031 24.9965 57.1707 25.4025 57.0783C25.7301 56.9943 25.9261 56.9411 25.9849 56.9215C26.0437 56.9019 26.1025 56.8487 26.1613 56.7647C26.2873 56.6219 26.3517 56.3867 26.3517 56.0563V41.2021H31.9657H31.9629ZM36.3365 41.2021V46.3738C36.3365 46.6174 36.2665 46.8162 36.1293 46.9674C35.9921 47.1186 35.8101 47.1942 35.5917 47.1942C35.3733 47.1942 35.2053 47.1242 35.0681 46.987C34.9309 46.8498 34.8385 46.6566 34.7965 46.413L34.6705 45.643C34.5445 44.859 34.3009 44.1814 33.9369 43.6074C33.7101 43.2546 33.4021 42.9634 33.0129 42.7338V41.2021H36.3365Z" fill="#263844"/>
<path d="M44.7919 41.2021V56.0563C44.7919 56.3839 44.8563 56.6219 44.9823 56.7647C45.0495 56.8487 45.1139 56.9019 45.1727 56.9215C45.2315 56.9439 45.4247 56.9943 45.7551 57.0783C46.1583 57.1707 46.3627 57.4031 46.3627 57.7727C46.3627 57.9911 46.2535 58.1703 46.0351 58.3047C45.8755 58.4055 45.6095 58.4559 45.2399 58.4559H38.8447C38.5423 58.4559 38.3071 58.3999 38.1419 58.2851C37.9767 58.1703 37.8955 58.0079 37.8955 57.7979C37.8955 57.4535 38.0635 57.2239 38.4023 57.1147C38.6795 57.0223 38.8419 56.9663 38.8895 56.9439C38.9371 56.9243 38.9847 56.8739 39.0351 56.7983C39.1359 56.6639 39.1863 56.4483 39.1863 56.1543V43.5038C39.1863 43.2098 39.1359 42.9942 39.0351 42.8598C38.9847 42.7842 38.9371 42.7366 38.8895 42.7142C38.8419 42.6946 38.6823 42.6358 38.4023 42.5434C38.0663 42.4342 37.8955 42.2074 37.8955 41.8602C37.8955 41.6502 37.9767 41.4878 38.1419 41.3729C38.3071 41.2581 38.5395 41.2021 38.8447 41.2021H44.7975H44.7919ZM48.6727 49.9998C49.4483 50.1174 50.0447 50.249 50.4619 50.3918C50.8791 50.5346 51.2571 50.7278 51.5931 50.9742C51.9459 51.2346 52.2175 51.5482 52.4079 51.9094C52.5983 52.2706 52.6935 52.6542 52.6935 53.0603V55.6783C52.6935 55.9471 52.7831 56.0815 52.9595 56.0815C53.0267 56.0815 53.0827 56.0619 53.1303 56.0255C53.1779 55.9863 53.2423 55.9135 53.3263 55.8043C53.5363 55.5187 53.7519 55.3759 53.9703 55.3759C54.1131 55.3759 54.2559 55.4515 54.3987 55.6027C54.5415 55.7539 54.6143 55.9051 54.6143 56.0591C54.6143 56.3195 54.4911 56.6387 54.2419 57.0139C53.9927 57.3891 53.6847 57.7251 53.3123 58.0191C52.9679 58.2963 52.5927 58.4979 52.1867 58.6183C51.7835 58.7415 51.3047 58.8003 50.7587 58.8003C49.6471 58.8003 48.7791 58.4811 48.1547 57.8455C47.5303 57.2099 47.2195 56.3223 47.2195 55.1855V53.0631C47.2195 52.5898 47.2139 52.3182 47.2055 52.2426C47.1635 51.9066 47.0459 51.6154 46.8527 51.369C46.6091 51.075 46.2591 50.9014 45.8027 50.851V49.4986C46.2591 49.4314 46.5811 49.3138 46.7771 49.1458C46.9451 48.9946 47.0627 48.821 47.1243 48.6278C47.1887 48.4346 47.2195 48.1462 47.2195 47.7682V44.4194C47.2195 43.8874 47.1159 43.4926 46.9087 43.2322C46.7015 42.9718 46.3291 42.7646 45.7887 42.6134V41.2021H46.1163C47.0515 41.2021 47.8495 41.2357 48.5047 41.3029C49.4819 41.3954 50.3555 41.7174 51.1227 42.2634C52.2259 43.0474 52.7775 44.1646 52.7775 45.6122C52.7775 46.7994 52.4079 47.7738 51.6659 48.5326C51.3551 48.8518 50.9883 49.115 50.5711 49.3166C50.1539 49.5182 49.5211 49.745 48.6699 49.9998H48.6727Z" fill="#263844"/>
<path d="M60.1891 44.4138L60.8331 47.0318L58.5959 55.1967C58.5287 55.4319 58.4951 55.6531 58.4951 55.8547C58.4951 56.3867 58.7443 56.7647 59.2399 56.9915L59.6823 57.1931C59.9595 57.3191 60.0995 57.5291 60.0995 57.8259C60.0995 58.2487 59.7915 58.4587 59.1755 58.4587H55.9639C55.6531 58.4587 55.4067 58.3943 55.2247 58.2627C55.0427 58.1311 54.9531 57.9519 54.9531 57.7251C54.9531 57.4815 55.1379 57.2799 55.5103 57.1175C55.8547 56.9663 56.1095 56.8291 56.2747 56.7059C56.4399 56.5827 56.5967 56.4175 56.7479 56.2075C56.9831 55.8631 57.1763 55.4039 57.3303 54.8299L60.1863 44.4138H60.1891ZM61.0627 41.2021H66.1559L69.6699 56.0563C69.7371 56.3167 69.8127 56.5491 69.8967 56.7507C69.9723 56.9103 70.1403 57.0419 70.4035 57.1427C70.6219 57.2351 70.7731 57.3275 70.8599 57.4199C70.9439 57.5123 70.9859 57.6383 70.9859 57.7979C70.9859 58.2375 70.6583 58.4559 70.0003 58.4559H63.6919C63.4399 58.4559 63.2355 58.3943 63.0843 58.2739C62.9331 58.1507 62.8575 57.9883 62.8575 57.7867C62.8575 57.6187 62.8911 57.4927 62.9583 57.4087C63.0255 57.3247 63.1767 57.2183 63.4147 57.0923C63.5827 57.0083 63.7003 56.9159 63.7675 56.8151C63.8347 56.7143 63.8683 56.5883 63.8683 56.4371C63.8683 56.2943 63.8543 56.1683 63.8291 56.0591L63.4259 54.2251H59.8979L60.2395 52.7214H63.0703L60.7435 42.4454L61.0599 41.2077L61.0627 41.2021Z" fill="#263844"/>
<path d="M78.9245 41.2021V58.4587H72.9717C72.6693 58.4587 72.4341 58.4027 72.2689 58.2879C72.1037 58.1731 72.0225 58.0107 72.0225 57.8007C72.0225 57.4563 72.1905 57.2267 72.5293 57.1175C72.8065 57.0251 72.9689 56.9691 73.0165 56.9467C73.0641 56.9271 73.1117 56.8767 73.1621 56.8011C73.2629 56.6667 73.3133 56.4511 73.3133 56.1571V43.5038C73.3133 43.2098 73.2629 42.9942 73.1621 42.8598C73.1117 42.7842 73.0641 42.7366 73.0165 42.7142C72.9689 42.6946 72.8093 42.6358 72.5293 42.5434C72.1933 42.4342 72.0225 42.2074 72.0225 41.8602C72.0225 41.6502 72.1037 41.4878 72.2689 41.3729C72.4341 41.2581 72.6665 41.2021 72.9717 41.2021H78.9245ZM81.478 54.8411V44.8674C81.478 44.2514 81.3884 43.7642 81.212 43.4002C81.1028 43.165 80.9684 42.9914 80.8088 42.8822C80.6492 42.773 80.3945 42.6806 80.0501 42.605V41.2021C80.4953 41.2021 80.876 41.2189 81.1868 41.2525C82.2564 41.3701 83.2924 41.8266 84.2976 42.619C85.2916 43.3862 86.0308 44.3858 86.5096 45.615C87.008 46.861 87.2544 48.2442 87.2544 49.7618C87.2544 51.481 86.938 53.0098 86.3052 54.3455C85.6724 55.6811 84.768 56.7339 83.5864 57.4983C83.0124 57.8679 82.4804 58.1227 81.9876 58.2571C81.4948 58.3915 80.848 58.4587 80.0472 58.4587V57.0923C80.4 56.9999 80.6464 56.9159 80.7864 56.8403C80.9264 56.7647 81.0468 56.6471 81.1476 56.4875C81.2736 56.3027 81.3604 56.0927 81.408 55.8631C81.4556 55.6307 81.478 55.2919 81.478 54.8467V54.8411Z" fill="#263844"/>
<path d="M95.7236 58.4587H89.7568C89.4544 58.4587 89.2192 58.4027 89.054 58.2879C88.8888 58.1731 88.8076 58.0107 88.8076 57.8007C88.8076 57.4563 88.9756 57.2267 89.3144 57.1175C89.5916 57.0251 89.754 56.9691 89.8016 56.9467C89.8492 56.9271 89.8968 56.8767 89.9472 56.8011C90.048 56.6667 90.0984 56.4511 90.0984 56.1571V43.5038C90.0984 43.2098 90.048 42.9942 89.9472 42.8598C89.8968 42.7842 89.8492 42.7366 89.8016 42.7142C89.754 42.6946 89.5944 42.6358 89.3144 42.5434C88.9784 42.4342 88.8076 42.2074 88.8076 41.8602C88.8076 41.6502 88.8888 41.4878 89.054 41.3729C89.2192 41.2581 89.4516 41.2021 89.7568 41.2021H96.0512C96.3536 41.2021 96.5888 41.2581 96.754 41.3729C96.9192 41.4878 97.0004 41.6502 97.0004 41.8602C97.0004 42.2046 96.8324 42.4342 96.4936 42.5434C96.2164 42.6358 96.054 42.6918 96.0064 42.7142C95.9588 42.7366 95.9112 42.7842 95.8608 42.8598C95.76 42.9942 95.7096 43.2098 95.7096 43.5038V56.1571C95.7096 56.4511 95.76 56.6667 95.8608 56.8011C95.9112 56.8767 95.9588 56.9243 96.0064 56.9467C96.054 56.9691 96.2136 57.0251 96.4936 57.1175C96.8296 57.2267 97.0004 57.4535 97.0004 57.8007C97.0004 58.0107 96.9192 58.1731 96.754 58.2879C96.5888 58.4027 96.3564 58.4587 96.0512 58.4587H95.7236Z" fill="#263844"/>
<path d="M105.974 41.2021V58.4587H100.021C99.7191 58.4587 99.4839 58.4027 99.3187 58.2879C99.1535 58.1731 99.0723 58.0107 99.0723 57.8007C99.0723 57.4563 99.2403 57.2267 99.5791 57.1175C99.8563 57.0251 100.019 56.9691 100.066 56.9467C100.114 56.9271 100.161 56.8767 100.212 56.8011C100.313 56.6667 100.363 56.4511 100.363 56.1571V43.5038C100.363 43.2098 100.313 42.9942 100.212 42.8598C100.161 42.7842 100.114 42.7366 100.066 42.7142C100.019 42.6946 99.8591 42.6358 99.5791 42.5434C99.2431 42.4342 99.0723 42.2074 99.0723 41.8602C99.0723 41.6502 99.1535 41.4878 99.3187 41.3729C99.4839 41.2581 99.7163 41.2021 100.021 41.2021H105.974ZM107.035 50.4058V48.9386C107.525 48.7034 107.887 48.4458 108.122 48.1686C108.357 47.8914 108.531 47.519 108.64 47.057C108.707 46.7378 108.797 46.5166 108.906 46.3934C109.015 46.2702 109.172 46.2114 109.373 46.2114C109.642 46.2114 109.83 46.3178 109.931 46.5278C109.989 46.637 110.02 46.8862 110.02 47.2726V52.0886C110.02 52.4862 109.975 52.7578 109.889 52.9091C109.799 53.0603 109.637 53.1359 109.401 53.1359C109.208 53.1359 109.057 53.0771 108.945 52.9595C108.836 52.8419 108.746 52.643 108.679 52.3658C108.536 51.7834 108.332 51.3382 108.066 51.0246C107.8 50.7138 107.458 50.5066 107.035 50.4058ZM107.1 41.2021H112.193V45.6766C112.193 45.937 112.143 46.1274 112.042 46.245C111.941 46.3626 111.781 46.4214 111.56 46.4214C111.375 46.4214 111.241 46.3822 111.157 46.3066C111.073 46.231 110.992 46.0742 110.916 45.839C110.597 44.8618 110.127 44.117 109.508 43.6018C108.889 43.0866 108.085 42.7814 107.1 42.6778V41.2021ZM107.114 58.4587V57.0923C107.663 57.0083 108.113 56.8907 108.472 56.7395C108.83 56.5883 109.191 56.3559 109.553 56.0451C109.914 55.7343 110.202 55.4123 110.418 55.0791C110.633 54.7459 110.838 54.3063 111.031 53.7575C111.123 53.4887 111.221 53.3039 111.322 53.2087C111.423 53.1107 111.563 53.0631 111.739 53.0631C111.975 53.0631 112.14 53.1331 112.232 53.2703C112.325 53.4103 112.372 53.6511 112.372 53.9983V58.4615H107.114V58.4587Z" fill="#263844"/>
<path d="M121.17 41.2021V56.0563C121.17 56.3839 121.235 56.6219 121.361 56.7647C121.428 56.8487 121.492 56.9019 121.551 56.9215C121.61 56.9439 121.803 56.9943 122.134 57.0783C122.537 57.1707 122.741 57.4031 122.741 57.7727C122.741 57.9911 122.632 58.1703 122.414 58.3047C122.254 58.4055 121.988 58.4559 121.618 58.4559H115.223C114.921 58.4559 114.686 58.3999 114.52 58.2851C114.355 58.1703 114.274 58.0079 114.274 57.7979C114.274 57.4535 114.442 57.2239 114.781 57.1147C115.058 57.0223 115.22 56.9663 115.268 56.9439C115.316 56.9243 115.363 56.8739 115.414 56.7983C115.514 56.6639 115.565 56.4483 115.565 56.1543V43.5038C115.565 43.2098 115.514 42.9942 115.414 42.8598C115.363 42.7842 115.316 42.7366 115.268 42.7142C115.22 42.6946 115.061 42.6358 114.781 42.5434C114.445 42.4342 114.274 42.2074 114.274 41.8602C114.274 41.6502 114.355 41.4878 114.52 41.3729C114.686 41.2581 114.918 41.2021 115.223 41.2021H121.176H121.17ZM122.246 51.845V50.4926C122.607 50.4086 122.862 50.319 123.01 50.2266C123.158 50.1342 123.287 49.9914 123.396 49.7982C123.573 49.4706 123.662 49.0282 123.662 48.471V44.425C123.662 44.0302 123.632 43.7334 123.573 43.5402C123.514 43.347 123.396 43.1706 123.22 43.0082C122.976 42.773 122.646 42.6246 122.234 42.5658V41.2021C123.97 41.2021 125.25 41.3673 126.076 41.695C127.028 42.073 127.781 42.6554 128.338 43.4394C128.904 44.2402 129.184 45.223 129.184 46.385C129.184 47.6842 128.898 48.7454 128.324 49.5714C127.75 50.389 126.95 50.991 125.922 51.3802C125.071 51.691 123.844 51.8478 122.243 51.8478L122.246 51.845Z" fill="#263844"/>
<path d="M134.935 44.4138L135.579 47.0318L133.342 55.1967C133.274 55.4319 133.241 55.6531 133.241 55.8547C133.241 56.3867 133.49 56.7647 133.986 56.9915L134.428 57.1931C134.705 57.3191 134.845 57.5291 134.845 57.8259C134.845 58.2487 134.537 58.4587 133.921 58.4587H130.71C130.399 58.4587 130.152 58.3943 129.97 58.2627C129.788 58.1311 129.699 57.9519 129.699 57.7251C129.699 57.4815 129.884 57.2799 130.256 57.1175C130.6 56.9663 130.855 56.8291 131.02 56.7059C131.186 56.5827 131.342 56.4175 131.494 56.2075C131.729 55.8631 131.922 55.4039 132.076 54.8299L134.932 44.4138H134.935ZM135.808 41.2021H140.902L144.416 56.0563C144.483 56.3167 144.558 56.5491 144.642 56.7507C144.718 56.9103 144.886 57.0419 145.149 57.1427C145.368 57.2351 145.519 57.3275 145.606 57.4199C145.69 57.5123 145.731 57.6383 145.731 57.7979C145.731 58.2375 145.404 58.4559 144.746 58.4559H138.438C138.186 58.4559 137.981 58.3943 137.83 58.2739C137.679 58.1507 137.603 57.9883 137.603 57.7867C137.603 57.6187 137.637 57.4927 137.704 57.4087C137.771 57.3247 137.922 57.2183 138.16 57.0923C138.328 57.0083 138.446 56.9159 138.513 56.8151C138.58 56.7143 138.614 56.5883 138.614 56.4371C138.614 56.2943 138.6 56.1683 138.575 56.0591L138.172 54.2251H134.644L134.985 52.7214H137.816L135.489 42.4454L135.806 41.2077L135.808 41.2021Z" fill="#263844"/>
<path d="M153.67 41.2021V58.4587H147.717C147.414 58.4587 147.179 58.4027 147.014 58.2879C146.849 58.1731 146.768 58.0107 146.768 57.8007C146.768 57.4563 146.936 57.2267 147.274 57.1175C147.552 57.0251 147.714 56.9691 147.762 56.9467C147.809 56.9271 147.857 56.8767 147.907 56.8011C148.008 56.6667 148.058 56.4511 148.058 56.1571V43.5038C148.058 43.2098 148.008 42.9942 147.907 42.8598C147.857 42.7842 147.809 42.7366 147.762 42.7142C147.714 42.6946 147.554 42.6358 147.274 42.5434C146.938 42.4342 146.768 42.2074 146.768 41.8602C146.768 41.6502 146.849 41.4878 147.014 41.3729C147.179 41.2581 147.412 41.2021 147.717 41.2021H153.67ZM156.223 54.8411V44.8674C156.223 44.2514 156.134 43.7642 155.957 43.4002C155.848 43.165 155.714 42.9914 155.554 42.8822C155.394 42.773 155.142 42.6806 154.795 42.605V41.2021C155.24 41.2021 155.621 41.2189 155.932 41.2525C157.002 41.3701 158.038 41.8266 159.043 42.619C160.037 43.3862 160.776 44.3858 161.255 45.615C161.753 46.861 162 48.2442 162 49.7618C162 51.481 161.683 53.0098 161.05 54.3455C160.418 55.6811 159.513 56.7339 158.332 57.4983C157.758 57.8679 157.226 58.1227 156.733 58.2571C156.24 58.3915 155.593 58.4587 154.792 58.4587V57.0923C155.145 56.9999 155.392 56.9159 155.532 56.8403C155.672 56.7647 155.792 56.6471 155.893 56.4875C156.019 56.3027 156.106 56.0927 156.153 55.8631C156.201 55.6307 156.223 55.2919 156.223 54.8467V54.8411Z" fill="#263844"/>
</g>
<defs>
<clipPath id="clip0_4644_110437">
<rect width="140" height="17.5954" fill="white" transform="translate(22 41.2021)"/>
</clipPath>
</defs>
</svg>
