<svg xmlns="http://www.w3.org/2000/svg" width="64" height="24" viewBox="0 0 64 24">
    <path fill="currentColor" fill-rule="evenodd" d="M27.642 22.11V8.319l3.411-.665v15.15l-3.411-.694zm8.919-8.294c0-4.117 2.437-5.341 6.187-6.196l1.966-.318v3.555l-1.966.36c-1.69.322-2.775 1.191-2.775 3.115v8.471l-3.412-.693v-8.294zm-14.427-.495v9.482l-3.411-.693v-8.79c0-1.503-1.099-2.573-2.718-2.573s-2.718 1.07-2.718 2.574v9.482l-3.411-.693v-8.79c0-1.503-1.099-2.573-2.718-2.573-1.648 0-2.746 1.07-2.746 2.574v9.482L1 22.11V8.319l3.412-.665v1.561c.954-1.156 2.4-1.88 4.047-1.88 1.34 0 2.98.742 3.907 2.069.929-1.209 2.482-2.002 4.388-2.028 2.4-.032 5.38 1.463 5.38 5.945zm33.278 9.8c-4.738 0-7.907-3.168-7.907-7.907s3.169-7.878 7.907-7.878c4.564 0 7.588 3.14 7.588 7.878 0 4.739-3.024 7.908-7.588 7.908zm0-3.197c2.471 0 4.1-1.89 4.1-4.71 0-2.82-1.629-4.68-4.1-4.68-2.645 0-4.419 1.86-4.419 4.68 0 2.82 1.774 4.71 4.42 4.71zM29.42 5.294c-1.289 0-2.15-.862-2.15-2.151 0-1.29.861-2.143 2.15-2.143 1.241 0 2.064.854 2.064 2.143 0 1.289-.823 2.15-2.064 2.15z"/>
</svg>
