<svg xmlns="http://www.w3.org/2000/svg" width="185" height="32" viewBox="0 0 185 32" fill="#54565A"><path d="M46.418 8.975l-8.484 22.09h2.711l2.246-6.2h8.547l2.214 6.2h2.712l-8.43-22.09h-1.52.004zm3.898 13.24h-6.388l3.214-8.142 3.173 8.143zM73.11 15.48h-2.82l-4.61 10.5h-.176l-4.568-10.5h-2.838l6.74 15.488h1.5l6.772-15.487zM85.646 31.197h-.322c-.728-.013-2.666-.05-4.513-1.366-1.454-1.031-2.119-2.32-2.373-2.806a8.41 8.41 0 01-.946-3.837c-.013-2.636 1.014-4.365 1.88-5.355 1.928-2.205 4.517-2.545 5.54-2.586.177-.01.295-.01.394-.01 2.572 0 4.251 1.037 5.216 1.908 2.53 2.292 2.485 5.355 2.485 5.483l-.032 1.284H80.141c.108.803.371 1.449.597 1.89.186.361.625 1.205 1.567 1.874 1.2.853 2.462.876 3.07.89.656.018 2.01.036 3.268-.88a4.656 4.656 0 001.276-1.417l2.228 1.348a7.259 7.259 0 01-1.988 2.2c-1.734 1.261-3.563 1.376-4.504 1.376l-.01.004zm-5.293-9.907h9.83a4.941 4.941 0 00-1.395-2.183c-.915-.83-2.083-1.206-3.504-1.238-.064 0-.15 0-.258.005-.693.027-2.44.252-3.708 1.701a4.726 4.726 0 00-.96 1.715h-.005zM102.501 30.968h-2.595V8.925h6.954c3.64 0 6.601 2.998 6.601 6.684 0 1.802-.697 3.49-1.96 4.755a6.562 6.562 0 01-4.713 1.93l-4.283-.05v8.724h-.004zm0-11.352l4.314.05a3.907 3.907 0 002.861-1.173 4.067 4.067 0 001.191-2.884c0-2.237-1.797-4.057-4.007-4.057h-4.355v8.064h-.004zM124.399 15.522c-2.336 0-4.265.743-5.736 2.205-1.472 1.467-2.219 3.411-2.219 5.777s.752 4.282 2.237 5.763c1.48 1.481 3.404 2.233 5.718 2.233 2.313 0 4.264-.747 5.736-2.215 1.471-1.471 2.218-3.415 2.218-5.78 0-2.367-.752-4.278-2.236-5.76-1.481-1.476-3.405-2.223-5.718-2.223zm5.138 7.982c0 1.559-.475 2.843-1.417 3.824-.937.976-2.191 1.472-3.726 1.472-1.535 0-2.789-.496-3.726-1.472-.937-.981-1.417-2.265-1.417-3.824 0-1.559.485-2.815 1.44-3.805.955-.99 2.2-1.49 3.699-1.49 1.498 0 2.788.49 3.725 1.462.938.972 1.418 2.265 1.418 3.833h.004zM141.403 10.763c-1.145 0-1.775.619-1.775 1.742s.643 1.724 1.811 1.724 1.757-.6 1.757-1.687c0-1.146-.638-1.779-1.793-1.779zm-4.066 7.661h2.794v12.86h2.576V15.812h-5.37v2.613zM157.117 15.522c-1.417 0-2.649.362-3.681 1.077v-.894h-2.598v15.543h2.598V22.22c0-1.215.326-2.196.974-2.915.647-.725 1.53-1.078 2.707-1.078 2.309 0 3.427 1.353 3.427 4.13v8.895h2.599v-8.93c0-4.512-2.029-6.795-6.026-6.795v-.005zM181.528 27.204l-.199.206c-.815.849-1.78 1.266-2.943 1.266-1.164 0-2.132-.404-2.947-1.229-.806-.816-1.214-1.825-1.214-2.99v-5.914h3.35v-2.686h-3.35V9.145h-2.635v6.712h-1.946v2.686h1.946v5.915c-.009 1.87.661 3.493 2.006 4.828 1.34 1.33 2.952 2.008 4.794 2.008 1.843 0 3.473-.688 4.777-2.036l.194-.202-1.838-1.843.005-.009zM183.438 10.35a.285.285 0 00-.022-.105.185.185 0 00-.077-.078.28.28 0 00-.109-.037 1.356 1.356 0 00-.154-.009h-.131v.51h.099c.064 0 .123-.005.177-.015a.253.253 0 00.127-.055.19.19 0 00.068-.087.375.375 0 00.022-.128m.738 1.27h-.543l-.521-.665h-.172v.665h-.421V9.805h.652c.122 0 .217.004.29.014.072.009.145.036.217.073.082.046.14.105.177.17a.502.502 0 01.054.247.496.496 0 01-.109.33.724.724 0 01-.276.197l.652.78zm.426-.862c0-.39-.136-.724-.412-1.004a1.33 1.33 0 00-.987-.422c-.385 0-.716.142-.987.422a1.39 1.39 0 00-.408 1.004c0 .39.136.724.408 1.008.271.28.602.422.987.422s.715-.142.987-.421a1.4 1.4 0 00.412-1.01zm.398 0c0 .5-.176.93-.525 1.284a1.723 1.723 0 01-1.268.531 1.72 1.72 0 01-1.267-.531 1.772 1.772 0 01-.525-1.284c0-.5.176-.93.525-1.284a1.72 1.72 0 011.267-.532c.494 0 .919.18 1.268.532.349.353.525.784.525 1.284z"/><path fill-rule="evenodd" clip-rule="evenodd" d="M8.982 25.054c0-3.86 3.3-6.946 7.198-6.51 2.898.32 5.288 2.672 5.677 5.593.38 2.829-1.027 5.369-3.237 6.63-.1.055-.063.201.05.201h12.328L15.646.59a.162.162 0 00-.29 0L0 30.97h12.237c.113 0 .145-.148.05-.203a6.569 6.569 0 01-3.3-5.712m20.73-19.417c0 2.531-2.028 4.585-4.527 4.585-2.5 0-4.532-2.054-4.532-4.585 0-2.53 2.028-4.59 4.531-4.59 2.504 0 4.528 2.055 4.528 4.59z" fill="#FF4438"/></svg>