<svg id="Layer_1" data-name="Layer 1" xmlns="http://www.w3.org/2000/svg" viewBox="0 0 512 512"><defs><style>.cls-1{fill:#fff;}.cls-2{fill:#00aff0;}</style></defs><rect width="512" height="512" rx="76.5"/><path class="cls-1" d="M343.74,196q-31.2-27.69-89.37-27.7a220.56,220.56,0,0,0-58.88,7.91q-28.62,7.92-49.1,22.35l26.06,50.73q13.49-10.69,32.82-17A126.29,126.29,0,0,1,244.6,226q28.85,0,43.28,12.8t14.43,36.54H244.6q-54.94,0-81.23,20t-26.29,54.92q0,21.88,11.17,39.1t32.35,27q21.17,9.78,50,9.77,55.86,0,76.34-34.91V422.4h67.95V279.51Q374.92,223.65,343.74,196ZM302.31,343.27q-6.06,16.75-20.48,25.37t-33,8.61q-19.09,0-30-8.14T207.83,347q0-29.33,44.68-29.33h49.8Z"/><rect class="cls-2" x="175.71" y="85.88" width="172.22" height="40.96"/></svg>