<svg width="150" height="151" viewBox="0 0 150 151" fill="none" xmlns="http://www.w3.org/2000/svg">
<g clip-path="url(#clip0_11774_145181)">
<mask id="path-2-inside-1_11774_145181" fill="white">
<path d="M74.8193 0.517578C116.128 0.517578 149.616 34.0053 149.616 75.3145C149.616 116.624 116.128 150.111 74.8193 150.111C33.5103 150.111 0.0224733 116.624 0.0224609 75.3145C0.0224609 34.0053 33.5103 0.517668 74.8193 0.517578ZM74.3262 49.3135C59.9669 49.3137 48.3263 60.9542 48.3262 75.3135C48.3262 89.6729 59.9669 101.313 74.3262 101.313C88.6857 101.313 100.327 89.673 100.327 75.3135C100.327 60.954 88.6856 49.3135 74.3262 49.3135Z"/>
</mask>
<path d="M74.8193 0.517578C116.128 0.517578 149.616 34.0053 149.616 75.3145C149.616 116.624 116.128 150.111 74.8193 150.111C33.5103 150.111 0.0224733 116.624 0.0224609 75.3145C0.0224609 34.0053 33.5103 0.517668 74.8193 0.517578ZM74.3262 49.3135C59.9669 49.3137 48.3263 60.9542 48.3262 75.3135C48.3262 89.6729 59.9669 101.313 74.3262 101.313C88.6857 101.313 100.327 89.673 100.327 75.3135C100.327 60.954 88.6856 49.3135 74.3262 49.3135Z" fill="#1A1A1A"/>
<path d="M74.8193 0.517578V-5.28107H74.8193L74.8193 0.517578ZM149.616 75.3145H155.415H149.616ZM74.8193 150.111L74.8193 155.91H74.8193V150.111ZM0.0224609 75.3145H-5.77619H0.0224609ZM74.3262 49.3135V43.5148H74.3261L74.3262 49.3135ZM48.3262 75.3135L42.5275 75.3134V75.3135H48.3262ZM74.3262 101.313L74.3261 107.112H74.3262V101.313ZM100.327 75.3135H106.126V75.3134L100.327 75.3135ZM74.8193 0.517578V6.31622C112.926 6.31622 143.818 37.2078 143.818 75.3145H149.616H155.415C155.415 30.8028 119.331 -5.28107 74.8193 -5.28107V0.517578ZM149.616 75.3145H143.818C143.818 113.421 112.926 144.313 74.8193 144.313V150.111V155.91C119.331 155.91 155.415 119.826 155.415 75.3145H149.616ZM74.8193 150.111L74.8194 144.313C36.7128 144.313 5.82112 113.421 5.82111 75.3145H0.0224609H-5.77619C-5.77617 119.826 30.3078 155.91 74.8193 155.91L74.8193 150.111ZM0.0224609 75.3145H5.82111C5.82111 37.2079 36.7127 6.31631 74.8194 6.31622L74.8193 0.517578L74.8193 -5.28107C30.3078 -5.28097 -5.77619 30.8028 -5.77619 75.3145H0.0224609ZM74.3262 49.3135L74.3261 43.5148C56.7644 43.5151 42.5276 57.7516 42.5275 75.3134L48.3262 75.3135L54.1248 75.3135C54.1249 64.1567 63.1694 55.1123 74.3263 55.1121L74.3262 49.3135ZM48.3262 75.3135H42.5275C42.5275 92.8755 56.7644 107.112 74.3261 107.112L74.3262 101.313L74.3263 95.5148C63.1693 95.5146 54.1248 86.4703 54.1248 75.3135H48.3262ZM74.3262 101.313V107.112C91.8879 107.112 106.126 92.8758 106.126 75.3135H100.327H94.5285C94.5285 86.4702 85.4835 95.5148 74.3262 95.5148V101.313ZM100.327 75.3135L106.126 75.3134C106.126 57.7513 91.8879 43.5148 74.3262 43.5148V49.3135V55.1121C85.4834 55.1121 94.5284 64.1568 94.5285 75.3135L100.327 75.3135Z" fill="white" mask="url(#path-2-inside-1_11774_145181)"/>
<path d="M116.288 13.2803L88.7762 53.6317M31.704 137.608L59.4252 96.8189" stroke="white" stroke-width="7"/>
<path d="M31.8745 14.0015L59.1079 54.1411M115.835 137.609L88.3752 97.2052" stroke="white" stroke-width="7"/>
<path d="M149.432 75.3394L100.246 75.3097M-0.240423 75.2471L47.9599 75.2775" stroke="white" stroke-width="7"/>
</g>
<defs>
<clipPath id="clip0_11774_145181">
<rect y="0.517578" width="149.594" height="149.594" rx="74.7969" fill="white"/>
</clipPath>
</defs>
</svg>
