<svg width="132" height="34" viewBox="0 0 132 34" fill="none" xmlns="http://www.w3.org/2000/svg">
<path d="M12.818 1.1761C16.3155 0.290153 19.9047 0.575009 23.2125 1.98177L22.3766 3.94271C19.5025 2.71687 16.3837 2.4736 13.3444 3.24349C5.77622 5.16067 1.18676 12.8634 3.10316 20.429C5.01963 27.9947 12.7309 32.5818 20.2887 30.6673C27.8463 28.7528 32.4412 21.0404 30.527 13.4827L32.5953 12.9583C34.8001 21.6621 29.5159 30.5309 20.8121 32.7357C12.1085 34.9402 3.24051 29.6561 1.03578 20.9525C-1.16876 12.2488 4.11438 3.38086 12.818 1.1761ZM6.8141 14.3441C6.59111 15.193 6.48109 16.0664 6.48109 16.9583C6.48116 22.6646 11.1236 27.2992 16.8219 27.2992V29.432L16.819 29.429C9.93856 29.429 4.34437 23.8358 4.34437 16.9554C4.34438 15.8942 4.48173 14.83 4.74769 13.8118L6.8141 14.3441ZM16.8112 8.28548C17.8133 8.28548 18.7918 8.4582 19.7321 8.79134L19.0114 10.7952C18.3104 10.5482 17.5639 10.4193 16.8092 10.4193C13.2012 10.4193 10.2645 13.358 10.2643 16.9632C10.2643 20.5687 13.2038 23.5081 16.8092 23.5081C20.4144 23.5079 23.3532 20.5685 23.3532 16.9632C23.3531 16.7055 23.337 16.458 23.3102 16.2083L25.4274 15.97C25.4623 16.3031 25.4869 16.639 25.4869 16.972C25.4868 21.7513 21.5963 25.6418 16.817 25.6419L16.8092 25.6253H16.8112C12.0318 25.6252 8.14125 21.7348 8.14125 16.9554C8.14136 12.1761 12.0319 8.28562 16.8112 8.28548Z" fill="#8B5CF6"/>
<path d="M109.243 6.36047H104.869C104.799 6.36047 104.746 6.41306 104.746 6.47442V27.7966C104.746 27.8609 104.799 27.9106 104.869 27.9106H109.243C109.31 27.9106 109.365 27.858 109.365 27.7966V6.47442C109.365 6.41014 109.313 6.36047 109.243 6.36047Z" fill="#210561"/>
<path d="M131.464 6.6088C131.464 6.57374 131.455 6.54452 131.446 6.51531C131.435 6.48609 131.417 6.4598 131.391 6.43642C131.368 6.41305 131.338 6.39552 131.309 6.38383C131.28 6.37215 131.245 6.3663 131.213 6.3663H114.013C113.946 6.3663 113.884 6.3926 113.835 6.43934C113.785 6.48609 113.762 6.55037 113.762 6.61464V10.4741C113.762 10.5092 113.77 10.5384 113.779 10.5676C113.791 10.5969 113.808 10.6231 113.835 10.6465C113.858 10.6699 113.887 10.6874 113.917 10.6991C113.946 10.7108 113.981 10.7166 114.013 10.7166H120.368V27.671C120.368 27.7002 120.376 27.7353 120.385 27.7645C120.397 27.7937 120.414 27.8229 120.441 27.8434C120.464 27.8667 120.493 27.8843 120.522 27.8959C120.552 27.9076 120.587 27.9164 120.619 27.9164H124.598C124.63 27.9164 124.665 27.9076 124.695 27.8959C124.724 27.8843 124.753 27.8667 124.776 27.8434C124.8 27.82 124.817 27.7937 124.832 27.7645C124.844 27.7353 124.849 27.7031 124.849 27.671V10.7137H131.204C131.236 10.7137 131.271 10.705 131.3 10.6962C131.33 10.6845 131.359 10.667 131.382 10.6436C131.406 10.6202 131.423 10.5939 131.438 10.5647C131.449 10.5355 131.455 10.5034 131.455 10.4712V6.61172H131.458L131.464 6.6088Z" fill="#210561"/>
<path d="M45.7285 23.5602V6.60881C45.7285 6.54454 45.7022 6.48026 45.6525 6.43351C45.6028 6.38677 45.5386 6.36047 45.4684 6.36047H41.3577C41.2876 6.36047 41.2233 6.38677 41.1736 6.43351C41.1239 6.48026 41.0977 6.54454 41.0977 6.60881V27.6681C41.0977 27.6973 41.1064 27.7323 41.1181 27.7616C41.1298 27.7908 41.1473 27.82 41.1765 27.8404C41.1999 27.8638 41.2291 27.8814 41.2613 27.893C41.2934 27.9047 41.3255 27.9135 41.3606 27.9135H57.0031C57.0382 27.9135 57.0732 27.9047 57.1025 27.893C57.1346 27.8814 57.1638 27.8638 57.1872 27.8404C57.2106 27.8171 57.231 27.7908 57.2456 27.7616C57.2573 27.7323 57.2661 27.7002 57.2661 27.6681V23.8086C57.2661 23.7443 57.2398 23.68 57.1901 23.6333C57.1404 23.5865 57.0762 23.5602 57.006 23.5602H45.7343H45.7285Z" fill="#210561"/>
<path d="M76.5124 10.4683V6.60881C76.5124 6.54454 76.4861 6.48026 76.4393 6.43351C76.3926 6.38677 76.3312 6.36047 76.264 6.36047H61.3665C61.3344 6.36047 61.3022 6.36924 61.273 6.378C61.2438 6.38969 61.2146 6.40722 61.1941 6.43059C61.1737 6.45397 61.1532 6.48026 61.1386 6.50948C61.1269 6.53869 61.1211 6.57083 61.1211 6.60297V27.6622C61.1211 27.6973 61.1269 27.7265 61.1386 27.7557C61.1503 27.7849 61.1678 27.8142 61.1941 27.8346C61.2175 27.858 61.2438 27.8755 61.273 27.8872C61.3022 27.8989 61.3344 27.9076 61.3665 27.9076H76.2611C76.2932 27.9076 76.3283 27.8989 76.3546 27.8872C76.3838 27.8755 76.413 27.858 76.4335 27.8346C76.4539 27.8112 76.4744 27.7849 76.489 27.7557C76.5007 27.7265 76.5065 27.6944 76.5065 27.6622V23.8027C76.5065 23.7385 76.4802 23.6742 76.4335 23.6274C76.3867 23.5807 76.3254 23.5544 76.2582 23.5544H65.524V19.3034H74.0915C74.1587 19.3034 74.2201 19.2771 74.2668 19.2303C74.3135 19.1836 74.3398 19.1193 74.3398 19.055V15.1955C74.3398 15.1313 74.3135 15.067 74.2668 15.0202C74.2201 14.9735 74.1587 14.9472 74.0915 14.9472H65.524V10.6962H76.2582C76.2903 10.6962 76.3254 10.6874 76.3517 10.6787C76.3809 10.667 76.4101 10.6495 76.4306 10.6261C76.451 10.6027 76.4715 10.5764 76.4861 10.5472C76.4977 10.518 76.5036 10.4858 76.5036 10.4537H76.5065L76.5124 10.4683Z" fill="#210561"/>
<path d="M90.8403 28.1122C84.6347 28.2378 79.3407 23.6391 78.92 17.7286C78.7476 15.4205 79.3378 13.1182 80.597 11.1403C81.8592 9.16233 83.7407 7.61386 85.9699 6.69646C88.2021 5.7849 90.6738 5.55409 93.0432 6.04201C95.4127 6.52993 97.5718 7.71319 99.2079 9.41944L99.3277 9.54507C99.3511 9.56844 99.3715 9.60058 99.3832 9.6298C99.3949 9.66194 99.3978 9.697 99.3978 9.72621C99.3978 9.76127 99.3862 9.79341 99.3715 9.82263C99.3569 9.85476 99.3336 9.88106 99.3043 9.90151L96.1986 12.4755C96.149 12.5193 96.0788 12.5427 96.0116 12.5368C95.9415 12.5368 95.8802 12.5047 95.8334 12.458L95.7166 12.3411C95.0387 11.6487 94.2177 11.1023 93.3033 10.7342C92.3888 10.3719 91.3984 10.1937 90.4079 10.2229C86.712 10.3164 83.6764 13.1825 83.5479 16.706C83.5011 17.9623 83.8196 19.2011 84.474 20.2909C85.1285 21.3778 86.0897 22.2747 87.2467 22.8678C88.4066 23.4638 89.7155 23.7355 91.0273 23.6537C92.3391 23.5748 93.6042 23.1454 94.6764 22.4149L95.2462 22.0001V16.7791C95.2462 16.7119 95.2725 16.6447 95.3251 16.5979C95.3747 16.5512 95.4419 16.5249 95.512 16.5249H99.4124C99.4475 16.5249 99.4826 16.5337 99.5147 16.5453C99.5468 16.557 99.5761 16.5775 99.5994 16.6009C99.6228 16.6242 99.6433 16.6505 99.6579 16.6827C99.6695 16.7148 99.6783 16.744 99.6783 16.7791V23.978L99.5761 24.0949C98.3694 25.471 96.8355 26.552 95.0972 27.2444C93.7503 27.7849 92.307 28.0742 90.8403 28.1005H90.8432L90.8403 28.1122Z" fill="#210561"/>
</svg>
