<?xml version="1.0" encoding="utf-8"?>
<!-- Generator: Adobe Illustrator 13.0.2, SVG Export Plug-In . SVG Version: 6.00 Build 14948)  -->
<!DOCTYPE svg PUBLIC "-//W3C//DTD SVG 1.1//EN" "http://www.w3.org/Graphics/SVG/1.1/DTD/svg11.dtd">
<svg version="1.1" id="Layer_1" xmlns="http://www.w3.org/2000/svg" xmlns:xlink="http://www.w3.org/1999/xlink" x="0px" y="0px"
	 width="720px" height="264px" viewBox="0 0 720 263.625" enable-background="new 0 0 720 263.625" xml:space="preserve">
<g>
	<g>
		<path d="M43.016,54.102h32.531c22.969,0,34.711,13.516,34.711,42.031c0,21-6.688,42.438-31.266,42.438H43.016V54.102
			 M389.023,149.766c-0.234-0.023-0.477-0.055-0.711-0.07C388.547,149.711,388.789,149.742,389.023,149.766 M450.484,19.711h-37.883
			l-43.734,128.156c-2.812-0.242-5.617-0.5-8.453-0.719c2.898-5.828,4.648-12.891,4.648-21.859
			c0-27.016-14.461-38.594-38.508-43.523c-12.648-2.578-45.742-8.367-56.57-10.516c-6.508-1.273-9.578-4.266-9.578-9.43
			c0-10.062,7.945-15,22.414-15c19.695,0,26.75,7.281,28.016,17.789h48.805c-2.711-36.219-30.922-49.516-77.719-49.516
			c-56.578,0-67.062,28.508-67.062,48.656c0,22.727,10.305,38.609,36.867,43.305l43.023,7.711c15,2.797,20.422,5.586,20.422,13.742
			c0,9.578-6.328,13.719-13.961,15.258c-7.562-0.273-15.18-0.477-22.898-0.641c-10.656-2.648-13.844-8.852-14.641-17.406H212.68
			c0.43,7.055,1.648,12.828,3.594,17.805c-3.461,0.117-6.906,0.258-10.352,0.422V19.812h-43.016v126.719
			c-7.336,0.578-14.594,1.305-21.867,2.039c8.57-11.188,13.68-27.422,13.68-52.227c0-51.016-21.508-76.531-61.453-76.531H0v151.383
			c0.703-0.102,1.422-0.219,2.125-0.336c65.57-10.039,137.086-15,212.141-13.367C449.156,162.578,626.672,198.664,720,263.625
			c-59.133-53.391-166.43-94.406-311.984-111.75c0.055,0,0.117,0.008,0.164,0.016l29.312-95.008L450.484,19.711z"/>
		<g>
			<defs>
				<polygon id="SVGID_1_" points="425.633,19.711 463.281,19.711 540.898,232.5 495.984,232.5 437.859,56.883 				"/>
			</defs>
			<clipPath id="SVGID_2_">
				<use xlink:href="#SVGID_1_"  overflow="visible"/>
			</clipPath>
			<g clip-path="url(#SVGID_2_)">
				<defs>
					<rect id="SVGID_3_" x="425.633" y="19.711" width="115.266" height="212.789"/>
				</defs>
				<clipPath id="SVGID_4_">
					<use xlink:href="#SVGID_3_"  overflow="visible"/>
				</clipPath>
				
					<linearGradient id="SVGID_5_" gradientUnits="userSpaceOnUse" x1="122.7197" y1="393.6074" x2="131.7842" y2="393.6074" gradientTransform="matrix(-4.6116 -26.1539 -26.1539 4.6116 11364.082 1636.8)">
					<stop  offset="0" style="stop-color:#640398"/>
					<stop  offset="0.0393" style="stop-color:#640398"/>
					<stop  offset="0.1599" style="stop-color:#610394"/>
					<stop  offset="0.2873" style="stop-color:#590387"/>
					<stop  offset="0.418" style="stop-color:#4B0272"/>
					<stop  offset="0.551" style="stop-color:#370254"/>
					<stop  offset="0.6855" style="stop-color:#1E012E"/>
					<stop  offset="0.8202" style="stop-color:#000000"/>
					<stop  offset="1" style="stop-color:#000000"/>
				</linearGradient>
				<polygon clip-path="url(#SVGID_4_)" fill="url(#SVGID_5_)" points="429.109,252.211 389.242,26.133 537.414,0 577.281,226.078 
									"/>
			</g>
		</g>
	</g>
</g>
</svg>
