<svg xmlns="http://www.w3.org/2000/svg" xmlns:xlink="http://www.w3.org/1999/xlink" version="1.1" id="web-logo" x="0px" y="0px" viewBox="0 0 246.2 38.6" enable-background="new 0 0 246.2 38.6" xml:space="preserve">
<g id="main-color">
<path d="M95.6,2.1c0-0.8,0.6-1.4,1.4-1.4c0.8,0,1.4,0.6,1.4,1.4c0,0.8-0.6,1.4-1.4,1.4C96.2,3.5,95.6,2.9,95.6,2.1z M96.9,3.8   c0.9,0,1.7-0.7,1.7-1.7c0-1-0.8-1.7-1.7-1.7c-0.9,0-1.7,0.7-1.7,1.7C95.2,3,96,3.8,96.9,3.8z M96.6,2.2h0.3L97.4,3h0.3l-0.6-0.9   c0.3,0,0.5-0.2,0.5-0.5c0-0.4-0.2-0.6-0.7-0.6h-0.7v2h0.3V2.2z M96.6,1.9V1.3H97c0.2,0,0.4,0,0.4,0.3c0,0.3-0.2,0.3-0.5,0.3H96.6z"></path>
<path fill="#00549B" d="M89.6,0H4.5C2.1,0,0.2,1.9,0.2,4.3v30c0,2.4,1.9,4.3,4.3,4.3h85.1c2.4,0,4.3-1.9,4.3-4.3v-30   C94,1.9,92,0,89.6,0z M36.4,29.2h-10v-8.5h-6.7v8.5h-10V9.4h10v8.5h6.7V9.4h10V29.2z M51.8,29.2h-10V9.4h10V29.2z M73.2,29.3H56.9   V9.4h16.3c5.7,0,10.9,4.3,10.9,10C84.1,25,78.9,29.3,73.2,29.3z"></path>
<path fill="#00549B" d="M66.7,11.2v16.3c4.1,0,6.5,0.7,6.5-8.1C73.2,10.5,70.4,11.2,66.7,11.2z"></path>
</g>
<text transform="matrix(1 0 0 1 110.7443 17.2803)"><tspan x="0" y="0" fill="#84898C" font-family="Gotham" font-size="14px">Powering</tspan><tspan x="0" y="15" fill="#84898C" font-family="Gotham" font-size="14px" style="font-weight: bold;">Trusted Identities</tspan></text>
<image src="https://www3.hidglobal.com/svg-embed/en/20823/fallback.png"></image></svg>