<svg class="logo-embed" fill="none" height="34" preserveaspectratio="xMidYMid meet" viewBox="0 0 156 34" width="156" xmlns="http://www.w3.org/2000/svg">
<g clip-path="url(#clip0_13_5053)">
<path d="M134.403 16.646C134.366 12.965 135.88 9.47889 138.896 7.62489C142.405 5.40394 147.806 6.14104 150.199 9.54506V6.68293H155.308V26.7541H150.199V23.8195C146.543 28.9401 138.278 27.7885 135.599 22.1167C134.802 20.5226 134.403 18.699 134.403 16.646ZM150.199 16.7185C150.213 14.5069 149.332 12.5788 147.518 11.5377C145.045 10.0409 141.672 10.9349 140.309 13.5303C139.326 15.2269 139.359 18.1105 140.309 19.8342C141.671 22.4479 145.018 23.3969 147.518 21.9356C149.348 20.8497 150.215 18.9424 150.199 16.7185Z" fill="CurrentColor"></path>
<path d="M34.5573 0H13.377V8.36066H34.5573V0Z" fill="CurrentColor"></path>
<path d="M21.1803 25.6394H0V34.0001H21.1803V25.6394Z" fill="CurrentColor"></path>
<path d="M8.36066 0H0V8.36066H8.36066V0Z" fill="CurrentColor"></path>
<path d="M34.5569 25.6394H26.1963V34.0001H34.5569V25.6394Z" fill="CurrentColor"></path>
<path d="M17.1733 21.7376C19.7898 21.7376 21.911 19.6165 21.911 16.9999C21.911 14.3834 19.7898 12.2622 17.1733 12.2622C14.5567 12.2622 12.4355 14.3834 12.4355 16.9999C12.4355 19.6165 14.5566 21.7376 17.1733 21.7376Z" fill="#F4A72B"></path>
<path d="M8.36066 12.8196H0V21.1802H8.36066V12.8196Z" fill="CurrentColor"></path>
<path d="M34.5569 12.8198H26.1963V21.1805H34.5569V12.8198Z" fill="CurrentColor"></path>
<path d="M55.8855 27.0802C54.2432 27.0802 52.7698 26.7904 51.4656 26.2107C50.1613 25.6068 49.1227 24.7978 48.3498 23.7833C47.6011 22.7689 47.1905 21.6458 47.118 20.414H52.2264C52.323 21.1868 52.6974 21.8269 53.3495 22.3341C54.0258 22.8414 54.8591 23.095 55.8492 23.095C56.8152 23.095 57.5643 22.9017 58.0955 22.5153C58.6512 22.1288 58.9287 21.6337 58.9287 21.0299C58.9287 20.3778 58.5904 19.8947 57.9143 19.5807C57.2622 19.2425 56.2115 18.8802 54.7625 18.4938C53.265 18.1315 52.0332 17.7571 51.0671 17.3707C50.1251 16.9842 49.3039 16.3925 48.6035 15.5955C47.9271 14.7984 47.589 13.7236 47.589 12.371C47.589 11.26 47.903 10.2455 48.531 9.32775C49.1831 8.40992 50.1009 7.68533 51.2844 7.15398C52.492 6.62258 53.905 6.35693 55.5233 6.35693C57.9143 6.35693 59.8222 6.96074 61.2474 8.16841C62.6727 9.35189 63.4574 10.9581 63.6024 12.9869H58.7476C58.6751 12.1899 58.3368 11.5619 57.7332 11.103C57.1535 10.6199 56.3687 10.3784 55.3784 10.3784C54.4605 10.3784 53.748 10.5475 53.2408 10.8856C52.7578 11.2237 52.5162 11.6947 52.5162 12.2986C52.5162 12.9748 52.8543 13.4941 53.5307 13.8564C54.2069 14.1945 55.2576 14.5448 56.6825 14.9071C58.1317 15.2694 59.3273 15.6437 60.2692 16.0302C61.2112 16.4166 62.0205 17.0204 62.6966 17.8417C63.3972 18.6387 63.7595 19.7014 63.7835 21.0299C63.7835 22.1892 63.4574 23.2278 62.8053 24.1456C62.1771 25.0634 61.2597 25.788 60.0519 26.3194C58.8686 26.8266 57.4796 27.0802 55.8855 27.0802Z" fill="CurrentColor"></path>
<path d="M85.1558 16.2838C85.1558 17.0084 85.1073 17.6605 85.0109 18.2402H70.338C70.4589 19.6894 70.9661 20.8245 71.8596 21.6458C72.7531 22.467 73.8522 22.8776 75.1565 22.8776C77.0404 22.8776 78.3809 22.0684 79.178 20.4502H84.6486C84.0689 22.3824 82.9581 23.9765 81.3155 25.2325C79.6729 26.4643 77.6563 27.0802 75.2652 27.0802C73.3327 27.0802 71.5937 26.6575 70.0481 25.8122C68.5265 24.9427 67.3309 23.7229 66.4614 22.153C65.6159 20.583 65.1934 18.7716 65.1934 16.7186C65.1934 14.6414 65.6159 12.8178 66.4614 11.2479C67.3069 9.67795 68.4902 8.47028 70.0119 7.62497C71.5335 6.77959 73.2848 6.35693 75.2652 6.35693C77.1731 6.35693 78.8759 6.7675 80.3735 7.58874C81.8952 8.40992 83.0668 9.58136 83.8878 11.103C84.7333 12.6004 85.1558 14.3274 85.1558 16.2838ZM79.9025 14.8346C79.8786 13.5304 79.4076 12.4918 78.4896 11.7189C77.5716 10.9219 76.4485 10.5233 75.1202 10.5233C73.8645 10.5233 72.8016 10.9098 71.9321 11.6827C71.0865 12.4314 70.5676 13.4821 70.3742 14.8346H79.9025Z" fill="CurrentColor"></path>
<path d="M98.5314 6.39307C100.923 6.39307 102.855 7.15389 104.328 8.67552C105.802 10.173 106.538 12.2743 106.538 14.9795V26.754H101.466V15.6678C101.466 14.0737 101.067 12.854 100.27 12.0086C99.4734 11.1391 98.3865 10.7044 97.0098 10.7044C95.6091 10.7044 94.4982 11.1391 93.6766 12.0086C92.8796 12.854 92.4811 14.0737 92.4811 15.6678V26.754H87.4089V6.6829H92.4811V9.18274C93.1577 8.31323 94.015 7.63691 95.0534 7.15389C96.1163 6.64667 97.2756 6.39307 98.5314 6.39307Z" fill="CurrentColor"></path>
<path d="M115.818 10.8493V20.5588C115.818 21.2351 115.975 21.7302 116.289 22.0443C116.627 22.3341 117.182 22.479 117.956 22.479H120.31V26.7541H117.122C112.847 26.7541 110.71 24.6769 110.71 20.5226V10.8493H108.318V6.68295H110.71V1.71948H115.818V6.68295H120.31V10.8493H115.818Z" fill="CurrentColor"></path>
<path d="M127.581 9.79864C128.233 8.73589 129.079 7.90261 130.117 7.2988C131.18 6.69494 132.387 6.39307 133.74 6.39307V11.7188H132.399C130.805 11.7188 129.598 12.0931 128.776 12.8419C127.979 13.5906 127.581 14.8949 127.581 16.7547V26.754H122.509V6.6829H127.581V9.79864Z" fill="CurrentColor"></path>
</g>
<defs>
<clipPath id="clip0_13_5053">
<rect fill="CurrentColor" height="34" width="155.308"></rect>
</clipPath>
</defs>
</svg>