<?xml version="1.0" encoding="UTF-8"?>
<svg xmlns="http://www.w3.org/2000/svg" xmlns:xlink="http://www.w3.org/1999/xlink" id="Layer_2" width="763.0422" height="190.541" viewBox="0 0 763.0422 190.541">
  <defs>
    <style>.cls-1{fill:url(#linear-gradient-2);}.cls-2{fill:#fff;}.cls-3{fill:url(#linear-gradient);}.cls-4{fill:#666;}</style>
    <linearGradient id="linear-gradient" x1="298.1251" y1="46.3874" x2="309.5494" y2="73.996" gradientUnits="userSpaceOnUse">
      <stop offset="0" stop-color="#ffcd03"></stop>
      <stop offset=".107" stop-color="#ffcd07"></stop>
      <stop offset=".2315" stop-color="#ffd015"></stop>
      <stop offset=".3648" stop-color="#ffd52d"></stop>
      <stop offset=".5043" stop-color="#ffdb4e"></stop>
      <stop offset=".6486" stop-color="#ffe478"></stop>
      <stop offset=".7969" stop-color="#ffeeab"></stop>
      <stop offset=".9458" stop-color="#fffae7"></stop>
      <stop offset="1" stop-color="#fff"></stop>
    </linearGradient>
    <linearGradient id="linear-gradient-2" x1="287.7848" y1="44.7613" x2="262.5068" y2="80.9623" xlink:href="#linear-gradient"></linearGradient>
  </defs>
  <g id="Layer_1-2">
    <g>
      <path class="cls-4" d="M89.3425,161.0166c.3467-1.9677,2.0186-3.1465,5.3941-3.1465h8.2617c2.8159,0,4.792,.8965,5.354,2.8057,.5723,1.8613,1.6807,2.5928,3.2539,2.5928h3.2647c.7338,0,2.9018-.5059,3.3486-3.0381,1.061-6.0215-5.8067-10.124-12.8921-10.124h-6.9741c-13.4986,0-18.2681,4.7275-19.458,11.4707-2.5674,14.5674,27.8217,10.9072,26.6723,17.4365-.3447,1.9619-2.0141,3.1445-5.3872,3.1445h-9.6186c-2.8081,0-4.7886-.8945-5.3521-2.8115-.5698-1.8535-1.6767-2.5859-3.2553-2.5859h-3.2632c-.7276,0-2.9004,.5068-3.3472,3.0371-1.0596,6.0136,5.8125,10.1191,12.8945,10.1191h8.3228c13.4985,0,18.2666-4.7207,19.4546-11.4658,2.5884-14.6758-27.8233-10.9121-26.6734-17.4346"></path>
      <path class="cls-4" d="M160.8254,150.3291h-31.6572c-1.4028,0-2.7866,1.1309-3.0332,2.5342l-6.0268,34.1885c-.2583,1.4638,.6596,2.6377,2.1186,2.6377h31.5508c1.4619,0,2.792-1.1739,3.042-2.584l.4663-2.6397c.2476-1.4033-.6777-2.5332-2.0864-2.5332h-23.8423l1.4277-8.0918h20.5825c1.4063,0,2.7954-1.1855,3.0425-2.5869l.4556-2.5869c.2485-1.4092-.7236-2.5957-2.1289-2.5957h-20.5825l1.4086-7.9814h23.8956c1.4086,0,2.7846-1.1231,3.0424-2.585l.4541-2.5889c.2588-1.456-.7202-2.5869-2.1294-2.5869"></path>
      <path class="cls-4" d="M201.9373,174.792h-3.2613c-1.5747,0-2.9951,.7315-4.4707,3.0361-1.7046,2.6397-4.1391,4.3301-7.5097,4.3301h-5.4551c-8.1001,0-9.7632-2.9804-8.1475-12.1445,1.6157-9.166,4.3301-12.1436,12.4302-12.1436h4.8892c3.3769,0,5.2182,1.6846,5.9887,4.3243,.6587,2.3046,1.8252,3.0341,3.398,3.0341h3.2617c.7334,0,2.9043-.5019,3.3511-3.0341,1.4072-7.9854-6.0259-12.0879-13.6743-12.0879h-6.1231c-13.4429,0-21.4604,6.2461-23.8682,19.9072-2.4121,13.6641,3.4063,19.9033,16.8492,19.9033h6.6899c7.6436,0,16.519-4.1055,17.9248-12.0889,.4468-2.5312-1.5415-3.0361-2.2729-3.0361"></path>
      <path class="cls-4" d="M250.7732,150.3291h-5.1182c-1.4028,0-2.7837,1.1309-3.0424,2.5869l-3.7471,21.2569c-.9512,5.4004-3.6582,7.9853-8.6597,7.9853h-4.3857c-5.0093,0-6.8018-2.5849-5.8472-7.9853l3.75-21.2569c.2559-1.456-.7266-2.5869-2.1338-2.5869h-5.1142c-1.4634,0-2.8472,1.1309-3.1016,2.5869l-3.7412,21.2041c-1.752,9.9502,3.0649,15.7969,14.5376,15.7969h4.9468c11.476,0,18.3525-5.8467,20.1093-15.7969l3.7364-21.2041c.2558-1.456-.7237-2.5869-2.189-2.5869"></path>
      <path class="cls-4" d="M291.052,179.1778c-1.625-3.5381-2.9629-5.5088-5.1206-6.3506,5.8799-1.1299,11.0425-3.9414,12.1128-10.0117,1.3696-7.7569-3.9263-12.4864-12.1362-12.4864h-22.669c-1.4028,0-2.7241,1.1309-2.9814,2.5869l-6.0274,34.1895c-.2505,1.4101,.7237,2.584,2.1324,2.584h5.1733c1.4604,0,2.7954-1.1739,3.0425-2.584l2.082-11.8086h6.6875c3.5483,0,5.166,2.3066,6.1807,4.501l3.3784,7.3076c.644,1.4648,2.3559,2.584,3.7646,2.584h6.5762c1.4634,0,2.0557-1.1192,1.4131-2.584l-3.6089-7.9277Zm-11.3325-11.6387h-11.6919l1.666-9.4492h11.6934c3.1523,0,6.9424,1.1269,6.3086,4.7256-.6348,3.5996-4.8208,4.7236-7.9761,4.7236"></path>
      <path class="cls-4" d="M313.8411,150.3291h-5.1201c-1.4048,0-2.7852,1.1309-3.043,2.5869l-6.0391,34.251c-.2466,1.4033,.7403,2.5225,2.1431,2.5225h5.1186c1.462,0,2.8482-1.1739,3.0972-2.584l6.0288-34.1895c.2573-1.456-.7256-2.5869-2.1855-2.5869"></path>
      <path class="cls-4" d="M358.4221,150.3291h-34.8594c-1.4648,0-2.7924,1.1309-3.0478,2.5869l-.4575,2.5889c-.2564,1.4619,.6719,2.585,2.1382,2.585h12.2544l-5.1236,29.0771c-.2495,1.4033,.7344,2.5225,2.1372,2.5225h5.1719c1.4072,0,2.7832-1.1192,3.0322-2.5225l5.1265-29.0771h12.2593c1.4673,0,2.7837-1.1231,3.0425-2.585l.4589-2.5889c.2544-1.456-.6684-2.5869-2.1328-2.5869"></path>
      <path class="cls-4" d="M401.3137,150.3291h-5.2246c-2.2519,0-4.0254,1.1309-5.2363,2.5869l-11.3027,13.7246-6.4688-13.7246c-.6943-1.456-2.0684-2.5869-4.3213-2.5869h-5.2324c-1.4028,0-2.0244,1.2969-1.4058,2.5869l10.6695,22.7237-2.0332,11.5273c-.2471,1.4033,.7343,2.5225,2.1416,2.5225h5.1718c1.4043,0,2.7852-1.1192,3.0332-2.5225l2.0313-11.5273,18.6836-22.7237c1.0674-1.29,.9053-2.5869-.5059-2.5869"></path>
      <path class="cls-4" d="M462.0647,168.3252h-13.7803c-1.4033,0-2.7968,1.1836-3.0429,2.586l-.377,2.1406c-.2471,1.4023,.7266,2.5879,2.1299,2.5879h6.1855c-.749,3.9336-3.2304,6.5185-9.415,6.5185h-5.625c-6.5762,0-8.2461-2.9804-6.6299-12.1445,1.6192-9.1689,4.3379-12.1436,12.4326-12.1436h4.8916c3.3711,0,5.8028,.8965,6.4795,2.8057,.6367,1.7998,1.6836,2.5928,3.2539,2.5928h3.2598c.7305,0,2.8984-.5059,3.3477-3.0381,1.0605-6.0234-6.3653-10.124-14.0137-10.124h-6.1299c-13.4375,0-21.457,6.2461-23.8662,19.9072-2.4102,13.6641,3.4101,19.9033,15.3281,19.9033h6.1856c12.0898,0,19.1943-5.8467,20.9785-15.9668l.5342-3.039c.249-1.4024-.7247-2.586-2.127-2.586"></path>
      <path class="cls-4" d="M503.7708,179.1778c-1.628-3.5381-2.9639-5.5088-5.1221-6.3506,5.8789-1.1299,11.042-3.9414,12.1113-10.0117,1.3692-7.7569-3.9287-12.4864-12.1396-12.4864h-22.6592c-1.4102,0-2.7334,1.1309-2.9902,2.5869l-6.0264,34.1895c-.25,1.4101,.7275,2.584,2.1308,2.584h5.1709c1.4649,0,2.794-1.1739,3.044-2.584l2.0801-11.8086h6.6914c3.5439,0,5.165,2.3066,6.1787,4.501l3.3847,7.3076c.6387,1.4648,2.3565,2.584,3.7588,2.584h6.5811c1.458,0,2.0518-1.1192,1.4092-2.584l-3.6035-7.9277Zm-11.3301-11.6387h-11.7012l1.665-9.4492h11.6993c3.1464,0,6.9453,1.1269,6.3105,4.7256-.6348,3.5996-4.8262,4.7236-7.9736,4.7236"></path>
      <path class="cls-4" d="M538.8508,149.4893c-14.0605,0-23.1406,5.9053-25.7187,20.5244-2.5781,14.6201,4.4199,20.5273,18.4805,20.5273s23.1406-5.9072,25.7177-20.5273c2.5782-14.6191-4.4267-20.5244-18.4795-20.5244m-5.9277,33.6279c-8.4375,0-10.9336-4.666-9.4453-13.1035,1.4883-8.4326,5.6269-13.1016,14.0644-13.1016s10.9317,4.669,9.4434,13.1016c-1.4863,8.4375-5.6279,13.1035-14.0625,13.1035"></path>
      <path class="cls-4" d="M602.7922,150.3291h-5.1171c-1.4024,0-2.7852,1.1309-3.043,2.5869l-3.7461,21.2569c-.9522,5.4004-3.6611,7.9853-8.6621,7.9853h-4.3848c-5.0088,0-6.7969-2.5849-5.8457-7.9853l3.751-21.2569c.2549-1.456-.7305-2.5869-2.1338-2.5869h-5.1182c-1.4619,0-2.8457,1.1309-3.1015,2.5869l-3.7373,21.2041c-1.7559,9.9502,3.0605,15.7969,14.5371,15.7969h4.9443c11.4756,0,18.3486-5.8467,20.1055-15.7969l3.7363-21.2041c.2588-1.456-.7187-2.5869-2.1846-2.5869"></path>
      <path class="cls-4" d="M636.2366,150.3291h-20.9746c-1.4063,0-2.7266,1.1309-2.9825,2.5869l-6.0293,34.1895c-.247,1.4101,.7227,2.584,2.1299,2.584h5.1729c1.459,0,2.7949-1.1739,3.043-2.584l1.0908-6.1846h13.1582c10.4609,0,17.4209-4.7207,19.2861-15.292,1.8652-10.5703-3.4326-15.2998-13.8945-15.2998m-7.1719,22.833h-10.0107l2.6582-15.0722h10.0088c5.4003,0,9.1914,1.1269,8.0576,7.539-1.128,6.4092-5.3155,7.5332-10.7139,7.5332"></path>
    </g>
    <g>
      <path class="cls-3" d="M382.551,27.6353c-6.2363-7.9165-17.1323-12.6211-34.1318-17.1812-13.8394-3.7124-35.709-6.0459-52.3433-6.0459-12.9795,0-38.3652,1.5508-53.5791,5.3467-11.3974,2.8428-20.977,6.209-27.9443,10.4917-3.6021,2.2168-6.5259,4.6377-8.6504,7.3887-2.1182,2.7334-3.4394,5.9233-3.4394,9.3257,.0336,5.5449,3.3208,10.2002,8.164,14.0034,7.3443,5.7456,18.8838,10.2812,33.3115,13.5439,14.419,3.2412,31.6958,5.1162,50.2862,5.1162,24.7915-.0063,47.2353-3.3266,63.7041-8.8022,8.2422-2.7461,14.9995-6.0137,19.895-9.855,4.8467-3.8061,8.1338-8.4614,8.1611-14.0063,.0069-3.4024-1.3183-6.5923-3.4336-9.3257Zm-20.2895,2.3872c-1.1636,1.7148-3.8609,3.8257-7.815,5.7192-11.893,5.7832-34.5034,9.9009-60.2221,9.8745-19.607,.0059-37.3628-2.3471-50.0093-6.061-6.3115-1.8472-11.3457-4.0605-14.5835-6.3174-1.6191-1.1201-2.7715-2.2451-3.4419-3.2153-.6797-.9883-.8823-1.7261-.8867-2.3994,.0044-.6836,.2182-1.4424,.9238-2.4517,1.999-2.9878,8.4805-6.5273,17.6968-9.3857,19.875-6.1656,38.2808-7.7168,53.793-7.7168,18.375,0,44.0478,4.5161,60.9135,13.8159,1.772,.9775,2.8887,2.2949,3.5909,3.2866,.707,1.0093,.9179,1.7681,.9252,2.4517-.0073,.6733-.2104,1.4135-.8847,2.3994Z"></path>
      <path class="cls-1" d="M294.2097,64.836c48.6016,0,88.0034-13.1079,88.0034-29.2818,0-10.0595-15.2583-18.936-38.4961-24.206,13.295,3.7929,21.5645,9.0923,21.5645,14.9599,0,11.5308-31.8169,20.8697-71.0718,20.8697s-71.0698-9.3389-71.0698-20.8697c0-5.8676,8.2705-11.167,21.5649-14.9599-23.2358,5.27-38.4921,14.1465-38.4921,24.206,0,16.1739,39.3964,29.2818,87.997,29.2818Z"></path>
    </g>
    <g>
      <path class="cls-2" d="M310.7542,4.6939c-2.2066-3.3882-6.3179-4.9429-12.3223-4.6616-7.3057,.3554-12.8389,2.684-16.5962,6.9887l-23.7627,27.479c6.7095,1.937,13.8081,4.0674,22.6724,4.7422l13.5024-14.8701,9.2315,16.54c5.8408,.6006,21.4301-.5341,26.4619-1.8706,0,0-18.9829-33.7837-19.187-34.3476Z"></path>
      <path class="cls-2" d="M233.988,61.9151l-51.1801,58.7216c-.5723,.7051-.9204,1.4122-1.0415,2.1172-.564,3.2481,1.2959,5.8233,5.5669,7.7285,1.8896,.8477,3.6269,1.2696,5.2099,1.2696,2.793,0,5.6817-1.6582,8.6675-4.9746l54.5366-60.0284c-4.1113-.6499-8.0576-1.3984-11.8091-2.2407-3.4936-.7895-6.813-1.6557-9.9502-2.5932Zm142.691,56.6025l-31.5552-54.1553c-7.9219,1.814-16.7222,3.2051-26.1392,4.1016l32.7188,58.3223c2.3652,4.2275,5.9248,6.3437,10.6806,6.3437,3.3199,0,6.376-1.0791,9.1602-3.2285,2.7891-2.1524,4.4707-4.8897,5.043-8.207,.1797-1.0577,.2129-2.1182,.0918-3.1768Z"></path>
      <path class="cls-2" d="M172.7795,126.0352c-.9663,5.1474-4.4438,7.7168-10.4311,7.7168s-9.5874-.1963-10.8023-.5889c-3.2529-.8447-4.5107-3.2226-3.7753-7.1348l7.957-42.3457H33.3977l-7.9551,42.3457c-.9677,5.1495-4.4101,7.7237-10.3203,7.7237-6.2168,0-9.9013-.1641-11.0498-.4883-3.3174-.9111-4.6074-3.3203-3.8725-7.2285L19.6741,22.397c.7358-3.9092,2.9302-6.3169,6.5879-7.229,1.2607-.2593,5.0019-.3916,11.2173-.3916,5.9086,0,8.3872,2.5391,7.437,7.6138l-8.1621,43.4311h122.33l8.1612-43.4311c.7334-3.9029,2.9209-6.2784,6.5673-7.1246,1.2754-.3247,4.9053-.4892,10.8907-.4892,5.9902,0,8.5058,2.5425,7.5532,7.6206l-19.4771,103.6382Z"></path>
      <path class="cls-2" d="M538.4778,126.916c-.9649,5.1289-4.3965,7.6934-10.293,7.6934h-79.1836c-13.8457,0-24.082-.4561-30.7177-1.3643-12.1006-1.624-20.8731-4.9541-26.3174-9.9912-5.4424-5.0361-7.3867-11.6787-5.8389-19.9345l15.002-79.8291c.9521-5.0664,4.3789-7.6016,10.2773-7.6016,6.2002,0,9.8467,.1304,10.9297,.3892,3.3818,.9116,4.707,3.3159,3.9775,7.2163l-15.0049,79.8388c-1.1953,6.3701,3.8946,10.4659,15.2754,12.2832,4.6202,.7803,13.1299,1.1719,25.5362,1.1719h79.4121c3.7041,0,6.0166,.9727,6.9385,2.9219,.6523,1.3623,.6552,3.7656,.0068,7.206Z"></path>
      <path class="cls-2" d="M714.8098,101.1504c-4.0039,21.3115-27.4385,31.9688-70.2988,31.9688h-39.3711c-16.6123,0-29.9512-1.8907-40.0127-5.6709-14.3193-5.3438-20.3418-14.0782-18.0625-26.2022l10.3242-54.9448c4.044-21.5088,27.419-32.2651,70.128-32.2651h39.371c19.418,0,33.3623,1.4995,41.8282,4.4985,13.5049,4.8242,18.9736,14.0776,16.4023,27.7666l-10.3086,54.8491Zm-25.2842-.4805l10.127-53.8886c1.8867-10.0401-9.9531-15.063-35.5166-15.063h-40.0557c-25.792,0-39.6328,5.0229-41.5185,15.063l-10.126,53.8886c-1.8262,9.7139,10.1592,14.5713,35.9502,14.5713h40.167c25.4902,0,39.1474-4.8574,40.9726-14.5713Z"></path>
      <g>
        <polygon class="cls-2" points="743.4085 16.6729 730.3176 16.6729 730.3157 18.7686 735.5403 18.7686 735.5276 30.3018 738.6448 30.3018 738.6497 18.7686 743.8919 18.7686 743.885 16.6729 743.4085 16.6729"></polygon>
        <polygon class="cls-2" points="759.6301 16.6729 753.9495 26.8633 748.1751 16.6729 744.6555 16.6729 744.6409 30.3018 745.1311 30.3018 747.5198 30.3018 747.5374 21.2881 752.7278 30.3018 755.0452 30.3018 760.1506 21.3159 760.1497 30.3018 763.0305 30.3018 763.0422 16.6729 759.6301 16.6729"></polygon>
      </g>
    </g>
  </g>
</svg>
