<?xml version="1.0" encoding="UTF-8"?>
<svg width="190px" height="44px" viewBox="0 0 190 44" version="1.1" xmlns="http://www.w3.org/2000/svg" xmlns:xlink="http://www.w3.org/1999/xlink">
    <title>209F2547-049E-4559-BAB0-317D70467C64</title>
    <defs>
        <polygon id="path-1" points="0 0 23 0 23 23 0 23"></polygon>
        <polygon id="path-3" points="0 0 3 0 3 3 0 3"></polygon>
    </defs>
    <g id="Dekstop-" stroke="none" stroke-width="1" fill="none" fill-rule="evenodd">
        <g id="Screen/Homepage-3" transform="translate(-20.000000, -44.000000)">
            <g id="Component/Navigation-bar" transform="translate(0.000000, -0.023644)">
                <g id="Group" transform="translate(1.000000, 34.023644)">
                    <g id="logo/top" transform="translate(19.000000, 10.000000)">
                        <g id="Group-25" transform="translate(4.000000, 8.000000)">
                            <path d="M53.5620129,1 L50.4379871,1 C50.1960111,1 50,1.18966839 50,1.42381428 L50,22.5761857 C50,22.8103316 50.1960111,23 50.4379871,23 L53.5620129,23 C53.8039889,23 54,22.8103316 54,22.5761857 L54,1.42381428 C54,1.18966839 53.8039889,1 53.5620129,1" id="Fill-1" fill="#005EB8"></path>
                            <path d="M91.5635979,0 L88.4358737,0 C88.1949544,0 88,0.189183536 88,0.422339461 L88,21.5781718 C88,21.8113278 88.1949544,22 88.4358737,22 L91.5635979,22 C91.8045172,22 92,21.8113278 92,21.5781718 L92,0.422339461 C92,0.189183536 91.8045172,0 91.5635979,0" id="Fill-3" fill="#005EB8"></path>
                            <path d="M164.5974,1 L161.48763,1 C161.256758,1 161.066872,1.18662695 161.066872,1.41466974 L161.064797,15.2005211 C161.064797,15.4669119 160.700071,15.587069 160.505516,15.363628 L150.962973,1.36302776 C150.808885,1.13600758 150.549997,1 150.272951,1 L146.477309,1 L146.408825,1 C146.207007,1 146,1.19327393 146,1.39217224 L146,22.5899256 C146,22.812344 146.194555,23 146.439435,23 L149.484354,23 C149.769182,23 149.93209,22.8000727 149.93209,22.5556681 L149.93209,7.81162793 C149.93209,7.50944566 150.33002,7.3897999 150.501229,7.64085149 L160.761291,22.6763365 C160.899814,22.8793252 161.131724,23.0010162 161.380236,23 L164.528917,23 C164.785211,23 165,22.8701217 165,22.5393063 L165,1.39984184 C165,1.20094354 164.799219,1 164.5974,1" id="Fill-5" fill="#005EB8"></path>
                            <path d="M114.569898,18.1285359 L103.410384,18.1285359 C103.172724,18.1285359 102.980283,17.9413802 102.980283,17.710248 L102.980283,0.418287893 C102.980283,0.187667062 102.787841,0 102.550707,0 L99.4295761,0 C99.1919159,0 99,0.187667062 99,0.418287893 L99,21.5817121 C99,21.8128443 99.1919159,22 99.4295761,22 L114.569898,22 C114.807558,22 115,21.8128443 115,21.5817121 L115,18.5468238 C115,18.3156916 114.807558,18.1285359 114.569898,18.1285359" id="Fill-7" fill="#005EB8"></path>
                            <path d="M15.9665382,21.5198333 L14.7483749,19.2759685 C14.6694895,19.107887 14.4950829,19 14.3029672,19 L7.69859073,19 C7.50593849,19 7.33260513,19.107887 7.25318303,19.2759685 L6.03448318,21.5184442 C5.92447285,21.7087514 6.08761013,22 6.3827598,22 L15.592503,22 C15.9058983,22 16.0765485,21.7356073 15.9665382,21.5198333" id="Fill-9" fill="#005EB8"></path>
                            <path d="M13.0095175,0.414669858 C12.889507,0.161572966 12.6341002,0 12.35305,0 L10.6467476,0 C10.3656975,0 10.1108035,0.161061659 9.99079304,0.414158552 L0.0365928352,21.4595487 C-0.0818790205,21.7111116 0.101726713,22 0.380212503,22 L3.78871447,21.9994887 C3.97180733,21.9994887 4.13694992,21.8931369 4.2123411,21.7279848 L11.1714087,6.84333093 C11.2832133,6.59176796 11.645809,6.58870012 11.763768,6.84333093 L18.7874565,21.7279848 C18.8628477,21.8931369 19.0279903,21.9994887 19.2110832,21.9994887 L22.6195851,21.9994887 C22.8980709,21.9994887 23.0821895,21.7106003 22.9632048,21.4595487 L13.0095175,0.414669858 Z" id="Fill-11" fill="#005EB8"></path>
                            <path d="M35.009552,21.5853301 C34.8895419,21.838427 34.634136,22 34.3530868,22 L32.6462774,22 C32.3657411,22 32.110848,21.8389383 31.990838,21.5858414 L22.0366721,0.540451345 C21.9176878,0.288888372 22.1028315,0 22.3818292,0 L25.7892937,0 C25.971873,0 26.137015,0.106863132 26.212406,0.272015246 L33.1714495,15.1566691 C33.2832537,15.408232 33.6458482,15.4112999 33.7638068,15.1566691 L40.7874711,0.272015246 C40.862862,0.106863132 41.0285169,0.000511306854 41.2110963,0.000511306854 L44.6195865,0.000511306854 C44.8980713,0.000511306854 45.0821893,0.289399679 44.9632049,0.540451345 L35.009552,21.5853301 Z" id="Fill-13" fill="#005EB8"></path>
                            <g id="Group-17" transform="translate(118.000000, 0.000000)">
                                <mask id="mask-2" fill="white">
                                    <use xlink:href="#path-1"></use>
                                </mask>
                                <g id="Clip-16"></g>
                                <path d="M11.5,-0.000102222677 C5.14893333,-0.000102222677 0,5.14885399 0,11.4999489 C0,17.8510438 5.14893333,23 11.5,23 C17.8515778,23 23,17.8510438 23,11.4999489 C23,5.14885399 17.8515778,-0.000102222677 11.5,-0.000102222677 M11.5,19.127805 C7.28742222,19.127805 3.87217778,15.7130565 3.87217778,11.4999489 C3.87217778,7.28684127 7.28742222,3.87209276 11.5,3.87209276 C15.7125778,3.87209276 19.1283333,7.28684127 19.1283333,11.4999489 C19.1283333,15.7130565 15.7125778,19.127805 11.5,19.127805" id="Fill-15" fill="#005EB8" mask="url(#mask-2)"></path>
                            </g>
                            <path d="M82.9637104,10.6034568 C82.944799,10.3683447 82.7439286,10.1899661 82.507791,10.1899661 L73.7676309,10.1899661 C73.5309821,10.1899661 73.3398231,10.3811225 73.3398231,10.6167457 L73.3398231,13.1201789 C73.3398231,13.3563133 73.5309821,13.5474697 73.7676309,13.5474697 L78.1586669,13.5474697 C78.6610983,13.5474697 78.7663891,13.8469821 78.6120308,14.234406 C77.454854,17.2458859 74.450999,19.3409395 70.9815132,19.1109385 C67.3428466,18.869693 64.3231468,15.9977471 63.9203839,12.3734423 C63.4087523,7.76984438 66.9998848,3.87209397 71.4997894,3.87209397 C73.5141152,3.87209397 75.3429042,4.65511963 76.7050403,5.93034744 C76.8798435,6.0933926 77.1047365,6.19101525 77.3429186,6.19101525 L81.1303213,6.19101525 C81.3935484,6.19101525 81.5499512,5.90530288 81.4170599,5.67887967 C79.2417312,1.98046347 75.0592324,-0.395702501 70.3651019,0.0545883607 C65.0121372,0.567746165 60.6655687,4.84065377 60.0731801,10.184855 C59.3029216,17.1252632 64.7151762,23 71.4997894,23 C77.6736136,23 82.7091725,18.1357342 82.9867109,12.0304853 C82.9953999,11.8546623 83,11.6778171 83,11.4999496 C83,11.1983927 82.987222,10.8993914 82.9637104,10.6034568" id="Fill-18" fill="#005EB8"></path>
                            <polygon id="Fill-20" fill="#005EB8" points="168.83435 3 168.83435 0.333140544 168 0.333140544 168 0 170 0 170 0.333140544 169.162602 0.333140544 169.162602 3"></polygon>
                            <g id="Group-24" transform="translate(170.000000, 0.000000)">
                                <mask id="mask-4" fill="white">
                                    <use xlink:href="#path-3"></use>
                                </mask>
                                <g id="Clip-23"></g>
                                <polygon id="Fill-22" fill="#005EB8" mask="url(#mask-4)" points="2.61899604 3 2.61899604 0.530942741 1.57506056 3 1.41968136 3 0.381653833 0.530942741 0.381653833 3 0 3 0 0 0.547076547 0 1.49825715 2.25795257 2.45357333 0 3.00005908 0 3.00005908 3"></polygon>
                            </g>
                        </g>
                    </g>
                </g>
            </g>
        </g>
    </g>
</svg>