<svg xmlns="http://www.w3.org/2000/svg" viewBox="0 0 3176.3 1786.67">
  <defs>
    <style>
      .cls-1,
      .cls-19,
      .cls-2,
      .cls-20,
      .cls-21,
      .cls-24,
      .cls-25,
      .cls-26,
      .cls-27,
      .cls-28,
      .cls-3,
      .cls-53,
      .cls-6 {
        fill: #d7d7f7;
      }

      .cls-10,
      .cls-11,
      .cls-12,
      .cls-13,
      .cls-14,
      .cls-15,
      .cls-16,
      .cls-17,
      .cls-18,
      .cls-2,
      .cls-22,
      .cls-24,
      .cls-27,
      .cls-28,
      .cls-3,
      .cls-30,
      .cls-32,
      .cls-4,
      .cls-42,
      .cls-43,
      .cls-44,
      .cls-45,
      .cls-49,
      .cls-5,
      .cls-50,
      .cls-51,
      .cls-52,
      .cls-53,
      .cls-56,
      .cls-57,
      .cls-6,
      .cls-9 {
        stroke: #2e77d3;
      }

      .cls-10,
      .cls-11,
      .cls-12,
      .cls-13,
      .cls-14,
      .cls-15,
      .cls-16,
      .cls-17,
      .cls-18,
      .cls-19,
      .cls-2,
      .cls-20,
      .cls-21,
      .cls-22,
      .cls-23,
      .cls-24,
      .cls-25,
      .cls-26,
      .cls-27,
      .cls-28,
      .cls-29,
      .cls-3,
      .cls-30,
      .cls-31,
      .cls-32,
      .cls-33,
      .cls-34,
      .cls-35,
      .cls-36,
      .cls-4,
      .cls-41,
      .cls-42,
      .cls-43,
      .cls-44,
      .cls-45,
      .cls-46,
      .cls-48,
      .cls-49,
      .cls-5,
      .cls-50,
      .cls-51,
      .cls-52,
      .cls-53,
      .cls-54,
      .cls-56,
      .cls-57,
      .cls-58,
      .cls-6,
      .cls-9 {
        stroke-miterlimit: 10;
      }

      .cls-2 {
        stroke-width: 5.11px;
      }

      .cls-3 {
        stroke-width: 6.85px;
      }

      .cls-10,
      .cls-11,
      .cls-12,
      .cls-13,
      .cls-14,
      .cls-15,
      .cls-16,
      .cls-17,
      .cls-18,
      .cls-23,
      .cls-29,
      .cls-30,
      .cls-31,
      .cls-32,
      .cls-33,
      .cls-34,
      .cls-35,
      .cls-36,
      .cls-4,
      .cls-41,
      .cls-42,
      .cls-43,
      .cls-44,
      .cls-45,
      .cls-46,
      .cls-48,
      .cls-49,
      .cls-5,
      .cls-50,
      .cls-51,
      .cls-52,
      .cls-54,
      .cls-56,
      .cls-57,
      .cls-58,
      .cls-9 {
        fill: none;
      }

      .cls-4 {
        stroke-width: 5.1px;
      }

      .cls-5,
      .cls-6 {
        stroke-width: 3.06px;
      }

      .cls-40,
      .cls-55,
      .cls-7 {
        font-size: 33.84px;
        font-family: MicrosoftYaHeiUI-Bold, Microsoft YaHei UI;
        font-weight: 700;
      }

      .cls-38,
      .cls-55,
      .cls-7 {
        fill: #666;
      }

      .cls-22,
      .cls-8 {
        fill: #2e77d3;
      }

      .cls-9 {
        stroke-width: 4.8px;
      }

      .cls-10 {
        stroke-width: 4.19px;
      }

      .cls-11 {
        stroke-width: 4.48px;
      }

      .cls-12,
      .cls-57 {
        stroke-width: 6px;
      }

      .cls-13 {
        stroke-width: 2.78px;
      }

      .cls-14 {
        stroke-width: 4px;
      }

      .cls-15,
      .cls-33,
      .cls-53 {
        stroke-width: 3px;
      }

      .cls-16 {
        stroke-width: 5.98px;
      }

      .cls-17 {
        stroke-width: 2.46px;
      }

      .cls-18 {
        stroke-width: 1.5px;
      }

      .cls-19,
      .cls-20,
      .cls-21,
      .cls-23,
      .cls-25,
      .cls-26,
      .cls-29,
      .cls-31,
      .cls-41,
      .cls-46,
      .cls-48,
      .cls-54,
      .cls-58 {
        stroke: #d7d7f7;
      }

      .cls-19 {
        stroke-width: 0.66px;
      }

      .cls-20 {
        stroke-width: 0.66px;
      }

      .cls-21 {
        stroke-width: 0.24px;
      }

      .cls-22 {
        stroke-width: 1.49px;
      }

      .cls-23 {
        stroke-width: 4.45px;
      }

      .cls-24,
      .cls-31,
      .cls-32,
      .cls-46,
      .cls-54,
      .cls-56,
      .cls-57,
      .cls-58 {
        stroke-linecap: round;
      }

      .cls-24 {
        stroke-width: 3.37px;
      }

      .cls-25 {
        stroke-width: 3.3px;
      }

      .cls-26 {
        stroke-width: 3.31px;
      }

      .cls-27 {
        stroke-width: 3.55px;
      }

      .cls-28 {
        stroke-width: 4.76px;
      }

      .cls-29 {
        stroke-width: 0.56px;
      }

      .cls-30 {
        stroke-width: 4.69px;
      }

      .cls-31 {
        stroke-width: 1.1px;
      }

      .cls-32 {
        stroke-width: 1.11px;
      }

      .cls-33,
      .cls-34,
      .cls-35,
      .cls-36 {
        stroke: #a4a2f9;
      }

      .cls-34,
      .cls-35 {
        stroke-width: 2.71px;
      }

      .cls-34 {
        stroke-dasharray: 10.15;
      }

      .cls-36 {
        stroke-width: 2.25px;
        stroke-dasharray: 8.42;
      }

      .cls-37,
      .cls-38 {
        font-size: 25.38px;
        font-family: MicrosoftYaHeiUI;
      }

      .cls-39 {
        letter-spacing: 0.01em;
      }

      .cls-40,
      .cls-55 {
        letter-spacing: 0.01em;
      }

      .cls-41 {
        stroke-width: 0.44px;
      }

      .cls-42 {
        stroke-width: 3.63px;
      }

      .cls-43 {
        stroke-width: 3.09px;
      }

      .cls-44 {
        stroke-width: 2.76px;
      }

      .cls-45 {
        stroke-width: 2.07px;
      }

      .cls-46 {
        stroke-width: 6.79px;
      }

      .cls-47 {
        letter-spacing: -0.03em;
      }

      .cls-48 {
        stroke-width: 0.38px;
      }

      .cls-49 {
        stroke-width: 3.2px;
      }

      .cls-50 {
        stroke-width: 3.6px;
      }

      .cls-51 {
        stroke-width: 3.21px;
      }

      .cls-52 {
        stroke-width: 2.41px;
      }

      .cls-54 {
        stroke-width: 3.41px;
      }

      .cls-56 {
        stroke-width: 6.27px;
      }

      .cls-58 {
        stroke-width: 9px;
      }
    </style>
  </defs>
  <g id="咨询顾问">
    <path class="cls-1"
      d="M612,321.65l4.46-8.46s-5.25-1.52-7.13-1.52-7.13,1.52-7.13,1.52l4.46,8.46-5.8,20.49,8.47,18.71,8.46-18.71Z" />
    <ellipse class="cls-2" cx="609.79" cy="273.76" rx="22.98" ry="27.1" />
    <polygon class="cls-3"
      points="591.79 314.29 559.88 322.85 549.61 375.93 669.3 375.93 658.07 321.92 627.12 314.29 609.96 359.5 591.79 314.29" />
    <path class="cls-4" d="M575.6,262.64s2.45-26.31,34.21-26.31" />
    <path class="cls-4"
      d="M574.29,262.64h3.26a2.32,2.32,0,0,1,2.32,2.32v10.26a3,3,0,0,1-3,3h-2.58a5.1,5.1,0,0,1-5.1-5.1v-5.38a5.1,5.1,0,0,1,5.1-5.1Z" />
    <path class="cls-4" d="M644,262.64s-2.45-26.31-34.21-26.31" />
    <path class="cls-4"
      d="M644.85,262.64h2.58a3,3,0,0,1,3,3V275.9a2.32,2.32,0,0,1-2.32,2.32h-3.26a5.1,5.1,0,0,1-5.1-5.1v-5.38a5.1,5.1,0,0,1,5.1-5.1Z"
      transform="translate(1290.18 540.87) rotate(-180)" />
    <path class="cls-5" d="M643,280.45s-4.27,13.91-18.17,13.64" />
    <ellipse class="cls-6" cx="619.97" cy="293.82" rx="4.81" ry="2.92" /><text class="cls-7"
      transform="translate(544.16 433.93)">咨询顾问</text>
  </g>
  <g id="定制提升">
    <path class="cls-1" d="M1051.79,356.8h-7.07a2.12,2.12,0,0,1,0-4.23h7.07a2.12,2.12,0,0,1,0,4.23Z" />
    <path class="cls-1" d="M1019.3,342.68H993.88a2.12,2.12,0,0,1,0-4.24h25.42a2.12,2.12,0,0,1,0,4.24Z" />
    <path class="cls-1" d="M1098.1,275.19l-9.9,13.87-17.83-17.83,13.86-9.91S1097.61,262.31,1098.1,275.19Z" />
    <polygon class="cls-8"
      points="955.77 255.87 955.77 379.25 959.54 381.27 1046.84 381.27 1052.75 375.62 1052.75 364.8 977.9 364.32 972.25 358.68 972.25 254.16 960.24 254.16 955.77 255.87" />
    <path class="cls-8"
      d="M1097.07,280.29l2.76-3.87a2.19,2.19,0,0,0,.39-1.31c-.45-11.68-10.55-15.51-15.83-15.91a2.24,2.24,0,0,0-1.39.4l-9.35,6.68V244.46a9.47,9.47,0,0,0-9.44-9.47H980.64a9.48,9.48,0,0,0-9.45,9.47v7.17h-9a9.46,9.46,0,0,0-9.45,9.45V374a9.47,9.47,0,0,0,9.45,9.46h83.57a9.47,9.47,0,0,0,9.45-9.46v-7.18h9a9.45,9.45,0,0,0,9.44-9.45V306.59l16-16a.7.7,0,0,1,.13-.16s.07-.07.1-.11l4.63-6.48a6.6,6.6,0,0,1,1.61,3.77c.07,1.64-.74,3.3-2.39,4.94l-13.3,13.36a2.13,2.13,0,0,0,0,3,2.06,2.06,0,0,0,1.48.62,2.2,2.2,0,0,0,1.51-.62l13.31-13.37c2.51-2.51,3.73-5.24,3.61-8.1A11.11,11.11,0,0,0,1097.07,280.29ZM1051,374a5.22,5.22,0,0,1-5.21,5.22H962.18A5.22,5.22,0,0,1,957,374V261.08a5.21,5.21,0,0,1,5.21-5.21h9V357.4a9.46,9.46,0,0,0,9.45,9.45H1051Zm-7.33-43.4-1.47-1.47h0l-13.37-13.36,6.56-6.56h-6l-5.06,5.06a2.11,2.11,0,0,0,0,3l1.49,1.49-7.42,7.41a2.12,2.12,0,0,0,0,3l2,2-3.45,8.62a2.13,2.13,0,0,0,.43,2.23,2.1,2.1,0,0,0,1.55.66,2.21,2.21,0,0,0,.66-.1l9.16-3.05,1.55,1.54a2.08,2.08,0,0,0,1.5.62,2,2,0,0,0,1.49-.62l7.42-7.41,1.48,1.48a2.11,2.11,0,0,0,1.5.62,2.15,2.15,0,0,0,1.5-.62l24.29-24.31V357.4a5.22,5.22,0,0,1-5.21,5.22H980.64a5.22,5.22,0,0,1-5.21-5.22V244.46a5.23,5.23,0,0,1,5.21-5.23h83.57a5.24,5.24,0,0,1,5.21,5.23V269.3l-.28.2a1.22,1.22,0,0,0-.17.15l-.1.07-9.66,9.67v6l3.74-3.74,7.41-7.43,14.85,14.84Zm-6,0-5.91,5.92-8.89-8.88,5.92-5.92Zm50.28-44.87-14.29-14.29,11.16-8c2.48.37,10.41,2.26,11.14,11.05Z" />
    <polygon class="cls-8"
      points="1054.57 284.02 1054.57 290.02 1047.61 296.98 1044.62 299.96 1039.98 304.6 1034 304.6 1038.63 299.96 1054.57 284.02" />
    <circle class="cls-1" cx="1033.42" cy="354.69" r="2.11" />
    <path class="cls-1"
      d="M1059.21,285.39m-2.32-36.47h-9.28v-2.33a2.33,2.33,0,0,0-2.33-2.32h-7a2.34,2.34,0,0,0-2.33,2.32v2.33h-27.84v-2.33a2.33,2.33,0,0,0-2.31-2.32h-7a2.34,2.34,0,0,0-2.33,2.32v2.33h-9.28a2.31,2.31,0,0,0-2.31,2.32v55.69a2.32,2.32,0,0,0,2.31,2.31h42.08l4.65-4.64H989.61V253.55h6.94v2.32a2.34,2.34,0,0,0,2.33,2.33h7a2.33,2.33,0,0,0,2.31-2.33v-2.32H1036v2.32a2.34,2.34,0,0,0,2.33,2.33h7a2.33,2.33,0,0,0,2.33-2.33v-2.32h7V284l4.64-4.63V251.24A2.31,2.31,0,0,0,1056.89,248.92Zm-53.37,4.63h-2.32v-4.63h2.32Zm39.44,0h-2.31v-4.63H1043Z" />
    <polygon class="cls-8" points="1039.98 304.6 1035.34 309.24 1029.35 309.24 1034 304.6 1039.98 304.6" />
    <polygon class="cls-8" points="1059.21 279.38 1059.21 285.39 1054.57 290.02 1054.57 284.02 1059.21 279.38" />
    <path class="cls-1"
      d="M1008.16,267.48h-9.28a2.32,2.32,0,0,0-2.32,2.32v9.28a2.32,2.32,0,0,0,2.32,2.32h9.28a2.32,2.32,0,0,0,2.32-2.32V269.8A2.32,2.32,0,0,0,1008.16,267.48Zm-2.32,9.28h-4.64v-4.64h4.64Z" />
    <path class="cls-1"
      d="M1026.72,267.48h-9.28a2.32,2.32,0,0,0-2.32,2.32v9.28a2.32,2.32,0,0,0,2.32,2.32h9.28a2.32,2.32,0,0,0,2.32-2.32V269.8A2.32,2.32,0,0,0,1026.72,267.48Zm-2.32,9.28h-4.64v-4.64h4.64Z" />
    <path class="cls-1"
      d="M1045.29,267.48H1036a2.32,2.32,0,0,0-2.32,2.32v9.28a2.32,2.32,0,0,0,2.32,2.32h9.28a2.32,2.32,0,0,0,2.32-2.32V269.8A2.32,2.32,0,0,0,1045.29,267.48Zm-2.32,9.28h-4.64v-4.64H1043Z" />
    <path class="cls-1"
      d="M1008.16,286h-9.28a2.32,2.32,0,0,0-2.32,2.32v9.28a2.32,2.32,0,0,0,2.32,2.32h9.28a2.32,2.32,0,0,0,2.32-2.32v-9.28A2.32,2.32,0,0,0,1008.16,286Zm-2.32,9.28h-4.64v-4.64h4.64Z" />
    <path class="cls-1"
      d="M1026.72,286h-9.28a2.32,2.32,0,0,0-2.32,2.32v9.28a2.32,2.32,0,0,0,2.32,2.32h9.28a2.32,2.32,0,0,0,2.32-2.32v-9.28A2.32,2.32,0,0,0,1026.72,286Zm-2.32,9.28h-4.64v-4.64h4.64Z" />
    <path class="cls-1"
      d="M1045.28,286H1036a2.32,2.32,0,0,0-2.31,2.31v9.3A2.32,2.32,0,0,0,1036,300h2.63l9-9v-2.63A2.32,2.32,0,0,0,1045.28,286Zm-2.32,9.28h-4.63v-4.64H1043Z" />
    <path class="cls-1"
      d="M964.64,269.7h6.17a1.44,1.44,0,0,1,1.44,1.44V279a2,2,0,0,1-2,2h-5.58a5.1,5.1,0,0,1-5.1-5.1v-1.1a5.1,5.1,0,0,1,5.1-5.1Z" />
    <path class="cls-1"
      d="M964.48,293.71h7.17a.6.6,0,0,1,.6.6v2.79a.84.84,0,0,1-.84.84h-6.92a2.12,2.12,0,0,1-2.12-2.12v0A2.12,2.12,0,0,1,964.48,293.71Z" />
    <path class="cls-1"
      d="M964.48,302.18h7.17a.6.6,0,0,1,.6.6v2.79a.84.84,0,0,1-.84.84h-6.92a2.12,2.12,0,0,1-2.12-2.12v0a2.12,2.12,0,0,1,2.12-2.12Z" />
    <text class="cls-7" transform="translate(919.81 434.63)">定制提升内容</text>
  </g>
  <g id="_0基础" data-name="0基础"><text class="cls-7" transform="translate(1523.21 316.69)">零基础</text>
    <path class="cls-1" d="M1620.64,223.26l9.85,47.33h-12.15v-47a5.26,5.26,0,0,0-.07-.89Z" />
    <path class="cls-1" d="M1608.07,220.16l1.13.28c-.41,2-.79,4.66-1.13,7.55Z" />
    <path class="cls-1"
      d="M1608.07,220.16V228c-1,8.09-1.57,17.77-1.57,17.77v16.3a5.12,5.12,0,0,1-3.56,1.45H1552.2a5.15,5.15,0,0,1-5.13-5.13V220.74l15.49-4.16,15.93,39.62,15-39.62Z" />
    <path class="cls-1"
      d="M1606.5,262.06v8.53h-80.9l9-46.51,12.47-3.34v37.64a5.15,5.15,0,0,0,5.13,5.13h50.74A5.12,5.12,0,0,0,1606.5,262.06Z" />
    <path class="cls-1"
      d="M1579.2,157.33c7.24.36,13.49,5.22,16.79,12.28H1585.9a5,5,0,0,0-5,5v3.23h-4.61v-3.24a5,5,0,0,0-5-5h-10.57c3.43-7.32,10-12.27,17.63-12.27Z" />
    <path class="cls-1"
      d="M1598.1,185.67c-1.82,10.91-10,19.14-19.76,19.14s-18.17-8.46-19.83-19.6a9.49,9.49,0,0,0,6.59,2.66h3.05a8.16,8.16,0,0,0,8.14-8.14v-1.9h4.61v1.9a8.15,8.15,0,0,0,8.13,8.12h3A9.48,9.48,0,0,0,1598.1,185.67Z" />
    <path class="cls-9" d="M1547.07,220.74v-4.15a5.15,5.15,0,0,1,5.13-5.13h50.74a5.15,5.15,0,0,1,5.13,5.13v3.57" />
    <path class="cls-10"
      d="M1577.53,142.28s-1.29,1.88-2,2.78l-.18.23c-.25.31-.35.37-.12-.06l.19-.35c.51-.9,1.68-2.83,4-6.43,8.35-13.27,27.92-8.15,27.92-8.15-11.19,15.84-29.78,15.24-29.78,15.24-.41.27-.82.52-1.23.76a27.22,27.22,0,0,1-30-.75,33.34,33.34,0,0,1,29-.32.34.34,0,0,0,.12.06l.45.25" />
    <path class="cls-10"
      d="M1573.62,142.28a14.87,14.87,0,0,1,1.82,2.6l.11.18q.14.23.27.48a8.61,8.61,0,0,0,.48.76c1.93,2.59,2.86-1.49,2.9,11" />
    <path class="cls-11" d="M1560.71,169.58c3.43-7.32,10-12.27,17.63-12.27l.86,0c7.24.36,13.49,5.22,16.79,12.28" />
    <path class="cls-11" d="M1598.1,185.67c-1.82,10.91-10,19.14-19.76,19.14s-18.17-8.46-19.83-19.6" />
    <polyline class="cls-12"
      points="1609.2 220.44 1608.07 220.16 1593.52 216.58 1578.49 256.2 1562.56 216.58 1547.07 220.74 1534.6 224.08 1525.6 270.59 1606.5 270.59" />
    <polyline class="cls-12" points="1618.34 270.59 1630.49 270.59 1620.64 223.26 1618.27 222.68" />
    <path class="cls-13"
      d="M1606.5,270.59v.74a2.94,2.94,0,0,0,2.87,3h6.6a2.44,2.44,0,0,0,2.37-2.49V223.57a5.26,5.26,0,0,0-.07-.89,6.21,6.21,0,0,0-6-5.5h-1.7c-.46,0-.91,1.26-1.33,3.26s-.79,4.66-1.13,7.55c-1,8.09-1.57,17.77-1.57,17.77v24.83Z" />
    <line class="cls-14" x1="1580.57" y1="177.83" x2="1576.57" y2="177.83" />
    <path class="cls-15"
      d="M1580.9,177.83v1.9a8.15,8.15,0,0,0,8.13,8.12h3a9.54,9.54,0,0,0,9.51-9.51v-4a4.75,4.75,0,0,0-4.74-4.73H1585.9a5,5,0,0,0-5,5Z" />
    <path class="cls-15"
      d="M1576.29,177.83v1.9a8.16,8.16,0,0,1-8.14,8.14h-3.05a9.55,9.55,0,0,1-9.53-9.53v-4a4.77,4.77,0,0,1,4.75-4.75h11a5,5,0,0,1,5,5Z" />
  </g>
  <g id="基础提升">
    <polygon class="cls-1"
      points="2035.71 183.9 2035.71 248.81 1973.29 248.81 1972.54 248.81 1972.54 183.9 2035.71 183.9" />
    <path class="cls-16"
      d="M2035.71,248.81v12.33a6.51,6.51,0,0,1-6.5,6.49H1979a6.5,6.5,0,0,1-6.49-6.49V172.29a6.52,6.52,0,0,1,6.49-6.5h50.18a6.51,6.51,0,0,1,6.5,6.5v76.52Z" />
    <line class="cls-16" x1="2035.71" y1="183.9" x2="1972.54" y2="183.9" />
    <polyline class="cls-16" points="2036.46 248.81 2035.71 248.81 1973.29 248.81" />
    <polygon class="cls-8"
      points="2014.39 206.65 2003.37 235.26 2004.12 214.18 1991.34 214.18 1997.35 196.11 2009.72 196.11 2006.38 206.65 2014.39 206.65" />
    <polygon class="cls-17"
      points="1997.35 196.11 2009.72 196.11 2006.38 206.65 2014.39 206.65 2003.37 235.26 2004.12 214.18 1991.34 214.18 1997.35 196.11" />
    <rect class="cls-17" x="1977.8" y="159.98" width="52.64" height="4.52" />
    <rect class="cls-17" x="1977.8" y="268.39" width="52.64" height="4.52" />
    <line class="cls-18" x1="2031.95" y1="188.58" x2="2031.95" y2="198.45" />
    <path class="cls-18" d="M2018.91,160c4.77-6.78,9.7,0,9.7,0" />
    <polygon class="cls-19"
      points="2115.72 224.72 2115.72 199.17 2126.66 199.17 2111.07 184.76 2095.49 199.17 2106.43 199.17 2106.43 224.72 2115.72 224.72" />
    <polygon class="cls-20"
      points="2063.86 187.08 2063.86 156.27 2072.79 156.27 2060.07 138.9 2047.35 156.27 2056.28 156.27 2056.28 187.08 2063.86 187.08" />
    <polygon class="cls-21"
      points="2067.32 228.97 2067.32 219.56 2071.35 219.56 2065.62 214.26 2059.89 219.56 2063.91 219.56 2063.91 228.97 2067.32 228.97" />
    <polygon class="cls-22"
      points="2091.41 231.27 2091.41 161.61 2111.66 161.61 2082.81 122.33 2053.96 161.61 2074.22 161.61 2074.22 231.27 2091.41 231.27" />
    <text class="cls-7" transform="translate(1888.39 320.06)">基础提升课程(免费）</text>
  </g>
  <g id="产出_经验" data-name="产出/经验">
    <polygon class="cls-1"
      points="1653.23 503.92 1680.16 405.71 1686.76 397.4 1695.7 398.44 1701.27 402.66 1703.35 409.98 1677.99 510.87 1671.87 504.81 1663.84 502.19 1655.43 505.09 1653.23 503.92" />
    <ellipse class="cls-1" cx="1763.33" cy="413.9" rx="11.7" ry="11.18" />
    <path class="cls-1"
      d="M1763.24,387.82h.18a3.81,3.81,0,0,1,3.81,3.81v11.09a0,0,0,0,1,0,0h-7.8a0,0,0,0,1,0,0V391.64a3.81,3.81,0,0,1,3.81-3.81Z" />
    <ellipse class="cls-8" cx="1763.33" cy="413.9" rx="3.9" ry="3.73" />
    <path class="cls-8"
      d="M1807.32,416a9.41,9.41,0,0,0-7.19-3.26h-22.87a13.4,13.4,0,0,0-7.74-10.84v-10.4a6.19,6.19,0,0,0-12.36,0v10.4a13.36,13.36,0,0,0-7.74,10.84H1705l.61-2.42c.61-3.19-.58-6.86-3.16-9.81a16,16,0,0,0-12.31-5.32h0c-5.55,0-10.07,3.66-12.15,9.93l-28.79,105a14.16,14.16,0,0,0-.77,4.61c0,8.14,6.94,14.76,15.45,14.76h110.72a15.33,15.33,0,0,0,15.12-11.8l19.56-94.3A8.53,8.53,0,0,0,1807.32,416Zm-45.61-24.5a1.63,1.63,0,0,1,3.25,0v9h-3.25Zm1.63,13.36a9,9,0,1,1-9.43,9A9.24,9.24,0,0,1,1763.34,404.9Zm5.73,41.14a20.42,20.42,0,0,1-11.86,0l4-19a12,12,0,0,0,3.9,0Zm-86.73-39.68c.67-2,2.78-6.78,7.85-6.78h0a11.24,11.24,0,0,1,8.73,3.75c1.69,1.93,2.54,4.38,2.2,6.15l-24.41,97.15a15.68,15.68,0,0,0-12.88-6.61,16,16,0,0,0-7.74,2Zm122.43,16.21-19.55,94.3a10.8,10.8,0,0,1-10.66,8.3H1663.84a10.68,10.68,0,0,1-10.9-10.41,9.77,9.77,0,0,1,.49-3.07,1.34,1.34,0,0,0,.09-.26h0a10.83,10.83,0,0,1,10.3-7.05,10.67,10.67,0,0,1,10.89,10.39,2.2,2.2,0,0,0,2,2.16,2.28,2.28,0,0,0,2.5-1.65l24.67-98.14h45.88a13.52,13.52,0,0,0,7.18,8.64l-4,18.47a19.67,19.67,0,0,1-10.34-17.12,2.28,2.28,0,0,0-4.56,0A24.06,24.06,0,0,0,1752,448.67l-1.35,6.22-3.92,18-1.86,8.61a2.16,2.16,0,0,0,1.76,2.56,2.5,2.5,0,0,0,.47,0,2.26,2.26,0,0,0,2.23-1.73l2.1-9.67L1755,456l1.25-5.7a26.1,26.1,0,0,0,14.1,0l7,32.12a2.24,2.24,0,0,0,2.22,1.73,2.59,2.59,0,0,0,.47,0,2.16,2.16,0,0,0,1.76-2.56l-7.14-32.87a24.07,24.07,0,0,0,14-21.55,2.28,2.28,0,0,0-4.55,0,19.69,19.69,0,0,1-10.36,17.12l-4-18.47a13.52,13.52,0,0,0,7.16-8.64h23.25a4.81,4.81,0,0,1,3.67,1.67A4.37,4.37,0,0,1,1804.77,422.57Z" />
    <path class="cls-1"
      d="M1750.63,454.89l-3.92,18-9.77.36-7.75,19.31c-16-1.55-27.54-9-27.9-18-.44-10.72,15.29-20.15,34.84-20.89A61.5,61.5,0,0,1,1750.63,454.89Z" />
    <path class="cls-1" d="M1772.59,472l-21.18.79L1755,456C1765.27,459.08,1772.3,465,1772.59,472Z" />
    <path class="cls-23" d="M1772.62,485.61c4.55,11.6-18.22,20.3-28.85,15.95" />
    <path class="cls-24" d="M1324.57,912.58s-15.84,5.07-22.66,16.06h130.72a33.37,33.37,0,0,1,15.51-17.72" /><text
      class="cls-7" transform="translate(1633.03 585.48)">有基础/经验</text><text />
  </g>
  <g id="硬技能">
    <path class="cls-25"
      d="M1810.25,827.44v2.38l-25.57,18a4.9,4.9,0,0,1-2.85.91,5,5,0,0,1-4.23-2.36A5.5,5.5,0,0,1,1779,839l27-19v7.45Z" />
    <path class="cls-26"
      d="M1865,787.8v20.8h-10.25V797.84L1838.4,808.6h-18.35l37-25.22a4.93,4.93,0,0,1,5.26-.29A5.37,5.37,0,0,1,1865,787.8Z" />
    <path class="cls-25"
      d="M1942.6,772.08l-16.18,28.65c-1.32,2.35-2.8,2.08-3.27-.6l-1.62-9.1-25.29,17.57h-18.46l38.75-26.91,0-.05-8.61-6.25c-2.14-1.56-1.77-3.08.82-3.38l31.61-3.64C1942.89,768.07,1943.91,769.74,1942.6,772.08Z" />
    <path class="cls-8"
      d="M1810.59,812.59v10.2h4.31v2.38l-.09,42,.1,0v19.77a2,2,0,0,0,2,2h33.48l-21.83,54a2,2,0,0,0,1.89,2.8c.81,0,5.4.48,5.72-.31l20.3-56.07h9.67l20.3,56.07c.32.79,4.43.31,5.24.31a2.15,2.15,0,0,0,.77-.15,2,2,0,0,0,1.12-2.65l-21.82-54h33.48a2,2,0,0,0,2-2V822.79h4.31v-10.2Zm92.63,72.22H1819V865.26l-.1,0,.1-42.51h84.24Z" />
    <path class="cls-8"
      d="M1884.82,870.48a1.67,1.67,0,0,1,0,2.33l-4.94,4.93a1.65,1.65,0,0,1-2.33,0l-14.8-14.8a1.67,1.67,0,0,1,0-2.33l1.3-1.3L1850.76,846l-7.06,7.06a1.59,1.59,0,0,1-1.16.49,1.61,1.61,0,0,1-1.16-.49l-8.22-8.22a1.64,1.64,0,0,1,0-2.32l13.16-13.16a1.63,1.63,0,0,1,2.31,0,6.08,6.08,0,0,0,2.08,1.42h0a4.18,4.18,0,0,0,1.51.29,6.4,6.4,0,0,0,4-1.73,1.67,1.67,0,0,1,2.32,0l3.29,3.29a.39.39,0,0,1,.08.1,1.62,1.62,0,0,1-.08,2.22l-8.7,8.71L1866.38,857l1.32-1.3a1.64,1.64,0,0,1,2.32,0Zm-6.11,3.76,2.61-2.6-12.47-12.47-2.61,2.6Zm-20.4-40.41-1.1-1.11a9.1,9.1,0,0,1-4.65,1.64h-.34a7.69,7.69,0,0,1-4.65-1.59l-10.93,10.91,5.9,5.9Z" />
    <rect class="cls-8" x="1871.94" y="857.89" width="3.68" height="17.64"
      transform="translate(-64.04 1578.82) rotate(-45)" />
    <path class="cls-8"
      d="M1857.21,832.72l1.1,1.11-15.77,15.76-5.9-5.9,10.93-10.91a7.69,7.69,0,0,0,4.65,1.59h.34A9.1,9.1,0,0,0,1857.21,832.72Z" />
    <rect class="cls-1" x="1882.6" y="837.1" width="18.37" height="2.9" rx="1.45" />
    <rect class="cls-8" x="1891.31" y="841.93" width="8.7" height="1.93" rx="0.97" /><text class="cls-7"
      transform="translate(1768.04 989.34)">硬技能提升强化</text>
  </g>
  <g id="软技能辅导">
    <path class="cls-1" d="M1569.81,1136.85l3-5.75a11.91,11.91,0,0,0-9.69,0l3,5.75-3.94,13.94,5.75,12.72,5.76-12.72Z" />
    <path class="cls-1" d="M1569.26,1137.4l3.09-5.88a12.19,12.19,0,0,0-9.9,0l3.09,5.88-4,14.24,5.88,13,5.88-13Z" />
    <ellipse class="cls-27" cx="1567.74" cy="1104.14" rx="15.96" ry="18.83" />
    <polygon class="cls-28"
      points="1555.24 1132.3 1533.08 1138.23 1525.94 1175.1 1609.07 1175.1 1601.27 1137.59 1579.78 1132.3 1567.86 1163.69 1555.24 1132.3" />
    <path class="cls-8"
      d="M1600.42,1095.46a1.88,1.88,0,0,1-.87-.2,2,2,0,0,1-1.1-1.77v-8.18h-4.75a4.44,4.44,0,0,1-4.43-4.43v-32.53a4.44,4.44,0,0,1,4.43-4.43h50.82a4.44,4.44,0,0,1,4.43,4.43v32.53a4.44,4.44,0,0,1-4.43,4.43h-30.34l-12.56,9.74A2,2,0,0,1,1600.42,1095.46Zm-6.72-47.6a.5.5,0,0,0-.49.49v32.53a.5.5,0,0,0,.49.49h6.72a2,2,0,0,1,2,2v6.13l9.9-7.69a2,2,0,0,1,1.21-.41h31a.5.5,0,0,0,.49-.49v-32.53a.5.5,0,0,0-.49-.49Z" />
    <path class="cls-1"
      d="M1657.51,1069.54h15.34a.5.5,0,0,1,.49.49v32.53a.5.5,0,0,1-.49.49h-6.72a2,2,0,0,0-2,2v4.76l-5.09-6a2,2,0,0,0-1.51-.7H1622a.5.5,0,0,1-.49-.49V1092h-3.94v10.6A4.44,4.44,0,0,0,1622,1107h34.62l8,9.45a2,2,0,0,0,1.51.7,1.76,1.76,0,0,0,.67-.12,2,2,0,0,0,1.3-1.85V1107h4.74a4.44,4.44,0,0,0,4.43-4.43V1070a4.44,4.44,0,0,0-4.43-4.43h-15.34Z" />
    <path class="cls-1" d="M1617.6,1074.72V1070a4.44,4.44,0,0,1,4.43-4.43h15.28v3.94H1622a.5.5,0,0,0-.49.49v4.69Z" />
    <text class="cls-7" transform="translate(1513.78 1224.3)">1V1软技能辅导</text>
    <polygon class="cls-1"
      points="1715.22 1132.56 1736.42 1137.78 1744.12 1174.79 1662.11 1174.79 1669.14 1138.42 1691.01 1132.56 1697.73 1149.29 1695.29 1164.84 1703.46 1164.84 1709.87 1164.84 1708.09 1151.33 1715.22 1132.56" />
    <polygon class="cls-1" points="1709.87 1164.84 1703.46 1164.84 1703.46 1163.54 1708.09 1151.33 1709.87 1164.84" />
    <polygon class="cls-1" points="1703.46 1163.54 1703.46 1164.84 1695.29 1164.84 1697.73 1149.29 1703.46 1163.54" />
    <path class="cls-1"
      d="M1697.75,1131.86a8.26,8.26,0,0,0,10.7,0s.4,3.11-1.91,4.51l1.1,11.51.45,3.45-4.63,12.21-5.73-14.25,2-12.64S1697.47,1133.28,1697.75,1131.86Z" />
    <path class="cls-29"
      d="M1697.73,1149.29l2-12.64s-2.25-3.37-2-4.79a8.26,8.26,0,0,0,10.7,0s.4,3.11-1.91,4.51l1.1,11.51.45,3.45" />
    <polygon class="cls-30"
      points="1697.73 1149.29 1691.01 1132.56 1669.14 1138.42 1662.11 1174.79 1744.12 1174.79 1736.42 1137.78 1715.22 1132.56 1708.09 1151.33 1703.46 1163.54 1697.73 1149.29" />
    <path class="cls-1"
      d="M1717.82,1095.91h-7.62a3.83,3.83,0,0,0-3.83,3.82v2.53h-3.5v-2.54a3.85,3.85,0,0,0-3.84-3.83h-8c2.59-5.65,7.61-9.47,13.38-9.47S1715.22,1090.25,1717.82,1095.91Z" />
    <path class="cls-1"
      d="M1702.87,1103.77v-1.51h3.5v1.51a6.24,6.24,0,0,0,6.22,6.22h2.2a7.18,7.18,0,0,0,4.64-1.69c-1.38,8.43-7.58,14.78-15,14.78s-13.79-6.52-15.05-15.13a7.22,7.22,0,0,0,5.06,2.06h2.2A6.26,6.26,0,0,0,1702.87,1103.77Z" />
    <path class="cls-11" d="M1691,1095.89c2.59-5.65,7.61-9.47,13.38-9.47s10.8,3.83,13.4,9.49" />
    <path class="cls-11" d="M1719.43,1108.3c-1.38,8.43-7.58,14.78-15,14.78s-13.79-6.52-15.05-15.13" />
    <line class="cls-14" x1="1706.12" y1="1102.26" x2="1703.08" y2="1102.26" />
    <path class="cls-15"
      d="M1706.37,1102.26v1.51a6.24,6.24,0,0,0,6.22,6.22h2.2a7.18,7.18,0,0,0,4.64-1.69,7.27,7.27,0,0,0,2.64-5.59v-3.17a3.64,3.64,0,0,0-3.63-3.63h-8.24a3.83,3.83,0,0,0-3.83,3.82Z" />
    <path class="cls-15"
      d="M1702.87,1102.26v1.51a6.26,6.26,0,0,1-6.24,6.24h-2.2a7.36,7.36,0,0,1-7.31-7.3v-3.18a3.65,3.65,0,0,1,3.64-3.64H1699a3.85,3.85,0,0,1,3.84,3.83Z" />
  </g>
  <g id="项目完成">
    <path class="cls-8"
      d="M1413.1,879.24a46.45,46.45,0,1,0-32.85-13.6A46.15,46.15,0,0,0,1413.1,879.24Zm-28.75-75.19a40.66,40.66,0,1,1-11.9,28.74A40.39,40.39,0,0,1,1384.35,804.05Z" />
    <path class="cls-8"
      d="M1401.39,854.41h.09a2.92,2.92,0,0,0,2.1-.89l36.29-37.75a2.9,2.9,0,0,0-4.19-4l-34.06,35.42-13.89-16.41a2.9,2.9,0,1,0-4.43,3.75l16,18.87A2.8,2.8,0,0,0,1401.39,854.41Z" />
    <rect class="cls-8" x="1340.13" y="885.99" width="146.22" height="26.59" rx="13.29" />
    <circle class="cls-1" cx="1473.06" cy="899.28" r="13.29" />
    <rect class="cls-1" x="1319.08" y="866.05" width="146.22" height="26.59" rx="13.29" />
    <circle class="cls-8" cx="1452.01" cy="879.35" r="13.29" />
    <path class="cls-31" d="M1462.54,879.7c0,1.09.63-9.77-10-9.77-10,0-11.63,16.63-.56,17,10.53.36,7.2-11.58.56-9.41" />
    <rect class="cls-8" x="1304.68" y="885.99" width="146.22" height="26.59" rx="13.29" />
    <circle class="cls-1" cx="1437.61" cy="899.28" r="13.29" />
    <rect class="cls-24" x="1402.72" y="916.45" width="26.59" height="2.22" rx="1.11" />
    <rect class="cls-32" x="1388.32" y="923.1" width="39.88" height="2.22" rx="1.11" /><text class="cls-7"
      transform="translate(1285.39 983.9)">工业项目实战 </text>
  </g>
  <g id="path">
    <path class="cls-33" d="M683.6,321.66s68.1-19.89,208.78,4l-19.21-17.34" />
    <path class="cls-34" d="M1855.57,1005.83c-4,42-45,97-95,122" />
    <path class="cls-34" d="M1509.57,1124.83c-49-19-89-67-107.84-112.49" />
    <path class="cls-35" d="M1305.57,1425.83s177,24,312.46,3.79l-13,20.31" />
    <path class="cls-35" d="M2309.57,1429.83l14.91-13.52c-183.91,50.52-402.84,4.63-402.84,4.63" />
    <path class="cls-36" d="M1456.57,760.72c1.28-9.31,174.11-175.64,355.5,18.61" />
    <line class="cls-33" x1="1685.54" y1="217.19" x2="1903.22" y2="217.19" />
    <path class="cls-33" d="M1122.4,349.83h51.17l41.5-98.59s7.5-29.63,34-29.63h241.5" />
    <line class="cls-33" x1="1844.49" y1="485.61" x2="2250.07" y2="485.83" />
    <path class="cls-33" d="M1174.57,350.83l34,110s6.67,24.78,35.84,24.78h386.08" />
    <path class="cls-33" d="M2184.62,214.26h79.79s27.83,4.45,36,30l25.33,105.56-26.67,107.75s-5.16,27.81-49.33,28" />
    <path class="cls-33" d="M2325.74,349.83s268.83-8,268.83,261c0,318-621,269-621,269l20.17-13.13" />
    <path class="cls-35" d="M1242.57,874.83c-101.92,17.84-486-8-529,151V994.09" />
    <path class="cls-35" d="M680.57,1272.83c33,120,111,157,332,153l-20.81,14.1" />
  </g>
  <g id="工作咨询服务">
    <path class="cls-8"
      d="M1255.47,1333v106.34a10.42,10.42,0,0,1-10.4,10.41l-132.8,0a10.42,10.42,0,0,1-10.4-10.4V1332.92a10.41,10.41,0,0,1,10.4-10.41l101.45,0v4.22l-101.45,0a6.18,6.18,0,0,0-6.18,6.19v7.55h107.63v4.22H1106.09v94.56a6.18,6.18,0,0,0,6.18,6.18h19.78v-4a2,2,0,0,1-.86-.18l43.91.18v4l70,0a6.19,6.19,0,0,0,6.18-6.18v-94.6h-7.84v-4.22h7.84V1333a6.2,6.2,0,0,0-6.18-6.18h-1.66v-4.22h1.66A10.42,10.42,0,0,1,1255.47,1333Z" />
    <path class="cls-8"
      d="M1243.41,1344.69v31.81a1.87,1.87,0,0,1-1.14,1.71,2,2,0,0,1-.72.14,1.81,1.81,0,0,1-1.31-.55l-6.35-6.34v-4.67c0-.2,0-.41,0-.61l5.84,5.83v-27.32Z" />
    <rect class="cls-8" x="1239.7" y="1340.47" width="3.71" height="4.22" />
    <rect class="cls-8" x="1239.7" y="1326.77" width="3.71" height="13.69" />
    <polygon class="cls-8"
      points="1243.41 1322.55 1243.41 1326.77 1239.7 1326.77 1239.7 1322.69 1239.7 1322.55 1243.41 1322.55" />
    <path class="cls-8"
      d="M1243.41,1320.84v1.71h-29.69v-1.7a1.87,1.87,0,0,1,1.86-1.86h26A1.87,1.87,0,0,1,1243.41,1320.84Z" />
    <path class="cls-1" d="M1239.7,1340.47V1372l-5.84-5.83-4-4a1.82,1.82,0,0,0-2.61,0l-9.83,9.81v-49.32h22.27v17.78Z" />
    <polygon class="cls-8"
      points="1239.7 1322.55 1239.7 1322.69 1217.43 1322.69 1217.43 1326.77 1213.72 1326.77 1213.72 1322.54 1239.7 1322.55" />
    <path class="cls-1"
      d="M1233.89,1371.46v13.31a5.78,5.78,0,0,1-5.78,5.78h-20.8a5.78,5.78,0,0,1-5.78-5.78v-18a5.78,5.78,0,0,1,5.78-5.79h6.41v15.5a1.87,1.87,0,0,0,1.14,1.71,1.85,1.85,0,0,0,2-.41l11.68-11.67Z" />
    <path class="cls-8"
      d="M1233.89,1366.79v4.67l-5.32-5.33-11.68,11.67a1.85,1.85,0,0,1-2,.41,1.87,1.87,0,0,1-1.14-1.71V1361h3.71v11l9.83-9.81a1.82,1.82,0,0,1,2.61,0l4,4C1233.88,1366.38,1233.89,1366.59,1233.89,1366.79Z" />
    <path class="cls-1" d="M1223.46,1413a2.12,2.12,0,1,1,0,4.23h-19.69a2.12,2.12,0,0,1,0-4.23Z" />
    <path class="cls-1" d="M1219.24,1425.71a2.11,2.11,0,1,1,0,4.22h-15.47a2.11,2.11,0,1,1,0-4.22Z" />
    <rect class="cls-8" x="1213.72" y="1340.47" width="3.71" height="4.22" />
    <rect class="cls-8" x="1213.72" y="1344.69" width="3.71" height="16.32" />
    <rect class="cls-8" x="1213.72" y="1326.76" width="3.71" height="13.7" />
    <path class="cls-8" d="M1215,1400.38a2.11,2.11,0,1,1,0,4.22h-11.25a2.11,2.11,0,0,1,0-4.22Z" />
    <path class="cls-8"
      d="M1129.18,1361.42c1.6,0,2.91.94,2.91,2.11s-1.31,2.11-2.91,2.11h-15.52c-1.61,0-2.91-.94-2.91-2.11s1.3-2.11,2.91-2.11Z" />
    <path class="cls-8" d="M1124.11,1354a2.11,2.11,0,1,1,0,4.22h-11.25a2.11,2.11,0,1,1,0-4.22Z" /><text class="cls-37"
      transform="translate(1020.56 1458.55)"> </text><text class="cls-38" transform="translate(1065.42 1509.31)">
      <tspan class="cls-39" x="6.34" y="0" xml:space="preserve"> </tspan>
      <tspan class="cls-40" x="26.21" y="0" xml:space="preserve"> 工作咨询服务</tspan>
      <tspan class="cls-40">
        <tspan x="0" y="50.75">简历个性化精修</tspan>
        <tspan x="0" y="101.51" xml:space="preserve"> 模拟面试</tspan>
      </tspan>
    </text>
    <polygon class="cls-1"
      points="1180.38 1406.97 1186.32 1435.57 1122.95 1435.57 1128.39 1407.46 1145.29 1402.94 1150.48 1415.86 1148.6 1427.87 1154.91 1427.87 1159.86 1427.87 1158.49 1417.43 1163.99 1402.94 1180.38 1406.97" />
    <polygon class="cls-1" points="1158.49 1417.43 1159.86 1427.87 1154.91 1427.87 1154.91 1426.87 1158.49 1417.43" />
    <path class="cls-1"
      d="M1158.77,1402.4s.3,2.39-1.48,3.48l.85,8.9.35,2.65-3.58,9.44-4.43-11,1.54-9.76s-1.74-2.61-1.53-3.7A6.41,6.41,0,0,0,1158.77,1402.4Z" />
    <polygon class="cls-1" points="1154.91 1426.87 1154.91 1427.87 1148.6 1427.87 1150.48 1415.86 1154.91 1426.87" />
    <path class="cls-41"
      d="M1150.48,1415.86l1.54-9.76s-1.74-2.61-1.53-3.7a6.41,6.41,0,0,0,8.28,0s.3,2.39-1.48,3.48l.85,8.9.35,2.65" />
    <polygon class="cls-42"
      points="1150.48 1415.86 1145.29 1402.94 1128.39 1407.46 1122.95 1435.57 1186.32 1435.57 1180.38 1406.97 1163.99 1402.94 1158.49 1417.43 1154.91 1426.87 1150.48 1415.86" />
    <path class="cls-1"
      d="M1164.05,1376.89h-5.26a2.64,2.64,0,0,0-2.64,2.64v1.74h-2.42v-1.75a2.67,2.67,0,0,0-2.65-2.65h-5.52c1.79-3.9,5.25-6.54,9.24-6.54S1162.26,1373,1164.05,1376.89Z" />
    <path class="cls-1"
      d="M1165.16,1385.45c-1,5.81-5.23,10.21-10.36,10.21s-9.53-4.51-10.4-10.45a5,5,0,0,0,3.5,1.42h1.52a4.32,4.32,0,0,0,4.31-4.31v-1h2.42v1a4.31,4.31,0,0,0,4.29,4.3H1162A5,5,0,0,0,1165.16,1385.45Z" />
    <path class="cls-43" d="M1145.56,1376.87c1.79-3.9,5.25-6.54,9.24-6.54s7.46,2.65,9.25,6.56" />
    <path class="cls-43" d="M1165.16,1385.45c-1,5.81-5.23,10.21-10.36,10.21s-9.53-4.51-10.4-10.45" />
    <line class="cls-44" x1="1155.97" y1="1381.27" x2="1153.87" y2="1381.27" />
    <path class="cls-45"
      d="M1156.15,1381.27v1a4.31,4.31,0,0,0,4.29,4.3H1162a5.07,5.07,0,0,0,5-5v-2.2a2.52,2.52,0,0,0-2.51-2.5h-5.69a2.64,2.64,0,0,0-2.64,2.64Z" />
    <path class="cls-45"
      d="M1153.73,1381.27v1a4.32,4.32,0,0,1-4.31,4.31h-1.52a5.07,5.07,0,0,1-5.05-5.05v-2.19a2.52,2.52,0,0,1,2.51-2.52h5.72a2.67,2.67,0,0,1,2.65,2.65Z" />
  </g>
  <g id="项目实战">
    <polyline class="cls-46" points="610 1049.33 610 1194.41 773.88 1194.69" />
    <polyline class="cls-46" points="610 1055.51 610 1148.69 610 1167.75 638.63 1167.75" />
    <line class="cls-46" x1="620.1" y1="1140.81" x2="610" y2="1140.81" />
    <line class="cls-46" x1="610" y1="1114.7" x2="638.63" y2="1114.44" />
    <line class="cls-46" x1="610" y1="1086.37" x2="622.91" y2="1086.37" /><text class="cls-7"
      transform="translate(554.49 1252.83)">SD<tspan class="cls-47" x="47.14" y="0">L</tspan>
      <tspan x="64.7" y="0">C工业项目实战</tspan>
    </text>
    <polygon class="cls-1"
      points="718.6 1117.16 724.53 1145.67 661.34 1145.67 666.76 1117.65 683.61 1113.14 688.79 1126.03 686.91 1138 693.21 1138 698.13 1138 696.77 1127.6 702.26 1113.14 718.6 1117.16" />
    <polygon class="cls-1" points="696.77 1127.6 698.13 1138 693.21 1138 693.21 1137 696.77 1127.6" />
    <path class="cls-1"
      d="M697.05,1112.6s.31,2.39-1.48,3.48l.85,8.86.35,2.66-3.56,9.4-4.42-11,1.53-9.74s-1.73-2.6-1.52-3.69A6.37,6.37,0,0,0,697.05,1112.6Z" />
    <polygon class="cls-1" points="693.21 1137 693.21 1138 686.91 1138 688.79 1126.03 693.21 1137" />
    <path class="cls-48"
      d="M688.79,1126l1.53-9.74s-1.73-2.6-1.52-3.69a6.37,6.37,0,0,0,8.25,0s.31,2.39-1.48,3.48l.85,8.86.35,2.66" />
    <polygon class="cls-49"
      points="688.79 1126.03 683.61 1113.14 666.76 1117.65 661.34 1145.67 724.53 1145.67 718.6 1117.16 702.26 1113.14 696.77 1127.6 693.21 1137 688.79 1126.03" />
    <path class="cls-8"
      d="M754.85,1105l-7.69-2.4a54.47,54.47,0,0,0-1.89-7.34l5.68-6a2.36,2.36,0,0,0,.33-2.62l-6-10.57a2.38,2.38,0,0,0-2.41-1.07l-8.06,1.82a53.54,53.54,0,0,0-5.28-5.37l1.93-8a2.34,2.34,0,0,0-1-2.43L720,1054.91a2.35,2.35,0,0,0-2.62.29l-6.06,5.58a56,56,0,0,0-7.24-2l-2.28-7.73a2.35,2.35,0,0,0-2.1-1.59l-12.15-.1a2.35,2.35,0,0,0-2.13,1.55l-2.4,7.7a53,53,0,0,0-7.34,1.89l-6-5.69a2.36,2.36,0,0,0-2.61-.32l-10.57,6a2.34,2.34,0,0,0-1.07,2.41l1.81,8.06a55.75,55.75,0,0,0-5.37,5.28l-8-1.94a2.36,2.36,0,0,0-2.43,1l-6.15,10.48a2.36,2.36,0,0,0,.28,2.62l5.59,6a55,55,0,0,0-2,7.25l-7.73,2.27a2.36,2.36,0,0,0-1.59,2.11l-.1,12.14a2.35,2.35,0,0,0,1.55,2.13l7.69,2.4a55.74,55.74,0,0,0,1.89,7.35l-5.68,6a2.34,2.34,0,0,0-.32,2.61l6,10.57a2.37,2.37,0,0,0,2.41,1.07l8.06-1.81a55.85,55.85,0,0,0,5.29,5.37l-1.94,8a2.36,2.36,0,0,0,1,2.43l10.47,6.15a2.35,2.35,0,0,0,2.62-.28l6.06-5.59a55,55,0,0,0,7.25,2l2.27,7.73a2.35,2.35,0,0,0,2.1,1.59l12.15.1a2.35,2.35,0,0,0,2.13-1.55l2.4-7.69a54.49,54.49,0,0,0,7.34-1.9l6,5.69a2.35,2.35,0,0,0,2.62.32l10.57-6a2.35,2.35,0,0,0,1.06-2.41l-1.81-8a55.87,55.87,0,0,0,5.37-5.29l8,1.94a2.34,2.34,0,0,0,2.42-1l6.15-10.47a2.35,2.35,0,0,0-.28-2.63l-5.59-6a55,55,0,0,0,2-7.25l7.73-2.27a2.37,2.37,0,0,0,1.59-2.1l.1-12.15A2.36,2.36,0,0,0,754.85,1105Zm-62.14,50.53a42.86,42.86,0,1,1,43.22-42.5A42.87,42.87,0,0,1,692.71,1155.57Z" />
    <path class="cls-1"
      d="M704.27,1083.83H698a3.09,3.09,0,0,0-3.08,3.07v1.93h-2.85v-1.94a3.09,3.09,0,0,0-3.08-3.08h-6.58c2.12-4.46,6.22-7.47,10.93-7.47S702.16,1079.36,704.27,1083.83Z" />
    <path class="cls-1"
      d="M705.59,1093.63c-1.14,6.64-6.18,11.64-12.25,11.64s-11.27-5.15-12.3-11.94a5.82,5.82,0,0,0,4,1.63h2a5,5,0,0,0,5-5v-1.12h2.85V1090a5,5,0,0,0,5,5h2A5.9,5.9,0,0,0,705.59,1093.63Z" />
    <path class="cls-50" d="M682.41,1083.81c2.12-4.46,6.22-7.47,10.93-7.47s8.82,3,10.93,7.49" />
    <path class="cls-50" d="M705.59,1093.63c-1.14,6.64-6.18,11.64-12.25,11.64s-11.27-5.15-12.3-11.94" />
    <line class="cls-51" x1="694.72" y1="1088.83" x2="692.24" y2="1088.83" />
    <path class="cls-52"
      d="M694.92,1088.83V1090a5,5,0,0,0,5,5h2a5.85,5.85,0,0,0,5.84-5.85v-2.35a2.92,2.92,0,0,0-2.91-2.91H698a3.09,3.09,0,0,0-3.08,3.07Z" />
    <path class="cls-52"
      d="M692.07,1088.83V1090a5,5,0,0,1-5,5h-2a5.89,5.89,0,0,1-5.86-5.87v-2.36a2.92,2.92,0,0,1,2.92-2.92H689a3.09,3.09,0,0,1,3.08,3.08Z" />
  </g>
  <g id="成功上岸">
    <path class="cls-1" d="M1766.36,1314.16s14.5,0,14.5,18.65h55.94s0-18.65-18.65-18.65h-51.79" />
    <path class="cls-8"
      d="M1856.64,1364.23a1,1,0,0,0-.08-.18,2.23,2.23,0,0,0-.33-.51s0-.07-.07-.1l-26.55-27.3V1335h7.19a2.13,2.13,0,0,0,2.13-2.14c0-7.19-4.34-20.78-20.78-20.78h-12.56a2.13,2.13,0,0,0-.47-.77L1799,1305c-6.67-6.67-13.41-6.3-17.89-4.8a22.42,22.42,0,0,0-8,4.81l-6.82,7c-4.81,0-8.7,1.56-11.57,4.63-3.49,3.75-4.6,8.89-4.93,12.4l-.16.1L1716,1363.43s0,.07-.06.1a2,2,0,0,0-.34.51,1.42,1.42,0,0,1-.08.18,2.13,2.13,0,0,0-.13.71v68.53c0,4.69,2.83,13.56,13.56,13.56h114.22c4.69,0,13.56-2.83,13.56-13.56v-68.53A2,2,0,0,0,1856.64,1364.23Zm-5.18.5-21.85,17.48v-39.94Zm-17-34.06h-51.54c-.43-7.23-3.06-11.66-6.09-14.37h41.3C1831,1316.3,1833.84,1326.19,1834.48,1330.67Zm-58.3-22.6c.41-.41,10.09-9.75,19.81,0l3.9,4h-27.58Zm-18.29,11.51c2.06-2.2,4.83-3.28,8.47-3.28.51,0,12.36.19,12.36,16.51a2.14,2.14,0,0,0,2.14,2.14h44.48v50a2.12,2.12,0,0,0,.08.57l-20.79,16.63-6.85-7-.1-.1c-9.16-8.2-19.15-3.58-23.16,0l-.11.1-6.68,6.87-13.73-10.9v-58.32a.76.76,0,0,0,0-.15C1754,1332.58,1753.47,1324.32,1757.89,1319.58Zm-8.17,15.64v52.51l-29-23Zm-21.58,107.47c-8.1-.52-8.43-8.32-8.43-9.23v-64.1l45,35.75Zm5.92,0,43.36-44.53c.78-.67,9-7.39,17.35,0l43.37,44.54Zm118.43-9.28c0,7.64-6.07,9-8.43,9.23l-36.43-37.42,44.86-35.89Z" />
    <path class="cls-8" d="M1808.94,1351.81h-38.39a2.14,2.14,0,0,1,0-4.28h38.39a2.14,2.14,0,0,1,0,4.28Z" />
    <path class="cls-1" d="M1798.16,1365.22h-27.61a2.14,2.14,0,1,1,0-4.28h27.61a2.14,2.14,0,0,1,0,4.28Z" />
    <path class="cls-1" d="M1806.4,1378.83h-35.85a2.14,2.14,0,0,1,0-4.28h35.85a2.14,2.14,0,0,1,0,4.28Z" />
    <path class="cls-53"
      d="M1800.31,1472.41l-10.79-5.29a5.93,5.93,0,0,0-5.52.16l-10.47,5.88a5.93,5.93,0,0,1-8.78-6l1.7-11.89a6,6,0,0,0-1.86-5.21l-8.83-8.14a5.93,5.93,0,0,1,3-10.21l11.84-2.06a5.9,5.9,0,0,0,4.37-3.37l5-10.92a5.94,5.94,0,0,1,10.64-.3l5.61,10.63a6,6,0,0,0,4.56,3.12l11.93,1.39a5.93,5.93,0,0,1,3.58,10l-8.37,8.63a5.94,5.94,0,0,0-1.56,5.3l2.36,11.78A5.93,5.93,0,0,1,1800.31,1472.41Z" />
    <line class="cls-54" x1="1694" y1="1343.45" x2="1711.06" y2="1358.02" />
    <line class="cls-54" x1="1706.29" y1="1340.76" x2="1716.53" y2="1353.62" /><text class="cls-55"
      transform="translate(1677.01 1524.38)">成功上岸<tspan x="0" y="50.75" xml:space="preserve"> 薪资待遇谈判</tspan>
      <tspan x="0" y="101.51" xml:space="preserve"> 背调辅导</tspan>
    </text>
  </g>
  <g id="开始新工作">
    <line class="cls-56" x1="2382.61" y1="1293.87" x2="2382.61" y2="1466.62" />
    <path class="cls-57" d="M2392,1341.39c40.13-14.48,25.55,3.32,77,1v-42.11c-51.43,2.33-36.85-15.48-77-1Z" />
    <line class="cls-58" x1="2420.46" y1="1331.34" x2="2452.42" y2="1296.99" />
    <line class="cls-58" x1="2407.73" y1="1318.09" x2="2420.46" y2="1331.34" /><text class="cls-55"
      transform="translate(2311.98 1532.94)">
      <tspan xml:space="preserve"> 开始新工作</tspan>
      <tspan x="0" y="50.75">试用期Back up</tspan>
    </text>
    <polygon class="cls-1"
      points="2476.34 1431.04 2484.03 1468.05 2402.02 1468.05 2409.06 1431.68 2430.92 1425.83 2437.65 1442.55 2435.21 1458.1 2443.38 1458.1 2449.78 1458.1 2448.01 1444.6 2455.13 1425.83 2476.34 1431.04" />
    <polygon class="cls-1" points="2448.01 1444.6 2449.78 1458.1 2443.38 1458.1 2443.38 1456.8 2448.01 1444.6" />
    <path class="cls-1"
      d="M2448.37,1425.13s.4,3.1-1.92,4.5l1.11,11.51.45,3.46-4.63,12.2-5.73-14.25,2-12.63s-2.26-3.38-2-4.79A8.29,8.29,0,0,0,2448.37,1425.13Z" />
    <polygon class="cls-1" points="2443.38 1456.8 2443.38 1458.1 2435.21 1458.1 2437.65 1442.55 2443.38 1456.8" />
    <path class="cls-29"
      d="M2437.65,1442.55l2-12.63s-2.26-3.38-2-4.79a8.29,8.29,0,0,0,10.71,0s.4,3.1-1.92,4.5l1.11,11.51.45,3.46" />
    <polygon class="cls-30"
      points="2437.65 1442.55 2430.92 1425.83 2409.06 1431.68 2402.02 1468.05 2484.03 1468.05 2476.34 1431.04 2455.13 1425.83 2448.01 1444.6 2443.38 1456.8 2437.65 1442.55" />
    <path class="cls-1"
      d="M2457.74,1389.17h-7.63a3.83,3.83,0,0,0-3.82,3.82v2.53h-3.51V1393a3.85,3.85,0,0,0-3.83-3.84h-8c2.6-5.65,7.62-9.47,13.39-9.47S2455.14,1383.51,2457.74,1389.17Z" />
    <path class="cls-1"
      d="M2459.35,1401.56c-1.38,8.43-7.58,14.79-15,14.79s-13.8-6.53-15.06-15.14a7.2,7.2,0,0,0,5.06,2.06h2.21a6.25,6.25,0,0,0,6.23-6.24v-1.51h3.51V1397a6.23,6.23,0,0,0,6.22,6.22h2.19A7.19,7.19,0,0,0,2459.35,1401.56Z" />
    <path class="cls-11" d="M2431,1389.15c2.6-5.65,7.62-9.47,13.39-9.47s10.8,3.83,13.4,9.49" />
    <path class="cls-11" d="M2459.35,1401.56c-1.38,8.43-7.58,14.79-15,14.79s-13.8-6.53-15.06-15.14" />
    <line class="cls-14" x1="2446.03" y1="1395.52" x2="2442.99" y2="1395.52" />
    <path class="cls-15"
      d="M2446.29,1395.52V1397a6.23,6.23,0,0,0,6.22,6.22h2.19A7.32,7.32,0,0,0,2462,1396v-3.17a3.64,3.64,0,0,0-3.63-3.63h-8.25a3.83,3.83,0,0,0-3.82,3.82Z" />
    <path class="cls-15"
      d="M2442.78,1395.52V1397a6.25,6.25,0,0,1-6.23,6.24h-2.21a7.34,7.34,0,0,1-7.3-7.3v-3.18a3.65,3.65,0,0,1,3.64-3.64H2439a3.85,3.85,0,0,1,3.83,3.84Z" />
  </g>
</svg>