<svg version="1.1" id="Artwork" xmlns:x="ns_extend;" xmlns:i="ns_ai;" xmlns:graph="ns_graphs;" xmlns="http://www.w3.org/2000/svg" xmlns:xlink="http://www.w3.org/1999/xlink" x="0px" y="0px" viewBox="0 0 516.8 146.8" style="enable-background:new 0 0 516.8 146.8;" xml:space="preserve">
 <style type="text/css">
  .st0{fill:#0055D9;}
	.st1{fill:#081477;}
 </style>
 <metadata>
  <sfw xmlns="ns_sfw;">
   <slices>
   </slices>
   <sliceSourceBounds bottomLeftOrigin="true" height="146.8" width="516.8" x="68.7" y="71.1">
   </sliceSourceBounds>
  </sfw>
 </metadata>
 <g>
  <path class="st0" d="M88.7,96.6c-1.3-0.4-1.4-2.2,0.1-2.8c25.8-12.2,24.1-39.9,24.1-39.9C112.8,25.8,92.2-0.2,59,0
		C22,0.2-0.2,29.3,0,63.7c0.3,60.2,46.3,83.2,60.6,83.1l-0.1-23.9c0-3.8,0-6.8,2.3-6.8c0,0,14.8,14.8,31.2,14.8
		c25.6-0.1,34.3-21.6,34.3-21.6L88.7,96.6z M59.1,78.2C46,78.3,35.4,67.7,35.3,54.6c-0.1-13.1,10.5-23.7,23.6-23.8
		C72,30.7,82.6,41.3,82.7,54.4C82.7,67.5,72.2,78.1,59.1,78.2">
  </path>
  <g>
   <path class="st1" d="M305.3,53.2c-2.9-5.4-10.4-11.9-22.7-11.9c-18.9,0-34.2,14.4-34.2,35.6c0,19,12.6,35.8,34.2,35.8
			c9.4,0,18.4-3.9,22.7-11.8v9.7h16V43.4h-16V53.2z M305.4,77.5c-0.2,3.3-1,6.5-2.6,9.4c-3.1,6.1-8.9,10.8-17.9,10.8
			c-14.4,0-20.4-12.1-20.4-20.4v-0.1c0-10.4,7.3-20.9,20.3-20.9c9.7,0,15.9,5.5,18.7,11.9C304.9,71,305.5,74.3,305.4,77.5">
   </path>
   <path class="st1" d="M374.2,41.3c-11.1,0-19,5.1-23.8,11.9v-9.8h-15.1v90.7h16v-23.5v-8.9c2.7,4.3,9.8,11,22.9,11
			c19.7,0,33.3-16,33.3-35.1C407.6,61.2,397.7,41.3,374.2,41.3 M391.5,77c0,11-8.2,20.7-20.4,20.7c-5.8,0-10.9-2.3-14.6-6
			s-5.9-8.8-5.9-14.6c0-5.9,2.2-11.1,5.8-14.8c3.7-3.8,8.7-6.1,14.6-6.1c13.6,0,20.6,11,20.6,20.7V77H391.5z">
   </path>
   <rect x="418.2" y="43.4" class="st1" width="16" height="67.2">
   </rect>
   <path class="st1" d="M500.8,20v22.3v9.8c-2.4-3.9-9.7-10.8-22.5-10.8c-18.2,0-33.8,13.8-33.8,35.6c0,19.6,13.3,35.8,34,35.8
			c13.7,0,20.1-6.7,23-11.8v9.7h15.3V20H500.8z M496.1,91.5c-3.8,3.8-9.1,6.1-14.9,6.1c-12.4,0-20.6-9.3-20.6-20.7v-0.1
			c0-10.5,7.6-20.6,20.7-20.6c5.8,0,10.9,2.2,14.6,5.9c3.7,3.6,6,8.6,6,14.4C502.1,82.4,499.9,87.7,496.1,91.5">
   </path>
   <path class="st1" d="M426.2,14.4c-5.5,0-9.9,4.4-9.9,9.9s4.4,9.9,9.9,9.9s9.9-4.4,9.9-9.9S431.6,14.4,426.2,14.4">
   </path>
   <path class="st1" d="M241.4,49.8c0-19.6-14.1-29.9-35-29.9h-31.5v90.6h18.2V78.7h0.7c2.1,0,3.4,1.9,3.4,1.9s12.2,14.1,16.7,19.2
			c7.2,8.3,12.6,11.6,21.2,11.6c4.2,0,8.4-1.4,11.3-5L215.3,78C230.7,75.5,241.4,65.1,241.4,49.8 M193.2,33.5h9.8
			c12.5,0,20.9,5.3,20.9,16.4c0,11.9-10.8,16.2-20.9,16.2h-9.8V33.5z">
   </path>
  </g>
 </g>
</svg>