<?xml version="1.0" encoding="utf-8"?>
<!-- Generator: Adobe Illustrator 16.0.0, SVG Export Plug-In . SVG Version: 6.00 Build 0)  -->
<!DOCTYPE svg PUBLIC "-//W3C//DTD SVG 1.1//EN" "http://www.w3.org/Graphics/SVG/1.1/DTD/svg11.dtd">
<svg version="1.1" id="Layer_1" xmlns="http://www.w3.org/2000/svg" xmlns:xlink="http://www.w3.org/1999/xlink" x="0px" y="0px"
	 width="963px" height="265px" viewBox="0 0 963 265" enable-background="new 0 0 963 265" xml:space="preserve">
<g>
	<path fill="#3DA9D4" d="M251.96,202.53c0,28.569-23.375,51.944-51.945,51.944H62.945C34.375,254.475,11,231.1,11,202.53V65.43
		c0-28.569,23.375-51.945,51.945-51.945h137.069c28.57,0,51.945,23.376,51.945,51.945L251.96,202.53L251.96,202.53z"/>
	<g>
		<path fill="#48C1C4" d="M206.242,134.008l-46.377-26.34c-4.64,7.652-7.312,16.629-7.312,26.229c0,9.67,2.714,18.705,7.414,26.393
			L206.242,134.008z"/>
		<path fill="#FFFFFF" d="M146.073,168.179c-6.024-10.017-9.492-21.741-9.492-34.28c0-12.471,3.435-24.134,9.395-34.114
			L132.097,91.9c-7.285,12.306-11.468,26.662-11.468,41.997c0,15.403,4.22,29.82,11.564,42.162L146.073,168.179z"/>
		<path fill="#FFFFFF" d="M118.295,183.951c-8.665-14.669-13.643-31.779-13.643-50.055c0-18.204,4.94-35.253,13.547-49.891
			l-13.904-7.896c-9.932,16.967-15.629,36.709-15.629,57.787c0,21.146,5.734,40.948,15.727,57.949L118.295,183.951z"/>
		<path fill="#FFFFFF" d="M90.488,199.746c-11.316-19.334-17.809-41.83-17.809-65.85c0-23.949,6.453-46.389,17.712-65.682
			L76.506,60.33c-12.581,21.621-19.789,46.752-19.789,73.566c0,26.885,7.248,52.072,19.888,73.73L90.488,199.746z"/>
	</g>
</g>
<g>
	<path fill="#000000" d="M356.601,125.82V183.9H340.76V86.94l48.48,48.479L437.72,86.94v96.958H421.4v-58.08l-32.16,32.64
		L356.601,125.82z"/>
	<path fill="#000000" d="M504.92,86.94c13.44,0,24.96,4.8,34.08,14.399c9.602,9.601,14.4,21.119,14.4,34.078
		c0,13.44-4.802,24.963-14.4,34.08c-9.6,9.603-20.64,14.399-34.08,14.399c-13.438,0-24.96-4.799-34.08-14.399
		c-9.6-9.599-14.397-20.64-14.397-34.078c0-13.438,4.8-24.961,14.396-34.078C479.96,91.74,491.48,86.94,504.92,86.94z
		 M504.92,103.26c-8.64,0-16.318,3.359-23.04,9.601c-6.238,6.24-9.6,13.92-9.6,22.56c0,8.644,3.358,16.32,9.6,23.041
		c6.24,6.24,13.92,9.603,23.04,9.603c8.643,0,16.32-2.881,22.562-9.603c6.237-6.237,9.6-13.92,9.6-23.041
		c0-8.64-3.358-16.317-9.6-22.56C521.24,106.141,514.04,103.26,504.92,103.26z"/>
	<path fill="#000000" d="M600.92,143.58c-7.68,0-14.398-2.879-20.16-8.16c-5.276-5.277-8.158-12-8.158-20.157
		c0-7.683,2.882-14.399,8.158-19.683c5.28-5.76,12-8.16,20.16-8.16h90.24v16.32h-90.24c-1.438,0-3.357,0.479-4.8,0.961
		c-1.439,0.479-2.88,1.439-3.84,2.399s-1.92,2.397-2.4,3.84c-0.479,1.44-0.96,2.88-0.96,4.8c0,3.36,0.96,6.24,3.36,8.641
		c2.396,2.399,5.278,3.842,8.64,3.842h24c7.682,0,14.4,2.88,20.16,8.158c5.76,5.279,8.16,12,8.16,20.16
		c0,7.682-2.881,14.398-8.16,20.16c-5.28,5.279-12,8.158-20.16,8.158h-52.319v-16.318h52.318c1.44,0,3.36-0.479,4.802-0.961
		c1.438-0.479,2.88-1.438,3.84-2.396c0.961-0.961,1.92-2.4,2.398-3.842c0.48-1.439,0.96-2.881,0.96-4.801
		c0-3.357-1.438-6.24-3.84-8.641c-2.401-2.4-5.28-3.84-8.64-3.84h-23.521L600.92,143.58L600.92,143.58z"/>
	<path fill="#000000" d="M748.28,86.94h20.64l-39.84,50.88v46.08h-15.84v-45.12l-40.32-51.84h20.643l27.357,35.521L748.28,86.94z"/>
	<path fill="#000000" d="M787.641,86.94h16.318v80.64h48.48v16.32h-64.802L787.641,86.94L787.641,86.94z"/>
	<path fill="#000000" d="M935.48,86.94v16.319H887v24.479h48.48v16.32H887v24h48.48V183.9H870.68V86.94H935.48z"/>
</g>
<g id="Background">
</g>
<g id="Sliders">
</g>
<g id="Hover_Elements">
</g>
<g id="Hover_Elements_1_">
</g>
</svg>
