<?xml version="1.0" encoding="utf-8"?>
<!-- Generator: Adobe Illustrator 26.2.1, SVG Export Plug-In . SVG Version: 6.00 Build 0)  -->
<svg version="1.1" id="Layer_1" xmlns="http://www.w3.org/2000/svg" xmlns:xlink="http://www.w3.org/1999/xlink" x="0px" y="0px"
	 viewBox="0 0 192.5 37" style="enable-background:new 0 0 192.5 37;" xml:space="preserve">
<style type="text/css">
	.st0{fill:#FFFFFF;}
	.st1{fill-rule:evenodd;clip-rule:evenodd;fill:#FFFFFF;}
	.st2{clip-path:url(#SVGID_00000115497548070354702240000011876120785170847376_);fill:#FFFFFF;}
</style>
<g id="Layer_2_00000135654692357955622020000003594059835517108651_">
</g>
<g>
	<g>
		<polygon class="st0" points="121.7,15.7 125,10.5 130.5,10.5 124.4,19.7 		"/>
		<path class="st0" d="M134.8,28.5h6.9v2.1h-9.4V10.5h2.6v18H134.8z M142.6,22.8c0-1.6,0.3-3,1-4.2c0.6-1.2,1.5-2.1,2.6-2.8
			s2.4-1,3.7-1c1.4,0,2.5,0.3,3.5,0.9s1.7,1.3,2.2,2.2v-2.8h2.6v15.4h-2.6v-2.9c-0.5,0.9-1.3,1.6-2.3,2.2s-2.2,0.9-3.5,0.9
			c-1.4,0-2.6-0.3-3.7-1c-1.1-0.7-2-1.6-2.6-2.8C142.9,25.7,142.6,24.3,142.6,22.8z M155.6,22.8c0-1.2-0.2-2.2-0.7-3
			c-0.5-0.9-1.1-1.5-1.9-2c-0.8-0.5-1.7-0.7-2.6-0.7c-1,0-1.8,0.2-2.6,0.7s-1.4,1.1-1.9,2s-0.7,1.9-0.7,3c0,1.2,0.2,2.2,0.7,3.1
			s1.1,1.5,1.9,2c0.8,0.5,1.7,0.7,2.6,0.7c1,0,1.8-0.2,2.6-0.7s1.4-1.1,1.9-2C155.4,25,155.6,24,155.6,22.8z M164.2,18
			c0.5-0.9,1.3-1.7,2.3-2.3c1-0.6,2.2-0.9,3.5-0.9c1.4,0,2.6,0.3,3.7,1c1.1,0.7,2,1.6,2.6,2.8s1,2.6,1,4.2c0,1.6-0.3,2.9-1,4.2
			c-0.6,1.2-1.5,2.2-2.6,2.8c-1.1,0.7-2.4,1-3.7,1s-2.5-0.3-3.5-0.9s-1.8-1.3-2.3-2.2v2.8h-2.6v-20h2.6V18z M174.7,22.8
			c0-1.2-0.2-2.2-0.7-3c-0.5-0.9-1.1-1.5-1.9-2c-0.8-0.5-1.7-0.7-2.6-0.7c-0.9,0-1.8,0.2-2.6,0.7s-1.4,1.1-1.9,2s-0.7,1.9-0.7,3
			c0,1.2,0.2,2.2,0.7,3.1s1.1,1.5,1.9,2c0.8,0.5,1.7,0.7,2.6,0.7c1,0,1.8-0.2,2.6-0.7s1.4-1.1,1.9-2C174.4,25,174.7,24,174.7,22.8z
			 M185.2,30.8c-1.2,0-2.2-0.2-3.2-0.6c-0.9-0.4-1.7-1-2.2-1.7s-0.8-1.6-0.9-2.5h2.6c0.1,0.8,0.4,1.4,1.1,1.9
			c0.6,0.5,1.5,0.7,2.5,0.7s1.7-0.2,2.3-0.6s0.8-1,0.8-1.6c0-0.7-0.3-1.2-0.9-1.5c-0.6-0.3-1.5-0.7-2.8-1c-1.1-0.3-2.1-0.6-2.8-0.9
			s-1.3-0.8-1.9-1.4c-0.5-0.6-0.8-1.4-0.8-2.4c0-0.8,0.2-1.5,0.7-2.2s1.1-1.2,2-1.6c0.9-0.4,1.8-0.6,3-0.6c1.7,0,3.1,0.4,4.1,1.3
			c1.1,0.9,1.6,2,1.7,3.5h-2.6c-0.1-0.8-0.4-1.5-1-1.9c-0.6-0.5-1.4-0.7-2.4-0.7c-0.9,0-1.7,0.2-2.2,0.6s-0.8,0.9-0.8,1.5
			c0,0.5,0.2,0.9,0.5,1.3c0.3,0.3,0.7,0.6,1.2,0.8c0.5,0.2,1.2,0.4,2.1,0.7c1.1,0.3,2,0.6,2.7,0.9s1.3,0.7,1.8,1.3
			c0.5,0.6,0.8,1.3,0.8,2.3c0,0.8-0.2,1.6-0.7,2.3c-0.5,0.7-1.1,1.2-2,1.6C187.3,30.6,186.3,30.8,185.2,30.8z"/>
		<path class="st0" d="M56.1,30.7c-1.9,0-3.6-0.4-5.1-1.3s-2.8-2.1-3.7-3.6s-1.4-3.3-1.4-5.2s0.5-3.7,1.4-5.2s2.1-2.7,3.7-3.6
			c1.5-0.9,3.3-1.3,5.1-1.3s3.6,0.4,5.1,1.3c1.5,0.9,2.8,2.1,3.7,3.6c0.9,1.5,1.3,3.3,1.3,5.2s-0.5,3.7-1.4,5.2s-2.1,2.8-3.7,3.6
			C59.7,30.3,58,30.7,56.1,30.7 M56.1,26.4c1.6,0,2.8-0.5,3.8-1.6c0.9-1.1,1.4-2.4,1.4-4.2c0-1.7-0.5-3.1-1.4-4.2
			c-0.9-1-2.2-1.6-3.8-1.6s-2.9,0.5-3.8,1.5c-0.9,1-1.4,2.4-1.4,4.2c0,1.7,0.5,3.1,1.4,4.2C53.2,25.8,54.5,26.4,56.1,26.4z
			 M67.2,22.7c0-1.6,0.3-3.1,1-4.3c0.7-1.2,1.6-2.2,2.8-2.8c1.2-0.7,2.6-1,4.1-1c2,0,3.6,0.5,4.9,1.5s2.2,2.5,2.6,4.4h-5.1
			c-0.4-1.2-1.3-1.8-2.5-1.8c-0.9,0-1.6,0.3-2.1,1s-0.8,1.7-0.8,2.9c0,1.3,0.3,2.3,0.8,2.9c0.5,0.7,1.2,1,2.1,1
			c1.2,0,2.1-0.6,2.5-1.8h5.1C82.2,26.5,81.3,28,80,29c-1.3,1.1-3,1.6-4.9,1.6c-1.5,0-2.9-0.3-4.1-1s-2.1-1.6-2.8-2.8
			C67.5,25.8,67.2,24.3,67.2,22.7z M93.2,26.5v4.1h-2.4c-1.7,0-3.1-0.4-4.1-1.3s-1.5-2.2-1.5-4.2v-6.2h-1.9v-4h1.9v-4.4H90v4.4h3.2
			v4H90v6.3c0,0.5,0.1,0.8,0.3,1c0.2,0.2,0.6,0.3,1.1,0.3H93.2z M102.4,30.8c-1.5,0-2.9-0.3-4.2-1C97,29.1,96,28.2,95.3,27
			s-1.1-2.6-1.1-4.3c0-1.6,0.4-3,1.1-4.3c0.7-1.2,1.7-2.2,2.9-2.8c1.2-0.7,2.6-1,4.2-1c1.5,0,2.9,0.3,4.2,1c1.2,0.7,2.2,1.6,2.9,2.8
			c0.7,1.2,1.1,2.7,1.1,4.3c0,1.6-0.4,3-1.1,4.3c-0.7,1.2-1.7,2.2-3,2.8C105.3,30.4,103.9,30.8,102.4,30.8z M102.4,26.6
			c0.9,0,1.7-0.3,2.4-1c0.6-0.7,1-1.6,1-2.9s-0.3-2.2-0.9-2.9c-0.6-0.7-1.4-1-2.3-1s-1.7,0.3-2.3,1c-0.6,0.7-0.9,1.6-0.9,2.9
			s0.3,2.2,0.9,2.9C100.7,26.3,101.4,26.6,102.4,26.6z M124.5,30.5l-4-6.1l-3.5,6.1h-5.5l6.3-10.1l-6.5-10h5.3
			c5.3,8,3,4.3,13.5,20.1H124.5z"/>
	</g>
	<g>
		<g>
			<path id="SVGID_1_" class="st1" d="M27.1,2.9c-0.2,1.7-0.6,3.3-1.3,4.8c-0.7,1.5-1.7,2.9-2.8,4.1c-1.1,1.1-2.3,2-3.6,2.7
				c-1.2,0.6-2.5,1.1-3.9,1.4c-0.3,1.4-0.7,2.7-1.3,3.9c-0.7,1.4-1.6,2.6-2.7,3.7c-1.2,1.2-2.6,2.2-4.2,3c-1.5,0.7-3.2,1.2-4.9,1.4
				L1.8,28v-4.6l0.5-0.1c1.1-0.2,2.2-0.5,3.2-1s1.9-1.2,2.7-2c0.9-0.9,1.6-1.9,2.1-3c0.5-1.1,0.8-2.3,0.9-3.5l0.1-2l2-0.2
				c1.3-0.1,2.4-0.4,3.5-0.9s2.1-1.2,3-2.1c0.8-0.8,1.4-1.7,1.9-2.7s0.8-2,1-3.1l0.1-0.5h4.6L27.1,2.9z M22.2,34.1
				c0.2-1.7,0.6-3.4,1.3-4.9c0.7-1.6,1.7-3,2.9-4.2c1.1-1.1,2.5-2.1,4-2.8c1.4-0.7,3-1.2,4.6-1.4l0.6-0.1v4.6l-0.5,0.1
				c-1.1,0.2-2.1,0.5-3,1c-0.9,0.5-1.8,1.1-2.5,1.9c-0.8,0.8-1.5,1.7-2,2.7c-0.5,1-0.8,2.1-1,3.2l-0.1,0.5h-4.6L22.2,34.1z
				 M10.3,34.1c0.2-1.7,0.6-3.3,1.3-4.8s1.7-2.9,2.8-4.1c1.1-1.1,2.3-2,3.6-2.7c1.2-0.6,2.5-1.1,3.9-1.4c0.3-1.4,0.7-2.7,1.3-3.9
				c0.7-1.4,1.6-2.6,2.7-3.7c1.2-1.2,2.6-2.2,4.2-3c1.5-0.7,3.2-1.2,4.9-1.4L35.6,9v4.6l-0.5,0.1c-1.1,0.2-2.2,0.5-3.2,1
				s-1.9,1.2-2.7,2c-0.9,0.9-1.6,1.9-2.1,3s-0.8,2.3-0.9,3.5l-0.1,2l-2,0.2c-1.3,0.1-2.4,0.4-3.5,0.9s-2.1,1.2-3,2.1
				c-0.8,0.8-1.4,1.7-1.9,2.7c-0.5,1-0.8,2-1,3.1l-0.1,0.5H10L10.3,34.1z M15.2,2.9c-0.2,1.7-0.6,3.4-1.3,4.9
				c-0.7,1.6-1.7,3-2.9,4.2c-1.1,1.1-2.5,2.1-4,2.8c-1.4,0.7-3,1.2-4.6,1.4l-0.6,0.1v-4.6l0.5-0.1c1.1-0.2,2.1-0.5,3-1
				C6,10.1,6.9,9.4,7.6,8.7C8.4,7.9,9.1,7,9.6,6s0.8-2.1,1-3.2l0.1-0.5h4.6L15.2,2.9z"/>
		</g>
		<g>
			<defs>
				<path id="SVGID_00000051370981520089379390000006254114989709205147_" d="M27.1,2.9c-0.2,1.7-0.6,3.3-1.3,4.8
					c-0.7,1.5-1.7,2.9-2.8,4.1c-1.1,1.1-2.3,2-3.6,2.7c-1.2,0.6-2.5,1.1-3.9,1.4c-0.3,1.4-0.7,2.7-1.3,3.9c-0.7,1.4-1.6,2.6-2.7,3.7
					c-1.2,1.2-2.6,2.2-4.2,3c-1.5,0.7-3.2,1.2-4.9,1.4L1.8,28v-4.6l0.5-0.1c1.1-0.2,2.2-0.5,3.2-1s1.9-1.2,2.7-2
					c0.9-0.9,1.6-1.9,2.1-3c0.5-1.1,0.8-2.3,0.9-3.5l0.1-2l2-0.2c1.3-0.1,2.4-0.4,3.5-0.9s2.1-1.2,3-2.1c0.8-0.8,1.4-1.7,1.9-2.7
					s0.8-2,1-3.1l0.1-0.5h4.6L27.1,2.9z M22.2,34.1c0.2-1.7,0.6-3.4,1.3-4.9c0.7-1.6,1.7-3,2.9-4.2c1.1-1.1,2.5-2.1,4-2.8
					c1.4-0.7,3-1.2,4.6-1.4l0.6-0.1v4.6l-0.5,0.1c-1.1,0.2-2.1,0.5-3,1c-0.9,0.5-1.8,1.1-2.5,1.9c-0.8,0.8-1.5,1.7-2,2.7
					c-0.5,1-0.8,2.1-1,3.2l-0.1,0.5h-4.6L22.2,34.1z M10.3,34.1c0.2-1.7,0.6-3.3,1.3-4.8s1.7-2.9,2.8-4.1c1.1-1.1,2.3-2,3.6-2.7
					c1.2-0.6,2.5-1.1,3.9-1.4c0.3-1.4,0.7-2.7,1.3-3.9c0.7-1.4,1.6-2.6,2.7-3.7c1.2-1.2,2.6-2.2,4.2-3c1.5-0.7,3.2-1.2,4.9-1.4
					L35.6,9v4.6l-0.5,0.1c-1.1,0.2-2.2,0.5-3.2,1s-1.9,1.2-2.7,2c-0.9,0.9-1.6,1.9-2.1,3s-0.8,2.3-0.9,3.5l-0.1,2l-2,0.2
					c-1.3,0.1-2.4,0.4-3.5,0.9s-2.1,1.2-3,2.1c-0.8,0.8-1.4,1.7-1.9,2.7c-0.5,1-0.8,2-1,3.1l-0.1,0.5H10L10.3,34.1z M15.2,2.9
					c-0.2,1.7-0.6,3.4-1.3,4.9c-0.7,1.6-1.7,3-2.9,4.2c-1.1,1.1-2.5,2.1-4,2.8c-1.4,0.7-3,1.2-4.6,1.4l-0.6,0.1v-4.6l0.5-0.1
					c1.1-0.2,2.1-0.5,3-1C6,10.1,6.9,9.4,7.6,8.7C8.4,7.9,9.1,7,9.6,6s0.8-2.1,1-3.2l0.1-0.5h4.6L15.2,2.9z"/>
			</defs>
			<use href="#SVGID_00000051370981520089379390000006254114989709205147_"  style="overflow:visible;fill:#FFFFFF;"/>
			<clipPath id="SVGID_00000147191601388178678280000008683992259164172725_">
				<use href="#SVGID_00000051370981520089379390000006254114989709205147_"  style="overflow:visible;"/>
			</clipPath>
			
				<rect x="1.6" y="2.3" style="clip-path:url(#SVGID_00000147191601388178678280000008683992259164172725_);fill:#FFFFFF;" width="34.1" height="32.5"/>
		</g>
	</g>
</g>
</svg>
