<svg width="64" height="34" viewBox="0 0 64 34" fill="none" xmlns="http://www.w3.org/2000/svg">
  <!-- GIAC Logo (Gold) -->
  <path d="M20.3528 11.4062V12.249C20.3528 18.0645 16.3263 22.5312 10.5074 22.5312C4.68851 22.5312 0 17.4178 0 11.5464C0 5.45007 4.79859 0.449463 10.7831 0.449463C14.0099 0.449463 17.2087 1.93852 19.2495 4.55116L17.4294 6.32095C15.9402 4.242 13.4307 2.8656 10.8934 2.8656C6.2327 2.8656 2.59238 6.71447 2.59238 11.4623C2.59238 15.9009 6.17754 20.1148 10.6728 20.1148C13.8994 20.1148 17.3743 17.2775 17.4845 13.8219H12.1069V11.4062H20.3528Z" fill="#876F10"/>
  <path d="M25.4253 22.0814H22.8329V0.898926H25.4253V22.0814Z" fill="#876F10"/>
  <path d="M32.2642 16.7716L29.8925 22.0814H27.1071L37.0353 0L46.9632 22.0814H44.1779L41.8062 16.7716H32.2642ZM37.0353 5.78726L33.3396 14.3556H40.7307L37.0353 5.78726Z" fill="#876F10"/>
  <path d="M63.1905 4.94441C61.7012 3.59578 59.6608 2.86559 57.7024 2.86559C53.0416 2.86559 49.484 6.82673 49.484 11.5184C49.484 16.1537 53.0141 20.1148 57.6471 20.1148C59.6967 20.1053 61.6706 19.3252 63.1904 17.9243V21.042C61.5244 22.004 59.6448 22.5165 57.7299 22.531C51.8007 22.531 46.8916 17.7269 46.8916 11.6027C46.8916 5.3378 51.8282 0.449585 57.9508 0.449585C59.7711 0.449585 61.6188 0.899039 63.1907 1.88245L63.1905 4.94441Z" fill="#876F10"/>
  
  <!-- Certifications text (White) -->
  <path d="M5.64239 28.6541C5.39204 28.3866 5.09163 28.1729 4.75888 28.0256C4.42613 27.8782 4.06779 27.8003 3.70499 27.7963C2.2902 27.7963 1.14499 29.0491 1.14499 30.4733C1.14499 31.8976 2.29878 33.1505 3.72227 33.1505C4.44765 33.1307 5.1367 32.8228 5.64227 32.2926V33.1848C5.09091 33.5925 4.42826 33.8145 3.74697 33.8198C1.95292 33.8198 0.43689 32.3355 0.43689 30.4992C0.439825 29.6058 0.789499 28.7498 1.40962 28.1181C2.02973 27.4863 2.86996 27.1301 3.74697 27.127C4.43056 27.1175 5.09766 27.341 5.64227 27.762L5.64239 28.6541Z" fill="white"/>
  <path d="M6.92041 27.2382H10.2136V27.9075H7.62799V29.8296H10.1376V30.4989H7.62761V33.0388H10.2132V33.7081H6.92041V27.2382Z" fill="white"/>
  <path d="M12.2087 33.7081H11.5011V27.2382H12.419C13.6236 27.2382 14.7439 27.5642 14.7439 29.0229C14.7439 30.0184 14.1294 30.722 13.1518 30.8078L15.1742 33.7081H14.3066L12.3866 30.8678H12.2087V33.7081ZM12.2087 30.233H12.4277C13.2278 30.233 14.0363 30.0785 14.0363 29.0745C14.0363 28.0104 13.2699 27.9075 12.419 27.9075H12.2087V30.233Z" fill="white"/>
  <path d="M17.6654 33.7081H16.9579V27.9075H15.4248V27.2382H19.2154V27.9075H17.6654V33.7081Z" fill="white"/>
  <path d="M20.7458 33.7081H20.0381V27.2382H20.7458V33.7081Z" fill="white"/>
  <path d="M22.8261 27.9075V29.8296H24.9404V30.4989H22.8261V33.7081H22.1184V27.2382H25.0076V27.9075H22.8261Z" fill="white"/>
  <path d="M26.9509 33.7081H26.2432V27.2382H26.9509V33.7081Z" fill="white"/>
  <path d="M33.1666 28.6541C32.9162 28.3865 32.6158 28.1727 32.2831 28.0254C31.9503 27.878 31.592 27.8 31.2292 27.796C29.8144 27.796 28.6692 29.0488 28.6692 30.473C28.6692 31.8973 29.8228 33.1502 31.2464 33.1502C31.9718 33.1304 32.6609 32.8225 33.1664 32.2922V33.1845C32.6151 33.5922 31.9524 33.8143 31.2711 33.8195C29.4771 33.8195 27.9611 32.3351 27.9611 30.4989C27.964 29.6055 28.3137 28.7495 28.9338 28.1178C29.5539 27.486 30.3941 27.1298 31.2711 27.1267C31.9547 27.1172 32.6218 27.3407 33.1664 27.7617L33.1666 28.6541Z" fill="white"/>
  <path d="M35.3969 31.8719L34.6302 33.7081H33.856L36.7872 26.9293L39.643 33.7081H38.8592L38.1099 31.8719H35.3969ZM36.7696 28.6111L35.6833 31.2026H37.8314L36.7696 28.6111Z" fill="white"/>
  <path d="M41.4258 33.7081H40.7181V27.9075H39.1852V27.2382H42.9758V27.9075H41.4258V33.7081Z" fill="white"/>
  <path d="M44.5063 33.7081H43.7986V27.2382H44.5063V33.7081Z" fill="white"/>
  <path d="M52.1795 30.4823C52.1829 31.15 51.9916 31.8037 51.6299 32.3606C51.2682 32.9174 50.7523 33.3523 50.1477 33.6102C49.5432 33.8681 48.877 33.9374 48.2337 33.8093C47.5904 33.6811 46.999 33.3613 46.5343 32.8904C46.0696 32.4195 45.7526 31.8187 45.6235 31.164C45.4943 30.5094 45.5589 29.8305 45.8089 29.2133C46.0589 28.596 46.4832 28.0683 47.028 27.697C47.5727 27.3256 48.2134 27.1274 48.8689 27.1274C49.3028 27.125 49.733 27.2101 50.1345 27.3776C50.5361 27.5452 50.9012 27.792 51.2089 28.1037C51.5165 28.4155 51.7606 28.7861 51.9272 29.1943C52.0938 29.6025 52.1795 30.0403 52.1795 30.4823ZM46.2659 30.4737C46.2709 30.9969 46.4279 31.507 46.7169 31.9395C47.0059 32.3721 47.4142 32.7079 47.8902 32.9046C48.3662 33.1012 48.8886 33.1501 49.3918 33.0448C49.895 32.9396 50.3564 32.6851 50.7178 32.3133C51.0793 31.9415 51.3247 31.4691 51.4231 30.9555C51.5215 30.442 51.4685 29.9102 51.2708 29.4272C51.0731 28.9443 50.7395 28.5317 50.3121 28.2415C49.8847 27.9513 49.3826 27.7963 48.8689 27.7963C48.1762 27.8026 47.5141 28.0875 47.0266 28.5889C46.5392 29.0902 46.266 29.7674 46.2664 30.4731L46.2659 30.4737Z" fill="white"/>
  <path d="M53.2632 26.9636L58.2159 32.2493V27.2382H58.9235V33.9999L53.9699 28.7227V33.7081H53.2627L53.2632 26.9636Z" fill="white"/>
  <path d="M63.208 28.4996C62.9558 28.0534 62.6525 27.7955 62.1129 27.7955C61.5487 27.7955 61.0603 28.2073 61.0603 28.7995C61.0603 29.3573 61.6247 29.6146 62.0543 29.812L62.4753 30.0007C63.3011 30.3702 64 30.7906 64 31.8203C64.0002 32.0858 63.9484 32.3488 63.8477 32.5937C63.747 32.8387 63.5994 33.0607 63.4135 33.2468C63.2276 33.433 63.0071 33.5795 62.7649 33.6779C62.5228 33.7762 62.2638 33.8244 62.0032 33.8196C60.9841 33.8196 60.226 33.1503 60.024 32.1464L60.7153 31.9491C60.8078 32.6098 61.3048 33.1503 61.9872 33.1503C62.6696 33.1503 63.2928 32.6184 63.2928 31.8889C63.2928 31.134 62.7115 30.8764 62.1221 30.6018L61.7344 30.4302C60.9933 30.0869 60.353 29.7008 60.353 28.7742C60.353 27.7702 61.1871 27.1267 62.1302 27.1267C62.4684 27.1222 62.8013 27.2138 63.0913 27.3911C63.3814 27.5684 63.6173 27.8246 63.7725 28.1308L63.208 28.4996Z" fill="white"/>
</svg>
