<?xml version="1.0" encoding="UTF-8"?>
<svg xmlns="http://www.w3.org/2000/svg" width="171" height="52" viewBox="0 0 171 52" fill="none">
  <path d="M2.35046 28.1023C2.48308 27.9034 2.62234 27.6315 2.68865 27.3597C4.03475 21.7697 5.38085 16.1731 6.66064 10.5168C7.94043 4.78761 11.8527 1.75722 17.3101 0.543745C20.546 -0.198931 23.9146 0.0729414 27.0113 0.815618C30.9833 1.75722 33.6821 4.25049 33.0721 9.50891C32.6676 13.2157 31.726 16.8495 30.9833 20.4899C30.3799 23.255 29.7698 26.0799 29.1664 28.845C29.1001 29.0439 29.0338 29.2495 28.9674 29.4484H20.9505C21.5539 26.6833 22.0977 23.9248 22.7011 21.0933H13.1325C13.4044 20.7551 13.537 20.6225 13.6696 20.417C15.0821 18.8653 16.5674 17.3203 17.9798 15.7686C18.4506 15.1652 19.2596 14.827 20.0686 14.8933C21.4147 14.9596 22.8337 14.8933 24.3788 14.8933C24.5777 13.0101 24.7833 11.2529 24.8496 9.43597C24.9822 8.08987 24.0406 6.87639 22.7608 6.67082C21.7529 6.47189 20.7383 6.39895 19.6641 6.47189C16.7 6.60451 14.7439 8.2888 14.2068 11.2529C13.2652 15.9012 12.3899 20.4833 11.4416 25.1316C11.1697 26.617 10.9045 28.162 10.5663 29.6474H10.2281C9.95626 29.5811 9.62471 29.5147 9.35284 29.5147H2.35046V28.1023ZM102.061 29.6474C101.862 29.5147 101.657 29.3755 101.385 29.3092C99.7007 29.0373 98.0827 28.4339 96.604 27.4923C92.7647 24.8664 91.7501 20.417 93.9118 16.2394C95.6624 12.8708 98.5602 10.7158 102.061 9.36966C106.239 7.75168 110.35 7.55275 114.455 9.43597C119.64 11.7966 121.258 17.3866 118.228 22.1676C115.536 26.3451 111.557 28.4339 106.842 29.3092C106.504 29.3755 106.166 29.5081 105.834 29.6474H102.061ZM100.981 19.6809C101.047 20.9607 101.723 21.9023 103.003 22.5124C105.768 23.9248 109.468 22.4461 110.821 20.4899C112.373 18.2022 111.564 15.636 108.865 14.8999C106.305 14.2236 104.084 14.8999 102.194 16.7832C101.385 17.5258 100.914 18.6001 100.981 19.6809ZM43.2441 29.5147C42.5677 29.3821 41.9643 29.2429 41.2879 29.1103C37.9857 28.1023 35.8969 25.2046 35.6316 21.4978C35.3598 16.1731 37.7204 12.473 42.7733 10.1123C44.9947 9.03147 47.3553 8.49436 49.7823 8.36174C52.9519 8.29543 56.1149 8.36174 59.4172 8.36174C59.3509 9.0381 59.2845 9.64153 59.2182 10.245C59.0193 11.4584 58.8137 12.7382 58.6811 13.9517C58.6148 14.7607 58.3429 15.0989 57.4676 15.0326C54.9081 14.9663 52.2822 15.0326 49.7226 15.0326C48.0383 15.0326 46.4203 15.636 45.2069 16.7832C43.9934 17.9303 43.6552 19.3427 44.1989 21.027C44.6697 22.3731 45.7506 23.0495 47.4349 23.1158C49.9945 23.1821 52.554 23.1821 55.0473 23.1821H56.3271L55.1136 29.6474H51.3406C51.2079 29.5811 51.0024 29.5147 50.8035 29.4484C48.3102 29.5147 45.8169 29.5147 43.2573 29.5147H43.2441ZM68.0375 29.6474C67.9712 29.5811 67.8386 29.4484 67.7656 29.3755C63.7937 28.2283 61.7049 25.1316 62.5139 21.0204C63.7273 14.7541 65.0071 8.55404 66.2869 2.36065C66.3532 1.55166 66.4859 0.808987 66.6251 0H66.9633C67.2352 0.0663104 67.5667 0.132621 67.8386 0.132621H74.8476C74.6487 1.88321 74.5094 3.70012 74.3105 5.45734C74.3105 5.72922 74.2442 5.99446 74.2442 6.20002C74.1779 8.01692 74.715 8.56067 76.5319 8.62698H78.4151C78.1432 10.3113 77.878 11.8629 77.5398 13.408V13.4743C77.2701 14.7784 76.4611 15.4304 75.1128 15.4304C74.1049 15.4304 73.0241 15.3641 72.0161 15.4304C71.678 15.4967 71.3398 15.7023 71.1408 16.0338C70.8027 17.3799 70.5374 18.726 70.3982 20.0788C70.1992 22.2339 71.4061 23.381 73.5678 23.3147C73.9723 23.3147 74.3768 23.2484 74.9139 23.2484C74.715 24.6608 74.5757 26.0136 74.4431 27.3597V27.5586C74.2619 28.6372 73.6341 29.265 72.5599 29.4418C72.4936 29.4418 72.361 29.5744 72.288 29.6407H68.0441L68.0375 29.6474ZM155.488 29.5147C156.025 27.0215 156.496 24.5282 157.106 21.9686C158.114 17.254 159.194 12.5393 160.202 7.75168C160.269 7.47981 160.269 7.21457 160.335 6.81008H155.554C155.62 6.5382 155.753 6.27296 155.892 6.0674C156.973 4.31681 158.047 2.56621 159.194 0.881928C159.466 0.543745 159.798 0.344814 160.202 0.278504C163.637 0.212193 167.072 0.278504 170.507 0.278504C170.573 0.278504 170.706 0.344814 170.779 0.344814V1.35273C170.646 1.55166 170.507 1.75722 170.441 2.0291C168.823 8.76623 167.205 15.5697 165.66 22.3731C165.123 24.7338 164.512 27.1541 163.909 29.5147H155.488ZM79.0185 29.6474C79.5556 26.8822 80.0264 24.1237 80.5702 21.3586C81.3129 17.4529 82.1881 13.6135 82.9308 9.70121C83.0634 8.95853 83.4016 8.55404 84.2106 8.62035C86.4983 8.68666 88.7927 8.62035 91.2196 8.62035C91.1533 9.15746 91.087 9.56196 91.0207 9.96645C89.6746 16.3654 88.3285 22.7643 86.9758 29.2362V29.6407H79.0251L79.0185 29.6474ZM148.207 29.4484L140.528 29.5147L141.808 22.0349C141.94 21.3586 142.08 20.6888 142.146 20.0125C142.683 17.0484 140.866 14.9596 137.836 15.0259C134.666 15.0922 132.246 17.0484 131.503 20.0788C130.827 23.1092 130.223 26.3451 129.62 29.4418H120.927C121.868 25.9406 122.677 22.4328 123.692 18.9316C124.633 15.9012 126.251 13.2024 128.877 11.2529C130.833 9.84046 133.121 8.96516 135.548 8.82591C138.917 8.55404 142.285 8.55404 145.521 9.83383C149.566 11.3855 151.516 14.7541 150.64 19.0642C150.037 22.4991 149.089 25.934 148.213 29.4418L148.207 29.4484ZM85.3512 0.139252L93.0962 0.205562C92.6254 2.22803 92.1546 4.25049 91.6838 6.20002L85.3512 0.139252Z" fill="#00CCFF"></path>
  <path d="M4.04541 39.1522L2.18293 49.8825H0.656028L2.83731 37.3149H4.22998L4.04541 39.1522ZM9.50701 41.7278L9.49023 41.904C9.41752 42.4521 9.28329 43.0058 9.08754 43.5652C8.89737 44.1189 8.6373 44.625 8.30731 45.0837C7.97732 45.5423 7.57182 45.9086 7.09082 46.1827C6.61541 46.4568 6.05611 46.5854 5.41291 46.5686C4.84801 46.5574 4.36421 46.4344 3.96151 46.1995C3.55882 45.959 3.23442 45.643 2.98833 45.2515C2.74223 44.8543 2.56605 44.4125 2.45978 43.9259C2.35911 43.4337 2.32555 42.9303 2.35911 42.4158L2.47656 41.4845C2.57164 40.9364 2.73105 40.4023 2.95477 39.8821C3.18408 39.3564 3.47492 38.8838 3.82728 38.4643C4.17964 38.0448 4.59632 37.7176 5.07733 37.4827C5.56392 37.2422 6.11483 37.1304 6.73007 37.1471C7.3509 37.1639 7.85427 37.3149 8.24019 37.6002C8.6317 37.8798 8.92813 38.2462 9.12948 38.6992C9.33643 39.1467 9.46507 39.636 9.5154 40.1674C9.56574 40.6931 9.56294 41.2133 9.50701 41.7278ZM7.96333 41.8956L7.9885 41.7111C8.02765 41.3755 8.03604 41.0203 8.01367 40.6456C7.99689 40.2709 7.92698 39.9213 7.80393 39.5969C7.68648 39.2669 7.49911 38.9956 7.24183 38.7831C6.99015 38.5706 6.64617 38.4587 6.20992 38.4475C5.86315 38.4363 5.53316 38.4951 5.21995 38.6237C4.91233 38.7467 4.63268 38.9229 4.38099 39.1522C4.12931 39.376 3.91397 39.636 3.735 39.9325C3.55602 40.2233 3.42458 40.5309 3.34069 40.8553L2.97994 43.045C2.97434 43.4421 3.06104 43.8112 3.24001 44.1524C3.41899 44.488 3.66229 44.7593 3.9699 44.9662C4.28311 45.1732 4.63827 45.2822 5.03538 45.2934C5.4996 45.3046 5.9023 45.2123 6.24347 45.0165C6.59024 44.8152 6.88108 44.5467 7.11599 44.2111C7.3509 43.87 7.53826 43.498 7.67809 43.0953C7.81792 42.687 7.913 42.2871 7.96333 41.8956ZM16.9771 44.8404L17.7321 40.1506C17.7713 39.8038 17.7377 39.499 17.6315 39.2361C17.5308 38.9733 17.3602 38.7691 17.1197 38.6237C16.8848 38.4783 16.5884 38.4 16.2304 38.3888C15.9172 38.3832 15.6096 38.4335 15.3076 38.5398C15.0111 38.6461 14.7538 38.8055 14.5357 39.018C14.3176 39.2305 14.175 39.499 14.1078 39.8234L12.5977 39.8318C12.6369 39.3788 12.7795 38.9845 13.0256 38.6489C13.2717 38.3077 13.5793 38.0252 13.9484 37.8015C14.3176 37.5722 14.7147 37.4044 15.1398 37.2982C15.5648 37.1863 15.9787 37.1332 16.3814 37.1387C16.9911 37.1499 17.5196 37.2814 17.967 37.5331C18.4201 37.7792 18.7613 38.1259 18.9906 38.5734C19.2199 39.0208 19.3038 39.5577 19.2423 40.1842L18.5459 44.4125C18.4956 44.7201 18.4648 45.0305 18.4536 45.3437C18.448 45.6514 18.4844 45.9534 18.5627 46.2498L18.5459 46.3924L17.0106 46.4008C16.9491 46.1435 16.9183 45.8835 16.9183 45.6206C16.9239 45.3577 16.9435 45.0976 16.9771 44.8404ZM17.9083 40.8889L17.7321 41.9795L16.2975 41.9711C15.9955 41.9711 15.6767 41.9935 15.3411 42.0383C15.0055 42.083 14.6867 42.1669 14.3847 42.2899C14.0827 42.413 13.8282 42.592 13.6213 42.8269C13.4143 43.0562 13.2885 43.3554 13.2437 43.7246C13.2102 44.0266 13.2465 44.2895 13.3528 44.5132C13.4646 44.7313 13.6324 44.9019 13.8562 45.0249C14.0799 45.148 14.34 45.2123 14.6364 45.2179C15.0223 45.2235 15.4026 45.148 15.7774 44.9914C16.1521 44.8348 16.4793 44.6111 16.7589 44.3202C17.0386 44.0294 17.2316 43.6938 17.3378 43.3135L17.8915 44.0601C17.7853 44.4293 17.6119 44.7705 17.3714 45.0837C17.1309 45.3913 16.8456 45.6569 16.5157 45.8807C16.1913 46.1044 15.8417 46.2778 15.467 46.4008C15.0922 46.5239 14.7175 46.5826 14.3428 46.577C13.8338 46.5658 13.3724 46.4512 12.9585 46.233C12.5502 46.0149 12.2258 45.7101 11.9853 45.3186C11.7504 44.9215 11.6497 44.46 11.6833 43.9343C11.7168 43.3582 11.8678 42.8744 12.1363 42.4829C12.4048 42.0914 12.7487 41.7782 13.1682 41.5433C13.5933 41.3084 14.0575 41.1406 14.5609 41.0399C15.0643 40.9336 15.562 40.8805 16.0542 40.8805L17.9083 40.8889ZM26.7039 37.3149L26.4942 38.5062H21.7205L21.9303 37.3149H26.7039ZM23.927 35.1085H25.4371L23.9018 44.1608C23.885 44.3566 23.8906 44.5327 23.9186 44.6894C23.9466 44.846 24.0137 44.9718 24.1199 45.0669C24.2262 45.1564 24.3884 45.2039 24.6065 45.2095C24.7296 45.2095 24.8498 45.2011 24.9673 45.1843C25.0903 45.162 25.2134 45.1424 25.3364 45.1256L25.2274 46.4008C25.0484 46.4512 24.8638 46.4875 24.6737 46.5099C24.4891 46.5379 24.3045 46.549 24.1199 46.5434C23.6557 46.5379 23.2922 46.4204 23.0293 46.1911C22.7664 45.9618 22.5875 45.6653 22.4924 45.3018C22.3973 44.9382 22.3693 44.5495 22.4085 44.1356L23.927 35.1085ZM31.5229 45.2934C31.892 45.299 32.236 45.2291 32.5548 45.0837C32.8736 44.9382 33.1449 44.7313 33.3686 44.4628C33.5923 44.1944 33.7517 43.884 33.8468 43.5316L35.2898 43.5232C35.2003 44.1328 34.9626 44.667 34.5767 45.1256C34.1964 45.5842 33.7293 45.9422 33.1756 46.1995C32.6275 46.4512 32.0542 46.5714 31.4558 46.5602C30.8182 46.549 30.2756 46.4176 29.8282 46.1659C29.3864 45.9086 29.0312 45.5675 28.7627 45.1424C28.4943 44.7173 28.3097 44.2391 28.209 43.7078C28.1083 43.1708 28.086 42.6199 28.1419 42.055L28.1755 41.6943C28.2426 41.0846 28.3908 40.5058 28.6201 39.9576C28.8494 39.4039 29.1542 38.9145 29.5346 38.4895C29.9205 38.0588 30.3763 37.7232 30.9021 37.4827C31.4278 37.2422 32.0179 37.1304 32.6723 37.1471C33.3099 37.1583 33.8636 37.3093 34.3334 37.6002C34.8032 37.8854 35.1668 38.2741 35.424 38.7663C35.6813 39.2585 35.81 39.8178 35.81 40.4442L34.3837 40.4358C34.3781 40.0779 34.3082 39.7479 34.174 39.4459C34.0398 39.1439 33.8412 38.9006 33.5783 38.716C33.3155 38.5314 32.9911 38.4307 32.6051 38.414C32.1409 38.4028 31.7354 38.4895 31.3887 38.674C31.0475 38.8586 30.7566 39.1131 30.5161 39.4375C30.2812 39.7563 30.0939 40.1114 29.954 40.503C29.8198 40.8945 29.7275 41.2916 29.6772 41.6943L29.6352 42.0466C29.6017 42.4046 29.5961 42.7709 29.6185 43.1457C29.6464 43.5204 29.7247 43.87 29.8534 44.1944C29.982 44.5132 30.1806 44.7732 30.449 44.9746C30.7175 45.1759 31.0755 45.2822 31.5229 45.2934ZM41.082 33.5061L38.8419 46.3924H37.3234L39.5634 33.5061H41.082ZM39.3621 41.5097L38.7413 41.4929C38.8196 40.9504 38.9622 40.4191 39.1691 39.8989C39.3817 39.3732 39.6585 38.9006 39.9997 38.4811C40.3465 38.0616 40.7576 37.7316 41.233 37.4911C41.714 37.245 42.2621 37.1304 42.8773 37.1471C43.3639 37.1583 43.7694 37.2534 44.0938 37.4324C44.4238 37.6058 44.6811 37.8435 44.8656 38.1455C45.0502 38.4475 45.1733 38.7971 45.2348 39.1942C45.2963 39.5857 45.3019 40.0024 45.2516 40.4442L44.2616 46.3924H42.7347L43.7414 40.4191C43.7806 40.0555 43.7666 39.7283 43.6995 39.4375C43.638 39.1411 43.4982 38.9061 43.28 38.7328C43.0675 38.5538 42.7599 38.4587 42.3572 38.4475C41.9321 38.4363 41.549 38.5174 41.2078 38.6908C40.8666 38.8642 40.5674 39.1019 40.3101 39.4039C40.0584 39.7004 39.8515 40.0331 39.6893 40.4023C39.5327 40.7658 39.4236 41.135 39.3621 41.5097ZM50.5823 37.3149L49.0051 46.3924H47.4865L49.0638 37.3149H50.5823ZM49.3658 34.9323C49.3658 34.6694 49.4469 34.4513 49.6091 34.2779C49.7769 34.0989 49.9922 34.0066 50.2551 34.0011C50.518 33.9955 50.7333 34.0766 50.9011 34.2444C51.0745 34.4121 51.1584 34.6247 51.1528 34.882C51.1528 35.1392 51.0661 35.3546 50.8927 35.528C50.7249 35.6957 50.5124 35.7824 50.2551 35.788C49.9978 35.7936 49.7853 35.7181 49.6175 35.5615C49.4497 35.3993 49.3658 35.1896 49.3658 34.9323ZM55.0237 39.3452L53.7989 46.3924H52.2803L53.8576 37.3149H55.2922L55.0237 39.3452ZM54.319 41.5097L53.6982 41.4929C53.7765 40.9504 53.9191 40.4191 54.126 39.8989C54.3386 39.3732 54.6154 38.9006 54.9566 38.4811C55.3034 38.0616 55.7145 37.7316 56.1899 37.4911C56.6709 37.245 57.219 37.1304 57.8342 37.1471C58.3208 37.1583 58.7263 37.2534 59.0507 37.4324C59.3807 37.6058 59.638 37.8435 59.8226 38.1455C60.0071 38.4475 60.1302 38.7971 60.1917 39.1942C60.2532 39.5857 60.2588 40.0024 60.2085 40.4442L59.2185 46.3924H57.6916L58.6984 40.4191C58.7375 40.0555 58.7235 39.7283 58.6564 39.4375C58.5949 39.1411 58.4551 38.9061 58.2369 38.7328C58.0244 38.5538 57.7168 38.4587 57.3141 38.4475C56.889 38.4363 56.5059 38.5174 56.1647 38.6908C55.8235 38.8642 55.5243 39.1019 55.267 39.4039C55.0153 39.7004 54.8084 40.0331 54.6462 40.4023C54.4896 40.7658 54.3805 41.135 54.319 41.5097ZM69.6249 37.3149H71.0176L69.4991 46.1911C69.3928 46.9461 69.1495 47.6117 68.7692 48.1878C68.3944 48.7639 67.9023 49.2113 67.2926 49.5301C66.6886 49.8489 65.9978 49.9999 65.2204 49.9832C64.8121 49.972 64.4122 49.9021 64.0207 49.7734C63.6292 49.6448 63.2684 49.463 62.9384 49.2281C62.6084 48.9932 62.3316 48.7052 62.1079 48.364L62.9804 47.4579C63.2433 47.8326 63.5537 48.1291 63.9116 48.3472C64.2752 48.5709 64.6891 48.6912 65.1533 48.708C65.6622 48.7191 66.1125 48.6241 66.504 48.4227C66.9011 48.227 67.2227 47.9445 67.4688 47.5754C67.7205 47.2062 67.8855 46.7728 67.9638 46.275L69.1551 39.2361L69.6249 37.3149ZM62.7706 42.0215L62.7958 41.8369C62.8629 41.2776 62.9944 40.7183 63.1901 40.159C63.3915 39.5997 63.6599 39.0907 63.9955 38.6321C64.3311 38.1679 64.7422 37.8015 65.2288 37.5331C65.7154 37.259 66.2831 37.1276 66.9319 37.1387C67.5191 37.1555 68.0085 37.2926 68.4 37.5498C68.7916 37.8071 69.0992 38.1483 69.3229 38.5734C69.5522 38.9928 69.706 39.4543 69.7843 39.9576C69.8682 40.461 69.8934 40.9672 69.8598 41.4762L69.7675 42.248C69.6725 42.7905 69.5159 43.3219 69.2977 43.842C69.0796 44.3622 68.7971 44.832 68.4504 45.2515C68.1036 45.6653 67.6897 45.9925 67.2087 46.233C66.7333 46.4735 66.1908 46.5854 65.5811 46.5686C64.9827 46.5462 64.4877 46.3924 64.0962 46.1072C63.7103 45.8219 63.411 45.4556 63.1985 45.0082C62.986 44.5551 62.8489 44.0685 62.7874 43.5484C62.7259 43.0226 62.7203 42.5137 62.7706 42.0215ZM64.3227 41.8285L64.2975 42.0131C64.2584 42.3487 64.2472 42.701 64.264 43.0702C64.2808 43.4393 64.3451 43.7889 64.4569 44.1189C64.5688 44.4433 64.7478 44.7117 64.9939 44.9243C65.2456 45.1312 65.5867 45.2403 66.0174 45.2515C66.476 45.2682 66.9011 45.1676 67.2926 44.9494C67.6841 44.7313 68.0197 44.4405 68.2994 44.0769C68.579 43.7134 68.7804 43.3191 68.9034 42.894L69.2306 40.8553C69.2474 40.5477 69.211 40.2513 69.1215 39.966C69.0321 39.6808 68.8978 39.4263 68.7188 39.2026C68.5455 38.9789 68.3329 38.7999 68.0812 38.6656C67.8296 38.5314 67.5443 38.4615 67.2255 38.4559C66.7557 38.4391 66.3502 38.5314 66.009 38.7328C65.6678 38.9285 65.3798 39.1942 65.1449 39.5298C64.9156 39.8654 64.7338 40.2345 64.5996 40.6372C64.4653 41.0399 64.3731 41.437 64.3227 41.8285ZM82.9375 37.3149L82.7277 38.5062H77.9541L78.1638 37.3149H82.9375ZM80.1605 35.1085H81.6707L80.1354 44.1608C80.1186 44.3566 80.1242 44.5327 80.1521 44.6894C80.1801 44.846 80.2472 44.9718 80.3535 45.0669C80.4598 45.1564 80.622 45.2039 80.8401 45.2095C80.9631 45.2095 81.0834 45.2011 81.2008 45.1843C81.3239 45.162 81.4469 45.1424 81.57 45.1256L81.4609 46.4008C81.2819 46.4512 81.0974 46.4875 80.9072 46.5099C80.7226 46.5379 80.5381 46.549 80.3535 46.5434C79.8893 46.5379 79.5257 46.4204 79.2628 46.1911C79 45.9618 78.821 45.6653 78.7259 45.3018C78.6308 44.9382 78.6029 44.5495 78.642 44.1356L80.1605 35.1085ZM87.7313 33.5061L85.4913 46.3924H83.9727L86.2128 33.5061H87.7313ZM86.0114 41.5097L85.3906 41.4929C85.4689 40.9504 85.6115 40.4191 85.8184 39.8989C86.031 39.3732 86.3078 38.9006 86.649 38.4811C86.9958 38.0616 87.4069 37.7316 87.8823 37.4911C88.3633 37.245 88.9114 37.1304 89.5266 37.1471C90.0132 37.1583 90.4187 37.2534 90.7431 37.4324C91.0731 37.6058 91.3304 37.8435 91.515 38.1455C91.6995 38.4475 91.8226 38.7971 91.8841 39.1942C91.9456 39.5857 91.9512 40.0024 91.9009 40.4442L90.9109 46.3924H89.384L90.3908 40.4191C90.4299 40.0555 90.4159 39.7283 90.3488 39.4375C90.2873 39.1411 90.1475 38.9061 89.9293 38.7328C89.7168 38.5538 89.4092 38.4587 89.0065 38.4475C88.5814 38.4363 88.1983 38.5174 87.8571 38.6908C87.5159 38.8642 87.2167 39.1019 86.9594 39.4039C86.7077 39.7004 86.5008 40.0331 86.3386 40.4023C86.182 40.7658 86.0729 41.135 86.0114 41.5097ZM99.4968 44.8404L100.252 40.1506C100.291 39.8038 100.257 39.499 100.151 39.2361C100.05 38.9733 99.8799 38.7691 99.6394 38.6237C99.4045 38.4783 99.1081 38.4 98.7501 38.3888C98.4369 38.3832 98.1293 38.4335 97.8273 38.5398C97.5308 38.6461 97.2736 38.8055 97.0554 39.018C96.8373 39.2305 96.6947 39.499 96.6276 39.8234L95.1174 39.8318C95.1566 39.3788 95.2992 38.9845 95.5453 38.6489C95.7914 38.3077 96.099 38.0252 96.4682 37.8015C96.8373 37.5722 97.2344 37.4044 97.6595 37.2982C98.0845 37.1863 98.4984 37.1332 98.9011 37.1387C99.5108 37.1499 100.039 37.2814 100.487 37.5331C100.94 37.7792 101.281 38.1259 101.51 38.5734C101.74 39.0208 101.823 39.5577 101.762 40.1842L101.066 44.4125C101.015 44.7201 100.985 45.0305 100.973 45.3437C100.968 45.6514 101.004 45.9534 101.082 46.2498L101.066 46.3924L99.5303 46.4008C99.4688 46.1435 99.4381 45.8835 99.4381 45.6206C99.4437 45.3577 99.4632 45.0976 99.4968 44.8404ZM100.428 40.8889L100.252 41.9795L98.8172 41.9711C98.5152 41.9711 98.1964 41.9935 97.8608 42.0383C97.5252 42.083 97.2064 42.1669 96.9044 42.2899C96.6024 42.413 96.3479 42.592 96.141 42.8269C95.934 43.0562 95.8082 43.3554 95.7634 43.7246C95.7299 44.0266 95.7662 44.2895 95.8725 44.5132C95.9844 44.7313 96.1521 44.9019 96.3759 45.0249C96.5996 45.148 96.8597 45.2123 97.1561 45.2179C97.542 45.2235 97.9223 45.148 98.2971 44.9914C98.6718 44.8348 98.999 44.6111 99.2787 44.3202C99.5583 44.0294 99.7513 43.6938 99.8575 43.3135L100.411 44.0601C100.305 44.4293 100.132 44.7705 99.8911 45.0837C99.6506 45.3913 99.3653 45.6569 99.0354 45.8807C98.711 46.1044 98.3614 46.2778 97.9867 46.4008C97.6119 46.5239 97.2372 46.5826 96.8625 46.577C96.3535 46.5658 95.8921 46.4512 95.4782 46.233C95.0699 46.0149 94.7455 45.7101 94.505 45.3186C94.2701 44.9215 94.1694 44.46 94.203 43.9343C94.2365 43.3582 94.3875 42.8744 94.656 42.4829C94.9245 42.0914 95.2684 41.7782 95.6879 41.5433C96.113 41.3084 96.5772 41.1406 97.0806 41.0399C97.584 40.9336 98.0817 40.8805 98.5739 40.8805L100.428 40.8889ZM109.224 37.3149L109.014 38.5062H104.24L104.45 37.3149H109.224ZM106.447 35.1085H107.957L106.422 44.1608C106.405 44.3566 106.41 44.5327 106.438 44.6894C106.466 44.846 106.533 44.9718 106.64 45.0669C106.746 45.1564 106.908 45.2039 107.126 45.2095C107.249 45.2095 107.37 45.2011 107.487 45.1843C107.61 45.162 107.733 45.1424 107.856 45.1256L107.747 46.4008C107.568 46.4512 107.384 46.4875 107.193 46.5099C107.009 46.5379 106.824 46.549 106.64 46.5434C106.175 46.5379 105.812 46.4204 105.549 46.1911C105.286 45.9618 105.107 45.6653 105.012 45.3018C104.917 44.9382 104.889 44.5495 104.928 44.1356L106.447 35.1085ZM117.863 44.7061L121.387 37.3149H122.436L121.949 38.8838L118.375 46.3924H117.351L117.863 44.7061ZM117.62 37.3149L118.249 44.9578L118.123 46.3924H117.133L116.152 37.3149H117.62ZM123.291 44.7229L126.387 37.3149H127.947L123.82 46.3924H122.754L123.291 44.7229ZM122.612 37.3149L123.568 44.7481L123.518 46.3924H122.587L121.529 38.6908L121.588 37.3149H122.612ZM129.134 42.0047L129.159 41.8117C129.226 41.2021 129.377 40.6148 129.612 40.0499C129.852 39.485 130.168 38.9817 130.56 38.5398C130.951 38.098 131.416 37.7512 131.953 37.4995C132.49 37.2478 133.088 37.1304 133.748 37.1471C134.386 37.1583 134.931 37.2954 135.384 37.5582C135.843 37.8211 136.212 38.1707 136.491 38.6069C136.777 39.0376 136.975 39.5242 137.087 40.0667C137.199 40.6092 137.227 41.1685 137.171 41.7446L137.154 41.9376C137.081 42.5472 136.925 43.1317 136.684 43.691C136.444 44.2503 136.125 44.7481 135.728 45.1843C135.336 45.6206 134.872 45.9646 134.335 46.2163C133.798 46.4623 133.203 46.577 132.548 46.5602C131.916 46.549 131.371 46.4148 130.912 46.1575C130.459 45.8947 130.093 45.5479 129.813 45.1172C129.534 44.6866 129.338 44.2028 129.226 43.6658C129.114 43.1289 129.083 42.5752 129.134 42.0047ZM130.669 41.8117L130.652 42.0131C130.613 42.3654 130.61 42.7318 130.644 43.1121C130.683 43.4924 130.773 43.8448 130.912 44.1692C131.058 44.4936 131.267 44.7593 131.542 44.9662C131.816 45.1732 132.171 45.2822 132.607 45.2934C133.071 45.3046 133.48 45.2151 133.832 45.0249C134.184 44.8292 134.483 44.5663 134.73 44.2363C134.981 43.9063 135.18 43.54 135.325 43.1373C135.476 42.7346 135.577 42.3347 135.627 41.9376L135.644 41.7446C135.683 41.3923 135.683 41.0259 135.644 40.6456C135.61 40.2597 135.521 39.9017 135.376 39.5717C135.236 39.2361 135.029 38.9649 134.755 38.7579C134.481 38.5454 134.126 38.4335 133.689 38.4224C133.225 38.4056 132.814 38.4979 132.456 38.6992C132.104 38.895 131.804 39.1606 131.558 39.4962C131.312 39.8318 131.114 40.2037 130.963 40.612C130.817 41.0147 130.719 41.4146 130.669 41.8117ZM141.948 38.8083L140.631 46.3924H139.112L140.69 37.3149H142.166L141.948 38.8083ZM144.893 37.2394L144.75 38.6992C144.633 38.6768 144.512 38.6573 144.389 38.6405C144.272 38.6237 144.154 38.6153 144.037 38.6153C143.673 38.6097 143.346 38.6656 143.055 38.7831C142.77 38.895 142.516 39.0544 142.292 39.2613C142.074 39.4682 141.886 39.7115 141.73 39.9912C141.579 40.2709 141.459 40.5729 141.369 40.8973L140.891 41.149C140.952 40.6959 141.053 40.2317 141.193 39.7563C141.338 39.2809 141.537 38.8418 141.789 38.4391C142.046 38.0364 142.367 37.712 142.753 37.4659C143.145 37.2198 143.615 37.1052 144.163 37.122C144.286 37.122 144.406 37.1332 144.524 37.1555C144.647 37.1779 144.77 37.2059 144.893 37.2394ZM149.393 33.5061L147.153 46.3924H145.626L147.866 33.5061H149.393ZM154.175 37.3149L149.678 41.4762L146.968 43.9175L147.153 42.1221L148.965 40.2764L152.195 37.3149H154.175ZM151.213 46.3924L148.764 41.9795L149.728 40.6791L152.875 46.3924H151.213ZM160.546 43.9343C160.596 43.5875 160.532 43.3163 160.353 43.1205C160.18 42.9247 159.95 42.7765 159.665 42.6759C159.385 42.5696 159.111 42.4829 158.843 42.4158C158.507 42.3319 158.169 42.2284 157.828 42.1054C157.487 41.9823 157.173 41.8257 156.888 41.6356C156.608 41.4398 156.385 41.1993 156.217 40.9141C156.055 40.6232 155.982 40.2709 155.999 39.857C156.021 39.4095 156.139 39.0152 156.351 38.674C156.569 38.3329 156.849 38.0476 157.19 37.8183C157.537 37.589 157.914 37.4184 158.323 37.3065C158.731 37.1947 159.136 37.1415 159.539 37.1471C160.11 37.1583 160.627 37.2758 161.091 37.4995C161.561 37.7232 161.933 38.0448 162.207 38.4643C162.481 38.8838 162.61 39.3927 162.593 39.9912L161.091 39.9828C161.102 39.664 161.038 39.3899 160.898 39.1606C160.758 38.9313 160.566 38.7551 160.319 38.6321C160.073 38.5035 159.794 38.4363 159.48 38.4307C159.184 38.4251 158.893 38.4727 158.608 38.5734C158.323 38.6684 158.079 38.8195 157.878 39.0264C157.677 39.2277 157.554 39.4906 157.509 39.815C157.475 40.0555 157.512 40.2541 157.618 40.4107C157.724 40.5617 157.87 40.6847 158.054 40.7798C158.244 40.8693 158.443 40.9448 158.65 41.0063C158.862 41.0623 159.055 41.1126 159.229 41.1573C159.687 41.286 160.14 41.4482 160.588 41.6439C161.035 41.8397 161.399 42.111 161.679 42.4577C161.958 42.7989 162.084 43.2491 162.056 43.8084C162.034 44.2839 161.908 44.6977 161.679 45.0501C161.455 45.3969 161.164 45.6849 160.806 45.9142C160.454 46.1379 160.065 46.3029 159.64 46.4092C159.215 46.5155 158.79 46.5658 158.365 46.5602C157.777 46.549 157.229 46.4288 156.72 46.1995C156.217 45.9646 155.814 45.629 155.512 45.1927C155.21 44.7509 155.068 44.2139 155.084 43.5819L156.603 43.5903C156.603 43.9539 156.678 44.2615 156.829 44.5132C156.986 44.7593 157.201 44.9466 157.475 45.0753C157.749 45.2039 158.063 45.271 158.415 45.2766C158.711 45.2822 159.013 45.2431 159.321 45.1592C159.634 45.0753 159.903 44.9354 160.126 44.7397C160.356 44.5383 160.496 44.2699 160.546 43.9343Z" fill="black"></path>
</svg>
