<svg width="23" height="34" viewBox="0 0 23 34" fill="none" xmlns="http://www.w3.org/2000/svg">
<path fill-rule="evenodd" clip-rule="evenodd" d="M10 0.5L0 8.26239V14.5L10 7.10477V0.5Z" fill="#2D3038"/>
<path fill-rule="evenodd" clip-rule="evenodd" d="M12.3315 26.6183C9.79267 27.0897 7.35247 25.4137 6.8811 22.8749C6.40989 20.3359 8.08583 17.8958 10.6246 17.4245C13.1634 16.9531 15.6036 18.6292 16.075 21.168C16.5464 23.7067 14.8703 26.1469 12.3315 26.6183ZM21.4626 16.3628C18.3374 10.8487 11.334 8.91183 5.81989 12.0369C0.305583 15.1619 -1.63111 22.1653 1.49395 27.6796C4.61901 33.1937 11.6226 35.1306 17.1365 32.0055C22.6508 28.8806 24.5875 21.8769 21.4626 16.3628Z" fill="#2D3038"/>
</svg>
