<svg version="1.1" id="securityscorecard-logo" xmlns="http://www.w3.org/2000/svg" xmlns:xlink="http://www.w3.org/1999/xlink" x="0px" y="0px" viewBox="0 0 986 198" xml:space="preserve">
<g class="type">
<path d="M236.8,122.2l4.9-6.4c4.2,5,11.3,9.6,20.5,9.6c11.7,0,15.4-6.4,15.4-11.6c0-17.2-38.7-7.6-38.7-31.5
            c0-11,9.6-18.6,22.5-18.6c9.9,0,17.6,3.5,23.1,9.4l-4.9,6.1c-4.9-5.6-11.8-8-18.9-8c-7.7,0-13.4,4.3-13.4,10.6
            c0,15,38.7,6.4,38.7,31.4c0,9.6-6.5,19.6-24.1,19.6C250.7,132.8,242.2,128.4,236.8,122.2z"></path>
<path d="M292.7,107.4c0-14,9.8-25.4,23.3-25.4c14.3,0,22.7,11.4,22.7,26v1.9h-38.2c0.6,9.1,6.8,16.7,17,16.7
            c5.5,0,10.9-2.2,14.7-6.2l3.5,4.9c-4.8,4.8-11.2,7.5-18.8,7.5C302.8,132.8,292.7,122.5,292.7,107.4z M315.9,88.2
            c-10.1,0-15.1,8.7-15.5,16h31.1C331.4,97.1,326.7,88.2,315.9,88.2z"></path>
<path d="M345.4,107.4C345.4,93,354.9,82,369,82c8.6,0,13.7,3.6,17.3,8.4l-4.9,4.5c-3.1-4.4-7.2-6.2-12.1-6.2
            c-10,0-16.4,7.9-16.4,18.6c0,10.7,6.4,18.7,16.4,18.7c4.9,0,8.9-2,12.1-6.3l4.9,4.6c-3.6,4.8-8.7,8.4-17.3,8.4
            C354.9,132.8,345.4,121.7,345.4,107.4z"></path>
<path d="M426.2,131.6v-6.8c-3.6,4.2-9.8,8-16.9,8c-9.9,0-15.1-5-15.1-15.4V83.2h7.3v31.9c0,8.5,4.2,11,10.7,11
            c5.7,0,11.2-3.4,13.9-7.3V83.2h7.3v48.4H426.2z"></path>
<path d="M445.8,131.6V83.2h7.3v7.7c3.8-5,9.3-8.8,15.8-8.8v7.7c-0.9-0.1-1.8-0.2-2.8-0.2c-4.6,0-10.8,3.8-12.9,7.7v34.3H445.8z
            "></path>
<path d="M474.5,71.3c0-2.8,2.3-5.1,5-5.1c2.7,0,4.9,2.3,4.9,5.1c0,2.8-2.2,5-4.9,5C476.7,76.3,474.5,74.1,474.5,71.3z
             M475.7,131.6V83.2h7.3v48.4H475.7z"></path>
<path d="M496.8,121.5V89.8H489v-6.6h7.8V70h7.4v13.2h9.6v6.6h-9.6v30.1c0,3.6,1.6,6.2,4.7,6.2c2.2,0,4-1,5-2.1l2.2,5.7
            c-1.9,1.8-4.5,3.1-8.7,3.1C500.3,132.8,496.8,128.7,496.8,121.5z"></path>
<path d="M524.1,143.8c1.1,0.5,2.8,0.8,4,0.8c3.2,0,5.4-1.1,7.1-5.1l3.1-7.3l-19.8-48.9h8l15.7,39.7L558,83.2h7.9l-23.7,58.2
            c-2.8,7-7.6,9.7-13.9,9.8c-1.6,0-4-0.3-5.3-0.7L524.1,143.8z"></path>
<path d="M575.4,122.2l4.9-6.4c4.2,5,11.3,9.6,20.5,9.6c11.7,0,15.4-6.4,15.4-11.6c0-17.2-38.7-7.6-38.7-31.5
            c0-11,9.6-18.6,22.5-18.6c9.9,0,17.6,3.5,23.1,9.4l-4.9,6.1c-4.9-5.6-11.8-8-18.9-8c-7.7,0-13.4,4.3-13.4,10.6
            c0,15,38.7,6.4,38.7,31.4c0,9.6-6.5,19.6-24.1,19.6C589.2,132.8,580.8,128.4,575.4,122.2z"></path>
<path d="M631.2,107.4c0-14.3,9.5-25.4,23.6-25.4c8.6,0,13.7,3.6,17.3,8.4l-4.9,4.5c-3.1-4.4-7.2-6.2-12.1-6.2
            c-10,0-16.4,7.9-16.4,18.6c0,10.7,6.4,18.7,16.4,18.7c4.9,0,8.9-2,12.1-6.3l4.9,4.6c-3.6,4.8-8.7,8.4-17.3,8.4
            C640.7,132.8,631.2,121.7,631.2,107.4z"></path>
<path d="M675.4,107.4c0-14,9-25.4,23.4-25.4c14.4,0,23.4,11.3,23.4,25.4c0,14-9,25.5-23.4,25.5
            C684.4,132.8,675.4,121.4,675.4,107.4z M714.5,107.4c0-9.8-5.6-18.6-15.7-18.6c-10.1,0-15.7,8.8-15.7,18.6
            c0,9.9,5.6,18.7,15.7,18.7C708.9,126.1,714.5,117.3,714.5,107.4z"></path>
<path d="M729.8,131.6V83.2h7.3v7.7c3.8-5,9.3-8.8,15.8-8.8v7.7c-0.9-0.1-1.8-0.2-2.8-0.2c-4.6,0-10.8,3.8-12.9,7.7v34.3H729.8z
            "></path>
<path d="M756.9,107.4c0-14,9.8-25.4,23.3-25.4c14.3,0,22.7,11.4,22.7,26v1.9h-38.2c0.6,9.1,6.8,16.7,17,16.7
            c5.5,0,10.9-2.2,14.7-6.2l3.5,4.9c-4.8,4.8-11.2,7.5-18.8,7.5C767,132.8,756.9,122.5,756.9,107.4z M780.2,88.2
            c-10.1,0-15.1,8.7-15.5,16h31.1C795.6,97.1,790.9,88.2,780.2,88.2z"></path>
<path d="M809.7,107.4c0-14.3,9.5-25.4,23.6-25.4c8.6,0,13.7,3.6,17.3,8.4l-4.9,4.5c-3.1-4.4-7.2-6.2-12.1-6.2
            c-10,0-16.4,7.9-16.4,18.6c0,10.7,6.4,18.7,16.4,18.7c4.9,0,8.9-2,12.1-6.3l4.9,4.6c-3.6,4.8-8.7,8.4-17.3,8.4
            C819.2,132.8,809.7,121.7,809.7,107.4z"></path>
<path d="M890.1,131.6v-5.5c-3.8,4.4-9.3,6.7-15.7,6.7c-7.9,0-16.5-5.5-16.5-16c0-10.9,8.4-15.9,16.5-15.9
            c6.5,0,11.9,2.1,15.7,6.5v-8.7c0-6.4-5.1-10.1-12-10.1c-5.7,0-10.3,2-14.5,6.7l-3.4-5.2c5.1-5.4,11.2-8,18.9-8
            c10.1,0,18.3,4.6,18.3,16.3v33.3H890.1z M890.1,121.4v-9.2c-2.8-3.9-7.8-5.9-12.9-5.9c-7,0-11.8,4.4-11.8,10.5
            c0,6.2,4.8,10.6,11.8,10.6C882.3,127.4,887.3,125.4,890.1,121.4z"></path>
<path d="M907.8,131.6V83.2h7.3v7.7c3.8-5,9.3-8.8,15.8-8.8v7.7c-0.9-0.1-1.8-0.2-2.8-0.2c-4.6,0-10.8,3.8-12.9,7.7v34.3H907.8z
            "></path>
<path d="M972,131.6v-7.2c-3.5,4.9-9.3,8.4-16,8.4c-12.3,0-21.1-9.6-21.1-25.4C935,91.9,943.7,82,956,82c6.4,0,12.2,3.2,16,8.5
            V64.8h7.3v66.9H972z M972,118.4V96.5c-2.5-4.2-8.3-7.8-14.1-7.8c-9.6,0-15.3,8-15.3,18.7s5.7,18.6,15.3,18.6
            C963.7,126.1,969.5,122.6,972,118.4z"></path>
</g>
<g class="mark">
<polygon class="st0" points="139.6,124.1 139.6,124.1 139.6,160.1 170.9,142 170.8,105.9 139.6,87.9       "></polygon>
<polygon class="st0" points="64.8,167.2 96,185.2 127.2,167.2 127.2,131.3        "></polygon>
<polygon class="st0" points="170.8,91.5 170.8,55.6 139.6,37.6 108.5,55.5        "></polygon>
<polygon class="st0" points="64.8,80.8 64.8,116.8 96,134.8 127.2,116.9 127.2,80.8 96,62.8       "></polygon>
<polygon class="st0" points="21.1,106 21.1,142 52.3,160 83.5,142        "></polygon>
<polygon class="st0" points="52.3,37.6 21.1,55.6 21.1,91.6 52.3,109.6       "></polygon>
<polygon class="st0" points="96,48.4 96,48.4 127.2,30.4 96,12.4 64.8,30.4 64.8,66.4         "></polygon>
</g>
</svg>