<svg width="78" height="79" viewBox="0 0 78 79" fill="none" xmlns="http://www.w3.org/2000/svg">
<g clip-path="url(#clip0_266_2120)">
<path d="M32.1865 78.9999L0 46.4357L0.738487 45.6885C5.00668 41.3703 10.7956 38.9443 16.8317 38.9443C22.8679 38.9443 28.6568 41.3703 32.925 45.6885C37.1932 50.0068 39.591 55.8638 39.591 61.9707C39.591 68.0777 37.1932 73.9345 32.925 78.2528L32.1865 78.9999ZM2.92605 46.4498L32.1168 75.9832C35.6949 72.0088 37.6222 66.7926 37.4983 61.4182C37.3745 56.0437 35.209 50.924 31.4518 47.1227C27.6945 43.3213 22.6343 41.1304 17.3221 41.0051C12.01 40.8798 6.85433 42.8298 2.92605 46.4498Z" fill="white"/>
<path d="M45.8135 78.9999L45.075 78.2528C40.8068 73.9345 38.4089 68.0777 38.4089 61.9707C38.4089 55.8638 40.8068 50.0068 45.075 45.6885C49.3432 41.3703 55.1321 38.9443 61.1682 38.9443C67.2044 38.9443 72.9933 41.3703 77.2615 45.6885L77.9999 46.4357L45.8135 78.9999ZM61.1404 41.0647C57.1436 41.0663 53.2331 42.2405 49.8826 44.4451C46.5321 46.6497 43.8854 49.7901 42.2633 53.4857C40.6411 57.1814 40.1131 61.2736 40.7433 65.2667C41.3734 69.2598 43.1346 72.9823 45.8135 75.9832L75.0739 46.4498C71.264 42.9642 66.3048 41.0437 61.1682 41.0647H61.1404Z" fill="white"/>
<path d="M16.8317 40.0498C13.8432 40.0516 10.8836 39.4574 8.12218 38.3012C5.36077 37.145 2.85171 35.4494 0.738487 33.3114L0 32.5643L32.1865 0L32.925 0.747143C36.1088 3.96665 38.2771 8.06925 39.1558 12.5359C40.0344 17.0025 39.5838 21.6325 37.861 25.84C36.1381 30.0474 33.2205 33.6434 29.4772 36.1728C25.7339 38.7022 21.3331 40.0514 16.8317 40.0498ZM2.98178 32.5501C6.91006 36.1702 12.0657 38.1201 17.3779 37.9948C22.69 37.8695 27.7502 35.6787 31.5075 31.8773C35.2648 28.0759 37.4302 22.9563 37.5541 17.5818C37.6779 12.2073 35.7506 6.99118 32.1726 3.01679L2.98178 32.5501Z" fill="white"/>
<path d="M61.1683 40.0498C56.6583 40.0599 52.2471 38.7137 48.4947 36.1822C44.7424 33.6507 41.8183 30.0482 40.0938 25.832C38.3692 21.6158 37.922 16.9762 38.8089 12.5023C39.6959 8.02844 41.8769 3.92217 45.0751 0.704907L45.8136 -0.0422363L78 32.522L77.2616 33.2692C75.1527 35.4161 72.6454 37.1202 69.8836 38.2839C67.1218 39.4475 64.16 40.0477 61.1683 40.0498ZM45.8414 3.00274C41.9613 6.92845 39.7814 12.2529 39.7814 17.8047C39.7814 23.3565 41.9613 28.6809 45.8414 32.6066C49.7216 36.5323 54.9843 38.7378 60.4717 38.7378C65.9591 38.7378 71.2217 36.5323 75.1019 32.6066L45.8414 3.00274Z" fill="white"/>
<path d="M16.8179 22.0337C19.542 22.0337 21.7503 19.7994 21.7503 17.0433C21.7503 14.2872 19.542 12.053 16.8179 12.053C14.0937 12.053 11.8854 14.2872 11.8854 17.0433C11.8854 19.7994 14.0937 22.0337 16.8179 22.0337Z" fill="white"/>
<path d="M17.0054 23.1235C15.8198 23.1263 14.66 22.7731 13.6729 22.1087C12.6858 21.4444 11.9157 20.4986 11.4601 19.3912C11.0045 18.2839 10.8838 17.0646 11.1134 15.8878C11.343 14.711 11.9126 13.6296 12.7499 12.7804C13.5873 11.9313 14.6548 11.3526 15.8174 11.1175C16.98 10.8825 18.1854 11.0017 19.281 11.4601C20.3766 11.9184 21.3132 12.6954 21.9722 13.6925C22.6311 14.6897 22.9829 15.8622 22.9829 17.0617C22.9792 18.6658 22.3487 20.2033 21.2289 21.3389C20.1091 22.4745 18.5908 23.116 17.0054 23.1235ZM17.0054 13.1286C16.2326 13.1258 15.4764 13.3553 14.8326 13.788C14.1889 14.2206 13.6867 14.837 13.3897 15.5588C13.0927 16.2806 13.0143 17.0754 13.1644 17.8424C13.3144 18.6094 13.6863 19.314 14.2328 19.8669C14.7792 20.4198 15.4756 20.796 16.2337 20.9478C16.9918 21.0997 17.7774 21.0203 18.4909 20.7198C19.2043 20.4193 19.8135 19.9112 20.2411 19.2599C20.6688 18.6087 20.8956 17.8436 20.8928 17.0617C20.8892 16.0197 20.4784 15.0215 19.7502 14.2847C19.0219 13.5479 18.0353 13.1323 17.0054 13.1286Z" fill="#595955"/>
<path d="M61.1822 66.9329C63.9064 66.9329 66.1147 64.6986 66.1147 61.9425C66.1147 59.1864 63.9064 56.9521 61.1822 56.9521C58.4581 56.9521 56.2498 59.1864 56.2498 61.9425C56.2498 64.6986 58.4581 66.9329 61.1822 66.9329Z" fill="white"/>
<path d="M61.1822 67.9903C60.0006 67.9875 58.8462 67.6305 57.8651 66.9642C56.8839 66.298 56.1199 65.3525 55.6696 64.2472C55.2194 63.1419 55.103 61.9264 55.3352 60.7542C55.5674 59.582 56.1378 58.5058 56.9743 57.6614C57.8108 56.817 58.8759 56.2424 60.0351 56.0102C61.1942 55.778 62.3954 55.8986 63.4868 56.3568C64.5782 56.8149 65.511 57.59 66.1672 58.5842C66.8234 59.5784 67.1736 60.7472 67.1736 61.9427C67.1699 63.5479 66.5371 65.0861 65.4139 66.2199C64.2907 67.3536 62.7688 67.9903 61.1822 67.9903ZM61.1822 58.0096C60.4139 58.0124 59.6637 58.2454 59.0263 58.6793C58.3888 59.1131 57.8927 59.7284 57.6006 60.4473C57.3085 61.1662 57.2335 61.9566 57.3851 62.7186C57.5366 63.4806 57.908 64.1801 58.4522 64.7287C58.9964 65.2773 59.6891 65.6506 60.4428 65.8012C61.1965 65.9518 61.9775 65.8731 62.687 65.575C63.3965 65.2769 64.0028 64.7728 64.4294 64.1263C64.8559 63.4798 65.0836 62.72 65.0836 61.9427C65.0836 61.425 64.9826 60.9124 64.7863 60.4343C64.5901 59.9562 64.3025 59.522 63.9401 59.1566C63.5776 58.7912 63.1474 58.5017 62.6741 58.3049C62.2009 58.1081 61.6939 58.0078 61.1822 58.0096Z" fill="#595955"/>
<path d="M16.7899 66.9612C19.514 66.9612 21.7224 64.7269 21.7224 61.9708C21.7224 59.2147 19.514 56.9805 16.7899 56.9805C14.0658 56.9805 11.8574 59.2147 11.8574 61.9708C11.8574 64.7269 14.0658 66.9612 16.7899 66.9612Z" fill="white"/>
<path d="M16.7899 68.0184C15.6076 68.0184 14.4519 67.6636 13.4689 66.9991C12.486 66.3346 11.7198 65.3901 11.2674 64.285C10.815 63.18 10.6966 61.964 10.9272 60.7909C11.1579 59.6177 11.7272 58.5402 12.5631 57.6944C13.3991 56.8486 14.4642 56.2726 15.6237 56.0393C16.7832 55.8059 17.9851 55.9257 19.0773 56.3835C20.1696 56.8412 21.1032 57.6163 21.76 58.6108C22.4168 59.6054 22.7673 60.7746 22.7673 61.9708C22.7673 63.5747 22.1376 65.1129 21.0166 66.247C19.8956 67.3812 18.3752 68.0184 16.7899 68.0184ZM16.7899 58.0376C16.021 58.0376 15.2694 58.2683 14.6301 58.7005C13.9908 59.1327 13.4926 59.7469 13.1983 60.4656C12.9041 61.1843 12.8271 61.975 12.9771 62.738C13.1271 63.5009 13.4973 64.2017 14.041 64.7518C14.5847 65.3018 15.2774 65.6765 16.0315 65.8283C16.7856 65.98 17.5672 65.9021 18.2775 65.6044C18.9879 65.3067 19.595 64.8027 20.0222 64.1559C20.4493 63.5091 20.6773 62.7486 20.6773 61.9708C20.6773 60.9276 20.2678 59.9272 19.5387 59.1896C18.8097 58.452 17.8209 58.0376 16.7899 58.0376Z" fill="#595955"/>
<path d="M61.2101 22.0195C63.9342 22.0195 66.1425 19.7853 66.1425 17.0292C66.1425 14.2731 63.9342 12.0388 61.2101 12.0388C58.4859 12.0388 56.2776 14.2731 56.2776 17.0292C56.2776 19.7853 58.4859 22.0195 61.2101 22.0195Z" fill="white"/>
<path d="M61.21 23.0768C60.0245 23.0768 58.8655 22.721 57.8799 22.0543C56.8943 21.3876 56.1264 20.44 55.6734 19.3316C55.2203 18.2231 55.1025 17.0036 55.3348 15.8273C55.5671 14.6511 56.1391 13.571 56.9784 12.7238C57.8177 11.8767 58.8866 11.3004 60.0497 11.0681C61.2129 10.8358 62.418 10.9579 63.5125 11.4188C64.6071 11.8798 65.5418 12.6589 66.1985 13.6576C66.8552 14.6563 67.2042 15.8297 67.2015 17.0292C67.1978 18.6344 66.5649 20.1727 65.4417 21.3064C64.3185 22.4402 62.7967 23.0769 61.21 23.0768ZM61.21 13.082C60.4384 13.082 59.6841 13.3135 59.0425 13.7473C58.401 14.181 57.9009 14.7974 57.6056 15.5187C57.3103 16.2399 57.2331 17.0336 57.3836 17.7993C57.5341 18.5649 57.9057 19.2683 58.4513 19.8203C58.997 20.3723 59.6921 20.7482 60.4489 20.9006C61.2057 21.0529 61.9901 20.9747 62.703 20.6759C63.4159 20.3772 64.0252 19.8712 64.4539 19.2221C64.8826 18.573 65.1114 17.8099 65.1114 17.0292C65.1114 16.5108 65.0105 15.9976 64.8144 15.5187C64.6184 15.0398 64.331 14.6047 63.9687 14.2381C63.6065 13.8716 63.1764 13.5809 62.703 13.3825C62.2297 13.1841 61.7224 13.082 61.21 13.082Z" fill="#595955"/>
</g>
<defs>
<clipPath id="clip0_266_2120">
<rect width="78" height="79" fill="white"/>
</clipPath>
</defs>
</svg>
